<svg version="1.0" id="malawi" xmlns="http://www.w3.org/2000/svg" xmlns:xlink="http://www.w3.org/1999/xlink" x="0px" y="0px"
	 viewBox="5 35 150 90" enable-background="new 0 0 160 160" xml:space="preserve">
<g>
	<defs>
		<rect id="SVGID_1_" x="2.397" y="34.851" width="154.77" height="90.28"/>
	</defs>
	<clipPath id="SVGID_2_">
		<use xlink:href="#SVGID_1_"  overflow="visible"/>
	</clipPath>
	<path clip-path="url(#SVGID_2_)" d="M2.397,34.851h154.77v45.14H2.397L2.397,34.851z"/>
</g>
<g>
	<defs>
		<rect id="SVGID_3_" x="2.397" y="34.851" width="154.77" height="90.28"/>
	</defs>
	<clipPath id="SVGID_4_">
		<use xlink:href="#SVGID_3_"  overflow="visible"/>
	</clipPath>
	<path clip-path="url(#SVGID_4_)" fill="#4F9F3A" d="M2.397,79.991h154.77v45.14H2.397L2.397,79.991z"/>
</g>
<g>
	<defs>
		<rect id="SVGID_5_" x="2.397" y="34.851" width="154.77" height="90.28"/>
	</defs>
	<clipPath id="SVGID_6_">
		<use xlink:href="#SVGID_5_"  overflow="visible"/>
	</clipPath>
	<path clip-path="url(#SVGID_6_)" fill="#BC0030" d="M2.397,64.949h154.77v30.09H2.397L2.397,64.949z"/>
</g>
<g>
	<defs>
		<rect id="SVGID_7_" x="2.397" y="34.851" width="154.77" height="90.28"/>
	</defs>
	<clipPath id="SVGID_8_">
		<use xlink:href="#SVGID_7_"  overflow="visible"/>
	</clipPath>
	<g clip-path="url(#SVGID_8_)">
		<g>
			<path fill="#BC0030" d="M79.78,49.749c-8.455,0-15.637,5.402-18.304,12.943h36.606C95.414,55.151,88.23,49.749,79.78,49.749"/>
			<path fill="#BC0030" d="M79.78,38.463c-0.654,0-0.906,0.98-0.906,1.954c0,2.36,0.287,3.591,0.906,7.08
				c0.613-3.483,0.9-4.715,0.9-7.08C80.681,39.442,80.429,38.463,79.78,38.463 M77.11,38.575c-0.652,0.056-0.823,1.057-0.736,2.032
				c0.205,2.35,0.6,3.555,1.513,6.972c0.308-3.524,0.485-4.786,0.282-7.131C78.087,39.473,77.757,38.519,77.11,38.575
				 M82.448,38.575c-0.649-0.056-0.975,0.898-1.062,1.873c-0.208,2.345-0.026,3.607,0.285,7.131
				c0.916-3.417,1.308-4.622,1.511-6.972C83.269,39.632,83.097,38.632,82.448,38.575 M74.568,38.924
				c-0.039,0-0.082,0.005-0.123,0.005c-0.644,0.118-0.715,1.118-0.546,2.083c0.413,2.319,0.905,3.488,2.116,6.808
				c0-3.535,0.072-4.797-0.339-7.121C75.517,39.801,75.143,38.935,74.568,38.924 M84.987,38.924
				c-0.575,0.01-0.949,0.877-1.108,1.775c-0.41,2.324-0.339,3.586-0.339,7.121c1.206-3.319,1.706-4.489,2.116-6.808
				c0.169-0.964,0.097-1.965-0.546-2.083C85.072,38.929,85.028,38.924,84.987,38.924 M71.957,39.488
				c-0.036,0.005-0.08,0.005-0.121,0.015c-0.631,0.174-0.621,1.185-0.367,2.129c0.61,2.278,1.213,3.396,2.709,6.603
				c-0.31-3.519-0.349-4.797-0.959-7.08c-0.236-0.881-0.688-1.712-1.262-1.672 M87.609,39.483c-0.575-0.041-1.024,0.79-1.262,1.672
				c-0.61,2.278-0.649,3.555-0.959,7.08c1.495-3.206,2.098-4.325,2.709-6.603c0.254-0.944,0.264-1.954-0.367-2.129
				c-0.042-0.009-0.085-0.009-0.121-0.015 M69.519,40.279c-0.077,0-0.151,0.01-0.228,0.036c-0.61,0.226-0.513,1.226-0.18,2.144
				c0.808,2.216,1.498,3.278,3.265,6.341c-0.616-3.483-0.764-4.745-1.57-6.962C70.514,41.038,70.042,40.304,69.519,40.279
				 M90.057,40.279c-0.526,0.026-0.995,0.759-1.288,1.559c-0.808,2.216-0.957,3.478-1.57,6.962c1.765-3.063,2.455-4.125,3.263-6.341
				c0.334-0.918,0.431-1.919-0.179-2.144C90.209,40.289,90.132,40.279,90.057,40.279 M67.037,41.279
				c-0.072,0.005-0.141,0.026-0.215,0.056c-0.59,0.277-0.413,1.267,0,2.155c0.998,2.139,1.783,3.129,3.809,6.03
				c-0.916-3.411-1.178-4.653-2.173-6.792c-0.359-0.77-0.895-1.467-1.421-1.447 M92.544,41.281c-0.526-0.02-1.062,0.677-1.421,1.447
				c-0.995,2.139-1.257,3.381-2.172,6.792c2.029-2.898,2.814-3.889,3.809-6.03c0.413-0.888,0.593-1.878,0-2.155
				c-0.075-0.03-0.144-0.051-0.216-0.056 M64.662,42.49c-0.077,0.015-0.151,0.036-0.221,0.077c-0.562,0.328-0.29,1.298,0.198,2.144
				c1.18,2.042,2.047,2.976,4.317,5.679c-1.211-3.319-1.578-4.54-2.755-6.577C65.773,43.069,65.18,42.423,64.662,42.49
				 M94.812,42.49c-0.49,0.031-1.034,0.631-1.429,1.324c-1.177,2.037-1.549,3.258-2.755,6.577c2.273-2.703,3.137-3.637,4.317-5.679
				c0.487-0.846,0.759-1.816,0.198-2.144C95.038,42.505,94.927,42.49,94.812,42.49 M62.512,43.9
				c-0.113,0.005-0.22,0.036-0.318,0.108c-0.536,0.374-0.174,1.324,0.385,2.124c1.352,1.929,2.285,2.775,4.787,5.279
				c-1.495-3.206-1.96-4.381-3.311-6.315C63.599,44.449,63.004,43.885,62.512,43.9 M97.083,43.9
				c-0.49-0.015-1.087,0.549-1.542,1.195c-1.354,1.934-1.816,3.109-3.311,6.315c2.501-2.503,3.435-3.35,4.786-5.279
				c0.559-0.8,0.921-1.75,0.385-2.124C97.302,43.936,97.196,43.906,97.083,43.9 M60.375,45.501
				c-0.113,0.015-0.213,0.067-0.308,0.144c-0.498,0.421-0.067,1.329,0.564,2.078c1.513,1.806,2.529,2.56,5.238,4.833
				c-1.77-3.063-2.339-4.197-3.855-6c-0.51-0.607-1.146-1.109-1.639-1.053 M99.108,45.503c-0.472,0.026-1.054,0.492-1.526,1.052
				c-1.516,1.806-2.085,2.94-3.855,6c2.711-2.273,3.725-3.03,5.24-4.833c0.629-0.749,1.06-1.657,0.562-2.078
				c-0.124-0.107-0.265-0.148-0.421-0.143 M58.505,47.271c-0.156,0.005-0.297,0.062-0.41,0.18c-0.462,0.462,0.049,1.329,0.741,2.02
				c1.667,1.672,2.747,2.339,5.643,4.366c-2.029-2.893-2.696-3.976-4.366-5.638c-0.518-0.519-1.136-0.945-1.608-0.924
				 M101.09,47.275c-0.472-0.02-1.09,0.405-1.608,0.924c-1.667,1.662-2.337,2.745-4.366,5.638c2.898-2.026,3.976-2.693,5.646-4.366
				c0.69-0.687,1.203-1.554,0.741-2.02c-0.113-0.118-0.256-0.175-0.413-0.18 M56.81,49.205c-0.208,0-0.385,0.067-0.518,0.221
				c-0.421,0.497,0.164,1.313,0.913,1.944c1.806,1.513,2.937,2.088,6,3.858c-2.275-2.709-3.03-3.724-4.833-5.238
				C57.856,49.554,57.264,49.22,56.81,49.205 M102.796,49.205c-0.454,0.015-1.046,0.349-1.562,0.785
				c-1.801,1.513-2.558,2.529-4.833,5.238c3.063-1.77,4.194-2.344,6-3.858c0.749-0.631,1.334-1.447,0.913-1.944
				C103.183,49.272,103.004,49.205,102.796,49.205 M55.155,51.288c-0.208,0.011-0.382,0.098-0.5,0.262
				c-0.372,0.533,0.29,1.298,1.093,1.862c1.929,1.355,3.104,1.816,6.308,3.309c-2.498-2.498-3.342-3.432-5.276-4.786
				C56.23,51.55,55.609,51.257,55.155,51.288 M104.325,51.288c-0.436,0.021-0.993,0.298-1.493,0.646
				c-1.934,1.355-2.778,2.288-5.276,4.786c3.204-1.493,4.379-1.954,6.308-3.309c0.803-0.564,1.47-1.329,1.095-1.862
				C104.814,51.349,104.591,51.272,104.325,51.288 M53.825,53.494c-0.262,0.01-0.48,0.097-0.605,0.313
				c-0.323,0.564,0.398,1.267,1.244,1.76c2.042,1.18,3.26,1.544,6.584,2.755c-2.711-2.273-3.64-3.14-5.679-4.314
				C54.838,53.699,54.263,53.484,53.825,53.494 M105.793,53.494c-0.439-0.01-1.013,0.205-1.539,0.513
				c-2.042,1.175-2.973,2.042-5.684,4.314c3.324-1.211,4.543-1.575,6.584-2.755c0.847-0.492,1.567-1.195,1.244-1.76
				C106.275,53.591,106.054,53.504,105.793,53.494 M52.835,55.813c-0.393-0.026-0.708,0.077-0.847,0.375
				c-0.272,0.59,0.51,1.221,1.393,1.636c2.136,0.995,3.375,1.257,6.792,2.17c-2.896-2.026-3.894-2.811-6.03-3.806
				C53.702,55.977,53.232,55.833,52.835,55.813 M106.783,55.813c-0.397,0.02-0.864,0.164-1.308,0.375
				c-2.137,0.995-3.132,1.78-6.03,3.806c3.417-0.913,4.655-1.175,6.792-2.17c0.885-0.416,1.665-1.046,1.393-1.636
				C107.491,55.89,107.175,55.787,106.783,55.813 M51.773,58.208c-0.392,0.01-0.698,0.144-0.811,0.452
				c-0.223,0.616,0.605,1.18,1.526,1.513c2.214,0.805,3.473,0.959,6.959,1.57c-3.065-1.77-4.125-2.457-6.341-3.263
				C52.648,58.316,52.166,58.198,51.773,58.208 M107.843,58.208c-0.395-0.01-0.877,0.108-1.334,0.272
				c-2.219,0.806-3.278,1.493-6.343,3.263c3.486-0.61,4.748-0.764,6.959-1.57c0.921-0.334,1.749-0.898,1.526-1.513
				C108.54,58.352,108.238,58.219,107.843,58.208 M51.233,60.681c-0.541-0.01-0.975,0.133-1.08,0.528
				c-0.169,0.631,0.708,1.129,1.654,1.38c0.133,0.036,0.257,0.061,0.385,0.097h4.838c-1.89-0.888-2.983-1.37-4.75-1.847
				C51.923,60.748,51.558,60.686,51.233,60.681 M108.373,60.681c-0.326,0.005-0.69,0.067-1.046,0.159
				c-1.765,0.477-2.86,0.959-4.748,1.847h4.835c0.128-0.036,0.251-0.061,0.385-0.097c0.946-0.251,1.826-0.749,1.655-1.38
				C109.347,60.814,108.914,60.671,108.373,60.681"/>
		</g>
	</g>
</g>
</svg>
