<?xml version="1.0" encoding="UTF-8" standalone="no"?><svg xmlns="http://www.w3.org/2000/svg" height="800" width="1200"><rect id="rect5" fill-rule="evenodd" height="800" width="1200" y="0" x="0" fill="#4b92db" style="stroke:none" /><g id="g4303" transform="translate(-1.081,0)"><g id="branches-olive"><path d="m 663.852,587.030 c -2.693,3.077 -6.179,5.955 -9.466,8.607 -21.232,-21.943 -46.159,-46.262 -69.853,-46.262 -14.689,0 -25.269,11.182 -37.613,19.072 -17.129,10.948 -40.626,17.114 -60.761,9.078 -10.830,-4.111 -21.323,-10.168 -29.164,-20.008 15.848,10.929 39.580,12.398 57.471,4.976 19.775,-8.204 39.903,-19.098 62.441,-19.098 33.221,0 64.796,22.472 86.946,43.634 z M 418.311,518.016 c 21.995,25.038 57.870,16.982 87.233,23.236 4.087,0.870 7.926,2.227 12.313,1.553 -3.491,-2.213 -8.118,-2.462 -12.150,-3.982 -22.782,-8.582 -26.334,-32.966 -38.803,-49.747 15.925,10.587 29.118,25.082 44.011,38.703 10.364,9.480 23.277,13.536 36.669,16.261 -3.218,1.176 -7.427,0.898 -10.893,1.758 -24.055,5.967 -50.727,15.387 -76.324,6.940 -16.519,-5.451 -33.709,-18.361 -42.056,-34.724 z m -35.258,-57.950 c 13.720,31.063 48.191,33.496 71.111,52.552 4.358,3.623 8.678,6.958 13.465,9.191 l 0.247,-0.250 c -5.288,-4.785 -11.012,-10.488 -15.109,-16.441 -13.099,-19.033 -8.740,-45.051 -18.841,-65.231 9.176,10.988 17.783,22.302 23.068,34.883 8.503,20.245 11.391,43.341 30.463,58.725 -20.641,-6.809 -44.452,-5.454 -63.039,-17.628 -19.537,-12.796 -37.644,-32.995 -41.366,-55.801 z m -14.697,-62.846 c 1.983,27.367 31.120,41.987 45.013,64.484 2.967,4.804 6.020,9.765 10.329,13.645 -0.671,-2.913 -3.069,-5.495 -4.388,-8.354 -4.456,-9.652 -6.472,-20.823 -5.360,-32.310 1.353,-13.975 7.179,-26.952 4.943,-41.654 11.975,25.848 8.112,58.161 15.033,86.110 1.531,6.182 5.296,11.593 7.616,17.448 -11.765,-8.950 -27.185,-16.895 -40.100,-27.075 -12.490,-9.844 -23.331,-21.383 -28.966,-36.398 -4.060,-10.819 -5.116,-23.724 -4.120,-35.895 z m 0.813,-50.425 c 1.405,-6.108 2.481,-12.429 5.138,-18.033 -5.031,25.816 12.143,44.466 18.007,66.802 2.209,8.417 2.965,17.360 6.369,25.214 0.317,0.170 0.592,-0.159 0.788,-0.414 -8.473,-23.770 3.947,-45.739 16.048,-64.476 3.180,-4.925 4.711,-10.659 6.197,-16.457 1.307,10.760 -0.982,23.217 -2.973,34.321 -2.562,14.296 -7.449,27.694 -11.332,41.487 -2.556,8.617 -1.883,18.341 -0.570,27.369 l -1.233,-0.984 c -9.009,-16.632 -26.784,-29.624 -32.152,-47.777 -4.290,-14.507 -7.258,-31.268 -4.288,-47.052 z m 9.502,-27.771 c 0,-19.536 7.607,-35.474 19.017,-50.023 0.331,-0.165 0.566,-0.497 0.994,-0.419 -12.561,19.107 -1.128,43.228 -2.742,64.901 l -1.656,22.243 c 0.246,0.161 0.246,0.829 0.829,0.574 0.742,-2.479 0.967,-5.117 1.399,-7.678 3.024,-17.932 18.770,-30.414 32.125,-43.074 3.158,-2.994 5.471,-6.535 6.961,-10.341 -1.110,8.932 -3.602,18.089 -7.612,26.207 -10.279,20.810 -30.132,37.608 -33.703,61.257 -1.731,-22.665 -15.612,-39.514 -15.612,-63.646 z m 33.111,-65.903 c 6.316,-7.003 13.396,-12.458 21.824,-14.617 -16.366,11.253 -15.477,31.366 -20.488,48.183 -1.832,6.148 -4.524,11.909 -5.956,18.264 l 0.414,0.331 c 2.722,-7.184 7.394,-14.090 13.481,-19.833 11.511,-10.860 28.817,-17.434 34.513,-33.321 -0.260,22.076 -19.078,38.858 -36.266,51.841 -7.708,5.822 -14.260,13.641 -18.257,21.836 0.667,-6.099 0.971,-11.174 0.426,-17.128 -1.764,-19.285 -2.908,-40.904 10.308,-55.557 z m 66.428,-37.116 c -12.146,10.657 -20.251,24.376 -29.581,36.708 -7.760,10.256 -18.409,16.612 -27.567,25.218 4.943,-10.256 5.856,-22.008 12.134,-31.930 10.735,-16.966 28.477,-23.551 45.015,-29.997 z" style="fill:#ffffff"/> 	 </g> 	 <use xlink:href="#branches-olive" transform="translate(1202.2,0) scale(-1,1)"/></g><path id="path51" d="m 748.353,436.68 -3.587,-1.957 c -7.606,15.686 -17.678,29.961 -29.726,42.308 l -20.959,-20.959 c 10.268,-10.581 18.547,-22.591 24.646,-35.571 l -3.571,-1.952 c -6.029,12.871 -14.141,24.582 -23.924,34.672 l -18.986,-18.986 c 8.150,-8.473 14.618,-18.141 19.286,-28.589 l -3.543,-1.933 c -4.571,10.297 -10.878,19.661 -18.584,27.687 l -20.982,-20.982 c 5.835,-6.183 10.34,-13.298 13.406,-20.997 l -3.544,-1.933 c -2.929,7.507 -7.260,14.323 -12.685,20.104 l -19.044,-19.041 c 5.425,-6.054 8.571,-13.65 9.016,-21.765 h 26.956 c -0.229,7.283 -1.721,14.251 -4.243,20.703 l 3.544,1.933 c 2.836,-7.133 4.438,-14.763 4.668,-22.637 h 29.715 c -0.267,13.119 -3.192,25.594 -8.224,36.929 l 3.543,1.933 c 5.403,-12.101 8.389,-25.251 8.653,-38.864 h 26.905 c -0.282,18.475 -4.544,35.993 -11.935,51.766 l 3.571,1.952 c 7.812,-16.624 12.058,-34.845 12.338,-53.718 h 29.713 c -0.296,24.319 -6.025,47.345 -16.012,67.94 l 3.589,1.956 c 10.743,-22.127 16.446,-46.562 16.446,-71.883 0,-21.533 -4.125,-42.423 -11.964,-61.803 l -3.681,1.582 c 7.382,18.288 11.384,37.955 11.63,58.234 h -29.717 c -0.240,-16.178 -3.42,-31.866 -9.235,-46.49 l -3.654,1.566 c 5.609,14.138 8.680,29.294 8.917,44.924 h -26.908 c -0.229,-11.914 -2.553,-23.474 -6.746,-34.29 l -3.654,1.570 c 3.988,10.322 6.2,21.353 6.432,32.72 h -29.718 c -0.210,-7.264 -1.586,-14.328 -4.026,-20.982 l -3.653,1.567 c 2.241,6.163 3.501,12.695 3.711,19.414 h -26.956 c -0.445,-8.116 -3.591,-15.711 -9.016,-21.765 l 19.063,-19.06 c 5.886,6.260 10.339,13.531 13.199,21.412 l 3.653,-1.567 c -3.060,-8.336 -7.797,-16.027 -14.048,-22.652 l 21.013,-21.011 c 8.966,9.333 15.811,20.169 20.347,31.924 l 3.654,-1.570 c -4.735,-12.21 -11.865,-23.468 -21.193,-33.162 l 19.026,-19.029 c 11.783,12.152 20.836,26.253 26.903,41.558 l 3.654,-1.566 c -6.268,-15.762 -15.605,-30.285 -27.749,-42.796 l 21.01,-21.014 c 14.859,15.222 26.321,32.885 34.061,52.066 l 3.681,-1.582 c -8.178,-20.239 -20.405,-38.828 -36.306,-54.728 -15.959,-15.961 -34.63,-28.215 -54.957,-36.395 l -1.464,3.727 c 19.223,7.742 36.925,19.218 52.175,34.105 l -21.01,21.013 c -12.3,-11.92 -26.55,-21.16 -42.02,-27.42 l -1.45,3.695 c 14.959,6.069 28.748,15.006 40.663,26.564 l -19.025,19.026 c -9.248,-8.897 -19.914,-15.807 -31.475,-20.537 l -1.452,3.695 c 11.062,4.533 21.264,11.145 30.12,19.651 l -21.01,21.01 c -5.91,-5.570 -12.668,-9.942 -19.97,-12.992 l -1.453,3.698 c 6.804,2.851 13.098,6.920 18.615,12.103 l -19.06,19.06 c -6.058,-5.425 -13.651,-8.571 -21.769,-9.014 v -26.955 c 7.746,0.238 15.247,1.884 22.214,4.806 l 1.453,-3.698 c -7.423,-3.101 -15.418,-4.838 -23.667,-5.081 v -29.716 c 12.032,0.241 23.69,2.687 34.528,7.128 l 1.452,-3.695 c -11.294,-4.621 -23.446,-7.160 -35.981,-7.402 v -26.92 c 15.956,0.243 31.427,3.425 45.816,9.259 l 1.45,-3.695 c -14.847,-6.014 -30.803,-9.290 -47.267,-9.534 v -29.719 c 20.24,0.244 39.871,4.233 58.125,11.584 l 1.464,-3.727 c -19.314,-7.776 -40.126,-11.874 -61.572,-11.874 -26.495,0 -51.529,6.321 -73.729,17.477 l 1.811,3.466 c 21.482,-10.764 45.249,-16.628 69.933,-16.926 v 29.72 c -20.131,0.299 -39.153,5.184 -56.117,13.608 l 1.804,3.456 c 16.713,-8.273 35.162,-12.806 54.312,-13.098 v 26.909 c -14.969,0.294 -29.133,3.894 -41.81,10.082 l 1.815,3.472 c 12.341,-5.990 25.911,-9.301 39.995,-9.584 v 29.719 c -9.339,0.275 -18.197,2.488 -26.195,6.241 l 1.825,3.485 c 7.565,-3.516 15.82,-5.493 24.37,-5.758 v 26.959 c -4.181,0.232 -8.17,1.186 -11.846,2.737 l 1.821,3.483 c 3.759,-1.539 7.822,-2.350 12.009,-2.350 8.467,0 16.426,3.296 22.414,9.283 5.987,5.987 9.284,13.949 9.284,22.417 0,17.478 -14.217,31.702 -31.698,31.702 -8.469,0 -16.43,-3.298 -22.417,-9.285 -5.987,-5.990 -9.284,-13.949 -9.284,-22.417 0,-8.467 3.297,-16.43 9.284,-22.417 3.028,-3.027 6.560,-5.358 10.407,-6.932 l -1.821,-3.483 c -3.653,1.542 -6.995,3.674 -9.91,6.285 l -19.071,-19.071 c 4.926,-4.629 10.475,-8.373 16.456,-11.153 l -1.825,-3.485 c -6.432,3.019 -12.307,7.031 -17.42,11.852 l -21.032,-21.033 c 7.375,-7.084 15.694,-12.842 24.653,-17.194 l -1.815,-3.472 c -9.461,4.616 -18.099,10.668 -25.611,17.89 l -19.06,-19.058 c 9.62,-9.333 20.476,-16.939 32.168,-22.725 l -1.804,-3.456 c -12.239,6.079 -23.417,13.991 -33.13,23.417 l -21.054,-21.055 c 12.07,-11.783 25.689,-21.406 40.368,-28.763 l -1.811,-3.466 c -32.087,16.125 -58.21,42.403 -74.117,74.617 l 3.452,1.863 c 7.418,-15.088 17.23,-29.077 29.3,-41.445 l 21.056,21.056 c -9.794,10.091 -17.978,21.749 -24.141,34.556 l 3.439,1.857 c 5.870,-12.263 13.741,-23.621 23.464,-33.648 l 19.061,19.059 c -7.682,7.992 -14.039,17.258 -18.751,27.436 l 3.447,1.860 c 4.438,-9.675 10.503,-18.635 18.079,-26.521 l 21.032,21.033 c -5.376,5.703 -9.754,12.355 -12.863,19.673 l 3.475,1.879 c 2.856,-6.864 6.950,-13.212 12.173,-18.767 l 19.071,19.069 c -5.235,5.852 -8.559,13.418 -9.021,21.756 h -26.962 c 0.239,-7.687 1.860,-15.136 4.739,-22.059 l -3.475,-1.879 c -3.140,7.392 -4.981,15.469 -5.233,23.938 h -29.715 c 0.267,-13.373 3.266,-26.286 8.699,-38.124 l -3.447,-1.860 c -5.654,12.208 -8.940,25.732 -9.217,39.985 h -26.913 c 0.282,-18.584 4.545,-36.512 12.358,-52.832 l -3.439,-1.857 c -7.993,16.6 -12.591,35.129 -12.883,54.689 h -29.721 c 0.292,-24.271 5.963,-47.658 16.387,-68.855 l -3.452,-1.863 c -10.835,21.946 -16.952,46.619 -16.952,72.704 0,15.956 2.278,31.551 6.631,46.448 l 3.892,-0.979 c -4.092,-13.96 -6.326,-28.553 -6.506,-43.482 h 29.716 c 0.183,12.448 2.101,24.611 5.621,36.223 l 3.853,-0.971 c -3.446,-11.297 -5.319,-23.136 -5.506,-35.252 h 26.908 c 0.194,9.868 1.821,19.498 4.752,28.662 l 3.859,-0.973 c -2.857,-8.846 -4.446,-18.152 -4.64,-27.688 h 29.715 c 0.207,7.057 1.512,13.925 3.823,20.412 l 3.862,-0.975 c -2.239,-6.168 -3.507,-12.711 -3.717,-19.436 h 26.959 c 0.445,8.115 3.589,15.711 9.014,21.765 l -19.061,19.062 c -5.880,-6.258 -10.332,-13.519 -13.196,-21.391 l -3.862,0.975 c 3.050,8.553 7.858,16.447 14.25,23.222 l -21.01,21.012 c -10.22,-10.64 -17.7,-23.25 -22.13,-36.95 l -3.859,0.973 c 4.600,14.386 12.444,27.62 23.191,38.79 l -19.029,19.03 c -14.23,-14.674 -24.508,-32.179 -30.315,-51.232 l -3.853,0.971 c 5.984,19.737 16.617,37.877 31.36,53.067 l -21.011,21.012 c -18.596,-19.054 -31.878,-41.923 -39.18,-66.819 l -3.892,0.979 c 7.659,26.211 21.79,50.237 41.638,70.081 13.441,13.444 28.804,24.265 45.459,32.239 l 1.972,-3.498 c -15.763,-7.512 -30.344,-17.635 -43.189,-30.177 l 21.01,-21.009 c 10.92,10.599 23.372,19.051 36.836,25.208 l 1.960,-3.477 c -13.157,-5.970 -25.325,-14.202 -35.986,-24.537 l 19.027,-19.028 c 8.917,8.579 19.157,15.305 30.245,20.016 l 1.959,-3.471 c -10.77,-4.52 -20.73,-11.02 -29.39,-19.34 l 21.013,-21.012 c 6.751,6.369 14.612,11.167 23.133,14.219 l 1.985,-3.516 c -8.224,-2.847 -15.81,-7.402 -22.31,-13.509 l 19.061,-19.063 c 6.054,5.429 13.646,8.573 21.765,9.018 v 26.959 c -6.394,-0.198 -12.62,-1.365 -18.516,-3.403 l -1.985,3.516 c 6.513,2.336 13.408,3.646 20.502,3.855 v 29.713 c -12.296,-0.245 -24.21,-2.791 -35.249,-7.422 l -1.959,3.471 c 11.641,4.948 24.215,7.671 37.208,7.922 v 26.909 c -17.706,-0.272 -34.806,-4.164 -50.494,-11.283 l -1.960,3.477 c 16.285,7.441 34.056,11.501 52.455,11.776 v 29.712 c -23.602,-0.283 -46.38,-5.634 -67.111,-15.51 l -1.972,3.498 c 21.909,10.487 46.06,16.031 71.069,16.031 26.234,0 51.51,-6.129 74.259,-17.64 l -1.878,-3.643 c -21.215,10.744 -45.098,16.954 -70.397,17.265 v -29.713 c 20.059,-0.296 39.368,-5.104 56.814,-13.88 l -1.854,-3.595 c -16.583,8.351 -35.222,13.196 -54.959,13.503 v -26.909 c 15.05,-0.29 29.535,-3.901 42.657,-10.446 l -1.843,-3.578 c -12.345,6.157 -26.175,9.754 -40.813,10.053 v -29.713 c 9.584,-0.280 18.812,-2.587 27.21,-6.698 l -1.831,-3.557 c -7.713,3.764 -16.301,5.997 -25.38,6.284 v -26.955 c 8.117,-0.445 15.711,-3.588 21.769,-9.018 l 19.041,19.043 c -4.559,4.279 -9.756,7.876 -15.43,10.647 l 1.831,3.557 c 5.948,-2.913 11.488,-6.719 16.426,-11.377 l 20.978,20.979 c -7.003,6.728 -15.029,12.383 -23.802,16.756 l 1.843,3.578 c 8.997,-4.485 17.362,-10.339 24.799,-17.492 l 18.986,18.984 c -9.248,8.969 -19.865,16.518 -31.482,22.361 l 1.854,3.595 c 11.797,-5.931 22.748,-13.66 32.476,-23.106 l 20.959,20.959 c -11.693,11.413 -25.137,21.024 -39.851,28.473 l 1.878,3.643 c 15.419,-7.802 29.693,-18.052 42.27,-30.63 13.222,-13.219 23.891,-28.305 31.825,-44.645 z" style="fill:#ffffff" inkscape:connector-curvature="0" /><polygon id="polygon59" transform="matrix(.78344 0 0 .79511 198.88 154.38)" points="522.77 216.72 522.83 218.22 524.11 218.16 524.04 216.67" fill="#fff" style="fill:#ffffff" /><rect id="rect61" height="1.012" width="1.327" y="325.07" x="606.98" fill="#fff" style="fill:#ffffff" /><polygon id="polygon63" transform="matrix(.78344 0 0 .79511 198.88 154.38)" points="519.34 214.45 519.52 213.19 518.03 212.98 517.85 214.23" fill="#fff" style="fill:#ffffff" /><rect id="rect65" transform="matrix(-.98971 -.14306 .13897 -.99030 0 0)" height="1.013" width="1.172" y="-234.69" x="-642.83" fill="#fff" style="fill:#ffffff" /><rect id="rect67" height="1.013" width="1.327" y="323.04" x="594.02" fill="#fff" style="fill:#ffffff" /><polygon id="polygon69" transform="matrix(.78344 0 0 .79511 198.88 154.38)" points="502.15 214.87 502.33 213.61 500.85 213.4 500.67 214.66" fill="#fff" style="fill:#ffffff" /><rect id="rect71" transform="matrix(-.96919 -.24631 .23955 -.97088 0 0)" height="1.011" width="1.374" y="-170.9" x="-652.28" fill="#fff" style="fill:#ffffff" /><rect id="rect73" transform="matrix(-.16106 -.98695 .98617 -.16576 0 0)" height=".99854" width="1.026" y="528.38" x="-420.91" fill="#fff" style="fill:#ffffff" /><polygon id="polygon75" transform="matrix(.78344 0 0 .79511 198.88 154.38)" points="330.58 346.22 329.52 346.22 329.52 348.34 331.22 348.34 331.22 351.1 332.5 351.1 332.28 347.92 330.58 347.28" fill="#fff" style="fill:#ffffff" /><polygon id="polygon77" transform="matrix(.78344 0 0 .79511 198.88 154.38)" points="342.47 361.71 341.62 359.8 340.13 355.98 343.31 357.46 344.38 360.43 345.86 361.5 347.35 364.68 346.5 366.16 344.17 364.04" fill="#fff" style="fill:#ffffff" /><polygon id="polygon79" transform="matrix(.78344 0 0 .79511 198.88 154.38)" points="390.21 421.12 388.51 418.57 391.06 419 393.81 421.33 394.88 424.09 393.39 424.94 392.54 423.67 390.42 423.03" fill="#fff" style="fill:#ffffff" /><path id="path81" fill="#fff" d="m594.85 337.55h-1.827l-0.332-3.710 0.997-0.677v-1.855h-5.818l-0.166-1.854 0.833-0.506-1.331-0.506-0.998 1.348-0.329 1.518-1.663 0.338v0.842h-1.162v2.192l-4.656 3.880-9.308-0.335c-0.667 1.517-2.330-0.170-2.330-0.170-0.329-1.011-2.655 0-2.655 0 0 1.858-3.158-0.842-3.158-0.842l-5.819-4.218c-3.324-3.036-8.310 0.845-8.476 1.687 0.165 2.362-3.823 0.506-3.823 0.506s-3.324-1.011-3.824 0.338c-0.497 1.348-2.662 1.013-2.662 1.013l-0.332 0.674-1.663 0.337-0.329 1.011-1.996 0.338 4.985-0.169c1.331-0.168-0.499 2.868-1.328 2.700l-2.325 0.168-0.833 0.842h-2.160l-0.996 1.352-3.156-0.169s-1.830 1.517-1.662 2.023c0.166 0.506-0.332 2.025-0.832 2.025-0.499 0-1.496 1.517-1.163 2.023 0.334 0.506-0.996 2.193-0.996 2.193l-0.331 1.688-0.996 0.335v4.556l-1.996 1.350v2.023l-2.994 3.205 0.334 2.697-2.492 2.700 0.329 2.699-1.495 0.506-0.330 1.180-0.664 3.541 1.661 0.170c0.828-0.338 0.664 2.192 0 2.528-0.667 0.338-2.496 1.012-1.496 1.686 0.998 0.677-2.660 0.507-2.660-0.505 0-1.009-1.995-1.855-2.492-1.516-0.499 0.335-1.331-1.518-1.331-1.518-1.827-1.855-7.480 0.167-7.480 0.167l-0.833 2.699c-1.826 0.338-2.989 3.375-2.989 3.375-1.496 0.506-2.659 2.360-2.160 2.867 0.497 0.506-0.833 0.674-0.833 0.674v3.713l-0.829 1.180 0.164 4.047c0.998 0 0.833 1.857 0.833 1.857-1.663 0.167-1.332 2.362-1.332 2.362l-3.489 1.18-0.664 1.011-4.321-0.169-1.163 1.182-1.166-1.182h-8.311l-0.329-0.842-1.663-0.339-0.167-1.854-2.492 0.167-0.498 1.012-2.661 0.167c0.166 1.688-2.659 4.219-2.989 3.546-0.336-0.675-2.163-2.534-1.331-2.868 0.832-0.339 2.994-0.678 2.994-0.678v-1.179l-6.153-0.167-0.662 1.013-2.496 0.166v2.700l-1.161 0.337c-0.832 0.504 0.164 2.362 0.164 2.362 1.163 1.179-0.164 3.034-0.164 3.034-0.998 1.013 0.828 2.871 0.828 2.871 1.331 0.334-0.828 1.347-0.828 1.347 0.329 1.686 1.328 2.192 1.328 2.192-0.998 1.686 0.667 2.528 0.667 2.528l0.164 2.871 1.163 0.675v1.851l0.664 1.182h2.659l-0.166-4.217c-2.328-2.700 1.993-3.375 2.162-2.364 0.167 1.013 1.995 1.519 1.995 1.519 0.332 2.531 3.159 4.047 3.988 1.520 0.832-2.534 1.496-1.013 1.995 0.166 0.499 1.182 3.653 4.051 3.653 4.051h2.495l0.334 2.362c2.825-0.169 3.654 0.171 4.817 4.047 1.166 3.878 4.323 4.891 4.323 4.891l2.328-0.168c0-2.021 2.327 0.341 2.327 1.354 0 1.008 4.487 4.889 4.487 4.889l4.486 1.010 4.160 3.378 3.155-0.337h1.331c0.828-2.871 4.820 0.166 5.150 1.179 0.335 1.013 2.994 2.700 3.324 1.855 0.334-0.842 2.162-0.334 2.496 2.192 0.331 2.534 1.493 2.026 1.493 2.026l9.477-0.168 3.324-2.871 8.479-0.166c4.321-0.168 1.661-6.074 0.832-6.074-1.496-1.179 0.496-6.072 0.496-6.072l-12.135-11.303c-2.825 0-0.332-4.051-0.332-4.051 2.160-1.350-0.499-3.540-0.499-3.540 0.334-2.027-1.163-4.389-1.163-4.389-2.989-2.024-2.160-5.906-2.160-5.906v-2.700c-2.492-2.359 0.998-2.700 0.998-2.700 1.161-2.020-0.832-3.539-0.832-3.539l-0.165-2.193-2.660-0.338-0.329-7.929-5.983-8.602c-1.166-0.340-0.334-2.362-0.334-2.362 1.496-0.844-0.334-2.866-0.334-2.866l-0.165-3.712 3.489-0.339 0.832-1.347h1.661l-0.165-4.387c0.829-2.192 2.824-1.013 2.824-1.013l2.327 0.169 1.331-2.530 0.329-2.025-1.826-0.166c-1.995-1.182-0.998-5.567-0.998-5.567 3.158-4.725 6.813-2.025 6.813-2.025l2.329-0.166c3.489 2.360 0.329 6.747 0.329 6.747-0.664 1.013-0.329 4.218-0.329 4.218l0.829 5.396-2.160 1.858c-1.827 1.013-1.827 3.373 0.167 3.880 1.328 0.166 0.829 3.373-1.165 1.18-2.989 0 1.665 2.699 0.334 2.022 2.993 1.519 2.325-1.348 2.325-1.348l3.993-3.205c1.496-1.18 4.156 2.532 4.156 3.038 0 0.505 6.648 0.166 6.648 0.166 1.827 1.180 2.492 4.218 2.492 4.218 1.830-2.363 5.652-0.170 2.827 1.18 2.657 1.687 2.657 3.205 2.657 3.205 2.163-0.674 2.163 1.012 2.163 1.518 0 0.506 0.664-2.53 0.664-2.53-2.493-1.856 3.324-2.530 1.663 0.843l-0.998 1.519 1.663 1.348 0.164 3.881c3.658-0.338 2.660-4.894 2.660-4.894l1.662-0.335c0-1.519 1.161-0.675 1.161-0.675-1.161-5.737 2.661-6.747 2.661-6.747 2.160-0.506 2.326-5.064 2.326-5.064-1.493-0.674-0.665-3.034 0.998-1.009 1.660 2.021-0.998-4.051-0.998-4.051l-1.328-1.18-1.827-0.168-0.167-1.855h-2.989l-0.499 2.363-1.163 0.337-0.334-0.675-0.497 1.855h-2.991l-0.165-2.024 1.827-0.505 0.665-1.012 0.497-2.700h2.162l2.825-0.842c0.164-2.868 1.662-2.192 1.662-2.192l0.996 0.842 1.496 1.180 0.166 1.010-0.998 0.505-0.164 1.351 0.499 1.855h1.328c0.498-2.699 3.991-2.699 4.988-1.012l0.998-2.361c-2.326-1.180-0.043-3.038 0.621-2.193 0.664 0.844 2.203-2.192 2.203-2.192s1.163 1.518 0-0.506 0.829-3.036 0.829-3.036c-0.330-2.023 2.162-1.687 2.162-1.687l0.167-2.697-2.329-0.170c-0.495 2.362-2.491 0.338-1.494-0.166 0.998-0.507 1.993-1.519 1.993-1.519v-1.687l0.998-0.337 0.165-1.687h2.495l2.160-1.011 0.499-0.844 2.325-0.167 3.324-3.038-0.329-1.348c-1.995 0 0-1.518 0-1.518l0.328-2.525z" style="fill:#ffffff" /><path id="path83" fill="#fff" d="m527.86 370.95-2.992-0.337 0.167 1.18h0.829c1.328 2.363 0.166 8.098 0.166 8.098s-1.993 0.166-2.327-0.842c-0.329-1.012-1.163 2.193-0.499 2.700 0.664 0.503 2.993 0 3.158 1.856 0.164 1.854 1.496-1.182 1.496-1.182v-11.473z" style="fill:#ffffff" /><polygon id="polygon85" transform="matrix(.78344 0 0 .79511 198.88 154.38)" points="418.21 290.84 416.09 289.57 416.09 294.66 419.49 299.11 420.76 296.14 421.19 294.23 419.7 293.6 419.91 290.42 421.19 290.2 421.4 288.71" fill="#fff" style="fill:#ffffff" /><polygon id="polygon87" transform="matrix(.78344 0 0 .79511 198.88 154.38)" points="421.61 301.66 420.13 301.87 419.91 303.57 421.61 303.78" fill="#fff" style="fill:#ffffff" /><polygon id="polygon89" transform="matrix(.78344 0 0 .79511 198.88 154.38)" points="419.7 312.48 417.9 312.69 417.9 314.18 419.7 313.97" fill="#fff" style="fill:#ffffff" /><path id="path91" fill="#fff" d="m529.65 398.83c0.389 0 0.702-0.318 0.702-0.713 0-0.397-0.313-0.717-0.702-0.717s-0.705 0.318-0.705 0.717c0 0.394 0.315 0.713 0.705 0.713z" style="fill:#ffffff" /><circle id="circle93" transform="matrix(.78344 0 0 .79511 198.88 154.38)" cy="311" cx="423.68" r="0.9" fill="#fff" style="fill:#ffffff" /><circle id="circle95" transform="matrix(.78344 0 0 .79511 198.88 154.38)" cy="286.76" cx="423.73" r="0.9" fill="#fff" style="fill:#ffffff" /><polygon id="polygon97" transform="matrix(.78344 0 0 .79511 198.88 154.38)" points="493.33 267.71 493.76 265.17 493.91 263.26 494.82 261.98 497.36 260.92 497.36 256.89 496.09 256.89 495.88 255.4 493.54 255.19 493.12 256.25 492.06 256.25 491.84 257.95 493.12 257.95 493.33 259.22 492.48 260.07 492.06 261.13 490.36 261.56 486.54 265.17 486.33 266.86 485.27 268.35 484 271.53 479.54 271.74 478.69 275.56 479.32 278.74 483.14 280.23 483.57 278.11 484.84 277.47 485.06 275.35 485.9 273.86 487.18 272.38 487.6 270.68 489.72 269.41 492.27 268.98" fill="#fff" style="fill:#ffffff" /><path id="path99" fill="#fff" d="m592.02 368.93v-2.362l-0.334-2.193-2.490-1.179-1.827 1.687-0.334 2.362v1.517l-1.661 0.338-0.334 4.554-1.327 0.507 0.166 1.687-1.827 0.505-1.827 0.506-0.332 2.192-1.327 0.842-0.669 2.025-0.829 4.892s1.497 2.868 2.327 1.517c0.832-1.348 2.160-1.517 2.160-1.517l0.499-1.181 4.488 0.168c0.332-1.857 2.493-1.179 2.493-0.337 0 0.843 1.663 0.167 1.663 0.167l1.162-1.855h1.827l0.166-2.023 0.832-0.506v-3.038c2.660-0.842 2.325-3.373 2.325-3.373l0.669-0.842-0.333-1.179c-1.331-0.508-0.668-1.690 0.164-1.352 0.833 0.337-1.163-1.518-1.163-1.518-0.996 0.845-1.826-1.011-1.826-1.011h-2.496z" style="fill:#ffffff" /><path id="path101" fill="#fff" d="m594.68 389.34c-0.165 2.023-2.660 2.699-2.660 2.699l-1.827-0.505-0.996-0.843-0.166-2.363 1.494-0.166 0.332 1.013 3.824 0.166z" style="fill:#ffffff" /><path id="path103" fill="#fff" d="m603.66 378.55c0.359 1.471 0.329-2.364 0.994-2.193 0.664 0.167 0.167-2.360 0.167-2.360l-2.992 2.189c1.495 0.170 1.660 1.690 1.830 2.364z" style="fill:#ffffff" /><path id="path105" fill="#fff" d="m612.47 369.77c0.664 1.519 0.499 3.713 2.989 5.400 0.842 0.568-0.498 1.687-1.331 1.18-0.829-0.505-3.154-4.218-3.154-4.218v-2.192c0.498-1.348 1.208-0.822 1.496-0.168z" style="fill:#ffffff" /><polygon id="polygon107" transform="matrix(.78344 0 0 .79511 198.88 154.38)" points="529.4 334.33 527.92 335.4 528.55 336.03 529.18 337.09 530.67 334.76" fill="#fff" style="fill:#ffffff" /><line id="line109" y2="420.39" x2="608.31" y1="418.36" x1="608.31" fill="#fff" style="fill:#ffffff" /><polygon id="polygon111" transform="matrix(.78344 0 0 .79511 198.88 154.38)" points="554.99 327.87 554.31 326.8 552.62 327.85 553.29 328.93" fill="#fff" style="fill:#ffffff" /><path id="path113" fill="#fff" d="m680.46 451.09 1.497 0.672 0.164 2.868c1.996 2.024 8.479 0.337 8.479-0.168 0-0.507-0.334-6.241-0.334-6.241l-0.832-0.844-0.164-4.220c0.664-2.192-3.159-5.398-3.491-4.720-0.332 0.672-2.493 0.165-2.493 0.842 0 0.672-1.327 4.047-0.664 5.230 0.664 1.181-0.499 1.181-0.664 2.361-0.165 1.180-1.829 3.208-1.496 4.221z" style="fill:#ffffff" /><path id="path115" fill="#fff" d="m676.8 444.34c-0.314 1.278-1.493 2.024-2.157 1.517-0.669-0.507 0.826 0.842 1.161 1.520 0.331 0.672 1.327 0.672 1.662 0 0.329-0.679 0.165-2.192 0.499-2.868 0.329-0.675-0.998-0.844-1.166-0.169z" style="fill:#ffffff" /><rect id="rect117" height="3.206" width="1.161" y="413.39" x="669.07" fill="#fff" style="fill:#ffffff" /><path id="path119" fill="#fff" d="m686.28 380.91c-0.725-0.982 3.324-2.699 3.988-0.674 0.664 2.022 0 1.687-0.664 1.518-0.666-0.170-2.326 0.504-3.324-0.844z" style="fill:#ffffff" /><polygon id="polygon123" transform="matrix(.78344 0 0 .79511 198.88 154.38)" points="626.47 257.73 628.8 258.15 629.03 256.9 626.69 256.48" fill="#fff" style="fill:#ffffff" /><polygon id="polygon125" transform="matrix(.78344 0 0 .79511 198.88 154.38)" points="620.9 260.52 622.08 260.05 621.65 258.99 621.38 258.32 620.75 258.67 619.17 259.55 617.79 258.69 617.12 259.76 618.82 260.82 619.14 261.02 619.46 260.84 620.74 260.13" fill="#fff" style="fill:#ffffff" /><path id="path127" fill="#fff" d="m691.43 320.17h-2.495s0.832 0.337-1.493-1.856c-2.330-2.192-3.824 0.506-3.824 0.506l-2.659 0.337v2.699l-1.331 0.505 0.168 1.688 1.827-0.167s0 2.023 0.499 1.180c0.499-0.844 4.656 0.166 4.322 2.192-0.135 0.831 4.157 3.034 3.658 5.734 2.160 0.338 1.662 2.532 1.662 2.532l2.824 0.337 0.832-1.687 0.829 0.169v-1.013l-1.830-0.505-0.329-5.399-1.163-0.843 0.331-1.350-1.328-0.506 0.665-2.192-1.165-2.360z" style="fill:#ffffff" /><path id="path129" fill="#fff" d="m698.74 337.38-1.328-0.166-2.996 0.505-1.658 3.205s0.829 0.506 1.493 1.687c0.664 1.182 0.998 8.097-0.996 9.279-1.993 1.181 0.167 0.504 0.167 0.504l-0.334 3.712c0.499 1.687 1.328 0.845 1.827 0 0.502-0.841 1.002-1.010 1.666-1.854 0.664-0.845 1.660-2.362 1.827-3.544 0.164-1.18 0.996-3.034 0.497-3.541-0.497-0.506 0.499-2.867 0.499-2.867s0.664-1.351 0-2.700c-0.664-1.350 0.165-2.868 0.664-3.544l-1.329-0.675z" style="fill:#ffffff" /><rect id="rect133" transform="matrix(.12487 -.99217 .99170 .12856 0 0)" height=".99986" width="1.360" y="738.26" x="-251.32" fill="#fff" style="fill:#ffffff" /><rect id="rect135" transform="matrix(-.89145 -.45312 .44253 -.89675 0 0)" height="1.128" width=".99792" y="6.448" x="-782.81" fill="#fff" style="fill:#ffffff" /><path id="path137" fill="#fff" d="m699.24 335.53-0.667-1.519s0-1.347 0.332-2.025c0.334-0.674-0.664-1.347-1.161-1.517-0.499-0.169-0.331-1.517-0.499-2.193-0.165-0.674-1.327-1.18-1.327-1.18s-0.335-2.530-0.335-3.036c0-0.506-1.495-1.180-0.996-1.688 0.499-0.505 0.832-1.179 1.331-1.518 0.499-0.337-0.499-2.699 0.329-2.193 0.832 0.507 0.832 1.350 1.165 2.025 0.331 0.674-0.167 3.037 0.665 3.543 0.828 0.504-0.168 2.191 1.162 2.191 1.328 0 0.499 3.206 0.499 3.206s-0.334 2.360 0.495 2.530c0.832 0.168 0.334 4.217 0.334 4.217l-1.329-0.842z" style="fill:#ffffff" /><path id="path139" fill="#fff" d="m688.44 308.19c0.496 0.674 1.494 1.179 1.494 1.856 0 0.675-0.331 1.18 0.667 1.349 0.994 0.167 1.661-0.169 1.993 0.674 0.332 0.842 0.332 2.192 0.167 2.868-0.167 0.675 0.165 1.687 0.994 1.687 0.832 0 0.998 0.169 0.998 0.675 0 0.504 0.998-1.857 0.998-1.857-0.833-0.674-1.497-2.193-1.497-2.193s-0.829-2.361-0.829-2.698c0-0.337-1.162-0.675-1.660-0.843-0.499-0.169-1.332-1.686-1.332-1.686l-1.993 0.168z" style="fill:#ffffff" /><path id="path141" fill="#fff" d="m690.1 306.68c-0.499-0.676-0.998-1.182-1.663-1.517-0.662-0.338-1.161-0.675-1.829-0.675-0.664 0-1.327-0.675-0.998-1.517 0.334-0.844-0.499-1.181-0.499-1.857 0-0.674 0.499-0.674 1.331-0.167 0.832 0.506 0.664 0.674 1.332 1.519 0.662 0.842 0.994 1.686 1.657 1.517 0.668-0.169 1.166 1.517 1.830 1.012 0.664-0.505 0.499 1.180 0.499 1.180l-1.662 0.507z" style="fill:#ffffff" /><path id="path143" fill="#fff" d="m670.65 325.74c0.916 0.931-4.985 0.673-4.985 0 0-0.674 0.499-3.034 1.993-2.532 1.496 0.508 1.660-3.034 1.660-3.034s-1.327 0.166-0.164-0.506c1.163-0.674 0-1.687-0.499-2.192-0.497-0.507-0.996-1.350-0.996-1.350h2.329c0.998-0.675 1.327-3.880 1.327-3.880 1.993 0.674 2.991-0.675 2.991-0.675s0.337 1.012 1.001 1.857c0.664 0.842-1.665 1.179-0.833 1.687 0.833 0.506 1.163 2.023 0.833 2.528-0.334 0.506-2.165 0.169-2.165-0.504 0-0.675-0.664 0.843 0 1.687 0.664 0.843-0.829 2.023-1.163 2.023-0.332 0-2.490 0.338-0.664 1.350 1.827 1.011 3.826 0.508 3.826 0.508s1.494-0.170 1.993 0.674c0.499 0.842-0.165 1.012-0.996 1.012-0.829 0-4.822-0.338-4.822-0.338s-1.162 1.181-0.664 1.688z" style="fill:#ffffff" /><path id="path145" fill="#fff" d="m660.01 327.26c0.833-0.168 2.824-0.338 3.158 0.167 0.334 0.505-1.163 1.18-1.163 1.18l-1.995 0.338c-0.664-0.844-0.829-1.517 0-1.686z" style="fill:#ffffff" /><path id="path147" fill="#fff" d="m681.46 313.09c1.328-0.674 4.153-0.674 3.988-1.687-0.164-1.012 1.661-1.349 1.661-1.349l0.499 2.023 1.496 1.012 0.166 1.855s0.497-0.337-1.328 0.169c-1.830 0.506-0.664 1.348-0.664 1.348l-3.991 0.168-0.499-1.687-1.328-1.854z" style="fill:#ffffff" /><path id="path149" fill="#fff" d="m674.97 303.98c1.010 0-0.329 3.880 2.326 3.543 2.660-0.338 0.169 1.180 2.162 1.348 1.995 0.170 1.496-1.517 2.160-2.697 0.667-1.180 0.334-1.856-0.829-2.193-1.166-0.337-1.166-0.337-1.496-1.688-0.331-1.348-1.662-1.687-1.662-1.687l-0.499-2.022-2.160 1.348-2.160 2.868c0 2.195 1.162 1.182 2.160 1.182z" style="fill:#ffffff" /><rect id="rect153" transform="matrix(.44249 -.89677 .89147 .45308 0 0)" height="1.002" width="1.129" y="750.11" x="24.113" fill="#fff" style="fill:#ffffff" /><rect id="rect155" height="1.180" width=".99810" y="316.63" x="677.63" fill="#fff" style="fill:#ffffff" /><rect id="rect157" transform="matrix(.10978 .99396 -.99359 .11304 0 0)" height=".99752" width="1.526" y="-642.08" x="368.96" fill="#fff" style="fill:#ffffff" /><rect id="rect159" height=".84520" width=".99810" y="309.88" x="675.64" fill="#fff" style="fill:#ffffff" /><rect id="rect161" transform="matrix(-.096671 -.99532 .99503 -.099545 0 0)" height="1.670" width="1.012" y="639.92" x="-375.32" fill="#fff" style="fill:#ffffff" /><rect id="rect163" transform="matrix(-.91663 -.39974 .38988 -.92087 0 0)" height="1.282" width=".99653" y="-35.352" x="-734.31" fill="#fff" style="fill:#ffffff" /><rect id="rect165" transform="matrix(-.096866 -.99530 .99501 -.099746 0 0)" height="1.673" width="1.010" y="619.73" x="-386.65" fill="#fff" style="fill:#ffffff" /><polygon id="polygon169" transform="matrix(.78344 0 0 .79511 198.88 154.38)" points="539.56 211.91 539.62 213.18 544.28 212.97 544.22 211.7" fill="#fff" style="fill:#ffffff" /><rect id="rect171" transform="matrix(-.21328 -.97699 .97564 -.21938 0 0)" height=".99956" width="1.552" y="535.77" x="-452.11" fill="#fff" style="fill:#ffffff" /><rect id="rect173" transform="matrix(-.31192 -.95011 .94730 -.32034 0 0)" height=".52568" width="1.010" y="486.17" x="-506.21" fill="#fff" style="fill:#ffffff" /><path id="path175" fill="#fff" d="m626.76 322.37-0.165 1.180 1.826 0.169s0.829 0.675 0.829 1.18c0 0.506 1.166 1.012 1.830 1.012 0.664 0 2.492-1.350 2.492-1.350s0.832-2.362 0.168-2.193c-0.667 0.167-1.996 1.180-2.160 0.167-0.168-1.012-2.160-0.506-2.160-0.506l-2.660 0.340z" style="fill:#ffffff" /><path id="path177" fill="#fff" d="m635.07 320.51c0 0.504-0.329 1.18 0.664 1.350 1.002 0.166 2.829-0.674 2.994 0.337 0.168 1.011 0.168 1.688 1.496 2.195 1.327 0.504 2.162 0.674 3.158 0.674 0.994 0 3.159-0.339 3.159-0.339s2.351 0.368 2.824 0.845c1.827 1.855 2.991 2.360 3.489 1.517 0.499-0.844-0.165-2.698-0.330-3.373-0.167-0.676-2.495-3.881-3.326-3.206-0.829 0.675-0.995 0-2.492 0.504-1.496 0.506-4.655 0.170-4.819-0.504-0.165-0.675-2.492-1.010-2.492-1.687 0-0.675-1.660-1.517-1.496-0.506 0.165 1.011-1.162 1.517-1.500 1.182-0.329-0.337-1.327 1.011-1.327 1.011z" style="fill:#ffffff" /><path id="path179" fill="#fff" d="m673.31 298.91 1.165-3.709c-1.660-0.338-1.331-2.192-1.331-2.192-0.165-1.519-2.492-3.205-3.324-2.699-0.829 0.504-0.499-3.544-0.499-3.544s1.497-1.010 2.162-0.504c0.665 0.504-5.650-8.435-6.982-7.591-1.328 0.843-4.319-0.843-4.153-2.363 0.165-1.517-5.984-6.579-5.984-6.579s-1.995-1.347-2.326-0.335c-0.332 1.011-0.997 1.687 0 2.191 0.995 0.507 0.829-0.842 1.992 0.337 1.163 1.180 3.327 2.700 2.495 3.712-0.832 1.013-1.830 1.350-1.830 1.350l1.165 1.350h1.827l0.332 2.866s1.993 1.013 2.492 2.193c0.499 1.18 0.499 1.855 0 2.531-0.499 0.674-1.493 1.855-1.328 3.034 0.165 1.180 1.496 1.687 1.496 1.687l1.327 0.169 0.998 0.507v2.194c1.327-0.338 3.488 1.515 3.324 2.697-0.165 1.180 0.329 0.505 1.992 1.687 1.664 1.180 1.166 1.350 2.329 2.193 1.164 0.841 2.162 0.335 2.657-1.184z" style="fill:#ffffff" /><path id="path181" fill="#fff" d="m645.88 275.97c-0.165-0.675-0.499-3.038 0.499-2.870 0.996 0.170 0.332 0 1.496 0.507 1.163 0.507 1.328-0.842 1.328-0.842h1.830l2.326 1.854-0.332 1.519-1.662 0.166c-0.829-1.347-2.492-0.842-2.160 0.339 0.332 1.18-0.829 3.373-1.493 3.541-0.665 0.169-2.829 0.169-2.660-0.842 0.165-1.012 0.829-3.373 0.829-3.373z" style="fill:#ffffff" /><path id="path183" fill="#fff" d="m644.55 271.41v-1.348s-0.169-1.349-0.998-1.349c-0.828 0-2.326-1.011-1.996-1.687 0.335-0.675-2.824-1.350-2.824-1.350s-2.824-2.699-1.827-2.360c0.998 0.337 0.499-1.182 0.499-1.182s-1.996 0.337-2.495 0.169c-0.499-0.169-0.334-1.687-0.334-1.687s-1.991-0.506-1.991 0c0 0.506 0.664 0.506 0.994 1.517 0.334 1.011 0.168 2.700 1.666 3.036 1.496 0.338 1.826 0.674 1.995 1.350 0.165 0.675 1.993 0.843 1.993 0.843l1.331 0.674 3.987 3.374z" style="fill:#ffffff" /><polygon id="polygon185" transform="matrix(.78344 0 0 .79511 198.88 154.38)" points="545.32 123.85 543.62 123.43 543.62 125.34 545.95 125.55" fill="#fff" style="fill:#ffffff" /><path id="path187" fill="#fff" d="m626.1 247.12c-1.737-1.319 2.325 1.013 2.325 1.013 1.328 0 2.160 1.012 2.160 1.519 0 0.505 1.828 0.337 1.828 0.337l0.169-1.182-1.332-1.687-1.161-0.841s-1.827-0.169-1.827-0.675c-0.000-0.504-1.497 2.024-2.161 1.517z" style="fill:#ffffff" /><path id="path189" fill="#fff" d="m656.68 248.13c-0.485 1.476-0.664 3.543-1.496 3.543-0.829 0-0.499 2.195-0.499 2.195s2.164 0 2.829 0.166c0.662 0.166 0.662 1.854 0.662 1.854 2.495-0.166 3.493 3.206 3.158 4.050-0.332 0.842 0.998 0.842 0.998 0.842s0 2.700-0.334 3.373c-0.329 0.675 2.162 1.182 2.826 2.193 0.664 1.013-0.334 4.386-0.831 4.555-0.498 0.169 1.327 0.674 1.163 1.517-0.168 0.845 0.499 0 0.664 1.350 0.165 1.348 0.499 4.216 0.499 4.216l2.325 0.170c0.334-2.192 4.619-2.277 5.320-2.025 2.825 1.012 4.989 5.398 4.989 6.410s-1.830 1.182-1.830 1.182l0.334 4.890c2.824 0.844 5.151 4.894 4.820 5.569-0.332 0.674 1.992 0.507 1.992 0.507 0.334-3.038 3.159-2.025 3.324-1.013 0.170 1.013 0.665 3.205 0.665 3.205l0.832 1.516 1.163 1.181 1.827-0.168 0.499 1.013 2.160 0.338s1.830 2.022 1.995 2.53c0.168 0.504 2.660 0.337 3.324 0.504 0.664 0.169 1.663 0.675 1.827 1.518 0.168 0.844 1.166 2.193 1.166 2.193s1.993 0.507 2.160 1.180c0.165 0.673 0.998 2.192 0.998 2.192l1.658 1.350 0.167 1.519 1.827 0.168 0.499 2.022 2.989-0.166 1.665-1.180c2.160-1.179 3.657-2.699 3.824-3.375 0.164-0.674 0.497-3.203 2.160-2.697 1.660 0.506 0.499-3.712 0.499-3.712s-2.326-1.687-2.162-2.532c0.166-0.842-2.325-2.528-2.160-3.204 0.165-0.675-2.160-2.023-1.995-2.698 0.164-0.675-1.163-2.532-1.163-2.532l-2.495-2.360-0.332-1.519-1.993-0.166-3.988-4.893 0.165-1.350-1.163-0.167v-1.855l-1.161-0.675-1.830-0.168-3.655-4.047-0.332-1.856h-1.827l0.331-3.543c1.165-1.518 0.498-4.386 0.498-4.386s-2.329 1.180-3.489 0.674c-1.165-0.504 0.496-1.687 0.496-1.687v-1.348l-0.995-1.012s-2.828 0.338-2.992-0.166c-0.166-0.506-0.664-2.700-0.664-2.700l-0.166-2.868-1.161-0.504-0.169-1.013-1.826 0.167v-2.023l-0.998-0.337-0.996-0.506-0.166-2.025-3.657-0.166-1.163-1.687-1.328-2.025-4.156-0.337-0.998-1.010-1.661-0.338-1.163-0.506-0.499 0.845-3.159 0.166-0.164 1.012c-1.661 0.843-8.310 0.167-8.479 0.673z" style="fill:#ffffff" /><path id="path191" fill="#fff" d="m674.14 243.75c-0.263-1.331 3.327-2.530 4.156-1.519 0.832 1.012 3.158 1.183 3.491 6.244 0.117 1.812-2.992-1.855-2.992-1.855l-2.495-0.843c-1.328-0.338-1.995-1.18-2.160-2.026z" style="fill:#ffffff" /><rect id="rect193" transform="matrix(-.91112 -.41214 .40209 -.91560 0 0)" height="1.658" width=".99745" y="33.784" x="-671.48" fill="#fff" style="fill:#ffffff" /><path id="path195" fill="#fff" d="m616.79 229.24-2.165-2.193v-1.855l-0.664-0.676-0.664-2.360-2.160-0.674-2.160 0.842-2.327 1.518-2.492 0.339-1.331 1.517 5.320 0.504 0.995 1.689 3.827 0.337 2.490 2.53c2.165 0.675 2.662-0.337 1.333-1.517z" style="fill:#ffffff" /><path id="path197" fill="#fff" d="m616.46 220.97c-0.365-1.482-2.495 1.855-0.329 2.528 2.160 0.678 4.318 0 4.318 0l0.499-1.011 8.309 0.169c0.669-0.675 0.998-1.687 0.998-1.687s1.996-0.675 2.825-0.338c0.832 0.338 0.169-2.360-0.664-2.023-0.829 0.337-2.491 0.168-2.491 0.168h-2.993c-0.165-1.179-2.825-0.675-2.991 0-0.168 0.674-1.161 0.842-1.161 0.842l-3.824 0.338c-0.333 1.013-2.326 1.687-2.494 1.013z" style="fill:#ffffff" /><path id="path199" fill="#fff" d="m600 249.44c2.556 0.811 3.489 0.210 3.658-0.463 0.165-0.675 0.329-0.845 1.328-1.012 0.996-0.169-0.166-2.193-1.163-2.025-0.998 0.168-1.996-0.337-2.160-1.180-0.17-0.842-1.830-3.036-1.996-1.348-0.166 1.687-1.163 1.687-0.998 2.868 0.167 1.178 0.666 2.949 1.331 3.162z" style="fill:#ffffff" /><path id="path201" fill="#fff" d="m580.89 251.34c-0.119-0.597 3.324-0.674 3.824-0.170 0.499 0.507 0.165 1.350 1.661 1.350 1.494 0 0.830 1.013 0.664 1.519-0.165 0.505-1.826 0.337-1.996-0.166-0.164-0.507-2.659-0.678-2.659-0.678s-1.328-1.013-1.494-1.854z" style="fill:#ffffff" /><polygon id="polygon205" transform="matrix(.78344 0 0 .79511 198.88 154.38)" points="558.09 77.802 557.01 76.721 556.11 77.62 557.59 79.105 558 79.51 558.44 79.154 560.57 77.455 559.77 76.462" fill="#fff" style="fill:#ffffff" /><polygon id="polygon207" transform="matrix(.78344 0 0 .79511 198.88 154.38)" points="546.71 71.752 546.04 72.832 547.74 73.89 548.07 74.105 548.41 73.89 550.75 72.403 550.07 71.33 548.07 72.599" fill="#fff" style="fill:#ffffff" /><polygon id="polygon209" transform="matrix(.78344 0 0 .79511 198.88 154.38)" points="540.92 116.22 538.8 116 538.67 117.27 540.49 117.45 541.81 119.52 542.88 118.84 541.4 116.51 541.23 116.25" fill="#fff" style="fill:#ffffff" /><path id="path211" fill="#fff" d="m567.92 293.85 0.17 1.856h2.490c0.998 0-0.829-1.180-0.829-1.180s-1.995 0.169-1.830-0.675z" style="fill:#ffffff" /><rect id="rect213" transform="matrix(.63291 -.77423 .76495 .64410 0 0)" height="1.304" width="1.006" y="628.23" x="143.03" fill="#fff" style="fill:#ffffff" /><rect id="rect215" transform="matrix(.70246 -.71172 .70125 .71291 0 0)" height="1.420" width="1.005" y="569.25" x="201.6" fill="#fff" style="fill:#ffffff" /><polygon id="polygon219" transform="matrix(.78344 0 0 .79511 198.88 154.38)" points="495.95 407.82 495.38 408.96 496.71 409.62 496.27 410.06 497.18 410.96 498.24 409.9 498.86 409.28 498.07 408.88" fill="#fff" style="fill:#ffffff" /><polygon id="polygon221" transform="matrix(.78344 0 0 .79511 198.88 154.38)" points="480.83 392.62 479.55 393.68 478.92 394.21 479.59 394.69 481.08 395.75 481.82 394.72 481 394.13 481.64 393.6" fill="#fff" style="fill:#ffffff" /><path id="path223" fill="#fff" d="m699.83 435.33c-0.220-0.859-1.189-1.212-1.298-1.248l-0.317 0.962v-0.006c0.079 0.030 0.194 0.090 0.309 0.166l0.203 0.874c-0.074 0.112-0.155 0.217-0.220 0.292l0.731 0.684c0.533-0.593 0.730-1.169 0.591-1.725z" style="fill:#ffffff" /><polygon id="polygon225" transform="matrix(.78344 0 0 .79511 198.88 154.38)" points="639.31 349.19 639.47 347.28 641.54 347.6 641.38 349.34" fill="#fff" style="fill:#ffffff" /><path id="path227" fill="#fff" d="m739.89 418.99c0.710-0.449 1.619-1.267 1.496 0.633-0.126 1.897-0.873 1.266-1.496 1.897-0.622 0.633-0.997-1.897 0-2.530z" style="fill:#ffffff" /><path id="path231" fill="#fff" d="m748.35 411.83c-0.014-0.033-0.022-0.150-0.029-0.235-0.021-0.278-0.058-0.657-0.255-1.055l-0.890 0.452c0.110 0.225 0.132 0.464 0.151 0.693 0.025 0.295 0.058 0.633 0.340 0.847 0.178 0.135 0.404 0.174 0.672 0.123l-0.190-0.979c0.076 0.011 0.177 0.081 0.201 0.154z" style="fill:#ffffff" /><path id="path233" fill="#fff" d="m746.13 412.66c0.253 1.025 0.622 2.036 0.639 2.078l0.935-0.356c-0.007-0.009-0.369-0.998-0.608-1.970l-0.965 0.248z" style="fill:#ffffff" /><path id="path235" fill="#fff" d="m742.5 416.64-0.993-0.099c-0.077 0.795 0.112 1.779 0.897 1.939l0.195-0.992c0.007 0 0.016 0.006 0.018 0.006-0.080-0.071-0.154-0.478-0.118-0.853z" style="fill:#ffffff" /><path id="path237" fill="#fff" d="m738.13 396.51c-0.051-0.324-0.246-0.576-0.545-0.709-0.738-0.324-1.982 0.212-2.591 0.625l0.551 0.842c0.631-0.427 1.460-0.633 1.645-0.539-0.016-0.006-0.039-0.035-0.045-0.055l0.985-0.164z" style="fill:#ffffff" /><path id="path241" fill="#fff" d="m692.09 342.61c-0.664 0.675-2.160 1.013-2.160 1.013l-0.499 1.855-0.828 0.674s0.164 0.505 0 1.687c-0.166 1.18-1.663 1.855-1.663 1.855l-0.664 0.843s-4.007 0.217-4.488 0c-1.496-0.674-0.497-2.699 0.499-2.530 0.995 0.169-0.168-2.868-0.168-2.868l1.331-0.167s0.164-3.038 0.664-3.038c0.499 0-0.165-1.011-0.832-1.517-0.664-0.504-1.494-2.191-2.162-2.023-0.664 0.167-3.324 0-3.324 0l-0.499 1.013-1.829 0.336s0.157 1.304-0.162 1.688c-1.001 1.18-4.822 3.710-3.162-0.506l0.497-1.010v-1.519l-2.988-0.166s-1.496-0.507-1.496-1.182c0-0.675-0.166-1.517-0.166-1.517l-3.491-3.880-4.153-0.505-0.334-0.845-2.490-0.337c-2.994-1.517-5.654-0.168-5.155 2.362 0.498 2.532 1.327 3.543-0.331 3.543-1.664 0-1.996-1.349-1.996-1.349s-1.327-0.507-1.327 0.166c0 0.675-0.499 2.025 0 2.699 0.496 0.674-0.667 1.687-1.166 1.180-0.495-0.506-1.826-2.022-1.493-2.528 0.331-0.506-2.329-3.713 0.331-4.218 2.660-0.506-0.166-2.025 0.832-2.360l1.327-0.675h1.328l0.832-0.675-2.160-0.335-1.327-0.169-2.495-0.168c-2.492 1.687-2.989 3.712-2.989 3.712-1.332 2.53-4.488-1.013-3.324-2.362 1.161-1.350-3.658-0.169-4.490 0.505-0.832 0.674-3.325 0.337-3.325 0.337-0.497 1.519-2.824-0.166-2.160-1.179 0.665-1.012 0.665-1.687 0.665-1.687l-0.829-0.169-0.996 1.855c-2.327 0-2.994 1.348-2.496 2.192 0.498 0.842-0.664-0.168-0.998 1.012-0.329 1.180 0.168 1.180 1.166 1.687 0.998 0.506-0.499 0.506 0.165 1.348 0.664 0.845 2.659 0 1.497 1.182-1.163 1.18-3.493 0.675-3.493 0.675-0.165 1.515-3.324 1.18-3.653 0.674-0.334-0.506-2.825-3.543-2.825-3.543l-3.162-0.168c-0.329-2.360 1.497-1.180 2.162-3.036 0.668-1.856 1.000-4.891 1.000-4.891s-2.662-0.168-2.828 0.674c-0.164 0.844-1.827 1.350-1.827 1.350s-1.331 0.504-0.832 1.180c0.499 0.675-0.998 1.010-0.998 1.010s0.259 1.090-0.165 1.518c-1.327 1.351-4.655 0.167-5.151-0.337l-1.996-0.843-1.995-1.349-2.326 1.010-0.664 0.675h-2.495l-0.164 2.022 4.488 0.505 0.332 4.175-1.830-0.630h-1.163l-0.497-1.013-0.998-0.169v3.710l0.998 0.845 0.832 0.841 1.662 0.169 0.332 2.023 4.153 0.170 0.499 0.842 2.495 0.169 4.820 4.890-0.332 1.519-0.832 0.506c0.334 1.180-2.158 0.506-2.158 0.506v1.010l1.160 0.168 1.166 0.674 1.660-2.867c1.827-1.180 2.657 0.506 2.826 1.518 0.164 1.012-0.833 0.842-0.833 0.842v2.363l0.998 0.335c1.664 2.025-0.664 3.206-0.664 3.206l-0.499 1.686c-0.499 1.518-2.326 1.18-2.326 1.18l-0.662 1.013-1.997 0.506 3.947 0.505c0.375-1.350 1.370-1.687 1.869-1.012 0.499 0.675 0.499 1.856 0.499 1.856l1.001 0.168-0.169 1.855 0.998 0.338v5.398l1.163 1.349c1.995-0.841 1.995 0.507 0.996 1.180-0.996 0.673-0.332 3.712-0.332 3.712l-0.831 0.842v1.350l-0.996 0.674v1.855c-1.663-0.842-3.658-0.507-4.158 0-1.493-1.013-4.652-0.674-4.652 0.170 0.995 1.349-1.161 1.687-1.161 1.687l-1.166 1.349c0.832 1.688-0.828 1.855-0.828 1.855v3.206l-1.996 1.855 0.168 4.386c0 1.180 2.492 1.348 2.988 0.674 0.499-0.674 2.496 1.350 2.496 1.350h1.493l0.334-3.038-0.998-0.506v-4.893l1.663-1.856c1.995-0.674 1.331 4.389 1.331 4.894 0.165 1.855 0.994 1.687 1.827 1.348 1.661-0.674 0.329 1.858-0.998 1.687-1.328-0.166-0.499 1.687-0.499 1.687l0.833 0.338-1.497 1.180-1.326 1.519-1.666-0.507-1.992-0.166-0.665-1.183-1.165-0.167-0.165 2.360-0.829 1.012-1.995 2.027c2.660 0-0.334 1.851-0.998 1.851 1.495 0.506-0.165 2.026-3.988 0.846v1.179l-1.331 0.169 1.166 1.347 1.327 0.169-0.499 2.868c0 2.192-5.484 0.672-5.984 0.168l-0.165 3.037-0.998 0.166 0.165 2.026-0.165 2.868 1.827-0.337v1.181l4.490 0.169 6.482-6.919 3.822-0.842c0.331-1.689 1.992 0.337 1.992 0.337 1.663-0.172 1.996 1.010 1.996 1.010l2.162 0.337c1.826 0.507 0.722 0.684 0.829 1.351 0.164 1.010 0.996 0.672 0.996 0.672l0.334-2.192 0.998 0.168-0.998-1.181-1.830-0.845-1.993-0.842c-1.331-1.855 0.332-1.517 1.663-1.347h2.160s2.495 3.372 2.495 4.216c0 0.845 1.163 1.013 1.163 1.013l1.493-0.169 0.499 1.179h1.495l0.499 1.010h2.992l0.166-1.517-2.829-0.503-0.164-1.689-1.993-0.506c-0.667-2.865 0.496-3.710 1.327-2.359l0.997 0.165-0.332-2.530 1.162-0.337-0.331-3.543-0.996-0.334v-1.182l4.153 0.171c-0.329-2.196 0.167-3.207 0.167-3.207h1.163l0.165 0.846 5.086 0.479 3.596-4.125c-0.180-0.314 0.361-0.507-0.033-0.911-0.499-0.505-1.166 0-2.000-0.505-0.828-0.503 0-3.373-0.164-4.047-0.165-0.674 2.829-1.689 2.329-0.168-0.499 1.519 0 2.193 0 2.193 2.160-2.025 3.989 0.166 3.824 0.674-0.170 0.505 1.161 1.012 1.991 0.505 0.832-0.505 1.830 1.519 1.497 2.529-0.334 1.012-3.323 0.845-3.488-0.167-0.170-1.013-0.669-0.674-0.998-0.167-0.334 0.506-1.827 0.842-2.660 0.335-0.168-0.102-0.249-0.187-0.296-0.268l-3.596 4.125 0.233 0.023c1.993 1.182 0.998 2.700 0.334 3.037-0.667 0.337-1.830 0.337-1.830 0.337l-0.329 0.675-4.323 0.335-0.334 1.688c-2.160-0.341-2.989 2.023-2.491 3.202 0.499 1.179 0 2.192 0 2.192l1.828 0.845 2.325-0.672c0.334-1.689 1.827-2.027 3.159-3.037 1.327-1.013 3.491 1.851 2.824 3.203-0.664 1.347-0.664 1.855-0.664 1.855l0.164 1.519-1.660 0.673-1.328 0.675-0.169 0.844h-4.486l-0.829 0.842-2.162 0.172-0.667 1.010-1.493 0.169s-2.495 1.181-1.496 2.530c0.997 1.350-4.154 1.181-5.321-0.675-0.332 1.685-2.160 0.168-2.160 0.168l-1.827-0.507-0.165-2.527c-0.332-1.688-3.491-1.688-3.324-0.506 0.165 1.181-5.987 0.506-5.987 0.506l-1.993 0.968-1.830 1.055-0.164 0.842-2.994 0.337-1.327 0.675-0.498-1.013h-1.328l-1.331 1.857c-3.490 0.169-6.814 2.193-6.482 3.037 0.332 0.842-1.327 1.689-1.327 1.689l-1.497 0.500-0.994 1.520-1.995 0.675-0.334 3.544-0.994 0.672v1.520l-1.165 0.334v0.845l-1.661 0.168 0.994 2.531 1.334 0.675c2.326 0.334 1.327 3.205 1.327 3.205l1.328 0.166 0.667 1.855 1.327 2.699c0.499 2.027 1.996 1.520 2.660 1.351 0.664-0.166 1.327 2.023 1.327 2.023l6.648 0.169s-0.329 0.675 0.833 1.013c1.161 0.334 8.809 0.675 9.143 0.169-0.334-1.520 4.153-1.858 5.983-0.507 1.826 1.347 4.321 0.507 4.321 0.507l2.492 3.033 1.665 3.713 2.824 0.842 1.993 0.507 0.667 2.868 1.493 0.169 0.499 1.857c1.830 1.348-0.499 4.217-0.499 4.217v3.71l1.331 0.675-0.167 1.351 2.163 2.189 2.492 0.171 6.318 6.747 4.985 1.517 0.829 2.700 1.332-0.169 0.996-0.842 3.988-0.168 1.996-1.858 2.160-0.334 18.452-15.691-1.664-1.013v-3.71c2.992-2.192 3.158-6.075 0.332-6.412-2.143-0.256-1.161-2.530 0.833-2.868l1.161-0.504v-1.520l3.823-3.540v-2.700l-8.309-6.919c-3.658-1.347 0-9.447 2.490-9.278 2.495 0.166-0.164-12.484-0.164-12.484l-1.331-0.673 0.334-4.051h-1.827l-2.993 3.882-0.829 2.697c-0.332 3.547-10.64 2.868-11.14 2.361-0.499-0.506-3.988-2.023-3.988-2.023s-2.659-2.192-3.158-1.517c-0.499 0.675-2.824-0.845-2.824-0.337 0 0.506-2.160-1.179-2.160-1.179l-3.324-1.182 2.495-0.507-0.499-2.023 4.318 2.192c0.499 0.672 2.660 0.507 2.660 0.507l0.664 0.844s1.331-0.171 2.165 0.842c0.829 1.013 5.150 0.169 5.150 0.169l1.163 1.010 1.827 0.675 5.155 0.169 0.165-3.203 0.998-1.013-0.166-2.026 1.163-1.010v-1.685l0.998-0.337 0.165-3.71 0.829-0.169v-8.099l-2.492-2.363c-0.164 0.845-2.824 0.845-2.824 0.845s-0.664 1.179-1.163 1.179c-0.497 0 0.665 1.517 0.331 2.530-0.331 1.010-1.662 1.010-1.662 1.010l-2.495 0.676-0.664 0.844h-2.660l-0.329-2.192 2.989-0.845 1.662-0.841 0.832-1.689c0.164-1.684 2.160-1.517 2.160-1.517s3.823-3.205 3.988-4.721c0.169-1.519 1.497-5.737 3.824-5.737h4.323c1.660-0.676 1.162-2.868 1.162-2.868l2.161-0.335 0.332 1.180s2.993 0.337 3.324-0.169c0.334-0.504 0.998-1.687 1.830-1.180 0.830 0.505 3.490-1.181 3.490-1.181 0.165-1.180 4.321-0.674 4.321-0.674l0.499-1.517s-2.825-3.880-3.324-3.880c-0.499 0-3.158-2.363-3.492-1.519-2.656-0.674-2.492-4.386-2.492-4.386l-0.998-2.360c0-1.351-2.490-4.218-2.992-3.880-2.495-1.855-0.664-4.049 0-4.218 0.664-0.167 2.329-2.530 2.329-2.530l0.829-2.362 2.825-0.841 0.332-2.193-1.493-0.169s1.659-3.037 2.492-3.037c0.832 0 6.318 0 6.813-0.338 0.499-0.335 1.495-3.034 1.495-3.541 0-0.506 1.333-0.675 1.828-0.845 0.499-0.166 1.662-1.517 1.995-2.192 0.332-0.679-0.828-4.897-1.494-4.222z" style="fill:#ffffff" /><path id="path245" fill="#fff" d="m600 403.43c0.249-0.249 0.499 0.760 0.998 0.633 0.495-0.126 0.747 0.886 0.249 0.886-0.499 0-0.499 0.633-0.499 0.886 0 0.253 0 0.884-0.375 1.264-0.373 0.380-0.748 0.126-1.248-0.126-0.497-0.252-0.744-0.252-1.370-0.252-0.622 0-0.126 1.013-0.126 1.013s-2.618-0.126-2.118-0.507c0.499-0.376 0.998-0.506 0.625-0.760-0.375-0.252 0-0.504 0-1.010 0-0.507 1.247-0.252 0.870-0.633-0.371-0.380 0.008-1.847 0.622-1.013l0.376-0.887c-0.376-0.378-0.123-0.506-0.871-0.755-0.747-0.253-0.126-1.773-0.126-1.773l0.126-1.012c0.249-1.262 2.741-1.391 2.867-0.253 0.123 1.139 0 1.898 0 1.898l0.748 0.252s-0.126 0.763-0.748 0.763c-0.625 0 0 0.374-0.375 0.756l0.376 0.631z" style="fill:#ffffff" /><path id="path247" fill="#fff" d="m591.77 404.7c0.375-0.760 1.246-4.049 2.245-3.036 0.994 1.012 1.619 0 1.619 0s0.499 0.507 0.249 1.519c-0.249 1.010-0.499 2.024-1.125 2.150-0.621 0.126-1.121 0.506-1.865 0.632-0.747 0.127-1.123-1.266-1.123-1.266z" style="fill:#ffffff" /></svg>
