<svg xmlns:svg="http://www.w3.org/2000/svg" xmlns="http://www.w3.org/2000/svg" version="1.1" viewBox="0 0 160 160"><path d="M 75.9017,120.0982 112.3839,83.6160 c 1.0177,-1.0178 1.5266,-2.2231 1.5267,-3.6160 -1e-4,-1.3928 -0.5090,-2.5981 -1.5267,-3.6160 L 75.9017,39.9018 c -1.0179,-1.0177 -2.2232,-1.5267 -3.6160,-1.5267 -1.3929,9e-5 -2.5982,0.5090 -3.6160,1.5267 l -8.1964,8.1964 c -1.0178,1.0179 -1.5268,2.2233 -1.5267,3.6160 -4e-5,1.3929 0.5088,2.5982 1.5267,3.6160 l 24.6696,24.6696 -24.6696,24.6696 c -1.0178,1.0178 -1.5268,2.2232 -1.5267,3.6160 -4e-5,1.3929 0.5088,2.5982 1.5267,3.6161 l 8.1964,8.1964 c 1.0178,1.0179 2.2231,1.5268 3.6160,1.5268 1.3928,0 2.5981,-0.5089 3.6160,-1.5268 M 133.4375,49.0625 c 5.5177,9.4286 8.2766,19.7411 8.2767,30.9375 -1.3e-4,11.1964 -2.7590,21.5357 -8.2767,31.0179 -5.5179,9.4285 -13.0179,16.9017 -22.5,22.4196 -9.4286,5.5178 -19.7411,8.2768 -30.9374,8.2768 -11.1964,0 -21.5357,-2.759 -31.0178,-8.2768 -9.4285,-5.5179 -16.9018,-12.9911 -22.4196,-22.4196 -5.5178,-9.4821 -8.2767,-19.8214 -8.2767,-31.0179 0,-11.1963 2.7589,-21.5088 8.2767,-30.9375 5.5178,-9.4820 12.9910,-16.9820 22.4196,-22.5 9.4821,-5.5177 19.8213,-8.2766 31.0178,-8.2767 11.1963,1.2e-4 21.5088,2.7590 30.9374,8.2767 9.4820,5.5179 16.9820,13.0179 22.5,22.5" /></svg>
