<svg xmlns:svg="http://www.w3.org/2000/svg" xmlns="http://www.w3.org/2000/svg" version="1.1" viewBox="0 0 160 160"><path d="m 152,59.9107 0,63.8036 c -1.4e-4,3.5357 -1.2590,6.5625 -3.7767,9.0803 -2.5179,2.5179 -5.5447,3.7768 -9.0803,3.7768 l -118.2857,0 c -3.5357,0 -6.5625,-1.2589 -9.0803,-3.7768 C 9.2589,130.2768 8,127.2500 8,123.7143 L 8,59.9107 c 2.3571,2.6250 5.0624,4.9554 8.1160,6.9910 19.3928,13.1786 32.7053,22.4196 39.9375,27.7232 3.0535,2.2500 5.5178,4.0178 7.3928,5.3035 1.9285,1.2321 4.4731,2.5178 7.6339,3.8571 3.1606,1.2857 6.1070,1.9285 8.8392,1.9285 l 0.0803,0 0.0803,0 c 2.7320,2e-5 5.6784,-0.6428 8.8392,-1.9285 3.1606,-1.3392 5.6784,-2.6249 7.5535,-3.8571 1.9284,-1.2856 4.4195,-3.0535 7.4732,-5.3035 9.1070,-6.5892 22.4463,-15.8303 40.0178,-27.7232 3.0534,-2.0892 5.732,-4.4195 8.0357,-6.9910 m 0,-23.625 c -1.4e-4,4.2322 -1.3126,8.2768 -3.9375,12.1339 -2.6251,3.8572 -5.8929,7.1518 -9.8035,9.8839 -20.1429,13.9821 -32.6786,22.6875 -37.6071,26.1160 -0.5358,0.3750 -1.6875,1.2053 -3.4553,2.4910 -1.7143,1.2321 -3.1608,2.2500 -4.3392,3.0535 -1.1250,0.7500 -2.5179,1.6071 -4.1785,2.5714 -1.6072,0.9643 -3.1340,1.6875 -4.5803,2.1696 -1.4465,0.4821 -2.7857,0.7232 -4.0178,0.7232 l -0.0803,0 -0.0803,0 c -1.2322,3e-5 -2.5714,-0.2410 -4.0178,-0.7232 -1.4464,-0.4821 -3.0000,-1.2053 -4.6607,-2.1696 -1.6072,-0.9642 -3.0000,-1.8213 -4.1785,-2.5714 -1.1250,-0.8035 -2.5714,-1.8213 -4.3392,-3.0535 -1.7143,-1.2856 -2.8393,-2.1160 -3.375,-2.4910 C 54.4731,80.9911 47.4553,76.1161 38.2946,69.7946 29.1339,63.4197 23.6428,59.5893 21.8214,58.3035 18.4999,56.0536 15.3660,52.9732 12.4196,49.0624 9.4732,45.0982 8,41.4286 8,38.0535 c 0,-4.1784 1.0982,-7.6606 3.2946,-10.4464 2.2499,-2.7856 5.4374,-4.1784 9.5625,-4.1785 l 118.2857,0 c 3.4820,10e-5 6.482,1.2590 9,3.7767 2.5712,2.5179 3.857,5.5447 3.8571,9.0803" /></svg>
