<svg xmlns:svg="http://www.w3.org/2000/svg" xmlns="http://www.w3.org/2000/svg" version="1.1" viewBox="0 0 160 160"><path d="m 114.7142,14.1071 0,21.2142 -12.6160,0 c -4.6072,1e-4 -7.7143,0.9643 -9.3214,2.8928 -1.6071,1.9286 -2.4107,4.8215 -2.4107,8.6785 l 0,15.1875 23.5446,0 -3.1339,23.7857 -20.4107,0 0,60.9910 -24.5892,0 0,-60.9910 -20.4910,0 0,-23.7857 20.4910,0 0,-17.5178 c -2.8e-5,-9.9641 2.7856,-17.6784 8.3571,-23.1428 5.5713,-5.5177 12.9910,-8.2766 22.2589,-8.2767 7.8749,1.3e-4 13.9820,0.3215 18.3214,0.9642" /></svg>
