<svg xmlns:svg="http://www.w3.org/2000/svg" xmlns="http://www.w3.org/2000/svg" version="1.1" viewBox="0 0 160 160"><path d="m 49.7053,110.2143 c 2.9999,3 4.4999,6.6428 4.5,10.9285 -3.1e-5,4.2857 -1.5000,7.9286 -4.5,10.9286 -3.0000,3 -6.6428,4.5 -10.9285,4.5 -4.2857,0 -7.9285,-1.5 -10.9285,-4.5 -3.0000,-3 -4.5,-6.6429 -4.5,-10.9286 0,-4.2857 1.4999,-7.9285 4.5,-10.9285 2.9999,-3.0000 6.6428,-4.5000 10.9285,-4.5000 4.2856,3e-5 7.9285,1.5000 10.9285,4.5000 m 45.6428,20.8125 c 0.1070,1.5 -0.3482,2.7857 -1.3660,3.8571 -0.9643,1.125 -2.2232,1.6875 -3.7767,1.6875 l -10.8482,0 c -1.3393,0 -2.4911,-0.4286 -3.4553,-1.2857 -0.9643,-0.9107 -1.5000,-2.0357 -1.6071,-3.375 -1.1786,-12.2679 -6.1339,-22.7411 -14.8660,-31.4196 -8.6785,-8.7321 -19.1518,-13.6874 -31.4196,-14.8660 -1.3392,-0.1071 -2.4642,-0.6428 -3.375,-1.6071 -0.8571,-0.9642 -1.2857,-2.1160 -1.2857,-3.4553 l 0,-10.8482 c 0,-1.5535 0.5625,-2.8124 1.6875,-3.7767 0.9107,-0.9106 2.0624,-1.366 3.4553,-1.3660 l 0.4017,0 c 8.5714,0.6965 16.7678,2.8661 24.5892,6.5089 7.8213,3.5893 14.7588,8.4375 20.8125,14.5446 6.1070,6.0536 10.9552,12.9911 14.5446,20.8125 3.6427,7.8214 5.8124,16.0178 6.5089,24.5893 m 41.1428,0.1607 c 0.1070,1.4464 -0.3751,2.7053 -1.4464,3.7768 -0.9643,1.0714 -2.1965,1.6071 -3.6964,1.6071 l -11.4910,0 c -1.3929,0 -2.5983,-0.4554 -3.6160,-1.3661 -0.9643,-0.9643 -1.4733,-2.116 -1.5267,-3.4553 -0.6429,-11.5179 -3.3483,-22.4464 -8.1160,-32.7857 -4.7679,-10.3928 -10.9822,-19.3928 -18.6428,-27 -7.6072,-7.6606 -16.6071,-13.8749 -27,-18.6428 C 50.6160,48.5536 39.6874,45.8215 28.1696,45.1249 26.8303,45.0714 25.6785,44.5625 24.7142,43.5982 23.8035,42.5804 23.3482,41.4018 23.3482,40.0624 l 0,-11.4910 c 0,-1.4998 0.5357,-2.7320 1.6071,-3.6964 0.9642,-0.9641 2.1428,-1.4463 3.5357,-1.4464 l 0.2410,0 c 14.0356,0.6965 27.4553,3.9108 40.2589,9.6428 12.8570,5.7322 24.2677,13.6072 34.2321,23.625 10.0177,9.9643 17.8927,21.3750 23.625,34.2321 5.7320,12.8036 8.9463,26.2232 9.6428,40.2589" /></svg>
