<svg xmlns:svg="http://www.w3.org/2000/svg" xmlns="http://www.w3.org/2000/svg" version="1.1" viewBox="0 0 160 160"><path d="m 136.5714,120.9018 c -1.1e-4,6.4286 -1.9554,11.4911 -5.8660,15.1875 -3.9108,3.75 -9.1072,5.625 -15.5892,5.625 l -70.2321,0 c -6.4821,0 -11.6785,-1.875 -15.5892,-5.625 -3.9107,-3.6964 -5.8660,-8.7589 -5.8660,-15.1875 0,-2.8393 0.0803,-5.5982 0.2410,-8.2768 0.2142,-2.7321 0.5892,-5.6517 1.125,-8.7589 0.5892,-3.1606 1.3124,-6.0803 2.1696,-8.7589 0.8571,-2.6785 2.0089,-5.2767 3.4553,-7.7946 1.4464,-2.5713 3.1071,-4.7410 4.9821,-6.5089 1.8749,-1.8213 4.1517,-3.2678 6.8303,-4.3392 2.7321,-1.0713 5.7321,-1.6070 9,-1.6071 0.4821,6e-5 1.6071,0.5893 3.375,1.7678 1.7678,1.1250 3.7499,2.4107 5.9464,3.8571 2.2499,1.3929 5.1428,2.6786 8.6785,3.8571 3.5892,1.1250 7.1785,1.6875 10.7678,1.6875 3.5892,4e-5 7.1517,-0.5624 10.6875,-1.6875 3.5892,-1.1785 6.4820,-2.4642 8.6785,-3.8571 2.2499,-1.4463 4.2588,-2.7320 6.0267,-3.8571 1.7677,-1.1785 2.8927,-1.7678 3.375,-1.7678 3.2677,6e-5 6.2409,0.5357 8.9196,1.6071 2.7320,1.0714 5.0356,2.5179 6.9107,4.3392 1.8749,1.7679 3.5356,3.9375 4.9821,6.5089 1.4463,2.5179 2.5981,5.1161 3.4553,7.7946 0.8570,2.6786 1.5534,5.5982 2.0892,8.7589 0.5891,3.1071 0.9641,6.0268 1.125,8.7589 0.2141,2.6786 0.3213,5.4375 0.3214,8.2768 M 101.7767,27.3660 c 6.0534,6.0001 9.0802,13.2590 9.0803,21.7767 -8e-5,8.5179 -3.0268,15.8036 -9.0803,21.8571 -6.0000,6.0000 -13.2589,9.0000 -21.7767,9 -8.5179,5e-5 -15.8036,-2.9999 -21.8571,-9 -6.0000,-6.0535 -9.0000,-13.3392 -9,-21.8571 -2.5e-5,-8.5177 2.9999,-15.7766 9,-21.7767 C 64.1963,21.3126 71.4820,18.2858 80,18.2857 c 8.5177,1.2e-4 15.7767,3.0269 21.7767,9.0803" /></svg>
