<svg version="1.0" id="africa" xmlns="http://www.w3.org/2000/svg" xmlns:xlink="http://www.w3.org/1999/xlink" x="0px"
	 y="0px" viewBox="0 0 612 792" enable-background="new 0 0 612 792" xml:space="preserve">
<path id="path3784" sodipodi:nodetypes="cssssssssssssssssssssssssssss" fill="#0099CC" d="M353.6,257.5c-15.1,0-36-14.7-44.5-6.7
	c-12.4,11.9-22.9,0.3-35.2-2.1c-15.9-3.1,1.3-26-22.5-20.5c-14.6,3.3-30.1,10.7-44,9.1c-12.1-1.4-16.4,3.8-21.4,11.6
	c-6,9.5-8.6,21.2-18.1,30.3c-10.4,9.9-13.6,21.8-12.7,36.7c0.9,13.6-4.2,24,6.6,35.7c9.6,10.4,13.4,30.3,32.4,29.7
	c15.5-0.5,34.3-11.9,45.7-5.5c8.2,4.6,15.8,2.2,20,7.9c7.6,10.2-2,27.7,8.9,40.2c8.6,9.9,14.7,26.4,6.9,39.6
	c-8.9,15,2.1,28.8,4,43.7c2.2,17,18.3,32.2,17.4,47c-0.9,14,14.8,10.7,24.8,9.2c17.3-2.7,29.1-17.4,33.1-32c3.5-13,8-22.3,9.2-36.5
	c1.1-12.3,30.8-20.2,23.1-39.5c-5.7-14.3-8.7-30.3,3.3-43.6c11.2-12.3,25.4-21.9,32.3-37.7c3.1-7.2,12.6-24.7,10.7-24.7
	c-9.2,0.1-30,9.4-36.7-5.5c-6.5-14.5-22-24.1-23-40.8c-0.8-13.4-19.5-27.7-17.2-36.9c0.9-3.6,4.2,1.7,1-4.6
	c-0.7-1.5-1.1-0.9-2.1-1.9C354.7,258.8,365.3,257.5,353.6,257.5z"/>
</svg>
