<svg version="1.0" id="guineabissau" xmlns="http://www.w3.org/2000/svg" xmlns:xlink="http://www.w3.org/1999/xlink" x="0px"
	 y="0px" viewBox="5 35 150 90" enable-background="new 0 0 160 160" xml:space="preserve">
<g>
	<defs>
		<rect id="SVGID_1_" x="2.036" y="34.443" width="155.13" height="90.5"/>
	</defs>
	<clipPath id="SVGID_2_">
		<use xlink:href="#SVGID_1_"  overflow="visible"/>
	</clipPath>
	<path clip-path="url(#SVGID_2_)" fill="#BC0030" d="M2.036,34.443H55.79v90.5H2.036L2.036,34.443z"/>
</g>
<g>
	<defs>
		<rect id="SVGID_3_" x="2.036" y="34.443" width="155.13" height="90.5"/>
	</defs>
	<clipPath id="SVGID_4_">
		<use xlink:href="#SVGID_3_"  overflow="visible"/>
	</clipPath>
	<path clip-path="url(#SVGID_4_)" fill="#F3D02F" d="M55.79,34.443h101.38v45.25H55.79V34.443z"/>
</g>
<g>
	<defs>
		<rect id="SVGID_5_" x="2.036" y="34.443" width="155.13" height="90.5"/>
	</defs>
	<clipPath id="SVGID_6_">
		<use xlink:href="#SVGID_5_"  overflow="visible"/>
	</clipPath>
	<path clip-path="url(#SVGID_6_)" fill="#419E4B" d="M55.79,79.69h101.38v45.25H55.79V79.69z"/>
</g>
<g>
	<defs>
		<rect id="SVGID_7_" x="2.036" y="34.443" width="155.13" height="90.5"/>
	</defs>
	<clipPath id="SVGID_8_">
		<use xlink:href="#SVGID_7_"  overflow="visible"/>
	</clipPath>
	<path clip-path="url(#SVGID_8_)" d="M28.913,66.26l-4.152,12.77l6.389,2.08L28.913,66.26z"/>
</g>
<g>
	<defs>
		<rect id="SVGID_9_" x="2.036" y="34.443" width="155.13" height="90.5"/>
	</defs>
	<clipPath id="SVGID_10_">
		<use xlink:href="#SVGID_9_"  overflow="visible"/>
	</clipPath>
	<path clip-path="url(#SVGID_10_)" d="M28.913,66.26l4.147,12.77l-6.386,2.08L28.913,66.26z"/>
</g>
<g>
	<defs>
		<rect id="SVGID_11_" x="2.036" y="34.443" width="155.13" height="90.5"/>
	</defs>
	<clipPath id="SVGID_12_">
		<use xlink:href="#SVGID_11_"  overflow="visible"/>
	</clipPath>
	<path clip-path="url(#SVGID_12_)" d="M41.693,75.54H28.25v6.72L41.693,75.54z"/>
</g>
<g>
	<defs>
		<rect id="SVGID_13_" x="2.036" y="34.443" width="155.13" height="90.5"/>
	</defs>
	<clipPath id="SVGID_14_">
		<use xlink:href="#SVGID_13_"  overflow="visible"/>
	</clipPath>
	<path clip-path="url(#SVGID_14_)" d="M41.693,75.54l-10.873,7.9L26.872,78L41.693,75.54z"/>
</g>
<g>
	<defs>
		<rect id="SVGID_15_" x="2.036" y="34.443" width="155.13" height="90.5"/>
	</defs>
	<clipPath id="SVGID_16_">
		<use xlink:href="#SVGID_15_"  overflow="visible"/>
	</clipPath>
	<path clip-path="url(#SVGID_16_)" d="M16.13,75.54L27,83.44L30.954,78L16.13,75.54z"/>
</g>
<g>
	<defs>
		<rect id="SVGID_17_" x="2.036" y="34.443" width="155.13" height="90.5"/>
	</defs>
	<clipPath id="SVGID_18_">
		<use xlink:href="#SVGID_17_"  overflow="visible"/>
	</clipPath>
	<path clip-path="url(#SVGID_18_)" d="M16.13,75.54h13.439v6.72L16.13,75.54z"/>
</g>
<g>
	<defs>
		<rect id="SVGID_19_" x="2.036" y="34.443" width="155.13" height="90.5"/>
	</defs>
	<clipPath id="SVGID_20_">
		<use xlink:href="#SVGID_19_"  overflow="visible"/>
	</clipPath>
	<path clip-path="url(#SVGID_20_)" d="M36.811,90.56l-4.152-12.77l-6.389,2.07L36.811,90.56z"/>
</g>
<g>
	<defs>
		<rect id="SVGID_21_" x="2.036" y="34.443" width="155.13" height="90.5"/>
	</defs>
	<clipPath id="SVGID_22_">
		<use xlink:href="#SVGID_21_"  overflow="visible"/>
	</clipPath>
	<path clip-path="url(#SVGID_22_)" d="M36.811,90.56L25.94,82.67l3.948-5.44L36.811,90.56z"/>
</g>
<g>
	<defs>
		<rect id="SVGID_23_" x="2.036" y="34.443" width="155.13" height="90.5"/>
	</defs>
	<clipPath id="SVGID_24_">
		<use xlink:href="#SVGID_23_"  overflow="visible"/>
	</clipPath>
	<path clip-path="url(#SVGID_24_)" d="M21.01,90.56l10.876-7.89l-3.95-5.44L21.01,90.56z"/>
</g>
<g>
	<defs>
		<rect id="SVGID_25_" x="2.036" y="34.443" width="155.13" height="90.5"/>
	</defs>
	<clipPath id="SVGID_26_">
		<use xlink:href="#SVGID_25_"  overflow="visible"/>
	</clipPath>
	<path clip-path="url(#SVGID_26_)" d="M21.01,90.56l4.15-12.77l6.397,2.07L21.01,90.56z"/>
</g>
</svg>
