<svg version="1.0" id="honduras" xmlns="http://www.w3.org/2000/svg" xmlns:xlink="http://www.w3.org/1999/xlink" x="0px" y="0px"
	 viewBox="5 35 150 90" enable-background="new 0 0 160 160" xml:space="preserve">
<g>
	<defs>
		<rect id="SVGID_1_" x="2.487" y="34.777" width="154.68" height="90.23"/>
	</defs>
	<clipPath id="SVGID_2_">
		<use xlink:href="#SVGID_1_"  overflow="visible"/>
	</clipPath>
	<path clip-path="url(#SVGID_2_)" fill="#FFFFFF" d="M2.487,34.777h154.68v90.23H2.487L2.487,34.777z"/>
</g>
<g>
	<g>
		<defs>
			<rect id="SVGID_3_" x="2.487" y="34.777" width="154.68" height="90.23"/>
		</defs>
		<clipPath id="SVGID_4_">
			<use xlink:href="#SVGID_3_"  overflow="visible"/>
		</clipPath>
		<path clip-path="url(#SVGID_4_)" fill="#2A43B6" d="M79.83,74.882l-1.55,4.768l2.38,0.77L79.83,74.882z"/>
	</g>
	<g>
		<defs>
			<rect id="SVGID_5_" x="2.487" y="34.777" width="154.68" height="90.23"/>
		</defs>
		<clipPath id="SVGID_6_">
			<use xlink:href="#SVGID_5_"  overflow="visible"/>
		</clipPath>
		<path clip-path="url(#SVGID_6_)" fill="#2A43B6" d="M79.83,74.882l1.55,4.768l-2.385,0.77L79.83,74.882z"/>
	</g>
	<g>
		<defs>
			<rect id="SVGID_7_" x="2.487" y="34.777" width="154.68" height="90.23"/>
		</defs>
		<clipPath id="SVGID_8_">
			<use xlink:href="#SVGID_7_"  overflow="visible"/>
		</clipPath>
		<path clip-path="url(#SVGID_8_)" fill="#2A43B6" d="M84.59,78.35h-5.01v2.51L84.59,78.35z"/>
	</g>
	<g>
		<defs>
			<rect id="SVGID_9_" x="2.487" y="34.777" width="154.68" height="90.23"/>
		</defs>
		<clipPath id="SVGID_10_">
			<use xlink:href="#SVGID_9_"  overflow="visible"/>
		</clipPath>
		<path clip-path="url(#SVGID_10_)" fill="#2A43B6" d="M84.59,78.35l-4.05,2.94l-1.47-2.02L84.59,78.35z"/>
	</g>
	<g>
		<defs>
			<rect id="SVGID_11_" x="2.487" y="34.777" width="154.68" height="90.23"/>
		</defs>
		<clipPath id="SVGID_12_">
			<use xlink:href="#SVGID_11_"  overflow="visible"/>
		</clipPath>
		<path clip-path="url(#SVGID_12_)" fill="#2A43B6" d="M75.06,78.35l4.05,2.94l1.48-2.02L75.06,78.35z"/>
	</g>
	<g>
		<defs>
			<rect id="SVGID_13_" x="2.487" y="34.777" width="154.68" height="90.23"/>
		</defs>
		<clipPath id="SVGID_14_">
			<use xlink:href="#SVGID_13_"  overflow="visible"/>
		</clipPath>
		<path clip-path="url(#SVGID_14_)" fill="#2A43B6" d="M75.06,78.35h5.01v2.51L75.06,78.35z"/>
	</g>
	<g>
		<defs>
			<rect id="SVGID_15_" x="2.487" y="34.777" width="154.68" height="90.23"/>
		</defs>
		<clipPath id="SVGID_16_">
			<use xlink:href="#SVGID_15_"  overflow="visible"/>
		</clipPath>
		<path clip-path="url(#SVGID_16_)" fill="#2A43B6" d="M82.77,83.952l-1.55-4.772l-2.38,0.778L82.77,83.952z"/>
	</g>
	<g>
		<defs>
			<rect id="SVGID_17_" x="2.487" y="34.777" width="154.68" height="90.23"/>
		</defs>
		<clipPath id="SVGID_18_">
			<use xlink:href="#SVGID_17_"  overflow="visible"/>
		</clipPath>
		<path clip-path="url(#SVGID_18_)" fill="#2A43B6" d="M82.77,83.952L78.72,81l1.47-2.027L82.77,83.952z"/>
	</g>
	<g>
		<defs>
			<rect id="SVGID_19_" x="2.487" y="34.777" width="154.68" height="90.23"/>
		</defs>
		<clipPath id="SVGID_20_">
			<use xlink:href="#SVGID_19_"  overflow="visible"/>
		</clipPath>
		<path clip-path="url(#SVGID_20_)" fill="#2A43B6" d="M76.88,83.952L80.935,81l-1.475-2.027L76.88,83.952z"/>
	</g>
	<g>
		<defs>
			<rect id="SVGID_21_" x="2.487" y="34.777" width="154.68" height="90.23"/>
		</defs>
		<clipPath id="SVGID_22_">
			<use xlink:href="#SVGID_21_"  overflow="visible"/>
		</clipPath>
		<path clip-path="url(#SVGID_22_)" fill="#2A43B6" d="M76.88,83.952l1.55-4.772l2.38,0.778L76.88,83.952z"/>
	</g>
	<g>
		<defs>
			<rect id="SVGID_23_" x="2.487" y="34.777" width="154.68" height="90.23"/>
		</defs>
		<clipPath id="SVGID_24_">
			<use xlink:href="#SVGID_23_"  overflow="visible"/>
		</clipPath>
		<path clip-path="url(#SVGID_24_)" fill="#2A43B6" d="M104.89,82.4l-1.55,4.77l2.38,0.77L104.89,82.4z"/>
	</g>
	<g>
		<defs>
			<rect id="SVGID_25_" x="2.487" y="34.777" width="154.68" height="90.23"/>
		</defs>
		<clipPath id="SVGID_26_">
			<use xlink:href="#SVGID_25_"  overflow="visible"/>
		</clipPath>
		<path clip-path="url(#SVGID_26_)" fill="#2A43B6" d="M104.89,82.4l1.55,4.77l-2.38,0.77L104.89,82.4z"/>
	</g>
	<g>
		<defs>
			<rect id="SVGID_27_" x="2.487" y="34.777" width="154.68" height="90.23"/>
		</defs>
		<clipPath id="SVGID_28_">
			<use xlink:href="#SVGID_27_"  overflow="visible"/>
		</clipPath>
		<path clip-path="url(#SVGID_28_)" fill="#2A43B6" d="M109.66,85.86h-5.01v2.51L109.66,85.86z"/>
	</g>
	<g>
		<defs>
			<rect id="SVGID_29_" x="2.487" y="34.777" width="154.68" height="90.23"/>
		</defs>
		<clipPath id="SVGID_30_">
			<use xlink:href="#SVGID_29_"  overflow="visible"/>
		</clipPath>
		<path clip-path="url(#SVGID_30_)" fill="#2A43B6" d="M109.66,85.86l-4.05,2.95l-1.48-2.03L109.66,85.86z"/>
	</g>
	<g>
		<defs>
			<rect id="SVGID_31_" x="2.487" y="34.777" width="154.68" height="90.23"/>
		</defs>
		<clipPath id="SVGID_32_">
			<use xlink:href="#SVGID_31_"  overflow="visible"/>
		</clipPath>
		<path clip-path="url(#SVGID_32_)" fill="#2A43B6" d="M100.12,85.86l4.06,2.95l1.47-2.03L100.12,85.86z"/>
	</g>
	<g>
		<defs>
			<rect id="SVGID_33_" x="2.487" y="34.777" width="154.68" height="90.23"/>
		</defs>
		<clipPath id="SVGID_34_">
			<use xlink:href="#SVGID_33_"  overflow="visible"/>
		</clipPath>
		<path clip-path="url(#SVGID_34_)" fill="#2A43B6" d="M100.12,85.86h5.02v2.51L100.12,85.86z"/>
	</g>
	<g>
		<defs>
			<rect id="SVGID_35_" x="2.487" y="34.777" width="154.68" height="90.23"/>
		</defs>
		<clipPath id="SVGID_36_">
			<use xlink:href="#SVGID_35_"  overflow="visible"/>
		</clipPath>
		<path clip-path="url(#SVGID_36_)" fill="#2A43B6" d="M107.84,91.47l-1.55-4.77l-2.38,0.78L107.84,91.47z"/>
	</g>
	<g>
		<defs>
			<rect id="SVGID_37_" x="2.487" y="34.777" width="154.68" height="90.23"/>
		</defs>
		<clipPath id="SVGID_38_">
			<use xlink:href="#SVGID_37_"  overflow="visible"/>
		</clipPath>
		<path clip-path="url(#SVGID_38_)" fill="#2A43B6" d="M107.84,91.47l-4.06-2.94l1.48-2.03L107.84,91.47z"/>
	</g>
	<g>
		<defs>
			<rect id="SVGID_39_" x="2.487" y="34.777" width="154.68" height="90.23"/>
		</defs>
		<clipPath id="SVGID_40_">
			<use xlink:href="#SVGID_39_"  overflow="visible"/>
		</clipPath>
		<path clip-path="url(#SVGID_40_)" fill="#2A43B6" d="M101.94,91.47l4.06-2.94l-1.47-2.03L101.94,91.47z"/>
	</g>
	<g>
		<defs>
			<rect id="SVGID_41_" x="2.487" y="34.777" width="154.68" height="90.23"/>
		</defs>
		<clipPath id="SVGID_42_">
			<use xlink:href="#SVGID_41_"  overflow="visible"/>
		</clipPath>
		<path clip-path="url(#SVGID_42_)" fill="#2A43B6" d="M101.94,91.47l1.56-4.77l2.38,0.78L101.94,91.47z"/>
	</g>
	<g>
		<defs>
			<rect id="SVGID_43_" x="2.487" y="34.777" width="154.68" height="90.23"/>
		</defs>
		<clipPath id="SVGID_44_">
			<use xlink:href="#SVGID_43_"  overflow="visible"/>
		</clipPath>
		<path clip-path="url(#SVGID_44_)" fill="#2A43B6" d="M104.89,67.36l-1.55,4.77l2.38,0.778L104.89,67.36z"/>
	</g>
	<g>
		<defs>
			<rect id="SVGID_45_" x="2.487" y="34.777" width="154.68" height="90.23"/>
		</defs>
		<clipPath id="SVGID_46_">
			<use xlink:href="#SVGID_45_"  overflow="visible"/>
		</clipPath>
		<path clip-path="url(#SVGID_46_)" fill="#2A43B6" d="M104.89,67.36l1.55,4.77l-2.38,0.778L104.89,67.36z"/>
	</g>
	<g>
		<defs>
			<rect id="SVGID_47_" x="2.487" y="34.777" width="154.68" height="90.23"/>
		</defs>
		<clipPath id="SVGID_48_">
			<use xlink:href="#SVGID_47_"  overflow="visible"/>
		</clipPath>
		<path clip-path="url(#SVGID_48_)" fill="#2A43B6" d="M109.66,70.826h-5.01v2.504L109.66,70.826z"/>
	</g>
	<g>
		<defs>
			<rect id="SVGID_49_" x="2.487" y="34.777" width="154.68" height="90.23"/>
		</defs>
		<clipPath id="SVGID_50_">
			<use xlink:href="#SVGID_49_"  overflow="visible"/>
		</clipPath>
		<path clip-path="url(#SVGID_50_)" fill="#2A43B6" d="M109.66,70.826l-4.05,2.944l-1.48-2.03L109.66,70.826z"/>
	</g>
	<g>
		<defs>
			<rect id="SVGID_51_" x="2.487" y="34.777" width="154.68" height="90.23"/>
		</defs>
		<clipPath id="SVGID_52_">
			<use xlink:href="#SVGID_51_"  overflow="visible"/>
		</clipPath>
		<path clip-path="url(#SVGID_52_)" fill="#2A43B6" d="M100.12,70.826l4.06,2.944l1.47-2.03L100.12,70.826z"/>
	</g>
	<g>
		<defs>
			<rect id="SVGID_53_" x="2.487" y="34.777" width="154.68" height="90.23"/>
		</defs>
		<clipPath id="SVGID_54_">
			<use xlink:href="#SVGID_53_"  overflow="visible"/>
		</clipPath>
		<path clip-path="url(#SVGID_54_)" fill="#2A43B6" d="M100.12,70.826h5.02v2.504L100.12,70.826z"/>
	</g>
	<g>
		<defs>
			<rect id="SVGID_55_" x="2.487" y="34.777" width="154.68" height="90.23"/>
		</defs>
		<clipPath id="SVGID_56_">
			<use xlink:href="#SVGID_55_"  overflow="visible"/>
		</clipPath>
		<path clip-path="url(#SVGID_56_)" fill="#2A43B6" d="M107.84,76.44l-1.55-4.77l-2.38,0.77L107.84,76.44z"/>
	</g>
	<g>
		<defs>
			<rect id="SVGID_57_" x="2.487" y="34.777" width="154.68" height="90.23"/>
		</defs>
		<clipPath id="SVGID_58_">
			<use xlink:href="#SVGID_57_"  overflow="visible"/>
		</clipPath>
		<path clip-path="url(#SVGID_58_)" fill="#2A43B6" d="M107.84,76.44l-4.06-2.96l1.48-2.02L107.84,76.44z"/>
	</g>
	<g>
		<defs>
			<rect id="SVGID_59_" x="2.487" y="34.777" width="154.68" height="90.23"/>
		</defs>
		<clipPath id="SVGID_60_">
			<use xlink:href="#SVGID_59_"  overflow="visible"/>
		</clipPath>
		<path clip-path="url(#SVGID_60_)" fill="#2A43B6" d="M101.94,76.44l4.06-2.96l-1.47-2.02L101.94,76.44z"/>
	</g>
	<g>
		<defs>
			<rect id="SVGID_61_" x="2.487" y="34.777" width="154.68" height="90.23"/>
		</defs>
		<clipPath id="SVGID_62_">
			<use xlink:href="#SVGID_61_"  overflow="visible"/>
		</clipPath>
		<path clip-path="url(#SVGID_62_)" fill="#2A43B6" d="M101.94,76.44l1.56-4.77l2.38,0.77L101.94,76.44z"/>
	</g>
	<g>
		<defs>
			<rect id="SVGID_63_" x="2.487" y="34.777" width="154.68" height="90.23"/>
		</defs>
		<clipPath id="SVGID_64_">
			<use xlink:href="#SVGID_63_"  overflow="visible"/>
		</clipPath>
		<path clip-path="url(#SVGID_64_)" fill="#2A43B6" d="M54.761,82.4l-1.541,4.77l2.38,0.77L54.761,82.4z"/>
	</g>
	<g>
		<defs>
			<rect id="SVGID_65_" x="2.487" y="34.777" width="154.68" height="90.23"/>
		</defs>
		<clipPath id="SVGID_66_">
			<use xlink:href="#SVGID_65_"  overflow="visible"/>
		</clipPath>
		<path clip-path="url(#SVGID_66_)" fill="#2A43B6" d="M54.761,82.4l1.549,4.77l-2.38,0.77L54.761,82.4z"/>
	</g>
	<g>
		<defs>
			<rect id="SVGID_67_" x="2.487" y="34.777" width="154.68" height="90.23"/>
		</defs>
		<clipPath id="SVGID_68_">
			<use xlink:href="#SVGID_67_"  overflow="visible"/>
		</clipPath>
		<path clip-path="url(#SVGID_68_)" fill="#2A43B6" d="M59.53,85.86h-5.01v2.51L59.53,85.86z"/>
	</g>
	<g>
		<defs>
			<rect id="SVGID_69_" x="2.487" y="34.777" width="154.68" height="90.23"/>
		</defs>
		<clipPath id="SVGID_70_">
			<use xlink:href="#SVGID_69_"  overflow="visible"/>
		</clipPath>
		<path clip-path="url(#SVGID_70_)" fill="#2A43B6" d="M59.53,85.86l-4.06,2.95L54,86.78L59.53,85.86z"/>
	</g>
	<g>
		<defs>
			<rect id="SVGID_71_" x="2.487" y="34.777" width="154.68" height="90.23"/>
		</defs>
		<clipPath id="SVGID_72_">
			<use xlink:href="#SVGID_71_"  overflow="visible"/>
		</clipPath>
		<path clip-path="url(#SVGID_72_)" fill="#2A43B6" d="M49.995,85.86l4.055,2.95l1.47-2.03L49.995,85.86z"/>
	</g>
	<g>
		<defs>
			<rect id="SVGID_73_" x="2.487" y="34.777" width="154.68" height="90.23"/>
		</defs>
		<clipPath id="SVGID_74_">
			<use xlink:href="#SVGID_73_"  overflow="visible"/>
		</clipPath>
		<path clip-path="url(#SVGID_74_)" fill="#2A43B6" d="M49.995,85.86h5.02v2.51L49.995,85.86z"/>
	</g>
	<g>
		<defs>
			<rect id="SVGID_75_" x="2.487" y="34.777" width="154.68" height="90.23"/>
		</defs>
		<clipPath id="SVGID_76_">
			<use xlink:href="#SVGID_75_"  overflow="visible"/>
		</clipPath>
		<path clip-path="url(#SVGID_76_)" fill="#2A43B6" d="M57.709,91.47L56.16,86.7l-2.383,0.78L57.709,91.47z"/>
	</g>
	<g>
		<defs>
			<rect id="SVGID_77_" x="2.487" y="34.777" width="154.68" height="90.23"/>
		</defs>
		<clipPath id="SVGID_78_">
			<use xlink:href="#SVGID_77_"  overflow="visible"/>
		</clipPath>
		<path clip-path="url(#SVGID_78_)" fill="#2A43B6" d="M57.709,91.47l-4.056-2.94l1.477-2.03L57.709,91.47z"/>
	</g>
	<g>
		<defs>
			<rect id="SVGID_79_" x="2.487" y="34.777" width="154.68" height="90.23"/>
		</defs>
		<clipPath id="SVGID_80_">
			<use xlink:href="#SVGID_79_"  overflow="visible"/>
		</clipPath>
		<path clip-path="url(#SVGID_80_)" fill="#2A43B6" d="M51.815,91.47l4.059-2.94L54.4,86.5L51.815,91.47z"/>
	</g>
	<g>
		<defs>
			<rect id="SVGID_81_" x="2.487" y="34.777" width="154.68" height="90.23"/>
		</defs>
		<clipPath id="SVGID_82_">
			<use xlink:href="#SVGID_81_"  overflow="visible"/>
		</clipPath>
		<path clip-path="url(#SVGID_82_)" fill="#2A43B6" d="M51.815,91.47l1.555-4.77l2.378,0.78L51.815,91.47z"/>
	</g>
	<g>
		<defs>
			<rect id="SVGID_83_" x="2.487" y="34.777" width="154.68" height="90.23"/>
		</defs>
		<clipPath id="SVGID_84_">
			<use xlink:href="#SVGID_83_"  overflow="visible"/>
		</clipPath>
		<path clip-path="url(#SVGID_84_)" fill="#2A43B6" d="M54.761,67.36l-1.541,4.77l2.38,0.778L54.761,67.36z"/>
	</g>
	<g>
		<defs>
			<rect id="SVGID_85_" x="2.487" y="34.777" width="154.68" height="90.23"/>
		</defs>
		<clipPath id="SVGID_86_">
			<use xlink:href="#SVGID_85_"  overflow="visible"/>
		</clipPath>
		<path clip-path="url(#SVGID_86_)" fill="#2A43B6" d="M54.761,67.36l1.549,4.77l-2.38,0.778L54.761,67.36z"/>
	</g>
	<g>
		<defs>
			<rect id="SVGID_87_" x="2.487" y="34.777" width="154.68" height="90.23"/>
		</defs>
		<clipPath id="SVGID_88_">
			<use xlink:href="#SVGID_87_"  overflow="visible"/>
		</clipPath>
		<path clip-path="url(#SVGID_88_)" fill="#2A43B6" d="M59.53,70.826h-5.01v2.504L59.53,70.826z"/>
	</g>
	<g>
		<defs>
			<rect id="SVGID_89_" x="2.487" y="34.777" width="154.68" height="90.23"/>
		</defs>
		<clipPath id="SVGID_90_">
			<use xlink:href="#SVGID_89_"  overflow="visible"/>
		</clipPath>
		<path clip-path="url(#SVGID_90_)" fill="#2A43B6" d="M59.53,70.826l-4.06,2.944L54,71.74L59.53,70.826z"/>
	</g>
	<g>
		<defs>
			<rect id="SVGID_91_" x="2.487" y="34.777" width="154.68" height="90.23"/>
		</defs>
		<clipPath id="SVGID_92_">
			<use xlink:href="#SVGID_91_"  overflow="visible"/>
		</clipPath>
		<path clip-path="url(#SVGID_92_)" fill="#2A43B6" d="M49.995,70.826l4.055,2.944l1.47-2.03L49.995,70.826z"/>
	</g>
	<g>
		<defs>
			<rect id="SVGID_93_" x="2.487" y="34.777" width="154.68" height="90.23"/>
		</defs>
		<clipPath id="SVGID_94_">
			<use xlink:href="#SVGID_93_"  overflow="visible"/>
		</clipPath>
		<path clip-path="url(#SVGID_94_)" fill="#2A43B6" d="M49.995,70.826h5.02v2.504L49.995,70.826z"/>
	</g>
	<g>
		<defs>
			<rect id="SVGID_95_" x="2.487" y="34.777" width="154.68" height="90.23"/>
		</defs>
		<clipPath id="SVGID_96_">
			<use xlink:href="#SVGID_95_"  overflow="visible"/>
		</clipPath>
		<path clip-path="url(#SVGID_96_)" fill="#2A43B6" d="M57.709,76.44l-1.549-4.77l-2.383,0.77L57.709,76.44z"/>
	</g>
	<g>
		<defs>
			<rect id="SVGID_97_" x="2.487" y="34.777" width="154.68" height="90.23"/>
		</defs>
		<clipPath id="SVGID_98_">
			<use xlink:href="#SVGID_97_"  overflow="visible"/>
		</clipPath>
		<path clip-path="url(#SVGID_98_)" fill="#2A43B6" d="M57.709,76.44l-4.056-2.96l1.477-2.02L57.709,76.44z"/>
	</g>
	<g>
		<defs>
			<rect id="SVGID_99_" x="2.487" y="34.777" width="154.68" height="90.23"/>
		</defs>
		<clipPath id="SVGID_100_">
			<use xlink:href="#SVGID_99_"  overflow="visible"/>
		</clipPath>
		<path clip-path="url(#SVGID_100_)" fill="#2A43B6" d="M51.815,76.44l4.059-2.96L54.4,71.46L51.815,76.44z"/>
	</g>
	<g>
		<defs>
			<rect id="SVGID_101_" x="2.487" y="34.777" width="154.68" height="90.23"/>
		</defs>
		<clipPath id="SVGID_102_">
			<use xlink:href="#SVGID_101_"  overflow="visible"/>
		</clipPath>
		<path clip-path="url(#SVGID_102_)" fill="#2A43B6" d="M51.815,76.44l1.555-4.77l2.378,0.77L51.815,76.44z"/>
	</g>
	<g>
		<defs>
			<rect id="SVGID_103_" x="2.487" y="34.777" width="154.68" height="90.23"/>
		</defs>
		<clipPath id="SVGID_104_">
			<use xlink:href="#SVGID_103_"  overflow="visible"/>
		</clipPath>
		<path clip-path="url(#SVGID_104_)" fill="#2A43B6" d="M2.487,34.777h154.68v30.08H2.487L2.487,34.777z"/>
	</g>
	<g>
		<defs>
			<rect id="SVGID_105_" x="2.487" y="34.777" width="154.68" height="90.23"/>
		</defs>
		<clipPath id="SVGID_106_">
			<use xlink:href="#SVGID_105_"  overflow="visible"/>
		</clipPath>
		<path clip-path="url(#SVGID_106_)" fill="#2A43B6" d="M2.487,94.93h154.68v30.08H2.487L2.487,94.93z"/>
	</g>
</g>
</svg>
