<svg version="1.0" id="kyrgyz" xmlns="http://www.w3.org/2000/svg" xmlns:xlink="http://www.w3.org/1999/xlink" x="0px" y="0px"
	 viewBox="0 0 160 160" enable-background="new 0 0 160 160" xml:space="preserve">
<g>
	<path id="_x34_" fill="#D50037" d="M2.653,35.703h153.85v89.74H2.653L2.653,35.703z"/>
</g>
<g>
	<g>
		<path fill="#F9F02A" d="M106.6,80.67c-3.478,0.867-7.236-1.912-10.462-1.326c0-0.041-0.003-0.081-0.008-0.122
			c3.101-1.479,8.259,0.173,10.138-2.764c-3.284,1.397-7.412-0.739-10.503,0.316c-0.008-0.046-0.018-0.087-0.028-0.132
			c2.838-1.913,8.151-1.112,9.544-4.294c-3.02,1.887-7.404,0.444-10.291,1.943c-0.018-0.046-0.038-0.087-0.056-0.133
			c2.514-2.315,7.859-2.366,8.733-5.712c-2.677,2.325-7.219,1.601-9.842,3.508c-0.023-0.041-0.048-0.087-0.074-0.127
			c2.132-2.662,7.369-3.549,7.706-6.986c-2.274,2.713-6.854,2.713-9.149,4.988c-0.031-0.036-0.066-0.077-0.099-0.117
			c1.701-2.948,6.708-4.646,6.504-8.08c-1.815,3.03-6.321,3.748-8.238,6.339c-0.043-0.036-0.087-0.071-0.127-0.107
			c1.237-3.167,5.888-5.625,5.156-8.975c-1.318,3.264-5.64,4.681-7.139,7.527c-0.048-0.031-0.097-0.061-0.148-0.087
			c0.745-3.315,4.931-6.461,3.682-9.643c-0.788,3.422-4.819,5.492-5.862,8.527c-0.056-0.021-0.112-0.041-0.168-0.066
			c0.23-3.376,3.855-7.129,2.129-10.08c-0.242,3.498-3.894,6.175-4.457,9.332c-0.059-0.015-0.117-0.031-0.173-0.041
			c-0.298-3.376,2.687-7.644,0.523-10.281c0.306,3.493-2.879,6.706-2.945,9.914c-0.056-0.005-0.117-0.005-0.176-0.01
			c-0.823-3.286,1.457-7.967-1.093-10.237c0.849,3.407-1.795,7.078-1.354,10.255c-0.061,0.005-0.12,0.01-0.178,0.015
			c-1.326-3.116,0.191-8.098-2.68-9.939c1.372,3.233-0.668,7.277,0.268,10.347c-0.059,0.015-0.112,0.031-0.171,0.046
			c-1.803-2.871-1.076-8.04-4.204-9.404c1.864,2.978,0.474,7.303,1.889,10.189c-0.051,0.026-0.104,0.046-0.156,0.072
			c-2.241-2.55-2.325-7.782-5.637-8.644c2.315,2.657,1.606,7.165,3.478,9.791c-0.046,0.026-0.094,0.056-0.14,0.087
			c-2.626-2.152-3.526-7.338-6.941-7.675c2.71,2.274,2.71,6.854,4.985,9.149c-0.038,0.036-0.079,0.071-0.115,0.107
			c-2.948-1.703-4.648-6.711-8.08-6.512c3.042,1.826,3.748,6.374,6.374,8.277c-0.031,0.036-0.064,0.076-0.092,0.112
			c-3.195-1.204-5.658-5.91-9.03-5.176c3.299,1.336,4.712,5.732,7.619,7.19c-0.02,0.041-0.046,0.076-0.072,0.122
			c-3.35-0.673-6.532-4.967-9.753-3.707c3.478,0.801,5.561,4.952,8.674,5.915c-0.013,0.041-0.028,0.082-0.046,0.122
			c-3.422-0.117-7.249-3.891-10.248-2.137c3.575,0.25,6.288,4.049,9.536,4.493c-0.01,0.041-0.018,0.076-0.028,0.117
			c-3.404,0.449-7.8-2.713-10.495-0.5c3.582-0.316,6.874,3.039,10.158,2.943c0,0.036-0.005,0.071-0.005,0.107
			c-3.294,1.01-8.159-1.453-10.485,1.163c3.503-0.877,7.292,1.948,10.533,1.305c0.003,0.036,0.003,0.066,0.008,0.102
			c-3.09,1.54-8.312-0.158-10.209,2.805c3.338-1.418,7.539,0.801,10.638-0.372c0.008,0.031,0.018,0.061,0.025,0.087
			c-2.802,2.04-8.261,1.163-9.676,4.391c3.085-1.928,7.603-0.378,10.482-2.045c0.01,0.025,0.023,0.046,0.033,0.071
			c-2.435,2.478-8.01,2.453-8.896,5.88c2.751-2.402,7.484-1.555,10.06-3.687c0.015,0.02,0.026,0.041,0.036,0.061
			c-1.994,2.851-7.542,3.687-7.889,7.226c2.351-2.805,7.183-2.708,9.381-5.237c0.015,0.015,0.031,0.026,0.041,0.046
			c-1.502,3.151-6.889,4.845-6.675,8.404c1.884-3.151,6.693-3.799,8.46-6.665c0.015,0.015,0.028,0.026,0.038,0.041
			c-0.974,3.356-6.05,5.875-5.288,9.368c1.377-3.412,6.03-4.804,7.323-7.92c0.015,0.01,0.025,0.02,0.041,0.026
			c-0.423,3.478-5.066,6.767-3.761,10.1c0.826-3.59,5.217-5.696,5.997-8.975c0.013,0.005,0.028,0.01,0.038,0.015
			c0.138,3.503-3.945,7.486-2.132,10.577c0.252-3.677,4.266-6.446,4.516-9.812c0.015,0,0.031,0.005,0.043,0.01
			c0.686,3.442-2.726,8.02-0.451,10.785c-0.324-3.672,3.208-7.03,2.927-10.398c0,0,0.028,0,0.038,0
			c1.226,3.294-1.438,8.348,1.247,10.73c-0.895-3.575,2.065-7.445,1.265-10.73c0,0,0.028,0,0.041,0
			c1.719,3.06-0.117,8.465,2.907,10.398c-1.441-3.386,0.869-7.67-0.426-10.785c0.013,0,0.028-0.005,0.043-0.01
			c2.167,2.759,1.206,8.373,4.49,9.812c-1.95-3.116-0.344-7.7-2.103-10.577c0.015-0.005,0.031-0.015,0.043-0.02
			c2.565,2.392,2.501,8.08,5.961,8.98c-2.41-2.769-1.543-7.537-3.718-10.11c0.015-0.01,0.028-0.015,0.043-0.025
			c2.894,1.968,3.72,7.573,7.28,7.925c-2.81-2.351-2.705-7.185-5.242-9.383c0.015-0.015,0.028-0.026,0.049-0.041
			c3.149,1.504,4.847,6.889,8.404,6.68c-3.131-1.882-3.791-6.645-6.617-8.435c0.013-0.02,0.028-0.036,0.046-0.051
			c3.333,1.015,5.842,6.03,9.314,5.273c-3.376-1.362-4.776-5.936-7.825-7.282c0.015-0.02,0.028-0.046,0.043-0.066
			c3.44,0.51,6.693,5.04,9.993,3.748c-3.537-0.816-5.633-5.084-8.832-5.956c0.012-0.031,0.025-0.061,0.038-0.087
			c3.463,0,7.366,3.922,10.408,2.137c-3.603-0.25-6.333-4.105-9.613-4.498c0.008-0.031,0.015-0.066,0.026-0.097
			c3.414-0.515,7.856,2.718,10.574,0.49c-3.585,0.316-6.874-3.044-10.164-2.942c0.005-0.036,0.008-0.076,0.013-0.112
			c3.29-1.01,8.158,1.452,10.483-1.159 M94.249,82.353c-0.082,0.729-0.219,1.438-0.405,2.132c0.092,0.02,0.189,0.036,0.298,0.051
			c-0.117,0.02-0.229,0.046-0.334,0.076c-0.194,0.704-0.439,1.387-0.737,2.04c0.087,0.036,0.181,0.071,0.286,0.097
			c-0.115,0.005-0.23,0.01-0.339,0.026c-0.303,0.663-0.653,1.295-1.051,1.902c0.082,0.046,0.168,0.097,0.27,0.138
			c-0.115-0.015-0.232-0.025-0.341-0.031c-0.403,0.607-0.847,1.178-1.334,1.714c0.072,0.061,0.156,0.122,0.245,0.184
			c-0.112-0.036-0.227-0.061-0.337-0.082c-0.487,0.53-1.018,1.025-1.581,1.479c0.061,0.076,0.133,0.148,0.217,0.219
			c-0.11-0.051-0.217-0.097-0.319-0.133c-0.566,0.449-1.165,0.857-1.795,1.219c0.051,0.082,0.109,0.163,0.176,0.245
			c-0.097-0.066-0.194-0.128-0.291-0.179c-0.63,0.352-1.283,0.663-1.966,0.923c0.036,0.087,0.084,0.179,0.138,0.27
			c-0.087-0.081-0.173-0.158-0.26-0.224c-0.673,0.25-1.369,0.454-2.086,0.602c0.023,0.092,0.051,0.189,0.092,0.291
			c-0.074-0.092-0.145-0.184-0.222-0.265c-0.701,0.143-1.418,0.235-2.152,0.271c0.008,0.097,0.02,0.194,0.043,0.301
			c-0.059-0.102-0.115-0.204-0.176-0.296c-0.204,0.01-0.411,0.015-0.612,0.015c-0.528,0-1.048-0.031-1.558-0.082
			c-0.005,0.092-0.01,0.194-0.003,0.301c-0.041-0.112-0.084-0.219-0.13-0.316c-0.729-0.087-1.44-0.225-2.132-0.408
			c-0.02,0.092-0.038,0.189-0.051,0.296c-0.02-0.112-0.046-0.224-0.074-0.332c-0.706-0.194-1.387-0.444-2.045-0.734
			c-0.033,0.087-0.066,0.178-0.095,0.286c-0.005-0.117-0.01-0.235-0.025-0.342c-0.661-0.306-1.298-0.658-1.9-1.05
			c-0.051,0.081-0.094,0.168-0.143,0.27c0.015-0.117,0.025-0.235,0.031-0.342c-0.604-0.403-1.175-0.846-1.714-1.331
			c-0.061,0.071-0.122,0.153-0.181,0.245c0.033-0.117,0.064-0.23,0.084-0.337c-0.53-0.49-1.03-1.02-1.484-1.581
			c-0.074,0.061-0.145,0.133-0.217,0.209c0.051-0.102,0.097-0.209,0.133-0.316c-0.446-0.566-0.857-1.163-1.216-1.795
			c-0.084,0.051-0.163,0.107-0.247,0.179c0.066-0.097,0.127-0.194,0.181-0.291c-0.354-0.627-0.663-1.285-0.923-1.963
			c-0.087,0.036-0.179,0.076-0.273,0.133c0.084-0.087,0.156-0.173,0.224-0.255c-0.25-0.673-0.451-1.372-0.602-2.086
			c-0.092,0.02-0.189,0.051-0.291,0.087c0.095-0.072,0.184-0.143,0.265-0.219c-0.143-0.699-0.232-1.423-0.273-2.152
			c-0.092,0.005-0.191,0.02-0.298,0.046c0.104-0.061,0.207-0.117,0.296-0.184C65.007,81.075,65,80.871,65,80.667
			c0-0.525,0.031-1.045,0.084-1.56c-0.094-0.005-0.196-0.005-0.303,0c0.112-0.041,0.219-0.082,0.319-0.133
			c0.081-0.724,0.219-1.438,0.408-2.132c-0.094-0.02-0.191-0.036-0.301-0.046c0.115-0.02,0.227-0.046,0.331-0.076
			c0.196-0.704,0.446-1.387,0.737-2.045c-0.087-0.036-0.179-0.066-0.286-0.092c0.12-0.005,0.232-0.015,0.342-0.026
			c0.304-0.663,0.655-1.301,1.051-1.902c-0.079-0.051-0.171-0.097-0.27-0.138c0.117,0.01,0.234,0.02,0.342,0.026
			c0.401-0.602,0.849-1.178,1.334-1.713c-0.072-0.061-0.153-0.122-0.245-0.179c0.115,0.031,0.227,0.061,0.334,0.081
			c0.492-0.535,1.02-1.03,1.583-1.484c-0.061-0.072-0.133-0.143-0.214-0.214c0.11,0.051,0.214,0.092,0.319,0.132
			c0.564-0.449,1.163-0.857,1.793-1.224c-0.049-0.076-0.105-0.158-0.173-0.245c0.097,0.066,0.194,0.128,0.288,0.184
			c0.63-0.357,1.285-0.663,1.966-0.923c-0.036-0.087-0.079-0.178-0.135-0.27c0.084,0.076,0.171,0.153,0.257,0.219
			c0.673-0.25,1.369-0.449,2.088-0.602c-0.025-0.092-0.054-0.184-0.094-0.285c0.071,0.092,0.148,0.178,0.219,0.26
			c0.701-0.143,1.425-0.23,2.157-0.271c-0.008-0.092-0.02-0.189-0.046-0.296c0.056,0.102,0.12,0.199,0.181,0.291
			c0.201-0.005,0.403-0.01,0.609-0.01c0.525,0,1.045,0.026,1.558,0.081c0.008-0.097,0.008-0.194,0-0.306
			c0.043,0.112,0.081,0.219,0.13,0.321c0.729,0.081,1.44,0.219,2.132,0.403c0.02-0.087,0.038-0.189,0.048-0.296
			c0.023,0.117,0.049,0.23,0.082,0.332c0.699,0.199,1.382,0.444,2.04,0.739c0.036-0.087,0.069-0.184,0.095-0.286
			c0.003,0.117,0.01,0.23,0.025,0.342c0.661,0.301,1.295,0.653,1.9,1.045c0.051-0.081,0.097-0.168,0.14-0.265
			c-0.013,0.117-0.026,0.23-0.028,0.342c0.604,0.403,1.178,0.847,1.711,1.331c0.061-0.071,0.125-0.153,0.181-0.245
			c-0.033,0.112-0.061,0.224-0.082,0.337c0.533,0.49,1.028,1.015,1.484,1.581c0.071-0.061,0.145-0.132,0.217-0.214
			c-0.051,0.107-0.095,0.214-0.133,0.316c0.446,0.566,0.854,1.168,1.219,1.795c0.081-0.051,0.163-0.107,0.247-0.179
			c-0.069,0.102-0.13,0.199-0.181,0.296c0.354,0.627,0.66,1.28,0.92,1.963c0.087-0.036,0.179-0.082,0.27-0.138
			c-0.079,0.087-0.155,0.173-0.222,0.26c0.252,0.673,0.454,1.372,0.602,2.086c0.095-0.02,0.189-0.051,0.291-0.092
			c-0.095,0.072-0.181,0.148-0.26,0.219c0.14,0.704,0.23,1.423,0.265,2.157c0.095-0.01,0.196-0.026,0.301-0.046
			c-0.105,0.056-0.202,0.117-0.296,0.179c0.01,0.204,0.013,0.408,0.013,0.612c0,0.525-0.028,1.045-0.082,1.555
			c0.094,0.005,0.194,0.01,0.303,0.005C94.458,82.261,94.351,82.307,94.249,82.353"/>
		<path fill="#F9F02A" d="M78.26,72.23c-2.045-0.852-4.263-1.362-6.589-1.454c-0.184,0.168-0.362,0.342-0.535,0.52
			c2.213,0.102,4.327,0.592,6.275,1.402C77.689,72.535,77.972,72.377,78.26,72.23"/>
		<path fill="#F9F02A" d="M86.7,69.972c-1.971-1.448-4.398-2.3-7.02-2.3c-2.626,0-5.05,0.851-7.03,2.3
			c2.486,0.102,4.852,0.653,7.03,1.581C81.852,70.625,84.221,70.074,86.7,69.972"/>
		<path fill="#F9F02A" d="M76.27,73.42c-1.81-0.76-3.763-1.239-5.811-1.367c-0.13,0.158-0.26,0.321-0.383,0.484
			c1.943,0.158,3.797,0.632,5.508,1.377C75.808,73.746,76.035,73.583,76.27,73.42"/>
		<path fill="#F9F02A" d="M81.35,76.68c-0.24,0.184-0.474,0.378-0.701,0.576c3.363,3.172,5.497,7.655,5.599,12.647
			c0.372-0.245,0.729-0.51,1.068-0.796C87.01,84.177,84.771,79.781,81.35,76.68"/>
		<path fill="#F9F02A" d="M81.949,72.7c1.951-0.811,4.065-1.3,6.278-1.402c-0.173-0.178-0.354-0.352-0.538-0.52
			c-2.325,0.092-4.544,0.602-6.586,1.454C81.388,72.379,81.671,72.537,81.949,72.7"/>
		<path fill="#F9F02A" d="M83.34,75.36c-0.286,0.163-0.564,0.332-0.836,0.51c3.366,2.927,5.696,7.04,6.356,11.694
			c0.339-0.403,0.65-0.837,0.933-1.29C88.896,81.934,86.573,78.119,83.34,75.36"/>
		<path fill="#F9F02A" d="M74.65,74.65c-1.576-0.714-3.277-1.198-5.064-1.397c-1.193,1.887-1.89,4.121-1.89,6.527
			c0,1.448,0.252,2.836,0.714,4.126C69.604,80.254,71.789,77.057,74.65,74.65"/>
		<path fill="#F9F02A" d="M83.78,73.919c1.711-0.744,3.565-1.219,5.508-1.377c-0.122-0.163-0.25-0.326-0.38-0.484
			c-2.05,0.127-4.01,0.607-5.811,1.367C83.329,73.588,83.556,73.751,83.78,73.919"/>
		<path fill="#F9F02A" d="M74.72,90.28c0,0.178,0.003,0.357,0.005,0.53c1.509,0.693,3.187,1.086,4.957,1.086
			c1.767,0,3.442-0.393,4.952-1.086c0.005-0.173,0.008-0.352,0.008-0.53c0-4.727-1.897-9.01-4.959-12.11
			C76.615,81.271,74.72,85.554,74.72,90.28"/>
		<path fill="#F9F02A" d="M79.68,72.894c-0.288,0.148-0.574,0.306-0.852,0.469c0.288,0.148,0.571,0.306,0.852,0.469
			c0.278-0.163,0.563-0.321,0.852-0.469C80.251,73.2,79.968,73.042,79.68,72.894"/>
		<path fill="#F9F02A" d="M84.71,74.65c2.858,2.407,5.05,5.604,6.239,9.256c0.459-1.29,0.711-2.677,0.711-4.126
			c0-2.407-0.693-4.641-1.889-6.527C87.987,73.451,86.281,73.936,84.71,74.65"/>
		<path fill="#F9F02A" d="M78.71,77.26c-0.232-0.199-0.467-0.392-0.704-0.576c-3.419,3.101-5.661,7.496-5.969,12.428
			c0.339,0.286,0.698,0.551,1.071,0.796C73.208,84.914,75.345,80.432,78.71,77.26"/>
		<path fill="#F9F02A" d="M78.971,75.862c0.242,0.178,0.477,0.357,0.709,0.546c0.232-0.189,0.467-0.367,0.704-0.546
			c-0.23-0.179-0.464-0.357-0.704-0.525C79.438,75.505,79.203,75.684,78.971,75.862"/>
		<path fill="#F9F02A" d="M76.855,75.867c-0.275-0.178-0.553-0.347-0.834-0.51c-3.233,2.759-5.558,6.573-6.456,10.913
			c0.285,0.454,0.597,0.887,0.933,1.295C71.158,82.905,73.489,78.795,76.855,75.867"/>
		<path fill="#F9F02A" d="M80.84,74.58c0.237,0.163,0.472,0.332,0.701,0.505c0.278-0.168,0.558-0.332,0.844-0.485
			c-0.227-0.173-0.459-0.342-0.696-0.505C81.404,74.249,81.118,74.412,80.84,74.58"/>
		<path fill="#F9F02A" d="M76.972,74.6c0.283,0.153,0.566,0.316,0.844,0.485c0.232-0.173,0.462-0.342,0.701-0.505
			c-0.278-0.168-0.561-0.332-0.849-0.484C77.433,74.258,77.199,74.426,76.972,74.6"/>
	</g>
</g>
</svg>
