<svg version="1.0" id="liberia" xmlns="http://www.w3.org/2000/svg" xmlns:xlink="http://www.w3.org/1999/xlink" x="0px" y="0px"
	 viewBox="0 0 160 160" enable-background="new 0 0 160 160" xml:space="preserve">
<g>
	<defs>
		<rect id="SVGID_1_" x="2.041" y="35.37" width="155.26" height="90.57"/>
	</defs>
	<clipPath id="SVGID_2_">
		<use xlink:href="#SVGID_1_"  overflow="visible"/>
	</clipPath>
	<path clip-path="url(#SVGID_2_)" fill="#AE0037" d="M43.21,35.37L2.04,84.77v8.24l4.117,4.11l-4.117,4.12v8.23l4.117,4.12
		L2.04,117.7v8.24H157.3v-8.24l-4.12-4.11l4.12-4.12v-8.23l-4.12-4.12l4.12-4.11v-8.24l-4.12-4.11l4.12-4.12v-8.23l-4.12-4.12
		l4.12-4.12v-8.232l-4.12-4.117l4.12-4.117V35.37L43.21,35.37z"/>
</g>
<g>
	<defs>
		<rect id="SVGID_3_" x="2.041" y="35.37" width="155.26" height="90.57"/>
	</defs>
	<clipPath id="SVGID_4_">
		<use xlink:href="#SVGID_3_"  overflow="visible"/>
	</clipPath>
	<path clip-path="url(#SVGID_4_)" fill="#FFFFFF" d="M2.041,117.7h155.26v-8.234H2.041L2.041,117.7 M2.041,101.232h155.26v-8.229
		H2.041V101.232 M43.211,43.599L2.041,76.535v8.234h155.26v-8.234H43.211l-8.232-8.234h122.32v-8.234H34.979v-8.234h122.32v-8.234
		H43.209"/>
</g>
<g>
	<defs>
		<rect id="SVGID_5_" x="2.041" y="35.37" width="155.26" height="90.57"/>
	</defs>
	<clipPath id="SVGID_6_">
		<use xlink:href="#SVGID_5_"  overflow="visible"/>
	</clipPath>
	<path clip-path="url(#SVGID_6_)" fill="#192967" d="M2.041,35.37h41.17v41.17H2.041L2.041,35.37z"/>
</g>
<g>
	<g>
		<defs>
			<rect id="SVGID_7_" x="2.041" y="35.37" width="155.26" height="90.57"/>
		</defs>
		<clipPath id="SVGID_8_">
			<use xlink:href="#SVGID_7_"  overflow="visible"/>
		</clipPath>
		<path clip-path="url(#SVGID_8_)" fill="#FFFFFF" d="M22.623,43.604L18.807,55.35l7.05,2.293L22.623,43.604z"/>
	</g>
	<g>
		<defs>
			<rect id="SVGID_9_" x="2.041" y="35.37" width="155.26" height="90.57"/>
		</defs>
		<clipPath id="SVGID_10_">
			<use xlink:href="#SVGID_9_"  overflow="visible"/>
		</clipPath>
		<path clip-path="url(#SVGID_10_)" fill="#FFFFFF" d="M22.623,43.604l3.816,11.746l-7.05,2.293L22.623,43.604z"/>
	</g>
	<g>
		<defs>
			<rect id="SVGID_11_" x="2.041" y="35.37" width="155.26" height="90.57"/>
		</defs>
		<clipPath id="SVGID_12_">
			<use xlink:href="#SVGID_11_"  overflow="visible"/>
		</clipPath>
		<path clip-path="url(#SVGID_12_)" fill="#FFFFFF" d="M34.37,52.14H22.02v7.41L34.37,52.14z"/>
	</g>
	<g>
		<defs>
			<rect id="SVGID_13_" x="2.041" y="35.37" width="155.26" height="90.57"/>
		</defs>
		<clipPath id="SVGID_14_">
			<use xlink:href="#SVGID_13_"  overflow="visible"/>
		</clipPath>
		<path clip-path="url(#SVGID_14_)" fill="#FFFFFF" d="M34.37,52.14l-9.992,7.26l-4.358-6L34.37,52.14z"/>
	</g>
	<g>
		<defs>
			<rect id="SVGID_15_" x="2.041" y="35.37" width="155.26" height="90.57"/>
		</defs>
		<clipPath id="SVGID_16_">
			<use xlink:href="#SVGID_15_"  overflow="visible"/>
		</clipPath>
		<path clip-path="url(#SVGID_16_)" fill="#FFFFFF" d="M29.882,65.944L26.06,54.2l-7.04,2.29L29.882,65.944z"/>
	</g>
	<g>
		<defs>
			<rect id="SVGID_17_" x="2.041" y="35.37" width="155.26" height="90.57"/>
		</defs>
		<clipPath id="SVGID_18_">
			<use xlink:href="#SVGID_17_"  overflow="visible"/>
		</clipPath>
		<path clip-path="url(#SVGID_18_)" fill="#FFFFFF" d="M29.882,65.944l-9.989-7.257l4.357-5.995L29.882,65.944z"/>
	</g>
	<g>
		<defs>
			<rect id="SVGID_19_" x="2.041" y="35.37" width="155.26" height="90.57"/>
		</defs>
		<clipPath id="SVGID_20_">
			<use xlink:href="#SVGID_19_"  overflow="visible"/>
		</clipPath>
		<path clip-path="url(#SVGID_20_)" fill="#FFFFFF" d="M15.364,65.944l9.989-7.257L21,52.692L15.364,65.944z"/>
	</g>
	<g>
		<defs>
			<rect id="SVGID_21_" x="2.041" y="35.37" width="155.26" height="90.57"/>
		</defs>
		<clipPath id="SVGID_22_">
			<use xlink:href="#SVGID_21_"  overflow="visible"/>
		</clipPath>
		<path clip-path="url(#SVGID_22_)" fill="#FFFFFF" d="M15.364,65.944L19.18,54.2l7.05,2.29L15.364,65.944z"/>
	</g>
	<g>
		<defs>
			<rect id="SVGID_23_" x="2.041" y="35.37" width="155.26" height="90.57"/>
		</defs>
		<clipPath id="SVGID_24_">
			<use xlink:href="#SVGID_23_"  overflow="visible"/>
		</clipPath>
		<path clip-path="url(#SVGID_24_)" fill="#FFFFFF" d="M10.877,52.14l9.994,7.26l4.359-6L10.877,52.14z"/>
	</g>
	<g>
		<defs>
			<rect id="SVGID_25_" x="2.041" y="35.37" width="155.26" height="90.57"/>
		</defs>
		<clipPath id="SVGID_26_">
			<use xlink:href="#SVGID_25_"  overflow="visible"/>
		</clipPath>
		<path clip-path="url(#SVGID_26_)" fill="#FFFFFF" d="M10.877,52.14H23.23v7.41L10.877,52.14z"/>
	</g>
</g>
</svg>
