<svg version="1.0" id="moldova" xmlns="http://www.w3.org/2000/svg" xmlns:xlink="http://www.w3.org/1999/xlink" x="0px" y="0px"
	 viewBox="0 0 160 160" enable-background="new 0 0 160 160" xml:space="preserve">
<g>
	<path id="_x34_" fill="#EFD928" d="M3.279,35.15h153.89v89.77H3.279L3.279,35.15z"/>
</g>
<path fill="#1F00AF" d="M3.279,35.15h51.3v89.77h-51.3L3.279,35.15z"/>
<path fill="#D00524" d="M105.87,35.15h51.3v89.77h-51.3L105.87,35.15z"/>
<g>
	<path d="M75.08,55.24c-0.318,0-0.594,0.081-0.755,0.209c0.256,0.071,0.443,0.311,0.443,0.597v0.729h-0.283h-0.446
		c-0.287,0-0.524-0.184-0.599-0.439c-0.128,0.163-0.207,0.439-0.207,0.755s0.079,0.597,0.207,0.755
		c0.074-0.255,0.31-0.438,0.599-0.438h0.446h0.283v0.28v2.275v0.954c0,0.276-0.174,0.505-0.413,0.587
		c0.348,0.051,0.648,0.515,0.729,0.77c0.083-0.255,0.384-0.719,0.731-0.77c-0.242-0.081-0.418-0.311-0.418-0.587v-1.642v-1.586
		v-0.28h0.282h0.449c0.287,0,0.523,0.184,0.599,0.434c0.125-0.158,0.205-0.434,0.205-0.755c0-0.316-0.079-0.592-0.205-0.755
		c-0.074,0.26-0.313,0.444-0.599,0.444h-0.449h-0.282v-0.731c0-0.286,0.185-0.52,0.44-0.597C75.673,55.321,75.397,55.24,75.08,55.24
		"/>
	<path fill="#F9F92B" d="M75.08,55.4c-0.166,0-0.31,0.031-0.434,0.071c0.163,0.143,0.272,0.347,0.272,0.582v0.729
		c0,0.01-0.003,0.02-0.005,0.031v0.117h-0.115c-0.01,0-0.022,0.005-0.022,0.005h-0.074h-0.217h-0.446
		c-0.233,0-0.437-0.107-0.58-0.27c-0.041,0.127-0.075,0.265-0.075,0.434c0,0.168,0.031,0.311,0.07,0.434
		c0.143-0.163,0.348-0.27,0.586-0.27h0.446h0.097h0.186h0.15c0,0.015-0.005,0.031-0.005,0.046v0.077
		c0.003,0.01,0.005,0.02,0.005,0.031v0.28v2.275v0.954c0,0.23-0.116,0.408-0.272,0.546c0.111,0.072,0.207,0.158,0.288,0.255
		c0.072,0.087,0.101,0.168,0.149,0.26c0.051-0.092,0.079-0.173,0.152-0.26c0.08-0.097,0.173-0.179,0.282-0.25
		c-0.156-0.138-0.271-0.321-0.271-0.551v-1.642v-1.586v-0.041v-0.24v-0.148h0.119c0.011,0,0.02-0.005,0.031-0.005h0.282h0.449
		c0.232,0,0.436,0.107,0.579,0.265c0.041-0.122,0.077-0.265,0.077-0.434c0-0.163-0.033-0.311-0.07-0.434
		c-0.143,0.168-0.349,0.276-0.585,0.276H75.68h-0.282c-0.01,0-0.019-0.005-0.031-0.005h-0.116v-0.119
		c-0.001-0.01-0.003-0.02-0.003-0.031v-0.729c0-0.235,0.105-0.434,0.265-0.576C75.39,55.435,75.247,55.4,75.08,55.4"/>
	<path fill="#7F6332" d="M75.63,68.15l-1.21-0.272l-2.532-1.338l-1.598-0.09l-0.12-3.1l-3.06-2.47l-3.135,3.38l-0.445,0.99
		l0.14,30.74l2.03-2.44l0.42,0.1l2.1-2.26l1.773-4.49l0.527-1.86l2.394,2.83l-0.904,1.68l0.821-0.07l0.073,0.71l0.756-0.32
		l0.204,0.96l1.666-1.69l2.321,1.15l-4.401,7.84l-1.568,1.16l2.828,1.05l2.9-3.37l-0.42,2.22l-0.86,2.15l3.53,2.04l3.83-2.27
		l-1.89-3.95l0.62-0.28l2.48,3.59l2.71-1.34l-3.52-4.11l-2.31-4.95l2.44-0.8l1.66,1.59l0.25-1.04l0.88,0.43l-0.12-0.87l0.89,0.2
		l-1.08-1.71l2.74-2.29l1.72,5.39l2.55,2.92l0.54-0.07l1.85,2.29l-0.02-31.68l-3.41-3.596l-3.33,2.706l0.14,2.91l-1.485,0.06
		l-2.225,1.14l-1.24,0.41l-0.584,0.11l-0.756-0.83l-1.03-2.04l-0.06-2.01l0.63-1.318l-0.12-1.24l0.56,0.01l-0.36-0.841l0.5-0.194
		l-0.75-0.657l0.27-0.307l-2.82-1.213l-2.147-0.14l-0.583,0.256L77,58.17l0.57,1.603l-0.608,0.607l0.598,1.18l0.03,2.58l-0.48,2.17
		l-0.97,1.65L75.63,68.15z"/>
	<g>
		<path fill="#C11B2C" d="M72.38,89.6l-2.13,3.25l-1.03-0.03l-1.06,0.5l-0.344,1.15L67.972,95l1.158,1.25l0.93-0.53l0.755-0.81
			L71,94.19l2.69-3.5l-0.13-0.87l-0.59,0.37l-0.22-0.72L72.38,89.6z"/>
		<path fill="#C11B2C" d="M85.963,90.57l2.847,3.84l0.28,0.75l1.25,1.12l0.37-0.09l1.37-1.59l-0.31-1.1l-1.28-0.78l-0.96,0.1
			l-2.16-3.22l-0.376-0.16l-0.154,0.63l-0.63-0.19L85.963,90.57z"/>
	</g>
	<path d="M78.52,57.22c-0.35,0-0.87,0.01-1.173,0.214c-0.278,0.184-0.256,0.424-0.352,0.505c-0.229,0.199-0.623,0.194-0.811,0.194
		c-1.225,0-1.27,1.311-1.27,1.311s0.314-0.475,0.867-0.475c0.92,0,1.614,0.5,1.614,0.689c0,0.077-0.093,0.092-0.093,0.092
		c-0.607,0-1.514-0.347-1.994-0.362v0.189c0.005,0.005,0.01,0.01,0.019,0.015c-0.007,0-0.013,0-0.019-0.005v0.036
		c1.075,0.378,2.164,0.903,2.164,3.239c0,1.469-0.176,2.969-0.911,4.152c-0.26,0.413-0.633,0.77-1.079,1.086
		c-0.199-0.056-1.132-0.347-1.786-0.714c-1.154-0.643-1.752-1.28-3.122-1.342v-1.046c0-0.556,0.2-1.056,0.2-1.591
		c-0.578-0.153-2.181-2.112-3.662-2.984c-2.174,1.408-3.86,3.724-3.86,4.79c0,0,0.065,22.872,0,30.839
		c0,0.459-0.278,1.107-0.278,1.107c0.794-0.337,2.252-2.331,2.558-3.086v0.362c1.201-0.546,2.079-1.984,2.473-2.729
		c0.008,0.107,0.025,0.377,0.025,0.377c1.071-0.939,2.437-6.498,2.437-6.498l-0.07-1.168c0,0-0.945,4.535-2.02,5.473V70.354
		l0.851,0.791l1.291-1.204v-0.918l-1.144,1.066V67.33c0.172-0.26,0.287-0.459,0.372-0.612c0.186,0.321,0.784,1.311,1.487,1.918
		c0.116-0.469,0.876-0.918,0.876-0.918s0.273,0.74,0.69,0.923c0.147-0.255,1.023-0.832,1.023-0.832s-0.75,0.117-1.053,0.398
		c-0.26-0.056-0.326-1.086-0.326-1.086s-1.102,0.536-1.296,0.923c-0.209-0.056-0.537-0.882-0.664-1.224
		c0.192-0.02,0.464-0.046,0.821-0.046c0.315,0,0.716,0.148,1.139,0.347c0.461,0.219,0.946,0.495,1.38,0.689
		c0.553,0.255,1.391,0.306,1.635,0.316c-0.279,0.194-0.587,0.372-0.921,0.541c0,0,1.32-0.01,2.246-0.474
		c0.332-0.209,0.676-0.423,0.968-0.673c-0.127,0.357-0.325,0.77-0.636,1.127c1.363-0.112,2.04-0.893,2.231-1.153
		c0.091,0.235,0.251,0.607,0.504,0.933c0.254-0.326,0.42-0.699,0.508-0.933c0.194,0.26,0.871,1.04,2.231,1.153
		c-0.308-0.357-0.506-0.77-0.634-1.127c0.292,0.25,0.636,0.464,0.967,0.673c0.927,0.464,2.247,0.474,2.247,0.474
		c-0.334-0.168-0.646-0.347-0.928-0.541c0.237-0.01,1.084-0.061,1.642-0.316c0.434-0.194,0.918-0.469,1.38-0.689
		c0.421-0.199,0.824-0.347,1.139-0.347c0.356,0,0.629,0.026,0.82,0.046c-0.126,0.342-0.454,1.168-0.664,1.224
		c-0.192-0.388-1.294-0.923-1.294-0.923s-0.066,1.031-0.326,1.086c-0.303-0.28-1.053-0.398-1.053-0.398s0.876,0.576,1.023,0.832
		c0.417-0.184,0.685-0.923,0.685-0.923s0.765,0.449,0.881,0.918c0.703-0.607,1.301-1.596,1.485-1.918
		c0.089,0.158,0.209,0.362,0.374,0.612v2.759l-1.144-1.066v0.918l1.288,1.204l0.851-0.791V89.89c-1.074-0.939-2.02-5.473-2.02-5.473
		l-0.07,1.168c0,0,1.366,5.56,2.437,6.498c0,0,0.018-0.27,0.026-0.377c0.394,0.745,1.271,2.183,2.471,2.729v-0.362
		c0.307,0.755,1.765,2.75,2.558,3.086c0,0-0.277-0.648-0.277-1.107c-0.065-7.967,0-30.839,0-30.839c0-1.066-1.686-3.382-3.863-4.79
		c-1.478,0.872-3.082,2.831-3.66,2.984c0,0.535,0.2,1.035,0.2,1.591v1.041c-1.367,0.061-1.969,0.704-3.122,1.347
		c-0.659,0.367-1.603,0.663-1.792,0.714c-0.446-0.311-0.814-0.673-1.074-1.086c-0.627-1.01-0.89-2.244-0.89-3.499
		c0-0.531,0.594-1.127,0.594-1.556c0-0.648-0.061-1.036-0.061-1.036c0.21,0.025,0.579,0.403,0.579,0.403s-0.013-1.076-0.353-1.265
		c0,0,0.139-0.143,0.635-0.158c-0.14-0.352-0.83-0.786-0.83-0.786c0.034-0.061,0.097-0.112,0.18-0.158
		c0.173-0.097,0.418-0.163,0.606-0.199c-0.2-0.041-0.428-0.102-0.681-0.184c-0.575-0.189-1.251-0.464-1.882-0.765
		c-1.16-0.556-2.04-0.591-2.523-0.591 M78.541,57.536c0.107,0.005,0.207,0.005,0.293,0.005c1.127,0,1.919,0.515,2.987,0.99
		c0.278,0.122,0.534,0.224,0.764,0.301c-0.143,0.127-0.255,0.255-0.285,0.362c0,0,0.477,0.087,0.694,0.49
		c0,0-0.455,0.051-0.529,0.316c0.255,0.02,0.507,0.342,0.51,0.648l-0.645-0.199c0,0,0.157,0.724,0.157,1.51
		c0,0.403-0.58,0.877-0.58,1.556c0,2.137,0.539,2.958,0.922,3.622c0.15,0.26,0.27,0.556,0.524,0.78
		c-1.104-0.587-1.924-1.321-1.924-2v-2.581h-0.287v2.581c0,0.495,0.121,0.724,0.121,0.724c0.173,0.551,0.524,1.393,0.741,1.734
		c-1.016-0.551-1.53-1.234-1.53-1.489v-3.55h-0.288v3.601l0.055,0.245c-0.124,0.184-0.282,0.403-0.393,0.479
		c-0.11-0.077-0.265-0.296-0.388-0.479l0.056-0.245v-3.601h-0.288v3.55c0,0.255-0.514,0.939-1.53,1.489
		c0.217-0.342,0.568-1.183,0.741-1.734c0,0,0.12-0.23,0.12-0.724v-2.581h-0.286v2.581c0,0.684-0.819,1.418-1.919,2
		c0.25-0.224,0.368-0.52,0.519-0.78c0.417-0.724,0.936-1.642,0.936-4.254c0-0.979-0.144-1.648-0.398-2.117
		c-0.078-0.153-0.18-0.561,0.408-0.561c0.303,0,1,0.536,1,0.536s-0.027-0.429-0.381-0.673c-0.059-0.041-0.157-0.168-0.157-0.286
		c0-0.092,0.153-0.311,0.273-0.362c0.082-0.041-1.2-0.26-1.2-0.842c0-0.122,0.077-0.204,0.343-0.204c0.349,0,0.917,0.418,1.42,0.418
		c0.372,0,0.52-0.092,0.902-0.092c0.466,0,1.44,0.888,1.772,0.852c-0.372-0.235-0.974-1.117-1.882-1.117
		c-0.316,0-0.604,0.071-0.899,0.071c-0.377,0-0.75-0.347-1.158-0.347c-0.273,0-0.577,0.015-0.622-0.056
		c-0.08-0.122-0.01-0.199,0.064-0.296c0.138-0.194,0.528-0.25,0.912-0.265c0.112-0.001,0.228-0.006,0.334-0.006 M67.108,61.418
		v0.005c0,0,2.024,1.852,2.705,2.086l0.026,0.627v1.836c-0.494-0.168-1.113-0.979-1.414-1.408v-0.255c0-0.235,0.139-0.408,0.242-0.5
		l-0.298-0.107c-0.112,0.128-0.235,0.321-0.235,0.566v0.148l-0.096,0.102l-0.051,0.051l-0.741,0.801l-0.871-1.321v-0.321
		c0-0.219,0.166-0.459,0.307-0.627l-0.293-0.102c-0.148,0.189-0.301,0.444-0.301,0.689v0.26c-0.207,0.214-1,1.03-1,1.03
		s-0.401-0.857-0.51-1.092c0.61-0.846,1.599-1.79,2.532-2.468 M92.587,61.418c0.931,0.673,1.921,1.627,2.533,2.469
		c-0.108,0.235-0.508,1.092-0.508,1.092s-0.798-0.816-1-1.03v-0.26c0-0.245-0.155-0.5-0.302-0.689l-0.292,0.102
		c0.14,0.168,0.307,0.408,0.307,0.627v0.321l-0.871,1.321l-0.741-0.801l-0.051-0.051l-0.096-0.102v-0.148
		c0-0.245-0.122-0.438-0.236-0.566l-0.297,0.107c0.103,0.092,0.242,0.265,0.242,0.5v0.255c-0.301,0.429-0.921,1.239-1.417,1.408
		v-1.836l0.026-0.627c0.681-0.235,2.705-2.086,2.705-2.086v-0.006L92.587,61.418z M64.227,64.453l0.463,0.842v1.515l-0.705,0.653
		v-2.249C63.984,64.998,64.075,64.738,64.227,64.453 M95.477,64.453c0.153,0.286,0.242,0.546,0.242,0.76v2.249l-0.705-0.653v-1.515
		C95.014,65.294,95.477,64.453,95.477,64.453z M66.077,64.647l0.811,1.229v0.938l-0.811,0.76V64.647 M93.628,64.647v2.928
		l-0.809-0.76v-0.938L93.628,64.647 M65.791,64.866v2.704l-0.811-0.755v-1.097L65.791,64.866 M93.921,64.866l0.811,0.852v1.097
		l-0.811,0.755V64.866 M68.283,65.06c0.122,0.204,0.682,1.112,1.214,1.372c-0.189,0.265-0.681,0.913-1.214,1.204V65.06
		 M91.433,65.06v2.576c-0.532-0.291-1.024-0.939-1.214-1.204C90.752,66.171,91.312,65.264,91.433,65.06 M67.997,65.192v2.377
		l-0.811-0.755v-0.841L67.997,65.192z M91.72,65.192l0.811,0.781v0.841l-0.811,0.755V65.192 M64.7,67.722v2.377l-0.705-0.663v-1.051
		L64.7,67.722 M95.02,67.722l0.705,0.663v1.051l-0.705,0.663V67.722 M64.99,67.732l0.463,0.434l0.347,0.321v0.847l-0.347,0.326
		l-0.463,0.428V67.732 M66.898,67.732v2.356l-0.461-0.428l-0.349-0.332v-0.836l0.349-0.326L66.898,67.732 M67.191,67.732L68,68.492
		v0.836l-0.352,0.337l-0.457,0.423V67.732 M69.099,67.732v2.367l-0.463-0.434l-0.348-0.331v-0.786
		C68.567,68.375,68.849,68.064,69.099,67.732 M90.627,67.732c0.251,0.332,0.533,0.643,0.811,0.816v0.786l-0.347,0.331l-0.464,0.434
		C90.627,70.099,90.627,67.732,90.627,67.732z M92.536,67.732v2.356l-0.459-0.423l-0.352-0.337v-0.836L92.536,67.732 M92.829,67.732
		l0.462,0.434l0.347,0.326v0.836l-0.347,0.332l-0.462,0.428V67.732 M94.737,67.732v2.356l-0.464-0.428l-0.347-0.326v-0.847
		l0.347-0.321L94.737,67.732 M66.188,70.344l0.857,0.801l0.857-0.796V89.89c0,0,0.059,0.964,0.101,1.596
		c-0.381,0.388-1.815,1.836-1.815,1.836V70.344 M93.537,70.344v22.979c0,0-1.431-1.449-1.812-1.836
		c0.042-0.633,0.101-1.596,0.101-1.596V70.349l0.857,0.796L93.537,70.344 M65.7,70.349v22.244c0,0.628-1.148,2.091-1.702,2.428
		V70.354l0.845,0.791L65.7,70.349 M94.026,70.349l0.855,0.796l0.848-0.791v24.667c-0.555-0.337-1.703-1.8-1.703-2.428V70.349
		 M72.755,87.825c0,0-0.821,1.668-1.143,1.969c0,0,0.214,0.025,0.458,0.025c-0.149,0.214-1.293,1.862-1.651,2.479
		c-0.335,0.581-0.573,0.326-1.089,0.326c-0.426,0-1.396,0.678-1.556,0.954c-0.167,0.291-0.292,0.643-0.292,0.933
		c0,0.316,0.338,0.755,0.338,0.755c0.036-0.153,0.101-0.209,0.101-0.209s0.888,1.107,1.018,1.25
		c0.101,0.112,0.555,0.189,0.715,0.041c0.399-0.362,0.787-0.617,1.141-1.143c0.185-0.27,0.199-0.581,0.408-0.872
		c0.705-0.969,2.107-2.831,2.428-3.259c0.022,0.122,0.041,0.219,0.06,0.342c0.364-0.735,2.11-2.137,2.11-2.137l-0.482-0.316
		c0,0-1.056,1.224-1.395,1.454c0,0-0.148-0.607-0.233-0.826c0,0-0.403,0.306-0.624,0.311c0,0-0.066-0.413-0.117-0.683
		c-0.275,0.184-0.738,0.148-0.738,0.148c0.404-0.194,0.885-1.372,0.885-1.372L72.755,87.825 M86.972,87.825l-0.344,0.168
		c0,0,0.481,1.178,0.888,1.372c0,0-0.463,0.036-0.741-0.148c-0.05,0.27-0.115,0.683-0.115,0.683
		c-0.22-0.005-0.626-0.311-0.626-0.311c-0.084,0.219-0.231,0.826-0.231,0.826c-0.342-0.229-1.395-1.454-1.395-1.454l-0.483,0.316
		c0,0,1.747,1.403,2.109,2.137c0.022-0.122,0.041-0.219,0.062-0.342c0.319,0.429,1.722,2.29,2.425,3.259
		c0.212,0.291,0.225,0.602,0.408,0.872c0.356,0.525,0.743,0.781,1.144,1.143c0.159,0.148,0.612,0.072,0.715-0.041
		c0.13-0.143,1.015-1.25,1.015-1.25s0.065,0.056,0.102,0.209c0,0,0.338-0.439,0.338-0.755c0-0.291-0.125-0.643-0.293-0.933
		c-0.159-0.276-1.127-0.954-1.556-0.954c-0.514,0-0.751,0.255-1.088-0.326c-0.358-0.617-1.501-2.265-1.65-2.479
		c0.243,0,0.456-0.025,0.456-0.025C87.793,89.492,86.972,87.825,86.972,87.825 M72.64,89.707c0,0-0.008,0.566,0.171,0.765
		l0.624-0.428c0,0,0.042,0.204,0.096,0.49c-0.268,0.367-1.803,2.459-2.563,3.484c-0.189,0.255-0.347,0.903-0.347,0.903
		s-0.277-0.133-0.277-0.367c0-0.235,0.029-0.51,0.029-0.51s-0.207,0.233-0.564,0.233c0-0.286,0.552-0.592,0.574-1
		c-0.421,0.311-0.788,0.153-1.274,0.301c-0.53,0.163-0.678,0.388-0.841,0.377c-0.096-0.005-0.183-0.168-0.147-0.27
		c0.065-0.179,0.722-0.663,1.181-0.75c0.11-0.02,0.973,0.189,1.146-0.082c0.718-1.107,1.882-2.902,1.994-3.076
		C72.516,89.758,72.585,89.742,72.64,89.707 M87.087,89.707c0.055,0.036,0.121,0.051,0.195,0.071
		c0.115,0.173,1.278,1.969,1.994,3.076c0.176,0.271,1.039,0.061,1.149,0.082c0.459,0.087,1.116,0.571,1.178,0.75
		c0.037,0.102-0.051,0.265-0.147,0.27c-0.162,0.01-0.31-0.214-0.839-0.377c-0.489-0.148-0.853,0.01-1.277-0.301
		c0.024,0.408,0.575,0.714,0.575,1c-0.358,0-0.564-0.235-0.564-0.235s0.031,0.276,0.031,0.51c0,0.235-0.277,0.367-0.277,0.367
		s-0.158-0.648-0.348-0.903c-0.761-1.025-2.297-3.117-2.564-3.484c0.055-0.286,0.097-0.49,0.097-0.49l0.625,0.428
		C87.094,90.273,87.087,89.707,87.087,89.707 M77.63,90.12c0,0-3.414,7.84-6.441,9.05c0,0,1.317,0.561,2.935,1.403
		c0.237,0.122,0.479,0.255,0.724,0.388c0.204-0.245,0.419-0.52,0.631-0.806c0.967-1.291,1.913-2.79,1.913-2.79
		c0.068,0.388-0.444,1.592-1.31,3.076c-0.169,0.291-0.347,0.597-0.543,0.908c0.219,0.122,0.436,0.25,0.656,0.383
		c1.602,0.964,3.108,2.071,3.665,3.091c0.559-1.02,2.063-2.127,3.666-3.091c0.218-0.133,0.435-0.26,0.654-0.383
		c-0.195-0.311-0.374-0.617-0.545-0.908c-0.863-1.484-1.374-2.688-1.307-3.076c0,0,0.945,1.5,1.913,2.79
		c0.212,0.285,0.424,0.561,0.629,0.806c0.246-0.133,0.49-0.265,0.726-0.388c1.619-0.841,2.937-1.403,2.937-1.403
		c-3.03-1.209-6.442-9.05-6.442-9.05l-0.502,0.148c0,0,2.72,6.774,5.384,8.824c-0.606,0.184-1.316,0.444-2.045,0.755
		c-0.889-1.041-1.807-2.443-2.553-3.688c-0.806-1.352-1.465-3.713-1.465-3.713c-0.374,0.908,0.421,5.468,2.029,8.35
		c-1.33,0.694-2.511,1.438-3.077,2.056c-0.565-0.617-1.748-1.362-3.076-2.056c1.605-2.882,2.402-7.442,2.029-8.35
		c0,0-0.659,2.362-1.465,3.713c-0.746,1.244-1.667,2.647-2.553,3.688c-0.732-0.311-1.44-0.571-2.045-0.755
		c2.661-2.05,5.384-8.824,5.384-8.824S77.63,90.12,77.63,90.12z M68.715,93.884c0.024,0.005,0.05,0.015,0.068,0.041
		c0.034,0.036,0.031,0.097-0.005,0.127l-0.282,0.245c-0.038,0.036-0.096,0.025-0.133-0.015c-0.034-0.036-0.031-0.097,0.005-0.127
		l0.282-0.25C68.669,93.889,68.692,93.884,68.715,93.884 M91.01,93.884c0.023,0,0.047,0.005,0.066,0.02l0.282,0.25
		c0.037,0.031,0.041,0.092,0.004,0.127c-0.034,0.041-0.093,0.051-0.13,0.015l-0.282-0.245c-0.037-0.031-0.039-0.092-0.005-0.127
		C90.962,93.899,90.987,93.889,91.01,93.884 M69.014,94.134c0.069-0.005,0.143,0.025,0.195,0.087
		c0.085,0.097,0.08,0.235-0.009,0.311l-0.685,0.597c-0.091,0.077-0.233,0.066-0.318-0.036c-0.085-0.097-0.079-0.24,0.01-0.316
		l0.685-0.592C68.925,94.155,68.97,94.134,69.014,94.134 M90.657,94.134c0.018-0.005,0.038,0,0.056,0
		c0.041,0,0.087,0.02,0.121,0.051l0.685,0.592c0.088,0.077,0.093,0.219,0.009,0.316c-0.084,0.102-0.228,0.112-0.319,0.036
		l-0.685-0.597c-0.088-0.077-0.093-0.214-0.009-0.311C90.555,94.17,90.605,94.144,90.657,94.134 M69.4,94.598
		c0.072-0.005,0.151,0.026,0.203,0.082c0.085,0.097,0.079,0.235-0.01,0.316l-0.691,0.597c-0.088,0.077-0.227,0.061-0.31-0.036
		c-0.085-0.097-0.08-0.24,0.009-0.316l0.685-0.592C69.32,94.619,69.359,94.598,69.4,94.598 M90.269,94.598
		c0.02-0.005,0.038-0.005,0.056,0c0.042,0,0.083,0.02,0.116,0.051l0.686,0.592c0.087,0.077,0.094,0.219,0.009,0.316
		c-0.084,0.097-0.223,0.112-0.312,0.036l-0.69-0.597c-0.088-0.082-0.094-0.219-0.009-0.316
		C90.163,94.634,90.216,94.604,90.269,94.598 M69.84,95.052c0.07-0.01,0.143,0.015,0.196,0.077c0.083,0.097,0.078,0.24-0.01,0.316
		l-0.685,0.597c-0.089,0.077-0.228,0.061-0.312-0.036c-0.086-0.097-0.084-0.235,0.005-0.311l0.69-0.602
		C69.757,95.068,69.798,95.052,69.84,95.052 M89.831,95.052c0.019-0.005,0.038-0.005,0.056,0c0.042,0,0.081,0.015,0.116,0.041
		l0.69,0.602c0.089,0.077,0.089,0.214,0.004,0.311c-0.083,0.097-0.222,0.112-0.311,0.036L89.7,95.445
		c-0.089-0.077-0.094-0.219-0.009-0.316C89.73,95.083,89.779,95.057,89.831,95.052"/>
	<path d="M70.52,95.42l1.59,0.86l-0.39,1.78l-1.59-0.87L70.52,95.42z"/>
	<path d="M63.1,78.41l-0.575,0.26l6.487,14.206H69.7L63.1,78.41 M70.748,95.162l-0.468,0.484l0.293,0.648l0.569-0.265L70.748,95.162
		"/>
	<path fill="#F9F92B" d="M70.75,95.92l0.98,0.54l-0.24,1.1l-0.99-0.54L70.75,95.92z"/>
	<path d="M65.11,89.61c0,0,0.547,1.132,0.963,1.285c-0.214-0.061-0.912,0.194-0.912,0.194s1.228,1.102,2.272,1.173
		c0.884,0.061,1.314-0.377,1.314-0.377l-0.177-0.939c0,0-0.542-0.653-1.407-0.959C66.288,89.686,65.11,89.61,65.11,89.61"/>
	<path d="M69.23,87.59c0,0-0.752,0.648-0.959,1.393c-0.208,0.75,0.134,1.601,0.134,1.601l0.634,1.184c0,0,0.879-0.469,1.252-1.168
		s0.237-1.642,0.237-1.642s-0.696,0.26-0.784,0.372C69.89,88.554,69.23,87.59,69.23,87.59"/>
	<path d="M66.809,87.29c0,0-0.858,0.291-1.694,0.24c-0.793-0.051-1.452-0.714-1.452-0.714s0.658-0.444,0.983-0.388
		c-0.359-0.133-0.876-1.025-0.876-1.025s0.737-0.219,1.389,0.025c0.652,0.245,1.222,0.959,1.222,0.959L66.809,87.29"/>
	<path d="M67.1,83.1c0,0,0.428,0.882,0.328,1.194c0.134-0.204,0.637-0.525,0.637-0.525s0.303,1.438,0.013,2.326
		c-0.291,0.887-1.178,1.229-1.178,1.229l-0.979-1.903c0,0-0.144-0.704,0.161-1.265C66.387,83.6,67.1,83.1,67.1,83.1"/>
	<path d="M61.52,80.74c0,0,0.928-0.097,1.776,0.255c0.71,0.296,0.927,0.832,0.927,0.832l0.35,0.933c0,0-1.01,0.383-1.807,0.092
		c-0.798-0.291-1.383-1.25-1.383-1.25s0.556-0.209,0.769-0.132C61.841,81.336,61.52,80.74,61.52,80.74"/>
	<path d="M64.44,79c0,0,0.407,0.525,0.419,1.127c0.108-0.321,0.616-0.673,0.616-0.673s0.523,1.265,0.408,2.163
		c-0.113,0.898-0.864,1.428-0.864,1.428l-0.939-1.78c0,0-0.306-0.729-0.217-1.296C63.955,79.403,64.44,79,64.44,79"/>
	<path d="M61.23,75.6c0,0-0.17,0.969,0.117,1.53c0.255,0.495,0.417,0.607,0.417,0.607c-0.487-0.321-1.223-0.352-1.223-0.352
		s0.261,1.056,0.889,1.535c0.628,0.485,1.592,0.372,1.592,0.372s0.636-0.847,0.593-1.76c-0.046-0.913-0.768-1.887-0.768-1.887
		s-0.288,0.592-0.311,1.035C62.349,76.222,61.23,75.6,61.23,75.6"/>
	<g>
		<path fill="#285F37" d="M61.51,76.19c0,0-0.026,0.709,0.21,1.107c0.235,0.403,0.756,0.566,0.756,0.566s0.026-0.709-0.209-1.112
			C62.034,76.348,61.51,76.19,61.51,76.19"/>
		<path fill="#285F37" d="M61.02,77.79c0,0,0.615,0.036,0.97,0.306c0.356,0.275,0.493,0.841,0.493,0.841s-0.408,0.041-0.763-0.23
			C61.366,78.433,61.02,77.79,61.02,77.79"/>
		<path fill="#285F37" d="M62.951,76.36c0,0-0.207,0.475-0.182,0.979c0.026,0.505,0.319,1.071,0.319,1.071s0.266-0.607,0.245-1.112
			C63.307,76.794,63.021,76.508,62.951,76.36"/>
		<path fill="#285F37" d="M61.915,80.921c0,0,0.301,0.423,0.768,0.653c0.464,0.23,1.158,0.24,1.158,0.24s-0.347-0.449-0.811-0.678
			C62.562,80.906,61.915,80.921,61.915,80.921"/>
		<path fill="#285F37" d="M62.06,81.906c0,0,0.222,0.434,0.629,0.622c0.407,0.184,1.238,0.168,1.238,0.168s-0.32-0.403-0.727-0.592
			C62.795,81.921,62.06,81.906,62.06,81.906"/>
		<path fill="#285F37" d="M64.4,79.58c0,0-0.246,0.403-0.222,0.852c0.023,0.449,0.318,0.939,0.318,0.939s0.205-0.561,0.182-1.01
			C64.652,79.916,64.4,79.58,64.4,79.58"/>
		<path fill="#285F37" d="M65.31,80.16c0,0-0.418,0.566-0.481,1.143c-0.059,0.581,0.238,1.178,0.238,1.178s0.507-0.51,0.57-1.091
			C65.697,80.813,65.31,80.16,65.31,80.16"/>
		<path fill="#285F37" d="M64.15,85.51c0,0,0.051,0.204,0.226,0.429c0.176,0.219,0.476,0.454,0.476,0.454s0.291-0.092,0.65-0.015
			c0.361,0.077,0.84,0.398,0.84,0.398s-0.515-0.77-1.052-1.066C64.754,85.408,64.15,85.51,64.15,85.51"/>
		<path fill="#285F37" d="M64.09,86.83c0,0,0.668-0.286,1.219-0.209c0.551,0.072,1.046,0.505,1.046,0.505s-0.745,0.26-1.293,0.184
			C64.511,87.238,64.09,86.83,64.09,86.83"/>
		<path fill="#285F37" d="M66.92,83.73c0,0-0.59,0.628-0.639,1.168c-0.051,0.546,0.478,1.051,0.478,1.051s-0.027-0.347,0.065-0.576
			c0.091-0.23,0.284-0.475,0.284-0.475s0.083-0.28,0.05-0.505C67.115,84.077,66.92,83.73,66.92,83.73"/>
		<path fill="#285F37" d="M67.768,84.45c0,0-0.557,0.566-0.703,1.168c-0.149,0.602,0.114,1.244,0.114,1.244s0.507-0.398,0.654-1
			C67.98,85.256,67.768,84.45,67.768,84.45"/>
		<path fill="#285F37" d="M69.16,88.09c0,0,0.251,0.53,0.314,0.969c0.065,0.438,0.007,0.592,0.007,0.592s-0.263,0.255-0.377,0.408
			c-0.151,0.194-0.173,0.551-0.173,0.551s-0.523-0.78-0.444-1.352C68.567,88.691,69.16,88.09,69.16,88.09"/>
		<path fill="#285F37" d="M70.27,89.31c0,0-0.669,0.444-0.936,0.898c-0.266,0.454-0.127,0.923-0.127,0.923s0.478-0.046,0.743-0.5
			C70.216,90.177,70.27,89.31,70.27,89.31"/>
		<path fill="#285F37" d="M65.86,91.18c0,0,0.967-0.026,1.557,0.122c0.59,0.143,0.806,0.459,0.806,0.459s-0.663,0.311-1.256,0.163
			C66.377,91.782,65.86,91.18,65.86,91.18"/>
		<path fill="#285F37" d="M65.7,90.03c0,0,0.436,0.678,1,0.923c0.777,0.337,1.676,0.173,1.676,0.173s-0.487-0.597-1.159-0.862
			C66.541,89.999,65.7,90.03,65.7,90.03"/>
	</g>
	<path d="M68.799,91.84l0.025,0.347c0.578,0.005,0.664-0.051,0.812,0.127c0.098,0.122,0.333,0.23,0.569,0.122
		c0.237-0.107,0.342-0.393,0.233-0.627c-0.106-0.235-0.325-0.291-0.538-0.245c-0.129,0.026-0.213,0.127-0.325,0.184
		C69.368,91.855,68.799,91.84,68.799,91.84"/>
	<path fill="#F9F92B" d="M70.24,91.9l0.003,0.005c0.057,0.127,0.001,0.28-0.129,0.337c-0.129,0.061-0.281,0.005-0.339-0.122
		c0-0.005,0-0.005,0-0.005c-0.059-0.127-0.003-0.28,0.126-0.337C70.031,91.716,70.183,91.772,70.24,91.9"/>
	<path d="M68.75,91.57l0.282,0.209c-0.302,0.495-0.395,0.536-0.32,0.76c0.051,0.148,0.017,0.398-0.2,0.541
		c-0.217,0.148-0.512,0.087-0.655-0.133c-0.143-0.214-0.07-0.429,0.078-0.582c0.09-0.102,0.222-0.117,0.329-0.178
		C68.465,92.064,68.75,91.57,68.75,91.57"/>
	<path fill="#F9F92B" d="M68.03,92.83c0,0,0,0,0,0.005c0.078,0.118,0.237,0.148,0.357,0.072c0.118-0.082,0.149-0.24,0.072-0.357
		h-0.001c-0.078-0.118-0.237-0.153-0.355-0.077C67.985,92.555,67.954,92.713,68.03,92.83"/>
	<path d="M66.792,87.44l0.026,0.347c0.578,0.005,0.663-0.056,0.811,0.127c0.1,0.122,0.334,0.23,0.57,0.122
		c0.236-0.107,0.342-0.393,0.233-0.627c-0.106-0.24-0.326-0.291-0.538-0.25c-0.13,0.025-0.215,0.132-0.325,0.189
		C67.359,87.455,66.792,87.44,66.792,87.44"/>
	<path fill="#F9F92B" d="M68.24,87.5c0.06,0.132,0.002,0.285-0.126,0.342c-0.129,0.061-0.28,0-0.339-0.127
		c-0.06-0.127-0.002-0.28,0.126-0.337C68.028,87.316,68.182,87.372,68.24,87.5"/>
	<path d="M66.909,87.57l0.246,0.245c-0.376,0.439-0.476,0.469-0.434,0.699c0.024,0.153-0.047,0.403-0.284,0.51s-0.52,0-0.627-0.235
		c-0.109-0.235-0.003-0.434,0.167-0.566c0.105-0.082,0.238-0.082,0.353-0.122C66.55,88.009,66.909,87.57,66.909,87.57"/>
	<path fill="#F9F92B" d="M66.01,88.7c0.057,0.128,0.209,0.184,0.339,0.128c0.129-0.061,0.185-0.214,0.126-0.342h-0.001
		c-0.057-0.127-0.209-0.184-0.339-0.127c-0.129,0.061-0.185,0.214-0.127,0.337C66.01,88.7,66.01,88.7,66.01,88.7"/>
	<path d="M64.846,83.32l0.026,0.352c0.578,0.005,0.664-0.051,0.812,0.127c0.098,0.122,0.333,0.23,0.57,0.122
		c0.236-0.112,0.34-0.393,0.232-0.627c-0.106-0.24-0.326-0.286-0.538-0.25c-0.13,0.031-0.214,0.133-0.325,0.189
		C65.414,83.34,64.846,83.32,64.846,83.32"/>
	<path fill="#F9F92B" d="M66.29,83.39c0.06,0.128,0.004,0.276-0.126,0.337c-0.127,0.061-0.279,0-0.339-0.127
		c-0.059-0.127-0.003-0.28,0.126-0.342c0.13-0.056,0.282,0,0.339,0.127V83.39"/>
	<path d="M65,83.25l0.245,0.25c-0.374,0.439-0.473,0.464-0.434,0.699c0.029,0.153-0.047,0.398-0.282,0.505
		c-0.236,0.112-0.52,0.005-0.626-0.235c-0.108-0.235-0.004-0.434,0.166-0.566c0.104-0.081,0.238-0.077,0.354-0.122
		C64.642,83.694,65,83.25,65,83.25"/>
	<path fill="#F9F92B" d="M64.1,84.38L64.1,84.38c0.058,0.133,0.21,0.189,0.34,0.127c0.129-0.056,0.185-0.209,0.127-0.337h-0.002
		c-0.057-0.133-0.209-0.189-0.338-0.133C64.097,84.1,64.041,84.253,64.1,84.38"/>
	<path d="M62.771,78.983l0.028,0.347c0.578,0.005,0.663-0.056,0.811,0.127c0.1,0.122,0.334,0.23,0.571,0.122
		c0.235-0.112,0.341-0.393,0.232-0.628c-0.108-0.24-0.326-0.291-0.538-0.25c-0.13,0.026-0.214,0.133-0.325,0.189
		C63.341,78.998,62.771,78.983,62.771,78.983"/>
	<path fill="#F9F92B" d="M64.22,79.04v0.005c0.06,0.127,0.003,0.28-0.126,0.337c-0.127,0.061-0.279,0-0.339-0.127
		c-0.06-0.128-0.003-0.281,0.126-0.337C64.009,78.856,64.161,78.912,64.22,79.04"/>
	<path d="M62.933,78.906l0.245,0.25c-0.373,0.439-0.473,0.464-0.434,0.699c0.027,0.153-0.047,0.398-0.282,0.505
		c-0.236,0.112-0.52,0.005-0.626-0.23c-0.108-0.24-0.004-0.439,0.166-0.571c0.105-0.081,0.239-0.077,0.355-0.122
		C62.575,79.35,62.933,78.906,62.933,78.906"/>
	<g>
		<path fill="#F9F92B" d="M62.03,80.04c0.058,0.128,0.21,0.189,0.339,0.128c0.13-0.056,0.186-0.209,0.126-0.342
			c-0.057-0.127-0.209-0.184-0.339-0.122C62.027,79.76,61.971,79.913,62.03,80.04"/>
		<path fill="#F9F92B" d="M66.42,86.41c-0.207,0.087-0.514-0.811-0.74-1.306c-0.231-0.51-0.703-1.29-0.569-1.352
			c0.147-0.066,0.339,0.342,0.576,0.862C65.927,85.134,66.616,86.333,66.42,86.41"/>
		<path fill="#F9F92B" d="M64.3,81.66c-0.208,0.087-0.434-0.505-0.659-1c-0.231-0.505-0.457-0.862-0.323-0.923
			c0.145-0.066,0.362,0.377,0.552,0.791C64.052,80.93,64.493,81.578,64.3,81.66"/>
		<path fill="#F9F92B" d="M69.22,92.43c-0.163,0.041-0.872-1.443-1.447-2.703c-0.574-1.255-1-2.27-0.867-2.331
			c0.147-0.066,0.611,1.117,1.185,2.377C68.663,91.028,69.341,92.395,69.22,92.43"/>
	</g>
	<path fill="#2E59A0" d="M70.47,78.2l0.03,7.65l0.56,0.91l3.57,1.96l4.56,2.1l0.59,0.62l3.93-2.15l4.63-2.19l0.87-1.34v-7.53
		L70.47,78.2z"/>
	<path fill="#C11B2C" d="M70.25,68.985l0.237,0.694l-0.055,8.784l0.328,0.367l2.705,0.321l2.924-0.429c0,0,1.7,0.26,2.87,0.444
		c0,0.005,0.034,0.173,0.034,0.173s0.427-0.066,0.561-0.082c0.131,0.015,0.552,0.082,0.552,0.082s0.034-0.168,0.036-0.173
		c1.172-0.184,2.872-0.444,2.872-0.444l2.924,0.429l2.705-0.321l0.328-0.367l-0.056-8.784l0.239-0.694l-3.239,0.026
		c0,0-3.701,0.036-6.359,0.066c-2.66-0.031-6.366-0.066-6.366-0.066L70.25,68.985"/>
	<g>
		<path fill="#F9F92B" d="M71.19,78.78l1.46-0.57l1.02-0.8l0.7,0.75l1.41,0.58l-1.14,0.66l-1.02,0.88l-0.88-0.66L71.19,78.78z"/>
		<path fill="#F9F92B" d="M86.03,77.45l-0.66,0.71l-1.414,0.58l1.324,0.83l0.84,0.76l0.93-0.76l1.5-0.74l-1.54-0.62L86.03,77.45z"/>
		<path fill="#F9F92B" d="M79.85,70.21l-0.44,1.33l-1.28-0.622L78.7,72.2l-1.24,0.48l1.24,0.45l-0.53,1.28l1.19-0.62l0.49,1.33
			l0.49-1.33l1.19,0.53l-0.532-1.19l1.232-0.45l-1.19-0.52l0.53-1.287l-1.23,0.617L79.85,70.21z"/>
		<path fill="#F9F92B" d="M83.25,69.99l0.4,1.41l0.62,1.81l0.09,1.728l-0.71,1.232l-1.28,0.53l-0.71,0.227l-0.84-0.447l-0.927,0.58
			l-1.015-0.62l-0.838,0.57l-0.53-0.35l-0.93-0.13l-1.06-1.11l-0.22-1.99l1.28-3.527l-1.59,1.277l-1.37,1.85v2.44l0.97,1.63
			l1.77,1.15l0.486,0.13L76,79.926l1.46,0.444l0.76,0.75l0.39,1.51l-0.08,3.22l-0.45,0.75l-0.97,0.66l-0.04,0.62l1.06,0.66
			l0.92,0.75l1.37,0.05l1.2-0.84l1.01-0.58l-0.26-0.88l-1.06-0.84l-0.22-2.56l0.3-2.56l1.551-0.97l0.799-0.27l-0.84-1.59l1.28-0.44
			l1.41-1.24l0.66-2.47l-0.39-1.5l-0.97-1.24L83.25,69.99z"/>
		<path fill="#F9F92B" d="M77.2,81.05l0.62,0.62l-0.58,0.58l-0.59-0.6L77.2,81.05z"/>
		<path fill="#F9F92B" d="M82.52,80.987l-0.615,0.643l0.545,0.6l0.67-0.58L82.52,80.987z"/>
		<path fill="#F9F92B" d="M82.963,82.63l-1.103,0.26l-0.29,0.64l-0.02,1.77l0.46,0.99l0.62,0.26l-0.09-2.31L82.963,82.63z"/>
		<path fill="#F9F92B" d="M76.76,82.64l0.39,1.97v1.9l0.56-0.4l0.37-0.86l0.07-1.5l-0.287-0.91L76.76,82.64z"/>
		<path fill="#F9F92B" d="M86.89,84.21l-1.28-0.62l-1.23,0.27l-0.64,0.75l-0.07,1.21l0.91,1.07l0.22,0.06l-0.02-1.15l0.97-1.32
			L86.89,84.21z"/>
		<path fill="#F9F92B" d="M74.7,83.79l-0.13-0.53l-0.684-0.4l-0.576,0.23l-0.29,0.6l0.16,0.52l-0.6-0.06l-0.48,0.46l-0.07,0.62
			l0.33,0.39l0.466,0.16l0.264-0.02l-0.219,0.55l0.179,0.55l0.55,0.31l0.62-0.15l0.33-0.62l0.53,0.35l0.64-0.13l0.42-0.639
			l-0.288-0.601l-0.312-0.24l0.444-0.24l0.176-0.73l-0.6-0.68l-0.57,0.08L74.7,83.79z"/>
	</g>
	<path d="M76.63,69.48c-0.092,0.648-3.35,1.994-3.35,4.703c0,3.473,3.249,4.295,3.249,4.295l-0.137,0.245l-0.791,1.438
		c0,0,1.341,0.066,2.056,0.673c0.858,0.735,0.775,2.285,0.775,3.413c0,0.893-0.112,1.831-0.569,2.219
		c-0.613,0.52-1.029,0.561-1.029,1.168c0,0.51,0.393,0.612,1.029,0.949c0.814,0.429,0.777,1,1.988,1c1.213,0,1.178-0.576,1.994-1
		c0.636-0.337,1.027-0.438,1.027-0.949c0-0.607-0.413-0.648-1.027-1.168c-0.457-0.388-0.569-1.326-0.569-2.219
		c0-1.127-0.084-2.678,0.775-3.413c0.714-0.607,2.056-0.673,2.056-0.673l-0.791-1.438l-0.137-0.245c0,0,3.247-0.821,3.247-4.295
		c0-2.709-3.256-4.055-3.348-4.703c-0.32,1.122,1.088,2.668,1.088,4.499c0,2.367-1.747,2.479-1.747,2.479
		c-0.411,0-0.575,0.296-0.736,0.296c-0.344-0.036-0.505-0.474-0.847-0.474c-0.317,0-0.564,0.495-0.987,0.495
		c-0.422,0-0.663-0.495-0.982-0.495c-0.34,0-0.501,0.439-0.845,0.474c-0.161,0-0.325-0.296-0.736-0.296c0,0-1.747-0.112-1.747-2.479
		C75.542,72.148,76.947,70.602,76.63,69.48 M83.318,78.722c0,0,2.182,0.959,2.754,1.78c1.241-0.939,2.874-1.673,2.874-1.673
		s-1.566-0.408-2.874-1.586C85.323,78.233,83.318,78.722,83.318,78.722 M76.393,78.722c0,0-2-0.49-2.754-1.479
		c-1.308,1.178-2.874,1.586-2.874,1.586s1.632,0.735,2.874,1.673C74.211,79.681,76.393,78.722,76.393,78.722 M79.852,69.722
		l-0.564,1.607l-1.535-0.734l0.729,1.54l-1.6,0.566l1.6,0.571l-0.729,1.53l1.535-0.735l0.564,1.602l0.57-1.602l1.535,0.735
		l-0.731-1.53l1.602-0.571l-1.602-0.566l0.731-1.54l-1.535,0.734L79.852,69.722z M76.157,70.466
		c0.134,0.286-1.088,2.061-1.088,3.514c0,1.785,0.95,2.836,2.22,2.836c0.242,0,0.507,0.326,0.736,0.326
		c0.371,0,0.62-0.413,0.845-0.413c0.288,0,0.482,0.454,0.982,0.454c0.501,0,0.7-0.454,0.987-0.454c0.227,0,0.475,0.413,0.847,0.413
		c0.228,0,0.493-0.326,0.736-0.326c1.269,0,2.22-1.051,2.22-2.836c0-1.454-1.222-3.229-1.088-3.514c0,0,2.382,1.704,2.382,3.719
		c0,3.244-3.289,4.045-3.289,4.045l0.741,1.668c0,0-1.019,0.153-1.642,0.653c-0.829,0.668-0.84,2.479-0.84,3.698
		c0,1.443,0.053,2.056,0.573,2.443c0.549,0.413,0.964,0.505,0.964,0.923c0,0.367-0.428,0.515-0.983,0.76
		c-0.631,0.281-0.694,0.76-1.607,0.76c-0.912,0-0.969-0.479-1.6-0.76c-0.556-0.245-0.983-0.393-0.983-0.76
		c0-0.418,0.412-0.51,0.964-0.923c0.518-0.388,0.572-1,0.572-2.443c0-1.219-0.011-3.03-0.84-3.698
		c-0.624-0.5-1.642-0.653-1.642-0.653l0.741-1.668c0,0-3.289-0.801-3.289-4.045C73.775,72.175,76.157,70.466,76.157,70.466
		 M79.859,70.803l0.361,1.02l0.977-0.469l-0.462,0.984l1.016,0.362l-1.016,0.362l0.462,0.979l-0.977-0.464l-0.367,1.015
		l-0.362-1.015l-0.975,0.464l0.462-0.979L77.962,72.7l1.016-0.362l-0.462-0.984l0.975,0.469L79.859,70.803z M73.609,77.735
		c0.662,0.76,1.711,1.051,1.711,1.051s-1.093,0.571-1.682,1.244v0.041c-0.005-0.005-0.015-0.01-0.02-0.015
		c-0.01,0.015-0.023,0.031-0.034,0.041c0,0,0-0.066,0-0.071c-0.622-0.551-1.864-1.163-1.864-1.163S72.908,78.449,73.609,77.735
		 M86.102,77.735c0.699,0.714,1.887,1.127,1.887,1.127s-1.239,0.612-1.862,1.163v0.071c-0.011-0.01-0.024-0.025-0.034-0.041
		c-0.008,0.005-0.015,0.01-0.02,0.015v-0.041c-0.589-0.673-1.682-1.244-1.682-1.244S85.44,78.495,86.102,77.735 M77.215,80.857
		l-0.783,0.781l0.783,0.78l0.78-0.78L77.215,80.857z M82.496,80.857l-0.78,0.781l0.78,0.78l0.782-0.78L82.496,80.857 M77.215,81.229
		l0.407,0.408l-0.407,0.413l-0.414-0.413L77.215,81.229 M82.496,81.229l0.413,0.408l-0.413,0.413l-0.407-0.413L82.496,81.229
		 M76.496,82.418c0.154,0.383,0.523,1.571,0.523,2.999c0,0.985-0.096,1.505-0.096,1.505s1.101-0.321,1.32-1.438
		c0.102-0.525,0.217-2.453-0.312-2.78L76.496,82.418 M83.217,82.418l-1.435,0.286c-0.53,0.326-0.414,2.255-0.312,2.78
		c0.219,1.117,1.32,1.438,1.32,1.438s-0.097-0.52-0.097-1.505C82.693,83.989,83.062,82.8,83.217,82.418 M73.822,82.734
		c-0.061,0-0.125,0.005-0.186,0.026c-0.495,0.122-0.794,0.622-0.671,1.122c0.018,0.072,0.05,0.143,0.085,0.209
		c-0.073-0.025-0.147-0.036-0.226-0.046c-0.033,0-0.065,0-0.096,0c-0.468,0.015-0.858,0.388-0.893,0.862
		c-0.034,0.51,0.352,0.949,0.862,0.979c0.075,0.01,0.149,0.005,0.222-0.005c-0.043,0.056-0.083,0.122-0.112,0.194
		c-0.19,0.474,0.042,1.02,0.515,1.209s1.014-0.046,1.203-0.515c0.029-0.077,0.046-0.148,0.056-0.219
		c0.043,0.061,0.096,0.117,0.155,0.168c0.393,0.326,0.978,0.27,1.304-0.117c0.326-0.393,0.274-0.974-0.116-1.301
		c-0.059-0.051-0.124-0.087-0.191-0.117c0.07-0.026,0.142-0.056,0.207-0.097c0.434-0.276,0.564-0.847,0.292-1.28
		c-0.186-0.296-0.513-0.449-0.842-0.428c-0.148,0.01-0.296,0.056-0.432,0.143c-0.066,0.041-0.124,0.087-0.176,0.138
		c0-0.071-0.006-0.148-0.026-0.224C74.649,82.999,74.251,82.713,73.822,82.734 M76.999,82.851l0.769,0.163
		c0.286,0.393,0.237,1.025,0.237,1.913c0,0.893-0.671,1.235-0.671,1.235C77.335,84.014,77.116,83.499,76.999,82.851 M82.714,82.851
		c-0.116,0.648-0.338,1.163-0.338,3.31c0,0-0.668-0.342-0.668-1.235c0-0.887-0.049-1.52,0.237-1.913
		C81.945,83.013,82.714,82.851,82.714,82.851z M73.875,83.121c0.334-0.015,0.641,0.204,0.727,0.541
		c0.019,0.081,0.022,0.158,0.014,0.24c-0.005,0.061-0.023,0.122-0.044,0.178c-0.112-0.041-0.232-0.061-0.359-0.061
		c-0.31,0-0.589,0.138-0.78,0.357c-0.05-0.046-0.093-0.097-0.13-0.153c-0.041-0.066-0.078-0.133-0.096-0.214
		c-0.097-0.383,0.139-0.775,0.523-0.867C73.778,83.127,73.829,83.121,73.875,83.121 M85.384,83.417c-1.183,0-2.049,0.908-1.929,2.03
		c0.1,0.938,0.867,1.734,1.812,1.959c-0.161-0.265-0.268-0.561-0.302-0.872c-0.117-1.117,0.746-2.025,1.929-2.025
		c0.186,0,0.367,0.025,0.545,0.066C87.021,83.892,86.237,83.417,85.384,83.417 M75.314,83.672c0.23,0.01,0.452,0.127,0.584,0.337
		c0.209,0.337,0.108,0.78-0.228,0.994c-0.069,0.041-0.144,0.072-0.22,0.092c-0.063,0.01-0.128,0.01-0.191,0.01
		c0-0.01,0-0.02,0-0.031c0-0.429-0.256-0.801-0.625-0.964c0.025-0.061,0.057-0.122,0.101-0.173c0.047-0.061,0.105-0.112,0.172-0.153
		C75.03,83.708,75.176,83.667,75.314,83.672 M85.384,83.836c0.368,0,0.724,0.112,1.032,0.301c-1.154,0.224-1.984,1.239-1.863,2.433
		c-0.368-0.306-0.637-0.714-0.685-1.168C83.775,84.519,84.416,83.836,85.384,83.836 M72.994,84.269
		c0.085,0.005,0.161,0.025,0.233,0.056c0.057,0.025,0.112,0.061,0.161,0.097c-0.139,0.178-0.222,0.408-0.222,0.653
		c0,0.189,0.052,0.367,0.14,0.52c-0.06,0.041-0.125,0.071-0.195,0.087c-0.07,0.02-0.14,0.026-0.217,0.02
		c-0.395-0.026-0.698-0.367-0.671-0.765C72.252,84.54,72.599,84.239,72.994,84.269 M74.213,84.376c0.385,0,0.697,0.311,0.697,0.699
		c0,0.383-0.311,0.694-0.697,0.694c-0.384,0-0.694-0.311-0.694-0.694C73.519,84.687,73.829,84.376,74.213,84.376 M75.256,85.172
		c0.069,0.01,0.135,0.025,0.2,0.051c0.07,0.031,0.138,0.061,0.199,0.112c0.303,0.255,0.339,0.709,0.084,1.01
		c-0.254,0.306-0.708,0.347-1.013,0.092c-0.064-0.051-0.111-0.118-0.15-0.184c-0.032-0.056-0.054-0.112-0.07-0.173
		C74.911,85.963,75.214,85.606,75.256,85.172 M73.342,85.656c0.189,0.281,0.51,0.464,0.871,0.464c0.077,0,0.151-0.01,0.223-0.026
		c0.014,0.066,0.023,0.133,0.019,0.199c-0.005,0.077-0.016,0.148-0.045,0.224c-0.148,0.367-0.57,0.546-0.938,0.398
		c-0.369-0.148-0.551-0.571-0.403-0.939c0.032-0.072,0.073-0.138,0.121-0.194C73.234,85.733,73.286,85.692,73.342,85.656
		 M78.611,87.37c-0.648,0-1.06,0.138-1.06,0.331c0,0.199,0.412,0.326,1.06,0.326c0.171,0,0.366-0.097,0.366-0.326
		S78.782,87.37,78.611,87.37 M81.102,87.37c-0.171,0-0.366,0.102-0.366,0.331c0,0.23,0.195,0.326,0.366,0.326
		c0.648,0,1.06-0.127,1.06-0.326C82.161,87.508,81.75,87.37,81.102,87.37"/>
	<path fill="#F9F92B" d="M69.41,68.74c0,0,0.857,0.643,0.857,1.296v13.497v2.04c0,0.413,0.125,0.678,0.326,0.939
		c0.201,0.28,0.629,0.668,1.072,0.959c1.371,0.888,3.664,1.826,5.398,2.617c1.447,0.658,2.034,0.923,2.785,1.852
		c0.752-0.928,1.344-1.194,2.79-1.852c1.734-0.791,4.03-1.729,5.398-2.617c0.445-0.291,0.872-0.678,1.074-0.959
		c0.2-0.26,0.321-0.525,0.321-0.939v-2.04V70.036c0-0.653,0.856-1.296,0.856-1.296h-0.91h-0.534h-8.994h-8.993H70.32H69.41
		 M70.507,69.235h0.349h8.993h8.994h0.348c0,0-0.253,0.301-0.253,0.801v13.497v2.04c0,0.342-0.351,1.137-2.381,2.147
		c-3.355,1.673-5.935,2.454-6.709,3.407c-0.773-0.954-3.353-1.734-6.707-3.407c-2.029-1.01-2.381-1.806-2.381-2.147v-2.04V70.036
		C70.761,69.536,70.507,69.235,70.507,69.235"/>
	<path d="M79.38,59.25c0,0.301-0.325,0.551-0.724,0.551c-0.4,0-0.726-0.25-0.726-0.551c0-0.306,0.325-0.551,0.726-0.551
		C79.055,58.699,79.38,58.944,79.38,59.25"/>
	<path fill="#C11B2C" d="M75.18,58.927c0,0,0.239-0.449,0.839-0.449c0.251,0,1.081-0.02,1.081-0.02
		c0.11,0.291,0.616,0.77,0.616,1.27c0,0-0.514-0.923-1.941-0.923C75.416,58.804,75.18,58.927,75.18,58.927"/>
	<path d="M77.02,59.05c0,0-0.352-0.112-0.352-0.23c0-0.153,0.172-0.153,0.273-0.036C77.011,58.866,77.02,59.05,77.02,59.05"/>
	<path fill="#C11B2C" d="M77.5,59.901c0,0-0.306,0.321-0.372,0.495c-0.3-0.112-0.826-0.658-0.826-0.658S76.747,59.998,77.5,59.901"
		/>
	<path d="M99.91,75.943l-1.118,0.816l0.126,0.265c0,0-0.204,0.072-0.296,0.25c-0.094,0.184,0.06,0.439,0.06,0.439
		s-1.062-0.092-1.229,0.015c-0.149,0.097,0.064,0.836-0.036,1.454c-0.138,0.867-0.479,0.796-0.494,0.964
		c-0.013,0.163,0.133,0.418,0.133,0.418s-0.199,0.061-0.242,0.148c-0.069,0.132,0.047,0.377-0.037,0.541
		c-0.46,0.908-1.143,2.249-1.595,3.132c-0.062,0.122-0.232,0.173-0.317,0.342c-0.078,0.153-0.014,0.377-0.014,0.377
		s-0.3,0.015-0.403,0.219c-0.111,0.214-0.046,0.51-0.046,0.51s-0.189,0.026-0.283,0.204c-0.098,0.194,0.07,0.301,0.027,0.383
		c-0.607,1.194-1.323,2.596-1.757,3.453c-0.161,0.311-0.723,0.372-1.048,1.015c-0.316,0.622,0.135,1.076,0.135,1.076
		s-0.469,0.041-0.594,0.291c-0.126,0.245-0.026,0.627,0.312,0.796c0.338,0.173,0.709,0.036,0.837-0.214
		c0.125-0.245-0.126-0.648-0.126-0.648s0.636,0.087,0.952-0.53c0.325-0.638,0.05-1.127,0.21-1.438
		c0.436-0.857,1.151-2.26,1.758-3.453c0.043-0.081,0.222-0.01,0.323-0.204c0.093-0.184,0-0.347,0-0.347s0.277-0.122,0.388-0.337
		c0.102-0.204-0.056-0.459-0.056-0.459s0.218-0.082,0.299-0.235c0.084-0.163,0.02-0.326,0.084-0.454
		c0.452-0.882,1.135-2.224,1.596-3.132c0.084-0.163,0.349-0.214,0.418-0.347c0.043-0.087-0.026-0.286-0.026-0.286
		s0.295-0.031,0.42-0.138c0.126-0.107-0.133-0.342,0.487-0.964c0.445-0.449,1.164-0.709,1.153-0.887c-0.011-0.199-0.71-1-0.71-1
		s0.297-0.026,0.389-0.209c0.092-0.179,0.031-0.393,0.031-0.393l0.291-0.051v-1.382L99.91,75.943z M89.401,95.887
		c-0.143,0.015-0.233,0.102-0.263,0.158c-0.043,0.087-0.052,0.204,0,0.306c0,0-0.352-0.107-0.473-0.051
		c-0.113,0.056,0,1.719,0,1.719s1.405-0.887,1.386-1.015c-0.024-0.127-0.319-0.352-0.319-0.352c0.115-0.02,0.203-0.092,0.246-0.179
		c0.047-0.092,0.052-0.352-0.265-0.515C89.592,95.897,89.485,95.882,89.401,95.887"/>
	<g>
		<path fill="#F9F92B" d="M99.7,76.35l-0.653,0.464l0.33,0.168l0.334,0.168L99.7,76.35 M99.067,77.12
			c-0.119,0.005-0.223,0.071-0.277,0.173c-0.087,0.168-0.003,0.382,0.185,0.479c0.19,0.097,0.408,0.036,0.495-0.128
			c0.085-0.168,0.003-0.388-0.186-0.479C99.213,77.13,99.137,77.115,99.067,77.12 M97.833,77.89c-0.099,0-0.171,0.005-0.186,0.015
			c-0.072,0.046,0.024,0.643,0.005,1.153c-0.02,0.479-0.173,0.617-0.259,0.781c-0.078,0.153-0.357,0.331-0.357,0.331l0.233,0.23
			c0,0,0.149-0.235,0.387-0.699c0.279-0.546,0.27-1.54,0.353-1.596c0.072-0.046,0.654-0.189,0.654-0.189S98.128,77.885,97.833,77.89
			 M98.85,78.028c0,0-0.612,0.112-0.699,0.199c-0.085,0.081-0.048,0.913-0.373,1.551c-0.269,0.531-0.403,0.724-0.403,0.724
			l0.166,0.087l0.166,0.081c0,0,0.078-0.214,0.349-0.745c0.325-0.643,1.02-1.102,1.037-1.219
			C99.109,78.584,98.85,78.028,98.85,78.028 M99.047,78.104c0,0,0.222,0.561,0.226,0.648c0.005,0.097-0.802,0.673-1.083,1.219
			c-0.238,0.469-0.338,0.729-0.338,0.729l0.321,0.051c0,0-0.022-0.332,0.056-0.485c0.085-0.168,0.107-0.367,0.485-0.663
			c0.399-0.316,0.94-0.597,0.936-0.678C99.647,78.849,99.047,78.104,99.047,78.104 M97.224,80.747
			c-0.103,0.01-0.174,0.072-0.217,0.153c-0.061,0.122-0.029,0.28-0.515,1.235c-0.213,0.418-0.297,0.587-0.527,1.035
			c-0.235,0.459-0.575,1.127-0.575,1.127s-0.116,0.209,0.101,0.321c0.215,0.107,0.311-0.112,0.311-0.112s0.342-0.663,0.575-1.122
			c0.231-0.449,0.316-0.622,0.529-1.046c0.486-0.949,0.634-1.015,0.695-1.137c0.065-0.128,0.048-0.301-0.166-0.408
			C97.353,80.747,97.284,80.736,97.224,80.747 M95.134,84.72c-0.082,0.005-0.147,0.041-0.177,0.097
			c-0.06,0.117,0.043,0.291,0.231,0.388c0.19,0.097,0.394,0.081,0.454-0.041c0.061-0.117-0.047-0.291-0.237-0.383
			C95.311,84.73,95.215,84.71,95.134,84.72 M94.852,85.296c-0.135-0.005-0.255,0.041-0.303,0.138
			c-0.078,0.153,0.043,0.372,0.273,0.485c0.227,0.117,0.477,0.087,0.555-0.061c0.078-0.153-0.043-0.372-0.273-0.49
			C95.018,85.327,94.934,85.302,94.852,85.296 M94.47,86.016c-0.082,0.01-0.147,0.041-0.177,0.102
			c-0.06,0.117,0.043,0.291,0.231,0.388c0.19,0.097,0.394,0.077,0.454-0.041c0.061-0.117-0.042-0.291-0.232-0.388
			C94.652,86.031,94.55,86.01,94.47,86.016 M94.302,86.638c-0.119,0.015-0.177,0.133-0.177,0.133s-1.224,2.413-1.657,3.259
			c-0.136,0.27-0.719,0.439-0.946,0.888c-0.229,0.449-0.067,0.867,0.233,1.02c0.297,0.153,0.737,0.041,0.964-0.403
			c0.228-0.449,0.024-1.02,0.163-1.291c0.431-0.852,1.657-3.259,1.657-3.259s0.121-0.214-0.096-0.321
			C94.389,86.633,94.342,86.633,94.302,86.638 M91.347,92.188c-0.137,0-0.26,0.066-0.318,0.178
			c-0.092,0.184,0.013,0.418,0.237,0.536c0.223,0.112,0.482,0.056,0.574-0.122c0.093-0.178-0.018-0.418-0.242-0.535
			C91.515,92.203,91.428,92.183,91.347,92.188 M89.398,96.049c-0.07,0-0.129,0.026-0.152,0.071c-0.046,0.092,0.05,0.235,0.217,0.321
			c0.166,0.087,0.342,0.077,0.388-0.015c0.047-0.092-0.05-0.235-0.217-0.321C89.551,96.064,89.468,96.044,89.398,96.049
			 M88.823,96.503v1.189l0.967-0.694c0,0-0.13-0.235-0.417-0.383C89.086,96.472,88.823,96.503,88.823,96.503"/>
		<path fill="#F9F92B" d="M79.16,59.25c0,0.276-0.226,0.5-0.502,0.5c-0.278,0-0.504-0.224-0.504-0.5c0-0.28,0.226-0.505,0.504-0.505
			C78.934,58.745,79.16,58.969,79.16,59.25"/>
	</g>
	<path d="M78.889,59.25c0,0.122-0.103,0.23-0.23,0.23c-0.128,0-0.231-0.107-0.231-0.23c0-0.127,0.103-0.235,0.231-0.235
		C78.785,59.015,78.889,59.122,78.889,59.25"/>
</g>
</svg>
