<svg version="1.0" id="ethiopia" xmlns="http://www.w3.org/2000/svg" xmlns:xlink="http://www.w3.org/1999/xlink" x="0px" y="0px"
	 viewBox="0 0 160 160" enable-background="new 0 0 160 160" xml:space="preserve">
<g>
	<path id="_x34_" fill="#D03633" d="M2.35,34.678h154.82v90.32H2.35L2.35,34.678z"/>
</g>
<path fill="#F2DD30" d="M2.35,34.678h154.82v60.22H2.35L2.35,34.678z"/>
<path fill="#2D6C41" d="M2.35,34.678h154.82v30.11H2.35L2.35,34.678z"/>
<g>
	<path fill="#4BA2D7" d="M102.34,79.84c0,12.471-10.11,22.582-22.58,22.582c-12.473,0-22.577-10.111-22.577-22.582
		s10.1-22.581,22.577-22.581C92.23,57.259,102.34,67.369,102.34,79.84"/>
	<path fill="#F2DD30" d="M62.58,74.19H75.7l2.966-9.135l0.793,2.438l-4.311,13.272l-1.283-0.934l1.344-4.137h-10.56l-2.071-1.504
		 M69.139,94.38l4.054-12.482l-7.77-5.645h2.563l11.287,8.201l-1.28,0.934l-3.518-2.561l-3.266,10.05L69.139,94.38 M90.372,94.381
		l-10.615-7.714l-7.767,5.646l0.788-2.438l11.292-8.201l0.485,1.504l-3.518,2.561l8.542,6.205L90.372,94.381 M96.933,74.191
		l-10.615,7.714l2.969,9.135l-2.073-1.509l-4.311-13.272h1.58l1.345,4.142l8.547-6.21L96.933,74.191 M79.753,61.704l4.054,12.487
		h9.604l-2.073,1.504H77.384l0.49-1.504h4.352l-3.266-10.05l0.793-2.438"/>
	<path d="M79.76,88.13v9.782V88.13 M71.888,82.407l-9.306,3.02L71.888,82.407 M74.888,73.149l-5.75-7.914L74.888,73.149
		 M84.621,73.149l5.75-7.914L84.621,73.149 M87.621,82.407l9.306,3.02L87.621,82.407"/>
	<g>
		<path fill="#F2DD30" d="M80.14,97.91h-0.752v-9.782h0.752V97.91 M96.823,85.78l-9.306-3.02l0.233-0.719l9.306,3.02l-0.233,0.714
			 M62.703,85.775l-0.234-0.713l9.306-3.02l0.234,0.719l-9.306,3.02 M84.933,73.367l-0.606-0.441l5.75-7.914l0.606,0.441
			L84.933,73.367 M74.595,73.367l-5.75-7.914l0.605-0.441l5.753,7.914L74.595,73.367"/>
	</g>
</g>
</svg>
