<svg version="1.0" id="uganda" xmlns="http://www.w3.org/2000/svg" xmlns:xlink="http://www.w3.org/1999/xlink" x="0px" y="0px"
	 viewBox="0 0 160 160" enable-background="new 0 0 160 160" xml:space="preserve">
<g>
	<g>
		<g>
			<defs>
				<rect id="SVGID_1_" x="2.423" y="35.461" width="154.827" height="90.318"/>
			</defs>
			<clipPath id="SVGID_2_">
				<use xlink:href="#SVGID_1_"  overflow="visible"/>
			</clipPath>
			<rect x="2.423" y="35.461" clip-path="url(#SVGID_2_)" width="154.827" height="90.318"/>
		</g>
		<g>
			<defs>
				<rect id="SVGID_3_" x="2.423" y="35.461" width="154.827" height="90.318"/>
			</defs>
			<clipPath id="SVGID_4_">
				<use xlink:href="#SVGID_3_"  overflow="visible"/>
			</clipPath>
			<rect x="2.423" y="35.461" clip-path="url(#SVGID_4_)" fill="#FFFFFF" width="154.827" height="31.049"/>
		</g>
		<g>
			<defs>
				<rect id="SVGID_5_" x="2.423" y="35.461" width="154.827" height="90.318"/>
			</defs>
			<clipPath id="SVGID_6_">
				<use xlink:href="#SVGID_5_"  overflow="visible"/>
			</clipPath>
			<rect x="2.423" y="35.461" clip-path="url(#SVGID_6_)" fill="#317267" width="154.827" height="28.226"/>
		</g>
		<g>
			<defs>
				<rect id="SVGID_7_" x="2.423" y="35.461" width="154.827" height="90.318"/>
			</defs>
			<clipPath id="SVGID_8_">
				<use xlink:href="#SVGID_7_"  overflow="visible"/>
			</clipPath>
			<rect x="2.423" y="94.694" clip-path="url(#SVGID_8_)" fill="#FFFFFF" width="154.827" height="31.085"/>
		</g>
		<g>
			<defs>
				<rect id="SVGID_9_" x="2.423" y="35.461" width="154.827" height="90.318"/>
			</defs>
			<clipPath id="SVGID_10_">
				<use xlink:href="#SVGID_9_"  overflow="visible"/>
			</clipPath>
			<rect x="2.423" y="97.553" clip-path="url(#SVGID_10_)" fill="#F5E129" width="154.827" height="28.226"/>
		</g>
		<g>
			<defs>
				<rect id="SVGID_11_" x="2.423" y="35.461" width="154.827" height="90.318"/>
			</defs>
			<clipPath id="SVGID_12_">
				<use xlink:href="#SVGID_11_"  overflow="visible"/>
			</clipPath>
			<polygon clip-path="url(#SVGID_12_)" fill="#C0003B" points="2.423,35.461 2.423,125.779 61.694,80.622 			"/>
		</g>
		<g>
			<defs>
				<rect id="SVGID_13_" x="2.423" y="35.461" width="154.827" height="90.318"/>
			</defs>
			<clipPath id="SVGID_14_">
				<use xlink:href="#SVGID_13_"  overflow="visible"/>
			</clipPath>
			<polygon clip-path="url(#SVGID_14_)" fill="#F5E129" points="33.184,97.553 22.173,89.491 11.177,97.558 15.44,84.59 
				4.373,76.625 18.022,76.676 22.177,63.687 26.347,76.681 39.984,76.62 28.913,84.6 			"/>
		</g>
		<g>
			<defs>
				<rect id="SVGID_15_" x="2.423" y="35.461" width="154.827" height="90.318"/>
			</defs>
			<clipPath id="SVGID_16_">
				<use xlink:href="#SVGID_15_"  overflow="visible"/>
			</clipPath>
			<g clip-path="url(#SVGID_16_)">
				<g>
					<defs>
						<rect id="SVGID_17_" x="2.423" y="35.461" width="154.827" height="90.318"/>
					</defs>
					<defs>
						<rect id="SVGID_18_" x="2.423" y="35.461" width="154.827" height="90.318"/>
					</defs>
					<defs>
						<rect id="SVGID_19_" x="2.423" y="35.461" width="154.827" height="90.318"/>
					</defs>
					<defs>
						<rect id="SVGID_20_" x="2.423" y="35.461" width="154.827" height="90.318"/>
					</defs>
					<defs>
						<rect id="SVGID_21_" x="2.423" y="35.461" width="154.827" height="90.318"/>
					</defs>
					<defs>
						<rect id="SVGID_22_" x="2.423" y="35.461" width="154.827" height="90.318"/>
					</defs>
					<defs>
						<rect id="SVGID_23_" x="2.423" y="35.461" width="154.827" height="90.318"/>
					</defs>
					<defs>
						<rect id="SVGID_24_" x="2.423" y="35.461" width="154.827" height="90.318"/>
					</defs>
					<clipPath id="SVGID_25_">
						<use xlink:href="#SVGID_17_"  overflow="visible"/>
					</clipPath>
					<clipPath id="SVGID_26_" clip-path="url(#SVGID_25_)">
						<use xlink:href="#SVGID_18_"  overflow="visible"/>
					</clipPath>
					<clipPath id="SVGID_27_" clip-path="url(#SVGID_26_)">
						<use xlink:href="#SVGID_19_"  overflow="visible"/>
					</clipPath>
					<clipPath id="SVGID_28_" clip-path="url(#SVGID_27_)">
						<use xlink:href="#SVGID_20_"  overflow="visible"/>
					</clipPath>
					<clipPath id="SVGID_29_" clip-path="url(#SVGID_28_)">
						<use xlink:href="#SVGID_21_"  overflow="visible"/>
					</clipPath>
					<clipPath id="SVGID_30_" clip-path="url(#SVGID_29_)">
						<use xlink:href="#SVGID_22_"  overflow="visible"/>
					</clipPath>
					<clipPath id="SVGID_31_" clip-path="url(#SVGID_30_)">
						<use xlink:href="#SVGID_23_"  overflow="visible"/>
					</clipPath>
					<clipPath id="SVGID_32_" clip-path="url(#SVGID_31_)">
						<use xlink:href="#SVGID_24_"  overflow="visible"/>
					</clipPath>
					<path clip-path="url(#SVGID_32_)" fill="#FFFFFF" d="M12.616,88.51h7.932c0.639,0.718,2.063,1.011,3.419-0.005
						c2.486-1.365,7.296,0.005,7.296,0.005l0.947-1.006l-2.308-7.575l-0.829-0.888c0,0-1.776-1.062-5.15-0.713
						c-3.376,0.359-4.559-0.113-4.559-0.113s-2.96,0.349-3.79,0.765c-0.091,0.077-0.947,0.95-0.947,0.95L12.616,88.51z"/>
					<g clip-path="url(#SVGID_32_)">
						<path d="M22.136,89.255L22.136,89.255c-0.658,0-1.278-0.251-1.658-0.683l-7.862,0.036l1.919-8.699
							c0.024-0.046,0.888-0.924,0.979-1.001c0.853-0.431,3.718-0.775,3.839-0.785c0.072,0.005,1.257,0.462,4.56,0.113
							c3.378-0.354,5.145,0.688,5.208,0.729l0.851,0.903l2.329,7.611l-0.969,1.098c-0.095,0.067-2.244-0.585-4.379-0.585
							c-1.234,0-2.223,0.2-2.939,0.595C23.433,89.024,22.78,89.255,22.136,89.255L22.136,89.255z M20.548,88.418
							c0.416,0.416,0.983,0.652,1.588,0.652l0,0c0.603,0,1.216-0.221,1.774-0.642c0.757-0.416,1.776-0.621,3.042-0.621
							c2.154,0,4.315,0.611,4.337,0.616l0.853-0.98l-2.33-7.488l-0.808-0.847l0,0c-0.008,0-1.795-1.021-5.07-0.688
							c-3.377,0.359-4.569-0.102-4.604-0.118c0.017,0.005-2.906,0.359-3.713,0.76c-0.072,0.067-0.922,0.934-0.922,0.934l-1.988,8.54
							L20.548,88.418L20.548,88.418z"/>
					</g>
					<g clip-path="url(#SVGID_32_)">
						<path d="M22.085,89.255c-0.561,0-1.105-0.205-1.65-0.606c0.144-0.313,0.708-0.888,1.749-1.401
							c-3.014-1.191-7.897-0.6-7.958-0.595c-0.062,0.036-0.099-0.031-0.105-0.082s0.029-0.097,0.082-0.103
							c0.251-0.036,5.12-0.616,8.129,0.708c1.495-0.698,3.895-1.242,7.348-0.77c0.051,0.005,0.087,0.056,0.081,0.103
							c-0.009,0.056-0.05,0.102-0.107,0.082c-3.409-0.467-5.69,0.052-7.114,0.683c0.616,0.298,1.142,0.683,1.518,1.18
							C23.36,88.998,22.712,89.255,22.085,89.255L22.085,89.255z M22.396,87.335c-1.283,0.6-1.818,1.268-1.826,1.283
							c1.073,0.677,2.114,0.667,3.358-0.185C23.555,87.972,23.023,87.612,22.396,87.335L22.396,87.335z"/>
					</g>
					<g clip-path="url(#SVGID_32_)">
						<polygon points="22.341,87.325 22.249,78.98 22.399,78.98 						"/>
					</g>
					<g clip-path="url(#SVGID_32_)">
						<polygon points="30.568,85.713 28.999,79.119 29.146,79.083 						"/>
					</g>
					<g clip-path="url(#SVGID_32_)">
						<path d="M14.867,82.511c-0.008,0-0.014,0-0.022-0.005c-0.05-0.01-0.082-0.061-0.071-0.113l0.789-3.418
							c0.01-0.051,0.064-0.087,0.113-0.072c0.05,0.01,0.082,0.062,0.071,0.113l-0.789,3.423
							C14.948,82.48,14.909,82.511,14.867,82.511L14.867,82.511z"/>
					</g>
					<path clip-path="url(#SVGID_32_)" d="M7.465,89.424l1.864,2.186c0.218,0.128,0.414,0.118,0.609,0l2.765-3.32l1.159-1.437
						c0.181-0.21,0.239-0.446,0.222-0.662l2.222-1.971c0.18,0.01,0.289,0.031,0.471,0.041c-0.215-0.051-0.373-0.159-0.204-0.395
						l0.498-0.385l0.387,0.498c0,0-0.553,0.718-0.609,0.718h-0.607l-1.161,1.052l0.507,0.446l0.763,2.094l0.939-0.662l-0.607-2.156
						l1.327-1.437l-0.498-0.775l0.334-0.446c0,0,4.593,2.895,6.361,2.12c0.049,0.021,0.108-2.058,0.108-2.058
						s-4.755-0.498-4.867-1.442c-0.11-0.939,1.051-1.052,1.051-1.052l-0.498-0.718l0.11-0.385l0.829,1.052l1.882-1.606L33.88,91.333
						c0.603-0.246,0.733-0.39,0.775-0.996c-0.017-0.016-10.839-12.44-10.839-12.44l0.83-0.888c0.163-0.179,0.219-0.262,0.219-0.554
						l1.273-1.103c0.382,0.133,0.625,0.359,0.829,0.662l3.497-2.961c0.091,0.092,0.372,0.185,0.562,0.077l5.78-5.548l-6.3,4.45
						l-0.221-0.164c0-0.185,0.227-0.231,0-0.549c-0.245-0.298-0.608,0.277-0.663,0.277c-0.056,0-0.912-0.308-1.1-0.688l-0.061,1.016
						l-1.605,1.494l-1.216-0.056l-1.769,1.714l-0.22,0.662l0.276,0.559c0,0-0.939,0.826-0.939,0.77s-0.19-0.246-0.199-0.272
						l0.806-0.724l0.113-0.498l-0.272-0.421c-0.081,0.056-1.112,1.145-1.169,1.032c-0.09-0.103-2.984-3.377-2.984-3.377l0.165-0.605
						l-1.88-2.048c-0.685-0.236-1.77-0.277-1.99,1.216c-0.173,0.349-1.605,0.056-1.605,0.056l-0.775,0.169l-4.367,6.189l2.434,2.93
						l4.977-6.302l0.148-1.786l1.043,1.165c0.349,0.046,0.68,0.051,0.996-0.108l2.948,3.29l-0.49,0.482
						c0.166,0.185,0.28,0.297,0.445,0.482c0.167-0.108,0.325-0.241,0.49-0.354c0.056,0.077,0.147,0.215,0.204,0.287
						c-0.248,0.133-0.422,0.318-0.668,0.451c-0.395-0.256-0.776-0.58-0.748-1.093l-1.659,1.386l-0.055,0.272l-4.922,4.095
						l-0.441,0.056l-0.112,1.273l3.209-2.658v-0.385l0.331,0.272l2.488-1.986c0,0,0.166,0.221,0.112,0.221
						c-0.056,0-2.213,1.991-2.213,1.991l-0.056,0.221l-0.385,0.328l-0.222-0.164L13.7,84.808h-0.443l-1.659,1.657
						c-0.427,0.036-0.798,0.082-1.162,0.328L7.465,89.424z"/>
					<g clip-path="url(#SVGID_32_)">
						<path d="M9.637,91.8c-0.118,0-0.238-0.036-0.356-0.108l-1.888-2.207l2.979-2.761c0.38-0.257,0.743-0.308,1.215-0.354
							l1.603-1.632l0.508-0.025l2.923-2.628l0.34,0.154l0.296-0.498c1.677-1.565,2.107-1.94,2.237-2.032h-0.001
							c-0.05,0-0.085-0.051-0.121-0.097l-2.353,2.006l-0.45-0.277l0.154,0.313l-3.242,2.73l-0.042-1.355l0.524-0.139l4.874-4.075
							l0.022-0.22l1.692-1.437c0.127,0.539,0.477,0.836,0.858,1.088c0.023-0.072,0.125-0.149,0.226-0.226
							c0.109-0.082,0.218-0.159,0.346-0.231l-0.149-0.026l-0.448,0.257l-0.568-0.503l0.495-0.611l-2.952-3.161
							c-0.126,0.179-0.545,0.195-0.939,0.138l-1.101-1.196l0.017,1.729l-4.997,6.353l-2.58-2.925l4.363-6.307l0.831-0.205
							c0.045,0,0.601,0.113,1.048,0.113c0.403,0,0.478-0.088,0.493-0.118c0.251-1.745,1.61-1.437,2.105-1.262l1.918,2.073
							l-0.144,0.693h0.001c0.054,0,2.874,3.187,2.963,3.289c0.042-0.061,0.572-0.585,0.798-0.811
							c0.127-0.123,0.223-0.221,0.246-0.236l0.287,0.318l0.114-0.344l1.793-1.755l1.285,0.031l1.536-1.468l0.033-0.955
							c0.339,0.287,1.119,0.585,1.202,0.6c0.127-0.179,0.299-0.364,0.493-0.364c0.027,0,0.217,0.097,0.235,0.118
							c0.176,0.246,0.128,0.38,0.06,0.503l0.142,0.195l6.189-4.449c0.038-0.031,0.094-0.021,0.128,0.02
							c0.031,0.036,0.028,0.092-0.008,0.123l-5.78,5.548c-0.251,0.149-0.561,0.061-0.696-0.082l-3.368,2.972
							c-0.356-0.339-0.598-0.534-0.921-0.647l-1.179,1.088c0.032,0.246-0.035,0.349-0.212,0.549l-0.833,0.883l0,0
							c0.112,0,10.747,12.209,10.839,12.317c-0.02,0.729-0.192,0.893-0.807,1.144l-11.166-12.63l-1.749,1.611l-0.964-1.068
							l0.053,0.354l0.485,0.641c-0.073,0.149-0.621,0.205-0.892,0.539c-0.121,0.149-0.168,0.339-0.142,0.554
							c0.074,0.631,2.973,1.165,4.783,1.36c0.023,2.248,0,2.248-0.117,2.248c-0.174,0.082-0.435,0.128-0.733,0.128
							c-2.061,0-5.534-2.171-5.68-2.263l-0.208,0.421l0.502,0.667l-1.337,1.55l0.629,2.068l-0.976,0.765l-0.906-2.135l-0.48-0.41
							l1.159-1.196l0.671-0.026c0.017-0.026,0.296-0.369,0.535-0.677l-0.388-0.385l-0.367,0.405
							c-0.023,0.138,0.01,0.185,0.171,0.231c0.046,0.01,0.076,0.056,0.069,0.103c-0.009,0.046-0.061,0.067-0.099,0.082L16.3,84.312
							l-2.153,1.95c0.046,0.103,0.015,0.385-0.213,0.652l-3.924,4.757C9.871,91.764,9.755,91.8,9.637,91.8L9.637,91.8z
							 M16.628,82.229l-2.869,2.648l-0.504,0.025l-1.592,1.632c-0.503,0.067-0.842,0.113-1.175,0.339L7.527,89.49l1.875,2.058
							c0.135,0.072,0.313,0.092,0.488-0.02l3.9-4.732c0.187-0.226,0.213-0.446,0.202-0.6l2.253-2.048h0.187
							c-0.004-0.005-0.006-0.015-0.009-0.02c-0.033-0.092-0.009-0.2,0.074-0.318l0.517-0.4l0.519,0.513
							c-0.581,0.867-0.634,0.867-0.684,0.867h-0.607l-1.098,1.032l0.505,0.303l0.79,2.135l0.797-0.708l-0.644-2.058l1.35-1.524
							l-0.508-0.657l0.336-0.554l0,0c0.162,0,3.7,2.217,5.706,2.217c0.272,0,0.505-0.041,0.693-0.123
							c-0.013-0.067,0.031-1.257,0.053-1.981c-0.392,0.051-4.75-0.436-4.867-1.427c-0.032-0.267,0.031-0.503,0.185-0.693
							c0.321-0.4,0.925-0.457,0.951-0.462l-0.566-0.57l0.097-0.467l0.993,1.021l1.746-1.616l11.19,12.614
							c0.475-0.262,0.57-0.385,0.609-0.934c-0.05-0.02-0.881-0.97-10.816-12.378l0.833-1.011c0.151-0.169,0.195-0.231,0.195-0.493
							l1.305-1.175c0.457,0.108,0.727,0.323,0.969,0.683l3.359-2.982c0.168,0.046,0.292,0.103,0.423,0.103l4.94-4.65l-5.207,3.674
							l-0.331-0.164c-0.037-0.026,0.002-0.231,0.024-0.272c0.044-0.082,0.073-0.133-0.044-0.303
							c-0.205-0.046-0.349,0.118-0.43,0.205c-0.018,0.021-0.131,0.113-0.158,0.113c-0.095,0-0.978-0.318-1.184-0.739l0.117,0.98
							l-1.635,1.56l-1.286-0.036l-1.699,1.688l-0.181,0.641l0.255,0.467c-0.926,0.913-0.98,0.913-1.021,0.913
							c-0.106-0.108-0.181-0.195-0.214-0.231c-0.013-0.041-0.078-0.179-0.05-0.205l0.806-0.724l0.041-0.262l-0.177-0.441
							c-0.022,0.041-0.072,0.092-0.128,0.144c-0.663,0.657-0.875,0.837-0.984,0.837c-0.177-0.138-3.071-3.413-3.071-3.413
							l0.145-0.693l-1.858-1.955c-0.118-0.031-0.358-0.098-0.617-0.098c-0.68,0-1.088,0.426-1.211,1.263
							c-0.082,0.18-0.299,0.251-0.67,0.251c-0.467,0-1.024-0.113-1.047-0.118l-0.735,0.169l-4.311,6.153l2.43,2.813l4.831-6.302
							l0.127-1.734l1.206,1.114c0.067-0.016,0.185-0.005,0.303-0.005c0.224,0,0.409-0.036,0.581-0.123l3.061,3.31l-0.495,0.611
							l0.226,0.113l0.223,0.241l0.127-0.195l0.241-0.174c0.039-0.026,0.189,0.108,0.218,0.149l0.113,0.159
							c-0.149,0.205-0.25,0.282-0.353,0.354c-0.109,0.082-0.218,0.164-0.346,0.236c-0.504-0.272-0.916-0.621-0.885-1.18
							l-1.505,1.463l-0.022,0.221l-4.955,4.147l-0.49,0.077l-0.03,1.186l3.055-2.735l-0.034-0.313l0.485,0.2l2.37-1.986
							c0.307,0.246,0.282,0.293,0.263,0.328c-0.162,0.118-1.42,1.268-2.241,2.022l-0.03,0.174l-0.414,0.38L16.628,82.229
							L16.628,82.229z M23.704,75.988l-0.018,0.102l-0.834,0.775c0.15,0.056,0.21,0.113,0.226,0.169
							c0.014-0.144,0.423-0.493,0.788-0.811L23.704,75.988L23.704,75.988z"/>
					</g>
				</g>
			</g>
		</g>
	</g>
</g>
</svg>
