<svg version="1.0" id="nicaragua" xmlns="http://www.w3.org/2000/svg" xmlns:xlink="http://www.w3.org/1999/xlink" x="0px" y="0px"
	 viewBox="0 0 160 160" enable-background="new 0 0 160 160" xml:space="preserve">
<g>
	<g>
		<defs>
			<rect id="SVGID_1_" x="2.946" y="35.11" width="154.09" height="89.89"/>
		</defs>
		<clipPath id="SVGID_2_">
			<use xlink:href="#SVGID_1_"  overflow="visible"/>
		</clipPath>
		<path clip-path="url(#SVGID_2_)" fill="#3564C2" d="M2.946,95.04h154.09v29.962H2.946L2.946,95.04z"/>
	</g>
	<g>
		<defs>
			<rect id="SVGID_3_" x="2.946" y="35.11" width="154.09" height="89.89"/>
		</defs>
		<clipPath id="SVGID_4_">
			<use xlink:href="#SVGID_3_"  overflow="visible"/>
		</clipPath>
		<path clip-path="url(#SVGID_4_)" fill="#3564C2" d="M2.946,35.11h154.09v29.967H2.946L2.946,35.11z"/>
	</g>
</g>
<g>
	<defs>
		<rect id="SVGID_5_" x="2.946" y="35.11" width="154.09" height="89.89"/>
	</defs>
	<clipPath id="SVGID_6_">
		<use xlink:href="#SVGID_5_"  overflow="visible"/>
	</clipPath>
	<path clip-path="url(#SVGID_6_)" fill="#FFFFFF" d="M2.946,65.08h154.09v29.962H2.946L2.946,65.08z"/>
</g>
<g>
	<defs>
		<rect id="SVGID_7_" x="2.946" y="35.11" width="154.09" height="89.89"/>
	</defs>
	<clipPath id="SVGID_8_">
		<use xlink:href="#SVGID_7_"  overflow="visible"/>
	</clipPath>
	<path clip-path="url(#SVGID_8_)" fill="#F5CD28" d="M70.957,85.27l9.04-15.65l9.03,15.65H70.957z"/>
</g>
<g>
	<defs>
		<rect id="SVGID_9_" x="2.946" y="35.11" width="154.09" height="89.89"/>
	</defs>
	<clipPath id="SVGID_10_">
		<use xlink:href="#SVGID_9_"  overflow="visible"/>
	</clipPath>
	<path clip-path="url(#SVGID_10_)" fill="#95D4FD" d="M71.847,84.76l8.144-14.11l8.149,14.11H71.847z"/>
</g>
<g>
	<defs>
		<rect id="SVGID_11_" x="2.946" y="35.11" width="154.09" height="89.89"/>
	</defs>
	<clipPath id="SVGID_12_">
		<use xlink:href="#SVGID_11_"  overflow="visible"/>
	</clipPath>
	<g clip-path="url(#SVGID_12_)">
		<g>
			<path fill="#95D4FD" d="M73.47,83.45c-0.114,0-0.226-0.02-0.34-0.036l-0.245-0.066l-0.019-0.163l0.296,0.082
				c0.237,0.036,0.473,0.071,0.743,0.071C73.75,83.419,73.609,83.45,73.47,83.45"/>
		</g>
		<g>
			<path fill="#95D4FD" d="M72.7,84.45l-0.186-0.107c0.098-0.036,0.167-0.143,0.291-0.281c0.201-0.066,0.313-0.036,0.434,0
				c0.082,0.02,0.166,0.046,0.28,0.051c0.163,0.097,0.411,0.082,0.564,0.005l0.235-0.026l-0.17,0.158
				c-0.166,0.082-0.484,0.133-0.677-0.005c-0.087,0.005-0.186-0.015-0.272-0.041c-0.112-0.031-0.194-0.056-0.32-0.02
				C72.801,84.291,72.736,84.393,72.7,84.45"/>
		</g>
		<g>
			<path fill="#95D4FD" d="M74.28,84.61c-0.226-0.036-0.396-0.036-0.637-0.031l-0.23-0.071l0.002,0.077
				c-0.162,0.01-0.225,0.01-0.265-0.015l-0.037,0.015v-0.082c0.129-0.061,0.23-0.066,0.296-0.071l0.232-0.005
				C73.908,84.431,74.123,84.426,74.28,84.61"/>
		</g>
		<g>
			<path fill="#95D4FD" d="M76.55,83.39c-0.319,0-0.418-0.107-0.486-0.424c-0.111-0.02-0.344-0.02-0.494,0.051l-0.25,0.005
				l-0.058-0.148h0.275c0.16-0.087,0.438-0.087,0.633,0.005c0.103,0.347,0.166,0.378,0.404,0.388
				c0.012-0.056,0.124-0.112,0.223-0.163l0.199,0.061c-0.218,0.117-0.318,0.168-0.368,0.225C76.6,83.39,76.576,83.39,76.55,83.39"/>
		</g>
		<g>
			<path fill="#95D4FD" d="M76.03,84.22l-0.188-0.107c0.101-0.036,0.171-0.143,0.294-0.281c0.241-0.174,0.386-0.266,0.729-0.179
				c0.29,0.22,0.369,0.281,0.587,0.307c0.138,0,0.237-0.02,0.337-0.041c0.077-0.01,0.153-0.026,0.249-0.036
				c-0.078,0.158-0.149,0.174-0.221,0.189c-0.107,0.015-0.215,0.036-0.373,0.036c-0.269-0.025-0.378-0.112-0.543-0.245
				c-0.357-0.138-0.45-0.072-0.65,0.066C76.132,84.061,76.067,84.164,76.03,84.22"/>
		</g>
		<g>
			<path fill="#95D4FD" d="M77.67,84.73c-0.244,0-0.41-0.071-0.585-0.148l-0.208-0.087c-0.055,0.061-0.139,0.102-0.189,0.122
				l-0.061-0.112h0.055c-0.009-0.046,0.071-0.082,0.184-0.143l0.279,0.082c0.168,0.072,0.314,0.133,0.522,0.138
				c0.069-0.005,0.135-0.021,0.2-0.036c0.087-0.02,0.178-0.041,0.287-0.041c-0.092,0.148-0.171,0.168-0.253,0.189
				C77.827,84.709,77.753,84.724,77.67,84.73"/>
		</g>
		<g>
			<path fill="#95D4FD" d="M79.63,83.1c-0.23-0.077-0.464-0.082-0.704-0.077h-0.277l-0.054-0.148h0.271
				c0.317-0.005,0.559,0,0.789,0.082l0.738-0.005L79.63,83.1"/>
		</g>
		<g>
			<path fill="#95D4FD" d="M79.962,84.03c-0.277-0.025-0.402-0.112-0.549-0.214l-0.164-0.112c-0.148-0.148-0.392-0.194-0.61-0.22
				c-0.076,0.061-0.161,0.102-0.209,0.123l-0.058-0.112h0.058c-0.017-0.046,0.065-0.082,0.18-0.148
				c0.29,0.02,0.563,0.071,0.745,0.245l0.147,0.102c0.139,0.097,0.24,0.169,0.464,0.189c0.197-0.092,0.257-0.133,0.356-0.153
				l-0.125,0.22C80.14,83.984,80.077,84.025,79.962,84.03"/>
		</g>
		<g>
			<path fill="#95D4FD" d="M80.33,84.41c-0.217,0-0.396-0.015-0.564-0.071c-0.202-0.123-0.448,0.005-0.529,0.061l-0.089-0.117
				c0.128-0.097,0.438-0.23,0.682-0.082c0.194,0.066,0.429,0.072,0.665,0.066c0.091-0.031,0.181-0.071,0.273-0.112
				c0.129-0.056,0.26-0.118,0.337-0.184l0.022-0.015h0.189l-0.162,0.148c-0.045,0.061-0.186,0.128-0.325,0.189
				c-0.087,0.036-0.171,0.077-0.239,0.112C80.497,84.41,80.412,84.41,80.33,84.41"/>
		</g>
		<g>
			<path fill="#95D4FD" d="M82.31,83.48c-0.232-0.097-0.591-0.087-0.756-0.077l-0.078-0.071l0.073-0.077
				c0.181-0.005,0.559-0.02,0.781,0.087c0.156-0.041,0.258-0.163,0.386-0.311l0.124-0.138c0.255-0.031,0.439-0.02,0.628,0.056
				c-0.22,0.072-0.387,0.066-0.573,0.066C82.693,83.286,82.565,83.439,82.31,83.48"/>
		</g>
		<g>
			<path fill="#95D4FD" d="M82.54,84.34l-0.041-0.143c0,0,0.225-0.066,0.392-0.082c0.161-0.199,0.291-0.102,0.393-0.025
				c0.054,0.046,0.107,0.087,0.181,0.107c0.216-0.087,0.343-0.266,0.458-0.506c0.023,0.302-0.128,0.541-0.455,0.649
				c-0.147-0.031-0.218-0.087-0.276-0.128c-0.098-0.077-0.123-0.097-0.239,0.026C82.75,84.279,82.541,84.34,82.54,84.34"/>
		</g>
		<g>
			<path fill="#95D4FD" d="M83.18,83.75l-0.061-0.097h0.054c-0.029-0.061,0.054-0.117,0.169-0.214l0.143-0.123
				c0.089-0.092,0.174-0.179,0.388-0.204c0.135-0.179,0.298-0.031,0.396,0.056c-0.221,0.005-0.257-0.01-0.331,0.071
				c-0.209,0.041-0.264,0.097-0.347,0.179c-0.043,0.046-0.091,0.092-0.157,0.143C83.317,83.658,83.23,83.714,83.18,83.75"/>
		</g>
		<g>
			<path fill="#95D4FD" d="M84.34,84.36l-0.148-0.025c0.012-0.061,0.111-0.409,0.166-0.557c0.17-0.118,0.285-0.184,0.41-0.148
				c0.1,0.031,0.181,0.117,0.275,0.296c0.059,0.005,0.155,0.061,0.253,0.117c0.098,0.061,0.198,0.118,0.306,0.158
				c-0.169,0.102-0.276,0.036-0.382-0.031c-0.091-0.051-0.18-0.107-0.272-0.138c-0.109-0.174-0.169-0.245-0.222-0.26
				c-0.062-0.01-0.137,0.026-0.259,0.097C84.446,83.972,84.35,84.303,84.34,84.36"/>
		</g>
		<g>
			<path fill="#95D4FD" d="M85.68,83.48c-0.198-0.337-0.265-0.495-0.458-0.546c-0.006,0.133-0.059,0.255-0.088,0.322l-0.184-0.077
				c0.077-0.051,0.132-0.179,0.227-0.353c0.348,0.036,0.439,0.245,0.538,0.475c0.243,0.031,0.387,0.02,0.515-0.102
				C86.16,83.47,85.962,83.48,85.68,83.48"/>
		</g>
		<g>
			<path fill="#95D4FD" d="M87.39,84.22c-0.239-0.031-0.319-0.107-0.391-0.174c-0.074-0.072-0.139-0.128-0.253-0.174
				c-0.111-0.072-0.195-0.041-0.332,0.26l-0.137-0.061c0.08-0.174,0.204-0.403,0.365-0.419l0.193,0.107
				c0.106,0.031,0.186,0.102,0.264,0.174c0.068,0.066,0.138,0.128,0.254,0.189c-0.045-0.107,0.032-0.138,0.172-0.163
				C87.448,84.123,87.423,84.133,87.39,84.22"/>
		</g>
		<g>
			<path fill="#95D4FD" d="M81.6,84.46l-0.064-0.107h0.055c-0.008-0.051,0.072-0.087,0.18-0.148
				c0.237-0.194,0.332-0.271,0.462-0.516c0.188-0.031,0.29-0.015,0.391,0c0.121,0.02,0.24,0.041,0.382,0.041
				c-0.152,0.148-0.277,0.128-0.406,0.107c-0.097-0.015-0.195-0.031-0.304-0.041c-0.075,0.235-0.19,0.327-0.382,0.485
				C81.731,84.398,81.648,84.439,81.6,84.46"/>
		</g>
		<g>
			<path fill="#95D4FD" d="M74.63,83.5l-0.145-0.01c0-0.087,0.082-0.153,0.365-0.306c0.096-0.107,0.209-0.072,0.312-0.041
				l0.158,0.184c-0.08,0-0.147-0.025-0.202-0.041l-0.008,0.01l-0.19,0.026C74.702,83.433,74.643,83.479,74.63,83.5"/>
		</g>
		<g>
			<path fill="#95D4FD" d="M75.47,84.27c-0.065,0-0.117-0.031-0.165-0.056c-0.074-0.046-0.139-0.082-0.226-0.102
				c-0.066,0.061-0.152,0.102-0.199,0.123l-0.056-0.112h0.054c-0.015-0.046,0.066-0.082,0.18-0.148
				c0.165,0.015,0.245,0.061,0.324,0.112c0.082,0.046,0.158,0.092,0.273,0.112C75.581,84.254,75.521,84.27,75.47,84.27"/>
		</g>
		<g>
			<path fill="#FFFFFF" d="M80.03,81.55l-0.075-10.759h0.075V81.55"/>
		</g>
		<g>
			<path fill="#FFFFFF" d="M76.11,77.46v-0.08h7.77L76.11,77.46"/>
		</g>
		<g>
			<path fill="#FFFFFF" d="M85.84,80.76l-8.72-4.94l0.04-0.07L85.84,80.76"/>
		</g>
		<g>
			<path fill="#FFFFFF" d="M74.18,80.85l8.746-5.13l0.037,0.06L74.18,80.85"/>
		</g>
		<g>
			<path fill="#FFFFFF" d="M78.27,80.52l-0.06-0.04l3.29-5.69L78.27,80.52"/>
		</g>
		<g>
			<path fill="#FFFFFF" d="M82.08,80.951l-3.74-6.331l0.07-0.03L82.08,80.951"/>
		</g>
		<path fill="#95D4FD" d="M81.19,77.42c0,0.659-0.539,1.195-1.202,1.195c-0.657,0-1.198-0.536-1.198-1.195
			c0-0.664,0.54-1.2,1.198-1.2C80.651,76.22,81.19,76.756,81.19,77.42"/>
		<path fill="#487BA2" d="M86.67,82.21l-4.03,0.066c0,0,0.022,0.593,0.286,0.613c0.263,0.02,3.6-0.041,3.74,0.23
			c0.142,0.266-3.252,0.409-3.252,0.409s2.989-0.02,3.152,0.204c0.163,0.23-1.646,0.271-1.506,0.311
			c0.142,0.041,2.113-0.041,2.298,0.184c0.184,0.225-0.894,0.373-0.894,0.373s1.628,0.158,1.671,0.148
			c-0.389-0.684-1.461-2.538-1.461-2.538"/>
		<path fill="#C0003B" d="M79.39,76.64c-0.13,0.087,0.304,0.143,0.264,0.429c-0.03,0.199-0.264,0.475-0.367,0.659
			c-0.101,0.184,0.468,0.858,0.996,0.49c0.531-0.368,0.466-1.032,0.286-1.149C80.146,76.788,79.876,76.364,79.39,76.64"/>
		<g>
			<path d="M80.16,78.18c-0.031-0.077-0.199-0.245-0.347-0.342c-0.129-0.082-0.338-0.133-0.397-0.092
				c0.004,0.01-0.005,0.066-0.017,0.077c-0.013,0-0.027,0.041-0.033,0.025c-0.003-0.01,0.013-0.133,0.02-0.138
				c0.092-0.077,0.344,0.026,0.451,0.092C79.933,77.864,80.186,78.063,80.16,78.18"/>
		</g>
		<path fill="#5B7133" d="M76.53,79.08c0.474-0.112,0.608,0.444,0.762,0.541c0.152,0.092,0.564,0.138,0.67,0.199
			c0.105,0.061,0.517,0.337,0.517,0.337s0.184-0.49,0.397-0.536c0.215-0.046,1.13,0.587,1.13,0.587s0.105-0.587,0.35-0.511
			c0.243,0.077,1.466,1,1.466,1s0.058-0.322,0.318-0.414s1.162,0.46,1.162,0.46s0.105-0.45,0.29-0.45
			c0.527,0,2.26,1.885,2.645,1.921c0.178,0.02-0.633,0.26-0.633,0.26s0.138,0.123,0.061,0.23c-0.075,0.107-2.471,0.015-2.471,0.015
			s0.069,0.163,0.028,0.214c-0.067,0.097-10.42,0.163-10.42,0.163c0.967-1.662,2.873-3.817,3.728-4.02"/>
		<g>
			<path fill="#263732" d="M80.62,83.01c0.365-0.092,0.109-1.098-1.875-2.626c3.14,2.171,1.147,2.472,4.356,2.559
				C82.526,82.985,80.62,83.01,80.62,83.01"/>
			<path fill="#263732" d="M80.11,80.31c0,0,2.97,2.294,3.09,2.406c0.148,0.005,0.636,0.02,0.636,0.02S83.428,82.711,80.11,80.31"/>
			<path fill="#263732" d="M81.88,80.76c0,0,2.494,1.961,2.092,1.972c-0.412,0.01,1.364,0.051,1.675-0.02
				C84.033,82.619,84.366,82.553,81.88,80.76"/>
			<path fill="#263732" d="M83.4,80.84l2.21,1.634c0,0,0.34-0.097,0.521-0.174C85.473,82.398,85.358,82.102,83.4,80.84"/>
		</g>
		<g>
			<path fill="#93C438" d="M76.924,79.3c0.17,0.117,0.213,0.337,0.322,0.398c0.109,0.066,1.129,0.542,1.693,1.129
				s1.419,1.328,1.115,1.42c-0.308,0.092-0.598-0.23-0.598-0.23s0.427,0.695-0.138,0.736c-0.564,0.051-1.95-2.048-1.95-2.048
				s0.669,1.9-0.184,1.818c-0.854-0.077-0.764-1.435-0.764-1.435s-0.229,0.649-0.395,0.633c-0.17-0.015,0-0.848,0-0.848
				s-0.977,1.634-1.361,1.451c-0.378-0.184,1.507-3.162,2.26-3.02"/>
			<path fill="#93C438" d="M78.957,79.85c-0.025-0.158,0.123-0.107,0.427,0.046c0.304,0.148,2.761,2.053,2.699,2.253
				C82.022,82.342,79.095,80.759,78.957,79.85"/>
			<path fill="#93C438" d="M80.77,80.17c-0.184-0.041,1.951,2.13,2.453,1.997C83.73,82.024,80.908,80.206,80.77,80.17"/>
			<path fill="#93C438" d="M82.25,80.36c-0.235-0.02,2.074,2.069,2.577,1.956C85.33,82.214,82.615,80.391,82.25,80.36"/>
			<path fill="#93C438" d="M83.61,80.48c-0.257,0.046,1.725,1.568,1.968,1.553C85.825,82.022,84.2,80.378,83.61,80.48"/>
		</g>
		<path fill="#B0008A" d="M76.78,76.23c0,0,1.219-1.43,3.216-1.43s3.221,1.425,3.221,1.425l-0.485-0.853c0,0-0.995-1-2.731-1
			c-1.74,0-2.721,0.986-2.721,0.986l-0.5,0.873"/>
		<path fill="#C0003B" d="M82.42,74.847c0,0-0.872-0.746-2.429-0.746c-1.555,0-2.423,0.756-2.423,0.756l-0.402,0.684
			c0,0,0.937-1.068,2.826-1.068c1.893,0,2.837,1.073,2.837,1.073L82.42,74.847"/>
		<path fill="#F3CD2D" d="M82.12,74.24c0,0-0.797-0.598-2.125-0.598s-2.04,0.542-2.04,0.542l-0.427,0.735
			c0,0,0.792-0.787,2.471-0.787s2.475,0.787,2.475,0.787L82.12,74.24"/>
		<path fill="#93C438" d="M81.74,73.68l0.379,0.659c0,0-0.788-0.582-2.131-0.582c-1.342,0-2.149,0.618-2.149,0.618l0.391-0.669
			c0,0,0.539-0.398,1.758-0.398C81.211,73.308,81.74,73.68,81.74,73.68"/>
		<path fill="#6091BE" d="M81.47,73.22l0.326,0.557c0,0-0.77-0.393-1.809-0.393c-1.034,0-1.859,0.49-1.859,0.49l0.311-0.536
			c0,0,0.543-0.332,1.548-0.332C80.997,73.005,81.47,73.22,81.47,73.22"/>
		<path fill="#2F4791" d="M81.31,72.926l0.257,0.455c0,0-0.489-0.322-1.571-0.322c-1.085,0-1.573,0.322-1.573,0.322l0.263-0.47
			c0,0,0.478-0.174,1.306-0.174C80.843,72.738,81.31,72.926,81.31,72.926"/>
		<path fill="#FFFFFF" d="M78.02,83.24l4.067,0.041c0,0-0.709,0.082-0.691,0.163c0.022,0.082,1.443,0.123,1.443,0.123
			s-0.871,0.061-0.893,0.148c-0.022,0.077,0.405,0.123,0.405,0.123s-0.792,0.076-0.792,0.163c0,0.082,1.018,0.123,0.937,0.123
			c-0.083,0-1.342,0.02-1.342,0.123c0,0.102,0.904,0.316,0.904,0.316l-5.34,0.097c0,0,0.836-0.123,0.836-0.286
			c0-0.169-0.59-0.209-0.59-0.209s2.175,0.041,2.275-0.061c0.102-0.102-0.456-0.174-0.456-0.174s0.864,0.046,0.927-0.051
			c0.058-0.102-1.162-0.271-1.162-0.271s0.713,0.02,0.815-0.102C79.464,83.383,78.02,83.24,78.02,83.24"/>
		<path fill="#487BA2" d="M77.24,83.34c0,0-4.01,0.122-4.349,0.352c-0.347,0.22,2.236,0.45,2.236,0.45s-2.666,0.02-2.869,0.266
			c-0.202,0.25,1.588,0.209,1.588,0.209l-2,0.138l0.959-1.65L77.24,83.34"/>
		<g>
			<path fill="#F3CD2D" d="M68.33,83.61c0.043,0.133-0.033,0.281-0.174,0.332c-0.134,0.041-0.282-0.036-0.326-0.174
				c-0.043-0.138,0.032-0.291,0.17-0.332C68.139,83.39,68.283,83.467,68.33,83.61"/>
			<path fill="#F3CD2D" d="M68.751,86.16c-0.16,0.148-0.279,0.24-0.174,0.475l-0.087,0.041l-0.43-0.914l0.087-0.041
				c0.083,0.163,0.133,0.184,0.209,0.148c0.051-0.02,0.097-0.066,0.138-0.102l0.257-0.24l-0.311-0.664l-0.192,0.02
				c-0.077,0.01-0.166,0.015-0.239,0.051c-0.13,0.066-0.126,0.209-0.079,0.327l-0.087,0.041l-0.326-0.69l0.087-0.046
				c0.18,0.215,0.332,0.205,0.582,0.184l1.577-0.138l0.3,0.322L68.751,86.16 M69.558,84.765l-0.974,0.092l0.268,0.567L69.558,84.765
				"/>
		</g>
		<g>
			<path d="M68.48,86.68l-0.43-0.914c0.051,0.02,0.089,0.036,0.121,0.051l0.328,0.843l0.074-0.041
				c-0.11-0.214-0.002-0.311,0.143-0.444l1.341-1.251l-0.301-0.306l-1.752,0.158c-0.097,0-0.184-0.02-0.273-0.077
				c0.106,0.036,0.185,0.046,0.273,0.046l1.761-0.148l0.312,0.327l-1.314,1.246c-0.17,0.158-0.266,0.245-0.17,0.46l-0.088,0.041
				h0.001L68.48,86.68 M68.303,85.898c-0.037,0-0.07-0.02-0.107-0.071c0.055,0.025,0.081,0.046,0.107,0.046l0.442-0.357
				l-0.315-0.649l-0.178,0.025c-0.1,0.015-0.175,0.026-0.234,0.056c-0.153,0.072-0.096,0.256-0.074,0.306l-0.077-0.112
				c0.015-0.107,0.056-0.179,0.139-0.22c0.063-0.031,0.139-0.041,0.207-0.051l0.228-0.02l0.326,0.669L68.303,85.898"/>
		</g>
		<path fill="#F3CD2D" d="M70.17,88.42c-0.158,0.122-0.166,0.214-0.047,0.383l-0.075,0.056l-0.604-0.832l0.075-0.056
			c0.124,0.168,0.213,0.189,0.377,0.066l1.205-0.894h-0.004l-1.871,0.582l-0.061-0.087l1.06-1.599v-0.005l-0.937,0.695
			c-0.369,0.276-0.398,0.327-0.268,0.552l-0.075,0.056l-0.428-0.593l0.073-0.051c0.188,0.174,0.239,0.189,0.611-0.087l0.882-0.654
			c0.174-0.128,0.163-0.23,0.051-0.388l0.073-0.051l0.496,0.679l-0.785,1.16l1.332-0.409l0.481,0.669l-0.077,0.051
			c-0.13-0.158-0.199-0.199-0.373-0.066L70.17,88.42"/>
		<g>
			<path d="M70.04,88.86l-0.604-0.827c0.052,0.005,0.095,0.015,0.129,0.025l0.49,0.776l0.064-0.046
				c-0.128-0.158-0.116-0.26,0.047-0.383l1.111-0.822c0.144-0.112,0.221-0.102,0.313-0.015c-0.061-0.02-0.095-0.041-0.134-0.041
				l-1.273,0.899c-0.152,0.117-0.161,0.199-0.045,0.362L70.04,88.86 M69.723,88.124c-0.046,0-0.089-0.02-0.133-0.061
				c0.059,0.015,0.096,0.036,0.133,0.036l1.297-0.914l-1.114,0.858C69.833,88.099,69.775,88.124,69.723,88.124 M69.234,87.731
				l0.071-0.122l1.792-0.485l-0.013,0.01L69.234,87.731 M71.744,87.598c-0.05-0.005-0.09-0.015-0.122-0.026l-0.381-0.623
				l-1.317,0.409l0.77-1.175l-0.075-0.102l0.097,0.102l-0.785,1.17l1.318-0.424L71.744,87.598 M69.035,87.271l-0.112-0.112
				c-0.012-0.153,0.082-0.24,0.361-0.444l0.936-0.695l-0.005,0.005l-0.916,0.71C68.932,87.006,68.91,87.052,69.035,87.271
				 M68.811,86.827c-0.053,0-0.097-0.02-0.146-0.056c0.179,0.041,0.202,0.066,0.531-0.179l0.882-0.659
				c0.172-0.122,0.151-0.219,0.047-0.362l0.113,0.117c0.01,0.097-0.02,0.179-0.144,0.271l-0.884,0.659
				C69.021,86.755,68.906,86.827,68.811,86.827"/>
		</g>
		<path fill="#F3CD2D" d="M70.51,89.17c0.152,0.138,0.245,0.138,0.379-0.01l0.916-1.042c0.134-0.148,0.123-0.245-0.032-0.383
			l0.061-0.072l1.285,1.16l-0.221,0.521l-0.091-0.025c0.022-0.322-0.057-0.679-0.3-0.894c-0.189-0.174-0.246-0.107-0.387,0.051
			l-0.369,0.419l0.04,0.041c0.213,0.189,0.339,0.235,0.604,0.087l0.083,0.077l-0.55,0.618l-0.083-0.077
			c0.134-0.266,0.069-0.414-0.137-0.603l-0.047-0.041l-0.402,0.455c-0.109,0.123-0.17,0.22-0.018,0.353
			c0.264,0.24,0.633,0.306,0.969,0.26l0.033,0.077l-0.513,0.26l-1.285-1.159L70.51,89.17"/>
		<g>
			<path d="M71.73,90.42l-0.008-0.005l-1.283-1.159c0.055-0.01,0.101-0.01,0.13-0.01l1.166,1.139l0.117-0.056L71.73,90.42
				 M72.147,90.103c-0.05-0.01-0.096-0.01-0.138-0.01c-0.216,0-0.524-0.046-0.775-0.276c-0.093-0.082-0.065-0.276,0.016-0.373
				l0.402-0.455c0.176,0.148,0.271,0.266,0.274,0.409c-0.032-0.143-0.106-0.235-0.227-0.348l-0.429,0.414
				c-0.074,0.082-0.104,0.261-0.019,0.332c0.325,0.296,0.687,0.291,0.959,0.256L72.147,90.103 M70.705,89.291
				c-0.037,0-0.076-0.015-0.121-0.041c0.154,0.01,0.19,0.026,0.297-0.097l0.916-1.042c0.064-0.066,0.092-0.128,0.089-0.179
				c-0.003-0.056-0.041-0.112-0.121-0.184l0.128,0.102c0.011,0.025,0.019,0.056,0.02,0.082c0.004,0.061-0.027,0.123-0.096,0.199
				l-0.916,1.037C70.829,89.255,70.768,89.291,70.705,89.291 M72.8,88.943c-0.073-0.209-0.166-0.388-0.299-0.506
				c-0.18-0.169-0.232-0.107-0.369,0.046l-0.148,0.169l0.129-0.184c0.143-0.163,0.213-0.23,0.406-0.051
				C72.659,88.54,72.756,88.729,72.8,88.943"/>
		</g>
		<path fill="#F3CD2D" d="M73.8,91.21c-0.014,0.225-0.024,0.424,0.174,0.572l-0.05,0.082l-0.598-0.378
			c0-0.087,0.015-0.184,0.026-0.271l0.043-0.398c0.051-0.404-0.026-0.49-0.126-0.557l-0.34,0.547
			c-0.106,0.174-0.081,0.265,0.093,0.378l-0.047,0.077l-0.868-0.547l0.051-0.082c0.174,0.107,0.268,0.097,0.373-0.077l0.73-1.18
			c0.105-0.169,0.081-0.26-0.093-0.373l0.046-0.077l1.042,0.654c0.359,0.23,0.456,0.567,0.298,0.822
			c-0.167,0.271-0.481,0.25-0.738,0.143c0.04,0.102,0.026,0.209,0.018,0.317L73.8,91.21 M73.385,90.173
			c0.397,0.255,0.6,0.199,0.762-0.061c0.152-0.245,0.065-0.424-0.192-0.587c-0.158-0.097-0.206-0.046-0.292,0.097l-0.326,0.526
			L73.385,90.173"/>
		<g>
			<path d="M73.913,91.87l-0.596-0.378c-0.007-0.087,0.003-0.163,0.013-0.24l0.048-0.439c0.05-0.399-0.024-0.485-0.12-0.547
				l-0.32,0.547c-0.101,0.163-0.079,0.245,0.089,0.357l-0.154-0.077c-0.043-0.097-0.031-0.179,0.041-0.296l0.341-0.547
				c0.121,0.061,0.203,0.148,0.152,0.567l-0.043,0.399c-0.015,0.112-0.026,0.189-0.026,0.265l0.578,0.358l0.043-0.066
				c-0.203-0.138-0.19-0.348-0.175-0.567l0.032-0.347c0.01-0.133,0.018-0.225-0.016-0.312c0.361,0.082,0.604,0.066,0.739-0.158
				c0.163-0.26,0.046-0.582-0.292-0.802l-0.237-0.148l0.25,0.128c0.347,0.22,0.47,0.567,0.302,0.838
				c-0.142,0.23-0.432,0.281-0.755,0.153c0.054,0.072,0.046,0.174,0.039,0.266l-0.036,0.383c-0.014,0.214-0.027,0.419,0.169,0.562
				L73.913,91.87 M72.338,90.711c-0.032,0-0.069-0.005-0.111-0.026c0.048-0.005,0.083,0,0.111,0c0.065,0,0.119-0.041,0.179-0.138
				l0.73-1.18c0.101-0.163,0.079-0.25-0.089-0.352l0.156,0.077c0.041,0.092,0.028,0.174-0.043,0.291l-0.73,1.18
				C72.474,90.665,72.413,90.711,72.338,90.711 M73.81,90.348c-0.118,0-0.259-0.056-0.435-0.168l0.006-0.01
				c0.194,0.102,0.323,0.153,0.429,0.153c0.129,0,0.229-0.072,0.323-0.22c0.139-0.225,0.083-0.399-0.186-0.572l-0.125-0.046
				c-0.059,0-0.096,0.051-0.15,0.138l-0.132,0.214l0.109-0.23c0.056-0.092,0.1-0.153,0.173-0.153l0.139,0.056
				c0.282,0.179,0.342,0.368,0.197,0.608C74.058,90.277,73.948,90.348,73.81,90.348"/>
		</g>
		<path fill="#F3CD2D" d="M74.999,90.39c0.083-0.184,0.043-0.271-0.144-0.357l0.039-0.087l0.93,0.429l-0.036,0.087
			c-0.188-0.087-0.278-0.061-0.361,0.122l-0.568,1.267c-0.083,0.184-0.043,0.271,0.141,0.357l-0.037,0.087l-0.93-0.429l0.036-0.087
			c0.188,0.087,0.278,0.056,0.361-0.123L74.999,90.39"/>
		<g>
			<path d="M74.958,92.31l-0.931-0.424l0.039-0.015l0.889,0.408l0.031-0.071c-0.189-0.072-0.226-0.169-0.14-0.357l0.568-1.267
				c0.058-0.123,0.119-0.179,0.207-0.179l0.147-0.02l-0.147,0.046c-0.077,0-0.129,0.046-0.183,0.163l-0.567,1.267
				c-0.08,0.179-0.048,0.255,0.133,0.342L74.958,92.31 M74.09,91.866l0.147-0.046c0.077,0,0.129-0.046,0.181-0.163l0.568-1.267
				c0.08-0.174,0.047-0.256-0.137-0.342l0.166,0.056c0.055,0.087,0.054,0.168-0.004,0.296l-0.568,1.267
				c-0.057,0.128-0.119,0.179-0.207,0.179L74.09,91.866"/>
		</g>
		<path fill="#F3CD2D" d="M77.27,91.49h-0.133c-0.033-0.306-0.171-0.664-0.478-0.766c-0.412-0.133-0.673,0.368-0.779,0.689
			c-0.209,0.664,0.029,1.047,0.333,1.144c0.268,0.087,0.499-0.046,0.706-0.204l0.054,0.077c-0.29,0.271-0.616,0.409-1.01,0.281
			c-0.54-0.179-0.775-0.756-0.608-1.282c0.18-0.572,0.734-1.01,1.299-0.822c0.097,0.031,0.17,0.077,0.227,0.123
			c0.061,0.041,0.112,0.087,0.167,0.107c0.071,0.021,0.148,0.01,0.217,0l0.036-0.005L77.27,91.49"/>
		<g>
			<path d="M76.26,92.78c-0.094,0-0.194-0.015-0.294-0.046c-0.521-0.174-0.793-0.746-0.616-1.303
				c0.194-0.613,0.782-1.01,1.315-0.832c0.105,0.036,0.179,0.087,0.232,0.128l0.158,0.117l0.003-0.015l0.213,0.01l-0.221,0.015
				l-0.17-0.107c-0.052-0.036-0.124-0.087-0.225-0.122c-0.521-0.169-1.092,0.209-1.282,0.812c-0.17,0.547,0.093,1.103,0.6,1.272
				c0.25,0.077,0.486,0.056,0.719-0.071C76.562,92.739,76.414,92.78,76.26,92.78 M75.919,92.295
				c-0.138-0.204-0.165-0.495-0.045-0.878c0.055-0.169,0.264-0.72,0.656-0.72c0.049,0.015,0.094,0.031,0.135,0.051
				c-0.014,0-0.024,0-0.035,0c-0.481,0-0.679,0.516-0.732,0.679C75.778,91.81,75.809,92.101,75.919,92.295"/>
		</g>
		<path fill="#F3CD2D" d="M78.71,92.79c0.033,0.214,0.037,0.368,0.29,0.414l-0.014,0.097l-0.992-0.163l0.019-0.092
			c0.18,0.02,0.227-0.005,0.241-0.092c0.008-0.056,0-0.117-0.006-0.174l-0.051-0.347l-0.716-0.118l-0.091,0.163
			c-0.039,0.077-0.083,0.153-0.093,0.235c-0.026,0.143,0.097,0.225,0.22,0.25l-0.018,0.097l-0.748-0.123l0.014-0.097
			c0.275-0.031,0.355-0.163,0.478-0.383l0.785-1.394l0.43-0.066L78.71,92.79 M78.037,91.323l-0.48,0.863l0.618,0.102L78.037,91.323"
			/>
		<g>
			<path d="M78.98,93.31l-0.991-0.158l0.25-0.194c-0.022,0.092-0.064,0.107-0.133,0.107l0.865,0.215l0.013-0.077
				c-0.235-0.031-0.256-0.174-0.283-0.373l-0.259-1.834l-0.416,0.082l-0.775,1.389c-0.087,0.153-0.153,0.266-0.276,0.327
				c0.109-0.092,0.17-0.199,0.253-0.342l0.785-1.394l0.441-0.072l0.268,1.798c0.033,0.235,0.052,0.363,0.278,0.409L78.98,93.31
				 M77.517,92.953h-0.13c-0.071-0.066-0.125-0.143-0.107-0.245c0.012-0.082,0.056-0.163,0.096-0.235l0.091-0.169l0.73,0.112
				l0.061,0.363c-0.001,0.071-0.006,0.128-0.015,0.168h-0.004l-0.059-0.516l-0.704-0.107l-0.078,0.163
				c-0.037,0.066-0.08,0.148-0.092,0.225C77.277,92.881,77.461,92.938,77.517,92.953"/>
		</g>
		<path fill="#F3CD2D" d="M81.64,91.69l-0.127,0.046c-0.14-0.265-0.395-0.552-0.72-0.531c-0.434,0.026-0.495,0.587-0.478,0.924
			c0.043,0.695,0.402,0.966,0.72,0.945c0.282-0.015,0.448-0.225,0.582-0.45l0.08,0.051c-0.174,0.363-0.428,0.608-0.84,0.633
			c-0.568,0.036-0.995-0.424-1.027-0.975c-0.037-0.598,0.326-1.206,0.915-1.241c0.102-0.005,0.185,0.01,0.26,0.031
			c0.073,0.02,0.13,0.041,0.189,0.036c0.075-0.005,0.14-0.046,0.206-0.082l0.03-0.015L81.64,91.69"/>
		<g>
			<path d="M80.8,93.32c-0.525,0-0.945-0.424-0.978-0.991c-0.035-0.572,0.31-1.216,0.928-1.252c0.138-0.046,0.206,0.015,0.264,0.031
				l0.184,0.031c0.066,0,0.127-0.036,0.185-0.066l0.008,0.015c-0.07,0.051-0.127,0.077-0.192,0.082l-0.191-0.036
				c-0.059-0.015-0.13-0.031-0.212-0.031c-0.646,0.036-0.982,0.664-0.947,1.226c0.033,0.546,0.442,0.965,0.951,0.965v0.01
				l0.063-0.015c0.22-0.015,0.402-0.092,0.554-0.235c-0.135,0.168-0.327,0.25-0.553,0.26L80.8,93.32 M81.039,93.08
				c-0.331,0-0.688-0.25-0.732-0.955c-0.024-0.439,0.093-0.914,0.49-0.935h0.002c0.23,0,0.405,0.117,0.53,0.25
				c-0.141-0.117-0.3-0.225-0.495-0.225c-0.522,0.025-0.508,0.761-0.499,0.909c0.042,0.684,0.388,0.93,0.67,0.93
				c0.314-0.015,0.475-0.22,0.607-0.444c-0.013,0.066-0.03,0.128-0.047,0.179c-0.143,0.143-0.298,0.281-0.522,0.291
				C81.04,93.08,81.039,93.08,81.039,93.08"/>
		</g>
		<path fill="#F3CD2D" d="M82.04,93.06c0.199-0.046,0.257-0.123,0.209-0.322l-0.31-1.353c-0.043-0.194-0.127-0.24-0.33-0.194
			l-0.018-0.092l1.676-0.393l0.292,0.485l-0.075,0.056c-0.243-0.204-0.58-0.342-0.898-0.271c-0.246,0.061-0.229,0.143-0.181,0.353
			l0.126,0.547l0.059-0.01c0.275-0.066,0.387-0.143,0.416-0.45l0.109-0.026l0.188,0.817l-0.109,0.026
			c-0.142-0.271-0.296-0.301-0.572-0.235l-0.058,0.01l0.134,0.598c0.036,0.158,0.079,0.265,0.278,0.22
			c0.344-0.082,0.608-0.348,0.764-0.654l0.083,0.02l-0.087,0.572l-1.676,0.393L82.04,93.06"/>
		<g>
			<path d="M82.05,93.17l-0.025-0.107c0.115-0.041,0.174-0.071,0.203-0.122c0.027-0.041,0.031-0.107,0.008-0.199l-0.311-1.354
				c-0.032-0.148-0.083-0.199-0.19-0.199l0.06-0.021c0.098,0.041,0.134,0.107,0.157,0.215l0.312,1.353
				c0.023,0.097,0.02,0.169-0.011,0.22c-0.033,0.056-0.098,0.092-0.209,0.118l0.017,0.066l1.687-0.485l0.005,0.107L82.05,93.17
				 M82.947,92.838c-0.201,0-0.235-0.107-0.263-0.235L82.55,92.01c0.439-0.148,0.432-0.066,0.545,0.051
				c-0.152-0.087-0.248-0.102-0.471-0.056l0.087,0.592c0.033,0.148,0.069,0.22,0.18,0.22c0.389-0.082,0.664-0.317,0.838-0.659
				l0.004,0.133c-0.218,0.276-0.473,0.475-0.753,0.542C82.968,92.838,82.957,92.838,82.947,92.838 M82.466,91.535l-0.075-0.205
				c-0.047-0.214-0.069-0.306,0.191-0.368c0.254-0.02,0.455,0.02,0.621,0.092c-0.16-0.051-0.304-0.087-0.44-0.087
				c-0.409,0.077-0.392,0.148-0.345,0.352L82.466,91.535"/>
		</g>
		<path fill="#F3CD2D" d="M85.62,91.31l-0.383-0.884c-0.098-0.219-0.174-0.342-0.442-0.245l-0.039-0.092l0.687-0.306l0.041,0.087
			c-0.232,0.153-0.211,0.266-0.109,0.496l0.636,1.476l-0.239,0.102l-1.7-1.037l0.437,1.017c0.128,0.286,0.181,0.332,0.481,0.266
			l0.037,0.087l-0.738,0.327l-0.041-0.087c0.236-0.153,0.247-0.25,0.142-0.496l-0.525-1.216c-0.112-0.056-0.253-0.077-0.377-0.051
			l-0.039-0.087l0.667-0.291L85.62,91.31"/>
		<g>
			<path d="M84.28,92.62l-0.047-0.102c0.237-0.163,0.242-0.255,0.142-0.495l-0.525-1.216c-0.069-0.031-0.16-0.051-0.252-0.051
				l-0.097-0.072c0.206,0.046,0.295,0.066,0.368,0.107l0.531,1.221c0.105,0.245,0.098,0.357-0.147,0.511l0.027,0.066l0.163-0.072
				L84.28,92.62 M84.897,92.227c-0.043-0.01-0.073-0.005-0.098,0c-0.156,0-0.212-0.092-0.305-0.301l-0.437-1.017l1.72,1.021
				l0.226-0.107l-0.644-1.451c-0.071-0.163-0.103-0.271-0.039-0.373c-0.032,0.117-0.001,0.209,0.065,0.357l0.636,1.476l-0.245,0.123
				l-1.714-1.042l0.457,1c0.129,0.291,0.139,0.332,0.466,0.256L84.897,92.227 M85.63,91.301l-1.525-0.919l-0.634,0.286l-0.03-0.015
				l0.665-0.296l1.518,0.94l-0.404-0.863c-0.071-0.168-0.129-0.276-0.269-0.276l-0.086-0.041l0.086,0.015
				c0.156,0,0.221,0.117,0.295,0.286L85.63,91.301"/>
		</g>
		<path fill="#F3CD2D" d="M86.967,88.72l0.45,0.393l-0.069,0.082c-0.235-0.102-0.598-0.179-0.825-0.031l0.916,1.354
			c0.111,0.168,0.206,0.184,0.375,0.061l0.051,0.082l-0.843,0.582l-0.051-0.082c0.17-0.112,0.191-0.209,0.079-0.373l-0.914-1.354
			c-0.217,0.189-0.276,0.501-0.268,0.782l-0.105,0.036l-0.207-0.557L86.967,88.72"/>
		<g>
			<path d="M87.02,91.26l-0.059-0.092c0.168-0.133,0.188-0.22,0.08-0.378l-0.916-1.354c-0.209,0.204-0.249,0.536-0.242,0.776
				l-0.072-0.107c0.056-0.245,0.118-0.511,0.317-0.684l0.935,1.354c0.116,0.169,0.095,0.276-0.083,0.393l0.036,0.061l0.189-0.133
				L87.02,91.26 M87.63,90.668c-0.072,0-0.133-0.046-0.201-0.143l-0.916-1.354c0.155-0.133,0.387-0.128,0.648-0.061
				c-0.29-0.005-0.487-0.031-0.63,0.061l0.919,1.338c0.112,0.163,0.19,0.174,0.358,0.056l-0.107,0.097
				C87.675,90.668,87.651,90.668,87.63,90.668 M85.59,89.769l-0.044-0.072l1.416-0.991l0.466,0.393
				c-0.046,0.005-0.091,0.01-0.133,0.01l-0.334-0.383l-1.393,0.981L85.59,89.769"/>
		</g>
		<path fill="#F3CD2D" d="M89.41,88.61c0.213,0.066,0.405,0.123,0.594-0.036l0.065,0.071l-0.503,0.495
			c-0.087-0.02-0.17-0.056-0.257-0.087l-0.369-0.138c-0.381-0.143-0.481-0.087-0.564,0l0.444,0.46
			c0.142,0.143,0.235,0.138,0.383-0.01l0.065,0.071l-0.73,0.72l-0.065-0.066c0.148-0.143,0.152-0.24,0.014-0.383l-0.962-0.996
			c-0.142-0.143-0.236-0.138-0.384,0.005l-0.065-0.066l0.876-0.868c0.304-0.301,0.647-0.317,0.861-0.102
			c0.217,0.23,0.124,0.531-0.036,0.766c0.105-0.025,0.209,0.015,0.308,0.051L89.41,88.61 M88.317,88.779
			c0.337-0.332,0.333-0.547,0.12-0.766c-0.203-0.209-0.391-0.163-0.608,0.051c-0.138,0.133-0.091,0.194,0.022,0.306l0.43,0.45
			L88.317,88.779"/>
		<g>
			<path d="M88.54,90.17l-0.075-0.077c0.144-0.158,0.148-0.245,0.015-0.383l-0.963-0.996c-0.138-0.138-0.213-0.138-0.365,0.005
				l0.097-0.112c0.115-0.036,0.179-0.02,0.287,0.087l0.963,0.996c0.143,0.148,0.139,0.25-0.015,0.404l0.047,0.051l0.162-0.163
				L88.54,90.17 M89.007,89.486c-0.06,0-0.12-0.036-0.195-0.112l-0.444-0.459c0.1-0.133,0.241-0.148,0.578-0.015l0.622,0.235
				l-0.01-0.005l0.113-0.112l-0.1,0.133l-0.634-0.225c-0.323-0.123-0.456-0.107-0.55-0.01l0.446,0.444
				c0.14,0.143,0.216,0.143,0.364-0.01l-0.093,0.117C89.066,89.481,89.038,89.486,89.007,89.486 M88.329,88.781l-0.01-0.01
				c0.346-0.373,0.292-0.567,0.11-0.756c-0.185-0.189-0.359-0.174-0.589,0.051c-0.126,0.123-0.092,0.169,0.022,0.291l0.178,0.179
				l-0.197-0.163c-0.114-0.117-0.166-0.184-0.02-0.327c0.241-0.24,0.428-0.255,0.626-0.046
				C88.684,88.235,88.649,88.464,88.329,88.781 M89.733,88.684c-0.105,0-0.212-0.036-0.325-0.066l-0.327-0.112
				c-0.08-0.031-0.161-0.061-0.24-0.061c0.001-0.02,0.032-0.01,0.05-0.01c0.079,0,0.138,0.02,0.195,0.041l0.33,0.117
				c0.221,0.061,0.42,0.102,0.581-0.036l-0.069,0.097C89.859,88.669,89.798,88.684,89.733,88.684 M88.886,88.275
				c0.05-0.174,0.1-0.404-0.08-0.592c-0.215-0.215-0.565-0.174-0.842,0.102l-0.197,0.194l0.176-0.214
				c0.292-0.286,0.66-0.327,0.881-0.102C89.014,87.862,88.964,88.102,88.886,88.275"/>
		</g>
		<path fill="#F3CD2D" d="M90.87,86.73c0.202,0.066,0.34,0.128,0.492-0.077l0.077,0.056l-0.58,0.822l-0.075-0.056
			c0.101-0.153,0.093-0.209,0.026-0.26c-0.043-0.031-0.102-0.051-0.156-0.066l-0.333-0.112l-0.423,0.598l0.111,0.158
			c0.043,0.066,0.098,0.143,0.163,0.189c0.116,0.082,0.239,0.005,0.318-0.092l0.077,0.061l-0.438,0.618l-0.077-0.051
			c0.091-0.26,0.012-0.393-0.13-0.608l-0.886-1.328l0.134-0.419L90.87,86.73 M89.274,86.694l0.546,0.817l0.361-0.516L89.274,86.694"
			/>
		<g>
			<path d="M90.13,88.59l-0.088-0.061c0.082-0.266,0.011-0.388-0.134-0.608l-0.885-1.328l0.132-0.429l1.718,0.552
				c0.263,0.092,0.354,0.097,0.478-0.066l-0.068,0.123c-0.125,0.051-0.237,0.031-0.387-0.02l-1.732-0.572l-0.118,0.409l0.885,1.318
				c0.149,0.225,0.222,0.353,0.132,0.613l0.052,0.046l0.098-0.138L90.13,88.59 M90.275,88.028c-0.178-0.082-0.231-0.153-0.279-0.225
				l-0.112-0.163l0.424-0.608l0.347,0.107c0.063,0.031,0.109,0.061,0.14,0.087l-0.481-0.174l-0.409,0.587l0.112,0.148
				c0.047,0.066,0.098,0.138,0.16,0.184c0.16,0.025,0.237-0.01,0.3-0.092l-0.049,0.102C90.379,88.008,90.33,88.028,90.275,88.028
				 M89.83,87.517l-0.591-0.848l0.946,0.312L89.83,87.517"/>
		</g>
		<path fill="#F3CD2D" d="M91.4,86.53c0.091-0.189,0.065-0.281-0.112-0.373l-1.23-0.618c-0.181-0.092-0.268-0.051-0.359,0.133
			l-0.087-0.041l0.456-0.924l0.084,0.041c-0.09,0.189-0.065,0.281,0.111,0.368l1.235,0.618c0.152,0.077,0.221,0.112,0.31-0.082
			c0.16-0.317,0.084-0.69-0.046-1l0.054-0.051l0.43,0.414l-0.764,1.558L91.4,86.53"/>
		<g>
			<path d="M91.49,86.59l-0.096-0.051c0.083-0.199,0.057-0.286-0.112-0.368l-1.23-0.618c-0.22-0.046-0.28,0.005-0.34,0.123
				l0.052-0.148c0.05-0.031,0.089-0.051,0.137-0.051l1.393,0.669c0.183,0.092,0.213,0.189,0.119,0.388l0.059,0.031l0.764-1.558
				l-0.077-0.071l0.097,0.066L91.49,86.59 M91.664,85.808l-1.406-0.679c-0.121-0.066-0.176-0.128-0.17-0.225
				c0.028,0.092,0.077,0.143,0.183,0.199l1.235,0.618c0.211,0.061,0.247,0.02,0.291-0.077c0.134-0.266,0.119-0.598-0.046-0.991
				l0.088,0.061c0.106,0.383,0.109,0.69-0.017,0.94C91.772,85.762,91.725,85.808,91.664,85.808"/>
		</g>
		<path fill="#F3CD2D" d="M91.61,83.61c0.043-0.138,0.193-0.214,0.33-0.168c0.138,0.041,0.214,0.189,0.171,0.327
			c-0.043,0.143-0.193,0.219-0.33,0.174C91.643,83.901,91.567,83.748,91.61,83.61"/>
		<g>
			<path d="M91.86,83.964l-0.083-0.01c-0.142-0.046-0.225-0.204-0.178-0.347c0.035-0.117,0.143-0.194,0.26-0.194
				c0.23,0.056,0.31,0.214,0.263,0.357C92.089,83.888,91.983,83.964,91.86,83.964"/>
		</g>
		<path fill="#F3CD2D" d="M68.34,81.01c0.178-0.138,0.337-0.26,0.315-0.511l0.095-0.01l0.109,0.705
			c-0.065,0.061-0.146,0.107-0.217,0.158l-0.326,0.225c-0.341,0.225-0.351,0.342-0.333,0.46l0.629-0.097
			c0.199-0.031,0.249-0.112,0.217-0.317l0.095-0.015l0.154,1.022l-0.089,0.015c-0.033-0.209-0.106-0.265-0.304-0.235l-1.358,0.214
			c-0.199,0.031-0.249,0.112-0.217,0.317l-0.094,0.015l-0.188-1.226c-0.065-0.424,0.12-0.72,0.416-0.766
			c0.311-0.046,0.499,0.205,0.594,0.47c0.046-0.097,0.137-0.158,0.224-0.219L68.34,81.01 M67.841,82.006
			c-0.071-0.47-0.249-0.587-0.545-0.536c-0.286,0.041-0.363,0.22-0.315,0.531c0.029,0.184,0.101,0.184,0.264,0.158l0.604-0.097
			L67.841,82.006"/>
		<g>
			<path d="M67.01,82.958l-0.189-1.221c-0.064-0.419,0.109-0.73,0.428-0.782c0.347-0.046,0.543,0.296,0.608,0.475
				c0.022-0.097,0.11-0.158,0.195-0.22l0.287-0.209c0.178-0.138,0.331-0.255,0.309-0.495l0.048,0.143
				c-0.073,0.168-0.203,0.271-0.341,0.373l-0.278,0.205c-0.093,0.066-0.178,0.128-0.221,0.214c-0.087-0.174-0.235-0.465-0.532-0.465
				c-0.376,0.051-0.538,0.352-0.475,0.756l0.186,1.211l0.08-0.015c-0.031-0.097-0.022-0.168,0.015-0.219s0.098-0.077,0.202-0.092
				l1.356-0.22c0.13-0.025,0.225,0.026,0.269,0.092c-0.059-0.051-0.107-0.072-0.183-0.072l-1.44,0.225
				c-0.093,0.015-0.152,0.041-0.183,0.082c-0.032,0.046-0.04,0.112-0.022,0.22L67.01,82.958 M67.196,82.177
				c-0.166,0-0.204-0.051-0.224-0.174c-0.028-0.184-0.01-0.317,0.056-0.408c0.055-0.072,0.143-0.117,0.271-0.138l0.115-0.01
				c0.253,0,0.387,0.169,0.447,0.562h-0.017c-0.077-0.383-0.202-0.536-0.43-0.536v-0.01l-0.111,0.02
				c-0.12,0.02-0.202,0.061-0.253,0.133c-0.061,0.082-0.078,0.209-0.05,0.383c0.02,0.138,0.064,0.163,0.137,0.163l0.385-0.062
				l-0.269,0.072C67.233,82.177,67.214,82.177,67.196,82.177 M67.99,82.054c-0.035-0.133-0.022-0.256,0.324-0.485l0.324-0.225
				c0.114-0.077,0.169-0.117,0.216-0.158l-0.018-0.117l0.041,0.123c-0.054,0.061-0.11,0.097-0.164,0.138l-0.383,0.26
				c-0.332,0.225-0.345,0.337-0.327,0.45l0.614-0.107c0.189-0.031,0.236-0.102,0.205-0.306l0.047,0.174
				c-0.041,0.092-0.112,0.138-0.249,0.158L67.99,82.054"/>
		</g>
		<path fill="#F3CD2D" d="M68.67,80.39c0.008-0.209-0.054-0.281-0.253-0.291l-1.375-0.056c-0.199-0.005-0.264,0.066-0.271,0.276
			l-0.094-0.005l0.065-1.742l0.539-0.163l0.037,0.092c-0.258,0.184-0.479,0.475-0.493,0.807c-0.006,0.255,0.077,0.26,0.286,0.265
			l0.557,0.026l0.004-0.061c0.012-0.286-0.032-0.414-0.318-0.526l0.004-0.112l0.825,0.031l-0.004,0.112
			c-0.294,0.072-0.361,0.215-0.373,0.496L67.802,79.6l0.601,0.026c0.166,0.005,0.279-0.005,0.285-0.209
			c0.015-0.363-0.174-0.684-0.423-0.919l0.043-0.077l0.521,0.235l-0.065,1.736H68.67L68.67,80.39z"/>
		<g>
			<path d="M68.781,80.4h-0.107c-0.006-0.22-0.062-0.286-0.254-0.291l-1.375-0.056c-0.124,0.005-0.25,0.061-0.257,0.26l-0.006-0.189
				c0.055-0.071,0.124-0.097,0.237-0.097l1.403,0.051c0.206,0.01,0.273,0.087,0.266,0.306h0.066l0.065-1.736l-0.083-0.036
				l0.102,0.02L68.781,80.4 M68.447,79.634l-0.641-0.025c0-0.23,0.028-0.383,0.137-0.475c-0.088,0.118-0.112,0.235-0.119,0.399
				l0.583,0.071c0.001,0,0.003,0,0.005,0c0.188,0,0.26-0.031,0.267-0.194c0.017-0.434-0.255-0.756-0.419-0.914l0.115,0.031
				c0.147,0.209,0.346,0.506,0.331,0.884C68.698,79.619,68.58,79.634,68.447,79.634 M67.114,79.583
				c-0.209-0.01-0.305-0.01-0.298-0.281c0.008-0.194,0.089-0.388,0.226-0.562c-0.116,0.194-0.192,0.383-0.199,0.562
				c-0.008,0.245,0.062,0.245,0.273,0.255l0.217,0.005L67.114,79.583"/>
		</g>
		<path fill="#F3CD2D" d="M68.08,77.4l0.589,0.133c0.193,0.046,0.272-0.01,0.315-0.214l0.091,0.02l-0.221,1.01l-0.094-0.026
			c0.047-0.199,0-0.286-0.195-0.327l-1.342-0.307c-0.191-0.041-0.271,0.01-0.314,0.215l-0.091-0.015l0.221-1.017
			c0.14-0.633,0.456-0.812,0.73-0.746c0.513,0.112,0.452,0.628,0.365,1.027L68.08,77.4 M67.972,77.378l0.036-0.169
			c0.075-0.337-0.014-0.521-0.34-0.598c-0.304-0.066-0.475,0.072-0.532,0.332c-0.051,0.23,0.036,0.25,0.229,0.296L67.972,77.378"/>
		<g>
			<path d="M68.865,78.36l-0.107-0.026c0.014-0.123,0.012-0.189-0.018-0.235c-0.028-0.046-0.083-0.071-0.178-0.097l-1.342-0.301
				c-0.217,0-0.265,0.046-0.299,0.204l0.016-0.163c0.052-0.056,0.105-0.082,0.178-0.082l1.452,0.317
				c0.102,0.025,0.163,0.056,0.195,0.107c0.035,0.056,0.037,0.128,0.012,0.24l0.066,0.015l0.051-0.23L68.865,78.36 M68.777,77.553
				l-0.7-0.148l0.043-0.255c0.097-0.439,0.128-0.909-0.354-1.017c-0.387-0.015-0.608,0.26-0.715,0.741L67,77.104l0.024-0.235
				c0.11-0.49,0.342-0.771,0.64-0.771c0.614,0.123,0.581,0.603,0.484,1.057L68.093,77.4l0.58,0.117
				c0.214-0.01,0.263-0.046,0.298-0.204l-0.015,0.163C68.903,77.533,68.85,77.553,68.777,77.553 M67.361,77.247
				c-0.189-0.041-0.291-0.066-0.239-0.306c0.053-0.235,0.19-0.363,0.4-0.363l0.149,0.02c0.326,0.077,0.43,0.256,0.351,0.613H68
				c0.05-0.383-0.056-0.526-0.334-0.587l-0.143-0.015c-0.198,0-0.323,0.112-0.372,0.337c-0.05,0.215,0.028,0.235,0.217,0.276
				l0.092,0.02L67.361,77.247"/>
		</g>
		<path fill="#F3CD2D" d="M68.82,75.63c0.478,0.204,0.675,0.107,0.796-0.179c0.156-0.388-0.033-0.603-0.416-0.766l-0.926-0.378
			c-0.185-0.077-0.272-0.036-0.347,0.153l-0.091-0.031l0.268-0.659l0.087,0.036c-0.08,0.189-0.047,0.281,0.137,0.357l0.949,0.393
			c0.458,0.189,0.622,0.496,0.408,1.017c-0.213,0.531-0.558,0.695-0.967,0.526l-1-0.414c-0.185-0.077-0.268-0.036-0.347,0.158
			l-0.087-0.036l0.387-0.955l0.087,0.036c-0.077,0.189-0.047,0.281,0.137,0.357l0.93,0.385"/>
		<g>
			<path d="M69.01,76.18c-0.094,0-0.195-0.02-0.299-0.061l-1.01-0.419c-0.218-0.036-0.273,0.02-0.33,0.153l0.044-0.153
				c0.05-0.041,0.093-0.061,0.148-0.061l1.154,0.455c0.41,0.168,0.746-0.015,0.949-0.521c0.104-0.255,0.119-0.459,0.047-0.623
				c-0.068-0.153-0.213-0.276-0.45-0.373l-0.947-0.393c-0.097-0.041-0.151-0.087-0.172-0.143c-0.016-0.036-0.018-0.082-0.006-0.133
				c0.015,0.056,0.018,0.092,0.031,0.128c0.02,0.046,0.069,0.087,0.158,0.122l0.949,0.393c0.241,0.097,0.393,0.225,0.464,0.388
				c0.074,0.174,0.059,0.383-0.047,0.644c-0.159,0.393-0.396,0.597-0.687,0.597 M69.235,75.756c-0.114,0-0.253-0.036-0.427-0.112
				l-0.93-0.383c-0.125-0.051-0.184-0.112-0.184-0.204c0.032,0.087,0.086,0.138,0.195,0.179l0.93,0.383
				c0.169,0.077,0.305,0.112,0.415,0.112c0.17,0,0.282-0.087,0.363-0.281c0.138-0.342,0.016-0.567-0.409-0.746l-0.927-0.383
				c-0.225-0.036-0.277,0.015-0.328,0.148l0.031-0.143c0.054-0.046,0.099-0.066,0.156-0.066l1.079,0.419
				c0.437,0.184,0.568,0.424,0.424,0.781C69.537,75.664,69.417,75.756,69.235,75.756"/>
		</g>
		<path fill="#F3CD2D" d="M69.984,74.69l-0.079-0.051c0.109-0.174,0.093-0.271-0.077-0.378l-1.158-0.746
			c-0.17-0.107-0.26-0.082-0.372,0.092l-0.08-0.051l0.558-0.879c0.391-0.623,0.665-0.638,0.878-0.501
			c0.25,0.158,0.203,0.49,0.112,0.73l0.008,0.005c0.22-0.24,0.495-0.455,0.821-0.245c0.282,0.184,0.336,0.511,0.039,0.986
			L69.984,74.69 M69.471,73.275c0.191-0.306,0.176-0.511-0.073-0.669c-0.253-0.163-0.426-0.066-0.576,0.168
			c-0.032,0.056-0.075,0.138-0.061,0.199c0.018,0.056,0.069,0.087,0.112,0.112l0.511,0.327L69.471,73.275 M70.002,73.811
			c0.209,0.133,0.296,0.199,0.456-0.056c0.148-0.235,0.144-0.485-0.166-0.684c-0.213-0.138-0.428-0.174-0.71,0.276l-0.087,0.138
			L70.002,73.811"/>
		<g>
			<path d="M69.989,74.71l-0.092-0.061c0.102-0.189,0.086-0.276-0.077-0.378l-1.157-0.746c-0.231-0.061-0.286-0.015-0.354,0.092
				l0.065-0.143c0.047-0.026,0.086-0.036,0.127-0.036l0.176,0.066l1.158,0.746c0.174,0.107,0.194,0.214,0.081,0.398l0.056,0.036
				l0.651-1.042c0.276-0.439,0.263-0.771-0.036-0.966c-0.305-0.189-0.61,0.031-0.804,0.24c0.001-0.005,0.003-0.01,0.004-0.015
				c0.18-0.23,0.502-0.445,0.815-0.245c0.31,0.199,0.326,0.552,0.045,1L69.989,74.71 M70.252,73.943
				c-0.069,0-0.142-0.046-0.241-0.112l-0.522-0.337c0.364-0.618,0.511-0.628,0.81-0.434c0.361,0.23,0.292,0.506,0.171,0.705
				C70.391,73.887,70.326,73.943,70.252,73.943 M70.039,72.988c-0.148,0-0.29,0.117-0.445,0.362l0.415,0.45
				c0.229,0.143,0.293,0.174,0.437-0.051c0.165-0.266,0.109-0.496-0.162-0.669C70.19,73.019,70.113,72.988,70.039,72.988
				 M69.482,73.284l-0.022-0.01c0.181-0.352,0.143-0.521-0.07-0.659c-0.225-0.143-0.391-0.097-0.555,0.163
				c-0.019,0.031-0.045,0.082-0.056,0.123c-0.009-0.061,0.014-0.102,0.032-0.138c0.176-0.271,0.359-0.322,0.595-0.168
				C69.659,72.753,69.681,72.962,69.482,73.284 M68.662,72.881l0.101-0.215c0.331-0.526,0.61-0.69,0.899-0.501
				c0.273,0.174,0.192,0.531,0.129,0.71c0.036-0.184,0.111-0.526-0.144-0.69c-0.279-0.174-0.539-0.015-0.859,0.496L68.662,72.881"/>
		</g>
		<path fill="#F3CD2D" d="M71.06,72.84c0.137-0.153,0.14-0.25-0.008-0.383l-1.02-0.935c-0.148-0.138-0.242-0.128-0.381,0.031
			l-0.069-0.066l0.684-0.766l0.069,0.066c-0.138,0.148-0.138,0.25,0.01,0.388l1.02,0.93c0.124,0.117,0.181,0.163,0.323,0.005
			c0.239-0.26,0.263-0.638,0.22-0.975l0.073-0.036l0.3,0.521l-1.154,1.287L71.06,72.84"/>
		<g>
			<path d="M71.13,72.926l-0.079-0.077c0.071-0.097,0.102-0.158,0.1-0.214c-0.003-0.051-0.037-0.107-0.106-0.169l-1.02-0.935
				c-0.145-0.133-0.223-0.128-0.361,0.031l0.087-0.122c0.111-0.046,0.178-0.031,0.293,0.066l1.02,0.94
				c0.077,0.072,0.112,0.128,0.115,0.189c0.004,0.061-0.029,0.128-0.107,0.214l0.05,0.046l1.153-1.287l-0.051-0.087l0.073,0.087
				L71.13,72.926 M71.535,72.227c-0.056,0-0.104-0.041-0.176-0.112l-1.02-0.93c-0.102-0.097-0.137-0.174-0.106-0.265
				c0.003,0.097,0.036,0.158,0.124,0.24l1.02,0.935c0.069,0.066,0.112,0.102,0.158,0.102c0.345-0.311,0.417-0.638,0.362-1.062
				l0.074,0.087c-0.005,0.398-0.086,0.695-0.272,0.899C71.635,72.191,71.585,72.227,71.535,72.227"/>
		</g>
		<path fill="#F3CD2D" d="M71.55,69.974c-0.126-0.153-0.221-0.158-0.379-0.025l-0.062-0.077l0.785-0.659l0.061,0.072
			c-0.158,0.138-0.174,0.23-0.043,0.388l0.876,1.068c0.13,0.158,0.225,0.158,0.383,0.026l0.059,0.071l-0.785,0.659l-0.057-0.072
			c0.154-0.133,0.17-0.225,0.043-0.383L71.55,69.974"/>
		<g>
			<path d="M72.44,71.52l-0.066-0.082c0.154-0.148,0.164-0.235,0.043-0.383l-0.879-1.068c-0.125-0.158-0.203-0.163-0.36-0.025
				l0.098-0.107c0.115-0.025,0.181-0.01,0.283,0.112l0.879,1.068c0.13,0.163,0.119,0.266-0.045,0.404l0.041,0.051l0.178-0.148
				L72.44,71.52 M72.975,70.876c-0.066,0-0.128-0.036-0.199-0.123L71.9,69.68c-0.089-0.107-0.114-0.184-0.07-0.271
				c-0.011,0.092,0.014,0.163,0.092,0.256l0.876,1.068c0.122,0.153,0.198,0.158,0.362,0.026l-0.097,0.107
				C73.029,70.871,73.002,70.876,72.975,70.876"/>
		</g>
		<path fill="#F3CD2D" d="M74,68.52l-0.087,0.102c-0.249-0.163-0.612-0.291-0.886-0.117c-0.365,0.24-0.152,0.761,0.026,1.042
			c0.369,0.592,0.813,0.649,1.082,0.475c0.239-0.148,0.286-0.414,0.296-0.674l0.094,0.005c0.018,0.399-0.083,0.741-0.434,0.966
			c-0.478,0.306-1.071,0.117-1.364-0.353c-0.319-0.506-0.29-1.211,0.209-1.532c0.087-0.056,0.166-0.082,0.239-0.102
			s0.138-0.031,0.185-0.061c0.061-0.041,0.101-0.107,0.14-0.169l0.018-0.031L74,68.52"/>
		<g>
			<path d="M73.59,70.48c-0.344,0-0.678-0.194-0.873-0.511c-0.304-0.485-0.309-1.216,0.213-1.553
				c0.092-0.056,0.174-0.082,0.243-0.097l0.181-0.061c0.055-0.036,0.093-0.097,0.13-0.153l0.013,0.01
				c-0.038,0.077-0.075,0.128-0.129,0.163l-0.188,0.066c-0.066,0.015-0.148,0.041-0.235,0.097c-0.509,0.327-0.503,1.042-0.206,1.517
				c0.287,0.459,0.905,0.628,1.345,0.347c0.19-0.123,0.315-0.286,0.378-0.49c-0.036,0.214-0.165,0.383-0.363,0.511
				C73.944,70.424,73.768,70.48,73.59,70.48 M73.84,70.122c-0.166,0-0.49-0.077-0.798-0.567c-0.23-0.373-0.357-0.848-0.022-1.063
				c0.199-0.133,0.493-0.087,0.699,0.005c-0.229-0.051-0.495-0.097-0.683,0.02c-0.412,0.265-0.049,0.899,0.029,1.021
				c0.497,0.792,0.85,0.608,1.063,0.47c0.239-0.153,0.281-0.419,0.291-0.664c0.019,0.061,0.033,0.123,0.042,0.179
				c-0.058,0.194-0.128,0.388-0.318,0.506C74.053,70.092,73.95,70.122,73.84,70.122"/>
		</g>
		<path fill="#F3CD2D" d="M76.32,68.67c0.138,0.169,0.217,0.296,0.46,0.204l0.037,0.092l-0.931,0.378l-0.036-0.087
			c0.166-0.077,0.196-0.128,0.163-0.204c-0.022-0.051-0.062-0.102-0.094-0.148l-0.225-0.271l-0.673,0.276l0.011,0.194
			c0.004,0.077,0.007,0.169,0.036,0.245c0.055,0.138,0.199,0.138,0.318,0.097l0.037,0.092l-0.706,0.286l-0.032-0.087
			c0.217-0.174,0.217-0.327,0.209-0.582l-0.043-1.599l0.333-0.286L76.32,68.67 M74.993,67.776l0.032,0.986l0.578-0.24L74.993,67.776
			"/>
		<g>
			<path d="M74.71,69.841l-0.037-0.102c0.221-0.184,0.216-0.347,0.208-0.587l-0.043-1.599l0.338-0.296l1.156,1.405
				c0.121,0.148,0.186,0.23,0.303,0.23l0.098,0.046c-0.241-0.036-0.309-0.122-0.392-0.225l-1.167-1.435l-0.313,0.286l0.049,1.589
				c0.006,0.25,0.012,0.414-0.216,0.592l0.02,0.066l0.703-0.291c-0.229-0.041-0.319-0.061-0.361-0.169
				c-0.029-0.077-0.033-0.168-0.037-0.245l-0.01-0.199l0.68-0.291l0.24,0.281c0.037,0.061,0.059,0.112,0.072,0.158l-0.317-0.419
				l-0.658,0.286l0.019,0.179c0.004,0.082,0.009,0.169,0.036,0.24c0.037,0.092,0.116,0.112,0.176,0.112l0.013-0.005l0.166,0.082
				L74.71,69.841 M75.03,68.774l-0.052-1.042l0.637,0.781L75.03,68.774"/>
		</g>
		<path fill="#F3CD2D" d="M77.65,68.66c0.207-0.025,0.268-0.092,0.246-0.296l-0.152-1.379c-0.022-0.199-0.098-0.26-0.304-0.235
			l-0.012-0.092l0.989-0.112c0.177-0.02,0.336-0.02,0.492,0.02c0.381,0.107,0.684,0.419,0.742,0.925
			c0.051,0.47-0.188,0.848-0.513,1.021c-0.146,0.082-0.308,0.112-0.489,0.133l-0.987,0.112L77.65,68.66 M78.359,68.283
			c0.022,0.214,0.029,0.276,0.28,0.25c0.354-0.041,0.597-0.271,0.51-1.057c-0.079-0.705-0.361-0.858-0.746-0.817
			c-0.22,0.026-0.209,0.112-0.191,0.291L78.359,68.283"/>
		<g>
			<path d="M77.65,68.764l-0.013-0.102c0.215-0.041,0.267-0.107,0.247-0.302l-0.152-1.379c-0.018-0.169-0.073-0.225-0.208-0.225
				l0.092-0.026c0.096,0.056,0.13,0.123,0.143,0.245l0.152,1.384c0.022,0.205-0.043,0.286-0.257,0.312l0.009,0.082l-0.003-0.015
				l0.989-0.112c0.214-0.02,0.357-0.061,0.484-0.128c0.354-0.189,0.553-0.582,0.506-1.01c-0.052-0.465-0.319-0.797-0.732-0.914
				c-0.14-0.041-0.306-0.046-0.486-0.026l-0.197,0.026l0.193-0.051c0.188-0.02,0.354-0.015,0.498,0.025
				c0.424,0.118,0.697,0.46,0.752,0.935c0.046,0.434-0.158,0.838-0.521,1.037c-0.129,0.066-0.276,0.107-0.494,0.128l-1,0.112
				 M78.613,68.54c-0.239,0-0.246-0.087-0.264-0.265l-0.148-1.328c-0.019-0.184-0.028-0.281,0.203-0.306l0.116-0.005
				c0.381,0,0.58,0.256,0.645,0.833c0.075,0.69-0.086,1.021-0.522,1.068C78.632,68.54,78.622,68.54,78.613,68.54 M78.52,66.645
				l-0.112,0.021c-0.206,0.025-0.198,0.092-0.181,0.271l0.15,1.333c0.018,0.184,0.024,0.245,0.167,0.245
				c0.378-0.036,0.69-0.184,0.595-1.047c-0.064-0.557-0.254-0.807-0.618-0.807v-0.016L78.52,66.645"/>
		</g>
		<path fill="#F3CD2D" d="M79.8,68.43c0.207,0.01,0.282-0.051,0.294-0.25l0.095-1.389c0.01-0.199-0.055-0.265-0.26-0.281
			l0.006-0.092l1.715,0.112l0.145,0.552l-0.09,0.031c-0.174-0.26-0.456-0.496-0.782-0.521c-0.254-0.01-0.257,0.071-0.272,0.286
			l-0.036,0.562l0.054,0.005c0.286,0.015,0.412-0.02,0.529-0.307l0.112,0.005l-0.055,0.833l-0.111-0.005
			c-0.059-0.296-0.199-0.373-0.478-0.393l-0.063-0.005l-0.04,0.608c-0.01,0.168-0.004,0.281,0.199,0.296
			c0.355,0.025,0.684-0.158,0.923-0.404l0.075,0.046l-0.249,0.521l-1.719-0.118L79.8,68.43"/>
		<g>
			<path d="M81.52,68.66l-0.009-0.005l-1.719-0.118c0.056-0.025,0.102-0.051,0.139-0.082l1.572,0.174l0.058-0.117L81.52,68.66
				 M80.829,68.497c-0.282-0.02-0.29-0.138-0.279-0.311l0.04-0.608c0.227,0.005,0.374,0.041,0.466,0.148
				c-0.112-0.092-0.23-0.117-0.392-0.128l-0.087,0.587c-0.011,0.168-0.004,0.265,0.186,0.281c0.003,0,0.006,0,0.009,0
				c0.357,0,0.655-0.143,0.903-0.398l-0.033,0.122C81.369,68.385,81.097,68.497,80.829,68.497 M79.961,68.436
				c0.084-0.066,0.112-0.133,0.119-0.25l0.094-1.389c0.01-0.189-0.045-0.255-0.248-0.265h0.184c0.073,0.061,0.098,0.138,0.09,0.265
				l-0.094,1.394C80.099,68.329,80.057,68.41,79.961,68.436 M80.659,66.975l-0.022-0.092c0.013-0.204,0.019-0.296,0.232-0.296
				c0.22,0.01,0.42,0.097,0.59,0.235c-0.186-0.117-0.364-0.199-0.539-0.209c-0.002,0-0.005,0-0.005,0
				c-0.234,0-0.239,0.072-0.252,0.266L80.659,66.975"/>
		</g>
		<path fill="#F3CD2D" d="M84.36,68.75l0.304-0.914c0.079-0.235,0.101-0.373-0.16-0.485l0.029-0.092l0.712,0.245l-0.033,0.087
			c-0.271-0.041-0.329,0.051-0.408,0.296l-0.507,1.522l-0.245-0.082l-0.568-1.931l-0.351,1.052
			c-0.098,0.296-0.087,0.368,0.178,0.521l-0.029,0.092l-0.764-0.26l0.029-0.092c0.271,0.046,0.347-0.015,0.43-0.265l0.42-1.262
			c-0.043-0.123-0.134-0.225-0.246-0.291l0.033-0.092l0.687,0.235L84.36,68.75"/>
		<g>
			<path d="M84.3,69.42l-0.259-0.087l-0.577-1.936l-0.326,1.052c-0.094,0.286-0.09,0.353,0.171,0.506l-0.152-0.031
				c-0.135-0.148-0.124-0.245-0.044-0.485l0.351-1.052l0.594,1.931l0.223,0.072l0.503-1.512c0.058-0.179,0.107-0.291,0.26-0.311
				c-0.147,0.082-0.186,0.169-0.235,0.317L84.3,69.42 M82.997,68.899l-0.49-0.092l0.003-0.005l0.17-0.097
				c0.146,0,0.208-0.061,0.279-0.271l0.42-1.256c-0.042-0.112-0.129-0.215-0.241-0.281l0.115,0.021
				c0.065,0.087,0.121,0.168,0.152,0.26l-0.42,1.262c-0.065,0.199-0.128,0.291-0.304,0.291L82.997,68.899 M84.365,68.75
				l-0.513-1.716l-0.116-0.041l0.134,0.025l0.496,1.721l0.28-0.909c0.082-0.245,0.093-0.363-0.152-0.475l0.157,0.031
				c0.112,0.138,0.082,0.266,0.019,0.45L84.365,68.75"/>
		</g>
		<path fill="#F3CD2D" d="M85.56,68.09c0.091-0.184,0.054-0.271-0.126-0.363l0.039-0.087l0.912,0.465l-0.039,0.087
			c-0.185-0.097-0.276-0.071-0.365,0.112l-0.619,1.236c-0.09,0.184-0.054,0.276,0.13,0.368l-0.043,0.082l-0.912-0.459l0.043-0.087
			c0.181,0.092,0.275,0.066,0.361-0.112L85.56,68.09"/>
		<g>
			<path d="M85.44,70.01l-0.912-0.465l0.132-0.036l0.782,0.465l0.037-0.066c-0.188-0.082-0.223-0.179-0.13-0.368l0.618-1.241
				c0.061-0.117,0.122-0.174,0.206-0.174l0.05,0.015l-0.05,0.015c-0.072,0-0.125,0.046-0.181,0.158l-0.619,1.241
				c-0.084,0.168-0.055,0.255,0.125,0.347L85.44,70.01 M84.749,69.514l-0.048-0.015l0.048-0.015c0.073,0,0.125-0.041,0.179-0.153
				l0.619-1.241c0.084-0.174,0.056-0.255-0.121-0.347l0.161,0.061c0.051,0.087,0.045,0.174-0.016,0.296l-0.618,1.241
				C84.895,69.458,84.833,69.514,84.749,69.514"/>
		</g>
		<path fill="#F3CD2D" d="M87.87,69.79l-0.13-0.041c0.051-0.301,0.022-0.684-0.25-0.868c-0.357-0.245-0.748,0.158-0.933,0.444
			c-0.387,0.572-0.264,1.01,0,1.19c0.232,0.158,0.493,0.097,0.734,0.005l0.029,0.087c-0.355,0.179-0.702,0.22-1.046-0.02
			c-0.47-0.322-0.535-0.94-0.227-1.4c0.332-0.495,0.983-0.756,1.472-0.424c0.087,0.061,0.142,0.128,0.188,0.189
			c0.047,0.061,0.084,0.112,0.13,0.143c0.063,0.041,0.138,0.056,0.211,0.066h0.032L87.87,69.79"/>
		<g>
			<path d="M86.78,70.77c-0.181,0-0.35-0.051-0.512-0.163c-0.456-0.312-0.558-0.935-0.232-1.425c0.349-0.521,1.041-0.73,1.491-0.424
				c0.086,0.056,0.139,0.123,0.186,0.184l0.133,0.148c0.057,0.041,0.13,0.051,0.2,0.061l-0.004,0.015
				c-0.047-0.036-0.155-0.015-0.213-0.056l-0.123-0.153l-0.01,0.005c-0.051-0.061-0.103-0.128-0.185-0.179
				c-0.438-0.296-1.111-0.092-1.454,0.414c-0.317,0.475-0.217,1.083,0.225,1.384c0.25,0.174,0.512,0.204,0.814,0.112
				C86.991,70.755,86.884,70.77,86.78,70.77 M86.879,70.632c-0.124,0-0.231-0.036-0.329-0.102c-0.279-0.189-0.387-0.639-0.003-1.211
				c0.216-0.332,0.635-0.664,0.952-0.445c0.193,0.133,0.257,0.353,0.271,0.547c-0.043-0.194-0.106-0.404-0.286-0.526
				c-0.307-0.209-0.705,0.117-0.914,0.439c-0.376,0.557-0.272,0.991-0.005,1.17c0.207,0.148,0.498,0.092,0.723,0.01
				c-0.024,0.031-0.049,0.056-0.074,0.082C87.104,70.601,86.991,70.632,86.879,70.632"/>
		</g>
		<path fill="#F3CD2D" d="M88.66,71.997c-0.102,0.194-0.185,0.322-0.004,0.506l-0.065,0.072l-0.716-0.705l0.065-0.071
			c0.134,0.123,0.191,0.128,0.249,0.066c0.04-0.041,0.069-0.097,0.091-0.143l0.163-0.317l-0.521-0.516l-0.171,0.087
			c-0.067,0.036-0.152,0.077-0.206,0.138c-0.105,0.102-0.051,0.235,0.036,0.332l-0.069,0.066l-0.543-0.536l0.065-0.066
			c0.243,0.133,0.384,0.066,0.612-0.036l1.433-0.684l0.391,0.199L88.66,71.997 M88.938,70.408l-0.883,0.424l0.449,0.439
			L88.938,70.408"/>
		<g>
			<path d="M88.58,72.58l-0.716-0.705c0.051-0.005,0.091-0.005,0.123-0.005l0.604,0.685l0.055-0.061
				c-0.177-0.158-0.11-0.291-0.015-0.47l0.827-1.639l-0.386-0.184l-1.421,0.684c-0.198,0.092-0.342,0.153-0.53,0.082
				c0.065-0.015,0.121,0.005,0.167,0.005c0.112,0,0.218-0.051,0.351-0.112l1.434-0.684l0.402,0.199l-0.804,1.629
				c-0.109,0.209-0.17,0.327-0.005,0.49L88.6,72.566h0.001L88.58,72.58 M88.113,71.916c-0.029,0-0.064-0.01-0.105-0.041
				c0.054,0.005,0.082,0.015,0.105,0.015l0.317-0.49l-0.518-0.501l-0.155,0.092c-0.084,0.041-0.156,0.077-0.202,0.128
				c-0.124,0.123-0.004,0.271,0.036,0.317l-0.109-0.077c-0.02-0.097-0.02-0.184,0.052-0.255c0.05-0.056,0.123-0.092,0.188-0.128
				l0.193-0.097l0.536,0.516L88.113,71.916"/>
		</g>
		<path fill="#F3CD2D" d="M90,73.805c-0.102,0.194-0.192,0.378-0.069,0.592l-0.077,0.051l-0.397-0.582
			c0.032-0.087,0.083-0.163,0.126-0.245l0.199-0.342c0.209-0.353,0.17-0.465,0.105-0.567l-0.529,0.368
			c-0.166,0.117-0.178,0.209-0.061,0.383l-0.075,0.051l-0.576-0.853l0.077-0.051c0.115,0.169,0.206,0.194,0.372,0.077l1.137-0.781
			c0.163-0.112,0.177-0.209,0.057-0.383l0.081-0.051l0.691,1.021c0.239,0.357,0.199,0.705-0.051,0.873
			c-0.26,0.179-0.539,0.031-0.734-0.169c0,0.107-0.058,0.205-0.109,0.302L90,73.805 M90.028,72.686
			c0.264,0.388,0.475,0.424,0.724,0.25c0.235-0.163,0.229-0.362,0.055-0.618c-0.106-0.153-0.171-0.123-0.304-0.031l-0.507,0.347
			L90.028,72.686"/>
		<g>
			<path d="M89.84,74.46l-0.398-0.587c0.023-0.077,0.056-0.133,0.09-0.194l0.235-0.408c0.204-0.342,0.167-0.45,0.105-0.547
				l-0.508,0.368c-0.158,0.112-0.172,0.194-0.059,0.368l-0.114-0.133c-0.003-0.107,0.042-0.179,0.156-0.256l0.529-0.368
				c0.087,0.112,0.126,0.225-0.086,0.582l-0.199,0.348c-0.069,0.117-0.102,0.179-0.125,0.24l0.388,0.557l0.065-0.041
				c-0.132-0.204-0.037-0.393,0.065-0.592l0.166-0.302c0.064-0.122,0.106-0.204,0.106-0.296c0.28,0.235,0.535,0.302,0.741,0.158
				c0.255-0.174,0.275-0.521,0.047-0.853l-0.152-0.225l0.174,0.209c0.236,0.347,0.214,0.705-0.054,0.889
				c-0.218,0.153-0.501,0.087-0.752-0.168c0.024,0.092-0.022,0.179-0.068,0.26l-0.185,0.342c-0.097,0.189-0.189,0.373-0.069,0.577
				L89.84,74.46 M90.483,73.05c-0.156,0-0.305-0.112-0.469-0.357l0.01-0.01c0.285,0.373,0.453,0.419,0.716,0.24
				c0.216-0.148,0.231-0.332,0.051-0.593l-0.129-0.117l-0.355,0.225l0.361-0.24l0.144,0.118c0.189,0.276,0.17,0.475-0.056,0.633
				C90.658,73.014,90.567,73.05,90.483,73.05 M88.918,72.774c-0.047,0-0.091-0.02-0.135-0.061c0.06,0.015,0.097,0.036,0.135,0.036
				l1.301-0.853c0.079-0.056,0.119-0.107,0.128-0.158c0.01-0.056-0.013-0.118-0.073-0.205l0.1,0.117
				c0.004,0.036,0.005,0.061,0.001,0.092c-0.012,0.061-0.055,0.112-0.14,0.174L89.1,72.697
				C89.027,72.749,88.969,72.774,88.918,72.774"/>
		</g>
		<path fill="#F3CD2D" d="M91.04,76.15c-0.167,0.138-0.294,0.219-0.203,0.465l-0.087,0.036l-0.379-0.935l0.087-0.041
			c0.075,0.169,0.126,0.194,0.206,0.163c0.051-0.02,0.098-0.061,0.138-0.097l0.275-0.225l-0.275-0.679l-0.191,0.01
			c-0.081,0.005-0.171,0.01-0.243,0.036c-0.134,0.056-0.138,0.199-0.098,0.322l-0.087,0.036l-0.289-0.71l0.087-0.036
			c0.17,0.22,0.326,0.22,0.575,0.215l1.581-0.051l0.282,0.337L91.04,76.15 M91.922,74.806l-0.977,0.031l0.235,0.587L91.922,74.806"
			/>
		<g>
			<path d="M90.74,76.66l-0.379-0.935c0.048,0.02,0.087,0.036,0.116,0.051l0.285,0.858l0.073-0.031
				c-0.096-0.214,0.015-0.307,0.17-0.434l1.407-1.18l-0.283-0.317l-1.571,0.051c-0.236,0-0.333-0.015-0.438-0.077
				c0.114,0.041,0.207,0.051,0.33,0.051l1.689-0.046l0.294,0.342l-1.381,1.17c-0.181,0.148-0.281,0.23-0.199,0.449L90.74,76.66
				 M90.612,75.869c-0.04,0-0.073-0.026-0.109-0.077c0.054,0.031,0.08,0.046,0.109,0.046l0.457-0.327l-0.279-0.664l-0.179,0.015
				c-0.105,0.01-0.178,0.015-0.238,0.041c-0.154,0.061-0.109,0.25-0.09,0.307l-0.07-0.117c0.023-0.107,0.066-0.179,0.151-0.214
				c0.064-0.026,0.139-0.036,0.211-0.041l0.227-0.01l0.289,0.69L90.612,75.869"/>
		</g>
		<path fill="#F3CD2D" d="M92.61,78.16l-0.055-0.087c0.286-0.327,0.434-0.536,0.38-0.792c-0.055-0.276-0.361-0.506-1.075-0.357
			c-0.701,0.143-0.918,0.414-0.857,0.73c0.061,0.306,0.296,0.306,0.557,0.26c0.232-0.051,0.239-0.112,0.211-0.337l0.109-0.02
			l0.191,0.96l-0.109,0.021c-0.073-0.225-0.142-0.24-0.355-0.194l-0.412,0.087c-0.043-0.199-0.055-0.214-0.142-0.383
			c-0.076-0.133-0.137-0.256-0.166-0.409c-0.123-0.608,0.207-1.072,0.803-1.19c0.568-0.117,1.227,0.169,1.35,0.787
			c0.018,0.082,0.012,0.158,0.008,0.23c-0.012,0.066-0.018,0.128-0.008,0.179c0.014,0.071,0.077,0.168,0.127,0.219L92.61,78.16"/>
		<g>
			<path d="M91.94,78.54c-0.051-0.158-0.097-0.204-0.195-0.204l-0.557,0.102c-0.057-0.194-0.067-0.22-0.143-0.363
				c-0.09-0.163-0.151-0.281-0.18-0.439c-0.06-0.291-0.016-0.562,0.126-0.776c0.146-0.219,0.384-0.368,0.687-0.429
				c0.529-0.112,1.231,0.128,1.366,0.802c0.015,0.072,0.012,0.143,0.008,0.204l-0.008,0.205c0.013,0.066,0.071,0.158,0.123,0.214
				l-0.561,0.311c0.024-0.046,0.047-0.092,0.07-0.138l0.474-0.179c-0.056-0.036-0.119-0.133-0.134-0.209l0.008-0.184
				c0.005-0.082,0.009-0.148-0.008-0.22c-0.129-0.659-0.81-0.884-1.333-0.782c-0.295,0.061-0.527,0.205-0.669,0.419
				c-0.139,0.209-0.181,0.47-0.122,0.756c0.028,0.153,0.088,0.271,0.164,0.408c0.089,0.174,0.101,0.194,0.143,0.383l0.396-0.097
				c0.259-0.026,0.314,0.036,0.366,0.194l0.097-0.02l-0.019-0.087l0.035,0.097L91.94,78.54 M91.336,77.948
				c-0.203,0-0.317-0.092-0.356-0.296c-0.07-0.363,0.222-0.613,0.868-0.741c0.802-0.169,1.06,0.209,1.092,0.362
				c0.033,0.163-0.017,0.312-0.116,0.465c0.084-0.179,0.12-0.312,0.088-0.46c-0.028-0.143-0.278-0.506-1.059-0.342
				c-0.629,0.123-0.914,0.368-0.847,0.71c0.05,0.256,0.258,0.306,0.541,0.25c0.225-0.046,0.227-0.102,0.199-0.317l0.06,0.169
				c-0.035,0.097-0.092,0.143-0.254,0.174C91.478,77.937,91.404,77.948,91.336,77.948"/>
		</g>
		<path fill="#F3CD2D" d="M91.87,79.29c-0.515,0.005-0.663,0.174-0.659,0.485c0.01,0.419,0.264,0.541,0.68,0.536l1-0.02
			c0.198-0.005,0.26-0.077,0.257-0.286h0.093l0.015,0.71h-0.095c-0.004-0.209-0.069-0.276-0.268-0.276l-1.023,0.02
			c-0.497,0.01-0.764-0.204-0.775-0.766c-0.01-0.577,0.243-0.868,0.684-0.873l1.082-0.02c0.199-0.005,0.26-0.082,0.257-0.286h0.095
			l0.022,1.032H93.14c-0.004-0.209-0.069-0.276-0.268-0.271l-1,0.015"/>
		<g>
			<path d="M93.15,80.72c-0.003-0.194-0.061-0.26-0.239-0.26l-1.038,0.02h-0.001c-0.539,0-0.778-0.25-0.787-0.781
				c-0.006-0.311,0.065-0.547,0.209-0.7c0.117-0.122,0.281-0.184,0.488-0.189l1.082-0.02c0.188,0,0.246-0.072,0.243-0.271
				l0.024,0.174c-0.055,0.087-0.132,0.122-0.267,0.128l-1.082,0.02c-0.198,0-0.356,0.061-0.469,0.179
				c-0.139,0.143-0.207,0.373-0.202,0.679c0.01,0.521,0.234,0.751,0.725,0.751l1.059-0.015c0.204,0,0.275,0.071,0.282,0.271h0.079
				l-0.003-0.077l0.016,0.092h-0.091L93.15,80.72L93.15,80.72 M91.889,80.332c-0.479,0-0.683-0.174-0.693-0.552
				c-0.001-0.153,0.035-0.26,0.111-0.342c0.103-0.102,0.282-0.153,0.562-0.158l1-0.015c0.138,0,0.214,0.031,0.252,0.117
				c-0.062-0.066-0.127-0.092-0.236-0.092l-1.02,0.02c-0.273,0-0.444,0.051-0.543,0.148c-0.072,0.072-0.105,0.174-0.102,0.322
				c0.009,0.362,0.205,0.521,0.633,0.521l1.036-0.02c0.189-0.005,0.247-0.066,0.243-0.271l0.031,0.163
				c-0.054,0.092-0.132,0.133-0.273,0.133L91.889,80.332h-0.003"/>
		</g>
		<path fill="#F3CD2D" d="M91.33,82.56c-0.213,0.031-0.365,0.036-0.412,0.291l-0.093-0.015l0.162-1l0.091,0.015
			c-0.022,0.184,0.008,0.235,0.091,0.245c0.054,0.01,0.116,0,0.17-0.005l0.347-0.046l0.12-0.73l-0.17-0.092
			c-0.069-0.036-0.15-0.082-0.225-0.092c-0.145-0.026-0.221,0.097-0.25,0.22l-0.093-0.015l0.123-0.756l0.09,0.015
			c0.032,0.276,0.162,0.357,0.379,0.48l1.375,0.797l0.065,0.434L91.33,82.56 M92.778,81.881l-0.85-0.485l-0.101,0.623L92.778,81.881
			"/>
		<g>
			<path d="M90.93,82.86l-0.107-0.021l0.152-1.01c0.026,0.051,0.046,0.092,0.064,0.128l-0.201,0.873l0.081,0.015l-0.013-0.005
				c0.047-0.25,0.191-0.265,0.392-0.296l1.802-0.256l-0.078-0.419l-1.368-0.792c-0.156-0.087-0.266-0.153-0.33-0.281
				c0.097,0.112,0.199,0.179,0.342,0.256l1.377,0.802l0.071,0.444l-1.781,0.271c-0.229,0.031-0.359,0.046-0.401,0.276l-0.002,0.016
				 M91.341,82.095c-0.072,0-0.127-0.005-0.167-0.015l0.511-0.056l0.107-0.715l-0.162-0.082c-0.077-0.041-0.151-0.077-0.221-0.092
				c-0.17,0.041-0.22,0.148-0.234,0.209v-0.117c0.049-0.061,0.106-0.123,0.199-0.123c0.114,0.02,0.19,0.061,0.257,0.092l0.181,0.102
				L91.7,82.039L91.341,82.095"/>
		</g>
	</g>
</g>
</svg>
