<svg version="1.0" id="uganda" xmlns="http://www.w3.org/2000/svg" xmlns:xlink="http://www.w3.org/1999/xlink" x="0px" y="0px"
	 viewBox="0 0 160 160" enable-background="new 0 0 160 160" xml:space="preserve">
<g>
	<path id="_x34_" d="M2.555,35.29h154.61v90.19H2.555L2.555,35.29z"/>
</g>
<path fill="#F8E82A" d="M2.555,50.32h154.61v15.03H2.555L2.555,50.32z"/>
<path fill="#CC3220" d="M2.555,65.35h154.61v15.04H2.555L2.555,65.35z"/>
<path fill="#F8E82A" d="M2.555,95.42h154.61v15.03H2.555L2.555,95.42z"/>
<path fill="#CC3220" d="M2.555,110.45h154.61v15.03H2.555L2.555,110.45z"/>
<g>
	<path fill="#FFFCFF" d="M93.9,80.39c0,7.754-6.286,14.04-14.04,14.04c-7.759,0-14.04-6.288-14.04-14.04
		c0-7.754,6.283-14.04,14.04-14.04C87.614,66.35,93.9,72.638,93.9,80.39"/>
	<g>
		<path d="M79.86,94.5c-7.782,0-14.12-6.334-14.12-14.11c0-7.785,6.335-14.12,14.12-14.12s14.11,6.334,14.11,14.12
			C93.97,88.17,87.638,94.5,79.86,94.5 M79.86,66.42c-7.703,0-13.968,6.268-13.968,13.971s6.265,13.966,13.968,13.966
			c7.7,0,13.966-6.263,13.966-13.966S87.561,66.42,79.86,66.42"/>
	</g>
	<path fill="#CC2920" d="M77.38,69.62l-0.91-1.681c0.351-0.348,0.943-0.62,1.886-0.62c0,0.061-0.097,1.84-0.097,1.84L77.38,69.62"/>
	<g>
		<path d="M77.35,69.72l-0.946-1.748c0.436-0.507,1.107-0.733,1.952-0.733c0.077,0.138-0.023,1.917-0.023,1.917L77.35,69.72
			 M78.283,67.317c-0.73,0.072-1.363,0.282-1.76,0.676l0.889,1.527l0.81-0.43C78.191,69.069,78.283,67.383,78.283,67.317"/>
	</g>
	<path fill="#F8E82A" d="M78.26,69.17l0.131-1.855c0,0,1.886-0.113,2.908,1.117c0.018-0.015-1,1.44-1,1.44l-2.035-0.702"/>
	<g>
		<path d="M80.32,69.961l-2.088-0.718l0.087-2h0.192c0.443,0,1.955,0.082,2.844,1.148c0.033,0.061,0.033,0.061-1,1.527l-0.033,0.047
			 M78.512,67.392l-0.179,1.789l1.929,0.61c0.167-0.236,0.935-1.332,0.971-1.389C80.393,67.475,78.938,67.392,78.512,67.392"/>
	</g>
	<path fill="#CC2920" d="M80.33,69.859l0.928-1.44c0.623,0.656,0.876,1.122,0.976,1.824c0.013,0.015-1.471,0.369-1.471,0.354
		C80.763,70.576,80.345,69.874,80.33,69.859"/>
	<g>
		<path d="M80.76,70.67l-0.069-0.046c-0.026-0.051-0.392-0.671-0.425-0.717l0.922-1.527c0.761,0.666,1.015,1.138,1.115,1.855
			C82.259,70.368,80.772,70.67,80.76,70.67 M80.393,69.897c0.036,0.005,0.305,0.436,0.405,0.62c0.236-0.046,1.32-0.308,1.396-0.338
			c-0.136-0.605-0.377-1.056-0.999-1.701L80.393,69.897"/>
	</g>
	<path d="M77.848,93.62c0,0,1.743-1.999,5.133-1.568c-0.512-0.83-2.16-0.733-2.16-0.733s-0.512-3.89-0.113-4.079
		c0.4-0.195,2.096,0.015,2.096,0.015c0.223,0,0.61-0.61,0.305-0.989c-0.305-0.384-1.199-1.855-0.833-2.147
		c0.367-0.287,2.368,0.159,2.368,0.159l-5.645-7.226c0,0-0.574-2.716,0.576-4.03c1.391-1.153,1.245-2.399,1.199-2.383
		c-0.192-1.261-2.109-2.178-3.405-1.01c-0.771,0.933-0.259,1.635-0.259,1.635s-2.01,0.543-2.094,0.892
		c-0.08,0.353,2.273-0.062,2.273-0.062l-0.225,1.615c0,0-4.574,4.161-1.071,7.759c0.033-0.02,0.113-0.164,0.113-0.164
		s1.23,1.522,2.527,1.855c1.212,1.251,1.102,1.056,1.102,1.056s0.241,1.968,0.015,2.352c-0.305-0.097-3.405-0.21-3.869-0.036
		c-0.415,0.133-2.01,0.051-1.617,2.66c0.305-0.707,0.579-1.327,0.579-1.327s-0.049,0.943,0.333,1.276
		c-0.062-0.989,0.372-1.66,0.372-1.66s0.079,1.087,0.317,1.245c0.241,0.159,0.241-1.758,1.566-1.599
		c1.327,0.159,2.286,0.113,2.286,0.113s0.451,3.757,0.305,4.11c-0.958-0.225-3.244,0.097-3.39,0.671
		c1.343-0.082,1.968,0.077,1.968,0.077s-1.09,0.962-0.752,1.521"/>
	<g>
		<path d="M77.83,93.75l-0.051-0.087c-0.32-0.533,0.464-1.332,0.7-1.558c-0.136,0.021-0.518-0.031-1.132-0.031
			c-0.21,0-0.448,0.005-0.715,0.02c0.072-0.8,2.521-1.03,3.403-0.815c0.013-0.2-0.21-2.475-0.392-3.977
			c-0.144,0.067-1.071,0.041-2.227-0.103c-0.005,0-0.01,0-0.013,0c-0.866,0-1.117,0.759-1.266,1.215
			c-0.084,0.256-0.133,0.4-0.248,0.4c-0.272-0.164-0.374-0.856-0.41-1.184c-0.056,0.251-0.277,0.794-0.233,1.507
			c-0.528-0.292-0.484-1.235-0.482-1.276l-0.436,1.358c-0.505-2.373,0.738-2.603,1.332-2.716c0.079-0.01,0.144-0.026,0.192-0.041
			c0.208-0.077,0.879-0.092,1.402-0.092c1.04,0,2.309,0.067,2.514,0.128c0.074-0.246-0.028-1.558-0.108-2.234h-0.003
			c-0.033,0-0.236-0.174-1.084-1.046c-1.199-0.302-2.342-1.635-2.511-1.84l0.095-0.118c0.013,0.015,1.233,1.507,2.488,1.83
			c0.928,0.938,1.084,1.056,1.109,1.066c0.092,0.395,0.277,2.076,0.056,2.45c-0.431-0.025-3.544-0.133-3.908,0
			c-0.059,0.02-0.131,0.031-0.215,0.046c-0.592,0.113-1.694,0.313-1.356,2.527l0.436-1.343c0.144,0.041,0.103,0.943,0.451,1.25
			c-0.187-0.943,0.241-1.619,0.259-1.645c0.169,0.472,0.282,1.128,0.426,1.225c0-0.02,0.049-0.179,0.089-0.302
			c0.164-0.492,0.438-1.322,1.279-1.322c1.571,0.179,2.429,0.123,2.437,0.123c0.126,0.451,0.525,3.854,0.377,4.213
			c-0.282,0-0.543-0.026-0.846-0.026c-1.097,0-2.442,0.303-2.542,0.687c0.195-0.108,0.436-0.113,0.648-0.113
			c0.848,0,1.25,0.097,1.266,0.102c-0.238,0.359-0.856,1.035-0.743,1.461c0.382-0.379,2.122-1.881,5.117-1.507
			c-0.474-0.543-1.66-0.589-2.01-0.589l-0.231-0.067c-0.12-0.923-0.487-3.951-0.072-4.151c0.348-0.169,2.137,0.01,2.137,0.005
			c0.056,0,0.177-0.103,0.259-0.272c0.041-0.087,0.156-0.374-0.02-0.595c-0.21-0.261-0.997-1.476-0.93-2.029
			c0.01-0.097,0.049-0.169,0.11-0.22c0.356-0.272,2.365,0.128,2.429,0.144l-5.721-7.109c-0.036-0.144-0.579-2.803,0.582-4.126
			c1.266-1.045,1.243-2.168,1.194-2.291c-0.213-1.281-2.188-1.994-3.293-0.994c-0.715,0.861-0.269,1.507-0.248,1.532
			c-1.01,0.379-2.037,0.764-2.083,0.953c0.002,0,0.054,0.051,0.379,0.051c0.648,0,1.796-0.2,1.809-0.2l-0.138,1.696
			c-0.049,0.067-2.314,2.157-2.388,4.607c-0.036,1.128,0.4,2.168,1.297,3.085l0.008-0.015c0.018,0.113-0.015,0.128-0.028,0.138
			c-1.012-0.964-1.463-2.04-1.427-3.213c0.077-2.511,2.391-4.648,2.414-4.669l0.2-1.553c-0.061,0.097-1.112,0.277-1.745,0.277
			c-0.361,0-0.456-0.062-0.497-0.113c0.056-0.487,1.696-0.958,2.094-1.066c-0.113-0.051-0.472-0.748,0.246-1.614
			c1.212-1.102,3.331-0.302,3.539,1.045c0.067,0.169,0.105,1.353-1.225,2.45c-1.104,1.261-0.559,3.931-0.551,3.957l5.63,7.2
			c-0.087,0.113-1.22-0.138-1.922-0.138c-0.31,0-0.42,0.051-0.456,0.082c-0.11,0.569,0.559,1.681,0.84,2.035
			c0.159,0.2,0.174,0.482,0.041,0.753c-0.085,0.179-0.246,0.364-0.402,0.364c-0.013,0-0.799-0.097-1.425-0.097
			c-0.4,0-0.566,0.041-0.638,0.072c-0.215,0.103-0.089,2.158,0.154,4c0.559-0.072,1.722,0.005,2.15,0.702
			c-0.402,0.072-0.712,0.056-1.01,0.056c-2.701,0-4.12,1.589-4.133,1.604l-0.073,0.078"/>
	</g>
	<path fill="#9BA49A" d="M78.38,73.12c0,0-3.324,3.669-1.891,6.473c0.077-0.389,0.044-0.636,0.092-0.62
		c-0.08-0.046,0.412,0.338,0.377,0.261c0.01-0.205-0.151-0.636-0.151-0.636c0.151,0.036,0.3,0.072,0.448,0.113
		c-0.087-0.164-0.174-0.328-0.261-0.487c0.21,0.02,0.425,0.046,0.641,0.072c0,0-0.225-0.6-0.154-0.6
		c0.077,0,0.525,0.041,0.525,0.041C77.06,76.036,77.952,74.627,78.38,73.12"/>
	<g>
		<path fill="#9BA49A" d="M76.53,79.82l-0.1-0.195c-1.44-2.819,1.871-6.524,1.901-6.56c0.041,0.379-0.067,0.687-0.174,0.989
			c-0.418,1.189-0.815,2.316-0.077,3.644c-0.072,0.108-0.517,0.067-0.592,0.067c0.054,0.01,0.141,0.282,0.223,0.502l-0.717,0.026
			l0.336,0.379l-0.382,0.031c-0.008-0.01-0.01-0.015-0.01-0.015c-0.01,0,0.113,0.359,0.102,0.548
			c-0.159,0.082-0.51-0.21-0.512-0.215c0.092,0.22,0.082,0.384,0.044,0.584L76.53,79.82 M78.301,73.147
			c-0.238,0.451-2.891,3.644-1.84,6.186c0.01-0.087,0.015-0.154,0.018-0.215l0.09-0.22c0.108,0.056,0.364,0.251,0.413,0.272
			c-0.082-0.098-0.195-0.431-0.238-0.548l-0.051-0.133l0.589,0.149l-0.346-0.384l0.715-0.031c-0.295-0.477-0.251-0.538-0.233-0.569
			c0.151-0.031,0.605,0.005,0.605,0.005c-0.843-1.271-0.418-2.48-0.005-3.654C78.116,73.716,78.219,73.434,78.301,73.147"/>
	</g>
	<path fill="#9BA49A" d="M79.54,69.971c0,0,0.174,1.266-0.51,1.63c-0.113,0.082-0.546,0.225-0.479,0.482
		c0.079,0.348,0.272,0.287,0.541,0.225C79.814,72.18,80.644,70.643,79.54,69.971"/>
	<g>
		<path fill="#9BA49A" d="M78.81,72.43c-0.177,0-0.284-0.108-0.336-0.333c-0.066-0.256,0.231-0.41,0.41-0.502
			c0.74-0.4,0.582-1.604,0.579-1.614c0.566,0.2,0.761,0.646,0.661,1.174c-0.11,0.584-0.579,1.148-1.022,1.225
			C78.977,72.41,78.89,72.43,78.81,72.43 M79.53,70.052c0.11,0.154,0.2,1.256-0.466,1.615c-0.297,0.159-0.477,0.266-0.443,0.395
			c0.046,0.2,0.12,0.22,0.19,0.22c0.061,0,0.136-0.021,0.225-0.041c0.42-0.077,0.843-0.594,0.94-1.112
			C80.027,70.862,80.033,70.375,79.53,70.052"/>
	</g>
	<path fill="#FFFFFF" d="M78.31,71.06c0,0.154-0.123,0.272-0.272,0.272c-0.154,0-0.272-0.118-0.272-0.272
		c0-0.149,0.118-0.272,0.272-0.272C78.187,70.788,78.31,70.911,78.31,71.06"/>
	<path fill="#CC2920" d="M77.24,72.11c-0.174,0.144-1.102,1.102-0.19,1.456c0.943-0.256,0.687-0.431,0.894-0.641
		C77.95,72.494,77.476,72.381,77.24,72.11"/>
	<g>
		<path d="M77.05,73.65l-0.025-0.01c-0.254-0.102-0.402-0.256-0.436-0.456c-0.075-0.456,0.459-1.01,0.605-1.128
			c0.177,0.092,0.274,0.159,0.379,0.231c0.213,0.149,0.453,0.318,0.448,0.646l-0.105,0.195c-0.074,0.184-0.177,0.333-0.843,0.512
			L77.05,73.65 M77.186,72.164c-0.064,0.149-0.505,0.641-0.446,0.994c0.023,0.144,0.125,0.251,0.315,0.333
			c0.623-0.174,0.674-0.302,0.72-0.42c0.023-0.061,0.049-0.123,0.118-0.195c-0.018-0.195-0.197-0.323-0.407-0.466
			C77.381,72.338,77.268,72.261,77.186,72.164"/>
	</g>
	<path fill="#9BA49A" d="M79.25,81.19c-0.046,0.205-0.254,0.974,0.033,1.563c0.802-0.333,1.168-0.241,1.44-0.061
		C80.067,82.163,79.813,81.938,79.25,81.19"/>
	<g>
		<path fill="#9BA49A" d="M79.25,82.84l-0.031-0.066c-0.284-0.579-0.113-1.302-0.051-1.574c0.01,0.01,0.018,0.015,0.026,0.021
			c0.059,0.261-0.087,0.902,0.131,1.425c0.561-0.225,0.953-0.272,1.289-0.113c-0.628-0.354-0.887-0.595-1.42-1.307
			c0.689,0.666,0.943,0.881,1.581,1.394c-0.251,0.015-0.4-0.026-0.592-0.026c-0.233,0-0.518,0.072-0.869,0.215L79.25,82.84"/>
	</g>
	<path fill="#FFFFFF" d="M80.63,84.81l0.051,1.789c0,0,0.62,0.113,0.91,0C81.877,86.486,81.573,85.348,80.63,84.81"/>
	<g>
		<path fill="#FFFFFF" d="M81.22,86.73c-0.277,0-0.559-0.051-0.559-0.051l-0.113-1.866c0.869,0.369,1.243,1.194,1.214,1.604
			c-0.015,0.174-0.1,0.236-0.151,0.256C81.518,86.709,81.387,86.73,81.22,86.73 M80.826,86.561c0.179,0,0.579,0.036,0.733-0.031
			c0.082-0.492-0.269-1.25-0.974-1.655l0.162,1.696C80.757,86.566,80.788,86.561,80.826,86.561"/>
	</g>
	<path fill="#9BA49A" d="M85.16,85.03c0,0-1.151-2.778-4.095-3.485c-2.942-0.702-2.56-3.839-2.316-4.03
		c0.126-0.272,0.22-0.687,1.071-0.287c0.846,0.4,4.748,2.363,5.307,2.46s0.079,5.406,0.033,5.34"/>
	<g>
		<path d="M85.16,85.11l-0.069-0.046c-0.049-0.113-1.215-2.767-4.046-3.444c-1.668-0.4-2.25-1.537-2.444-2.424
			c-0.179-0.805-0.062-1.609,0.1-1.737c0.131-0.328,0.384-0.656,1.15-0.292l0.976,0.472c1.456,0.712,3.892,1.906,4.313,1.983
			c0.517,0.087,0.307,3.219,0.195,4.556C85.255,85.11,85.242,85.11,85.16,85.11 M79.241,77.141c-0.244,0-0.318,0.164-0.395,0.343
			c-0.128,0.164-0.292,0.907-0.08,1.768c0.2,0.81,0.766,1.85,2.317,2.224c2.46,0.589,3.695,2.634,4.04,3.311
			c0.108-0.928,0.361-4.438,0.031-4.976c-0.448-0.113-2.416-1.066-4.395-2.035L79.786,77.3
			C79.563,77.192,79.378,77.141,79.241,77.141"/>
	</g>
	<path fill="#CC2920" d="M82.36,81.53c-0.046,0.031,3.936,2.352,2.734,4.351c1.138-0.753,0.771-2.065,0.771-2.065
		s0.925,2.419-1.33,3.603c0.238,0.205,0.4,0.154,0.4,0.154l-0.382,0.384c0,0-0.177,0.292,1.343-0.446
		c-0.417,0.333-0.448,0.579-0.448,0.579s0.11,0.318,1.102-0.548c-0.797,0.866-0.976,1.312-0.976,1.297
		c2.16-0.19,6.862-7.211-1.484-9.291c0.446,0.461,0.384,0.4,0.384,0.4L82.36,81.53"/>
	<g>
		<path d="M85.44,88.93l0.069-0.128l0.064,0.036l-0.056-0.046c0.118-0.231,0.315-0.518,0.574-0.83
			c-0.208,0.184-0.392,0.261-0.525,0.261h-0.052l-0.138-0.103c0-0.067,0.046-0.318,0.474-0.661c-0.62,0.461-1.066,0.635-1.24,0.635
			l-0.12-0.169l0.328-0.333c-0.082,0.046-0.197,0-0.331-0.113c1.394-0.81,1.545-2.055,1.468-2.86
			c-0.041,0.431-0.246,0.948-0.82,1.327c0.356-0.866,0.287-2.204-2.647-4.223c-0.2-0.138-0.202-0.144-0.202-0.19l2.142-1.645
			l-0.395-0.287c4.507,0.979,4.992,3.418,4.887,4.776c-0.179,2.316-2.178,4.438-3.339,4.541L85.44,88.93 M86.5,87.489
			c-0.302,0.523-0.605,0.938-0.787,1.256c1.125-0.251,2.888-2.229,3.057-4.382c0.174-2.26-1.494-3.941-4.7-4.741
			c0.492,0.313,0.492,0.313,0.474,0.359l-2.071,1.558c0.028,0.01,0.059,0.031,0.097,0.056c2.432,1.681,3.303,3.136,2.586,4.325
			c0.974-0.81,0.638-2.065,0.633-2.081h0.003c0.008,0,0.015,0.005,0.02,0.01c0.026,0.015,0.051,0.056,0.074,0.118
			c0.248,0.523,0.648,2.485-1.32,3.521c0.161,0,0.269,0.02,0.318,0.02l-0.013,0.02l0.008-0.005c-0.005,0.005-0.01,0.015-0.015,0.021
			l-0.259,0.471c0.087-0.072,0.367-0.138,1.258-0.569c-0.305,0.431-0.343,0.651-0.343,0.656
			C85.665,88.074,85.919,88.002,86.5,87.489"/>
	</g>
	<path fill="#FFFFFF" d="M82.53,80.85c0.541,0.384,0.733,0.512,0.797,0.702c-0.497-0.113-0.943-0.077-0.943-0.077
		s-1.071-1.025-1.263-1.107c-0.146,0-0.976-0.528-0.976-0.528c-0.415-0.205-0.8-1.645,0.738-1.23
		c1.581,0.753,1.807,0.815,1.807,0.815c0.628,0.2,1.256,0.394,1.883,0.589c0.364,0.41,0.728,0.81,1.089,1.22
		c0,0-1.935-0.964-2.173-0.979c0.525,0.43,0.83,1.025,0.83,1.025C83.706,81.107,83.173,80.943,82.53,80.85"/>
	<g>
		<path d="M83.45,81.65l-0.131-0.031c-0.302-0.066-0.582-0.082-0.766-0.082l-0.213-0.015c-0.412-0.389-1.109-1.035-1.24-1.086
			h-0.003c-0.133,0-0.787-0.41-0.987-0.533c-0.241-0.123-0.474-0.62-0.384-0.994c0.054-0.22,0.366-0.594,1.181-0.374
			c1.55,0.733,1.799,0.81,1.812,0.815l1.883,0.589l1.122,1.24c-0.833-0.251-2.073-0.84-2.235-0.851
			c0.584,0.302,0.889,0.886,0.902,0.912l0.082,0.154l-0.287-0.082c-0.546-0.154-1.033-0.297-1.607-0.384l-0.033-0.159
			c0.595,0.092,1.094,0.231,1.65,0.39c-0.092-0.108-0.359-0.528-0.751-0.846c0.292-0.118,2.055,0.748,2.255,0.851l-0.633-0.492
			l-0.546-0.61l-1.83-0.564c-0.026-0.01-0.267-0.077-1.837-0.825c-0.528-0.128-0.904-0.056-0.981,0.267
			c-0.074,0.307,0.118,0.733,0.31,0.83c0.392,0.251,0.858,0.517,0.943,0.523c0.228,0.087,1.204,1.015,1.317,1.122
			c0.246-0.02,0.489-0.015,0.74,0.031c-0.092-0.113-0.272-0.241-0.597-0.471l-0.005-0.031c0.584,0.256,0.756,0.384,0.823,0.579
			L83.45,81.65"/>
	</g>
	<path d="M75,72.26c0,0,1.855-0.446,2.076-0.384L75,72.26"/>
	<g>
		<path fill="#FFFFFF" d="M75.02,72.33l-0.036-0.149c0.315-0.077,1.868-0.451,2.117-0.384C76.916,71.899,75.784,72.14,75.02,72.33"
			/>
	</g>
</g>
</svg>
