<?xml version="1.0" encoding="utf-8"?>
<!-- Generator: Adobe Illustrator 18.1.1, SVG Export Plug-In . SVG Version: 6.00 Build 0)  -->
<svg version="1.1" xmlns="http://www.w3.org/2000/svg" xmlns:xlink="http://www.w3.org/1999/xlink" x="0px" y="0px"
	 viewBox="0 0 707.824 269.987" enable-background="new 0 0 707.824 269.987" xml:space="preserve">
<g id="Layer_1">
	<g>
		<path fill="#FFDD00" d="M150.839,44.908c3.002-3.758,4.809-8.512,4.809-13.699c0-12.135-9.836-21.971-21.97-21.971
			c-12.134,0-21.97,9.836-21.97,21.971c0,7.975,4.264,14.936,10.618,18.785l0,0c-50.061,19.015-71.292,86.378-25.595,116.183
			c26.464,10.985,40.942-2.496,47.434-10.985c-5.49,2.497-8.987,2.497-14.977,1.499c-75.876-12.44-21.156-133.569,69.404-69.407
			c7.944,5.027,13.388,6.285,18.831,0.837c5.448-5.443,4.023-13.901-1.507-18.427C192.689,52.225,170.527,45.044,150.839,44.908z"/>
		<path fill="#00703C" d="M224.795,152.957c3.757,3.002,8.516,4.809,13.699,4.809c12.134,0,21.97-9.837,21.97-21.97
			s-9.835-21.97-21.97-21.97c-7.971,0-14.934,4.259-18.785,10.619l0.003-0.004C200.698,74.383,133.331,53.148,103.53,98.85
			c-10.99,26.464,2.496,40.941,10.981,47.433c-2.497-5.494-2.497-8.988-1.496-14.98c12.441-75.872,133.567-21.157,69.404,69.408
			c-5.027,7.942-6.281,13.387-0.837,18.832c5.444,5.444,13.906,4.023,18.427-1.509C217.478,194.807,224.663,172.645,224.795,152.957
			z"/>
		<path fill="#005695" d="M114.924,225.122c-3.104,3.676-5.035,8.385-5.168,13.572c-0.315,12.129,9.26,22.214,21.39,22.534
			c12.131,0.315,22.22-9.265,22.535-21.396c0.207-7.971-3.871-15.038-10.124-19.052l0,0c50.541-17.703,73.52-84.494,28.613-115.479
			c-26.171-11.671-40.997,1.433-47.706,9.746c5.553-2.351,9.049-2.262,15.011-1.105c75.525,14.413,17.675,134.078-71.188,67.578
			c-7.811-5.236-13.22-6.632-18.804-1.331c-5.584,5.301-4.381,13.796,1.024,18.462C73.277,216.714,95.243,224.476,114.924,225.122z"
			/>
		<path fill="#0194D3" d="M43.787,117.895c-3.762-3.002-8.517-4.809-13.703-4.809c-12.135,0.004-21.967,9.844-21.963,21.978
			c0.005,12.135,9.845,21.97,21.975,21.962c7.975,0,14.938-4.264,18.785-10.622c0,0.004-0.004,0.004-0.004,0.004
			c19.03,50.054,86.405,71.265,116.195,25.557c10.974-26.464-2.511-40.942-11-47.431c2.5,5.491,2.5,8.988,1.499,14.978
			c-12.418,75.879-133.559,21.197-69.428-69.385c5.028-7.944,6.282-13.387,0.838-18.832c-5.448-5.444-13.911-4.018-18.431,1.511
			C51.089,76.041,43.916,98.207,43.787,117.895z"/>
	</g>
	<g>
		<path fill="#005695" d="M276.116,51.631h13.369c13.434,0,24.147,8.309,24.147,22.261c0,15.188-9.217,23.042-24.147,23.042h-13.369
			V51.631z M282.604,91.224h6.815c11.165,0,17.329-5.387,17.329-17.07c0-10.582-7.202-16.813-16.551-16.813h-7.593V91.224z"/>
		<polygon fill="#005695" points="317.725,51.631 343.105,51.631 343.105,57.341 324.221,57.341 324.221,70.581 341.419,70.581 
			341.419,76.294 324.221,76.294 324.221,91.224 343.105,91.224 343.105,96.934 317.725,96.934 		"/>
		<polygon fill="#005695" points="372.214,96.934 364.103,96.934 347.032,51.631 354.302,51.631 368.258,91.224 368.387,91.224 
			382.73,51.631 389.544,51.631 		"/>
		<polygon fill="#005695" points="393.322,51.631 418.699,51.631 418.699,57.341 399.817,57.341 399.817,70.581 417.018,70.581 
			417.018,76.294 399.817,76.294 399.817,91.224 418.699,91.224 418.699,96.934 393.322,96.934 		"/>
		<polygon fill="#005695" points="425.958,51.631 432.451,51.631 432.451,91.224 451.402,91.224 451.402,96.934 425.958,96.934 		
			"/>
		<path fill="#005695" d="M474.328,50.851c13.76,0,21.808,9.994,21.808,23.432c0,13.76-7.986,23.431-21.808,23.431
			c-13.828,0-21.814-9.671-21.814-23.431C452.515,60.845,460.567,50.851,474.328,50.851z M474.328,92.001
			c10.448,0,14.927-8.698,14.927-17.718c0-9.217-4.933-17.783-14.927-17.718c-9.996-0.065-14.937,8.5-14.937,17.718
			C459.392,83.302,463.878,92.001,474.328,92.001z"/>
		<path fill="#005695" d="M502.248,51.631h11.875c9.28,0,17.01,3.244,17.01,13.563c0,10.062-7.86,13.631-16.035,13.631h-6.363
			v18.109h-6.486V51.631z M508.735,73.116h6.426c4.022,0,9.092-2.012,9.092-7.986c0-5.71-5.973-7.789-10.003-7.789h-5.515V73.116z"
			/>
		<polygon fill="#005695" points="536.321,51.631 547.029,51.631 561.25,89.277 575.199,51.631 585.911,51.631 585.911,96.934 
			579.419,96.934 579.419,57.731 579.291,57.731 564.296,96.934 557.939,96.934 542.944,57.731 542.815,57.731 542.815,96.934 
			536.321,96.934 		"/>
		<polygon fill="#005695" points="593.837,51.631 619.22,51.631 619.22,57.341 600.332,57.341 600.332,70.581 617.531,70.581 
			617.531,76.294 600.332,76.294 600.332,91.224 619.22,91.224 619.22,96.934 593.837,96.934 		"/>
		<polygon fill="#005695" points="626.478,51.631 635.307,51.631 655.293,88.107 655.423,88.107 655.423,51.631 661.915,51.631 
			661.915,96.934 653.605,96.934 633.1,59.678 632.966,59.678 632.966,96.934 626.478,96.934 		"/>
		<polygon fill="#005695" points="680.608,57.341 666.524,57.341 666.524,51.631 701.18,51.631 701.18,57.341 687.092,57.341 
			687.092,96.934 680.608,96.934 		"/>
		<path fill="#005695" d="M329.751,121.849c-4.67-3.049-9.725-4.575-18.31-4.575c-15.35,0-25.551,11.156-25.551,26.033
			c0,15.639,11.251,26.031,25.074,26.031c6.58,0,8.296-0.667,10.683-1.146v-20.215h-14.017v-7.818h23.552v34.613
			c-3.624,1.239-9.918,2.955-20.314,2.955c-21.07,0-35.087-13.539-35.087-34.708c0-20.5,14.872-34.138,35.182-34.138
			c9.729,0,14.022,1.432,19.548,3.337L329.751,121.849z"/>
		<path fill="#005695" d="M364.999,110.027h10.011l28.133,66.561h-10.395l-6.772-16.784h-32.609l-6.77,16.784h-10.015
			L364.999,110.027z M369.669,118.99l-13.254,32.993h26.513L369.669,118.99z"/>
		<polygon fill="#005695" points="414.692,118.418 393.997,118.418 393.997,110.027 444.922,110.027 444.922,118.418 
			424.223,118.418 424.223,176.588 414.692,176.588 		"/>
		<polygon fill="#005695" points="454.907,110.027 492.188,110.027 492.188,118.418 464.44,118.418 464.44,137.872 489.709,137.872 
			489.709,146.261 464.44,146.261 464.44,168.193 492.188,168.193 492.188,176.588 454.907,176.588 		"/>
		<polygon fill="#005695" points="499.127,110.027 509.614,110.027 525.542,167.049 525.728,167.049 539.937,110.027 
			553.476,110.027 567.88,167.049 568.068,167.049 583.995,110.027 594.104,110.027 573.602,176.588 561.294,176.588 546.8,118.418 
			546.612,118.418 532.024,176.588 519.246,176.588 		"/>
		<path fill="#005695" d="M611.432,110.027h10.009l28.134,66.561h-10.397l-6.765-16.784h-32.619l-6.765,16.784h-10.018
			L611.432,110.027z M616.101,118.99l-13.255,32.993h26.514L616.101,118.99z"/>
		<polygon fill="#005695" points="665.37,148.74 639.344,110.027 650.498,110.027 670.333,139.875 689.692,110.027 700.847,110.027 
			674.911,148.74 674.911,176.588 665.37,176.588 		"/>
	</g>
	<g>
		<path fill="#0194D3" d="M288.057,227.382c-2.107,0-3.898-0.217-5.373-0.653c-1.476-0.436-2.864-0.973-4.163-1.61v-4.836h0.273
			c1.274,1.197,2.716,2.125,4.329,2.778c1.612,0.658,3.165,0.984,4.66,0.984c2.133,0,3.745-0.445,4.837-1.336
			c1.091-0.89,1.636-2.063,1.636-3.519c0-1.157-0.286-2.099-0.857-2.828c-0.573-0.727-1.482-1.268-2.73-1.618
			c-0.897-0.259-1.717-0.474-2.457-0.643c-0.742-0.169-1.671-0.395-2.788-0.681c-1.003-0.261-1.9-0.594-2.691-0.994
			c-0.794-0.404-1.496-0.931-2.106-1.582c-0.599-0.636-1.064-1.386-1.395-2.252c-0.333-0.864-0.498-1.863-0.498-2.994
			c0-2.352,0.917-4.326,2.75-5.917s4.173-2.39,7.019-2.39c1.624,0,3.161,0.164,4.613,0.488c1.449,0.325,2.79,0.786,4.025,1.384v4.62
			h-0.293c-0.922-0.844-2.105-1.582-3.548-2.213c-1.444-0.63-2.959-0.945-4.545-0.945c-1.794,0-3.243,0.419-4.348,1.257
			c-1.104,0.838-1.657,1.939-1.657,3.305c0,1.236,0.323,2.216,0.974,2.945c0.651,0.727,1.593,1.26,2.827,1.598
			c0.821,0.221,1.821,0.471,3.004,0.751c1.182,0.279,2.164,0.538,2.944,0.771c2.002,0.61,3.465,1.532,4.388,2.769
			c0.924,1.236,1.384,2.756,1.384,4.563c0,1.131-0.231,2.25-0.692,3.352c-0.461,1.106-1.108,2.043-1.94,2.809
			c-0.937,0.845-1.993,1.494-3.17,1.95C291.296,227.155,289.824,227.382,288.057,227.382z"/>
		<path fill="#0194D3" d="M320.04,215.974c0,3.666-0.885,6.498-2.652,8.495c-1.767,1.995-4.121,2.991-7.06,2.991
			c-3.029,0-5.411-1.03-7.146-3.09c-1.736-2.062-2.605-4.859-2.605-8.395c0-3.639,0.895-6.467,2.682-8.481
			c1.787-2.017,4.143-3.025,7.068-3.025c2.938,0,5.292,1.004,7.06,3.014C319.155,209.49,320.04,212.32,320.04,215.974z
			 M316.256,215.974c0-2.821-0.513-4.917-1.54-6.288c-1.026-1.372-2.491-2.057-4.388-2.057c-1.91,0-3.382,0.685-4.417,2.057
			c-1.033,1.371-1.55,3.467-1.55,6.288c0,2.729,0.517,4.802,1.55,6.211c1.035,1.411,2.507,2.115,4.417,2.115
			c1.887,0,3.344-0.69,4.377-2.076C315.74,220.841,316.256,218.756,316.256,215.974z"/>
		<path fill="#0194D3" d="M327.666,226.855H324v-30.341h3.666V226.855z"/>
		<path fill="#0194D3" d="M350.134,226.855h-3.667v-2.418c-1.13,0.988-2.203,1.74-3.216,2.254c-1.015,0.514-2.146,0.769-3.393,0.769
			c-0.951,0-1.844-0.156-2.682-0.468c-0.84-0.311-1.569-0.806-2.194-1.482c-0.623-0.675-1.107-1.526-1.453-2.553
			c-0.343-1.028-0.516-2.275-0.516-3.745v-14.137h3.666v12.402c0,1.156,0.042,2.117,0.126,2.876c0.085,0.76,0.276,1.427,0.577,1.999
			c0.298,0.561,0.706,0.968,1.218,1.229c0.513,0.261,1.25,0.391,2.213,0.391c0.898,0,1.855-0.254,2.868-0.76
			c1.013-0.508,1.942-1.131,2.788-1.874v-16.263h3.667V226.855z"/>
		<path fill="#0194D3" d="M362.149,227.285c-2.003,0-3.561-0.569-4.68-1.706c-1.118-1.138-1.677-2.936-1.677-5.393v-12.069h-2.478
			v-3.042h2.478v-6.26h3.666v6.26h6.746v3.042h-6.746v10.354c0,1.105,0.019,1.958,0.059,2.554c0.039,0.598,0.188,1.156,0.449,1.677
			c0.221,0.456,0.577,0.796,1.073,1.022c0.494,0.229,1.163,0.343,2.009,0.343c0.598,0,1.175-0.087,1.735-0.264
			c0.56-0.176,0.964-0.32,1.211-0.439h0.212v3.296c-0.689,0.195-1.386,0.349-2.096,0.458
			C363.401,227.229,362.748,227.285,362.149,227.285z"/>
		<path fill="#0194D3" d="M373.033,201.426h-4.174v-3.802h4.174V201.426z M372.779,226.855h-3.666v-21.781h3.666V226.855z"/>
		<path fill="#0194D3" d="M396.202,215.974c0,3.666-0.884,6.498-2.652,8.495c-1.766,1.995-4.121,2.991-7.06,2.991
			c-3.028,0-5.41-1.03-7.147-3.09c-1.735-2.062-2.602-4.859-2.602-8.395c0-3.639,0.894-6.467,2.679-8.481
			c1.789-2.017,4.145-3.025,7.07-3.025c2.938,0,5.293,1.004,7.06,3.014C395.318,209.49,396.202,212.32,396.202,215.974z
			 M392.421,215.974c0-2.821-0.515-4.917-1.543-6.288c-1.026-1.372-2.488-2.057-4.387-2.057c-1.91,0-3.383,0.685-4.417,2.057
			c-1.031,1.371-1.549,3.467-1.549,6.288c0,2.729,0.518,4.802,1.549,6.211c1.034,1.411,2.507,2.115,4.417,2.115
			c1.885,0,3.345-0.69,4.379-2.076C391.903,220.841,392.421,218.756,392.421,215.974z"/>
		<path fill="#0194D3" d="M417.206,226.855h-3.666v-12.401c0-1.002-0.049-1.932-0.145-2.798c-0.097-0.865-0.284-1.557-0.557-2.077
			c-0.299-0.546-0.714-0.952-1.248-1.22c-0.532-0.265-1.26-0.399-2.182-0.399c-0.909,0-1.851,0.244-2.819,0.732
			c-0.968,0.487-1.912,1.12-2.837,1.9v16.263h-3.667v-21.781h3.667v2.419c1.093-0.975,2.171-1.725,3.238-2.244
			c1.064-0.52,2.19-0.781,3.373-0.781c2.146,0,3.82,0.705,5.031,2.118c1.209,1.41,1.812,3.453,1.812,6.132V226.855z"/>
		<path fill="#0194D3" d="M428.364,227.382c-1.455,0-2.817-0.195-4.084-0.585c-1.268-0.391-2.318-0.807-3.15-1.247v-4.115h0.195
			c0.313,0.247,0.68,0.52,1.101,0.819c0.423,0.3,0.984,0.611,1.687,0.936c0.623,0.286,1.309,0.539,2.056,0.762
			c0.747,0.22,1.524,0.33,2.331,0.33c0.584,0,1.21-0.069,1.872-0.205c0.662-0.136,1.156-0.309,1.483-0.515
			c0.453-0.301,0.783-0.618,0.984-0.958c0.202-0.337,0.302-0.846,0.302-1.521c0-0.868-0.236-1.528-0.71-1.97
			c-0.477-0.442-1.318-0.811-2.526-1.109c-0.468-0.118-1.079-0.254-1.834-0.41c-0.752-0.157-1.449-0.324-2.085-0.509
			c-1.665-0.478-2.875-1.225-3.628-2.231c-0.755-1.007-1.131-2.226-1.131-3.657c0-1.963,0.741-3.561,2.222-4.797
			c1.484-1.236,3.453-1.852,5.91-1.852c1.209,0,2.423,0.149,3.646,0.449c1.221,0.3,2.251,0.676,3.081,1.131v3.918h-0.196
			c-0.934-0.74-1.979-1.325-3.128-1.755c-1.151-0.429-2.31-0.643-3.481-0.643c-1.21,0-2.23,0.253-3.062,0.76
			c-0.831,0.508-1.245,1.275-1.245,2.3c0,0.911,0.245,1.591,0.738,2.038c0.495,0.449,1.288,0.818,2.382,1.103
			c0.543,0.143,1.152,0.283,1.821,0.419c0.67,0.137,1.375,0.295,2.116,0.476c1.612,0.402,2.825,1.072,3.637,2.008
			c0.813,0.936,1.219,2.21,1.219,3.823c0,0.935-0.187,1.824-0.556,2.662c-0.368,0.839-0.913,1.558-1.627,2.155
			c-0.782,0.651-1.66,1.144-2.643,1.482C431.078,227.215,429.846,227.382,428.364,227.382z"/>
		<path fill="#0194D3" d="M459.609,227.285c-2.003,0-3.564-0.569-4.681-1.706c-1.118-1.138-1.677-2.936-1.677-5.393v-12.069h-2.477
			v-3.042h2.477v-6.26h3.666v6.26h6.747v3.042h-6.747v10.354c0,1.105,0.02,1.958,0.059,2.554c0.038,0.598,0.191,1.156,0.449,1.677
			c0.222,0.456,0.577,0.796,1.073,1.022c0.493,0.229,1.164,0.343,2.009,0.343c0.597,0,1.176-0.087,1.736-0.264
			c0.559-0.176,0.963-0.32,1.21-0.439h0.213v3.296c-0.688,0.195-1.386,0.349-2.096,0.458
			C460.86,227.229,460.205,227.285,459.609,227.285z"/>
		<path fill="#0194D3" d="M483.615,226.855h-3.664v-12.401c0-1.002-0.05-1.932-0.146-2.798c-0.099-0.865-0.284-1.557-0.557-2.077
			c-0.3-0.546-0.714-0.952-1.249-1.22c-0.533-0.265-1.26-0.399-2.182-0.399c-0.911,0-1.851,0.244-2.819,0.732
			c-0.966,0.487-1.913,1.12-2.837,1.9v16.263h-3.667v-30.341h3.667v10.979c1.092-0.975,2.171-1.725,3.238-2.244
			c1.066-0.52,2.19-0.781,3.372-0.781c2.146,0,3.824,0.705,5.033,2.118c1.209,1.41,1.811,3.453,1.811,6.132V226.855z"/>
		<path fill="#0194D3" d="M501.053,224.535c-0.301,0.222-0.7,0.529-1.2,0.927c-0.5,0.396-0.984,0.71-1.454,0.945
			c-0.65,0.339-1.277,0.598-1.881,0.781c-0.605,0.183-1.454,0.272-2.546,0.272c-0.896,0-1.747-0.167-2.552-0.506
			c-0.808-0.339-1.515-0.813-2.128-1.424c-0.585-0.597-1.052-1.336-1.402-2.213c-0.352-0.876-0.528-1.805-0.528-2.779
			c0-1.508,0.318-2.79,0.957-3.851c0.636-1.06,1.643-1.9,3.022-2.526c1.223-0.557,2.664-0.945,4.329-1.158
			c1.664-0.216,3.458-0.374,5.383-0.478v-0.703c0-0.857-0.13-1.55-0.391-2.076c-0.26-0.527-0.624-0.934-1.092-1.219
			c-0.467-0.3-1.04-0.498-1.716-0.596c-0.676-0.097-1.371-0.145-2.086-0.145c-0.845,0-1.841,0.127-2.984,0.379
			c-1.144,0.255-2.287,0.621-3.431,1.103h-0.216v-3.725c0.676-0.195,1.645-0.409,2.907-0.643c1.26-0.235,2.509-0.35,3.742-0.35
			c1.497,0,2.758,0.115,3.784,0.35c1.027,0.234,1.95,0.656,2.771,1.268c0.791,0.596,1.383,1.371,1.773,2.319
			c0.39,0.95,0.585,2.107,0.585,3.471v14.898h-3.645V224.535z M501.053,221.495v-6.046c-0.87,0.076-1.974,0.187-3.305,0.322
			c-1.335,0.136-2.408,0.328-3.229,0.576c-0.974,0.299-1.78,0.758-2.417,1.374c-0.636,0.616-0.955,1.48-0.955,2.584
			c0,1.247,0.35,2.19,1.053,2.827c0.702,0.637,1.728,0.957,3.081,0.957c1.157,0,2.203-0.252,3.14-0.75
			C499.357,222.837,500.233,222.222,501.053,221.495z"/>
		<path fill="#0194D3" d="M516.559,227.285c-2.003,0-3.563-0.569-4.682-1.706c-1.118-1.138-1.677-2.936-1.677-5.393v-12.069h-2.476
			v-3.042h2.476v-6.26h3.668v6.26h6.746v3.042h-6.746v10.354c0,1.105,0.019,1.958,0.057,2.554c0.038,0.598,0.188,1.156,0.449,1.677
			c0.222,0.456,0.578,0.796,1.073,1.022c0.493,0.229,1.163,0.343,2.008,0.343c0.598,0,1.176-0.087,1.736-0.264
			c0.559-0.176,0.963-0.32,1.21-0.439h0.213v3.296c-0.689,0.195-1.386,0.349-2.096,0.458
			C517.81,227.229,517.156,227.285,516.559,227.285z"/>
		<path fill="#0194D3" d="M545.502,227.363c-3.472,0-6.165-0.978-8.084-2.935c-1.916-1.956-2.877-4.736-2.877-8.337
			c0-3.55,0.93-6.373,2.788-8.472c1.86-2.101,4.29-3.151,7.294-3.151c1.352,0,2.548,0.194,3.588,0.585
			c1.04,0.391,1.95,1.004,2.729,1.834c0.781,0.833,1.378,1.85,1.794,3.051c0.417,1.201,0.623,2.675,0.623,4.417v1.99h-15.092
			c0,2.535,0.637,4.472,1.911,5.811c1.274,1.338,3.036,2.008,5.285,2.008c0.807,0,1.596-0.089,2.369-0.272
			c0.773-0.183,1.472-0.417,2.097-0.703c0.663-0.3,1.222-0.588,1.675-0.868c0.456-0.279,0.834-0.542,1.131-0.789h0.214v3.997
			c-0.429,0.17-0.961,0.38-1.598,0.635c-0.636,0.252-1.21,0.449-1.717,0.594c-0.715,0.194-1.362,0.343-1.94,0.449
			C547.118,227.312,546.387,227.363,545.502,227.363z M549.792,213.537c-0.027-0.988-0.144-1.84-0.35-2.554
			c-0.207-0.714-0.509-1.32-0.899-1.814c-0.429-0.547-0.977-0.963-1.647-1.248c-0.67-0.284-1.498-0.427-2.485-0.427
			c-0.977,0-1.805,0.145-2.487,0.437c-0.683,0.293-1.305,0.719-1.864,1.276c-0.544,0.575-0.961,1.208-1.246,1.902
			c-0.286,0.696-0.469,1.505-0.547,2.428H549.792z"/>
		<path fill="#0194D3" d="M581.913,226.855v-12.598c0-1-0.04-1.927-0.118-2.778c-0.077-0.851-0.241-1.518-0.487-2
			c-0.26-0.518-0.631-0.903-1.112-1.148c-0.479-0.247-1.131-0.372-1.948-0.372c-0.754,0-1.564,0.231-2.429,0.692
			c-0.863,0.461-1.758,1.129-2.68,2c0.013,0.223,0.028,0.484,0.047,0.791c0.021,0.304,0.03,0.665,0.03,1.082v14.332h-3.666v-12.598
			c0-1-0.039-1.927-0.115-2.778c-0.079-0.851-0.241-1.518-0.488-2c-0.261-0.518-0.633-0.903-1.112-1.148
			c-0.48-0.247-1.13-0.372-1.95-0.372c-0.792,0-1.625,0.246-2.496,0.741c-0.872,0.493-1.716,1.124-2.534,1.891v16.263h-3.667
			v-21.781h3.667v2.419c0.962-0.964,1.913-1.707,2.855-2.234c0.945-0.528,1.98-0.791,3.111-0.791c1.288,0,2.428,0.293,3.424,0.877
			c0.993,0.587,1.75,1.548,2.272,2.887c1.103-1.235,2.184-2.17,3.237-2.807c1.051-0.637,2.195-0.957,3.432-0.957
			c0.937,0,1.787,0.148,2.554,0.44c0.768,0.292,1.437,0.764,2.009,1.412c0.586,0.665,1.036,1.491,1.356,2.478
			c0.32,0.988,0.476,2.229,0.476,3.725v14.332H581.913z"/>
		<path fill="#0194D3" d="M609.116,215.389c0,3.628-0.866,6.518-2.603,8.669c-1.735,2.151-3.929,3.227-6.581,3.227
			c-1.079,0-2.035-0.124-2.866-0.37c-0.832-0.247-1.684-0.632-2.554-1.152v9.128h-3.666v-29.816h3.666v2.28
			c0.908-0.818,1.92-1.502,3.031-2.055c1.113-0.555,2.324-0.831,3.639-0.831c2.496,0,4.442,0.988,5.839,2.965
			C608.418,209.411,609.116,212.062,609.116,215.389z M605.333,215.799c0-2.482-0.396-4.408-1.189-5.78
			c-0.792-1.373-2.079-2.058-3.861-2.058c-1.041,0-2.044,0.231-3.012,0.692c-0.97,0.461-1.889,1.057-2.76,1.784v12.344
			c0.962,0.469,1.783,0.787,2.466,0.956c0.683,0.169,1.466,0.255,2.35,0.255c1.9,0,3.373-0.697,4.426-2.089
			C604.807,220.513,605.333,218.477,605.333,215.799z"/>
		<path fill="#0194D3" d="M630.96,215.974c0,3.666-0.884,6.498-2.652,8.495c-1.768,1.995-4.121,2.991-7.06,2.991
			c-3.029,0-5.411-1.03-7.148-3.09c-1.734-2.062-2.601-4.859-2.601-8.395c0-3.639,0.892-6.467,2.68-8.481
			c1.786-2.017,4.145-3.025,7.068-3.025c2.938,0,5.291,1.004,7.06,3.014C630.076,209.49,630.96,212.32,630.96,215.974z
			 M627.177,215.974c0-2.821-0.513-4.917-1.541-6.288c-1.027-1.372-2.489-2.057-4.387-2.057c-1.911,0-3.382,0.685-4.416,2.057
			c-1.035,1.371-1.551,3.467-1.551,6.288c0,2.729,0.516,4.802,1.551,6.211c1.034,1.411,2.505,2.115,4.416,2.115
			c1.887,0,3.345-0.69,4.378-2.076C626.661,220.841,627.177,218.756,627.177,215.974z"/>
		<path fill="#0194D3" d="M661.246,205.074l-5.516,21.781h-3.393l-5.325-16.789l-5.284,16.789h-3.374l-5.578-21.781h3.823
			l3.841,16.866l5.168-16.866h3.022l5.305,16.866l3.627-16.866H661.246z"/>
		<path fill="#0194D3" d="M674.062,227.363c-3.471,0-6.164-0.978-8.083-2.935c-1.919-1.956-2.877-4.736-2.877-8.337
			c0-3.55,0.928-6.373,2.788-8.472c1.86-2.101,4.29-3.151,7.292-3.151c1.353,0,2.548,0.194,3.589,0.585
			c1.041,0.391,1.949,1.004,2.73,1.834c0.779,0.833,1.378,1.85,1.794,3.051c0.417,1.201,0.624,2.675,0.624,4.417v1.99h-15.094
			c0,2.535,0.637,4.472,1.911,5.811c1.274,1.338,3.035,2.008,5.284,2.008c0.808,0,1.597-0.089,2.371-0.272
			c0.772-0.183,1.47-0.417,2.093-0.703c0.664-0.3,1.224-0.588,1.679-0.868c0.455-0.279,0.831-0.542,1.131-0.789h0.214v3.997
			c-0.429,0.17-0.964,0.38-1.602,0.635c-0.634,0.252-1.208,0.449-1.713,0.594c-0.715,0.194-1.363,0.343-1.94,0.449
			C675.679,227.312,674.945,227.363,674.062,227.363z M678.351,213.537c-0.026-0.988-0.143-1.84-0.35-2.554
			c-0.208-0.714-0.507-1.32-0.897-1.814c-0.429-0.547-0.979-0.963-1.648-1.248c-0.67-0.284-1.498-0.427-2.487-0.427
			c-0.974,0-1.802,0.145-2.485,0.437c-0.683,0.293-1.304,0.719-1.863,1.276c-0.547,0.575-0.963,1.208-1.248,1.902
			c-0.287,0.696-0.467,1.505-0.546,2.428H678.351z"/>
		<path fill="#0194D3" d="M697.289,209.012h-0.197c-0.271-0.076-0.562-0.124-0.866-0.145c-0.304-0.018-0.673-0.029-1.102-0.029
			c-0.988,0-1.969,0.213-2.945,0.642c-0.974,0.429-1.898,1.067-2.769,1.912v15.463h-3.665v-21.781h3.665v3.236
			c1.34-1.182,2.505-2.016,3.501-2.505c0.995-0.486,1.959-0.731,2.894-0.731c0.379,0,0.661,0.01,0.85,0.029
			c0.188,0.019,0.399,0.049,0.633,0.088V209.012z"/>
	</g>
</g>
<g id="Layer_3" display="none">
	<g id="Layer_2" display="inline">
		<rect x="646.169" y="-754.711" fill="#005695" width="22.249" height="22.249"/>
		<rect x="646.169" y="-727.443" fill="#0194D3" width="22.249" height="22.249"/>
		<rect x="646.169" y="-699.768" fill="#FFDD00" width="22.249" height="22.25"/>
		<rect x="646.169" y="-671.276" fill="#00703C" width="22.249" height="22.249"/>
	</g>
	<g display="inline">
		<path d="M675.601-745.607c0.41-0.078,0.948-0.137,1.632-0.137c0.839,0,1.453,0.195,1.844,0.547
			c0.361,0.312,0.587,0.791,0.587,1.376c0,0.596-0.177,1.064-0.518,1.406c-0.448,0.479-1.181,0.723-2.011,0.723
			c-0.254,0-0.488-0.011-0.684-0.06v2.636h-0.85V-745.607z M676.451-742.445c0.185,0.05,0.43,0.068,0.703,0.068
			c1.035,0,1.649-0.508,1.649-1.395c0-0.878-0.614-1.299-1.552-1.299c-0.371,0-0.654,0.04-0.801,0.068V-742.445z"/>
		<path d="M683.844-740.248c0,0.41,0.021,0.811,0.068,1.132h-0.771l-0.078-0.595h-0.029c-0.254,0.371-0.771,0.702-1.444,0.702
			c-0.957,0-1.445-0.673-1.445-1.357c0-1.143,1.015-1.768,2.841-1.758v-0.097c0-0.392-0.107-1.104-1.074-1.094
			c-0.448,0-0.908,0.127-1.239,0.352l-0.195-0.576c0.39-0.244,0.966-0.41,1.562-0.41c1.455,0,1.806,0.986,1.806,1.933V-740.248z
			 M683.005-741.526c-0.938-0.021-2.002,0.146-2.002,1.063c0,0.567,0.372,0.82,0.802,0.82c0.624,0,1.024-0.391,1.161-0.791
			c0.029-0.088,0.039-0.185,0.039-0.273V-741.526z"/>
		<path d="M685.224-742.561c0-0.499-0.01-0.889-0.039-1.279h0.761l0.05,0.771h0.019c0.234-0.439,0.781-0.879,1.562-0.879
			c0.653,0,1.669,0.391,1.669,2.012v2.82h-0.86v-2.723c0-0.762-0.282-1.406-1.093-1.406c-0.557,0-0.996,0.4-1.151,0.878
			c-0.039,0.107-0.059,0.265-0.059,0.401v2.85h-0.859V-742.561z"/>
		<path d="M691.642-744.973v1.133h1.229v0.654h-1.229v2.548c0,0.586,0.166,0.918,0.645,0.918c0.233,0,0.37-0.02,0.497-0.059
			l0.039,0.654c-0.166,0.058-0.43,0.116-0.762,0.116c-0.399,0-0.722-0.137-0.927-0.36c-0.234-0.264-0.333-0.684-0.333-1.24v-2.577
			h-0.731v-0.654h0.731v-0.869L691.642-744.973z"/>
		<path d="M695.706-739.008c-1.269,0-2.266-0.937-2.266-2.431c0-1.581,1.045-2.509,2.343-2.509c1.358,0,2.275,0.986,2.275,2.422
			c0,1.757-1.221,2.518-2.344,2.518H695.706z M695.736-739.652c0.819,0,1.435-0.771,1.435-1.846c0-0.801-0.4-1.806-1.415-1.806
			c-1.007,0-1.445,0.937-1.445,1.835c0,1.035,0.585,1.816,1.415,1.816H695.736z"/>
		<path d="M699.145-742.561c0-0.499-0.01-0.889-0.038-1.279h0.762l0.048,0.771h0.021c0.233-0.439,0.78-0.879,1.56-0.879
			c0.654,0,1.67,0.391,1.67,2.012v2.82h-0.859v-2.723c0-0.762-0.282-1.406-1.094-1.406c-0.556,0-0.995,0.4-1.151,0.878
			c-0.039,0.107-0.058,0.265-0.058,0.401v2.85h-0.86V-742.561z"/>
		<path d="M705.054-741.332c0.019,1.162,0.752,1.64,1.611,1.64c0.614,0,0.996-0.107,1.308-0.233l0.156,0.604
			c-0.303,0.137-0.829,0.304-1.581,0.304c-1.445,0-2.324-0.967-2.324-2.383c0-1.434,0.85-2.558,2.227-2.558
			c1.542,0,1.942,1.357,1.942,2.227c0,0.176-0.01,0.312-0.029,0.409L705.054-741.332z M707.564-741.947
			c0.009-0.536-0.226-1.396-1.182-1.396c-0.878,0-1.25,0.8-1.318,1.396H707.564z"/>
		<path d="M714.879-744.866c-0.176-0.01-0.401,0.011-0.645,0.05c-1.357,0.214-2.06,1.2-2.206,2.255h0.018
			c0.303-0.41,0.84-0.742,1.543-0.742c1.122,0,1.913,0.82,1.913,2.05c0,1.172-0.791,2.245-2.118,2.245
			c-1.347,0-2.236-1.054-2.236-2.704c0-1.249,0.44-2.235,1.075-2.87c0.526-0.517,1.23-0.84,2.03-0.937
			c0.254-0.04,0.469-0.049,0.625-0.049V-744.866z M713.406-739.671c0.73,0,1.229-0.615,1.229-1.523c0-0.907-0.518-1.455-1.308-1.455
			c-0.518,0-1.007,0.312-1.24,0.782c-0.049,0.098-0.088,0.214-0.088,0.37c0.01,1.045,0.498,1.826,1.396,1.826H713.406z"/>
		<path d="M718.923-739.116v-1.728h-2.949v-0.557l2.832-4.061h0.928v3.954h0.888v0.664h-0.888v1.728H718.923z M718.923-741.507
			v-2.128c0-0.332,0.01-0.663,0.028-0.996h-0.028c-0.195,0.371-0.352,0.645-0.527,0.947l-1.552,2.158v0.018H718.923z"/>
		<path d="M725.399-745.462v0.567l-2.764,5.778h-0.879l2.744-5.613v-0.018h-3.104v-0.714H725.399z"/>
		<path d="M729.511-745.696v3.905c0,1.465,0.654,2.09,1.533,2.09c0.967,0,1.601-0.645,1.601-2.09v-3.905h0.86v3.847
			c0,2.021-1.065,2.841-2.49,2.841c-1.347,0-2.362-0.761-2.362-2.812v-3.876H729.511z"/>
	</g>
	<g display="inline">
		<path d="M675.601-719.56c0.41-0.078,0.948-0.137,1.632-0.137c0.839,0,1.453,0.195,1.844,0.547
			c0.361,0.312,0.587,0.791,0.587,1.376c0,0.597-0.177,1.065-0.518,1.406c-0.448,0.478-1.181,0.723-2.011,0.723
			c-0.254,0-0.488-0.011-0.684-0.059v2.636h-0.85V-719.56z M676.451-716.397c0.185,0.049,0.43,0.068,0.703,0.068
			c1.035,0,1.649-0.508,1.649-1.396c0-0.879-0.614-1.299-1.552-1.299c-0.371,0-0.654,0.039-0.801,0.068V-716.397z"/>
		<path d="M683.844-714.201c0,0.41,0.021,0.81,0.068,1.133h-0.771l-0.078-0.596h-0.029c-0.254,0.371-0.771,0.703-1.444,0.703
			c-0.957,0-1.445-0.674-1.445-1.357c0-1.142,1.015-1.767,2.841-1.757v-0.098c0-0.391-0.107-1.103-1.074-1.094
			c-0.448,0-0.908,0.128-1.239,0.352l-0.195-0.575c0.39-0.244,0.966-0.41,1.562-0.41c1.455,0,1.806,0.985,1.806,1.932V-714.201z
			 M683.005-715.479c-0.938-0.019-2.002,0.147-2.002,1.064c0,0.567,0.372,0.82,0.802,0.82c0.624,0,1.024-0.39,1.161-0.791
			c0.029-0.087,0.039-0.185,0.039-0.273V-715.479z"/>
		<path d="M685.224-716.514c0-0.498-0.01-0.889-0.039-1.278h0.761l0.05,0.771h0.019c0.234-0.44,0.781-0.878,1.562-0.878
			c0.653,0,1.669,0.39,1.669,2.011v2.821h-0.86v-2.724c0-0.762-0.282-1.406-1.093-1.406c-0.557,0-0.996,0.401-1.151,0.879
			c-0.039,0.107-0.059,0.264-0.059,0.4v2.851h-0.859V-716.514z"/>
		<path d="M691.642-718.925v1.133h1.229v0.654h-1.229v2.547c0,0.586,0.166,0.918,0.645,0.918c0.233,0,0.37-0.019,0.497-0.059
			l0.039,0.654c-0.166,0.059-0.43,0.117-0.762,0.117c-0.399,0-0.722-0.137-0.927-0.361c-0.234-0.264-0.333-0.684-0.333-1.24v-2.576
			h-0.731v-0.654h0.731v-0.869L691.642-718.925z"/>
		<path d="M695.706-712.961c-1.269,0-2.266-0.938-2.266-2.431c0-1.581,1.045-2.509,2.343-2.509c1.358,0,2.275,0.985,2.275,2.421
			c0,1.757-1.221,2.519-2.344,2.519H695.706z M695.736-713.605c0.819,0,1.435-0.772,1.435-1.846c0-0.8-0.4-1.806-1.415-1.806
			c-1.007,0-1.445,0.938-1.445,1.835c0,1.035,0.585,1.816,1.415,1.816H695.736z"/>
		<path d="M699.145-716.514c0-0.498-0.01-0.889-0.038-1.278h0.762l0.048,0.771h0.021c0.233-0.44,0.78-0.878,1.56-0.878
			c0.654,0,1.67,0.39,1.67,2.011v2.821h-0.859v-2.724c0-0.762-0.282-1.406-1.094-1.406c-0.556,0-0.995,0.401-1.151,0.879
			c-0.039,0.107-0.058,0.264-0.058,0.4v2.851h-0.86V-716.514z"/>
		<path d="M705.054-715.284c0.019,1.162,0.752,1.64,1.611,1.64c0.614,0,0.996-0.107,1.308-0.234l0.156,0.605
			c-0.303,0.137-0.829,0.303-1.581,0.303c-1.445,0-2.324-0.967-2.324-2.383c0-1.435,0.85-2.558,2.227-2.558
			c1.542,0,1.942,1.357,1.942,2.227c0,0.176-0.01,0.312-0.029,0.409L705.054-715.284z M707.564-715.9
			c0.009-0.536-0.226-1.395-1.182-1.395c-0.878,0-1.25,0.801-1.318,1.395H707.564z"/>
		<path d="M715.376-719.414v0.566l-2.762,5.779h-0.879l2.742-5.613v-0.019h-3.103v-0.713H715.376z"/>
		<path d="M718.923-713.068v-1.729h-2.949v-0.557l2.832-4.06h0.928v3.954h0.888v0.663h-0.888v1.729H718.923z M718.923-715.46v-2.128
			c0-0.333,0.01-0.664,0.028-0.996h-0.028c-0.195,0.371-0.352,0.644-0.527,0.946l-1.552,2.158v0.02H718.923z"/>
		<path d="M724.9-718.818c-0.175-0.01-0.399,0.01-0.645,0.049c-1.355,0.215-2.06,1.2-2.205,2.255h0.019
			c0.302-0.41,0.839-0.742,1.542-0.742c1.122,0,1.913,0.82,1.913,2.05c0,1.172-0.791,2.246-2.118,2.246
			c-1.348,0-2.235-1.055-2.235-2.704c0-1.25,0.438-2.235,1.073-2.871c0.527-0.517,1.231-0.839,2.031-0.937
			c0.253-0.039,0.468-0.049,0.624-0.049V-718.818z M723.426-713.625c0.732,0,1.23-0.615,1.23-1.522c0-0.908-0.518-1.455-1.309-1.455
			c-0.517,0-1.005,0.312-1.24,0.781c-0.049,0.098-0.088,0.215-0.088,0.37c0.01,1.045,0.498,1.826,1.396,1.826H723.426z"/>
		<path d="M728.154-718.613h-0.019l-1.104,0.595l-0.166-0.653l1.385-0.742h0.733v6.346h-0.83V-718.613z"/>
		<path d="M734.523-719.648v3.905c0,1.464,0.653,2.089,1.532,2.089c0.967,0,1.601-0.644,1.601-2.089v-3.905h0.859v3.847
			c0,2.02-1.064,2.841-2.489,2.841c-1.348,0-2.362-0.762-2.362-2.811v-3.876H734.523z"/>
	</g>
	<g display="inline">
		<path d="M675.601-690.664c0.41-0.078,0.948-0.137,1.632-0.137c0.839,0,1.453,0.195,1.844,0.547
			c0.361,0.312,0.587,0.791,0.587,1.376c0,0.596-0.177,1.065-0.518,1.406c-0.448,0.479-1.181,0.723-2.011,0.723
			c-0.254,0-0.488-0.011-0.684-0.06v2.637h-0.85V-690.664z M676.451-687.501c0.185,0.049,0.43,0.068,0.703,0.068
			c1.035,0,1.649-0.508,1.649-1.396c0-0.878-0.614-1.299-1.552-1.299c-0.371,0-0.654,0.04-0.801,0.068V-687.501z"/>
		<path d="M683.844-685.304c0,0.41,0.021,0.81,0.068,1.133h-0.771l-0.078-0.596h-0.029c-0.254,0.371-0.771,0.703-1.444,0.703
			c-0.957,0-1.445-0.674-1.445-1.357c0-1.143,1.015-1.767,2.841-1.758v-0.097c0-0.391-0.107-1.104-1.074-1.094
			c-0.448,0-0.908,0.127-1.239,0.352l-0.195-0.576c0.39-0.243,0.966-0.41,1.562-0.41c1.455,0,1.806,0.986,1.806,1.933V-685.304z
			 M683.005-686.583c-0.938-0.021-2.002,0.146-2.002,1.063c0,0.566,0.372,0.82,0.802,0.82c0.624,0,1.024-0.391,1.161-0.791
			c0.029-0.088,0.039-0.185,0.039-0.273V-686.583z"/>
		<path d="M685.224-687.618c0-0.498-0.01-0.889-0.039-1.279h0.761l0.05,0.771h0.019c0.234-0.44,0.781-0.879,1.562-0.879
			c0.653,0,1.669,0.391,1.669,2.012v2.821h-0.86v-2.724c0-0.762-0.282-1.406-1.093-1.406c-0.557,0-0.996,0.4-1.151,0.878
			c-0.039,0.107-0.059,0.265-0.059,0.401v2.851h-0.859V-687.618z"/>
		<path d="M691.642-690.03v1.133h1.229v0.654h-1.229v2.548c0,0.586,0.166,0.918,0.645,0.918c0.233,0,0.37-0.019,0.497-0.059
			l0.039,0.654c-0.166,0.058-0.43,0.117-0.762,0.117c-0.399,0-0.722-0.137-0.927-0.361c-0.234-0.264-0.333-0.684-0.333-1.24v-2.577
			h-0.731v-0.654h0.731v-0.868L691.642-690.03z"/>
		<path d="M695.706-684.064c-1.269,0-2.266-0.938-2.266-2.432c0-1.581,1.045-2.509,2.343-2.509c1.358,0,2.275,0.986,2.275,2.422
			c0,1.757-1.221,2.519-2.344,2.519H695.706z M695.736-684.709c0.819,0,1.435-0.771,1.435-1.846c0-0.801-0.4-1.806-1.415-1.806
			c-1.007,0-1.445,0.937-1.445,1.835c0,1.035,0.585,1.817,1.415,1.817H695.736z"/>
		<path d="M699.145-687.618c0-0.498-0.01-0.889-0.038-1.279h0.762l0.048,0.771h0.021c0.233-0.44,0.78-0.879,1.56-0.879
			c0.654,0,1.67,0.391,1.67,2.012v2.821h-0.859v-2.724c0-0.762-0.282-1.406-1.094-1.406c-0.556,0-0.995,0.4-1.151,0.878
			c-0.039,0.107-0.058,0.265-0.058,0.401v2.851h-0.86V-687.618z"/>
		<path d="M705.054-686.388c0.019,1.162,0.752,1.64,1.611,1.64c0.614,0,0.996-0.106,1.308-0.233l0.156,0.605
			c-0.303,0.137-0.829,0.303-1.581,0.303c-1.445,0-2.324-0.967-2.324-2.383c0-1.435,0.85-2.558,2.227-2.558
			c1.542,0,1.942,1.357,1.942,2.227c0,0.176-0.01,0.312-0.029,0.409L705.054-686.388z M707.564-687.004
			c0.009-0.536-0.226-1.396-1.182-1.396c-0.878,0-1.25,0.801-1.318,1.396H707.564z"/>
		<path d="M713.122-689.717h-0.021l-1.102,0.596l-0.166-0.653l1.386-0.742h0.733v6.346h-0.83V-689.717z"/>
		<path d="M718.289-684.064c-1.24,0-2.09-1.162-2.11-3.261c0-2.138,0.929-3.3,2.217-3.3c1.327,0,2.099,1.19,2.099,3.212
			c0,2.157-0.81,3.349-2.196,3.349H718.289z M718.327-684.728c0.869,0,1.289-1.025,1.289-2.646c0-1.562-0.391-2.588-1.289-2.588
			c-0.781,0-1.288,0.996-1.288,2.588c-0.019,1.649,0.488,2.646,1.278,2.646H718.327z"/>
		<path d="M721.777-684.767c0.185,0.01,0.399,0,0.692-0.039c0.499-0.059,0.967-0.264,1.328-0.615c0.42-0.381,0.723-0.938,0.84-1.69
			h-0.03c-0.352,0.431-0.858,0.684-1.503,0.684c-1.143,0-1.874-0.859-1.874-1.952c0-1.191,0.878-2.245,2.177-2.245
			c1.299,0,2.099,1.044,2.099,2.675c0,1.396-0.469,2.372-1.093,2.987c-0.488,0.469-1.162,0.771-1.846,0.85
			c-0.312,0.039-0.596,0.058-0.79,0.049V-684.767z M723.328-689.97c-0.723,0-1.24,0.645-1.24,1.542c0,0.791,0.479,1.347,1.221,1.347
			c0.576,0,1.024-0.282,1.26-0.663c0.038-0.078,0.068-0.176,0.068-0.312c0.01-1.093-0.4-1.913-1.299-1.913H723.328z"/>
		<path d="M729.511-690.752v3.905c0,1.464,0.654,2.089,1.533,2.089c0.967,0,1.601-0.645,1.601-2.089v-3.905h0.86v3.846
			c0,2.021-1.065,2.842-2.49,2.842c-1.347,0-2.362-0.762-2.362-2.812v-3.875H729.511z"/>
	</g>
	<g display="inline">
		<path d="M675.601-662.989c0.41-0.077,0.948-0.137,1.632-0.137c0.839,0,1.453,0.196,1.844,0.547
			c0.361,0.312,0.587,0.791,0.587,1.376c0,0.597-0.177,1.065-0.518,1.406c-0.448,0.479-1.181,0.723-2.011,0.723
			c-0.254,0-0.488-0.01-0.684-0.059v2.636h-0.85V-662.989z M676.451-659.826c0.185,0.05,0.43,0.068,0.703,0.068
			c1.035,0,1.649-0.508,1.649-1.396c0-0.879-0.614-1.299-1.552-1.299c-0.371,0-0.654,0.039-0.801,0.068V-659.826z"/>
		<path d="M683.844-657.629c0,0.41,0.021,0.81,0.068,1.133h-0.771l-0.078-0.596h-0.029c-0.254,0.372-0.771,0.703-1.444,0.703
			c-0.957,0-1.445-0.673-1.445-1.357c0-1.142,1.015-1.767,2.841-1.758v-0.098c0-0.391-0.107-1.103-1.074-1.094
			c-0.448,0-0.908,0.128-1.239,0.352l-0.195-0.575c0.39-0.244,0.966-0.41,1.562-0.41c1.455,0,1.806,0.985,1.806,1.933V-657.629z
			 M683.005-658.908c-0.938-0.02-2.002,0.146-2.002,1.063c0,0.567,0.372,0.82,0.802,0.82c0.624,0,1.024-0.39,1.161-0.79
			c0.029-0.088,0.039-0.186,0.039-0.274V-658.908z"/>
		<path d="M685.224-659.943c0-0.498-0.01-0.889-0.039-1.278h0.761l0.05,0.771h0.019c0.234-0.44,0.781-0.878,1.562-0.878
			c0.653,0,1.669,0.391,1.669,2.011v2.821h-0.86v-2.724c0-0.761-0.282-1.406-1.093-1.406c-0.557,0-0.996,0.401-1.151,0.879
			c-0.039,0.107-0.059,0.264-0.059,0.4v2.851h-0.859V-659.943z"/>
		<path d="M691.642-662.354v1.133h1.229v0.654h-1.229v2.547c0,0.586,0.166,0.919,0.645,0.919c0.233,0,0.37-0.021,0.497-0.06
			l0.039,0.654c-0.166,0.059-0.43,0.117-0.762,0.117c-0.399,0-0.722-0.137-0.927-0.361c-0.234-0.264-0.333-0.684-0.333-1.239v-2.577
			h-0.731v-0.654h0.731v-0.869L691.642-662.354z"/>
		<path d="M695.706-656.389c-1.269,0-2.266-0.938-2.266-2.431c0-1.581,1.045-2.509,2.343-2.509c1.358,0,2.275,0.985,2.275,2.421
			c0,1.757-1.221,2.519-2.344,2.519H695.706z M695.736-657.033c0.819,0,1.435-0.772,1.435-1.846c0-0.801-0.4-1.807-1.415-1.807
			c-1.007,0-1.445,0.938-1.445,1.836c0,1.035,0.585,1.816,1.415,1.816H695.736z"/>
		<path d="M699.145-659.943c0-0.498-0.01-0.889-0.038-1.278h0.762l0.048,0.771h0.021c0.233-0.44,0.78-0.878,1.56-0.878
			c0.654,0,1.67,0.391,1.67,2.011v2.821h-0.859v-2.724c0-0.761-0.282-1.406-1.094-1.406c-0.556,0-0.995,0.401-1.151,0.879
			c-0.039,0.107-0.058,0.264-0.058,0.4v2.851h-0.86V-659.943z"/>
		<path d="M705.054-658.713c0.019,1.162,0.752,1.64,1.611,1.64c0.614,0,0.996-0.107,1.308-0.233l0.156,0.604
			c-0.303,0.137-0.829,0.303-1.581,0.303c-1.445,0-2.324-0.967-2.324-2.382c0-1.436,0.85-2.559,2.227-2.559
			c1.542,0,1.942,1.358,1.942,2.227c0,0.176-0.01,0.312-0.029,0.409L705.054-658.713z M707.564-659.328
			c0.009-0.537-0.226-1.396-1.182-1.396c-0.878,0-1.25,0.801-1.318,1.396H707.564z"/>
		<path d="M711.462-657.472c0.243,0.146,0.8,0.39,1.405,0.39c1.094,0,1.445-0.693,1.435-1.229c-0.01-0.889-0.81-1.27-1.641-1.27
			h-0.479v-0.643h0.479c0.625,0,1.416-0.323,1.416-1.074c0-0.508-0.322-0.957-1.113-0.957c-0.508,0-0.995,0.225-1.268,0.42
			l-0.234-0.625c0.342-0.244,0.986-0.488,1.67-0.488c1.249,0,1.815,0.742,1.815,1.514c0,0.664-0.401,1.22-1.172,1.503v0.021
			c0.78,0.146,1.416,0.731,1.416,1.619c0,1.017-0.801,1.904-2.315,1.904c-0.712,0-1.337-0.225-1.649-0.43L711.462-657.472z"/>
		<path d="M718.923-656.497v-1.729h-2.949v-0.556l2.832-4.061h0.928v3.954h0.888v0.663h-0.888v1.729H718.923z M718.923-658.888
			v-2.128c0-0.332,0.01-0.664,0.028-0.996h-0.028c-0.195,0.371-0.352,0.645-0.527,0.946l-1.552,2.158v0.02H718.923z"/>
		<path d="M721.777-657.092c0.185,0.01,0.399,0,0.692-0.038c0.499-0.06,0.967-0.265,1.328-0.615c0.42-0.381,0.723-0.938,0.84-1.689
			h-0.03c-0.352,0.43-0.858,0.684-1.503,0.684c-1.143,0-1.874-0.859-1.874-1.952c0-1.191,0.878-2.246,2.177-2.246
			c1.299,0,2.099,1.045,2.099,2.675c0,1.397-0.469,2.373-1.093,2.987c-0.488,0.469-1.162,0.771-1.846,0.85
			c-0.312,0.039-0.596,0.059-0.79,0.049V-657.092z M723.328-662.296c-0.723,0-1.24,0.645-1.24,1.542
			c0,0.791,0.479,1.348,1.221,1.348c0.576,0,1.024-0.283,1.26-0.664c0.038-0.078,0.068-0.176,0.068-0.312
			c0.01-1.093-0.4-1.913-1.299-1.913H723.328z"/>
		<path d="M729.511-663.077v3.905c0,1.464,0.654,2.089,1.533,2.089c0.967,0,1.601-0.643,1.601-2.089v-3.905h0.86v3.847
			c0,2.021-1.065,2.841-2.49,2.841c-1.347,0-2.362-0.762-2.362-2.811v-3.876H729.511z"/>
	</g>
</g>
</svg>
