<?xml version="1.0" encoding="utf-8"?>
<!-- Generator: Adobe Illustrator 18.1.1, SVG Export Plug-In . SVG Version: 6.00 Build 0)  -->
<svg version="1.1" xmlns="http://www.w3.org/2000/svg" xmlns:xlink="http://www.w3.org/1999/xlink" x="0px" y="0px"
	 viewBox="0 0 707.824 269.987" enable-background="new 0 0 707.824 269.987" xml:space="preserve">
<g id="Layer_1">
	<path fill="#FFFFFF" d="M215.916,69.694c5.53,4.525,6.955,12.983,1.507,18.427c-5.443,5.448-10.887,4.19-18.831-0.837
		c-90.56-64.162-145.28,56.967-69.404,69.407c5.99,0.998,9.486,0.998,14.977-1.499c-6.491,8.489-20.969,21.971-47.434,10.985
		c-45.697-29.805-24.466-97.169,25.595-116.183l0,0c-6.354-3.848-10.618-10.81-10.618-18.785c0-12.135,9.836-21.971,21.97-21.971
		c12.134,0,21.97,9.836,21.97,21.971c0,5.186-1.807,9.941-4.809,13.699C170.527,45.044,192.689,52.225,215.916,69.694z
		 M224.795,152.957c3.757,3.002,8.516,4.809,13.699,4.809c12.134,0,21.97-9.837,21.97-21.97s-9.835-21.97-21.97-21.97
		c-7.971,0-14.934,4.259-18.785,10.619l0.003-0.004C200.698,74.383,133.331,53.148,103.53,98.85
		c-10.99,26.464,2.496,40.941,10.981,47.433c-2.497-5.494-2.497-8.988-1.496-14.98c12.441-75.872,133.567-21.157,69.404,69.408
		c-5.027,7.942-6.281,13.387-0.837,18.832c5.444,5.444,13.906,4.023,18.427-1.509C217.478,194.807,224.663,172.645,224.795,152.957z
		 M114.924,225.122c-3.104,3.676-5.035,8.385-5.168,13.572c-0.315,12.129,9.26,22.214,21.39,22.534
		c12.131,0.315,22.22-9.265,22.535-21.396c0.207-7.971-3.871-15.038-10.124-19.052l0,0c50.541-17.703,73.52-84.494,28.613-115.479
		c-26.171-11.671-40.997,1.433-47.706,9.746c5.553-2.351,9.049-2.262,15.011-1.105c75.525,14.413,17.675,134.078-71.188,67.578
		c-7.811-5.236-13.22-6.632-18.804-1.331c-5.584,5.301-4.381,13.796,1.024,18.462C73.277,216.714,95.243,224.476,114.924,225.122z
		 M43.787,117.895c-3.762-3.002-8.517-4.809-13.703-4.809c-12.135,0.004-21.967,9.844-21.963,21.978
		c0.005,12.135,9.845,21.97,21.975,21.962c7.975,0,14.938-4.264,18.785-10.622c0,0.004-0.004,0.004-0.004,0.004
		c19.03,50.054,86.405,71.265,116.195,25.557c10.974-26.464-2.511-40.942-11-47.431c2.5,5.491,2.5,8.988,1.499,14.978
		c-12.418,75.879-133.559,21.197-69.428-69.385c5.028-7.944,6.282-13.387,0.838-18.832c-5.448-5.444-13.911-4.018-18.431,1.511
		C51.089,76.041,43.916,98.207,43.787,117.895z M276.116,96.934h13.369c14.93,0,24.147-7.854,24.147-23.042
		c0-13.952-10.713-22.261-24.147-22.261h-13.369V96.934z M282.604,57.341h7.593c9.35,0,16.551,6.231,16.551,16.813
		c0,11.684-6.164,17.07-17.329,17.07h-6.815V57.341z M317.725,96.934h25.379v-5.71h-18.884v-14.93h17.198v-5.713h-17.198v-13.24
		h18.884v-5.71h-25.379V96.934z M389.544,51.631h-6.814l-14.343,39.593h-0.129l-13.956-39.593h-7.27l17.07,45.303h8.111
		L389.544,51.631z M393.322,96.934h25.377v-5.71h-18.883v-14.93h17.201v-5.713h-17.201v-13.24h18.883v-5.71h-25.377V96.934z
		 M425.958,96.934h25.443v-5.71h-18.95V51.631h-6.493V96.934z M452.515,74.282c0,13.76,7.985,23.431,21.814,23.431
		c13.821,0,21.808-9.671,21.808-23.431c0-13.437-8.048-23.432-21.808-23.432C460.567,50.851,452.515,60.845,452.515,74.282z
		 M459.392,74.282c0-9.217,4.94-17.783,14.937-17.718c9.994-0.065,14.927,8.5,14.927,17.718c0,9.02-4.479,17.718-14.927,17.718
		C463.878,92.001,459.392,83.302,459.392,74.282z M502.248,96.934h6.486V78.824h6.363c8.175,0,16.035-3.568,16.035-13.631
		c0-10.319-7.73-13.563-17.01-13.563h-11.875V96.934z M508.735,57.341h5.515c4.03,0,10.003,2.079,10.003,7.789
		c0,5.975-5.069,7.986-9.092,7.986h-6.426V57.341z M536.321,96.934h6.493V57.731h0.129l14.995,39.203h6.358l14.995-39.203h0.128
		v39.203h6.492V51.631h-10.712L561.25,89.277l-14.222-37.646h-10.707V96.934z M593.837,96.934h25.383v-5.71h-18.888v-14.93h17.199
		v-5.713h-17.199v-13.24h18.888v-5.71h-25.383V96.934z M626.478,96.934h6.488V59.678h0.134l20.505,37.256h8.31V51.631h-6.492v36.476
		h-0.13l-19.986-36.476h-8.829V96.934z M680.608,96.934h6.484V57.341h14.088v-5.71h-34.656v5.71h14.084V96.934z M330.513,112.219
		c-5.526-1.905-9.819-3.337-19.548-3.337c-20.31,0-35.182,13.638-35.182,34.138c0,21.169,14.017,34.708,35.087,34.708
		c10.396,0,16.69-1.716,20.314-2.955V140.16h-23.552v7.818h14.017v20.215c-2.387,0.479-4.103,1.146-10.683,1.146
		c-13.824,0-25.074-10.393-25.074-26.031c0-14.877,10.201-26.033,25.551-26.033c8.585,0,13.64,1.526,18.31,4.575L330.513,112.219z
		 M336.581,176.588h10.015l6.77-16.784h32.609l6.772,16.784h10.395l-28.133-66.561h-10.011L336.581,176.588z M382.928,151.983
		h-26.513l13.254-32.993L382.928,151.983z M414.692,176.588h9.531v-58.17h20.699v-8.391h-50.925v8.391h20.694V176.588z
		 M454.907,176.588h37.28v-8.395H464.44v-21.932h25.27v-8.39h-25.27v-19.454h27.748v-8.391h-37.28V176.588z M519.246,176.588h12.777
		l14.588-58.17h0.189l14.494,58.17h12.308l20.502-66.561h-10.108l-15.928,57.023h-0.188l-14.404-57.023h-13.539l-14.209,57.023
		h-0.185l-15.928-57.023h-10.487L519.246,176.588z M583.011,176.588h10.018l6.765-16.784h32.619l6.765,16.784h10.397l-28.134-66.561
		h-10.009L583.011,176.588z M629.359,151.983h-26.514l13.255-32.993L629.359,151.983z M665.37,176.588h9.541V148.74l25.935-38.713
		h-11.155l-19.358,29.848l-19.835-29.848h-11.154l26.026,38.713V176.588z M292.473,226.699c1.177-0.455,2.233-1.104,3.17-1.95
		c0.832-0.766,1.479-1.703,1.94-2.809c0.461-1.102,0.692-2.221,0.692-3.352c0-1.807-0.46-3.326-1.384-4.563
		c-0.923-1.236-2.386-2.158-4.388-2.769c-0.78-0.233-1.762-0.492-2.944-0.771c-1.183-0.28-2.184-0.53-3.004-0.751
		c-1.234-0.337-2.176-0.87-2.827-1.598c-0.651-0.729-0.974-1.709-0.974-2.945c0-1.366,0.553-2.468,1.657-3.305
		c1.105-0.839,2.554-1.257,4.348-1.257c1.586,0,3.101,0.315,4.545,0.945c1.443,0.631,2.626,1.369,3.548,2.213h0.293v-4.62
		c-1.234-0.598-2.576-1.06-4.025-1.384c-1.452-0.324-2.989-0.488-4.613-0.488c-2.846,0-5.186,0.798-7.019,2.39
		s-2.75,3.566-2.75,5.917c0,1.131,0.165,2.13,0.498,2.994c0.331,0.865,0.796,1.616,1.395,2.252c0.609,0.651,1.312,1.178,2.106,1.582
		c0.791,0.4,1.689,0.733,2.691,0.994c1.117,0.286,2.046,0.512,2.788,0.681c0.739,0.169,1.56,0.384,2.457,0.643
		c1.248,0.35,2.157,0.891,2.73,1.618c0.572,0.729,0.857,1.671,0.857,2.828c0,1.456-0.546,2.629-1.636,3.519
		c-1.093,0.891-2.705,1.336-4.837,1.336c-1.495,0-3.048-0.326-4.66-0.984c-1.613-0.654-3.055-1.582-4.329-2.778h-0.273v4.836
		c1.299,0.636,2.687,1.174,4.163,1.61c1.475,0.436,3.266,0.653,5.373,0.653C289.824,227.382,291.296,227.155,292.473,226.699z
		 M317.388,207.483c-1.767-2.009-4.121-3.014-7.06-3.014c-2.925,0-5.281,1.007-7.068,3.025c-1.787,2.014-2.682,4.842-2.682,8.481
		c0,3.537,0.869,6.333,2.605,8.395c1.735,2.06,4.117,3.09,7.146,3.09c2.938,0,5.292-0.996,7.06-2.991
		c1.767-1.997,2.652-4.829,2.652-8.495C320.04,212.32,319.155,209.49,317.388,207.483z M314.705,222.224
		c-1.033,1.386-2.491,2.076-4.377,2.076c-1.91,0-3.382-0.704-4.417-2.115c-1.033-1.409-1.55-3.482-1.55-6.211
		c0-2.821,0.517-4.917,1.55-6.288c1.035-1.372,2.507-2.057,4.417-2.057c1.897,0,3.362,0.685,4.388,2.057
		c1.027,1.371,1.54,3.467,1.54,6.288C316.256,218.756,315.74,220.841,314.705,222.224z M327.666,196.514H324v30.341h3.666V196.514z
		 M350.134,205.074h-3.667v16.263c-0.846,0.742-1.774,1.365-2.788,1.874c-1.013,0.506-1.97,0.76-2.868,0.76
		c-0.962,0-1.7-0.13-2.213-0.391c-0.512-0.261-0.92-0.668-1.218-1.229c-0.301-0.572-0.491-1.238-0.577-1.999
		c-0.084-0.759-0.126-1.72-0.126-2.876v-12.402h-3.666v14.137c0,1.47,0.173,2.717,0.516,3.745c0.345,1.027,0.83,1.879,1.453,2.553
		c0.625,0.676,1.355,1.171,2.194,1.482c0.839,0.313,1.732,0.468,2.682,0.468c1.246,0,2.378-0.255,3.393-0.769
		c1.013-0.514,2.086-1.265,3.216-2.254v2.418h3.667V205.074z M364.108,227.119c0.71-0.109,1.407-0.264,2.096-0.458v-3.296h-0.212
		c-0.247,0.118-0.651,0.263-1.211,0.439c-0.56,0.177-1.136,0.264-1.735,0.264c-0.845,0-1.514-0.114-2.009-0.343
		c-0.495-0.226-0.851-0.567-1.073-1.022c-0.261-0.521-0.41-1.079-0.449-1.677c-0.04-0.596-0.059-1.449-0.059-2.554v-10.354h6.746
		v-3.042h-6.746v-6.26h-3.666v6.26h-2.478v3.042h2.478v12.069c0,2.457,0.559,4.255,1.677,5.393c1.119,1.137,2.677,1.706,4.68,1.706
		C362.748,227.285,363.401,227.229,364.108,227.119z M373.033,197.625h-4.174v3.802h4.174V197.625z M372.779,205.074h-3.666v21.781
		h3.666V205.074z M393.55,207.483c-1.766-2.009-4.121-3.014-7.06-3.014c-2.924,0-5.28,1.007-7.07,3.025
		c-1.785,2.014-2.679,4.842-2.679,8.481c0,3.537,0.867,6.333,2.602,8.395c1.737,2.06,4.119,3.09,7.147,3.09
		c2.938,0,5.293-0.996,7.06-2.991c1.767-1.997,2.652-4.829,2.652-8.495C396.202,212.32,395.318,209.49,393.55,207.483z
		 M390.87,222.224c-1.034,1.386-2.494,2.076-4.379,2.076c-1.91,0-3.383-0.704-4.417-2.115c-1.031-1.409-1.549-3.482-1.549-6.211
		c0-2.821,0.518-4.917,1.549-6.288c1.034-1.372,2.507-2.057,4.417-2.057c1.899,0,3.361,0.685,4.387,2.057
		c1.028,1.371,1.543,3.467,1.543,6.288C392.421,218.756,391.903,220.841,390.87,222.224z M417.206,212.718
		c0-2.678-0.603-4.722-1.812-6.132c-1.211-1.413-2.885-2.118-5.031-2.118c-1.183,0-2.309,0.261-3.373,0.781
		c-1.067,0.519-2.145,1.268-3.238,2.244v-2.419h-3.667v21.781h3.667v-16.263c0.925-0.78,1.87-1.413,2.837-1.9
		c0.969-0.488,1.91-0.732,2.819-0.732c0.922,0,1.65,0.134,2.182,0.399c0.534,0.268,0.95,0.674,1.248,1.22
		c0.273,0.52,0.459,1.212,0.557,2.077c0.096,0.866,0.145,1.796,0.145,2.798v12.401h3.666V212.718z M432.059,226.875
		c0.982-0.337,1.861-0.831,2.643-1.482c0.714-0.597,1.259-1.317,1.627-2.155c0.369-0.838,0.556-1.727,0.556-2.662
		c0-1.613-0.406-2.887-1.219-3.823c-0.812-0.937-2.025-1.607-3.637-2.008c-0.74-0.182-1.446-0.339-2.116-0.476
		c-0.669-0.136-1.278-0.276-1.821-0.419c-1.094-0.286-1.886-0.655-2.382-1.103c-0.493-0.448-0.738-1.127-0.738-2.038
		c0-1.025,0.415-1.792,1.245-2.3c0.833-0.507,1.853-0.76,3.062-0.76c1.171,0,2.33,0.214,3.481,0.643
		c1.149,0.43,2.194,1.014,3.128,1.755h0.196v-3.918c-0.831-0.456-1.861-0.832-3.081-1.131c-1.223-0.3-2.437-0.449-3.646-0.449
		c-2.457,0-4.427,0.616-5.91,1.852c-1.481,1.236-2.222,2.834-2.222,4.797c0,1.431,0.376,2.65,1.131,3.657
		c0.753,1.006,1.963,1.752,3.628,2.231c0.636,0.185,1.333,0.352,2.085,0.509c0.755,0.156,1.366,0.292,1.834,0.41
		c1.209,0.299,2.049,0.668,2.526,1.109c0.473,0.442,0.71,1.102,0.71,1.97c0,0.676-0.099,1.184-0.302,1.521
		c-0.201,0.339-0.531,0.657-0.984,0.958c-0.327,0.206-0.821,0.379-1.483,0.515c-0.662,0.136-1.287,0.205-1.872,0.205
		c-0.807,0-1.584-0.11-2.331-0.33c-0.747-0.223-1.433-0.476-2.056-0.762c-0.703-0.324-1.264-0.636-1.687-0.936
		c-0.422-0.299-0.789-0.572-1.101-0.819h-0.195v4.115c0.832,0.441,1.881,0.856,3.15,1.247c1.267,0.39,2.63,0.585,4.084,0.585
		C429.846,227.382,431.078,227.215,432.059,226.875z M461.568,227.119c0.709-0.109,1.408-0.264,2.096-0.458v-3.296h-0.213
		c-0.247,0.118-0.651,0.263-1.21,0.439c-0.56,0.177-1.138,0.264-1.736,0.264c-0.845,0-1.515-0.114-2.009-0.343
		c-0.495-0.226-0.85-0.567-1.073-1.022c-0.258-0.521-0.411-1.079-0.449-1.677c-0.039-0.596-0.059-1.449-0.059-2.554v-10.354h6.747
		v-3.042h-6.747v-6.26h-3.666v6.26h-2.477v3.042h2.477v12.069c0,2.457,0.559,4.255,1.677,5.393c1.117,1.137,2.678,1.706,4.681,1.706
		C460.205,227.285,460.86,227.229,461.568,227.119z M483.615,212.718c0-2.678-0.602-4.722-1.811-6.132
		c-1.21-1.413-2.887-2.118-5.033-2.118c-1.182,0-2.306,0.261-3.372,0.781c-1.067,0.519-2.146,1.268-3.238,2.244v-10.979h-3.667
		v30.341h3.667v-16.263c0.924-0.78,1.871-1.413,2.837-1.9c0.969-0.488,1.908-0.732,2.819-0.732c0.922,0,1.649,0.134,2.182,0.399
		c0.535,0.268,0.95,0.674,1.249,1.22c0.273,0.52,0.457,1.212,0.557,2.077c0.096,0.866,0.146,1.796,0.146,2.798v12.401h3.664V212.718
		z M501.053,226.855h3.645v-14.898c0-1.365-0.195-2.522-0.585-3.471c-0.39-0.948-0.982-1.723-1.773-2.319
		c-0.821-0.612-1.744-1.034-2.771-1.268c-1.026-0.235-2.287-0.35-3.784-0.35c-1.233,0-2.482,0.115-3.742,0.35
		c-1.261,0.234-2.231,0.448-2.907,0.643v3.725h0.216c1.143-0.481,2.286-0.847,3.431-1.103c1.143-0.252,2.139-0.379,2.984-0.379
		c0.715,0,1.41,0.048,2.086,0.145c0.676,0.098,1.248,0.297,1.716,0.596c0.468,0.285,0.833,0.692,1.092,1.219
		c0.261,0.526,0.391,1.219,0.391,2.076v0.703c-1.925,0.104-3.719,0.262-5.383,0.478c-1.664,0.213-3.106,0.601-4.329,1.158
		c-1.378,0.626-2.386,1.467-3.022,2.526c-0.638,1.061-0.957,2.343-0.957,3.851c0,0.973,0.176,1.902,0.528,2.779
		c0.35,0.877,0.818,1.616,1.402,2.213c0.612,0.611,1.32,1.085,2.128,1.424c0.805,0.339,1.656,0.506,2.552,0.506
		c1.093,0,1.941-0.089,2.546-0.272c0.603-0.183,1.23-0.442,1.881-0.781c0.469-0.234,0.954-0.549,1.454-0.945
		c0.5-0.398,0.899-0.705,1.2-0.927V226.855z M498.42,223.337c-0.937,0.498-1.983,0.75-3.14,0.75c-1.354,0-2.38-0.319-3.081-0.957
		c-0.703-0.637-1.053-1.58-1.053-2.827c0-1.104,0.319-1.968,0.955-2.584c0.637-0.616,1.443-1.076,2.417-1.374
		c0.821-0.247,1.894-0.44,3.229-0.576c1.332-0.135,2.435-0.245,3.305-0.322v6.046C500.233,222.222,499.357,222.837,498.42,223.337z
		 M518.517,227.119c0.71-0.109,1.407-0.264,2.096-0.458v-3.296H520.4c-0.247,0.118-0.651,0.263-1.21,0.439
		c-0.56,0.177-1.137,0.264-1.736,0.264c-0.845,0-1.515-0.114-2.008-0.343c-0.495-0.226-0.85-0.567-1.073-1.022
		c-0.261-0.521-0.411-1.079-0.449-1.677c-0.039-0.596-0.057-1.449-0.057-2.554v-10.354h6.746v-3.042h-6.746v-6.26H510.2v6.26h-2.476
		v3.042h2.476v12.069c0,2.457,0.559,4.255,1.677,5.393c1.118,1.137,2.679,1.706,4.682,1.706
		C517.156,227.285,517.81,227.229,518.517,227.119z M547.695,227.208c0.578-0.105,1.225-0.254,1.94-0.449
		c0.507-0.145,1.081-0.342,1.717-0.594c0.637-0.255,1.169-0.465,1.598-0.635v-3.997h-0.214c-0.298,0.247-0.675,0.51-1.131,0.789
		c-0.454,0.28-1.012,0.569-1.675,0.868c-0.625,0.286-1.324,0.52-2.097,0.703c-0.773,0.183-1.562,0.272-2.369,0.272
		c-2.25,0-4.011-0.67-5.285-2.008c-1.274-1.339-1.911-3.276-1.911-5.811h15.092v-1.99c0-1.742-0.206-3.216-0.623-4.417
		c-0.416-1.202-1.013-2.219-1.794-3.051c-0.779-0.83-1.689-1.443-2.729-1.834c-1.04-0.39-2.237-0.585-3.588-0.585
		c-3.004,0-5.434,1.05-7.294,3.151c-1.859,2.099-2.788,4.922-2.788,8.472c0,3.601,0.961,6.381,2.877,8.337
		c1.918,1.958,4.611,2.935,8.084,2.935C546.387,227.363,547.118,227.312,547.695,227.208z M538.267,213.537
		c0.077-0.923,0.261-1.733,0.547-2.428c0.286-0.695,0.703-1.328,1.246-1.902c0.559-0.557,1.181-0.983,1.864-1.276
		c0.682-0.292,1.51-0.437,2.487-0.437c0.986,0,1.815,0.143,2.485,0.427c0.671,0.286,1.219,0.702,1.647,1.248
		c0.39,0.494,0.692,1.099,0.899,1.814c0.206,0.715,0.323,1.566,0.35,2.554H538.267z M585.576,226.855v-14.332
		c0-1.496-0.157-2.737-0.476-3.725c-0.32-0.987-0.77-1.813-1.356-2.478c-0.572-0.648-1.24-1.12-2.009-1.412
		c-0.767-0.292-1.618-0.44-2.554-0.44c-1.236,0-2.381,0.319-3.432,0.957c-1.053,0.637-2.134,1.573-3.237,2.807
		c-0.522-1.339-1.278-2.299-2.272-2.887c-0.995-0.585-2.135-0.877-3.424-0.877c-1.131,0-2.166,0.263-3.111,0.791
		c-0.942,0.527-1.893,1.27-2.855,2.234v-2.419h-3.667v21.781h3.667v-16.263c0.819-0.767,1.662-1.398,2.534-1.891
		c0.87-0.495,1.704-0.741,2.496-0.741c0.82,0,1.47,0.125,1.95,0.372c0.479,0.245,0.851,0.63,1.112,1.148
		c0.247,0.481,0.409,1.148,0.488,2c0.076,0.85,0.115,1.777,0.115,2.778v12.598h3.666v-14.332c0-0.417-0.009-0.778-0.03-1.082
		c-0.019-0.307-0.034-0.568-0.047-0.791c0.922-0.87,1.817-1.538,2.68-2c0.865-0.46,1.675-0.692,2.429-0.692
		c0.817,0,1.469,0.125,1.948,0.372c0.481,0.245,0.852,0.63,1.112,1.148c0.246,0.481,0.41,1.148,0.487,2
		c0.078,0.85,0.118,1.777,0.118,2.778v12.598H585.576z M607.02,207.434c-1.397-1.977-3.343-2.965-5.839-2.965
		c-1.315,0-2.526,0.276-3.639,0.831c-1.11,0.553-2.123,1.237-3.031,2.055v-2.28h-3.666v29.816h3.666v-9.128
		c0.87,0.52,1.723,0.905,2.554,1.152c0.831,0.246,1.787,0.37,2.866,0.37c2.652,0,4.847-1.076,6.581-3.227
		c1.737-2.151,2.603-5.041,2.603-8.669C609.116,212.062,608.418,209.411,607.02,207.434z M603.753,221.902
		c-1.053,1.392-2.525,2.089-4.426,2.089c-0.884,0-1.667-0.086-2.35-0.255c-0.683-0.169-1.504-0.486-2.466-0.956v-12.344
		c0.87-0.727,1.79-1.323,2.76-1.784c0.968-0.46,1.971-0.692,3.012-0.692c1.782,0,3.069,0.685,3.861,2.058
		c0.793,1.372,1.189,3.299,1.189,5.78C605.333,218.477,604.807,220.513,603.753,221.902z M628.308,207.483
		c-1.768-2.009-4.121-3.014-7.06-3.014c-2.923,0-5.282,1.007-7.068,3.025c-1.788,2.014-2.68,4.842-2.68,8.481
		c0,3.537,0.867,6.333,2.601,8.395c1.737,2.06,4.119,3.09,7.148,3.09c2.938,0,5.291-0.996,7.06-2.991
		c1.768-1.997,2.652-4.829,2.652-8.495C630.96,212.32,630.076,209.49,628.308,207.483z M625.627,222.224
		c-1.033,1.386-2.492,2.076-4.378,2.076c-1.911,0-3.382-0.704-4.416-2.115c-1.035-1.409-1.551-3.482-1.551-6.211
		c0-2.821,0.516-4.917,1.551-6.288c1.034-1.372,2.505-2.057,4.416-2.057c1.898,0,3.36,0.685,4.387,2.057
		c1.028,1.371,1.541,3.467,1.541,6.288C627.177,218.756,626.661,220.841,625.627,222.224z M657.561,205.074l-3.627,16.866
		l-5.305-16.866h-3.022l-5.168,16.866l-3.841-16.866h-3.823l5.578,21.781h3.374l5.284-16.789l5.325,16.789h3.393l5.516-21.781
		H657.561z M676.256,227.208c0.577-0.105,1.225-0.254,1.94-0.449c0.505-0.145,1.079-0.342,1.713-0.594
		c0.638-0.255,1.173-0.465,1.602-0.635v-3.997h-0.214c-0.301,0.247-0.677,0.51-1.131,0.789c-0.455,0.28-1.015,0.569-1.679,0.868
		c-0.623,0.286-1.321,0.52-2.093,0.703c-0.774,0.183-1.563,0.272-2.371,0.272c-2.25,0-4.01-0.67-5.284-2.008
		c-1.274-1.339-1.911-3.276-1.911-5.811h15.094v-1.99c0-1.742-0.207-3.216-0.624-4.417c-0.416-1.202-1.015-2.219-1.794-3.051
		c-0.781-0.83-1.689-1.443-2.73-1.834c-1.041-0.39-2.237-0.585-3.589-0.585c-3.002,0-5.432,1.05-7.292,3.151
		c-1.861,2.099-2.788,4.922-2.788,8.472c0,3.601,0.958,6.381,2.877,8.337c1.918,1.958,4.611,2.935,8.083,2.935
		C674.945,227.363,675.679,227.312,676.256,227.208z M666.827,213.537c0.078-0.923,0.259-1.733,0.546-2.428
		c0.286-0.695,0.702-1.328,1.248-1.902c0.559-0.557,1.18-0.983,1.863-1.276c0.683-0.292,1.51-0.437,2.485-0.437
		c0.988,0,1.817,0.143,2.487,0.427c0.669,0.286,1.22,0.702,1.648,1.248c0.39,0.494,0.689,1.099,0.897,1.814
		c0.207,0.715,0.325,1.566,0.35,2.554H666.827z M697.289,205.191c-0.234-0.04-0.446-0.069-0.633-0.088
		c-0.19-0.019-0.471-0.029-0.85-0.029c-0.935,0-1.898,0.245-2.894,0.731c-0.996,0.488-2.161,1.323-3.501,2.505v-3.236h-3.665v21.781
		h3.665v-15.463c0.87-0.846,1.794-1.484,2.769-1.912c0.977-0.429,1.957-0.642,2.945-0.642c0.429,0,0.798,0.011,1.102,0.029
		c0.305,0.021,0.595,0.068,0.866,0.145h0.197V205.191z"/>
</g>
<g id="Layer_3" display="none">
	<g id="Layer_2" display="inline">
		<rect x="646.169" y="-754.711" fill="#005695" width="22.249" height="22.249"/>
		<rect x="646.169" y="-727.443" fill="#0194D3" width="22.249" height="22.249"/>
		<rect x="646.169" y="-699.768" fill="#FFDD00" width="22.249" height="22.25"/>
		<rect x="646.169" y="-671.276" fill="#00703C" width="22.249" height="22.249"/>
	</g>
	<g display="inline">
		<path d="M675.601-745.607c0.41-0.078,0.948-0.137,1.632-0.137c0.839,0,1.453,0.195,1.844,0.547
			c0.361,0.312,0.587,0.791,0.587,1.376c0,0.596-0.177,1.064-0.518,1.406c-0.448,0.479-1.181,0.723-2.011,0.723
			c-0.254,0-0.488-0.011-0.684-0.06v2.636h-0.85V-745.607z M676.451-742.445c0.185,0.05,0.43,0.068,0.703,0.068
			c1.035,0,1.649-0.508,1.649-1.395c0-0.878-0.614-1.299-1.552-1.299c-0.371,0-0.654,0.04-0.801,0.068V-742.445z"/>
		<path d="M683.844-740.248c0,0.41,0.021,0.811,0.068,1.132h-0.771l-0.078-0.595h-0.029c-0.254,0.371-0.771,0.702-1.444,0.702
			c-0.957,0-1.445-0.673-1.445-1.357c0-1.143,1.015-1.768,2.841-1.758v-0.097c0-0.392-0.107-1.104-1.074-1.094
			c-0.448,0-0.908,0.127-1.239,0.352l-0.195-0.576c0.39-0.244,0.966-0.41,1.562-0.41c1.455,0,1.806,0.986,1.806,1.933V-740.248z
			 M683.005-741.526c-0.938-0.021-2.002,0.146-2.002,1.063c0,0.567,0.372,0.82,0.802,0.82c0.624,0,1.024-0.391,1.161-0.791
			c0.029-0.088,0.039-0.185,0.039-0.273V-741.526z"/>
		<path d="M685.224-742.561c0-0.499-0.01-0.889-0.039-1.279h0.761l0.05,0.771h0.019c0.234-0.439,0.781-0.879,1.562-0.879
			c0.653,0,1.669,0.391,1.669,2.012v2.82h-0.86v-2.723c0-0.762-0.282-1.406-1.093-1.406c-0.557,0-0.996,0.4-1.151,0.878
			c-0.039,0.107-0.059,0.265-0.059,0.401v2.85h-0.859V-742.561z"/>
		<path d="M691.642-744.973v1.133h1.229v0.654h-1.229v2.548c0,0.586,0.166,0.918,0.645,0.918c0.233,0,0.37-0.02,0.497-0.059
			l0.039,0.654c-0.166,0.058-0.43,0.116-0.762,0.116c-0.399,0-0.722-0.137-0.927-0.36c-0.234-0.264-0.333-0.684-0.333-1.24v-2.577
			h-0.731v-0.654h0.731v-0.869L691.642-744.973z"/>
		<path d="M695.706-739.008c-1.269,0-2.266-0.937-2.266-2.431c0-1.581,1.045-2.509,2.343-2.509c1.358,0,2.275,0.986,2.275,2.422
			c0,1.757-1.221,2.518-2.344,2.518H695.706z M695.736-739.652c0.819,0,1.435-0.771,1.435-1.846c0-0.801-0.4-1.806-1.415-1.806
			c-1.007,0-1.445,0.937-1.445,1.835c0,1.035,0.585,1.816,1.415,1.816H695.736z"/>
		<path d="M699.145-742.561c0-0.499-0.01-0.889-0.038-1.279h0.762l0.048,0.771h0.021c0.233-0.439,0.78-0.879,1.56-0.879
			c0.654,0,1.67,0.391,1.67,2.012v2.82h-0.859v-2.723c0-0.762-0.282-1.406-1.094-1.406c-0.556,0-0.995,0.4-1.151,0.878
			c-0.039,0.107-0.058,0.265-0.058,0.401v2.85h-0.86V-742.561z"/>
		<path d="M705.054-741.332c0.019,1.162,0.752,1.64,1.611,1.64c0.614,0,0.996-0.107,1.308-0.233l0.156,0.604
			c-0.303,0.137-0.829,0.304-1.581,0.304c-1.445,0-2.324-0.967-2.324-2.383c0-1.434,0.85-2.558,2.227-2.558
			c1.542,0,1.942,1.357,1.942,2.227c0,0.176-0.01,0.312-0.029,0.409L705.054-741.332z M707.564-741.947
			c0.009-0.536-0.226-1.396-1.182-1.396c-0.878,0-1.25,0.8-1.318,1.396H707.564z"/>
		<path d="M714.879-744.866c-0.176-0.01-0.401,0.011-0.645,0.05c-1.357,0.214-2.06,1.2-2.206,2.255h0.018
			c0.303-0.41,0.84-0.742,1.543-0.742c1.122,0,1.913,0.82,1.913,2.05c0,1.172-0.791,2.245-2.118,2.245
			c-1.347,0-2.236-1.054-2.236-2.704c0-1.249,0.44-2.235,1.075-2.87c0.526-0.517,1.23-0.84,2.03-0.937
			c0.254-0.04,0.469-0.049,0.625-0.049V-744.866z M713.406-739.671c0.73,0,1.229-0.615,1.229-1.523c0-0.907-0.518-1.455-1.308-1.455
			c-0.518,0-1.007,0.312-1.24,0.782c-0.049,0.098-0.088,0.214-0.088,0.37c0.01,1.045,0.498,1.826,1.396,1.826H713.406z"/>
		<path d="M718.923-739.116v-1.728h-2.949v-0.557l2.832-4.061h0.928v3.954h0.888v0.664h-0.888v1.728H718.923z M718.923-741.507
			v-2.128c0-0.332,0.01-0.663,0.028-0.996h-0.028c-0.195,0.371-0.352,0.645-0.527,0.947l-1.552,2.158v0.018H718.923z"/>
		<path d="M725.399-745.462v0.567l-2.764,5.778h-0.879l2.744-5.613v-0.018h-3.104v-0.714H725.399z"/>
		<path d="M729.511-745.696v3.905c0,1.465,0.654,2.09,1.533,2.09c0.967,0,1.601-0.645,1.601-2.09v-3.905h0.86v3.847
			c0,2.021-1.065,2.841-2.49,2.841c-1.347,0-2.362-0.761-2.362-2.812v-3.876H729.511z"/>
	</g>
	<g display="inline">
		<path d="M675.601-719.56c0.41-0.078,0.948-0.137,1.632-0.137c0.839,0,1.453,0.195,1.844,0.547
			c0.361,0.312,0.587,0.791,0.587,1.376c0,0.597-0.177,1.065-0.518,1.406c-0.448,0.478-1.181,0.723-2.011,0.723
			c-0.254,0-0.488-0.011-0.684-0.059v2.636h-0.85V-719.56z M676.451-716.397c0.185,0.049,0.43,0.068,0.703,0.068
			c1.035,0,1.649-0.508,1.649-1.396c0-0.879-0.614-1.299-1.552-1.299c-0.371,0-0.654,0.039-0.801,0.068V-716.397z"/>
		<path d="M683.844-714.201c0,0.41,0.021,0.81,0.068,1.133h-0.771l-0.078-0.596h-0.029c-0.254,0.371-0.771,0.703-1.444,0.703
			c-0.957,0-1.445-0.674-1.445-1.357c0-1.142,1.015-1.767,2.841-1.757v-0.098c0-0.391-0.107-1.103-1.074-1.094
			c-0.448,0-0.908,0.128-1.239,0.352l-0.195-0.575c0.39-0.244,0.966-0.41,1.562-0.41c1.455,0,1.806,0.985,1.806,1.932V-714.201z
			 M683.005-715.479c-0.938-0.019-2.002,0.147-2.002,1.064c0,0.567,0.372,0.82,0.802,0.82c0.624,0,1.024-0.39,1.161-0.791
			c0.029-0.087,0.039-0.185,0.039-0.273V-715.479z"/>
		<path d="M685.224-716.514c0-0.498-0.01-0.889-0.039-1.278h0.761l0.05,0.771h0.019c0.234-0.44,0.781-0.878,1.562-0.878
			c0.653,0,1.669,0.39,1.669,2.011v2.821h-0.86v-2.724c0-0.762-0.282-1.406-1.093-1.406c-0.557,0-0.996,0.401-1.151,0.879
			c-0.039,0.107-0.059,0.264-0.059,0.4v2.851h-0.859V-716.514z"/>
		<path d="M691.642-718.925v1.133h1.229v0.654h-1.229v2.547c0,0.586,0.166,0.918,0.645,0.918c0.233,0,0.37-0.019,0.497-0.059
			l0.039,0.654c-0.166,0.059-0.43,0.117-0.762,0.117c-0.399,0-0.722-0.137-0.927-0.361c-0.234-0.264-0.333-0.684-0.333-1.24v-2.576
			h-0.731v-0.654h0.731v-0.869L691.642-718.925z"/>
		<path d="M695.706-712.961c-1.269,0-2.266-0.938-2.266-2.431c0-1.581,1.045-2.509,2.343-2.509c1.358,0,2.275,0.985,2.275,2.421
			c0,1.757-1.221,2.519-2.344,2.519H695.706z M695.736-713.605c0.819,0,1.435-0.772,1.435-1.846c0-0.8-0.4-1.806-1.415-1.806
			c-1.007,0-1.445,0.938-1.445,1.835c0,1.035,0.585,1.816,1.415,1.816H695.736z"/>
		<path d="M699.145-716.514c0-0.498-0.01-0.889-0.038-1.278h0.762l0.048,0.771h0.021c0.233-0.44,0.78-0.878,1.56-0.878
			c0.654,0,1.67,0.39,1.67,2.011v2.821h-0.859v-2.724c0-0.762-0.282-1.406-1.094-1.406c-0.556,0-0.995,0.401-1.151,0.879
			c-0.039,0.107-0.058,0.264-0.058,0.4v2.851h-0.86V-716.514z"/>
		<path d="M705.054-715.284c0.019,1.162,0.752,1.64,1.611,1.64c0.614,0,0.996-0.107,1.308-0.234l0.156,0.605
			c-0.303,0.137-0.829,0.303-1.581,0.303c-1.445,0-2.324-0.967-2.324-2.383c0-1.435,0.85-2.558,2.227-2.558
			c1.542,0,1.942,1.357,1.942,2.227c0,0.176-0.01,0.312-0.029,0.409L705.054-715.284z M707.564-715.9
			c0.009-0.536-0.226-1.395-1.182-1.395c-0.878,0-1.25,0.801-1.318,1.395H707.564z"/>
		<path d="M715.376-719.414v0.566l-2.762,5.779h-0.879l2.742-5.613v-0.019h-3.103v-0.713H715.376z"/>
		<path d="M718.923-713.068v-1.729h-2.949v-0.557l2.832-4.06h0.928v3.954h0.888v0.663h-0.888v1.729H718.923z M718.923-715.46v-2.128
			c0-0.333,0.01-0.664,0.028-0.996h-0.028c-0.195,0.371-0.352,0.644-0.527,0.946l-1.552,2.158v0.02H718.923z"/>
		<path d="M724.9-718.818c-0.175-0.01-0.399,0.01-0.645,0.049c-1.355,0.215-2.06,1.2-2.205,2.255h0.019
			c0.302-0.41,0.839-0.742,1.542-0.742c1.122,0,1.913,0.82,1.913,2.05c0,1.172-0.791,2.246-2.118,2.246
			c-1.348,0-2.235-1.055-2.235-2.704c0-1.25,0.438-2.235,1.073-2.871c0.527-0.517,1.231-0.839,2.031-0.937
			c0.253-0.039,0.468-0.049,0.624-0.049V-718.818z M723.426-713.625c0.732,0,1.23-0.615,1.23-1.522c0-0.908-0.518-1.455-1.309-1.455
			c-0.517,0-1.005,0.312-1.24,0.781c-0.049,0.098-0.088,0.215-0.088,0.37c0.01,1.045,0.498,1.826,1.396,1.826H723.426z"/>
		<path d="M728.154-718.613h-0.019l-1.104,0.595l-0.166-0.653l1.385-0.742h0.733v6.346h-0.83V-718.613z"/>
		<path d="M734.523-719.648v3.905c0,1.464,0.653,2.089,1.532,2.089c0.967,0,1.601-0.644,1.601-2.089v-3.905h0.859v3.847
			c0,2.02-1.064,2.841-2.489,2.841c-1.348,0-2.362-0.762-2.362-2.811v-3.876H734.523z"/>
	</g>
	<g display="inline">
		<path d="M675.601-690.664c0.41-0.078,0.948-0.137,1.632-0.137c0.839,0,1.453,0.195,1.844,0.547
			c0.361,0.312,0.587,0.791,0.587,1.376c0,0.596-0.177,1.065-0.518,1.406c-0.448,0.479-1.181,0.723-2.011,0.723
			c-0.254,0-0.488-0.011-0.684-0.06v2.637h-0.85V-690.664z M676.451-687.501c0.185,0.049,0.43,0.068,0.703,0.068
			c1.035,0,1.649-0.508,1.649-1.396c0-0.878-0.614-1.299-1.552-1.299c-0.371,0-0.654,0.04-0.801,0.068V-687.501z"/>
		<path d="M683.844-685.304c0,0.41,0.021,0.81,0.068,1.133h-0.771l-0.078-0.596h-0.029c-0.254,0.371-0.771,0.703-1.444,0.703
			c-0.957,0-1.445-0.674-1.445-1.357c0-1.143,1.015-1.767,2.841-1.758v-0.097c0-0.391-0.107-1.104-1.074-1.094
			c-0.448,0-0.908,0.127-1.239,0.352l-0.195-0.576c0.39-0.243,0.966-0.41,1.562-0.41c1.455,0,1.806,0.986,1.806,1.933V-685.304z
			 M683.005-686.583c-0.938-0.021-2.002,0.146-2.002,1.063c0,0.566,0.372,0.82,0.802,0.82c0.624,0,1.024-0.391,1.161-0.791
			c0.029-0.088,0.039-0.185,0.039-0.273V-686.583z"/>
		<path d="M685.224-687.618c0-0.498-0.01-0.889-0.039-1.279h0.761l0.05,0.771h0.019c0.234-0.44,0.781-0.879,1.562-0.879
			c0.653,0,1.669,0.391,1.669,2.012v2.821h-0.86v-2.724c0-0.762-0.282-1.406-1.093-1.406c-0.557,0-0.996,0.4-1.151,0.878
			c-0.039,0.107-0.059,0.265-0.059,0.401v2.851h-0.859V-687.618z"/>
		<path d="M691.642-690.03v1.133h1.229v0.654h-1.229v2.548c0,0.586,0.166,0.918,0.645,0.918c0.233,0,0.37-0.019,0.497-0.059
			l0.039,0.654c-0.166,0.058-0.43,0.117-0.762,0.117c-0.399,0-0.722-0.137-0.927-0.361c-0.234-0.264-0.333-0.684-0.333-1.24v-2.577
			h-0.731v-0.654h0.731v-0.868L691.642-690.03z"/>
		<path d="M695.706-684.064c-1.269,0-2.266-0.938-2.266-2.432c0-1.581,1.045-2.509,2.343-2.509c1.358,0,2.275,0.986,2.275,2.422
			c0,1.757-1.221,2.519-2.344,2.519H695.706z M695.736-684.709c0.819,0,1.435-0.771,1.435-1.846c0-0.801-0.4-1.806-1.415-1.806
			c-1.007,0-1.445,0.937-1.445,1.835c0,1.035,0.585,1.817,1.415,1.817H695.736z"/>
		<path d="M699.145-687.618c0-0.498-0.01-0.889-0.038-1.279h0.762l0.048,0.771h0.021c0.233-0.44,0.78-0.879,1.56-0.879
			c0.654,0,1.67,0.391,1.67,2.012v2.821h-0.859v-2.724c0-0.762-0.282-1.406-1.094-1.406c-0.556,0-0.995,0.4-1.151,0.878
			c-0.039,0.107-0.058,0.265-0.058,0.401v2.851h-0.86V-687.618z"/>
		<path d="M705.054-686.388c0.019,1.162,0.752,1.64,1.611,1.64c0.614,0,0.996-0.106,1.308-0.233l0.156,0.605
			c-0.303,0.137-0.829,0.303-1.581,0.303c-1.445,0-2.324-0.967-2.324-2.383c0-1.435,0.85-2.558,2.227-2.558
			c1.542,0,1.942,1.357,1.942,2.227c0,0.176-0.01,0.312-0.029,0.409L705.054-686.388z M707.564-687.004
			c0.009-0.536-0.226-1.396-1.182-1.396c-0.878,0-1.25,0.801-1.318,1.396H707.564z"/>
		<path d="M713.122-689.717h-0.021l-1.102,0.596l-0.166-0.653l1.386-0.742h0.733v6.346h-0.83V-689.717z"/>
		<path d="M718.289-684.064c-1.24,0-2.09-1.162-2.11-3.261c0-2.138,0.929-3.3,2.217-3.3c1.327,0,2.099,1.19,2.099,3.212
			c0,2.157-0.81,3.349-2.196,3.349H718.289z M718.327-684.728c0.869,0,1.289-1.025,1.289-2.646c0-1.562-0.391-2.588-1.289-2.588
			c-0.781,0-1.288,0.996-1.288,2.588c-0.019,1.649,0.488,2.646,1.278,2.646H718.327z"/>
		<path d="M721.777-684.767c0.185,0.01,0.399,0,0.692-0.039c0.499-0.059,0.967-0.264,1.328-0.615c0.42-0.381,0.723-0.938,0.84-1.69
			h-0.03c-0.352,0.431-0.858,0.684-1.503,0.684c-1.143,0-1.874-0.859-1.874-1.952c0-1.191,0.878-2.245,2.177-2.245
			c1.299,0,2.099,1.044,2.099,2.675c0,1.396-0.469,2.372-1.093,2.987c-0.488,0.469-1.162,0.771-1.846,0.85
			c-0.312,0.039-0.596,0.058-0.79,0.049V-684.767z M723.328-689.97c-0.723,0-1.24,0.645-1.24,1.542c0,0.791,0.479,1.347,1.221,1.347
			c0.576,0,1.024-0.282,1.26-0.663c0.038-0.078,0.068-0.176,0.068-0.312c0.01-1.093-0.4-1.913-1.299-1.913H723.328z"/>
		<path d="M729.511-690.752v3.905c0,1.464,0.654,2.089,1.533,2.089c0.967,0,1.601-0.645,1.601-2.089v-3.905h0.86v3.846
			c0,2.021-1.065,2.842-2.49,2.842c-1.347,0-2.362-0.762-2.362-2.812v-3.875H729.511z"/>
	</g>
	<g display="inline">
		<path d="M675.601-662.989c0.41-0.077,0.948-0.137,1.632-0.137c0.839,0,1.453,0.196,1.844,0.547
			c0.361,0.312,0.587,0.791,0.587,1.376c0,0.597-0.177,1.065-0.518,1.406c-0.448,0.479-1.181,0.723-2.011,0.723
			c-0.254,0-0.488-0.01-0.684-0.059v2.636h-0.85V-662.989z M676.451-659.826c0.185,0.05,0.43,0.068,0.703,0.068
			c1.035,0,1.649-0.508,1.649-1.396c0-0.879-0.614-1.299-1.552-1.299c-0.371,0-0.654,0.039-0.801,0.068V-659.826z"/>
		<path d="M683.844-657.629c0,0.41,0.021,0.81,0.068,1.133h-0.771l-0.078-0.596h-0.029c-0.254,0.372-0.771,0.703-1.444,0.703
			c-0.957,0-1.445-0.673-1.445-1.357c0-1.142,1.015-1.767,2.841-1.758v-0.098c0-0.391-0.107-1.103-1.074-1.094
			c-0.448,0-0.908,0.128-1.239,0.352l-0.195-0.575c0.39-0.244,0.966-0.41,1.562-0.41c1.455,0,1.806,0.985,1.806,1.933V-657.629z
			 M683.005-658.908c-0.938-0.02-2.002,0.146-2.002,1.063c0,0.567,0.372,0.82,0.802,0.82c0.624,0,1.024-0.39,1.161-0.79
			c0.029-0.088,0.039-0.186,0.039-0.274V-658.908z"/>
		<path d="M685.224-659.943c0-0.498-0.01-0.889-0.039-1.278h0.761l0.05,0.771h0.019c0.234-0.44,0.781-0.878,1.562-0.878
			c0.653,0,1.669,0.391,1.669,2.011v2.821h-0.86v-2.724c0-0.761-0.282-1.406-1.093-1.406c-0.557,0-0.996,0.401-1.151,0.879
			c-0.039,0.107-0.059,0.264-0.059,0.4v2.851h-0.859V-659.943z"/>
		<path d="M691.642-662.354v1.133h1.229v0.654h-1.229v2.547c0,0.586,0.166,0.919,0.645,0.919c0.233,0,0.37-0.021,0.497-0.06
			l0.039,0.654c-0.166,0.059-0.43,0.117-0.762,0.117c-0.399,0-0.722-0.137-0.927-0.361c-0.234-0.264-0.333-0.684-0.333-1.239v-2.577
			h-0.731v-0.654h0.731v-0.869L691.642-662.354z"/>
		<path d="M695.706-656.389c-1.269,0-2.266-0.938-2.266-2.431c0-1.581,1.045-2.509,2.343-2.509c1.358,0,2.275,0.985,2.275,2.421
			c0,1.757-1.221,2.519-2.344,2.519H695.706z M695.736-657.033c0.819,0,1.435-0.772,1.435-1.846c0-0.801-0.4-1.807-1.415-1.807
			c-1.007,0-1.445,0.938-1.445,1.836c0,1.035,0.585,1.816,1.415,1.816H695.736z"/>
		<path d="M699.145-659.943c0-0.498-0.01-0.889-0.038-1.278h0.762l0.048,0.771h0.021c0.233-0.44,0.78-0.878,1.56-0.878
			c0.654,0,1.67,0.391,1.67,2.011v2.821h-0.859v-2.724c0-0.761-0.282-1.406-1.094-1.406c-0.556,0-0.995,0.401-1.151,0.879
			c-0.039,0.107-0.058,0.264-0.058,0.4v2.851h-0.86V-659.943z"/>
		<path d="M705.054-658.713c0.019,1.162,0.752,1.64,1.611,1.64c0.614,0,0.996-0.107,1.308-0.233l0.156,0.604
			c-0.303,0.137-0.829,0.303-1.581,0.303c-1.445,0-2.324-0.967-2.324-2.382c0-1.436,0.85-2.559,2.227-2.559
			c1.542,0,1.942,1.358,1.942,2.227c0,0.176-0.01,0.312-0.029,0.409L705.054-658.713z M707.564-659.328
			c0.009-0.537-0.226-1.396-1.182-1.396c-0.878,0-1.25,0.801-1.318,1.396H707.564z"/>
		<path d="M711.462-657.472c0.243,0.146,0.8,0.39,1.405,0.39c1.094,0,1.445-0.693,1.435-1.229c-0.01-0.889-0.81-1.27-1.641-1.27
			h-0.479v-0.643h0.479c0.625,0,1.416-0.323,1.416-1.074c0-0.508-0.322-0.957-1.113-0.957c-0.508,0-0.995,0.225-1.268,0.42
			l-0.234-0.625c0.342-0.244,0.986-0.488,1.67-0.488c1.249,0,1.815,0.742,1.815,1.514c0,0.664-0.401,1.22-1.172,1.503v0.021
			c0.78,0.146,1.416,0.731,1.416,1.619c0,1.017-0.801,1.904-2.315,1.904c-0.712,0-1.337-0.225-1.649-0.43L711.462-657.472z"/>
		<path d="M718.923-656.497v-1.729h-2.949v-0.556l2.832-4.061h0.928v3.954h0.888v0.663h-0.888v1.729H718.923z M718.923-658.888
			v-2.128c0-0.332,0.01-0.664,0.028-0.996h-0.028c-0.195,0.371-0.352,0.645-0.527,0.946l-1.552,2.158v0.02H718.923z"/>
		<path d="M721.777-657.092c0.185,0.01,0.399,0,0.692-0.038c0.499-0.06,0.967-0.265,1.328-0.615c0.42-0.381,0.723-0.938,0.84-1.689
			h-0.03c-0.352,0.43-0.858,0.684-1.503,0.684c-1.143,0-1.874-0.859-1.874-1.952c0-1.191,0.878-2.246,2.177-2.246
			c1.299,0,2.099,1.045,2.099,2.675c0,1.397-0.469,2.373-1.093,2.987c-0.488,0.469-1.162,0.771-1.846,0.85
			c-0.312,0.039-0.596,0.059-0.79,0.049V-657.092z M723.328-662.296c-0.723,0-1.24,0.645-1.24,1.542
			c0,0.791,0.479,1.348,1.221,1.348c0.576,0,1.024-0.283,1.26-0.664c0.038-0.078,0.068-0.176,0.068-0.312
			c0.01-1.093-0.4-1.913-1.299-1.913H723.328z"/>
		<path d="M729.511-663.077v3.905c0,1.464,0.654,2.089,1.533,2.089c0.967,0,1.601-0.643,1.601-2.089v-3.905h0.86v3.847
			c0,2.021-1.065,2.841-2.49,2.841c-1.347,0-2.362-0.762-2.362-2.811v-3.876H729.511z"/>
	</g>
</g>
</svg>
