<svg xmlns="http://www.w3.org/2000/svg" xmlns:xlink="http://www.w3.org/1999/xlink" viewBox="0 0 160 160" enable-background="new 0 0 160 160"><defs><use id="0" xlink:href="#2"/><use id="1" xlink:href="#2"/><path id="2" d="m2.929 35.04h154.14v89.92h-154.14z"/><clipPath id="3"><use xlink:href="#0"/></clipPath><clipPath id="4"><use xlink:href="#1"/></clipPath></defs><use clip-path="url(#3)" fill="#1f189b" xlink:href="#2"/><path clip-path="url(#3)" fill="#c0003b" d="m2.929 80h154.14v44.957h-154.14z"/><path clip-path="url(#3)" fill-rule="evenodd" fill="#fff" d="m65.41 68.37h29.18v23.23h-29.18z"/><g clip-path="url(#3)"><path clip-path="url(#4)" fill-rule="evenodd" fill="#2c6c1e" d="m85.87 85.17l-5.955.174-5.927.071c0 0-3.048 1.124-4.289 1.38-1.242.25-1.083.659-2.041.869-.772.174-.859.23-1.311.261-.271.015-.608.225-.938.46v3.219h29.18v-3.062c-.317-.174-.616-.296-.927-.398-.427-.148-.718-.307-1.484-.48-.963-.21-.799-.618-2.041-.869-1.244-.256-4.264-1.625-4.264-1.625"/><g clip-path="url(#4)"><path fill="#2c6c1e" d="m94.61 91.63h-29.2l-.026-3.25c.337-.256.68-.47.961-.486.319-.025.457-.056.782-.138l.526-.123c.437-.097.639-.235.851-.383.256-.174.516-.352 1.191-.491 1.223-.245 4.254-1.364 4.284-1.379l5.937-.066 5.955-.174c.041.015 3.043 1.374 4.269 1.62.672.138.935.317 1.185.491.215.148.416.286.856.383.552.123.856.245 1.142.353l.345.128c.314.102.613.225.93.399l.014 3.116m-8.752-6.437l-5.945.179-5.927.066c-.023.01-3.055 1.129-4.284 1.379-.659.133-.92.312-1.168.48-.217.153-.421.291-.874.393l-.524.123c-.33.082-.467.112-.789.133-.271.02-.603.23-.922.455l.01 3.199 29.12-.026v-3.035c-.299-.148-.6-.271-.91-.373l-.347-.128c-.284-.107-.585-.225-1.132-.347-.452-.102-.657-.24-.876-.393-.248-.174-.506-.347-1.165-.48-1.233-.251-4.24-1.61-4.268-1.625"/></g><path clip-path="url(#4)" fill-rule="evenodd" fill="#2c6c1e" d="m79.62 72.48l-.15 2.8h.9l-.13-2.77.93-.14-.1-1.1-2.32.09.02 1z"/><g clip-path="url(#4)"><path fill="#2c6c1e" d="m80.39 75.31h-.922l.117-2.825-.83-.092-.038-1.032 2.343-.117.13 1.129-.953.164.153 2.773m.643-4.04l-2.286.117.038.971.83.097-.12 2.82.838-.025-.128-2.744.953-.163-.125-1.073"/></g><path clip-path="url(#4)" fill-rule="evenodd" fill="#e6b32d" d="m77.5 80.17l-.77-1.67.33-.07 1.42 2.77z"/><g clip-path="url(#4)"><path d="m78.59 81.36l-1.109-1.17-.784-1.681.358-.107 1.535 2.958m-1.556-2.923l-.307.087.797 1.635.84.884-1.33-2.606"/></g><path clip-path="url(#4)" fill-rule="evenodd" fill="#fff" d="m75.71 76.54l.86 2.354h.44z"/><g clip-path="url(#4)"><path d="m77.06 78.925h-.488l-.887-2.371 1.375 2.371m-1.372-2.371l.91 2.335.37-.02-1.28-2.315"/></g><path clip-path="url(#4)" fill-rule="evenodd" fill="#e6b32d" d="m78.31 78l.43-.005.79 3.315-.17 1.04z"/><g clip-path="url(#4)"><path d="m79.37 82.49l-1.086-4.481.457-.046.815 3.336-.186 1.191m-.656-4.491l-.404.03 1.05 4.185.143-.915-.789-3.3"/></g><path clip-path="url(#4)" fill-rule="evenodd" fill="#e6b32d" d="m78.68 81.42l-1.32-3.564.493-.026 1.537 4.34z"/><g clip-path="url(#4)"><path d="m79.47 82.29l-.805-.853-1.331-3.571.521-.061 1.615 4.485m-1.638-4.451l-.47.046 1.349 3.52.616.654-1.495-4.22"/></g><path clip-path="url(#4)" fill-rule="evenodd" fill="#fff" d="m76.74 75.833l.54 2.477h.44z"/><g clip-path="url(#4)"><path d="m77.77 78.33h-.483l-.572-2.493 1.055 2.493m-1.055-2.489l.6 2.458.373-.02-.973-2.438"/></g><path clip-path="url(#4)" fill-rule="evenodd" fill="#fff" d="m77.863 75.79l.297 2.56.31-.02z"/><g clip-path="url(#4)"><path d="m78.13 78.38l-.003-.031-.294-2.55.662 2.524-.365.057m-.296-2.581l.345 2.519.289-.02-.634-2.499"/></g><path clip-path="url(#4)" fill-rule="evenodd" fill="#233189" d="m77.61 80.42l-3.526-3.847c-1.101.874-.899 2.473-.899 2.473l3.995 3.132.43-1.758"/><g clip-path="url(#4)"><path d="m77.2 82.23l-4.03-3.163c-.013-.031-.202-1.645.897-2.514l3.561 3.847-.429 1.83m-3.135-5.635c-1.04.853-.853 2.432-.851 2.448l3.952 3.091.416-1.717-3.517-3.822"/></g><path clip-path="url(#4)" fill-rule="evenodd" fill="#c00024" d="m79.65 82.54l-2.613-2.652c-1.106.041-.228 1.691-.174 1.901l2.787 2.381v-1.63"/><g clip-path="url(#4)"><path d="m79.67 84.23l-2.907-2.606c-.156-.373-.475-1.14-.225-1.533.092-.143.261-.225.49-.23l2.634 2.657.008 1.712m-2.659-4.322c-.194.015-.342.087-.427.215-.235.368.079 1.119.23 1.477.036.087.059.148.069.179l2.733 2.33v-1.569l-2.605-2.632"/></g><path clip-path="url(#4)" fill-rule="evenodd" fill="#e6b32d" d="m79.43 82.09l-5.41-5.8-.211.15 5.721 6.36z"/><g clip-path="url(#4)"><path d="m79.57 82.89l-.059-.066-5.722-6.361.215-.189 5.444 5.794.122.822m-5.572-6.575l-.174.153 5.666 6.249-.092-.629-5.4-5.773"/></g><path clip-path="url(#4)" fill-rule="evenodd" fill="#e6b32d" d="m73.71 75.925l-.12-.135.01-.28-1.12-.71.504 1.125.376.072.12.133z"/><g clip-path="url(#4)"><path d="m73.48 76.17l-.14-.16-.361-.059-.519-1.135 1.15.674v.17l-.04-.15-1.1-.683.54 1.088.36.056.11.119.21-.185-.01-.026.04.067-.24.224"/></g><path clip-path="url(#4)" fill-rule="evenodd" fill="#e6b32d" d="m73.13 76.33c.194-.23.416-.455.82-.674l.312.444-.667.562-.465-.332"/><g clip-path="url(#4)"><path d="m73.6 76.7l-.483-.342c.181-.266.411-.501.822-.726l.347.46-.686.608m.327-1.027c-.365.23-.588.46-.771.679l.439.281.649-.547-.317-.413"/></g><path clip-path="url(#4)" fill-rule="evenodd" fill="#233189" d="m76.07 81.44l-4.43-3.52c-.759.777-.125 3.158-.125 3.158l4.328 2.345.227-1.983"/><g clip-path="url(#4)"><path d="m75.865 83.47l-4.363-2.366c-.041-.112-.644-2.422.12-3.193l4.468 3.51-.225 2.049m-4.24-5.523c-.705.751-.089 3.101-.084 3.127l4.279 2.309.225-1.942-4.42-3.494"/></g><path clip-path="url(#4)" fill-rule="evenodd" fill="#c00024" d="m79.74 84.29l-3.64-2.923c-1.247.179-.268 2.01-.191 2.207l3.847 2.09-.016-1.374"/><g clip-path="url(#4)"><path d="m79.78 85.72l-3.888-2.11c-.217-.465-.641-1.395-.355-1.916.102-.189.289-.307.554-.342l3.663 2.928.026 1.44m-3.702-4.323c-.225.046-.399.148-.493.322-.273.501.159 1.441.299 1.752l3.837 2.156-.013-1.328-3.63-2.902"/></g><path clip-path="url(#4)" fill-rule="evenodd" fill="#e6b32d" d="m79.59 83.7l-7.87-5.91-.18.179 8.27 6.461z"/><g clip-path="url(#4)"><path d="m79.86 84.51l-.066-.056-8.275-6.458.179-.225 7.912 5.912.25.827m-8.159-6.698l-.143.184 8.203 6.361-.194-.644-7.866-5.901"/></g><path clip-path="url(#4)" fill-rule="evenodd" fill="#e6b32d" d="m71.34 77.47l-.14-.11-.03-.28-1.229-.5.689 1.02h.39l.14.12z"/><g clip-path="url(#4)"><path d="m71.17 77.76l-.17-.14-.37.01-.714-1.04 1.264.47.02.17-.06-.14-1.212-.48.722.98.38-.01.12.1.17-.22-.01-.03.06.06-.2.27"/></g><path clip-path="url(#4)" fill-rule="evenodd" fill="#e6b32d" d="m70.858 77.979c.146-.261.327-.521.685-.807l.383.388-.552.669-.516-.25"/><g clip-path="url(#4)"><path d="m71.38 78.27l-.534-.261c.128-.286.309-.557.682-.853l.419.393-.567.721m.143-1.067c-.327.286-.503.552-.639.797l.48.199.542-.649-.383-.347"/></g><path clip-path="url(#4)" fill-rule="evenodd" fill="#233189" d="m75.75 83.59c-.059-.015-5.707-3.219-5.707-3.219-.414.695-.041 1.701.14 1.86.01.46-.189.71.217 1.676.12.628.409 1.206.833 1.548.514 1.977 2.532 2.115 3.311.501l1.206-2.366"/><g clip-path="url(#4)"><path d="m72.971 87.09c0 0 0 0-.002 0-.646 0-1.449-.424-1.76-1.63-.398-.317-.705-.884-.833-1.548-.304-.72-.268-1.047-.238-1.359.013-.102.023-.21.02-.322-.164-.133-.572-1.144-.138-1.875 1.972 1.088 5.653 3.173 5.74 3.208l-1.188 2.407c-.339.7-.939 1.119-1.601 1.119m-2.941-6.693c-.373.68.013 1.671.174 1.814.013.138.003.24-.01.347-.031.307-.064.623.235 1.339.125.654.424 1.216.825 1.538.312 1.185 1.088 1.599 1.714 1.599h.002c.641 0 1.221-.409 1.551-1.088l1.206-2.371c-.084 0-4.756-2.647-5.697-3.178"/></g><path clip-path="url(#4)" fill-rule="evenodd" fill="#c00024" d="m79.49 85.71l-3.868-2.269c-1.247.174.028 2.483.1 2.688l3.737 1.323.031-1.742"/><g clip-path="url(#4)"><path d="m79.48 87.49l-3.781-1.344-.074-.163c-.22-.46-.802-1.686-.488-2.269.092-.169.253-.271.475-.302l3.888 2.274-.02 1.804m-3.878-4.03c-.189.031-.335.123-.416.276-.299.562.271 1.768.488 2.218l3.753 1.451.033-1.701-3.858-2.244"/></g><path clip-path="url(#4)" fill-rule="evenodd" fill="#e6b32d" d="m78.84 84.89l-8.74-4.65-.149.2 9.219 5.14z"/><g clip-path="url(#4)"><path d="m79.23 85.64l-9.297-5.176.143-.25 8.77 4.644.384.782m-9.146-5.385l-.118.204 9.138 5.05-.296-.613-8.724-4.639"/></g><path clip-path="url(#4)" fill-rule="evenodd" fill="#e6b32d" d="m69.68 79.982l-.16-.092-.08-.26-1.3-.32.856.9.384-.05.16.09z"/><g clip-path="url(#4)"><path d="m69.55 80.29l-.19-.11-.362.06-.868-.92 1.32.28.06.17-.1-.13-1.27-.31.88.86.36-.06.15.08.13-.238-.02-.031.06.056-.15.293"/></g><path clip-path="url(#4)" fill-rule="evenodd" fill="#e6b32d" d="m69.28 80.55c.1-.271.238-.562.547-.894l.439.322-.437.746-.549-.174"/><g clip-path="url(#4)"><path d="m69.844 80.75l-.57-.174c.077-.302.212-.598.534-.94l.478.317-.442.797m-.033-1.073c-.276.332-.409.618-.503.879l.511.128.426-.72-.434-.287"/></g><path clip-path="url(#4)" fill-rule="evenodd" fill="#233189" d="m72.54 77.31l.181.322c.112-.046 1.244-1.068 1.244-1.068l.812-.026.23-.261c-.595-.639-1.155.092-1.155.092l-1.312.941"/><g clip-path="url(#4)"><path fill="#233189" d="m72.71 77.66l-.191-.337 1.321-.976c.008-.015.687-.623 1.19-.087l-.23.291-.833.036c-.097.102-1.121 1.022-1.234 1.068l-.023.005m1.781-1.619c-.347 0-.611.342-.613.347l-1.318.945.174.261c.135-.087.787-.664 1.216-1.052l.83-.036.212-.245c-.159-.133-.327-.22-.501-.22"/></g><path clip-path="url(#4)" fill-rule="evenodd" fill="#c00024" d="m73.19 77.85c.043-.286.577-.991.654-1.017.401.122.774.352 1.183-.562-.353.444-1.07-.01-1.07-.01l-.312.261.01.123-.94.874.475.331"/><g clip-path="url(#4)"><path fill="#c00024" d="m73.21 77.892l-.511-.357.36-.353-.327.353.439.266c.079-.307.57-.961.664-.996.255.077.373.117.491.117.171 0 .398-.071.654-.618-.215.373-1.019-.01-1.04-.026l-.135.128.133-.169c.059-.005.797.358 1.068.01-.24.741-.654.777-1.057.649-.217-.026-.69.664-.733.955l-.006.041"/></g><path clip-path="url(#4)" fill-rule="evenodd" fill="#233189" d="m70.42 78.965l.049.332c.105-.061 1.098-1.155 1.098-1.155l.8-.148.158-.25c-.554-.654-1.144.21-1.144.21l-.961 1.01"/><g clip-path="url(#4)"><path fill="#233189" d="m70.45 79.34l-.056-.368.971-1.032c.013-.02.71-.771 1.185-.215l-.158.286-.817.164c-.087.102-.984 1.083-1.091 1.144l-.034.021m1.627-1.814c-.363 0-.669.444-.669.45l-.968 1.012.048.261c.151-.133.697-.72 1.06-1.119l.815-.159.14-.24c-.127-.123-.273-.205-.426-.205"/></g><path clip-path="url(#4)" fill-rule="evenodd" fill="#c00024" d="m71.05 79.55c-.038-.301.378-1.191.449-1.226.475.138.892.358 1.068-.639-.278.501-1.068.112-1.068.112l-.263.301.036.163-.805 1.042.583.247"/><g clip-path="url(#4)"><path fill="#c00024" d="m71.08 79.6l-.628-.266.21-.286-.176.276.529.189c0-.337.378-1.165.467-1.211.273.077.414.117.537.117.189 0 .401-.087.516-.736-.11.439-1.03.153-1.053.143l-.077.102.069-.148c.02.015.317.138.603.138.217 0 .37-.082.462-.24-.066.807-.457.864-.948.705-.156.015-.557.874-.518 1.165l.007.052"/></g><path clip-path="url(#4)" fill-rule="evenodd" fill="#233189" d="m68.929 81.6l.184.358c.095-.071.927-1.41.927-1.41l.769-.255.143-.312c-.616-.572-1.078.414-1.078.414l-.945 1.205"/><g clip-path="url(#4)"><path fill="#233189" d="m69.11 82l-.202-.388.95-1.231c.01-.026.577-.925 1.117-.419l-.138.347-.782.266c-.071.123-.825 1.334-.92 1.405l-.025.02m1.461-2.171c-.391 0-.664.572-.667.577l-.948 1.211.168.296c.12-.148.59-.884.897-1.379l.782-.266.128-.296c-.115-.082-.237-.143-.36-.143"/></g><path clip-path="url(#4)" fill-rule="evenodd" fill="#c00024" d="m69.75 82.11c-.061-.312.148-1.298.217-1.339.483.138.884.179.991-.813-.279.47-1.022.291-1.022.291l-.222.337.048.117-.634 1.221.622.186"/><g clip-path="url(#4)"><path fill="#c00024" d="m69.79 82.15l-.664-.194.248-.511-.215.496.565.138c-.038-.337.14-1.267.235-1.328.416.092.845.404.978-.787-.204.516-.991.322-1 .322l-.094.158.077-.204c.036-.005.168.026.342.026.227 0 .529-.056.682-.317-.026.889-.478 1-.976.853-.026.046-.243.991-.181 1.303l.007.045"/></g><path clip-path="url(#4)" fill-rule="evenodd" fill="#e6b32d" d="m78.78 87.03l-2.18-.68-.95-1.62-3.36-.16.12 1.21 2.86.55.27.49 3.29.91z"/><g clip-path="url(#4)"><path d="m78.862 87.77l-3.326-.925-.289-.501-2.841-.531-.141-1.242 3.387.133.971 1.635 2.164.664.075.767m-6.571-3.173l.148 1.185 2.836.521.291.501 3.234.894-.048-.669-2.161-.649-.963-1.635-3.337-.148"/></g><path clip-path="url(#4)" fill-rule="evenodd" fill="#4d3509" d="m76.51 87.48l-3.44-5.06-.173.13 3.413 5.08z"/><g clip-path="url(#4)"><path d="m76.3 87.67l-3.429-5.099.176-.168 3.48 5.063-.227.204m-3.26-5.226l-.13.133 3.405 5.01.171-.128-3.446-5.02"/></g><path clip-path="url(#4)" fill-rule="evenodd" fill="#fff" d="m73.39 82.62l-.365-.613c-.069-.117-.174-.153-.324-.071-.148.077-.136.235-.077.347l.34.572.426-.235"/><g clip-path="url(#4)"><path d="m72.948 82.89l-.352-.593c-.064-.128-.079-.302.087-.388.238-.046.312-.005.36.082l.365.613-.46.286m-.105-1l-.136.072c-.13.066-.117.204-.064.306l.325.547.403-.22-.528-.705"/></g><path clip-path="url(#4)" fill-rule="evenodd" fill="#e6b32d" d="m76.91 84.36l-6.933-.71-.166 1.01 6.899.69z"/><g clip-path="url(#4)"><path d="m76.73 85.38l-6.928-.695.143-1.042 6.966.685-.181 1.052m-6.762-1.707l-.135.991 6.854.659.194-.976-6.913-.674"/></g><path clip-path="url(#4)" fill-rule="evenodd" fill="#e6b32d" d="m69.854 83.39l-.184 1.41h.294l.206-1.29z"/><g clip-path="url(#4)"><path d="m69.99 84.82h-.317l.153-1.431.35.097-.186 1.334m-.146-1.4l-.145 1.374.243-.026.199-1.262-.297-.086"/></g><path clip-path="url(#4)" fill-rule="evenodd" fill="#e6b32d" d="m71.01 83.62l-.078 1.26.178.02.15-1.12z"/><g clip-path="url(#4)"><path d="m71.14 84.928l-.21-.02.056-1.288.289.138-.135 1.17m-.141-1.283l-.038 1.237.156.015-.028-.005.146-1.114-.236-.133"/></g><path clip-path="url(#4)" fill-rule="evenodd" fill="#e6b32d" d="m75.71 84.16l-.17 1.18.338-.01.132-1.17z" id="5"/><g clip-path="url(#4)"><path d="m75.51 85.37l.17-1.21.33-.02-.104 1.2-.396.03" id="6"/></g><path clip-path="url(#4)" fill-rule="evenodd" fill="#e6b32d" d="m76.74 84.2l-.243 1.364.383.056.11-.72c.028.143.161.255.322.255.181 0 .329-.143.329-.322 0-.174-.148-.312-.329-.312-.128 0-.24.072-.289.21l.072-.511-.355-.02"/><g clip-path="url(#4)"><path d="m76.908 85.65l-.409-.061.217-1.395.386-.005-.043.495c.059-.312.613-.164.613.148.003.358-.636.414-.705.077l-.059.741m.163-1.435l-.33.01-.212 1.344.332.02.105-.695c.179.291.654.24.651-.061 0-.271-.46-.378-.567-.092l.021-.526"/></g><path clip-path="url(#4)" fill-rule="evenodd" fill="#e6b32d" d="m74.24 84.42l-.95 1.07.1.13 1.23-.84z"/><g clip-path="url(#4)"><path d="m73.39 85.66l-.123-.148.953-1.114.419.368-1.249.894m.83-1.222l-.912 1.073.087.112-.015-.026 1.224-.833-.384-.326"/></g><path clip-path="url(#4)" fill-rule="evenodd" fill="#e6b32d" d="m72.02 87.09l.956-1.07-.113-.13-1.223.84z"/><g clip-path="url(#4)"><path d="m72.02 87.13l-.401-.388 1.247-.889.13.148-.976 1.129m.933-1.129l-1.298.746.36.307.938-1.053"/></g><path clip-path="url(#4)" fill-rule="evenodd" fill="#e6b32d" d="m74.52 86.82l-1.16-.9-.12.09.91 1.16z"/><g clip-path="url(#4)"><path d="m74.15 87.21l-.932-1.185.156-.123 1.163.899-.387.409m-.807-1.262l.815 1.175.345-.322-1.16-.853"/></g><path clip-path="url(#4)" fill-rule="evenodd" fill="#e6b32d" d="m71.66 84.75l1.173.87.143-.1-.926-1.16z"/><g clip-path="url(#4)"><path d="m72.833 85.65l-1.193-.879.393-.439.984 1.185-.184.133m-.802-1.282l-.355.404 1.157.812.128-.097-.93-1.119"/></g><path clip-path="url(#4)" fill-rule="evenodd" fill="#e6b32d" d="m72.938 84.04l.112 1.41.16-.01.37-1.37z"/><g clip-path="url(#4)"><path d="m73.02 85.47l-.115-1.436.672.005-.352 1.425-.205.006m.529-1.416l-.618.01.138 1.349.133-.005.347-1.354"/></g><path clip-path="url(#4)" fill-rule="evenodd" fill="#e6b32d" d="m73.32 87.46l-.11-1.41-.18-.01-.21 1.42z"/><g clip-path="url(#4)"><path d="m73.35 87.49h-.531l.192-1.482.199.015.14 1.467m-.171-1.436l-.332 1.41.442-.025-.11-1.385"/></g><path clip-path="url(#4)" fill-rule="evenodd" fill="#e6b32d" d="m74.884 85.56l-1.484.16-.02.14 1.496.19z"/><g clip-path="url(#4)"><path d="m74.905 86.08l-1.528-.194.023-.199 1.479-.159.026.552m-.049-.521l-1.448.184 1.441.276.007-.46"/></g><path clip-path="url(#4)" fill-rule="evenodd" fill="#e6b32d" d="m71.37 86.05l1.44-.23.028-.11-1.488-.17z"/><g clip-path="url(#4)"><path d="m71.34 86.08l-.02-.54 1.523.14-.283.08-1.22-.19.05.45.485-.08-.535.14"/></g><path clip-path="url(#4)" fill-rule="evenodd" fill="#e6b32d" d="m73.52 85.72c0 .21-.176.378-.393.378-.215 0-.391-.168-.391-.378 0-.204.176-.378.391-.378.217 0 .393.174.393.378"/><g clip-path="url(#4)"><path d="m73.12 86.13c-.232 0-.419-.184-.419-.409 0-.45.843-.444.841 0 0 .225-.189.409-.422.409m0-.757c-.202 0-.365.153-.365.347 0 .388.733.388.733 0 0-.193-.166-.347-.368-.347"/></g><path clip-path="url(#4)" fill-rule="evenodd" fill="#e6b32d" d="m75.2 85.72c0 1.109-.93 2.01-2.08 2.01-1.147 0-2.077-.899-2.077-2.01 0-1.109.93-2.01 2.077-2.01 1.15 0 2.08.899 2.08 2.01m-.414 0c0 .884-.746 1.604-1.666 1.604-.917 0-1.66-.72-1.66-1.604 0-.889.743-1.604 1.66-1.604.92-.001 1.666.715 1.666 1.604"/><g clip-path="url(#4)"><path d="m73.12 87.75c-1.16 0-2.105-.91-2.105-2.034 0-1.119.945-2.033 2.105-2.033 1.163 0 2.108.915 2.108 2.033 0 1.124-.945 2.034-2.108 2.034m0-4.01c-1.132 0-2.051.889-2.051 1.977 0 1.093.92 1.977 2.051 1.977 1.132 0 2.054-.884 2.054-1.977 0-1.087-.922-1.977-2.054-1.977m0 3.613c-.932 0-1.689-.736-1.689-1.635 0-.899.756-1.635 1.689-1.635.933 0 1.691.736 1.691 1.635.001.899-.758 1.635-1.691 1.635m0-3.214c-.902 0-1.635.71-1.635 1.579s.733 1.579 1.635 1.579c.902 0 1.638-.71 1.638-1.579s-.736-1.579-1.638-1.579"/></g><path clip-path="url(#4)" fill-rule="evenodd" fill="#e6b32d" d="m78.83 83.74l.35 1.81-.285.16-.315-1.95z"/><g clip-path="url(#4)"><path d="m78.872 85.75l-.319-1.982.268-.056.388 1.84-.337.198m-.074-2.01l-.215.051.33 1.87.258-.133-.373-1.788"/></g><path clip-path="url(#4)" fill-rule="evenodd" fill="#fff" d="m78.64 83.5c-.166-.066-.378.051-.731-.399-.58.537-.033.613.054 1.14.163.066.266-.404.71-.455.054-.005.71-.061.71-.061l-.166-.225c0 0-.452.01-.577 0"/><g clip-path="url(#4)"><path d="m77.993 84.28l-.041-.01c-.046-.194-.128-.322-.202-.429-.143-.22-.256-.388.14-.751.294.322.47.342.613.363l.278.026.434-.005.187.235-.725.107c-.248.026-.386.194-.488.317-.071.081-.127.147-.196.147m-.104-1.155c-.322.337-.23.475-.092.68.077.117.163.245.194.434l.003-.015c.043 0 .094-.061.156-.128.105-.133.256-.307.521-.332l.71-.066-.187-.179-.411.015-.286-.031c-.154-.015-.34-.035-.608-.378"/></g><path clip-path="url(#4)" fill-rule="evenodd" fill="#fff" d="m78.875 83.86l-.064-.547c-.072-.189-.307-.025-.307.087l.061.496.31-.036"/><g clip-path="url(#4)"><path d="m78.54 83.937l-.064-.532c0-.092.12-.199.222-.199l.033.102c-.123-.025-.202.046-.202.097l.059.47.284-.041-.028-.168.059.194-.363.077"/></g><g fill-rule="evenodd"><g fill="#e6b32d"><path clip-path="url(#4)" d="m74.843 88.34c0 .082-.043.153-.115.194-.069.041-.156.041-.227 0-.069-.041-.112-.112-.112-.194 0-.077.043-.148.112-.189.071-.041.158-.041.227 0 .072.041.115.112.115.189"/><path clip-path="url(#4)" d="m74.26 87.93c.003.077-.043.148-.112.189-.074.036-.161.036-.227 0-.074-.041-.117-.112-.117-.189 0-.082.043-.153.117-.194.066-.041.153-.041.227 0 .069.041.115.113.112.194"/><path clip-path="url(#4)" d="m73.47 88.2c0 .077-.043.148-.112.189-.072.036-.159.036-.227 0-.072-.041-.115-.112-.115-.189 0-.082.043-.153.115-.194.069-.036.156-.036.227 0 .069.041.112.112.112.194"/><path clip-path="url(#4)" d="m72.26 88.46c0 .077-.043.153-.117.189-.069.041-.156.041-.227 0-.069-.036-.112-.112-.112-.189 0-.082.043-.153.112-.194.072-.036.159-.036.227 0 .074.041.117.113.117.194"/><path clip-path="url(#4)" d="m71.75 88.53c0 .077-.043.153-.115.189-.069.041-.156.041-.227 0-.069-.036-.112-.112-.112-.189 0-.082.043-.153.112-.194.072-.036.159-.036.227 0 .071.041.115.112.115.194"/><path clip-path="url(#4)" d="m71.24 88.53c0 .077-.043.153-.112.189-.072.041-.159.041-.228 0-.071-.036-.115-.112-.115-.189 0-.082.043-.153.115-.194.069-.036.156-.036.228 0 .068.041.112.112.112.194"/><path clip-path="url(#4)" d="m70.72 88.51c0 .077-.043.148-.112.189-.072.041-.159.041-.228 0-.074-.041-.117-.112-.117-.189 0-.082.043-.153.117-.189.069-.041.156-.041.228 0 .069.035.112.107.112.189"/><path clip-path="url(#4)" d="m70.976 88.12c0 .071-.043.148-.112.184-.074.041-.161.041-.227 0-.074-.036-.118-.112-.118-.184 0-.082.043-.153.118-.194.066-.041.153-.041.227 0 .068.041.112.112.112.194"/><path clip-path="url(#4)" d="m71.47 88.14c0 .077-.043.153-.115.189-.069.041-.156.041-.227 0-.069-.036-.112-.112-.112-.189 0-.082.043-.153.112-.194.071-.041.159-.041.227 0 .071.04.115.112.115.194"/><path clip-path="url(#4)" d="m71.949 88.08c0 .076-.043.153-.117.189-.066.041-.153.041-.227 0-.069-.036-.112-.112-.112-.189 0-.077.043-.148.112-.189.074-.041.161-.041.227 0 .074.04.117.112.117.189"/><path clip-path="url(#4)" d="m71.71 87.7c0 .077-.043.148-.112.189-.072.041-.159.041-.228 0-.074-.041-.117-.112-.117-.189 0-.077.043-.148.117-.189.069-.041.156-.041.228 0 .069.041.112.113.112.189"/><path clip-path="url(#4)" d="m71.24 87.69c0 .082-.043.153-.112.194-.072.041-.159.041-.228 0-.071-.041-.115-.112-.115-.194 0-.077.043-.148.115-.189.069-.036.156-.036.228 0 .068.041.112.112.112.189"/></g><path clip-path="url(#4)" fill="#fff" d="m75.15 86.89c-.197-.082-.197.363-.197.363l.312.005c.133.061.243.261.156.358-.069.077-.669-.138-.71-.015.105.598.899.828 1.183.567.284-.256.355-.935-.557-1.119l-.187-.159"/></g><g clip-path="url(#4)"><path d="m75.57 88.3c-.092 0-.192-.015-.291-.051-.317-.108-.539-.348-.59-.644.025-.102.207-.072.416-.036.102.02.278.051.296.026.005-.189-.069-.276-.143-.312h-.302c-.028-.061-.023-.337.087-.414l.005.005.122-.005.187.159c.393.077.659.266.733.536.072.256-.041.501-.174.623-.08.077-.206.113-.346.113m-.759-.71c-.038 0-.066.005-.069.02.048.261.255.486.554.588.23.082.46.061.583-.051.122-.107.225-.332.161-.562-.069-.25-.312-.429-.685-.501l-.072.153c.097.046.174.143.194.24-.074.199-.184.179-.381.148-.08-.015-.206-.035-.285-.035m-5.646-.47l-.304-1.247h.005l1.929.777-.023.051-1.906-.828.353 1.237-.054.01m.363-.067l-.455-.971.506.95-.051.021m.797-.24l-1.027-.552 1.053.501-.026.051"/></g><path clip-path="url(#4)" fill-rule="evenodd" fill="#c00024" d="m67.74 84.938c0 0-.695-.01-.823.041-.046.015.179.25.13.342-.174.332-1.357.286-1.448.215-.159-.123 1.101-.235 1.109-.322.01-.097-.189-.347-.156-.506.041-.204.549-.281.549-.281l.639.511"/><g clip-path="url(#4)"><path fill="#c00024" d="m66.06 85.61c-.199 0-.434-.015-.485-.056-.003-.123.191-.168.633-.245.197-.036.439-.077.47-.108-.12-.276-.179-.404-.161-.501.043-.219.521-.296.575-.301l.659.516c-.353.031-.575.051-.703.061.13-.066.345-.071.524-.071l-.495-.46c-.112.031-.475.112-.503.266-.018.082.038.199.087.302.038.087.074.158.069.204-.005.051-.107.077-.511.148-.22.036-.585.102-.613.148.069.041 1.254.097 1.41-.21.021-.036-.043-.138-.082-.199.005-.015.013-.036.026-.051.092.133.135.22.107.276-.139.26-.805.281-1.01.281"/></g><path clip-path="url(#4)" fill-rule="evenodd" fill="#4d3509" d="m68.67 85.57l-1.574-1.303c0 0-.069-.072-.128-.01-.059.061.02.133.02.133l1.622 1.339.06-.159"/><g clip-path="url(#4)"><path d="m68.62 85.78l-1.653-1.369.01-.005.041-.199 1.681 1.354-.079.219m-1.548-1.492l1.523 1.395.046-.123-1.569-1.272"/></g><path clip-path="url(#4)" fill-rule="evenodd" fill="#e6b32d" d="m70.18 86.85c-.028-.031-1.28-1.119-1.28-1.119l-.084-.312c0 0-.192.128-.263.199-.074.066-.182.25-.182.25l.35.015 1.109 1.017.35-.05"/><g clip-path="url(#4)"><path d="m69.818 86.94l-1.116-1.027-.335-.005c-.018-.051.089-.23.163-.301.074-.072.268-.204.268-.204l.125.332c.008 0 1.246 1.073 1.272 1.098l-.377.107m-1.096-1.073l1.114 1.017.337-.056c-.069 0-1.295-1.063-1.295-1.063l-.087-.317c-.018.041-.161.143-.222.194-.069.066-.174.25-.176.25l.329-.025"/></g><path clip-path="url(#4)" fill-rule="evenodd" fill="#e6b32d" d="m77.15 85.36l.002.506c-.161.056-.135.179-.133.358l.008 1.471c-.059.097-.24.107-.327.179-.087.077-.074.225.317.322l.299.015c.46-.102.555-.256.322-.337-.123-.051-.281-.102-.342-.174l.01-.353.296.01c.079 0 .233-.199.24-.363v-.761c-.013-.434-.335-.48-.424-.475l.003-.399h-.271m.503.844c.003-.123-.174-.235-.243-.24-.072 0-.227.148-.233.271v.307c.013.117.102.496.284.526.084.015.194-.123.194-.235l-.002-.629"/><g clip-path="url(#4)"><path d="m77.32 88.23l-.304-.01c-.289-.071-.365-.168-.383-.235l.21-.215c.069-.026.136-.051.163-.097l-.013-1.456c-.005-.21-.01-.327.153-.383l-.023-.48.299-.031.025.429c.143-.031.414.077.422.475v.761c-.008.163-.161.393-.266.393l-.299-.01.018.322c.048.041.187.092.299.138.148.051.171.107.166.148-.005.097-.168.184-.465.25h-.002v.001m.077-2.877l-.245.031.031.475c-.143.071-.14.153-.136.301l.01 1.528c-.043.082-.12.107-.197.133l-.171.153c.008.031.056.117.337.189l.291.01c.302-.066.414-.148.416-.199-.255-.138-.396-.194-.46-.266l.005-.368.327-.015c.054 0 .202-.184.21-.337v-.761c-.01-.434-.345-.45-.383-.45l-.035-.424m.077 1.732c-.227-.031-.312-.465-.319-.546v-.312c.003-.133.161-.296.256-.296.082.005.278.123.273.266l.003.628c-.001.112-.098.26-.213.26m-.062-1.129l-.003.031c-.056 0-.199.133-.202.24v.307c.013.133.11.475.258.501.003 0 .003 0 .003 0 .094 0 .164-.123.164-.21l-.005-.629c.003-.102-.156-.204-.217-.21l.002-.03"/></g><path clip-path="url(#4)" fill-rule="evenodd" fill="#2c6c1e" d="m79.943 71.34c-2.391-2.396-4.277-1.231-4.726-.899.296.056.562-.128.7-.148-.084.112-.266.378-.266.378s.738-.348.823-.312c-.105.082-.225.286-.225.286.054.02.47-.327.554-.332-.128.143-.169.47-.169.47l.363-.168c.094.066-.028.194.054.189.603-.046 1.441.547 1.558.731l1.334-.195"/><g clip-path="url(#4)"><path d="m78.63 71.52c-.153-.138-.973-.751-1.579-.69l-.018-.071.013.025c.636-.051 1.461.542 1.584.736m1.293-.163c-2.322-2.325-4.177-1.272-4.69-.894.187-.01.375-.087.514-.138l.087-.015c-.243.133-.427.199-.623.163.511-.439 2.404-1.507 4.752.843l-.04.041m-3.278-.547c-.033-.041-.005-.296.094-.46-.051.051-.133.107-.199.153-.202.143-.256.184-.304.169-.008-.051.11-.25.217-.337-.046.036-.439.199-.792.363-.033-.036.115-.266.205-.388h.069c-.084.112-.263.378-.263.378.143-.123.72-.393.81-.353-.074.097-.163.245-.197.302.038-.046.146-.123.222-.179.151-.102.245-.168.291-.174-.097.184-.138.501-.138.506l.324-.199.014.055-.353.164"/></g><path clip-path="url(#4)" fill-rule="evenodd" fill="#2c6c1e" d="m79.35 71.78c-.25-.572-4.805-1.538-5.722.077.358.092.703-.301.703-.301l-.033.358.608-.465-.217.48.485-.388-.018.388.593-.644-.074.378.526-.23-.061.317 3.21.03"/><g clip-path="url(#4)"><path d="m74.7 71.95l.174-.516-.565.501-.013-.373c-.025.087-.335.404-.682.317.483-.92 1.975-.976 2.818-.935 1.334.071 2.787.475 2.938.822l-.051.02c-.128-.291-1.487-.715-2.889-.787-.833-.046-2.299.015-2.784.869.317.041.657-.332.659-.337l.015.383.565-.491-.176.516.442-.424.028.414.547-.669-.031.404.49-.261-.023.347.008-.322-.49.256.038-.409-.547.669-.028-.409-.443.415"/></g><path clip-path="url(#4)" fill-rule="evenodd" fill="#2c6c1e" d="m79.15 71.868c-1.17-.782-2.979-.256-2.979-.256-1.152.644-1.768.532-1.916 1.727.11-.041.421-.419.421-.419l.23.465.079-.659.189.511.279-.843.066.572.434-.572.202.163.189-.435.168.286c0 0 .296-.184.468-.077l.329-.373.077.266.281-.327.11.24.281-.256-.018.179.966.015.144-.207"/><g clip-path="url(#4)"><path d="m74.933 73.39l-.284-.46c.013.046-.273.388-.383.435.074-.935.465-1.109 1.112-1.4.225-.097.483-.215.779-.378.02-.01 1.839-.521 3 .255l-.028.046c-1.15-.761-2.938-.256-2.956-.25-.291.163-.549.281-.777.378-.651.291-1.012.455-1.119 1.328.046-.061.286-.337.37-.439l.279.47.028-.654.24.506.227-.843.117.577.386-.583.243.158.145-.429.217.286c-.008-.026.284-.194.46-.087l.294-.368.123.281.235-.342.156.25.291-.317-.025.256.938-.015-.966.041-.031-.005.023-.21-.238.281-.153-.25-.235.337-.125-.281-.28.389c-.189-.092-.47.077-.473.077l-.207-.296-.14.435-.245-.153-.396.567-.112-.588-.227.853-.238-.511-.029.653"/></g><path clip-path="url(#4)" fill-rule="evenodd" fill="#2c6c1e" d="m78.882 72c-.812-.015-3.153.869-3.755 1.793.238-.133.391-.194.391-.194l.115.368.148-.368.028.286c.092-.225.194-.25.36-.02l.064-.342.092.327.158-.358c0 0 .097.393.156.373 0 0 .255-.675.373-.705l.033.424.156-.424.135.317.033-.45.156.342c0 0 .084-.342.202-.404l.235.21 1.04-.746-.12-.429"/><g clip-path="url(#4)"><path d="m75.66 73.979l-.163-.363c-.013.025-.151.087-.355.199.583-.986 2.902-1.839 3.722-1.839.008 0 .015 0 .02 0v.056c-.008 0-.013 0-.02 0-.815 0-3.122.874-3.712 1.778.205-.174.355-.235.355-.235l.156.383.095-.373.082.296c-.002-.133.054-.194.118-.204.071-.01.143.046.235.174l.018-.332.143.327.107-.363c.092.158.153.342.184.358.015-.097.24-.674.363-.705l.066.444.105-.429.186.312-.02-.439.199.322c-.018-.066.059-.342.174-.404l.268.215 1-.751-1.01.792-.271-.21c-.056.051-.136.302-.156.388l-.21-.337.02.439-.189-.307-.108.424-.084-.429c-.028.036-.194.383-.319.71-.117-.026-.187-.296-.209-.378l-.105.363-.143-.332-.013.342c-.128-.097-.205-.128-.233-.138-.043.005-.084.056-.128.164l-.079-.296-.097.378"/></g><path clip-path="url(#4)" fill-rule="evenodd" fill="#2c6c1e" d="m79.04 72.19c-1.086.414-2.057 1.906-1.98 2.534.483-.598.378-.511.595.174 0 0 .079-.603.161-.674l.143.45.054-.583h.146l-.041-.363.217.164c-.051-.21-.105-.276.12-.46 0 0-.284.041-.061-.47l.21.199c0 0-.036-.225.036-.307l.766-.266-.366-.398"/><g clip-path="url(#4)"><path d="m77.68 74.909l-.138-.286c-.041-.143-.071-.255-.102-.266-.002 0-.002 0-.002 0-.043 0-.143.128-.291.312-.002-.005-.005-.015-.008-.02.181-.281.248-.353.312-.342.064.015.089.102.146.302l.079.271c-.028-.133.041-.598.123-.669l.186.46v-.577l.105-.353.064.031-.051-.015.082.342-.199.583-.194-.439c-.012.052-.081.436-.112.666m-.539-.583c.135-.69.955-1.798 1.89-2.156l.018.051c-.899.342-1.693 1.395-1.908 2.105m1.208-.971c-.084-.092-.059-.23.018-.404l.23.174c-.036-.051-.043-.21.018-.281l.782-.276-.748.317c-.041.056-.028.219-.021.276l-.255-.174c-.059.215-.047.317-.024.368"/></g><path clip-path="url(#4)" fill-rule="evenodd" fill="#2c6c1e" d="m79.14 72.31l-.409.782.209.061-.472.353.401-.041c0 0-.611.225-.685.822l.621-.276c0 0-.526.542-.598.864l.358-.317c0 0-.347.378-.296.945l.263-.291c-.064.685-.043.746.273 1.277 0 0-.084-.812.01-.915l.695.72-.388-1.022c0 0 .432.649.692.588l-.547-.833.537.434-.608-.909.567.168c0 0-.414-.516-.381-.838l.391.424c0 0-.148-.485-.105-.628l.199.041-.391-.444.263-.056-.031-.291.191-.061-.01-.322-.749-.235"/><g clip-path="url(#4)"><path d="m78.83 76.49c-.365-.511-.393-.582-.324-1.282l-.217.317c-.092-.552.199-.915.248-.976l.01-.01c.033.046-.301.419-.253.966l.217-.312c-.018.705.008.761.317 1.283-.066-.118-.13-.813-.033-.92l.736.72-.434-.991c.166.148.503.613.71.552l-.562-.792.577.398-.651-.874.585.128c-.089-.051-.429-.511-.399-.817l.416.393c-.066-.092-.171-.47-.133-.603l.233.02-.416-.398.278-.097-.054-.261.21-.092-.028-.296.064.322-.21.087.051.266-.286.082.406.398-.225.005c-.003.092.097.46.138.593l-.439-.398c.018.296.419.802.421.807l-.595-.128.639.869-.577-.399.588.797c-.314.107-.72-.531-.738-.557l.437.996-.741-.69c-.025.067.003.583.034.894m.018-.889c.123-.332.158-.772.191-1.237.049-.613.102-1.313.49-1.839l.043.036c-.378.511-.429 1.2-.478 1.809-.034.47-.068.915-.246 1.231m-.624-.705c.028-.352.537-.879.56-.899l-.588.317c.033-.629.644-.869.662-.874h.008c.005.056-.582.276-.654.853l.58-.307c.026.051-.49.582-.56.894l.299-.322-.307.338m.245-1.359l.455-.409-.202-.01.391-.817.051.026-.409.782.192.015-.465.404.365-.087-.378.096"/></g><path clip-path="url(#4)" fill-rule="evenodd" fill="#e6b32d" d="m75.829 88.63c0-.097-.24-.056-.24-.169 0-.128.363-.036.414.077.202-.184.291-.046.416.005.176-.266.396-.25.611-.061.123-.138.434-.092.539.061.207-.204.388-.153.532-.005.056-.107.143-.087.199-.01.11-.189.383-.133.501-.005.1-.112.205-.02.342.061.092-.087.24-.071.24.015s-.192.056-.192.143c0 .082.14.041.14.143 0 .077-.21.102-.243-.02-.071.133-.33.082-.355-.041-.082.102-.273.133-.383-.02-.087.071-.192.082-.243.01-.159.174-.427.133-.521-.051h-.089c-.156.215-.404.117-.467 0-.263.189-.419.128-.57.005-.166.204-.421.194-.483 0-.112.082-.352.102-.352.005 0-.092.204-.061.204-.143m.509.046c0 .046-.061.077-.133.077-.077 0-.136-.031-.136-.077 0-.046.059-.082.136-.082.072 0 .133.036.133.082m.562-.066c0 .051-.072.092-.163.092-.087 0-.159-.041-.159-.092 0-.056.072-.097.159-.097.091 0 .163.041.163.097m1.101.061c0 .051-.066.092-.146.092-.079 0-.145-.041-.145-.092 0-.056.066-.097.145-.097.08 0 .146.041.146.097m-.588-.026c0 .066-.061.123-.14.123-.079 0-.146-.056-.146-.123 0-.066.066-.128.146-.128.079.001.14.062.14.128m1.252 0c0 .061-.056.112-.125.112-.074 0-.128-.051-.128-.112 0-.056.054-.107.128-.107.069 0 .125.051.125.107m-.383.026c0 .041-.036.072-.082.072-.043 0-.082-.031-.082-.072 0-.036.038-.071.082-.071.046 0 .082.035.082.071m.748.031c0 .056-.043.102-.092.102-.051 0-.095-.046-.095-.102s.043-.102.095-.102c.049 0 .092.045.092.102"/><g clip-path="url(#4)"><path d="m77.861 88.95c-.118 0-.222-.056-.281-.153.238.128.386.128.509-.005l.023-.02.263.015c.043.061.105.092.174.092l.036-.041.179-.02c.01.056.087.097.168.097-.135.031-.209-.015-.222-.087 0 .148-.276.138-.378-.005l-.222-.01.02.02c-.073.076-.167.117-.269.117m-1.677-.005c-.11 0-.202-.066-.235-.169-.018.061-.117.087-.204.087l-.008-.077c.112.01.179-.01.222-.041.14.194.342.174.48.005.271.148.365.138.575-.015.11.102.271.266.46.015.026.01.051.02.074.036-.337.307-.485.097-.542-.015-.179.21-.439.123-.564.015-.04.098-.148.159-.258.159m-.454-.225l-.008-.051c-.079-.107-.161-.133-.161-.21.243-.087.429-.02.465.066.033-.077.1-.112.166-.112l.227.128-.026-.015c.174-.261.414-.281.654-.066.033-.133.432-.097.544.066.105-.199.347-.194.529-.01.391-.168.526-.168.677-.036-.227-.041-.363-.133-.475.061l-.015.036-.227-.021c-.159-.163-.322-.163-.491.005-.166-.138-.435-.174-.539-.061-.296-.184-.45-.179-.608.056l-.25-.087c-.054 0-.107.031-.171.087-.069-.066-.222-.133-.332-.133l.166.204-.125.093"/></g><path clip-path="url(#4)" fill-rule="evenodd" fill="#e6b32d" d="m82.45 80.17l.78-1.67-.34-.07-1.42 2.77z"/><g clip-path="url(#4)"><path d="m81.36 81.36l1.505-2.948.368.056-.759 1.712-1.114 1.18m1.525-2.908l-1.305 2.59.848-.894.774-1.666-.317-.03"/></g><path clip-path="url(#4)" fill-rule="evenodd" fill="#fff" d="m84.25 76.54l-.86 2.354h-.446z"/><g clip-path="url(#4)"><path d="m83.4 78.925h-.46l1.28-2.396-.82 2.396m.818-2.392l-1.254 2.376.399-.041.855-2.335"/></g><path clip-path="url(#4)" fill-rule="evenodd" fill="#e6b32d" d="m81.64 78l-.43-.005-.79 3.315.17 1.04z"/><g clip-path="url(#4)"><path d="m80.59 82.49l-.189-1.18.787-3.326.457-.01-1.055 4.516m1.027-4.496l-.404.025-.759 3.291.146.899 1.017-4.215"/></g><path clip-path="url(#4)" fill-rule="evenodd" fill="#e6b32d" d="m81.28 81.42l1.32-3.564-.5-.026-1.54 4.34z"/><g clip-path="url(#4)"><path d="m80.49 82.29l1.589-4.471.521.01-1.298 3.597-.812.864m2.082-4.441l-.47.005-1.474 4.205.628-.664 1.316-3.546"/></g><path clip-path="url(#4)" fill-rule="evenodd" fill="#fff" d="m83.22 75.833l-.55 2.477h-.44z"/><g clip-path="url(#4)"><path d="m82.69 78.33h-.462l.963-2.509-.501 2.509m.498-2.504l-.935 2.488.391-.036.544-2.452"/></g><path clip-path="url(#4)" fill-rule="evenodd" fill="#fff" d="m82.09 75.79l-.29 2.56-.32-.02z"/><g clip-path="url(#4)"><path d="m81.83 78.38l-.342-.026.583-2.565-.241 2.591m.24-2.586l-.552 2.539.261-.01.291-2.529"/></g><path clip-path="url(#4)" fill-rule="evenodd" fill="#233189" d="m82.35 80.42l3.526-3.847c1.101.874.894 2.473.894 2.473l-3.993 3.132-.427-1.758"/><g clip-path="url(#4)"><path d="m82.76 82.23l-.439-1.803 3.533-3.873c1.137.869.943 2.483.943 2.493l-4.04 3.183m3.099-5.635l-3.49 3.847.424 1.691 3.96-3.111c-.011 0 .179-1.574-.894-2.427"/></g><path clip-path="url(#4)" fill-rule="evenodd" fill="#c00024" d="m80.31 82.54l2.616-2.652c1.109.041.23 1.691.174 1.901l-2.79 2.381v-1.63"/><g clip-path="url(#4)"><path d="m80.28 84.23v-1.691l2.626-2.667c.253 0 .416.077.508.22.253.393-.069 1.16-.222 1.533l-.077.184-2.835 2.421m2.644-4.312l-2.595 2.642.008 1.548 2.744-2.345c0-.015.026-.077.061-.163.148-.358.465-1.109.23-1.477-.085-.129-.236-.2-.448-.205"/></g><path clip-path="url(#4)" fill-rule="evenodd" fill="#e6b32d" d="m80.53 82.09l5.408-5.8.212.15-5.73 6.36z"/><g clip-path="url(#4)"><path d="m80.38 82.89l.117-.807 5.416-5.804.245.143-5.778 6.468m5.536-6.57l-5.37 5.784-.087.613 5.664-6.29-.207-.107"/></g><path clip-path="url(#4)" fill-rule="evenodd" fill="#e6b32d" d="m86.25 75.925l.12-.135-.01-.28 1.11-.71-.497 1.125-.383.072-.11.133z"/><g clip-path="url(#4)"><path d="m86.46 76.15l-.25-.225.138-.153-.018-.261 1.129-.731-.46 1.155-.539.215m.986-1.359l-1.073.746.023.261-.125.148.202.148.097-.117.398-.082.478-1.104"/></g><path clip-path="url(#4)" fill-rule="evenodd" fill="#e6b32d" d="m86.82 76.33c-.192-.23-.416-.455-.82-.674l-.309.444.667.562.462-.332"/><g clip-path="url(#4)"><path d="m86.36 76.7l-.682-.572.301-.486c.45.215.68.45.869.675l-.488.383m-.368-1.017l-.273.439.644.511.447-.322c-.218-.214-.438-.423-.818-.628"/></g><path clip-path="url(#4)" fill-rule="evenodd" fill="#233189" d="m83.88 81.44l4.43-3.52c.761.777.128 3.158.128 3.158l-4.33 2.345-.228-1.983"/><g clip-path="url(#4)"><path d="m84.09 83.47l-.23-2.023 4.437-3.541c.8.777.197 3.086.174 3.183l-4.381 2.381m4.207-5.523l-4.394 3.52.233 1.916 4.294-2.325c-.007-.01.606-2.36-.133-3.111"/></g><path clip-path="url(#4)" fill-rule="evenodd" fill="#c00024" d="m80.21 84.29l3.646-2.923c1.244.179.268 2.01.191 2.207l-3.847 2.09.01-1.374"/><g clip-path="url(#4)"><path d="m80.17 85.72l.013-1.42 3.653-2.943c.286.031.473.148.577.337.286.521-.138 1.451-.296 1.803l-.074.041c.182-.414.59-1.334.322-1.819-.095-.174-.268-.276-.516-.312l-3.623 2.912v1.308l2.902-1.574-2.958 1.667"/></g><path clip-path="url(#4)" fill-rule="evenodd" fill="#e6b32d" d="m80.36 83.7l7.87-5.91.19.179-8.28 6.461z"/><g clip-path="url(#4)"><path d="m80.09 84.51l.238-.812 7.891-5.927.217.184-8.346 6.555m8.124-6.698l-7.843 5.917-.179.634 8.208-6.412-.186-.139"/></g><path clip-path="url(#4)" fill-rule="evenodd" fill="#e6b32d" d="m88.61 77.47l.14-.11.04-.28 1.23-.5-.69 1.02h-.39l-.14.12z"/><g clip-path="url(#4)"><path d="m88.77 77.73l-.204-.261.166-.133.026-.256 1.244-.531-.656 1.063-.576.118m1.219-1.175l-1.193.552-.02.266-.156.117.174.189.123-.102.406-.01.666-1.012"/></g><path clip-path="url(#4)" fill-rule="evenodd" fill="#e6b32d" d="m89.1 77.979c-.143-.261-.324-.521-.682-.807l-.386.388.554.669.514-.25"/><g clip-path="url(#4)"><path d="m88.58 78.27l-.567-.685.386-.424c.409.291.59.562.728.807l-.547.302m-.179-1.067l-.347.388.542.608.493-.24c-.149-.205-.323-.47-.688-.756"/></g><path clip-path="url(#4)" fill-rule="evenodd" fill="#233189" d="m84.2 83.59c.059-.015 5.707-3.219 5.707-3.219.414.695.041 1.701-.14 1.86-.01.46.189.71-.217 1.676-.12.628-.409 1.206-.833 1.548-.513 1.977-2.534 2.115-3.311.501l-1.206-2.366"/><g clip-path="url(#4)"><path d="m86.986 87.09c-.664 0-1.262-.419-1.602-1.119l-1.206-2.371c.105-.071 3.786-2.156 5.717-3.255.472.741.066 1.752-.108 1.906.008.092.018.199.028.301.033.312.066.639-.238 1.364-.125.659-.432 1.226-.841 1.558-.302 1.192-1.104 1.616-1.75 1.616m2.902-6.708c-.907.547-5.62 3.219-5.676 3.234l1.224 2.33c.33.68.909 1.088 1.551 1.088.626 0 1.402-.414 1.706-1.589.409-.332.71-.894.833-1.543.301-.72.268-1.037.235-1.344-.01-.107-.02-.21-.018-.332.17-.158.556-1.149.145-1.844"/></g><path clip-path="url(#4)" fill-rule="evenodd" fill="#c00024" d="m80.46 85.71l3.87-2.269c1.242.174-.028 2.483-.102 2.688l-3.735 1.323-.033-1.742"/><g clip-path="url(#4)"><path d="m80.47 87.49l-.033-1.783 3.881-2.294c.243.031.404.133.493.302.314.582-.266 1.809-.486 2.269l-.084.168-3.771 1.338m3.858-4.03l-3.85 2.269.046 1.681 3.699-1.313c.268-.593.841-1.804.539-2.361-.082-.154-.227-.246-.434-.276"/></g><path clip-path="url(#4)" fill-rule="evenodd" fill="#e6b32d" d="m81.11 84.89l8.74-4.65.15.2-9.22 5.14z"/><g clip-path="url(#4)"><path d="m80.72 85.64l.368-.766 8.752-4.665.187.215-9.307 5.216m9.113-5.39l-8.706 4.66-.281.598 9.148-5.089-.161-.169"/></g><path clip-path="url(#4)" fill-rule="evenodd" fill="#e6b32d" d="m90.28 79.982l.15-.092.09-.26 1.29-.32-.85.9-.38-.05-.16.09z"/><g clip-path="url(#4)"><path d="m90.39 80.26l-.153-.291.176-.107.071-.245 1.316-.342-.822.95-.409-.046-.179.081m1.397-.976l-1.267.368-.069.251-.163.102.136.204.135-.082.401.051.827-.894"/></g><path clip-path="url(#4)" fill-rule="evenodd" fill="#e6b32d" d="m90.67 80.55c-.102-.271-.238-.562-.547-.894l-.442.322.439.746.55-.174"/><g clip-path="url(#4)"><path d="m90.11 80.75l-.45-.761.45-.358c.355.347.49.644.588.91l-.588.209m-.006-1.078l-.404.327.434.685.529-.163c-.111-.226-.244-.512-.559-.849"/></g><path clip-path="url(#4)" fill-rule="evenodd" fill="#233189" d="m87.42 77.31l-.181.322c-.112-.046-1.247-1.068-1.247-1.068l-.81-.026-.232-.261c.595-.639 1.155.092 1.155.092l1.315.941"/><g clip-path="url(#4)"><path fill="#233189" d="m87.25 77.66l-.023-.005c-.112-.046-1.137-.966-1.254-1.073l-.792-.02-.25-.266c.491-.639 1.178.036 1.196.056l1.308.935-.185.373m-1.78-1.619c-.176 0-.342.087-.501.255l.233.22.789.015c.447.393 1.093.971 1.234 1.058l.168-.291-1.305-.904c-.01-.011-.273-.353-.618-.353"/></g><path clip-path="url(#4)" fill-rule="evenodd" fill="#c00024" d="m86.77 77.85c-.043-.286-.58-.991-.654-1.017-.404.122-.779.352-1.186-.562.355.444 1.073-.01 1.073-.01l.309.261-.01.123.943.874-.475.331"/><g clip-path="url(#4)"><path fill="#c00024" d="m86.75 77.892l-.008-.041c-.036-.23-.388-.725-.557-.915.238.194.539.628.603.864l.439-.312-1.242-1.211c.005.031-.787.373-1.076.005.516.945.772.659 1.083.557 0 0 .054.01.089.025-.687.24-.871.102-1.178-.588.404.266 1.078-.041 1.083-.046l.345.261.93 1-.511.4"/></g><path clip-path="url(#4)" fill-rule="evenodd" fill="#233189" d="m89.53 78.965l-.049.332c-.105-.061-1.096-1.155-1.096-1.155l-.8-.148-.163-.25c.554-.654 1.147.21 1.147.21l.961 1.01"/><g clip-path="url(#4)"><path fill="#233189" d="m89.51 79.34l-.036-.021c-.105-.061-1-1.042-1.104-1.155l-.784-.138-.181-.266c.48-.664 1.172.153 1.196.184l.956 1.01-.047.39m-1.63-1.814c-.156 0-.299.082-.429.235l.163.22.782.138c.376.404.917.991 1.073 1.129l.038-.286-.95-.986c-.008-.005-.314-.45-.677-.45"/></g><path clip-path="url(#4)" fill-rule="evenodd" fill="#c00024" d="m88.9 79.55c.041-.301-.375-1.191-.447-1.226-.478.138-.892.358-1.068-.639.279.501 1.068.112 1.068.112l.263.301-.036.163.802 1.042-.582.247"/><g clip-path="url(#4)"><path fill="#c00024" d="m88.87 79.6l.008-.051c.028-.225-.207-.797-.347-1.063.194.261.404.771.404 1.027l.542-.23-.823-1.012.038-.174-.256-.276c.013.031-.851.276-1.073-.117.276 1.042.603.751.976.628.023 0 .046.01.069.031-.733.25-.912.102-1.047-.669.324.327 1.078.087 1.083.082l.307.317-.041.179.8 1.017-.64.311"/></g><path clip-path="url(#4)" fill-rule="evenodd" fill="#233189" d="m91.02 81.6l-.181.358c-.094-.071-.927-1.41-.927-1.41l-.766-.255-.143-.312c.613-.572 1.078.414 1.078.414l.939 1.205"/><g clip-path="url(#4)"><path fill="#233189" d="m90.85 82l-.026-.02c-.097-.071-.848-1.282-.935-1.42l-.751-.24-.161-.327c.569-.634 1.111.358 1.129.393l.938 1.196-.194.418m-1.461-2.171c-.123 0-.245.061-.368.174l.151.281.751.24c.319.506.787 1.236.91 1.39l.163-.327-.938-1.175c-.005-.011-.278-.583-.669-.583"/></g><path clip-path="url(#4)" fill-rule="evenodd" fill="#c00024" d="m90.2 82.11c.061-.312-.148-1.298-.217-1.339-.48.138-.882.179-.991-.813.278.47 1.024.291 1.024.291l.217.337-.043.117.633 1.221-.623.186"/><g clip-path="url(#4)"><path fill="#c00024" d="m90.16 82.15l.01-.046c.061-.312-.156-1.257-.207-1.308-.11.041-.253.077-.386.077-.358 0-.546-.276-.616-.904.36.419 1.042.261 1.042.261l.248.347.593 1.339-.684.234m-.187-1.406c.112.066.291.991.258 1.328l.58-.174-.82-1.62c-.025.036-.751.163-1.027-.301.21 1.171.649.869 1.01.767"/></g><path clip-path="url(#4)" fill-rule="evenodd" fill="#e6b32d" d="m81.18 87.03l2.17-.68.96-1.62 3.35-.16-.11 1.21-2.87.55-.27.49-3.29.91z"/><g clip-path="url(#4)"><path d="m81.09 87.77l.059-.741 2.192-.7.938-1.609 3.377-.179-.087 1.247-2.882.572-.253.47-3.344.94m6.54-3.204l-3.326.194-.93 1.604-2.189.69-.033.644 3.252-.904.256-.48 2.877-.557.093-1.191"/></g><path clip-path="url(#4)" fill-rule="evenodd" fill="#4d3509" d="m83.45 87.48l3.44-5.06.17.13-3.41 5.08z"/><g clip-path="url(#4)"><path d="m83.65 87.67l-.22-.168 3.431-5.089.207.123-3.418 5.134m3.219-5.221l-3.4 5.05.164.097 3.395-5.05-.159-.092"/></g><path clip-path="url(#4)" fill-rule="evenodd" fill="#fff" d="m86.57 82.62l.37-.613c.066-.117.174-.153.324-.071.148.077.133.235.072.347l-.335.572-.431-.235"/><g clip-path="url(#4)"><path d="m87.01 82.89l-.455-.245.358-.654c.051-.087.12-.128.202-.128.225.082.263.128.281.189.023.072.008.159-.036.24l-.35.598m.105-.97l-.524.71.396.189.324-.552c.038-.071.048-.143.033-.199l-.229-.148"/></g><path clip-path="url(#4)" fill-rule="evenodd" fill="#e6b32d" d="m83.04 84.36l6.94-.71.17 1.01-6.91.69z"/><g clip-path="url(#4)"><path d="m83.22 85.38l-.207-1.022 6.961-.736.197 1.032-6.951.726m6.729-1.727l-6.905.731.22.94 6.877-.695-.192-.976"/></g><path clip-path="url(#4)" fill-rule="evenodd" fill="#e6b32d" d="m90.1 83.39l.18 1.41h-.29l-.2-1.29z"/><g clip-path="url(#4)"><path d="m90.31 84.82h-.32l-.23-1.3.33-.16.22 1.46"/></g><path clip-path="url(#4)" fill-rule="evenodd" fill="#e6b32d" d="m88.94 83.62l.08 1.26-.18.02-.14-1.12z"/><g clip-path="url(#4)"><path d="m88.82 84.928l-.15-1.138.26-.19.12 1.3-.23.028"/></g><path clip-path="url(#4)" fill-rule="evenodd" fill="#e6b32d" d="m84.25 84.16l.16 1.18-.33-.01-.137-1.17z"/><g clip-path="url(#4)"><path d="m84.45 85.37l-.37-.01-.165-1.19.335-.03.2 1.23"/></g><path clip-path="url(#4)" fill-rule="evenodd" fill="#e6b32d" d="m83.21 84.2l.243 1.364-.386.056-.107-.72c-.033.143-.163.255-.322.255-.181 0-.33-.143-.33-.322 0-.174.148-.312.33-.312.125 0 .238.072.289.21l-.072-.511.355-.02"/><g clip-path="url(#4)"><path d="m83.05 85.65l-.112-.746c.041.353-.651.286-.651-.071 0-.322.549-.45.672-.112l-.125-.496.381-.056.271 1.39-.436.091m-.112-.756l.159.695.358-.051-.266-1.339-.324.046.097.48c-.235-.25-.618-.164-.618.108-.004.296.525.358.594.061"/></g><path clip-path="url(#4)" fill-rule="evenodd" fill="#e6b32d" d="m85.72 84.42l.95 1.07-.11.13-1.23-.84z"/><g clip-path="url(#4)"><path d="m86.56 85.66l-1.247-.853.378-.409 1.01 1.093-.14.169m-.868-1.227l-.342.373 1.201.782.092-.112-.951-1.043"/></g><path clip-path="url(#4)" fill-rule="evenodd" fill="#e6b32d" d="m87.94 87.09l-.959-1.07.109-.13 1.22.84z"/><g clip-path="url(#4)"><path d="m87.93 87.13l-.986-1.109.128-.148 1.262.828-.404.429m-.853-1.221l.861 1.144.36-.347-1.221-.797"/></g><path clip-path="url(#4)" fill-rule="evenodd" fill="#e6b32d" d="m85.44 86.82l1.16-.9.12.09-.92 1.16z"/><g clip-path="url(#4)"><path d="m85.81 87.21l-.386-.368 1.163-.94.158.123-.935 1.185m.891-1.216l-1.244.848.347.286.897-1.134"/></g><path clip-path="url(#4)" fill-rule="evenodd" fill="#e6b32d" d="m88.3 84.75l-1.18.87-.139-.1.919-1.16z"/><g clip-path="url(#4)"><path d="m87.12 85.65l-.158-.117.917-1.196.437.393-1.196.92m.761-1.277l-.881 1.155.12.092-.018-.026 1.178-.863-.399-.358"/></g><path clip-path="url(#4)" fill-rule="evenodd" fill="#e6b32d" d="m87.02 84.04l-.11 1.41-.16-.01-.37-1.37z"/><g clip-path="url(#4)"><path d="m86.93 85.47l-.186-.005-.399-1.395.669-.061-.084 1.461m.059-1.436l-.613.061.399 1.333.105.01.109-1.404"/></g><path clip-path="url(#4)" fill-rule="evenodd" fill="#e6b32d" d="m86.63 87.46l.11-1.41.18-.01.21 1.42z"/><g clip-path="url(#4)"><path d="m87.17 87.49h-.531l.087-1.467.197-.015.247 1.482m-.274-1.451l-.232 1.425.439-.025-.207-1.4"/></g><path clip-path="url(#4)" fill-rule="evenodd" fill="#e6b32d" d="m85.07 85.56l1.48.16.02.14-1.49.19z"/><g clip-path="url(#4)"><path d="m85.05 86.08l-.008-.521 1.515.158.018.169-1.525.194m.018-.496l.036.434 1.464-.189-1.5-.245"/></g><path clip-path="url(#4)" fill-rule="evenodd" fill="#e6b32d" d="m88.59 86.05l-1.44-.23-.03-.11 1.49-.17z"/><g clip-path="url(#4)"><path d="m88.62 86.08l-1.48-.23.26-.06 1.16.23.02-.48-.22.03.25-.05.01.56"/></g><path clip-path="url(#4)" fill-rule="evenodd" fill="#e6b32d" d="m86.44 85.72c0 .21.179.378.396.378.212 0 .391-.168.391-.378 0-.204-.179-.378-.391-.378-.217 0-.396.174-.396.378"/><g clip-path="url(#4)"><path d="m86.83 86.13c-.235 0-.421-.184-.421-.409.003-.444.838-.45.838 0-.001.225-.185.409-.417.409m0-.757c-.202 0-.368.153-.368.347 0 .388.731.388.731 0 0-.193-.161-.347-.363-.347"/></g><path clip-path="url(#4)" fill-rule="evenodd" fill="#e6b32d" d="m84.75 85.72c0 1.109.93 2.01 2.082 2.01 1.147 0 2.077-.899 2.077-2.01 0-1.109-.93-2.01-2.077-2.01-1.152 0-2.082.899-2.082 2.01m.416 0c0 .884.746 1.604 1.666 1.604.915 0 1.661-.72 1.661-1.604 0-.889-.746-1.604-1.661-1.604-.92-.001-1.666.715-1.666 1.604"/><g clip-path="url(#4)"><path d="m86.83 87.75c-1.165 0-2.107-.91-2.107-2.034 0-1.119.943-2.033 2.107-2.033 1.16 0 2.105.915 2.105 2.033 0 1.124-.945 2.034-2.105 2.034m0-4.01c-1.134 0-2.054.889-2.054 1.977 0 1.093.92 1.977 2.054 1.977 1.132 0 2.049-.884 2.049-1.977 0-1.087-.917-1.977-2.049-1.977m0 3.613c-.935 0-1.691-.736-1.691-1.635 0-.899.756-1.635 1.691-1.635.933 0 1.689.736 1.689 1.635 0 .899-.756 1.635-1.689 1.635m0-3.214c-.904 0-1.637.71-1.637 1.579s.733 1.579 1.637 1.579c.902 0 1.635-.71 1.635-1.579s-.733-1.579-1.635-1.579"/></g><path clip-path="url(#4)" fill-rule="evenodd" fill="#e6b32d" d="m81.13 83.74l-.36 1.81.29.16.32-1.95z"/><g clip-path="url(#4)"><path d="m81.08 85.75l-.324-.174.342-1.845.279.005-.297 2.01m.266-1.987h-.222l-.33 1.798.243.107.309-1.905"/></g><path clip-path="url(#4)" fill-rule="evenodd" fill="#fff" d="m81.31 83.5c.168-.066.381.051.733-.399.577.537.031.613-.056 1.14-.161.066-.263-.404-.708-.455-.056-.005-.71-.061-.71-.061l.163-.225c.001 0 .456.01.578 0"/><g clip-path="url(#4)"><path d="m81.961 84.28c-.069 0-.125-.066-.194-.148-.102-.123-.243-.291-.488-.317l-.708-.061.143-.266.738-.036c.14-.02.319-.041.572-.363.437.363.324.532.181.751-.074.107-.158.235-.187.409l-.057.031m-1.224-.751l-.143.21.692.026c.266.025.414.199.521.332.059.066.11.128.153.128v.026l.02-.031c.015-.169.102-.296.176-.414.141-.204.23-.342-.13-.674-.227.337-.416.358-.569.373l-.286.031-.434-.007"/></g><path clip-path="url(#4)" fill-rule="evenodd" fill="#fff" d="m81.08 83.86l.069-.547c.069-.189.307-.025.307.087l-.061.496-.315-.036"/><g clip-path="url(#4)"><path d="m81.41 83.937l-.342-.051.046-.567c.048-.025.094-.041.135-.046l-.151.593.266.01.059-.475c0-.041-.061-.107-.125-.133h.003c.117 0 .176.077.176.138l-.067.531"/></g><g fill-rule="evenodd"><g fill="#e6b32d"><path clip-path="url(#4)" d="m85.11 88.34c0 .082.046.153.117.194.069.041.156.041.227 0 .069-.041.112-.112.112-.194 0-.077-.043-.148-.112-.189-.072-.041-.159-.041-.227 0-.071.041-.117.112-.117.189"/><path clip-path="url(#4)" d="m85.7 87.93c0 .077.043.148.115.189.069.036.156.036.227 0 .069-.041.112-.112.112-.189 0-.082-.043-.153-.112-.194-.071-.041-.158-.041-.227 0-.072.041-.115.113-.115.194"/><path clip-path="url(#4)" d="m86.48 88.2c0 .077.041.148.112.189.074.036.161.036.23 0 .072-.041.115-.112.115-.189 0-.082-.043-.153-.115-.194-.069-.036-.156-.036-.23 0-.072.041-.112.112-.112.194"/><path clip-path="url(#4)" d="m87.7 88.46c0 .077.043.153.112.189.071.041.159.041.233 0 .069-.036.112-.112.112-.189 0-.082-.043-.153-.112-.194-.074-.036-.161-.036-.233 0-.069.041-.112.113-.112.194"/><path clip-path="url(#4)" d="m88.21 88.53c0 .077.043.153.112.189.071.041.158.041.227 0 .074-.036.117-.112.117-.189 0-.082-.043-.153-.117-.194-.069-.036-.156-.036-.227 0-.068.041-.112.112-.112.194"/><path clip-path="url(#4)" d="m88.72 88.53c0 .077.043.153.112.189.072.041.159.041.227 0 .072-.036.115-.112.115-.189 0-.082-.043-.153-.115-.194-.069-.036-.156-.036-.227 0-.069.041-.112.112-.112.194"/><path clip-path="url(#4)" d="m89.23 88.51c0 .077.044.148.112.189.072.041.159.041.227 0 .072-.041.115-.112.115-.189 0-.082-.043-.153-.115-.189-.069-.041-.156-.041-.227 0-.068.035-.112.107-.112.189"/><path clip-path="url(#4)" d="m88.981 88.12c0 .071.043.148.112.184.072.041.159.041.227 0 .072-.036.118-.112.118-.184 0-.082-.046-.153-.118-.194-.069-.041-.156-.041-.227 0-.069.041-.112.112-.112.194"/><path clip-path="url(#4)" d="m88.48 88.14c0 .077.043.153.118.189.069.041.156.041.227 0 .069-.036.112-.112.112-.189 0-.082-.043-.153-.112-.194-.072-.041-.159-.041-.227 0-.074.04-.118.112-.118.194"/><path clip-path="url(#4)" d="m88.01 88.08c0 .076.043.153.112.189.072.041.159.041.23 0 .069-.036.112-.112.112-.189 0-.077-.043-.148-.112-.189-.071-.041-.158-.041-.23 0-.069.04-.112.112-.112.189"/><path clip-path="url(#4)" d="m88.25 87.7c0 .077.044.148.112.189.072.041.159.041.227 0 .072-.041.115-.112.115-.189 0-.077-.043-.148-.115-.189-.069-.041-.156-.041-.227 0-.068.041-.112.113-.112.189"/><path clip-path="url(#4)" d="m88.72 87.69c0 .082.043.153.112.194.072.041.159.041.227 0 .072-.041.115-.112.115-.194 0-.077-.043-.148-.115-.189-.069-.036-.156-.036-.227 0-.069.041-.112.112-.112.189"/></g><path clip-path="url(#4)" fill="#fff" d="m84.8 86.89c.197-.082.191.363.191.363l-.307.005c-.135.061-.243.261-.161.358.074.077.674-.138.715-.015-.107.598-.899.828-1.188.567-.278-.256-.352-.935.56-1.119l.19-.159"/></g><g clip-path="url(#4)"><path d="m84.39 88.3c-.143 0-.266-.036-.347-.112-.136-.123-.245-.368-.174-.623.077-.271.342-.46.746-.542l.199-.163.105.01c.11.077.11.353.11.383l-.335.031c-.066.036-.138.123-.156.204.041.128.212.102.317.082.21-.036.388-.066.419.02-.051.312-.271.552-.59.659-.1.036-.2.051-.294.051m.22-1.221c-.381.082-.618.261-.687.501-.066.235.036.46.156.572.128.108.355.123.588.046.299-.102.506-.327.554-.603-.013-.031-.233.01-.355.031-.194.036-.307.051-.35.005-.01-.255.074-.358.166-.398h.051l-.123-.154m4.578-.378l-.02-.051 1.906-.828-1.886.879"/></g><path clip-path="url(#4)" fill-rule="evenodd" fill="#c00024" d="m92.22 84.938c0 0 .695-.01.817.041.051.015-.174.25-.125.342.174.332 1.351.286 1.446.215.161-.123-1.098-.235-1.106-.322-.013-.097.184-.347.156-.506-.041-.204-.552-.281-.552-.281l-.636.511"/><g clip-path="url(#4)"><path fill="#c00024" d="m93.89 85.61c-.202 0-.866-.02-1-.281-.033-.061.028-.164.082-.25 0-.102-.238-.118-.588-.118l.018-.02c.324-.031.575-.02.649.01-.071.22-.13.317-.11.353.156.307 1.339.256 1.405.21-.023-.046-.388-.112-.608-.148-.404-.071-.506-.097-.511-.148-.005-.046.028-.123.066-.204.049-.102.105-.22.089-.302-.028-.153-.391-.235-.526-.255l-.166.133.151-.184c.077 0 .554.077.595.296.018.097-.038.225-.092.337-.033.066-.066.138-.064.174.026.021.271.061.465.097.442.077.639.122.656.189-.073.095-.31.111-.507.111"/></g><path clip-path="url(#4)" fill-rule="evenodd" fill="#4d3509" d="m91.29 85.57l1.574-1.303c0 0 .069-.072.128-.01.056.061-.023.133-.023.133l-1.62 1.339-.059-.159"/><g clip-path="url(#4)"><path d="m91.34 85.78l-.071-.199 1.581-1.333.194.066-1.704 1.466m1.615-1.41l-1.643 1.221.031.112 1.612-1.333"/></g><path clip-path="url(#4)" fill-rule="evenodd" fill="#e6b32d" d="m89.78 86.85c.026-.031 1.28-1.119 1.28-1.119l.084-.312c0 0 .192.128.263.199.069.066.181.25.181.25l-.35.015-1.109 1.017-.349-.05"/><g clip-path="url(#4)"><path d="m90.14 86.94l-.365-.056c.01-.077 1.267-1.16 1.267-1.16l.074-.307c.059-.015.238.117.309.189.074.071.182.25.187.261l-.373.056-1.099 1.017m.986-1.492l-.038.302c-.01.015-1.254 1.088-1.29 1.124l.322.01 1.101-1.012.345-.02c-.041-.025-.123-.153-.179-.209-.069-.062-.261-.195-.261-.195"/></g><path clip-path="url(#4)" fill-rule="evenodd" fill="#e6b32d" d="m82.8 85.36l-.008.506c.166.056.14.179.138.358l-.008 1.471c.056.097.238.107.324.179.084.077.074.225-.314.322l-.301.015c-.457-.102-.552-.256-.322-.337.12-.051.284-.102.345-.174l-.01-.353-.296.01c-.082 0-.233-.199-.24-.363v-.761c.01-.434.332-.48.424-.475l-.005-.399h.273m-.504.844c-.005-.123.169-.235.243-.24.072 0 .227.148.23.271v.307c-.01.117-.1.496-.281.526-.087.015-.197-.123-.197-.235l.005-.629"/><g clip-path="url(#4)"><path d="m82.64 88.23h-.005c-.294-.066-.46-.153-.465-.25v-.02l.14-.122c.148-.056.281-.102.33-.163l-.015-.332-.268.041c-.107 0-.261-.23-.268-.393v-.761c.01-.398.279-.506.439-.506l-.018-.368.299-.025.018.531c.148.031.145.148.14.301l-.01 1.528c.025.031.092.056.161.082l.204.215c-.018.071-.094.164-.373.235l-.309.007m.01-.915l.041.378c-.066.087-.202.138-.319.179-.143.153-.031.235.271.302l.296-.01c.271-.072.322-.159.33-.189l-.169-.153c-.077-.026-.156-.051-.191-.117l.003-1.487c.008-.204.01-.286-.12-.332l-.01-.532-.245.026.031.373c-.077.025-.411.041-.421.475v.761c.005.153.156.337.212.337l.291-.011m-.15-.23c-.115 0-.225-.138-.225-.261l.003-.628c-.005-.143.189-.261.268-.266h.003c.097 0 .253.163.258.296v.307c-.009.087-.093.521-.307.552m.051-1.098c-.064.005-.22.107-.22.21l-.003.628c0 .097.095.21.159.21.156-.026.253-.368.266-.501v-.307c-.006-.108-.149-.24-.202-.24"/></g><path clip-path="url(#4)" fill-rule="evenodd" fill="#2c6c1e" d="m80.01 71.34c2.394-2.396 4.279-1.231 4.729-.899-.299.056-.562-.128-.703-.148.087.112.268.378.268.378s-.738-.348-.822-.312c.105.082.225.286.225.286-.054.02-.47-.327-.554-.332.128.143.166.47.166.47l-.36-.168c-.094.066.023.194-.056.189-.6-.046-1.443.547-1.556.731l-1.337-.195"/><g clip-path="url(#4)"><path d="m81.37 71.55c.074-.225.961-.833 1.535-.771l.008-.005-.01.056c-.604-.047-1.431.551-1.533.72m-1.339-.194l-.038-.041c2.355-2.355 4.238-1.277 4.762-.894-.227.087-.419.01-.567-.046-.043.01.14.281.14.281-.01 0-.013-.005-.023-.005-.002 0-.01 0-.018-.005-.373-.128-.708-.271-.797-.261.117.036.235.235.24.245-.046.051-.112.015-.317-.128-.097-.066-.23-.158-.263-.163.156.102.194.429.197.439l-.393-.133.015-.056.345.163c-.033-.051-.079-.307-.181-.419.064-.046.161.021.314.123.069.051.163.117.217.148-.046-.046-.128-.169-.199-.225.089-.077.578.138.797.24-.071-.066-.184-.23-.248-.312l-.064-.082.258.097c.146.056.332.123.524.092-.522-.331-2.376-1.383-4.701.942"/></g><path clip-path="url(#4)" fill-rule="evenodd" fill="#2c6c1e" d="m80.61 71.78c.248-.572 4.803-1.538 5.722.077-.36.092-.703-.301-.703-.301l.028.358-.608-.465.22.48-.483-.388.013.388-.59-.644.076.378-.529-.23.061.317-3.207.03"/><g clip-path="url(#4)"><path d="m84.83 71.925l-.636-.623.123.347-.567-.194.1.286-.115-.302.565.194-.112-.347.636.623-.061-.373.529.368-.263-.445.649.429-.071-.337c0 .005.319.286.618.286.036 0 .069 0 .105-.015-.503-.812-1.977-.864-2.81-.822-1.397.071-2.751.495-2.879.787l-.051-.02c.151-.342 1.602-.751 2.928-.822.853-.041 2.343.015 2.844.894-.378.138-.733-.25-.746-.271l.077.342-.651-.444.261.45-.529-.358.056.367"/></g><path clip-path="url(#4)" fill-rule="evenodd" fill="#2c6c1e" d="m80.81 71.868c1.17-.782 2.976-.256 2.976-.256 1.152.644 1.768.532 1.916 1.727-.107-.041-.419-.419-.419-.419l-.235.465-.077-.659-.186.511-.281-.843-.064.572-.434-.572-.202.163-.189-.435-.171.286c0 0-.296-.184-.47-.077l-.325-.373-.079.266-.281-.327-.108.24-.284-.256.021.179-.968.015-.14-.207"/><g clip-path="url(#4)"><path d="m85.07 73.4l-.128-.674-.136.521-.332-.843-.01.562-.486-.557-.161.174-.233-.45-.12.286c.01.01-.207-.092-.36-.092-.043 0-.087.005-.12.031l-.363-.383-.031.261-.327-.322-.061.235-.064-.046.056.015.066-.23.324.322.031-.261.376.368c.145-.123.449.061.462.066l.133-.276.238.439.159-.179.472.582.018-.562.332.838.136-.511.13.669.181-.48c.133.102.373.378.457.409-.148-.843-.508-1.01-1.16-1.298-.228-.097-.488-.215-.782-.378-.013-.005-1.801-.516-2.948.25l-.031-.046c1.162-.777 2.981-.266 2.997-.255.301.164.559.281.784.378.649.291 1.042.465 1.155 1.374-.151-.02-.437-.363-.467-.404l-.187.467"/></g><path clip-path="url(#4)" fill-rule="evenodd" fill="#2c6c1e" d="m81.07 72c.815-.015 3.153.869 3.758 1.793-.243-.133-.391-.194-.391-.194l-.12.368-.143-.368-.033.286c-.087-.225-.189-.25-.358-.02l-.064-.342-.092.327-.156-.358c0 0-.1.393-.156.373 0 0-.258-.675-.373-.705l-.033.424-.156-.424-.14.317-.028-.45-.156.342c0 0-.084-.342-.204-.404l-.235.21-1.042-.746.122-.429"/><g clip-path="url(#4)"><path d="m84.35 73.979l-.197-.373.018.281c-.092-.097-.133-.148-.174-.153-.028.005-.11.046-.189.153l-.11-.358-.041.332-.207-.358c.031.077-.041.347-.105.383-.176-.337-.342-.685-.406-.695l.003.393-.21-.414-.089.317-.082-.46-.102.353c-.074-.092-.153-.342-.243-.388l-.204.204-1.075-.746 1.075.7.199-.204c.158.061.24.383.248.419l.105-.353.082.465.087-.327.207.424-.02-.414c.158.005.383.583.427.695 0-.031.061-.215.102-.368l.21.353.041-.327.115.347c.043-.138.115-.204.191-.184.064.01.117.071.166.194l-.02-.276.197.363.066-.368c.051-.02.191.046.432.179-.623-.863-2.933-1.737-3.75-1.737-.008 0-.013 0-.02 0v-.056c.008 0 .013 0 .02 0 .823 0 3.14.853 3.76 1.804-.276-.092-.424-.153-.424-.153l-.083.353"/></g><path clip-path="url(#4)" fill-rule="evenodd" fill="#2c6c1e" d="m80.916 72.19c1.083.414 2.057 1.906 1.98 2.534-.48-.598-.376-.511-.593.174 0 0-.082-.603-.163-.674l-.14.45-.054-.583h-.146l.036-.363-.212.164c.051-.21.105-.276-.12-.46 0 0 .281.041.062-.47l-.21.199c0 0 .036-.225-.036-.307l-.769-.266.365-.398"/><g clip-path="url(#4)"><path d="m82.33 74.913c-.087-.235-.156-.618-.21-.664l-.095.435-.008-.031.008.021.087-.455c.128.066.202.577.217.685l.031-.296c.056-.199.082-.286.143-.302.117-.015.153.082.347.327.089-.506-.871-1.998-1.944-2.411l.018-.051c1.117.429 2.074 1.937 1.998 2.565-.258-.25-.363-.378-.404-.378h-.003c-.031.01-.061.122-.102.266l-.083.289m-.692-.991c.018-.255.031-.312-.153-.46.138-.123.166-.225.054-.486l-.164.21c-.038-.082-.025-.245-.079-.307l-.753-.261.784.215c.092.097.059.312.056.337l.161-.225c.14.23.158.378.097.465.092.174.069.266.025.424l.153-.122v.056l-.01-.041-.171.195"/></g><path clip-path="url(#4)" fill-rule="evenodd" fill="#2c6c1e" d="m80.81 72.31l.414.782-.212.061.472.353-.398-.041c0 0 .608.225.682.822l-.621-.276c0 0 .529.542.6.864l-.358-.317c0 0 .347.378.296.945l-.266-.291c.064.685.043.746-.273 1.277 0 0 .087-.812-.008-.915l-.695.72.386-1.022c0 0-.429.649-.69.588l.547-.833-.539.434.611-.909-.567.168c0 0 .409-.516.378-.838l-.391.424c0 0 .151-.485.107-.628l-.199.041.386-.444-.261-.056.033-.291-.191-.061.01-.322.747-.235"/><g clip-path="url(#4)"><path d="m81.17 76.5c-.018-.327.01-.843-.051-.91l-.654.72.314-.971c-.097.184-.406.588-.646.542l.532-.873-.498.475.57-.95-.537.21c-.025-.046.37-.552.345-.864l-.345.444c-.005-.163.092-.531.059-.639l-.166.056.36-.491-.245-.005.01-.327-.174-.031-.005-.353.043.327.174.036-.015.322.238.02-.37.495.171-.087c.077.163-.056.613-.071.659l.345-.45c.077.347-.322.853-.34.879l.539-.215-.58.95.498-.475-.506.873h.002c.182 0 .526-.444.641-.618v.005c.003.01-.008.041-.025.077l-.312.966.649-.751c.138.107.069.802.054.94.261-.537.284-.593.222-1.283l.312.276c0-.531-.335-.904-.337-.91l.003.005c.023-.01.048.015.089.061l.304.21c-.115-.286-.634-.817-.639-.822l.015.005c.005 0 .008.005.013.005l.626.219c-.112-.546-.7-.766-.705-.771h.008c.003-.005.018-.005.046 0l.358-.01-.49-.307.22-.107-.432-.741.051-.026.411.782-.227.097.48.307-.363.005c.159.041.595.286.659.792l-.623-.23c.13.082.537.526.603.817l-.309-.22c.115.133.284.444.245.858l-.309-.281c.105.67.089.746-.235 1.283m-.018-.93c-.225-.291-.258-.736-.296-1.206-.046-.608-.1-1.298-.478-1.809l.043-.036c.391.526.442 1.226.491 1.839.036.466.069.905.24 1.212"/></g><path clip-path="url(#4)" fill-rule="evenodd" fill="#e6b32d" d="m84.13 88.63c0-.097.235-.056.235-.169 0-.128-.36-.036-.409.077-.207-.184-.294-.046-.416.005-.176-.266-.399-.25-.611-.061-.123-.138-.434-.092-.544.061-.202-.204-.383-.153-.529-.005-.056-.107-.14-.087-.197-.01-.112-.189-.386-.133-.501-.005-.102-.112-.207-.02-.345.061-.089-.087-.238-.071-.238.015s.191.056.191.143c0 .082-.14.041-.14.143 0 .077.21.102.243-.02.071.133.33.082.355-.041.082.102.273.133.383-.02.087.071.192.082.243.01.158.174.427.133.521-.051h.089c.156.215.401.117.467 0 .263.189.419.128.567.005.166.204.424.194.485 0 .112.082.347.102.347.005.003-.092-.196-.061-.196-.143m-.511.046c0 .046.059.077.135.077.072 0 .133-.031.133-.077 0-.046-.061-.082-.133-.082-.076 0-.135.036-.135.082m-.559-.066c0 .051.071.092.158.092.092 0 .163-.041.163-.092 0-.056-.071-.097-.163-.097-.087 0-.158.041-.158.097m-1.104.061c0 .051.064.092.148.092.079 0 .143-.041.143-.092 0-.056-.064-.097-.143-.097-.084 0-.148.041-.148.097m.585-.026c0 .066.066.123.145.123.079 0 .14-.056.14-.123 0-.066-.061-.128-.14-.128-.079.001-.145.062-.145.128m-1.249 0c0 .061.056.112.128.112.069 0 .128-.051.128-.112 0-.056-.059-.107-.128-.107-.072 0-.128.051-.128.107m.386.026c0 .041.036.072.079.072.046 0 .082-.031.082-.072 0-.036-.036-.071-.082-.071-.044 0-.079.035-.079.071m-.751.031c0 .056.043.102.094.102.051 0 .094-.046.094-.102s-.043-.102-.094-.102c-.051 0-.094.045-.094.102"/><g clip-path="url(#4)"><path d="m80.74 88.98h-.028l-.112-.092.14-.143-.192-.143.143-.02.105.163-.143.143.087.061.107-.107.179.077c.082 0 .161-.041.171-.097l.215.061c.069 0 .13-.031.174-.092l.018-.025.266.031c.14.148.393.117.478-.041.031.01.061.02.087.036-.174.174-.447.22-.603.046l-.222-.031.02.02c-.102.143-.324.138-.427.015.031.082-.082.133-.176.133h-.021l-.161-.097c.033.061-.026.102-.105.102m3.035-.031c-.11 0-.217-.061-.299-.159-.054.108-.296.184-.565-.005.005.097-.238.296-.463.01.419.174.414.036.457-.046.284.133.383.159.572 0 .215.179.424.179.475.015.097.02.184.051.258.051l-.107-.184.148-.107-.005.056.11.194c-.23.092-.33.061-.391.02.009.089-.08.155-.19.155m-1.909-.276h-.217l.123-.097-.138-.031c-.13-.22-.355-.107-.455 0-.179-.051-.238-.01-.301.036l-.082-.01.038-.005c.087-.082.153-.123.22-.123.312-.025.529-.102.628.077.501-.184.537-.179.723.005.041-.153.419-.199.544-.056.156-.225.439-.199.613.061l.202-.112c.066 0 .133.036.21.102-.008-.077.169-.148.291-.148l-.005.082c-.138.005-.256.051-.279.097-.107-.046-.163-.077-.217-.077l-.248.087c-.158-.235-.355-.245-.57-.056-.197-.118-.444-.077-.539.056-.248-.153-.368-.168-.532 0l-.025.031-.064-.01.08.091"/></g><path clip-path="url(#4)" fill-rule="evenodd" fill="#e6b32d" d="m80.29 85.1c0 0 .365-3.066.365-4.389 0-1.037-.248-3.341-.248-3.341h-1.055c0 0-.161 2.294-.136 3.326.028 1.323.365 4.404.365 4.404h.709"/><g clip-path="url(#4)"><path d="m80.31 85.13h-.733c-.031-.056-.365-3.122-.393-4.425-.026-1.027.135-3.306.138-3.331l1.081-.026c.031.051.276 2.34.276 3.367 0 1.308-.363 4.358-.365 4.389l-.004.026m-.963-7.725c.025 0-.136 2.274-.11 3.296.031 1.303.363 4.368.365 4.399l.657-.025c.036-.286.365-3.117.365-4.358 0-1.022-.248-3.311-.25-3.336l-1.027.024"/></g><path clip-path="url(#4)" fill-rule="evenodd" fill="#e6b32d" d="m79.28 77.52h1.22l-.14-.82h-.88z"/><g clip-path="url(#4)"><path d="m80.54 77.55h-1.257l.169-.859.909-.02.179.879m-.205-.848l-.856.026-.168.802 1.162-.036-.138-.792"/></g><path clip-path="url(#4)" fill-rule="evenodd" fill="#e6b32d" d="m79.36 76.865h1.09l-.21-.825h-.66z"/><g clip-path="url(#4)"><path d="m80.49 76.891h-1.127l.187-.858.697-.02.243.878m-.271-.843l-.641.021-.186.802 1.027-.036-.2-.787"/></g><path clip-path="url(#4)" fill-rule="evenodd" fill="#e6b32d" d="m79.43 76.2h.91l-.15-.83h-.58z"/><g clip-path="url(#4)"><path d="m80.37 76.23h-.945l.151-.858.605-.02.189.878m-.214-.848l-.552.025-.151.797.851-.031-.148-.791"/></g><path clip-path="url(#4)" fill-rule="evenodd" fill="#e6b32d" d="m80.22 75.28h-.64l-.06.29h.75z"/><g clip-path="url(#4)"><path d="m80.51 83.25h-1.147l1.147-.056v.056m.062-.664h-1.206l1.206-.056v.056m.007-.664h-1.265l1.265-.056v.056m.051-.608h-1.372l1.372-.056v.056m0-.552h-1.433l1.433-.056v.056m-.007-.664h-1.433l1.433-.056v.056m-.049-.66h-1.385l1.385-.056v.056m-.064-.669h-1.252l1.252-.056v.056m-.061-.603h-1.129l1.129-.056v.056"/></g><path clip-path="url(#4)" fill-rule="evenodd" fill="#233189" d="m79.95 84.85c-.774 0-1.402.296-1.402.649 0 .061.018.117.048.179.171.194.713.337 1.359.337.603 0 1.116-.128 1.316-.301.051-.071.079-.138.079-.215 0-.353-.628-.649-1.4-.649"/><g clip-path="url(#4)"><path fill="#233189" d="m79.955 86.04c-.646 0-1.203-.138-1.385-.348l-.059-.199c0-.378.644-.685 1.438-.685.792 0 1.436.306 1.436.685 0 .082-.028.153-.084.235-.219.194-.745.312-1.346.312m-.005-1.16c-.741 0-1.369.281-1.369.613.401.664 2.256.547 2.667.189.046-.061.069-.122.069-.189 0-.332-.626-.613-1.367-.613"/></g><path clip-path="url(#4)" fill-rule="evenodd" fill="#e6b32d" d="m81.36 85.55v2.176c0 .256-.634.46-1.41.46-.779 0-1.408-.204-1.408-.46v-2.176c0 .25.628.465 1.408.465.777 0 1.41-.215 1.41-.465"/><g clip-path="url(#4)"><path d="m79.955 88.21c-.807 0-1.439-.22-1.439-.49v-2.176c.059.21.613.434 1.439.434.825 0 1.382-.225 1.382-.434.005.015.005.041.002.056l.056 2.12c.001.27-.633.49-1.44.49m-1.438-2.662l.059 2.171c0 .21.554.434 1.38.434.825 0 1.382-.225 1.382-.434v-2.11c-.051.24-.644.424-1.382.424-.798.001-1.424-.214-1.439-.485"/></g><path clip-path="url(#4)" fill-rule="evenodd" fill="#c00024" d="m78.55 85.55v.332l.682 2.11.547-1.62.598 1.681.442-1.589.549 1.068v-.588l-.511-1.042c-.056.02-.117.031-.184.046l-.319 1.175-.444-1.109c-.071-.005-.148-.005-.22-.01l-.444 1.119-.516-1.344c-.116-.071-.18-.147-.18-.229"/><g clip-path="url(#4)"><path fill="#c00024" d="m80.38 88.14l-.626-1.768-.495 1.625-.736-2.11v-.342c.054.087.146.158.222.204l.524 1.359.396-1.119.238-.01.478 1.129.268-1.175.204-.061.542 1.052.003.603-.603-1.052-.415 1.665m-1.85-2.535l.046.271.685 2.105.493-1.625.621 1.604.416-1.507.603 1.063-.051-.577-.511-1.027-.153.056-.296 1.155-.498-1.109-.197.01-.419 1.104-.565-1.349c-.089-.046-.148-.107-.174-.174"/></g><path clip-path="url(#4)" fill-rule="evenodd" fill="#233189" d="m81.36 87.31v.409c0 .256-.634.46-1.41.46-.779 0-1.408-.204-1.408-.46v-.409c0 .255.628.465 1.408.465.777 0 1.41-.21 1.41-.465"/><g clip-path="url(#4)"><path fill="#233189" d="m79.955 88.21c-.807 0-1.439-.22-1.439-.49v-.409c.059.21.613.434 1.439.434.825 0 1.382-.225 1.382-.434.002.01.002.015.002.025l.056.383c.001.271-.633.491-1.44.491m-1.43-.848l.051.358c0 .21.554.434 1.38.434.825 0 1.382-.225 1.382-.434v-.343c-.051.245-.644.424-1.382.424-.757.001-1.36-.189-1.431-.439"/></g><g fill="#e6b32d" fill-rule="evenodd"><path clip-path="url(#4)" d="m80.53 87.73c-.112.021-.235.031-.36.041v.404c.13-.01.253-.021.365-.036l-.005-.409"/><path clip-path="url(#4)" d="m79.04 87.66l-.006.409c.11.031.233.056.365.077v-.409c-.132-.015-.255-.041-.359-.077"/><path clip-path="url(#4)" d="m78.55 87.31v.409c0 .077.054.148.153.21l.008-.404c-.105-.067-.161-.133-.161-.215"/><path clip-path="url(#4)" d="m81.36 87.36h-.008c-.026.082-.117.158-.256.225v.404c.166-.077.263-.169.263-.266v-.363"/></g><g clip-path="url(#4)"><path d="m79.955 88.21c-.807 0-1.439-.22-1.439-.49v-2.161l.059 2.161c0 .21.554.434 1.38.434.508 0 .915-.087 1.152-.199l-.036-.373c.156-.092.238-.163.261-.235h.005v-1.788c0-.036.059-.036.059 0v2.161c-.002.072-.041.133-.112.189-.217.179-.723.301-1.329.301"/></g><path clip-path="url(#4)" fill-rule="evenodd" fill="#fff" d="m81.04 85.4c0 .153-.486.281-1.088.281-.603 0-1.091-.128-1.091-.281s.488-.281 1.091-.281c.602 0 1.088.128 1.088.281"/><g clip-path="url(#4)"><path fill="#fff" d="m79.955 85.7c-.547 0-1.114-.112-1.114-.301 0-.378 2.225-.398 2.225 0 .001.199-.572.301-1.111.301m0-.556c-.629 0-1.068.133-1.068.255s.439.261 1.068.261c.626 0 1.065-.138 1.065-.261s-.439-.255-1.065-.255"/></g><g fill-rule="evenodd"><g fill="#e6b32d"><path clip-path="url(#4)" d="m79.6 85.61l.046.383c.094.005.191.01.294.015l.071-.398h-.411"/><path clip-path="url(#4)" d="m80.86 85.52l-.281.077.018.363c.097-.015.189-.036.268-.056l-.005-.384"/><path clip-path="url(#4)" d="m79.2 84.928c-.082.025-.156.051-.225.082l.038.291.181-.056.006-.317"/><path clip-path="url(#4)" d="m79.95 84.81c-.038 0-.077 0-.112.005l.061.358h.187l.071-.358c-.066.001-.138-.005-.207-.005"/><path clip-path="url(#4)" d="m80.77 84.943l-.036.317.212.077.023-.312c-.059-.031-.128-.056-.199-.082"/><path clip-path="url(#4)" d="m78.77 85.8l.05-.4-.29-.15.01.45z"/><path clip-path="url(#4)" d="m81.36 85.71v-.39l-.26.08z"/></g><path clip-path="url(#4)" fill="#2c6c1e" d="m76.47 83.17c-.084-.153-.327-.266-.616-.266-.289 0-.537.112-.616.266-.018-.036-.028-.071-.028-.112 0-.21.286-.373.644-.373.355 0 .644.163.644.373 0 .041-.011.077-.028.112"/></g><g clip-path="url(#4)"><path fill="#fff" d="m76.44 83.18c-.158-.286-1.019-.286-1.167 0-.015-.051-.021-.097-.021-.138.136-.143.979-.24 1.214.051l-.003-.041c0-.342-1.07-.393-1.206-.072.094-.501 1.277-.337 1.277.072l-.043.071c.003.005.008.015.01.02l-.031.02-.003-.015-.008.005-.023-.01.023.01-.019.027"/></g><path clip-path="url(#4)" fill-rule="evenodd" fill="#2c6c1e" d="m76.41 83.63c0 .399-.256.726-.562.726-.312 0-.562-.327-.562-.726v-.393h1.124v.393"/><g clip-path="url(#4)"><path fill="#fff" d="m75.85 84.4c-.335 0-.605-.347-.605-.771v-.393l1.167-.046.043.439c0 .424-.271.771-.605.771m.516-1.164l-1.078.046.046.347c0 .373.233.68.516.68.284 0 .516-.307.516-.68v-.393"/></g><g fill-rule="evenodd"><path clip-path="url(#4)" fill="#fff" d="m76.41 83.1c0 .153-.25.276-.557.276s-.557-.123-.557-.276.25-.276.557-.276.557.123.557.276"/><path clip-path="url(#4)" fill="#2c6c1e" d="m75.72 83.42l-.09-1.02h.42l-.067 1.02z"/></g><g clip-path="url(#4)"><path fill="#e6b32d" d="m76.01 83.45h-.29l-.12-1.05.45-.03-.04 1.08"/></g><path clip-path="url(#4)" fill-rule="evenodd" fill="#2c6c1e" d="m76.47 83.12c-.079.153-.327.266-.616.266-.289 0-.531-.112-.616-.266-.018.036-.028.071-.028.112 0 .21.286.373.644.373.355 0 .644-.163.644-.373 0-.04-.011-.076-.028-.112"/><g clip-path="url(#4)"><path fill="#fff" d="m75.85 83.64c-.381 0-.68-.179-.68-.409.018 0 .038.005.059.01.166.424 1.106.363 1.219.056-.039.231-.292.343-.598.343m0-.219c-.22 0-.421-.066-.547-.163.36.077.999.097 1.129-.153.015.051.02.097.02.138-.063.075-.313.178-.602.178"/></g><path clip-path="url(#4)" fill-rule="evenodd" fill="#e6b32d" d="m75.42 85.22l1.12.12.18-1.01-1.33-.13z"/><g clip-path="url(#4)"><path d="m76.57 85.34l-1.16-.09.01-.05 1.13.11.14-.98-1.3-.1 1.33.08-.15 1.03"/></g><use xlink:href="#5"/><g clip-path="url(#4)"><use xlink:href="#6"/></g><path clip-path="url(#4)" fill-rule="evenodd" fill="#e6b32d" d="m84.22 83.09c.256-.036.636.317.657.751.02.342-.521.327-.521.327-.026.138-.324.271-.567.281-.233.01.064-.439.064-.439-.143-.388.049-.848.049-.848l.318-.072"/><g clip-path="url(#4)"><path d="m83.79 84.48c-.025-.026-.041-.051-.054-.077.348.025.567-.123.59-.24.031-.021.327-.015.46-.148.046-.439-.105-.659-.245-.777-.11-.087-.225-.128-.319-.122l-.317.071c.008.005-.156.414-.043.777l.777-.01-.376.066-.194-.036-.202.031c-.066.117-.143.271-.14.353-.041-.148.074-.332.1-.373-.148-.373.036-.822.046-.843l.34-.087c.11-.02.245.031.365.133.189.159.314.404.325.639.005.087-.021.158-.077.215-.148.153-.46.148-.473.143-.001.136-.312.274-.563.285"/></g><path clip-path="url(#4)" fill-rule="evenodd" fill="#c00024" d="m84.35 83.35c.212-.153.026-.455-.117-.46l-.337.011c-.159.005-.432.179-.396.327.033.128.12.189.258.163.061-.005.192-.174.258-.174.081 0 .265.184.334.133"/><g clip-path="url(#4)"><path fill="#e6b32d" d="m83.7 83.43c-.117 0-.194-.066-.227-.194.125-.266.299-.358.422-.363l.337-.005c.089 0 .189.097.227.22.036.112.003.22-.092.291-.089.01-.153-.025-.22-.066l-.447.117m.532-.506l-.337.005c-.105.005-.261.087-.332.179-.01.22.046.266.138.266v.03l.314-.21.306.138c.115-.071.102-.179.084-.235-.03-.091-.109-.173-.173-.173"/></g><path clip-path="url(#4)" fill-rule="evenodd" fill="#233189" d="m79.973 70.46c-.215-.097-.695-.404-.552-.588l.222-.373c.312-.7-.008-.429-.041-.649-.033-.21 1.191-.046 1.208.434.005.128-.089.051-.074.802l-.235.45c-.173.016-.38-.004-.528-.076"/><g clip-path="url(#4)"><path fill="#233189" d="m80.38 70.56c-.163 0-.312-.031-.424-.082-.138-.066-.539-.296-.588-.496l.248-.506c.194-.439.13-.47.064-.501l-.089-.189c.215-.256 1.229.036 1.244.486-.043.168-.084.281-.077.807l-.235.46-.143.021m-.554-1.777c-.117 0-.179.02-.194.041.181.153.238.22.033.679l-.222.378c.018.255.37.47.539.547.102.051.245.077.398.077v.031l.115-.031.212-.435c-.013-.521.031-.644.056-.715.006-.404-.613-.572-.937-.572"/></g><path clip-path="url(#4)" fill-rule="evenodd" fill="#e6b32d" d="m80.12 72.27l-.3-.25.079-2.195.301.086z"/><g clip-path="url(#4)"><path d="m80.15 72.33l-.347-.291.074-2.218.33.066-.057 2.443m-.253-2.478l-.051 2.166.253.199.074-2.31-.276-.055"/></g><path clip-path="url(#4)" fill-rule="evenodd" fill="#c00024" d="m80.52 70.52c.192-.108.314-.445.199-.644-.312-.399-.514-.23-1.042-.409-.102.112-.322.327-.276.486.692.327.424.046.651.087.126.025.205.173.468.48"/><g clip-path="url(#4)"><path fill="#c00024" d="m80.51 70.56l-.192-.23c-.13-.163-.194-.24-.276-.255l-.192.071c-.082 0-.225-.051-.467-.163-.059-.174.117-.368.235-.495.248.02.391.041.514.056.23.036.396.056.606.322.054.092.064.215.031.342-.038.148-.13.281-.238.342l-.021.01m-.455-.541c.1.02.166.102.307.276l.159.194c.089-.061.161-.174.194-.296.028-.112.023-.22-.023-.296-.194-.245-.342-.266-.567-.296-.125-.015-.273-.041-.46-.102-.107.138-.278.322-.24.45.21.092.355.143.427.143l.203-.073"/></g><path clip-path="url(#4)" fill-rule="evenodd" fill="#e6b32d" d="m68.978 87.66c-.192.026-.23.245-.156.444-.83.235-1.569.537-2.299.746-.028-.148.363-.572.363-.572.105.051.181.286.181.286.026-.485.506-.807.506-.807-.286-.036-1.152.301-1.257.434 0 0 .337-.036.388 0 0 0-.659.715-.692.925.105.23 1.242.404 1.242.404-.013.061-.332.286-.332.286.452.102 1.137-.22 1.339-.414 0 0-.531-.046-.948-.378 0 0 .087.21.036.307 0 0-.646-.184-.715-.296.003-.005 1.53-.404 2.271-.613.026.128.174.378.353.322.115-.041.079-.266.036-.429.041.036.094.056.156.056.131 0 .235-.097.235-.225 0-.128-.105-.23-.235-.23-.105 0-.191.066-.225.159-.03-.144-.107-.42-.247-.405m.582.475c0 .056-.051.108-.112.108-.061 0-.11-.051-.11-.108 0-.061.048-.107.11-.107.061 0 .112.046.112.107"/><g clip-path="url(#4)"><path d="m67.11 89.86c-.069 0-.133-.01-.189-.02.135-.153.299-.291.312-.322-.107 0-1.134-.148-1.242-.383.02-.148.281-.475.475-.705-.153.261-.403.577-.421.695.079.163.907.327 1.219.373.008.097-.222.266-.322.337l.168-.031c.414 0 .935-.245 1.129-.419-.082.031-.516-.036-.892-.312.041.061.069.184.031.266-.1-.01-.692-.179-.766-.291.008-.046.008-.046.69-.225.503-.138 1.178-.317 1.602-.435.054.123.166.327.304.327.117-.031.123-.179.061-.398.317.02.391-.066.391-.179.002-.199-.335-.25-.406-.066-.102-.235-.179-.378-.258-.378-.186.159-.186.281-.143.409-.447.153-.851.291-1.242.429-.365.123-.72.245-1.075.347-.066-.174.294-.572.335-.613.146.046.22.271.228.296-.026-.419.319-.715.432-.802-.049.107-.409.404-.432.813-.074-.056-.143-.23-.217-.266-.118.158-.345.444-.325.542.317-.123.672-.245 1.037-.368.391-.138.797-.276 1.226-.398-.072-.102-.066-.245-.01-.337l.168-.107h.003c.158 0 .235.23.276.424-.038-.25.46-.174.46.077 0 .143-.117.256-.263.256l-.174-.066c.095.158.125.388-.01.434-.005 0-.01 0-.013 0-.225 0-.35-.22-.373-.342-.388.138-1.063.322-1.569.455-.368.097-.644.174-.664.179.056.036.465.174.71.245.005-.061-.046-.22-.069-.271.005 0 .01.005.018.01.005 0 .013.005.02.01.437.276.933.322.938.322-.172.223-.723.488-1.158.488m-.784-1.64c.082-.184.871-.491 1.201-.491.005.005.005.005.005.01-.33.056-.945.296-1.137.429.051-.01.125-.015.191-.015-.002.01-.005.026-.01.041-.153.016-.25.026-.25.026"/></g><path clip-path="url(#4)" fill-rule="evenodd" fill="#e6b32d" d="m93.28 88.6c.056-.118-.051-.685-.051-.685-.115.015-.271.209-.271.209.148-.465-.268-1.247-.268-1.247.281.061 1.216.966 1.267 1.129 0 0-.409-.148-.475-.128.069.465.391.679.511.92 0 0-.531.118-.478.562l-.347.01c-.12-.148.046-.399.046-.399l-2.383-.996c-.156-.066-.503-.22-.45-.404.051-.189.623.071.759.123l2.14.906"/><g clip-path="url(#4)"><path d="m93.15 89.4l-.01-.01c-.13-.163.038-.414.046-.424l-2.373-.96c-.13-.056-.529-.22-.465-.439.054-.015.105-.026.153-.031-.13.158.013.286.335.419l2.383.996c.013.046-.133.261-.043.393l.335-.005c-.085-.434.467-.562.472-.562-.059-.036-.12-.112-.187-.194-.133-.169-.299-.378-.347-.695.153-.025.496.092.511.097-.087-.133-1-1.01-1.277-1.073.061.031.401.69.314 1.149.043-.071.14-.163.222-.168.043.082.141.603.082.72l-2.176-.889c-.238-.092-.473-.184-.616-.189.225-.02.406.046.537.097l2.24.945c.003-.066-.046-.429-.089-.654-.056.031-.182.169-.222.225 0-.005.003-.01.003-.015-.005-.01-.003-.026.008-.046.054-.475-.319-1.18-.322-1.191.317.02 1.26.925 1.316 1.109-.136-.005-.411-.097-.486-.097.056.276.212.47.347.639.069.082.13.163.174.245-.041.046-.526.159-.478.572l-.387.036"/></g><path clip-path="url(#4)" fill-rule="evenodd" fill="#e6b32d" d="m90.99 88.18l.279-.511c.102-.138-.105-.286-.253-.112l-.314.47c-.138.26.153.326.288.153"/><g clip-path="url(#4)"><path d="m90.8 88.31l-.148-.072c-.023-.041-.038-.107.018-.215l.325-.49.166-.077.123.235-.276.511c-.052.072-.131.108-.208.108"/></g><path clip-path="url(#4)" fill-rule="evenodd" fill="#fff" d="m74.25 89.36l-.02-.56-.67.04-.04.61z"/><g clip-path="url(#4)"><path d="m73.49 89.49l.041-.649.705-.061.048.588-.794.122m.723-.685l-.652.066-.013.552.705-.082-.04-.536"/></g><path clip-path="url(#4)" fill-rule="evenodd" fill="#fff" d="m69.28 90.16l-.91-.511c3.753.342 4.517-.966 5.426-1.037.557-.041.644.618-.439.307l.278.69c0 0-2.659 1.497-5.28.879l.925-.328"/><g clip-path="url(#4)"><path d="m69.69 90.66c-.467 0-.92-.051-1.341-.153l.92-.383-.912-.46c.445-.015.843.005 1.201.005 1.827 0 2.726-.45 3.382-.777.324-.163.58-.291.853-.312.002 0 .005 0 .008 0 .289 0 .424.122.424.24 0 .148-.299.286-.874.117l.309.654c-.03.042-1.867 1.069-3.97 1.069m-1.323-.992l.925.46-.927.378c.416.046.863.097 1.326.097 2.087 0 3.914-1.017 3.932-1.027l-.291-.659c.603.051.838.01.838-.097 0-.092-.12-.189-.319-.189-.314.02-.567.148-.884.312-.796.393-1.951.976-4.6.725"/></g><path clip-path="url(#4)" fill-rule="evenodd" fill="#fff" d="m85.63 89.36l.01-.56.84.02.04.61z"/><g clip-path="url(#4)"><path d="m86.55 89.47l-.922-.076-.008-.588.861-.01.069.674m-.097-.644l-.805.005.008.537.835.041-.038-.583"/></g><path clip-path="url(#4)" fill-rule="evenodd" fill="#fff" d="m90.77 90.02l.856-.47c-4.297.128-3.321-.705-5.47-.94-.554-.061-.973.654.435.307l-.279.69h.677c1.461.961 3.439 1.047 4.749.741l-.968-.328"/><g clip-path="url(#4)"><path d="m90.28 90.53c-1.249 0-2.425-.322-3.308-.904l-.662.005.253-.725c-.23.097-.444.133-.611.133-.128 0-.345-.041-.345-.169 0-.133.215-.291.478-.291.884.092 1.262.271 1.625.444.605.286 1.234.588 3.914.501l-.843.516.963.281c-.45.158-.953.209-1.464.209m-3.293-.956c1.254.822 3.224 1.103 4.741.746l-.968-.276.851-.521c-.291.061-.57.066-.825.066-1.993 0-2.557-.266-3.099-.521-.376-.179-.733-.342-1.535-.429-.286.041-.488.138-.488.23 0 .102.184.112.289.112.161 0 .373-.031.628-.097l-.245.731.651-.041"/></g><path clip-path="url(#4)" fill-rule="evenodd" fill="#fff" d="m73.35 88.91v.971c0 0 2.381.889 6.634.889 4.269 0 6.632-.889 6.632-.889v-.971c0 0-1.801.833-6.632.833-4.815 0-6.634-.833-6.634-.833"/><g clip-path="url(#4)"><path d="m79.981 90.8c-4.21 0-6.622-.879-6.645-.884l-.018-1c.015 0 1.868.802 6.663.802 4.767 0 6.604-.817 6.622-.828l.038.996c-.041.036-2.435.915-6.66.915m-6.607-.915c.051 0 2.448.858 6.606.858 4.215 0 6.601-.874 6.624-.884l-.018-.945c-.02.051-1.878.858-6.606.858-4.767 0-6.627-.822-6.647-.833l.038.945c.001.001.001.001.003.001"/></g><path clip-path="url(#4)" d="m73.7 89.89l.212-.715.094.031-.184.623.365.102-.025.082-.462-.123m.69-.317l.01-.138.033-.117.105.025-.033.117-.056.128-.059-.015m1.025-.046l.102.021-.092.419c-.013.072-.036.128-.061.169-.026.041-.064.066-.115.087-.051.015-.112.015-.184.005-.069-.015-.125-.041-.163-.071-.041-.031-.066-.072-.077-.117-.008-.046-.008-.112.01-.189l.087-.419.102.02-.089.414c-.013.066-.015.112-.013.148.008.031.023.056.051.077.025.025.059.041.102.051.072.01.13.005.166-.02.041-.026.066-.082.087-.174l.087-.421m.112.772l.122-.731.105.02.301.634.097-.572.095.015-.122.731-.102-.02-.301-.634-.097.572-.098-.015m.784.122l.107-.736.097.015-.105.731-.099-.01m.286-.327c.015-.117.062-.215.138-.276.077-.061.166-.087.276-.077.071.01.133.036.184.071.054.041.092.087.112.153.026.061.033.128.02.199-.005.077-.031.143-.066.194-.041.056-.092.097-.148.123-.064.02-.128.031-.194.025-.071-.01-.133-.036-.187-.071-.051-.041-.087-.092-.11-.153-.025-.06-.03-.121-.025-.188m.105.016c-.01.087.008.158.051.215.043.061.102.087.179.102.074.005.14-.015.194-.061.054-.046.087-.112.097-.21.008-.061.005-.117-.01-.163-.013-.041-.043-.082-.079-.112-.036-.026-.084-.046-.133-.051-.069-.01-.135.01-.194.051-.056.04-.09.116-.105.229m.713.434l.064-.736.105.005.35.613.051-.577.097.005-.064.741-.102-.01-.355-.613-.046.582-.1-.01m1.075.077l.033-.741.518.02-.005.092-.416-.02-.01.23.363.015-.005.087-.36-.015-.015.332h-.103m.565.025l.312-.736h.11l.299.746h-.115l-.087-.23h-.322l-.087.22h-.11m.23-.301l.261.005-.077-.21c-.026-.061-.041-.112-.051-.148-.01.046-.026.092-.046.133l-.087.22m.588.312v-.741h.102v.741h-.102m.475-.006l-.008-.649h-.253l-.002-.087.611-.005v.087l-.253.005.008.649h-.103m.753-.015l-.036-.741.099-.005.033.654.381-.02.003.092-.48.02m.516-.025l.24-.756.107-.005.37.715-.115.01-.108-.22-.322.021-.064.23-.108.005m.2-.317l.261-.02-.097-.194c-.028-.061-.051-.112-.064-.153-.008.051-.015.102-.031.148l-.069.219m.901.235l-.087-.736.518-.056.005.087-.411.046.025.23.358-.041.01.087-.358.041.041.332-.101.01m.562-.424c-.018-.117.003-.219.061-.301.056-.077.138-.123.245-.138.069-.01.133 0 .197.025.061.026.11.061.148.118.038.051.064.117.074.189.013.077.005.143-.018.205-.02.061-.061.112-.112.153-.054.036-.112.061-.176.072-.072.01-.138 0-.199-.026-.061-.025-.112-.061-.148-.117-.041-.058-.061-.114-.072-.18m.105-.011c.013.087.046.153.105.194.056.051.123.061.194.056.077-.01.136-.046.179-.107.038-.056.054-.133.038-.225-.01-.061-.028-.112-.054-.153-.028-.041-.064-.072-.107-.092-.043-.015-.092-.025-.143-.015-.069.01-.125.041-.174.097-.043.051-.056.133-.038.245m.808.246l-.138-.726.332-.061c.069-.01.12-.01.158-.005.038.005.069.025.095.056.031.026.048.061.056.102.005.051 0 .097-.031.138-.028.046-.077.077-.148.097.028.01.051.015.069.026.033.026.069.046.102.087l.166.174-.123.02-.13-.133c-.036-.036-.069-.071-.092-.087-.021-.025-.043-.036-.062-.041-.013-.01-.033-.01-.046-.01-.01 0-.033 0-.059.005l-.115.02.062.322-.096.016m.02-.424l.215-.036c.046-.01.082-.02.105-.031.025-.015.043-.036.051-.056.01-.02.013-.046.005-.066-.005-.036-.023-.061-.054-.082-.028-.015-.071-.021-.13-.01l-.238.046.046.235m1.213-.077h.105c-.005.082-.026.153-.074.204-.041.051-.105.087-.179.107-.084.015-.153.015-.21-.01-.059-.015-.107-.056-.145-.112-.043-.051-.069-.112-.087-.184-.018-.071-.018-.143 0-.204.013-.061.046-.112.097-.158.048-.036.105-.066.171-.082.074-.015.14-.01.202.015.059.025.105.071.141.133l-.089.046c-.028-.051-.066-.087-.105-.102-.036-.015-.079-.02-.13-.01-.059.015-.105.036-.138.071-.033.036-.051.077-.054.128-.008.046-.005.097.005.143.015.061.038.112.066.153.028.041.069.072.112.087.043.015.089.015.133.005.056-.015.1-.041.13-.077.034-.041.049-.092.049-.153m.281.199l-.205-.715.532-.138.025.082-.439.112.066.225.409-.112.026.082-.409.112.069.24.452-.123.026.087-.552.148"/></g></svg>