<?xml version="1.0" encoding="utf-8"?>
<!-- Generator: Adobe Illustrator 18.1.1, SVG Export Plug-In . SVG Version: 6.00 Build 0)  -->
<svg version="1.1" xmlns="http://www.w3.org/2000/svg" xmlns:xlink="http://www.w3.org/1999/xlink" x="0px" y="0px"
	 viewBox="0 0 766.9 280.5" enable-background="new 0 0 766.9 280.5" xml:space="preserve">
<g id="Layer_1">
	<g>
		<path fill="#FFDD00" d="M158.6,41.3c3.3-4.1,5.2-9.2,5.2-14.9c0-13.2-10.7-23.9-23.9-23.9c-13.2,0-23.9,10.7-23.9,23.9
			c0,8.7,4.6,16.2,11.5,20.4l0,0C73.2,67.4,50.1,140.6,99.8,173c28.8,11.9,44.5-2.7,51.5-11.9c-6,2.7-9.8,2.7-16.3,1.6
			c-82.4-13.5-23-145.1,75.4-75.4c8.6,5.5,14.5,6.8,20.5,0.9c5.9-5.9,4.4-15.1-1.6-20C204,49.2,179.9,41.4,158.6,41.3z"/>
		<path fill="#00703C" d="M238.9,158.7c4.1,3.3,9.3,5.2,14.9,5.2c13.2,0,23.9-10.7,23.9-23.9s-10.7-23.9-23.9-23.9
			c-8.7,0-16.2,4.6-20.4,11.5l0,0c-20.7-54.4-93.9-77.5-126.2-27.8c-11.9,28.8,2.7,44.5,11.9,51.5c-2.7-6-2.7-9.8-1.6-16.3
			c13.5-82.4,145.1-23,75.4,75.4c-5.5,8.6-6.8,14.5-0.9,20.5c5.9,5.9,15.1,4.4,20-1.6C231,204.1,238.8,180.1,238.9,158.7z"/>
		<path fill="#005695" d="M119.5,237.1c-3.4,4-5.5,9.1-5.6,14.7c-0.3,13.2,10.1,24.1,23.2,24.5c13.2,0.3,24.1-10.1,24.5-23.2
			c0.2-8.7-4.2-16.3-11-20.7l0,0c54.9-19.2,79.9-91.8,31.1-125.5c-28.4-12.7-44.5,1.6-51.8,10.6c6-2.6,9.8-2.5,16.3-1.2
			c82.1,15.7,19.2,145.7-77.4,73.4c-8.5-5.7-14.4-7.2-20.4-1.4c-6.1,5.8-4.8,15,1.1,20.1C74.3,227.9,98.1,236.4,119.5,237.1z"/>
		<path fill="#0194D3" d="M42.2,120.6c-4.1-3.3-9.3-5.2-14.9-5.2c-13.2,0-23.9,10.7-23.9,23.9c0,13.2,10.7,23.9,23.9,23.9
			c8.7,0,16.2-4.6,20.4-11.5c0,0,0,0,0,0c20.7,54.4,93.9,77.4,126.3,27.8c11.9-28.8-2.7-44.5-12-51.5c2.7,6,2.7,9.8,1.6,16.3
			c-13.5,82.4-145.1,23-75.4-75.4c5.5-8.6,6.8-14.5,0.9-20.5c-5.9-5.9-15.1-4.4-20,1.6C50.2,75.1,42.4,99.2,42.2,120.6z"/>
	</g>
	<g>
		<path fill="#1895D3" d="M294.7,48.6h14.5c14.6,0,26.2,9,26.2,24.2c0,16.5-10,25-26.2,25h-14.5V48.6z M301.7,91.6h7.4
			c12.1,0,18.8-5.9,18.8-18.5c0-11.5-7.8-18.3-18-18.3h-8.2V91.6z"/>
		<polygon fill="#1895D3" points="339.9,48.6 367.5,48.6 367.5,54.8 346.9,54.8 346.9,69.2 365.6,69.2 365.6,75.4 346.9,75.4 
			346.9,91.6 367.5,91.6 367.5,97.8 339.9,97.8 		"/>
		<polygon fill="#1895D3" points="399.1,97.8 390.3,97.8 371.7,48.6 379.6,48.6 394.8,91.6 394.9,91.6 410.5,48.6 417.9,48.6 		"/>
		<polygon fill="#1895D3" points="422,48.6 449.6,48.6 449.6,54.8 429.1,54.8 429.1,69.2 447.8,69.2 447.8,75.4 429.1,75.4 
			429.1,91.6 449.6,91.6 449.6,97.8 422,97.8 		"/>
		<polygon fill="#1895D3" points="457.5,48.6 464.5,48.6 464.5,91.6 485.1,91.6 485.1,97.8 457.5,97.8 		"/>
		<path fill="#1895D3" d="M510,47.7c15,0,23.7,10.9,23.7,25.5c0,15-8.7,25.5-23.7,25.5c-15,0-23.7-10.5-23.7-25.5
			C486.3,58.6,495.1,47.7,510,47.7z M510,92.4c11.4,0,16.2-9.5,16.2-19.3c0-10-5.4-19.3-16.2-19.3c-10.9-0.1-16.2,9.2-16.2,19.3
			C493.8,83,498.7,92.4,510,92.4z"/>
		<path fill="#1895D3" d="M540.4,48.6h12.9c10.1,0,18.5,3.5,18.5,14.7c0,10.9-8.5,14.8-17.4,14.8h-6.9v19.7h-7V48.6z M547.4,71.9h7
			c4.4,0,9.9-2.2,9.9-8.7c0-6.2-6.5-8.5-10.9-8.5h-6V71.9z"/>
		<polygon fill="#1895D3" points="577.4,48.6 589,48.6 604.5,89.5 619.6,48.6 631.3,48.6 631.3,97.8 624.2,97.8 624.2,55.2 
			624.1,55.2 607.8,97.8 600.9,97.8 584.6,55.2 584.5,55.2 584.5,97.8 577.4,97.8 		"/>
		<polygon fill="#1895D3" points="639.9,48.6 667.5,48.6 667.5,54.8 647,54.8 647,69.2 665.6,69.2 665.6,75.4 647,75.4 647,91.6 
			667.5,91.6 667.5,97.8 639.9,97.8 		"/>
		<polygon fill="#1895D3" points="675.4,48.6 685,48.6 706.7,88.2 706.8,88.2 706.8,48.6 713.9,48.6 713.9,97.8 704.8,97.8 
			682.6,57.3 682.4,57.3 682.4,97.8 675.4,97.8 		"/>
		<polygon fill="#1895D3" points="734.2,54.8 718.9,54.8 718.9,48.6 756.5,48.6 756.5,54.8 741.2,54.8 741.2,97.8 734.2,97.8 		"/>
		<path fill="#1895D3" d="M353,124.9c-5.1-3.3-10.6-5-19.9-5c-16.7,0-27.8,12.1-27.8,28.3c0,17,12.2,28.3,27.2,28.3
			c7.1,0,9-0.7,11.6-1.2v-22h-15.2v-8.5h25.6v37.6c-3.9,1.3-10.8,3.2-22.1,3.2c-22.9,0-38.1-14.7-38.1-37.7
			c0-22.3,16.2-37.1,38.2-37.1c10.6,0,15.2,1.6,21.2,3.6L353,124.9z"/>
		<path fill="#1895D3" d="M391.3,112h10.9l30.6,72.3h-11.3l-7.4-18.2h-35.4l-7.4,18.2h-10.9L391.3,112z M396.3,121.8l-14.4,35.8
			h28.8L396.3,121.8z"/>
		<polygon fill="#1895D3" points="445.2,121.1 422.8,121.1 422.8,112 478.1,112 478.1,121.1 455.6,121.1 455.6,184.3 445.2,184.3 		
			"/>
		<polygon fill="#1895D3" points="488.9,112 529.4,112 529.4,121.1 499.3,121.1 499.3,142.3 526.8,142.3 526.8,151.4 499.3,151.4 
			499.3,175.2 529.4,175.2 529.4,184.3 488.9,184.3 		"/>
		<polygon fill="#1895D3" points="537,112 548.4,112 565.7,174 565.9,174 581.3,112 596,112 611.7,174 611.9,174 629.2,112 
			640.2,112 617.9,184.3 604.5,184.3 588.8,121.1 588.6,121.1 572.7,184.3 558.9,184.3 		"/>
		<path fill="#1895D3" d="M659,112h10.9l30.6,72.3h-11.3l-7.4-18.2h-35.4l-7.4,18.2h-10.9L659,112z M664.1,121.8l-14.4,35.8h28.8
			L664.1,121.8z"/>
		<polygon fill="#1895D3" points="717.6,154.1 689.3,112 701.5,112 723,144.4 744.1,112 756.2,112 728,154.1 728,184.3 717.6,184.3 
					"/>
	</g>
	<g>
		<path fill="#0194D3" d="M307.6,239.5c-2.3,0-4.2-0.2-5.8-0.7c-1.6-0.5-3.1-1.1-4.5-1.7v-5.3h0.3c1.4,1.3,3,2.3,4.7,3
			c1.8,0.7,3.4,1.1,5.1,1.1c2.3,0,4.1-0.5,5.3-1.5c1.2-1,1.8-2.2,1.8-3.8c0-1.3-0.3-2.3-0.9-3.1c-0.6-0.8-1.6-1.4-3-1.8
			c-1-0.3-1.9-0.5-2.7-0.7c-0.8-0.2-1.8-0.4-3-0.7c-1.1-0.3-2.1-0.6-2.9-1.1c-0.9-0.4-1.6-1-2.3-1.7c-0.7-0.7-1.2-1.5-1.5-2.4
			c-0.4-0.9-0.5-2-0.5-3.3c0-2.6,1-4.7,3-6.4c2-1.7,4.5-2.6,7.6-2.6c1.8,0,3.4,0.2,5,0.5c1.6,0.4,3,0.9,4.4,1.5v5h-0.3
			c-1-0.9-2.3-1.7-3.9-2.4c-1.6-0.7-3.2-1-4.9-1c-1.9,0-3.5,0.5-4.7,1.4c-1.2,0.9-1.8,2.1-1.8,3.6c0,1.3,0.4,2.4,1.1,3.2
			c0.7,0.8,1.7,1.4,3.1,1.7c0.9,0.2,2,0.5,3.3,0.8c1.3,0.3,2.4,0.6,3.2,0.8c2.2,0.7,3.8,1.7,4.8,3c1,1.3,1.5,3,1.5,5
			c0,1.2-0.3,2.4-0.8,3.6c-0.5,1.2-1.2,2.2-2.1,3.1c-1,0.9-2.2,1.6-3.4,2.1C311.2,239.3,309.6,239.5,307.6,239.5z"/>
		<path fill="#0194D3" d="M342.4,227.1c0,4-1,7.1-2.9,9.2c-1.9,2.2-4.5,3.2-7.7,3.2c-3.3,0-5.9-1.1-7.8-3.4
			c-1.9-2.2-2.8-5.3-2.8-9.1c0-4,1-7,2.9-9.2c1.9-2.2,4.5-3.3,7.7-3.3c3.2,0,5.8,1.1,7.7,3.3C341.4,220.1,342.4,223.2,342.4,227.1z
			 M338.3,227.1c0-3.1-0.6-5.3-1.7-6.8c-1.1-1.5-2.7-2.2-4.8-2.2c-2.1,0-3.7,0.7-4.8,2.2c-1.1,1.5-1.7,3.8-1.7,6.8
			c0,3,0.6,5.2,1.7,6.7c1.1,1.5,2.7,2.3,4.8,2.3c2,0,3.6-0.7,4.8-2.3C337.7,232.4,338.3,230.2,338.3,227.1z"/>
		<path fill="#0194D3" d="M350.7,239h-4v-33h4V239z"/>
		<path fill="#0194D3" d="M375.1,239h-4v-2.6c-1.2,1.1-2.4,1.9-3.5,2.4c-1.1,0.6-2.3,0.8-3.7,0.8c-1,0-2-0.2-2.9-0.5
			c-0.9-0.3-1.7-0.9-2.4-1.6c-0.7-0.7-1.2-1.7-1.6-2.8c-0.4-1.1-0.6-2.5-0.6-4.1v-15.4h4v13.5c0,1.3,0,2.3,0.1,3.1
			c0.1,0.8,0.3,1.6,0.6,2.2c0.3,0.6,0.8,1.1,1.3,1.3c0.6,0.3,1.4,0.4,2.4,0.4c1,0,2-0.3,3.1-0.8c1.1-0.6,2.1-1.2,3-2v-17.7h4V239z"
			/>
		<path fill="#0194D3" d="M388.2,239.4c-2.2,0-3.9-0.6-5.1-1.9c-1.2-1.2-1.8-3.2-1.8-5.9v-13.1h-2.7v-3.3h2.7v-6.8h4v6.8h7.3v3.3
			h-7.3v11.3c0,1.2,0,2.1,0.1,2.8c0,0.7,0.2,1.3,0.5,1.8c0.2,0.5,0.6,0.9,1.2,1.1c0.5,0.2,1.3,0.4,2.2,0.4c0.7,0,1.3-0.1,1.9-0.3
			c0.6-0.2,1-0.3,1.3-0.5h0.2v3.6c-0.7,0.2-1.5,0.4-2.3,0.5C389.5,239.4,388.8,239.4,388.2,239.4z"/>
		<path fill="#0194D3" d="M400,211.3h-4.5v-4.1h4.5V211.3z M399.7,239h-4v-23.7h4V239z"/>
		<path fill="#0194D3" d="M425.2,227.1c0,4-1,7.1-2.9,9.2c-1.9,2.2-4.5,3.2-7.7,3.2c-3.3,0-5.9-1.1-7.8-3.4
			c-1.9-2.2-2.8-5.3-2.8-9.1c0-4,1-7,2.9-9.2c1.9-2.2,4.5-3.3,7.7-3.3c3.2,0,5.8,1.1,7.7,3.3C424.2,220.1,425.2,223.2,425.2,227.1z
			 M421,227.1c0-3.1-0.6-5.3-1.7-6.8c-1.1-1.5-2.7-2.2-4.8-2.2c-2.1,0-3.7,0.7-4.8,2.2c-1.1,1.5-1.7,3.8-1.7,6.8
			c0,3,0.6,5.2,1.7,6.7c1.1,1.5,2.7,2.3,4.8,2.3c2,0,3.6-0.7,4.8-2.3C420.5,232.4,421,230.2,421,227.1z"/>
		<path fill="#0194D3" d="M448,239h-4v-13.5c0-1.1-0.1-2.1-0.2-3c-0.1-0.9-0.3-1.7-0.6-2.3c-0.3-0.6-0.8-1-1.4-1.3
			c-0.6-0.3-1.4-0.4-2.4-0.4c-1,0-2,0.3-3.1,0.8c-1.1,0.5-2.1,1.2-3.1,2.1V239h-4v-23.7h4v2.6c1.2-1.1,2.4-1.9,3.5-2.4
			c1.2-0.6,2.4-0.8,3.7-0.8c2.3,0,4.2,0.8,5.5,2.3c1.3,1.5,2,3.8,2,6.7V239z"/>
		<path fill="#0194D3" d="M460.1,239.5c-1.6,0-3.1-0.2-4.4-0.6c-1.4-0.4-2.5-0.9-3.4-1.4v-4.5h0.2c0.3,0.3,0.7,0.6,1.2,0.9
			c0.5,0.3,1.1,0.7,1.8,1c0.7,0.3,1.4,0.6,2.2,0.8c0.8,0.2,1.7,0.4,2.5,0.4c0.6,0,1.3-0.1,2-0.2c0.7-0.1,1.3-0.3,1.6-0.6
			c0.5-0.3,0.9-0.7,1.1-1c0.2-0.4,0.3-0.9,0.3-1.7c0-0.9-0.3-1.7-0.8-2.1c-0.5-0.5-1.4-0.9-2.7-1.2c-0.5-0.1-1.2-0.3-2-0.4
			c-0.8-0.2-1.6-0.4-2.3-0.6c-1.8-0.5-3.1-1.3-3.9-2.4c-0.8-1.1-1.2-2.4-1.2-4c0-2.1,0.8-3.9,2.4-5.2c1.6-1.3,3.8-2,6.4-2
			c1.3,0,2.6,0.2,4,0.5c1.3,0.3,2.4,0.7,3.3,1.2v4.3h-0.2c-1-0.8-2.2-1.4-3.4-1.9c-1.3-0.5-2.5-0.7-3.8-0.7c-1.3,0-2.4,0.3-3.3,0.8
			c-0.9,0.6-1.4,1.4-1.4,2.5c0,1,0.3,1.7,0.8,2.2c0.5,0.5,1.4,0.9,2.6,1.2c0.6,0.2,1.3,0.3,2,0.5c0.7,0.1,1.5,0.3,2.3,0.5
			c1.8,0.4,3.1,1.2,4,2.2c0.9,1,1.3,2.4,1.3,4.2c0,1-0.2,2-0.6,2.9c-0.4,0.9-1,1.7-1.8,2.3c-0.8,0.7-1.8,1.2-2.9,1.6
			C463,239.3,461.7,239.5,460.1,239.5z"/>
		<path fill="#0194D3" d="M494.1,239.4c-2.2,0-3.9-0.6-5.1-1.9c-1.2-1.2-1.8-3.2-1.8-5.9v-13.1h-2.7v-3.3h2.7v-6.8h4v6.8h7.3v3.3
			h-7.3v11.3c0,1.2,0,2.1,0.1,2.8c0,0.7,0.2,1.3,0.5,1.8c0.2,0.5,0.6,0.9,1.2,1.1c0.5,0.2,1.3,0.4,2.2,0.4c0.6,0,1.3-0.1,1.9-0.3
			c0.6-0.2,1-0.3,1.3-0.5h0.2v3.6c-0.7,0.2-1.5,0.4-2.3,0.5C495.4,239.4,494.7,239.4,494.1,239.4z"/>
		<path fill="#0194D3" d="M520.1,239h-4v-13.5c0-1.1-0.1-2.1-0.2-3c-0.1-0.9-0.3-1.7-0.6-2.3c-0.3-0.6-0.8-1-1.4-1.3
			c-0.6-0.3-1.4-0.4-2.4-0.4c-1,0-2,0.3-3.1,0.8c-1.1,0.5-2.1,1.2-3.1,2.1V239h-4v-33h4v11.9c1.2-1.1,2.4-1.9,3.5-2.4
			c1.2-0.6,2.4-0.8,3.7-0.8c2.3,0,4.2,0.8,5.5,2.3c1.3,1.5,2,3.8,2,6.7V239z"/>
		<path fill="#0194D3" d="M539.1,236.4c-0.3,0.2-0.8,0.6-1.3,1c-0.5,0.4-1.1,0.8-1.6,1c-0.7,0.4-1.4,0.7-2,0.8
			c-0.7,0.2-1.6,0.3-2.8,0.3c-1,0-1.9-0.2-2.8-0.5c-0.9-0.4-1.6-0.9-2.3-1.5c-0.6-0.6-1.1-1.5-1.5-2.4c-0.4-1-0.6-2-0.6-3
			c0-1.6,0.3-3,1-4.2c0.7-1.2,1.8-2.1,3.3-2.7c1.3-0.6,2.9-1,4.7-1.3c1.8-0.2,3.8-0.4,5.8-0.5v-0.8c0-0.9-0.1-1.7-0.4-2.3
			c-0.3-0.6-0.7-1-1.2-1.3c-0.5-0.3-1.1-0.5-1.9-0.6c-0.7-0.1-1.5-0.2-2.3-0.2c-0.9,0-2,0.1-3.2,0.4c-1.2,0.3-2.5,0.7-3.7,1.2h-0.2
			v-4c0.7-0.2,1.8-0.4,3.2-0.7c1.4-0.3,2.7-0.4,4.1-0.4c1.6,0,3,0.1,4.1,0.4c1.1,0.3,2.1,0.7,3,1.4c0.9,0.6,1.5,1.5,1.9,2.5
			c0.4,1,0.6,2.3,0.6,3.8V239h-4V236.4z M539.1,233.1v-6.6c-0.9,0.1-2.1,0.2-3.6,0.3c-1.5,0.1-2.6,0.4-3.5,0.6
			c-1.1,0.3-1.9,0.8-2.6,1.5c-0.7,0.7-1,1.6-1,2.8c0,1.4,0.4,2.4,1.1,3.1c0.8,0.7,1.9,1,3.3,1c1.3,0,2.4-0.3,3.4-0.8
			C537.2,234.6,538.2,233.9,539.1,233.1z"/>
		<path fill="#0194D3" d="M555.9,239.4c-2.2,0-3.9-0.6-5.1-1.9c-1.2-1.2-1.8-3.2-1.8-5.9v-13.1h-2.7v-3.3h2.7v-6.8h4v6.8h7.3v3.3
			H553v11.3c0,1.2,0,2.1,0.1,2.8c0,0.7,0.2,1.3,0.5,1.8c0.2,0.5,0.6,0.9,1.2,1.1c0.5,0.2,1.3,0.4,2.2,0.4c0.7,0,1.3-0.1,1.9-0.3
			c0.6-0.2,1-0.3,1.3-0.5h0.2v3.6c-0.7,0.2-1.5,0.4-2.3,0.5C557.3,239.4,556.6,239.4,555.9,239.4z"/>
		<path fill="#0194D3" d="M587.4,239.5c-3.8,0-6.7-1.1-8.8-3.2c-2.1-2.1-3.1-5.1-3.1-9.1c0-3.9,1-6.9,3-9.2c2-2.3,4.7-3.4,7.9-3.4
			c1.5,0,2.8,0.2,3.9,0.6c1.1,0.4,2.1,1.1,3,2c0.8,0.9,1.5,2,1.9,3.3c0.5,1.3,0.7,2.9,0.7,4.8v2.2h-16.4c0,2.8,0.7,4.9,2.1,6.3
			c1.4,1.5,3.3,2.2,5.7,2.2c0.9,0,1.7-0.1,2.6-0.3c0.8-0.2,1.6-0.5,2.3-0.8c0.7-0.3,1.3-0.6,1.8-0.9c0.5-0.3,0.9-0.6,1.2-0.9h0.2
			v4.3c-0.5,0.2-1,0.4-1.7,0.7c-0.7,0.3-1.3,0.5-1.9,0.6c-0.8,0.2-1.5,0.4-2.1,0.5C589.1,239.5,588.3,239.5,587.4,239.5z M592,224.5
			c0-1.1-0.2-2-0.4-2.8c-0.2-0.8-0.6-1.4-1-2c-0.5-0.6-1.1-1-1.8-1.4c-0.7-0.3-1.6-0.5-2.7-0.5c-1.1,0-2,0.2-2.7,0.5
			c-0.7,0.3-1.4,0.8-2,1.4c-0.6,0.6-1,1.3-1.4,2.1c-0.3,0.8-0.5,1.6-0.6,2.6H592z"/>
		<path fill="#0194D3" d="M626.9,239v-13.7c0-1.1,0-2.1-0.1-3c-0.1-0.9-0.3-1.6-0.5-2.2c-0.3-0.6-0.7-1-1.2-1.2
			c-0.5-0.3-1.2-0.4-2.1-0.4c-0.8,0-1.7,0.3-2.6,0.8c-0.9,0.5-1.9,1.2-2.9,2.2c0,0.2,0,0.5,0.1,0.9c0,0.3,0,0.7,0,1.2V239h-4v-13.7
			c0-1.1,0-2.1-0.1-3c-0.1-0.9-0.3-1.6-0.5-2.2c-0.3-0.6-0.7-1-1.2-1.2c-0.5-0.3-1.2-0.4-2.1-0.4c-0.9,0-1.8,0.3-2.7,0.8
			c-0.9,0.5-1.9,1.2-2.8,2.1V239h-4v-23.7h4v2.6c1-1,2.1-1.9,3.1-2.4c1-0.6,2.2-0.9,3.4-0.9c1.4,0,2.6,0.3,3.7,1
			c1.1,0.6,1.9,1.7,2.5,3.1c1.2-1.3,2.4-2.4,3.5-3.1c1.1-0.7,2.4-1,3.7-1c1,0,1.9,0.2,2.8,0.5c0.8,0.3,1.6,0.8,2.2,1.5
			c0.6,0.7,1.1,1.6,1.5,2.7c0.3,1.1,0.5,2.4,0.5,4V239H626.9z"/>
		<path fill="#0194D3" d="M656.5,226.5c0,3.9-0.9,7.1-2.8,9.4c-1.9,2.3-4.3,3.5-7.2,3.5c-1.2,0-2.2-0.1-3.1-0.4
			c-0.9-0.3-1.8-0.7-2.8-1.3v9.9h-4v-32.4h4v2.5c1-0.9,2.1-1.6,3.3-2.2c1.2-0.6,2.5-0.9,4-0.9c2.7,0,4.8,1.1,6.3,3.2
			C655.7,220,656.5,222.9,656.5,226.5z M652.4,226.9c0-2.7-0.4-4.8-1.3-6.3c-0.9-1.5-2.3-2.2-4.2-2.2c-1.1,0-2.2,0.3-3.3,0.8
			c-1.1,0.5-2.1,1.1-3,1.9v13.4c1,0.5,1.9,0.9,2.7,1c0.7,0.2,1.6,0.3,2.6,0.3c2.1,0,3.7-0.8,4.8-2.3
			C651.8,232.1,652.4,229.9,652.4,226.9z"/>
		<path fill="#0194D3" d="M680.2,227.1c0,4-1,7.1-2.9,9.2c-1.9,2.2-4.5,3.2-7.7,3.2c-3.3,0-5.9-1.1-7.8-3.4
			c-1.9-2.2-2.8-5.3-2.8-9.1c0-4,1-7,2.9-9.2c1.9-2.2,4.5-3.3,7.7-3.3c3.2,0,5.7,1.1,7.7,3.3C679.3,220.1,680.2,223.2,680.2,227.1z
			 M676.1,227.1c0-3.1-0.6-5.3-1.7-6.8c-1.1-1.5-2.7-2.2-4.8-2.2c-2.1,0-3.7,0.7-4.8,2.2c-1.1,1.5-1.7,3.8-1.7,6.8
			c0,3,0.6,5.2,1.7,6.7c1.1,1.5,2.7,2.3,4.8,2.3c2,0,3.6-0.7,4.8-2.3C675.6,232.4,676.1,230.2,676.1,227.1z"/>
		<path fill="#0194D3" d="M713.1,215.3l-6,23.7h-3.7l-5.8-18.2l-5.7,18.2h-3.7l-6.1-23.7h4.2l4.2,18.3l5.6-18.3h3.3l5.8,18.3
			l3.9-18.3H713.1z"/>
		<path fill="#0194D3" d="M727.1,239.5c-3.8,0-6.7-1.1-8.8-3.2c-2.1-2.1-3.1-5.1-3.1-9.1c0-3.9,1-6.9,3-9.2c2-2.3,4.7-3.4,7.9-3.4
			c1.5,0,2.8,0.2,3.9,0.6c1.1,0.4,2.1,1.1,3,2c0.8,0.9,1.5,2,1.9,3.3c0.5,1.3,0.7,2.9,0.7,4.8v2.2h-16.4c0,2.8,0.7,4.9,2.1,6.3
			c1.4,1.5,3.3,2.2,5.7,2.2c0.9,0,1.7-0.1,2.6-0.3c0.8-0.2,1.6-0.5,2.3-0.8c0.7-0.3,1.3-0.6,1.8-0.9c0.5-0.3,0.9-0.6,1.2-0.9h0.2
			v4.3c-0.5,0.2-1,0.4-1.7,0.7c-0.7,0.3-1.3,0.5-1.9,0.6c-0.8,0.2-1.5,0.4-2.1,0.5C728.8,239.5,728,239.5,727.1,239.5z M731.7,224.5
			c0-1.1-0.2-2-0.4-2.8c-0.2-0.8-0.6-1.4-1-2c-0.5-0.6-1.1-1-1.8-1.4c-0.7-0.3-1.6-0.5-2.7-0.5c-1.1,0-2,0.2-2.7,0.5
			c-0.7,0.3-1.4,0.8-2,1.4c-0.6,0.6-1,1.3-1.4,2.1c-0.3,0.8-0.5,1.6-0.6,2.6H731.7z"/>
		<path fill="#0194D3" d="M752.3,219.6h-0.2c-0.3-0.1-0.6-0.1-0.9-0.2c-0.3,0-0.7,0-1.2,0c-1.1,0-2.1,0.2-3.2,0.7
			c-1.1,0.5-2.1,1.2-3,2.1V239h-4v-23.7h4v3.5c1.5-1.3,2.7-2.2,3.8-2.7c1.1-0.5,2.1-0.8,3.1-0.8c0.4,0,0.7,0,0.9,0
			c0.2,0,0.4,0.1,0.7,0.1V219.6z"/>
	</g>
</g>
<g id="Layer_3" display="none">
	<g id="Layer_2" display="inline">
		<rect x="648.1" y="-738.7" fill="#005695" width="22.2" height="22.2"/>
		<rect x="648.1" y="-711.5" fill="#0194D3" width="22.2" height="22.2"/>
		<rect x="648.1" y="-683.8" fill="#FFDD00" width="22.2" height="22.2"/>
		<rect x="648.1" y="-655.3" fill="#00703C" width="22.2" height="22.2"/>
	</g>
	<g display="inline">
		<path d="M677.6-729.6c0.4-0.1,0.9-0.1,1.6-0.1c0.8,0,1.5,0.2,1.8,0.5c0.4,0.3,0.6,0.8,0.6,1.4c0,0.6-0.2,1.1-0.5,1.4
			c-0.4,0.5-1.2,0.7-2,0.7c-0.3,0-0.5,0-0.7-0.1v2.6h-0.8V-729.6z M678.4-726.5c0.2,0,0.4,0.1,0.7,0.1c1,0,1.6-0.5,1.6-1.4
			c0-0.9-0.6-1.3-1.6-1.3c-0.4,0-0.7,0-0.8,0.1V-726.5z"/>
		<path d="M685.8-724.3c0,0.4,0,0.8,0.1,1.1h-0.8l-0.1-0.6h0c-0.3,0.4-0.8,0.7-1.4,0.7c-1,0-1.4-0.7-1.4-1.4c0-1.1,1-1.8,2.8-1.8
			v-0.1c0-0.4-0.1-1.1-1.1-1.1c-0.4,0-0.9,0.1-1.2,0.4l-0.2-0.6c0.4-0.2,1-0.4,1.6-0.4c1.5,0,1.8,1,1.8,1.9V-724.3z M685-725.6
			c-0.9,0-2,0.1-2,1.1c0,0.6,0.4,0.8,0.8,0.8c0.6,0,1-0.4,1.2-0.8c0-0.1,0-0.2,0-0.3V-725.6z"/>
		<path d="M687.2-726.6c0-0.5,0-0.9,0-1.3h0.8l0,0.8h0c0.2-0.4,0.8-0.9,1.6-0.9c0.7,0,1.7,0.4,1.7,2v2.8h-0.9v-2.7
			c0-0.8-0.3-1.4-1.1-1.4c-0.6,0-1,0.4-1.2,0.9c0,0.1-0.1,0.3-0.1,0.4v2.8h-0.9V-726.6z"/>
		<path d="M693.6-729v1.1h1.2v0.7h-1.2v2.5c0,0.6,0.2,0.9,0.6,0.9c0.2,0,0.4,0,0.5-0.1l0,0.7c-0.2,0.1-0.4,0.1-0.8,0.1
			c-0.4,0-0.7-0.1-0.9-0.4c-0.2-0.3-0.3-0.7-0.3-1.2v-2.6H692v-0.7h0.7v-0.9L693.6-729z"/>
		<path d="M697.7-723c-1.3,0-2.3-0.9-2.3-2.4c0-1.6,1-2.5,2.3-2.5c1.4,0,2.3,1,2.3,2.4C700-723.8,698.8-723,697.7-723L697.7-723z
			 M697.7-723.7c0.8,0,1.4-0.8,1.4-1.8c0-0.8-0.4-1.8-1.4-1.8c-1,0-1.4,0.9-1.4,1.8C696.3-724.5,696.9-723.7,697.7-723.7
			L697.7-723.7z"/>
		<path d="M701.1-726.6c0-0.5,0-0.9,0-1.3h0.8l0,0.8h0c0.2-0.4,0.8-0.9,1.6-0.9c0.7,0,1.7,0.4,1.7,2v2.8h-0.9v-2.7
			c0-0.8-0.3-1.4-1.1-1.4c-0.6,0-1,0.4-1.2,0.9c0,0.1-0.1,0.3-0.1,0.4v2.8h-0.9V-726.6z"/>
		<path d="M707-725.4c0,1.2,0.8,1.6,1.6,1.6c0.6,0,1-0.1,1.3-0.2l0.2,0.6c-0.3,0.1-0.8,0.3-1.6,0.3c-1.4,0-2.3-1-2.3-2.4
			c0-1.4,0.8-2.6,2.2-2.6c1.5,0,1.9,1.4,1.9,2.2c0,0.2,0,0.3,0,0.4L707-725.4z M709.5-726c0-0.5-0.2-1.4-1.2-1.4
			c-0.9,0-1.2,0.8-1.3,1.4H709.5z"/>
		<path d="M716.9-728.9c-0.2,0-0.4,0-0.6,0c-1.4,0.2-2.1,1.2-2.2,2.3h0c0.3-0.4,0.8-0.7,1.5-0.7c1.1,0,1.9,0.8,1.9,2
			c0,1.2-0.8,2.2-2.1,2.2c-1.3,0-2.2-1.1-2.2-2.7c0-1.2,0.4-2.2,1.1-2.9c0.5-0.5,1.2-0.8,2-0.9c0.3,0,0.5,0,0.6,0V-728.9z
			 M715.4-723.7c0.7,0,1.2-0.6,1.2-1.5c0-0.9-0.5-1.5-1.3-1.5c-0.5,0-1,0.3-1.2,0.8c0,0.1-0.1,0.2-0.1,0.4
			C714-724.5,714.5-723.7,715.4-723.7L715.4-723.7z"/>
		<path d="M720.9-723.1v-1.7H718v-0.6l2.8-4.1h0.9v4h0.9v0.7h-0.9v1.7H720.9z M720.9-725.5v-2.1c0-0.3,0-0.7,0-1h0
			c-0.2,0.4-0.4,0.6-0.5,0.9l-1.6,2.2v0H720.9z"/>
		<path d="M727.4-729.5v0.6l-2.8,5.8h-0.9l2.7-5.6v0h-3.1v-0.7H727.4z"/>
		<path d="M731.5-729.7v3.9c0,1.5,0.7,2.1,1.5,2.1c1,0,1.6-0.6,1.6-2.1v-3.9h0.9v3.8c0,2-1.1,2.8-2.5,2.8c-1.3,0-2.4-0.8-2.4-2.8
			v-3.9H731.5z"/>
	</g>
	<g display="inline">
		<path d="M677.6-703.6c0.4-0.1,0.9-0.1,1.6-0.1c0.8,0,1.5,0.2,1.8,0.5c0.4,0.3,0.6,0.8,0.6,1.4c0,0.6-0.2,1.1-0.5,1.4
			c-0.4,0.5-1.2,0.7-2,0.7c-0.3,0-0.5,0-0.7-0.1v2.6h-0.8V-703.6z M678.4-700.4c0.2,0,0.4,0.1,0.7,0.1c1,0,1.6-0.5,1.6-1.4
			c0-0.9-0.6-1.3-1.6-1.3c-0.4,0-0.7,0-0.8,0.1V-700.4z"/>
		<path d="M685.8-698.2c0,0.4,0,0.8,0.1,1.1h-0.8l-0.1-0.6h0c-0.3,0.4-0.8,0.7-1.4,0.7c-1,0-1.4-0.7-1.4-1.4c0-1.1,1-1.8,2.8-1.8
			v-0.1c0-0.4-0.1-1.1-1.1-1.1c-0.4,0-0.9,0.1-1.2,0.4l-0.2-0.6c0.4-0.2,1-0.4,1.6-0.4c1.5,0,1.8,1,1.8,1.9V-698.2z M685-699.5
			c-0.9,0-2,0.1-2,1.1c0,0.6,0.4,0.8,0.8,0.8c0.6,0,1-0.4,1.2-0.8c0-0.1,0-0.2,0-0.3V-699.5z"/>
		<path d="M687.2-700.5c0-0.5,0-0.9,0-1.3h0.8l0,0.8h0c0.2-0.4,0.8-0.9,1.6-0.9c0.7,0,1.7,0.4,1.7,2v2.8h-0.9v-2.7
			c0-0.8-0.3-1.4-1.1-1.4c-0.6,0-1,0.4-1.2,0.9c0,0.1-0.1,0.3-0.1,0.4v2.9h-0.9V-700.5z"/>
		<path d="M693.6-703v1.1h1.2v0.7h-1.2v2.5c0,0.6,0.2,0.9,0.6,0.9c0.2,0,0.4,0,0.5-0.1l0,0.7c-0.2,0.1-0.4,0.1-0.8,0.1
			c-0.4,0-0.7-0.1-0.9-0.4c-0.2-0.3-0.3-0.7-0.3-1.2v-2.6H692v-0.7h0.7v-0.9L693.6-703z"/>
		<path d="M697.7-697c-1.3,0-2.3-0.9-2.3-2.4c0-1.6,1-2.5,2.3-2.5c1.4,0,2.3,1,2.3,2.4C700-697.7,698.8-697,697.7-697L697.7-697z
			 M697.7-697.6c0.8,0,1.4-0.8,1.4-1.8c0-0.8-0.4-1.8-1.4-1.8c-1,0-1.4,0.9-1.4,1.8C696.3-698.4,696.9-697.6,697.7-697.6
			L697.7-697.6z"/>
		<path d="M701.1-700.5c0-0.5,0-0.9,0-1.3h0.8l0,0.8h0c0.2-0.4,0.8-0.9,1.6-0.9c0.7,0,1.7,0.4,1.7,2v2.8h-0.9v-2.7
			c0-0.8-0.3-1.4-1.1-1.4c-0.6,0-1,0.4-1.2,0.9c0,0.1-0.1,0.3-0.1,0.4v2.9h-0.9V-700.5z"/>
		<path d="M707-699.3c0,1.2,0.8,1.6,1.6,1.6c0.6,0,1-0.1,1.3-0.2l0.2,0.6c-0.3,0.1-0.8,0.3-1.6,0.3c-1.4,0-2.3-1-2.3-2.4
			c0-1.4,0.8-2.6,2.2-2.6c1.5,0,1.9,1.4,1.9,2.2c0,0.2,0,0.3,0,0.4L707-699.3z M709.5-699.9c0-0.5-0.2-1.4-1.2-1.4
			c-0.9,0-1.2,0.8-1.3,1.4H709.5z"/>
		<path d="M717.4-703.4v0.6l-2.8,5.8h-0.9l2.7-5.6v0h-3.1v-0.7H717.4z"/>
		<path d="M720.9-697.1v-1.7H718v-0.6l2.8-4.1h0.9v4h0.9v0.7h-0.9v1.7H720.9z M720.9-699.5v-2.1c0-0.3,0-0.7,0-1h0
			c-0.2,0.4-0.4,0.6-0.5,0.9l-1.6,2.2v0H720.9z"/>
		<path d="M726.9-702.8c-0.2,0-0.4,0-0.6,0c-1.4,0.2-2.1,1.2-2.2,2.3h0c0.3-0.4,0.8-0.7,1.5-0.7c1.1,0,1.9,0.8,1.9,2
			c0,1.2-0.8,2.2-2.1,2.2c-1.3,0-2.2-1.1-2.2-2.7c0-1.2,0.4-2.2,1.1-2.9c0.5-0.5,1.2-0.8,2-0.9c0.3,0,0.5,0,0.6,0V-702.8z
			 M725.4-697.7c0.7,0,1.2-0.6,1.2-1.5c0-0.9-0.5-1.5-1.3-1.5c-0.5,0-1,0.3-1.2,0.8c0,0.1-0.1,0.2-0.1,0.4
			C724-698.4,724.5-697.7,725.4-697.7L725.4-697.7z"/>
		<path d="M730.1-702.6L730.1-702.6L729-702l-0.2-0.7l1.4-0.7h0.7v6.3h-0.8V-702.6z"/>
		<path d="M736.5-703.7v3.9c0,1.5,0.7,2.1,1.5,2.1c1,0,1.6-0.6,1.6-2.1v-3.9h0.9v3.8c0,2-1.1,2.8-2.5,2.8c-1.3,0-2.4-0.8-2.4-2.8
			v-3.9H736.5z"/>
	</g>
	<g display="inline">
		<path d="M677.6-674.7c0.4-0.1,0.9-0.1,1.6-0.1c0.8,0,1.5,0.2,1.8,0.5c0.4,0.3,0.6,0.8,0.6,1.4c0,0.6-0.2,1.1-0.5,1.4
			c-0.4,0.5-1.2,0.7-2,0.7c-0.3,0-0.5,0-0.7-0.1v2.6h-0.8V-674.7z M678.4-671.5c0.2,0,0.4,0.1,0.7,0.1c1,0,1.6-0.5,1.6-1.4
			c0-0.9-0.6-1.3-1.6-1.3c-0.4,0-0.7,0-0.8,0.1V-671.5z"/>
		<path d="M685.8-669.3c0,0.4,0,0.8,0.1,1.1h-0.8l-0.1-0.6h0c-0.3,0.4-0.8,0.7-1.4,0.7c-1,0-1.4-0.7-1.4-1.4c0-1.1,1-1.8,2.8-1.8
			v-0.1c0-0.4-0.1-1.1-1.1-1.1c-0.4,0-0.9,0.1-1.2,0.4l-0.2-0.6c0.4-0.2,1-0.4,1.6-0.4c1.5,0,1.8,1,1.8,1.9V-669.3z M685-670.6
			c-0.9,0-2,0.1-2,1.1c0,0.6,0.4,0.8,0.8,0.8c0.6,0,1-0.4,1.2-0.8c0-0.1,0-0.2,0-0.3V-670.6z"/>
		<path d="M687.2-671.6c0-0.5,0-0.9,0-1.3h0.8l0,0.8h0c0.2-0.4,0.8-0.9,1.6-0.9c0.7,0,1.7,0.4,1.7,2v2.8h-0.9v-2.7
			c0-0.8-0.3-1.4-1.1-1.4c-0.6,0-1,0.4-1.2,0.9c0,0.1-0.1,0.3-0.1,0.4v2.9h-0.9V-671.6z"/>
		<path d="M693.6-674.1v1.1h1.2v0.7h-1.2v2.5c0,0.6,0.2,0.9,0.6,0.9c0.2,0,0.4,0,0.5-0.1l0,0.7c-0.2,0.1-0.4,0.1-0.8,0.1
			c-0.4,0-0.7-0.1-0.9-0.4c-0.2-0.3-0.3-0.7-0.3-1.2v-2.6H692v-0.7h0.7v-0.9L693.6-674.1z"/>
		<path d="M697.7-668.1c-1.3,0-2.3-0.9-2.3-2.4c0-1.6,1-2.5,2.3-2.5c1.4,0,2.3,1,2.3,2.4C700-668.9,698.8-668.1,697.7-668.1
			L697.7-668.1z M697.7-668.7c0.8,0,1.4-0.8,1.4-1.8c0-0.8-0.4-1.8-1.4-1.8c-1,0-1.4,0.9-1.4,1.8
			C696.3-669.5,696.9-668.7,697.7-668.7L697.7-668.7z"/>
		<path d="M701.1-671.6c0-0.5,0-0.9,0-1.3h0.8l0,0.8h0c0.2-0.4,0.8-0.9,1.6-0.9c0.7,0,1.7,0.4,1.7,2v2.8h-0.9v-2.7
			c0-0.8-0.3-1.4-1.1-1.4c-0.6,0-1,0.4-1.2,0.9c0,0.1-0.1,0.3-0.1,0.4v2.9h-0.9V-671.6z"/>
		<path d="M707-670.4c0,1.2,0.8,1.6,1.6,1.6c0.6,0,1-0.1,1.3-0.2l0.2,0.6c-0.3,0.1-0.8,0.3-1.6,0.3c-1.4,0-2.3-1-2.3-2.4
			c0-1.4,0.8-2.6,2.2-2.6c1.5,0,1.9,1.4,1.9,2.2c0,0.2,0,0.3,0,0.4L707-670.4z M709.5-671c0-0.5-0.2-1.4-1.2-1.4
			c-0.9,0-1.2,0.8-1.3,1.4H709.5z"/>
		<path d="M715.1-673.7L715.1-673.7l-1.1,0.6l-0.2-0.7l1.4-0.7h0.7v6.3h-0.8V-673.7z"/>
		<path d="M720.3-668.1c-1.2,0-2.1-1.2-2.1-3.3c0-2.1,0.9-3.3,2.2-3.3c1.3,0,2.1,1.2,2.1,3.2C722.5-669.3,721.7-668.1,720.3-668.1
			L720.3-668.1z M720.3-668.8c0.9,0,1.3-1,1.3-2.6c0-1.6-0.4-2.6-1.3-2.6c-0.8,0-1.3,1-1.3,2.6C719-669.8,719.5-668.8,720.3-668.8
			L720.3-668.8z"/>
		<path d="M723.8-668.8c0.2,0,0.4,0,0.7,0c0.5-0.1,1-0.3,1.3-0.6c0.4-0.4,0.7-0.9,0.8-1.7h0c-0.4,0.4-0.9,0.7-1.5,0.7
			c-1.1,0-1.9-0.9-1.9-2c0-1.2,0.9-2.2,2.2-2.2c1.3,0,2.1,1,2.1,2.7c0,1.4-0.5,2.4-1.1,3c-0.5,0.5-1.2,0.8-1.8,0.8
			c-0.3,0-0.6,0.1-0.8,0V-668.8z M725.3-674c-0.7,0-1.2,0.6-1.2,1.5c0,0.8,0.5,1.3,1.2,1.3c0.6,0,1-0.3,1.3-0.7
			c0-0.1,0.1-0.2,0.1-0.3C726.6-673.2,726.2-674,725.3-674L725.3-674z"/>
		<path d="M731.5-674.8v3.9c0,1.5,0.7,2.1,1.5,2.1c1,0,1.6-0.6,1.6-2.1v-3.9h0.9v3.8c0,2-1.1,2.8-2.5,2.8c-1.3,0-2.4-0.8-2.4-2.8
			v-3.9H731.5z"/>
	</g>
	<g display="inline">
		<path d="M677.6-647c0.4-0.1,0.9-0.1,1.6-0.1c0.8,0,1.5,0.2,1.8,0.5c0.4,0.3,0.6,0.8,0.6,1.4c0,0.6-0.2,1.1-0.5,1.4
			c-0.4,0.5-1.2,0.7-2,0.7c-0.3,0-0.5,0-0.7-0.1v2.6h-0.8V-647z M678.4-643.9c0.2,0,0.4,0.1,0.7,0.1c1,0,1.6-0.5,1.6-1.4
			c0-0.9-0.6-1.3-1.6-1.3c-0.4,0-0.7,0-0.8,0.1V-643.9z"/>
		<path d="M685.8-641.7c0,0.4,0,0.8,0.1,1.1h-0.8l-0.1-0.6h0c-0.3,0.4-0.8,0.7-1.4,0.7c-1,0-1.4-0.7-1.4-1.4c0-1.1,1-1.8,2.8-1.8
			v-0.1c0-0.4-0.1-1.1-1.1-1.1c-0.4,0-0.9,0.1-1.2,0.4l-0.2-0.6c0.4-0.2,1-0.4,1.6-0.4c1.5,0,1.8,1,1.8,1.9V-641.7z M685-642.9
			c-0.9,0-2,0.1-2,1.1c0,0.6,0.4,0.8,0.8,0.8c0.6,0,1-0.4,1.2-0.8c0-0.1,0-0.2,0-0.3V-642.9z"/>
		<path d="M687.2-644c0-0.5,0-0.9,0-1.3h0.8l0,0.8h0c0.2-0.4,0.8-0.9,1.6-0.9c0.7,0,1.7,0.4,1.7,2v2.8h-0.9v-2.7
			c0-0.8-0.3-1.4-1.1-1.4c-0.6,0-1,0.4-1.2,0.9c0,0.1-0.1,0.3-0.1,0.4v2.9h-0.9V-644z"/>
		<path d="M693.6-646.4v1.1h1.2v0.7h-1.2v2.5c0,0.6,0.2,0.9,0.6,0.9c0.2,0,0.4,0,0.5-0.1l0,0.7c-0.2,0.1-0.4,0.1-0.8,0.1
			c-0.4,0-0.7-0.1-0.9-0.4c-0.2-0.3-0.3-0.7-0.3-1.2v-2.6H692v-0.7h0.7v-0.9L693.6-646.4z"/>
		<path d="M697.7-640.4c-1.3,0-2.3-0.9-2.3-2.4c0-1.6,1-2.5,2.3-2.5c1.4,0,2.3,1,2.3,2.4C700-641.2,698.8-640.4,697.7-640.4
			L697.7-640.4z M697.7-641.1c0.8,0,1.4-0.8,1.4-1.8c0-0.8-0.4-1.8-1.4-1.8c-1,0-1.4,0.9-1.4,1.8
			C696.3-641.8,696.9-641.1,697.7-641.1L697.7-641.1z"/>
		<path d="M701.1-644c0-0.5,0-0.9,0-1.3h0.8l0,0.8h0c0.2-0.4,0.8-0.9,1.6-0.9c0.7,0,1.7,0.4,1.7,2v2.8h-0.9v-2.7
			c0-0.8-0.3-1.4-1.1-1.4c-0.6,0-1,0.4-1.2,0.9c0,0.1-0.1,0.3-0.1,0.4v2.9h-0.9V-644z"/>
		<path d="M707-642.7c0,1.2,0.8,1.6,1.6,1.6c0.6,0,1-0.1,1.3-0.2l0.2,0.6c-0.3,0.1-0.8,0.3-1.6,0.3c-1.4,0-2.3-1-2.3-2.4
			c0-1.4,0.8-2.6,2.2-2.6c1.5,0,1.9,1.4,1.9,2.2c0,0.2,0,0.3,0,0.4L707-642.7z M709.5-643.4c0-0.5-0.2-1.4-1.2-1.4
			c-0.9,0-1.2,0.8-1.3,1.4H709.5z"/>
		<path d="M713.4-641.5c0.2,0.1,0.8,0.4,1.4,0.4c1.1,0,1.4-0.7,1.4-1.2c0-0.9-0.8-1.3-1.6-1.3h-0.5v-0.6h0.5c0.6,0,1.4-0.3,1.4-1.1
			c0-0.5-0.3-1-1.1-1c-0.5,0-1,0.2-1.3,0.4l-0.2-0.6c0.3-0.2,1-0.5,1.7-0.5c1.2,0,1.8,0.7,1.8,1.5c0,0.7-0.4,1.2-1.2,1.5v0
			c0.8,0.1,1.4,0.7,1.4,1.6c0,1-0.8,1.9-2.3,1.9c-0.7,0-1.3-0.2-1.6-0.4L713.4-641.5z"/>
		<path d="M720.9-640.5v-1.7H718v-0.6l2.8-4.1h0.9v4h0.9v0.7h-0.9v1.7H720.9z M720.9-642.9v-2.1c0-0.3,0-0.7,0-1h0
			c-0.2,0.4-0.4,0.6-0.5,0.9l-1.6,2.2v0H720.9z"/>
		<path d="M723.8-641.1c0.2,0,0.4,0,0.7,0c0.5-0.1,1-0.3,1.3-0.6c0.4-0.4,0.7-0.9,0.8-1.7h0c-0.4,0.4-0.9,0.7-1.5,0.7
			c-1.1,0-1.9-0.9-1.9-2c0-1.2,0.9-2.2,2.2-2.2c1.3,0,2.1,1,2.1,2.7c0,1.4-0.5,2.4-1.1,3c-0.5,0.5-1.2,0.8-1.8,0.8
			c-0.3,0-0.6,0.1-0.8,0V-641.1z M725.3-646.3c-0.7,0-1.2,0.6-1.2,1.5c0,0.8,0.5,1.3,1.2,1.3c0.6,0,1-0.3,1.3-0.7
			c0-0.1,0.1-0.2,0.1-0.3C726.6-645.5,726.2-646.3,725.3-646.3L725.3-646.3z"/>
		<path d="M731.5-647.1v3.9c0,1.5,0.7,2.1,1.5,2.1c1,0,1.6-0.6,1.6-2.1v-3.9h0.9v3.8c0,2-1.1,2.8-2.5,2.8c-1.3,0-2.4-0.8-2.4-2.8
			v-3.9H731.5z"/>
	</g>
</g>
</svg>
