<svg xmlns="http://www.w3.org/2000/svg">
	<symbol id="twitter" viewBox="0 0 36 36">
	<path d="M8,106.4c0,0,32,5.3,48-9.3c0-1.3-0.7-1.3-4.7-1.3c-4.7,0-6.7-4-1.3-10c2.7-3.3-0.7-4-3.3-3.3
		C44,82.3,33.3,79,33.3,71c4.7-0.7,9.3-2,4-5.3c-6-3.3-11.3-8-11.3-14.7c3.3,0,4.7-2,4.7-2s-10-10-8-18C70,53.6,72,55,72,55l4.7,0.7
		c0,0,4.7-24,32.7-23.3c6,0,18.7,0.7,30,28c6,2,6,2,6,2l5.3,1.3l-7.3,4l8.7,4.7l-13.3,2c0,0-15.3,54.7-76.7,54.7
		C47.3,128.4,29.3,124.4,8,106.4z"/>
</symbol>
<symbol id="close1" viewBox="0 0 36 36">
	<path d="M126.4,33.5C114,21.1,97.5,14.3,80,14.3c-17.5,0-34,6.8-46.4,19.2
		c-25.6,25.6-25.6,67.3,0,92.9C46,138.9,62.5,145.7,80,145.7c0,0,0,0,0,0c17.5,0,34-6.8,46.4-19.2
		C152.1,100.8,152.1,59.2,126.4,33.5z M122.7,122.7c-11.4,11.4-26.6,17.7-42.7,17.7h0c-16.1,0-31.3-6.3-42.7-17.7
		c-23.5-23.5-23.5-61.8,0-85.3C48.7,25.9,63.9,19.6,80,19.6c16.1,0,31.3,6.3,42.7,17.7C146.2,60.9,146.2,99.1,122.7,122.7z
		 M109,56.2L85.2,80l23.8,23.8c1,1,1,2.7,0,3.8c-0.5,0.5-1.2,0.8-1.9,0.8c-0.7,0-1.4-0.3-1.9-0.8L81.5,83.8l-23.8,23.8
		c-0.5,0.5-1.2,0.8-1.9,0.8c-0.7,0-1.4-0.3-1.9-0.8c-1-1-1-2.7,0-3.8L77.7,80L53.9,56.2c-1-1-1-2.7,0-3.8c1-1,2.7-1,3.8,0l23.8,23.8
		l23.8-23.8c1-1,2.7-1,3.8,0C110.1,53.5,110.1,55.2,109,56.2z"/>
</symbol>
<symbol id="close2" viewBox="0 0 36 36">
	<path d="M145.4,111.8l-32.1-32.1l31.9-31.9c1.2-1.2,1.8-2.7,1.8-4.4c0-1.6-0.7-3.2-1.8-4.4
		l-24.5-24.5c-2.3-2.3-6.5-2.3-8.8,0L80.1,46.4L48.2,14.5c-2.3-2.2-6.5-2.3-8.8,0L14.6,39.3c-2.4,2.4-2.4,6.3,0,8.8L46.5,80
		l-31.7,31.7c-1.2,1.2-1.8,2.7-1.8,4.4c0,1.7,0.7,3.2,1.8,4.4L39.2,145c2.3,2.3,6.4,2.3,8.8,0l31.7-31.7l32.1,32.1
		c1.2,1.2,2.7,1.8,4.4,1.8c1.7,0,3.2-0.6,4.4-1.8l24.8-24.8c1.2-1.2,1.8-2.7,1.8-4.4C147.2,114.5,146.6,112.9,145.4,111.8z
		 M141.6,116.7l-24.8,24.8c-0.3,0.3-0.6,0.4-1.1,0l-34-34c-0.5-0.5-1.2-0.8-1.9-0.8c-0.7,0-1.4,0.3-1.9,0.8l-33.7,33.7
		c-0.4,0.4-0.7,0.4-1.1,0l-24.5-24.5c-0.2-0.2-0.2-0.4-0.2-0.5c0-0.1,0-0.4,0.2-0.5L52.2,82c1.1-1.1,1.1-2.8,0-3.8L18.4,44.3
		c-0.3-0.3-0.3-0.8,0-1.1l24.8-24.8c0.2-0.2,0.9-0.2,1.1,0l33.8,33.8c1.1,1.1,2.8,1.1,3.8,0l33.8-33.8c0.2-0.2,0.9-0.2,1.1,0
		l24.5,24.5c0.1,0.1,0.2,0.3,0.2,0.5c0,0.2-0.1,0.4-0.2,0.5l-33.8,33.8c-0.5,0.5-0.8,1.2-0.8,1.9c0,0.7,0.3,1.4,0.8,1.9l34,34
		c0.1,0.1,0.2,0.3,0.2,0.5C141.8,116.4,141.7,116.5,141.6,116.7z"/>
</symbol>
<symbol id="arrowdown" viewBox="0 0 36 36">
	<path d="M52.7,87.6h-7.6c-0.8,0-0.8,0-1.5,0h-0.8c0,0-0.8,0-0.8,0.8l0,0c-0.8,0-0.8,0.8-0.8,0.8l0,0
		c0,0-0.8,0.8-0.8,1.5c-0.8,2.3-0.8,4.5,0.8,6.8l22.7,25.8c1.5,1.5,3,2.3,4.5,2.3c2.3,0,3.8-0.8,4.5-2.3l22.7-25.8
		c0.8-0.8,0.8-2.3,0.8-3.8l0,0c0-0.8,0-0.8,0-0.8c0-0.8,0-0.8-0.8-1.5c-0.8-2.3-3-3-5.3-3H83c1.5-17.4,9.8-31.1,18.2-31.1
		c5.3,0,10.6,4.5,14.4,12.9c0.8,2.3,3.8,3,6.1,2.3c1.5-0.8,3-2.3,3-4.5c0-0.8,0-0.8,0-1.5c-6.8-19.7-19.7-31.8-33.3-31.8
		C71.7,34.6,55.8,56.5,52.7,87.6z M115.6,58.8c-3.8-5.3-9.1-7.6-14.4-7.6c-12.9,0-22.7,15.9-24.2,38.6v3h13.6h0.8l0,0l0,0
		l-22.7,25.8c0,0,0,0-0.8,0c0,0-0.8,0-0.8-0.8L44.4,92.1v-0.8l0,0l0,0h12.9v-3c3-28.8,16.7-50,33.3-50
		C100.5,39.9,108.8,46.7,115.6,58.8z M14.1,80c0,36.4,29.5,65.9,65.9,65.9s65.9-29.5,65.9-65.9S116.4,14.1,80,14.1
		S14.1,43.6,14.1,80z M139.8,80c0,33.3-27.3,60.6-60.6,60.6S18.6,113.3,18.6,80s27.3-60.6,60.6-60.6C113.3,19.4,139.8,46.7,139.8,80
		z"/>
</symbol>
<symbol id="facebook" viewBox="0 0 36 36">
	<path d="M116.7,26.9H94.3v29.9h22.4v27.2H94.3v70.1H67.8V84.8H43.3V57.6h24.5V20.8
		c0,0-0.7-15,14.3-15c34.7,0,34.7,0,34.7,0V26.9z"/>
</symbol>
<symbol id="mail" viewBox="0 0 36 36">
	<path d="M12,32.2v95.6H148V32.2H12z M142.9,123.5L93.8,83.9L80,95.1L66.2,83.9l-49.9,38.8l46.5-42.2
		L17.1,39.1L80,87.3l63.7-49.9L97.2,80.4L142.9,123.5z"/>
</symbol>
<symbol id="rss" viewBox="0 0 36 36">
	<path d="M46.5,114.2c2.8,2.8,4.9,7,4.9,11.9c0,4.9-2.1,9.1-4.9,11.9l0,0
		c-2.8,2.8-7,4.9-11.9,4.9s-8.4-2.1-11.9-4.9c-2.8-2.8-4.9-7-4.9-11.9c0-4.9,2.1-9.1,4.9-11.9l0,0c2.8-2.8,7-4.9,11.9-4.9
		S43.8,110.7,46.5,114.2z M46.5,114.2L46.5,114.2L46.5,114.2L46.5,114.2z M23.5,137.9L23.5,137.9L23.5,137.9L23.5,137.9z M18.7,59.8
		v24.4c15.3,0,30,6.3,41.1,17.4s16.7,25.8,16.7,41.8l0,0l0,0h23.7c0-23-9.1-43.9-23.7-58.6C61.9,68.8,41,59.8,18.7,59.8z M18.7,16.6
		V41c55.1,0,99.7,46,99.7,101.8H142c0-34.9-13.9-66.2-36.2-89.2C83.5,30.5,52.8,16.6,18.7,16.6z"/>
</symbol>
<symbol id="arrow-right" viewBox="0 0 36 36">
	<path display="inline" fill="none" d="M79,15.8c-35.3,0-64,28.7-64,64c0,35.3,28.7,64,64,64c35.3,0,64-28.7,64-64
		C143,44.4,114.3,15.8,79,15.8z M62,110.2V95.3l24.7-15.7L62,63.9V49.1l48.1,30.5L62,110.2z"/>
</symbol>
<symbol id="search" viewBox="0 0 36 36">
	<path fill="#000000" d="M146.5,132l-32.8-29.8c-3-3-7-3-9.9-2l-5-5c7-8.9,10.9-19.9,10.9-31.8
		c0-27.8-22.8-49.7-49.7-49.7c-27.8,0-49.7,22.8-49.7,49.7c0,27.8,22.8,49.7,49.7,49.7c12.9,0,24.8-5,33.8-12.9l6,5c-1,3,0,7,2,8.9
		l32.8,29.8c4,3,8.9,3,12.9,0C150.5,141,150.5,135,146.5,132z M60.1,99.2c-19.9,0-35.8-15.9-35.8-35.8s15.9-35.8,35.8-35.8
		s35.8,15.9,35.8,35.8C95.8,83.4,79.9,99.2,60.1,99.2z"/>
</symbol>
<symbol id="globe" viewBox="0 0 36 36">
	<path d="M80,7.8C39.9,7.8,7.8,40.5,7.8,80c0,40.1,32.7,72.1,72.2,72.1s72.1-32.7,72.1-72.1
		C152.1,39.9,119.5,7.8,80,7.8z M80,146.6c-36.4,0-66.6-29.6-66.6-66.6C13.4,43.6,43,13.4,80,13.4c36.4,0,66.6,29.6,66.6,66.6
		C146.6,117,116.4,146.6,80,146.6z M136.1,54.7c-1.8,0-3.1,1.2-2.5,3.1c0,2.5-3.1,5.6-8,8.6c-8,4.3-6.8,8-3.7,16.7
		c2.5,6.8-10.5,28.4-16.7,33.3c-0.6-1.2-1.2-5.6-1.8-9.2v-8c0,0,0-1.2-1.2-9.9c0,0,0,0,0-0.6l-1.8-7.4c0-0.6-0.6-0.6-0.6-1.2
		l-6.2-6.8c0-0.6-0.6-0.6-1.2-0.6c-0.6,0-12.9-4.9-18.5-6.8c0,0-1.2,0-1.2-1.8c0-2.5,1.2-6.2,3.7-7.4C77.5,56,78.8,56,80,56
		c1.2,0,2.5,0.6,4.3-1.2c1.8-1.8,1.8-3.7,1.2-9.2c-0.6-3.7-1.8-6.8-3.7-8.6c-3.7-3.1-8-2.5-11.7-1.8c-1.2,0-1.8,0-2.5,0
		c-6.8,0-8,4.9-10.5,16l-0.6,2.5v0.6c0-0.6-0.6-0.6-0.6-1.2c-0.6-1.2-1.2-7.4-1.2-12.3c0-1.2-1.2-2.5-2.5-2.5s-2.5,0-3.1,1.2
		l-4.9,8.6c0,0,0,0,0,0.6c0,0-1.2,2.5-7.4,4.3c-2.5,1.8-2.5,1.8-2.5,1.8c-0.6-1.2,0.6-8,3.1-13.6c0.6-1.2,0-3.1-1.2-3.7
		c-1.2-0.6-3.1,0-3.7,1.2c-1.8,4.3-6.2,16-1.8,20.3c1.2,1.2,3.7,2.5,7.4,1.2c8-3.1,9.9-6.2,10.5-8l0,0c0.6,3.1,0.6,4.9,1.2,5.6
		c0.6,0.6,3.1,5.6,6.8,4.9c2.5-0.6,3.7-2.5,4.9-5.6l0.6-2.5C64.6,43.6,64.6,43,66.4,43c1.2,0,1.8,0,3.1,0c2.5-0.6,5.6-0.6,7.4,0.6
		c1.2,0.6,1.8,2.5,1.8,4.3s0,3.1,0,3.7c-1.2,0-3.1,0-5.6,1.2c-5.6,2.5-7.4,8.6-6.8,12.9c0.6,3.7,2.5,6.2,5.6,6.8
		c4.3,1.2,14.8,4.9,17.3,6.2l5.6,6.2l1.8,6.8c0.6,3.7,1.2,8,1.2,8.6v8c0,3.7,0.6,12.3,4.9,14.8c0.6,0,1.2,0.6,2.5,0.6
		c0.6,0,1.8,0,3.1-1.2c5.6-3.7,22.8-29,19.1-40.1c-2.5-7.4-2.5-7.4,1.2-9.9c8-4.3,11.7-9.3,11.1-14.2
		C139.2,55.9,138,54.7,136.1,54.7z M45.5,88.6c-1.8-0.6-4.9-1.8-5.5-2.5c-2.5-2.5-3.7-3.1-5.5-4.3c-1.2-0.6-2.5-1.2-3.7-2.5
		c-1.2-1.2-3.1-1.2-4.3-0.6c-1.2,0.6-4.9,1.8-6.2,19.1c0,1.9,1.2,3.1,2.5,3.1c1.8,0,3.1-1.2,3.1-2.5c0.6-4.9,1.2-10.5,2.5-12.9
		c1.2,0.6,1.8,1.2,3.1,1.8c1.2,0.6,2.5,1.8,4.3,3.1c1.8,1.8,4.9,3.1,8,4.3c1.2,0.6,3.7,1.2,4.9,1.9l0,0c-4.3,3.7-5.5,4.9-7.4,9.2
		c-2.5,4.3-5.5,14.2-5.5,14.8c-0.6,1.2,0,3.1,1.8,3.7c0.6,0,0.6,0,1.2,0c1.2,0,2.5-0.6,2.5-1.9c0,0,3.1-9.9,5.6-14.2
		c1.8-3.7,2.5-3.7,6.2-7.4l0.6-0.6c1.8-1.9,1.8-3.7,1.8-4.9C54.1,91.7,50.4,90.5,45.5,88.6z"/>
</symbol>
<symbol id="communication" viewBox="0 0 36 36">
	<path d="M120.1,60.3c-0.4,0-0.8,0.1-1.1,0.2c-1.9-19.7-17.5-35.1-36.1-35.1h-34
		c-19.8,0-36.3,17.6-36.3,39.1c0,18.1,11.3,34,27.8,38v23.8c0,1.1,0.6,2.3,1.7,2.8c0.6,0,0.6,0,1.1,0c0.6,0,1.1,0,1.7-0.6l28.3-24.9
		H75c-0.4,0.9-0.4,1.9,0.4,2.6c5.1,7.4,13,11.9,21.5,11.9h7.9l14.7,15.3c0.6,0.6,1.1,1.1,2.3,1.1c0.6,0,0.6,0,1.1,0
		c1.1-0.6,1.7-1.7,1.7-2.8v-14.2c13-1.7,22.7-13.6,22.7-28.3C146.8,72.8,134.9,60.3,120.1,60.3z M72.2,97.4V98c-0.6,0-1.1,0-1.7,0.6
		l-24.4,21.5v-19.8c0-1.1-1.1-2.3-2.3-2.8c-14.7-2.8-25.5-17-25.5-33.4c0-18.7,13.6-33.4,30.6-33.4h34c17,0,30.6,15.3,30.6,33.4
		c0,18.1-13.6,33.4-30.6,33.4H72.2z M120.7,112.5c-1.7,0-2.8,1.1-2.8,2.8v9.1l-10.8-11.3c-0.6-0.6-1.1-1.1-2.3-1.1h-8.5
		c-6.5,0-11.9-3.1-15.9-8.3h2.5c19.4,0,35.6-16.8,36.2-37.8c0.3,0.1,0.6,0.2,1,0.2c11.3,0,21,10.2,21,23.2
		C141.1,101.7,132,111.9,120.7,112.5z M90.9,58.3h-51c-1.7,0-2.8-1.1-2.8-2.8c0-1.7,1.1-2.8,2.8-2.8h51c1.7,0,2.8,1.1,2.8,2.8
		C93.7,57.1,92.6,58.3,90.9,58.3z M68.2,73.6c0,1.7-1.1,2.8-2.8,2.8H40.4c-1.7,0-2.8-1.1-2.8-2.8c0-1.7,1.1-2.8,2.8-2.8h24.9
		C67.1,70.7,68.2,72.4,68.2,73.6z"/>
</symbol>
<symbol id="docs1" viewBox="0 0 36 36">
	<path d="M131.6,17.8H28.4c-1.6,0-2.6,1.1-2.6,2.6v119.1c0,1.6,1.1,2.6,2.6,2.6h86.4
		c1.6,0,2.6-1.1,2.6-2.6V52.6h14.2c1.6,0,2.6-1.1,2.6-2.6v-30C133.7,18.9,132.7,17.8,131.6,17.8z M129,47.3h-14.2
		c-1.6,0-2.6,1.1-2.6,2.6v86.9H31V22.6h98V47.3z M45.2,122.1h52.2c1.6,0,2.6-1.1,2.6-2.6c0-1.6-1.1-2.6-2.6-2.6H45.2
		c-1.6,0-2.6,1.1-2.6,2.6C43.1,120.6,44.2,122.1,45.2,122.1z M45.2,106.3h52.2c1.6,0,2.6-1.1,2.6-2.6c0-1.6-1.1-2.6-2.6-2.6H45.2
		c-1.6,0-2.6,1.1-2.6,2.6C43.1,105.3,44.2,106.3,45.2,106.3z M131.6,63.7h-7.4c-1.6,0-2.6,1.1-2.6,2.6s1.1,2.6,2.6,2.6h4.7v22.7
		h-4.7c-1.6,0-2.6,1.1-2.6,2.6c0,1.6,1.1,2.6,2.6,2.6h7.4c1.6,0,2.6-1.1,2.6-2.6V66.3C133.7,64.7,132.7,63.7,131.6,63.7z
		 M131.6,107.4h-7.4c-1.6,0-2.6,1.1-2.6,2.6c0,1.6,1.1,2.6,2.6,2.6h4.7v24.2h-4.7c-1.6,0-2.6,1.1-2.6,2.6c0,1.6,1.1,2.6,2.6,2.6h7.4
		c1.6,0,2.6-1.1,2.6-2.6v-30C133.7,108.4,132.7,107.4,131.6,107.4z M48.4,89h46.9c2.6,0,4.2-2.1,4.2-4.2v-6.3c0-1.6-1.1-3.2-2.6-4.2
		c-12.6-4.7-15.8-7.4-16.3-7.9v-1.1c1.6-1.6,2.6-4.2,3.7-6.3c1.1-1.1,2.1-3.2,2.1-4.7c0-1.1-0.5-2.1-1.1-3.2v-4.7
		c0-7.9-4.7-12.6-13.2-12.6s-13.2,4.7-13.2,12.6V51c-0.5,1.1-1.1,2.1-1.1,3.2c0,1.6,0.5,3.7,2.1,4.7c1.1,2.6,2.1,4.7,3.7,6.3v1.1
		c-0.5,1.1-3.7,3.2-16.3,7.9c-1.6,0.5-2.6,2.1-2.6,4.2v6.3C44.2,86.8,46.3,89,48.4,89z M48.9,78.9c16.3-6.3,18.4-9,19-11.1v-0.5
		v-2.6c0-0.5,0-1.1-0.5-1.6c-1.6-1.6-2.6-3.7-3.2-5.8c0-0.5-0.5-1.1-1.1-1.6c-0.5-0.5-0.5-0.5-0.5-1.1c0-0.5,0-1.1,0.5-1.1
		c0.5-0.5,0.5-1.1,0.5-1.6v-5.8c0-4.7,2.6-7.4,8.4-7.4s8.4,2.6,8.4,7.4v5.8c0,0.5,0,1.1,0.5,1.6c0,0,0.5,0.5,0.5,1.1
		c0,0.5,0,1.1-0.5,1.1c-0.5,0.5-1.1,1.1-1.1,1.6c-0.5,2.6-1.6,4.2-3.2,5.8c-0.5,0.5-0.5,1.1-0.5,1.6v2.6v0.5
		c0.5,2.1,2.6,4.7,19,11.1v5.3H50v-5.3H48.9z"/>
</symbol>
<symbol id="docs2" viewBox="0 0 36 36">
	<path d="M52.5,103.7H25.1c-0.8,0-1.5-0.7-1.5-1.5V49.9h93.9v8.3c0,1.4,1.1,2.6,2.6,2.6
		c1.4,0,2.6-1.1,2.6-2.6v-21c0-3.7-3-6.6-6.6-6.6h-5.8l-2.6-12.1c-0.3-1.4-1.6-2.2-3-2L47.3,28.1c-3.6-7.9-5.8-7.9-6.9-7.9H25.1
		c-3.7,0-6.6,3-6.6,6.6v75.3c0,3.7,3,6.6,6.6,6.6h27.4c1.4,0,2.6-1.1,2.6-2.6C55.1,104.9,53.9,103.7,52.5,103.7z M103.1,22l4.8,22.8
		H34.8L33,36.2L103.1,22z M115.9,35.7c0.8,0,1.5,0.7,1.5,1.5v7.6h-4.3l-1.9-9.1H115.9z M25.1,25.3h14.8c0.5,0.6,1.4,2.1,2.3,3.9
		l-12.6,2.6c-0.7,0.1-1.3,0.5-1.6,1.1c-0.4,0.6-0.5,1.3-0.4,1.9l2.1,10h-6.1v-18C23.6,26,24.2,25.3,25.1,25.3z M101,62.4
		c-22.4,0-40.5,18.2-40.5,40.5s18.2,40.5,40.5,40.5s40.5-18.2,40.5-40.5S123.3,62.4,101,62.4z M101,138.4
		c-19.5,0-35.4-15.9-35.4-35.4S81.4,67.5,101,67.5c19.5,0,35.4,15.9,35.4,35.4S120.5,138.4,101,138.4z M123.6,103
		c0,1.4-1.1,2.6-2.6,2.6H101c-1.4,0-2.6-1.1-2.6-2.6V74.4c0-1.4,1.1-2.6,2.6-2.6s2.6,1.1,2.6,2.6v26h17.5
		C122.5,100.4,123.6,101.6,123.6,103z"/>
</symbol>
<symbol id="docs3" viewBox="0 0 36 36">
	<path d="M142,47.7h-10.1V32.6c0-1.7-1.1-2.8-2.8-2.8h-15.7v-2.8c0-1.7-1.1-2.8-2.2-2.8l-78-6.7
		c-0.6,0-1.1,0-1.7,0.6c-0.6,0.6-1.1,1.1-1.1,1.7l0,10.7H18c-1.7,0-2.8,1.1-2.8,2.8v86.5c0,1.7,1.1,2.8,2.8,2.8H23l-1.1,10.7
		c0,1.7,1.1,2.8,2.2,2.8l78,6.7l0,0c0.6,0,1.1,0,1.7-0.6c0.6-0.6,1.1-1.1,1.1-1.7l0.6-3.9H142l0,0c0.6,0,1.1,0,1.7-0.6
		c0.6-0.6,0.6-1.1,0.6-1.7l0.6-82C144.8,48.8,143.7,47.7,142,47.7z M36.5,23.6l72.4,6.2v0.6h-73L36.5,23.6z M20.8,35.4h106.7v80.8
		H20.8V35.4z M27.5,129.7l0.6-8.4h73l-1.1,14.6L27.5,129.7z M139.2,129.7h-33.7l0.6-7.9h23c1.7,0,2.8-1.1,2.8-2.8V52.8h7.3V129.7z
		 M71.9,67.9c-1.1,0-1.1,0-12.9,5.1l1.7-12.4c0-1.1,0-2.2-1.1-3.4c-0.6-1.1-1.7-1.7-2.8-1.7s-1.7,0-2.8,0c-11.8,0-21.9,9-23.6,20.8
		c-1.7,12.9,7.9,24.7,20.8,26.4c1.1,0,1.7,0,2.8,0c11.8,0,21.9-9,23.6-20.8c0.6-3.9,0-7.9-1.7-11.8C75.2,69.1,73.5,67.9,71.9,67.9z
		 M72.4,82c-1.1,9-9,16.3-18.5,16.3c-0.6,0-1.7,0-2.2,0c-10.1-1.1-17.4-10.7-16.3-20.8c1.1-9,9-16.3,18.5-16.3c0.6,0,0.6,0,1.1,0
		l-1.7,16.3c0,1.1,0.6,1.7,1.1,2.2c0.6,0.6,1.7,0.6,2.8,0.6c6.2-2.8,12.4-5.6,14.6-6.2C72.4,76.4,72.4,79.2,72.4,82z M111.7,92.6
		H90.4c-1.7,0-2.8,1.1-2.8,2.8s1.1,2.8,2.8,2.8h21.3c1.7,0,2.8-1.1,2.8-2.8C114.5,93.8,113.4,92.6,111.7,92.6z M111.7,75.8H90.4
		c-1.7,0-2.8,1.1-2.8,2.8s1.1,2.8,2.8,2.8h21.3c1.7,0,2.8-1.1,2.8-2.8S113.4,75.8,111.7,75.8z M111.7,59.5H90.4
		c-1.7,0-2.8,1.1-2.8,2.8c0,1.7,1.1,2.8,2.8,2.8h21.3c1.7,0,2.8-1.1,2.8-2.8C114.5,60.6,113.4,59.5,111.7,59.5z"/>
</symbol>

</svg>
