<svg width="64" height="64" xmlns="http://www.w3.org/2000/svg"><g><path fill="#e7e7e7" d="m29.39,24.16c-0.00,3.04 -0.42,6.00 -1.26,8.85c-0.84,2.85 -2.22,5.50 -4.14,7.94c-1.87,2.43 -4.31,4.64 -7.31,6.60c-2.95,1.92 -6.58,3.51 -10.89,4.78l0,-6.04c4.73,-1.5 8.20,-3.32 10.40,-5.48c2.20,-2.15 3.30,-4.64 3.30,-7.45c-0.00,-0.93 -0.25,-1.71 -0.77,-2.32c-0.51,-0.65 -1.17,-1.21 -1.96,-1.68c-0.79,-0.51 -1.64,-1.00 -2.53,-1.47c-0.89,-0.46 -1.73,-1.03 -2.53,-1.68c-0.79,-0.65 -1.45,-1.45 -1.96,-2.39c-0.51,-0.98 -0.77,-2.20 -0.77,-3.65c-0.00,-2.76 0.89,-4.87 2.67,-6.32c1.82,-1.45 4.07,-2.17 6.75,-2.17c1.49,0.00 2.90,0.28 4.21,0.84c1.31,0.51 2.48,1.31 3.51,2.39c1.03,1.03 1.82,2.34 2.39,3.93c0.60,1.54 0.91,3.32 0.91,5.34m28.82,0c-0.00,3.04 -0.42,6.00 -1.26,8.85c-0.84,2.85 -2.22,5.50 -4.14,7.94c-1.87,2.43 -4.31,4.64 -7.31,6.60c-2.95,1.92 -6.58,3.51 -10.89,4.78l0,-6.04c4.68,-1.5 8.13,-3.32 10.33,-5.48c2.24,-2.15 3.37,-4.64 3.37,-7.45c-0.00,-0.93 -0.25,-1.71 -0.77,-2.32c-0.51,-0.65 -1.17,-1.21 -1.96,-1.68c-0.79,-0.51 -1.64,-1.00 -2.53,-1.47c-0.89,-0.46 -1.73,-1.03 -2.53,-1.68c-0.79,-0.65 -1.45,-1.45 -1.96,-2.39c-0.51,-0.98 -0.77,-2.20 -0.77,-3.65c-0.00,-2.76 0.89,-4.87 2.67,-6.32c1.78,-1.45 4.00,-2.17 6.67,-2.17c1.49,0.00 2.90,0.28 4.21,0.84c1.35,0.51 2.53,1.31 3.51,2.39c1.03,1.03 1.85,2.34 2.46,3.93c0.60,1.54 0.91,3.32 0.91,5.34"/></g></svg>
