<svg version="1.0" id="africa" xmlns="http://www.w3.org/2000/svg" xmlns:xlink="http://www.w3.org/1999/xlink" x="0px"
	 y="0px" viewBox="-65 170 750 420" enable-background="new 0 0 612 792" xml:space="preserve">
<path fill-rule="evenodd" clip-rule="evenodd" d="M-0.5,885.6c0.4-0.5,0.5,0.5,0.9,0.5C0.1,886.8,0,885.6-0.5,885.6z"/>
<g>
	<path fill-rule="evenodd" clip-rule="evenodd" fill="#0099CC" d="M357.1,253.7c-2.9-0.2-4.6,0.8-6.9,0c-1.6,1.2-3.4,2.2-5.6,3
		c-5.8-1.2-10.4-4.1-17.4-3.3c-0.4-0.7-1.8-0.5-1.3-1.8c-3.9,0.2-5.7-1.3-9.1-1.5c-2.5-6.7-17.7-1.8-13,6.3
		c-5.6,7.8-10.4-2.7-19.5-1.5c-1.5-1.2-3.2-2.2-3-4.8c-3.8-1.5-7.7-3.8-13.5-2.6c-1.8-1.4-5.6-1.2-6.1-3.7c-2.9,0.2-4.2-1.1-4.3-3.3
		c2.8-1.5,6.3-2.5,6.1-6.6c-0.9-1-2.4-1.7-2.6-3.3c0.7-1.4,3.1-1.3,3-3.3c-1.4,0-1.5,1.2-3,1.1c-0.5-0.8-0.5-2.1-1.3-2.6
		c-6.4,1.3-10.7,2.9-16.1,1.1c-1,1.1-3,1.4-4.8,1.8c-7.2-1.8-19.4,0.3-24.3,4.1c-1.1,0.3-2.3,0.5-3.9,0.4
		c-2.8,6.3-10.7,1.5-16.9,3.3c-1.2-1.3-2.9-2.2-4.3-3.3c-4.1,3.9-4.6,10.9-12.6,11.4c-3.7,4.9-9.8,9-7.4,17
		c-4.1,4.1-8.1,8.4-15.6,9.6c-2.2,2.8-3.2,6.7-7.4,7.8c-0.8,6-6.3,10.3-8.7,15.9c-0.8,1.8-3.3,3.1-3.9,4.4c-2,4.6,3.6,5.8,2.6,10.3
		c-0.1,0.5-1,1.2-1.3,2.2c4.4,7.3-2.1,16.5-5.2,22.1c3.7,3.5,1.1,6.2,1.7,11.4c1.8,0.1,1.8,1.7,3,2.2c2.1,0.6,4.2-2.1,5.2,0
		c0.1,0.8-1.5,0.2-2.2,0.4c0.3,1.3-0.6,1.4-0.4,2.6c2.4,1.1,4.2,1.3,4.3,4.8c7.5,3.3,3.4,10.4,10,14c9,2.4,11.9,14.1,22.1,13.3
		c1.8-0.1,3.4-1.9,5.6-2.6c6.5-1.9,13.2-1.6,19.1,1.1c4.3-1.7,8.7-5.1,13.9-4.8c1.6-3.3,15.9-4.1,18.2-2.2c2.4,1.9,1.4,5.5,3,7.4
		c2,2.3,5,1.6,7.4,0c1.1,0.4,2.1,0.9,3.9,0.7c0.9-0.2,0.1-1.9,1.7-1.5c0.6,1.2,3.3,0.6,2.6,3c1.3,0.8,2.6,0.8,3.5,1.1
		c2.4,5.7-1.2,12-1.3,17c0.3,1,2.4,0.4,2.2,1.8c-0.8,0.7-1.1-0.3-2.6,0c0.2,1.5-1.3,2.8-2.2,4.4c2.8,10.3,14,13.4,16.1,24.3
		c0.5,3.5,3.4,7.9,4.8,11.8c-2.4,4.1,0,7.9,2.2,11.1c-1.1,1.6,0.1,3.5-0.4,5.5c-0.7,2.5-2.7,2.8-4.3,4.8c-1.5,1.8-2.4,5.4-3,7.8
		c-1.4,5.1-4.1,10.7-2.2,17c0.5,1.7,2.2,2.6,3,3.7c2.2,2.9,2.9,6.5,4.8,10c1.8,3.2,5.8,6,5.6,10c-0.2,3.9,0.8,6.3,1.7,10
		c1.6,6.7,1.2,12.5,6.9,17.3c0.6,0.1,1.6-0.1,1.7,0.4c2.1,7.3,7.7,11.6,8.7,19.9c-0.3,0.6-1.3,0.6-1.7,1.1c1.1,1.6,2.7,2.9,2.6,5.5
		c2.8,0.5,3.7,2.7,6.9,3c3-1.8,9.1-0.9,11.3-3.3c6,0.2,10.6,1,15.2,0.4c0.6-0.2,0.1-1.4,0.9-1.5c8.6,0.7,12.9-6,16.1-9.6
		c0.9-1,2.8-1.4,3.9-2.6c3.4-3.7,4.6-8.9,7.8-11.4c1.2-0.9,2.8-1.1,3.5-2.2c-0.1-4.3,1.6-6.3,1.7-9.6c-0.7-0.6-1.3-1.1-1.7-1.8
		c1.8-5.1,10.6-4.2,13.5-8.5c-1.1-3,1.1-5.9,0.9-9.2c-2.7-1.7-1.3-7-4.3-8.5c0-1,0-3.3,0.4-3.7c3.5-2.6,7-6.6,7.8-5.2
		c1.8-6.6,10.6-7.3,16.1-10.7c0.1-2.6,2-3.7,3.9-4.8c1.6-5.2-3.1-16.3,0.9-22.1c-3.1-4.9-8.9-11.1-5.2-18.4
		c-1.2-1.2-1.9-2.8-3.5-3.7c0.1-7.5,5.7-10.4,6.5-17.3c8.3-6.9,14-15.9,22.6-22.5c0.7,0,1.4,0,2.2,0c4.4-4.8,10.5-8,12.6-14.8
		c6.3-4.9,7-14.5,12.2-20.3c-0.1-4.7,2.6-5.9,1.7-11.8c-1.2,0.3-1.1-0.5-2.2-0.4c-4.7,4.5-14.4,2.1-19.1,5.9
		c-5-2.1-6.3,1.9-12.2,1.1c-1-2.2-3.2-3.4-4.3-5.5c-1.2-0.2-2.7,1.1-3.5,0c0.7-1.3,2.3-2,3.9-2.6c-1.5-5.4-7.9-6.6-9.5-11.8
		c-3.4-0.8-4.9-1.4-6.5-3.3c-0.2,0.5-0.6,0.8-1.3,0.7c-3.9-3.7-2.2-11-5.6-14.8c-1.7-1.8-4.5-1.5-5.6-3.7c-1.4-4.8,0.2-7.1-0.9-11.1
		c-1.5-5.8-10.4-7.2-7.4-13.7c-4.6-4.7-7-11.2-9.1-18.1c-3.3-1.8-4.4-5.6-5.6-9.2c0.5-0.5,0.4-1.6,1.7-1.5"/>
</g>
</svg>
