<svg version="1.0" id="kosovo" xmlns="http://www.w3.org/2000/svg" xmlns:xlink="http://www.w3.org/1999/xlink" x="0px" y="0px"
	 viewBox="5 35 150 90" enable-background="new 0 0 160 160" xml:space="preserve">
<g>
	<path id="_x34_" fill="#2A4C9E" d="M2.441,35.04h154.26v89.981H2.441L2.441,35.04z"/>
</g>
<g>
	<path fill="#EDAD49" d="M80.25,63.55c0.527,0.614,0.877,1.227,0.877,1.974c-0.442,0.22-1.053,0.307-1.404,0.706
		c2.199-0.312,2.636,2.24,5.095,1.273c0.09,0.353,0.442,0.659,0.879,0.526l0.266-0.7c0.961-0.266,0.698,1.314,1.756,1.01
		c0.529,0.44,0.176,1.186,0.529,1.718c0,0.608,0.263,1.14,0.524,1.667c0.263-0.307,0.437-0.747,1.053-0.614
		c0.44,0.481,0.795,0.92,0.882,1.447c-0.179,1.012-0.442,1.892,0.611,2.418v0.307c0.706,0.307,2.288-0.307,2.288,0.92
		c-0.089,0.44,0.44,0.046,0.616,0.307c0.44-0.174,1.053-0.087,1.58-0.087c0.437,0.925-0.527,1.585-0.79,2.418
		c0.437,0.44,0.263,1.233,0.174,1.754l-0.263,0.133c0.7,0.133,1.583-0.087,2.199,0.312l1.143,0.435
		c0.527-0.302,1.138-0.348,1.843-0.302c0.527,0.394-0.176,1.053,0.266,1.355c0.616,0,1.14,0.092,1.227,0.619l0.092,0.174
		c0.435-0.792,1.669-0.261,2.194-0.834c0.879,0,1.053,0.967,1.493,1.493c0.176,1.365-1.493,1.984-0.964,3.344
		c-0.355,0.654-1.053,1.181-1.583,1.8c0.174,0.087,0.087,0.307,0.087,0.435c-0.529,0.312-0.087,1.237-0.793,1.319
		c-0.084,0.573-1.138,0.353-0.79,0.972c0.706,0.92-0.348,1.493-0.348,2.327c-0.442,0.486-1.322-0.44-1.322,0.486
		c-0.529,0.133-1.056-0.486-1.404,0.041c-0.181,0.619,0.348,0.834,0.266,1.452c0.872-0.092,1.138,0.787,1.488,1.314l0.879,0.885
		c-0.879,0.701-2.02-0.092-3.076,0.302c-0.263-0.128,0-0.475-0.263-0.608c-0.263-0.312-0.79-0.312-1.227-0.399
		c0.082,0.399-0.708,0.532-0.355,1.01c0,0.133,0.174,0.527-0.174,0.527c-0.706,0.225-0.616-0.608-1.232-0.302
		c-0.79,0.302-0.174,1.488-1.319,1.36c0.174,1.053-1.751,1.759-0.437,2.679c0.174,0.174,0.087,0.527,0.087,0.792
		c-0.792,0.706-2.194,0.44-3.076,0.179c-0.706-0.179-0.261-1.063-0.524-1.539c-0.266-0.445-1.053-0.752-1.053-1.365
		c-0.529-0.22-0.972-0.353-1.324-0.792c-1.227,1.186-2.723,2.332-4.479,2.372c-0.79,0.394-1.232,1.984-2.46,1.324
		c-0.486,0.787-1.935,0-2.02,1.135c-0.57,0.225-0.307,0.972-0.657,1.319c-0.136,0.879,0,1.626,0.744,2.153
		c0.309,0.659-0.657,0.659-0.263,1.278c0.089,0.215,0,0.526-0.13,0.613c-0.263,0.133-0.35,0.266-0.263,0.532
		c-0.223,0-0.309,0.128-0.483,0.302c-0.22,0.44-0.923,0.659-1.409,0.966c-0.481,0.133-0.833-0.215-1.14-0.526
		c-0.092,0.486-0.486,0.746-0.967,0.746c-0.703,0-0.573-0.614-1.099-0.879c0.217-0.787-0.486-1.14-0.263-1.846
		c0.573-0.435,1.536-0.747,1.276-1.672c-0.616-0.741-0.399-1.841-1.012-2.72c-0.394-0.348-1.053-0.874-0.836-1.713
		c0.573-0.66,0-1.452-0.307-2.153c-0.13-0.573-0.483-1.099-0.483-1.759c-0.966-0.568-1.01-2.066-2.372-2.199
		c-0.967,0-1.14-1.227-2.107-1.14c-0.092-0.174-0.309-0.307-0.486-0.481c-0.703,0.481-1.583-0.133-2.459,0.082
		c-0.573-0.961,0.481-2.28-1.058-2.853v-0.613c0.179,0.087,0.266-0.087,0.312-0.179c0.087-0.659-1.102-0.741-0.616-1.488
		c-0.263-0.225-0.573-0.312-0.394-0.752c-0.665-1.36-2.638-1.227-3.081-2.592c0.356-0.302,0.356-0.614,0.486-0.879
		c-0.307-0.527-0.394-1.094-0.307-1.667c0.307-0.087,0.481-0.486,0.659-0.793c-0.396-0.266-0.877-0.659-1.319-0.527
		c-0.79-0.133-1.363-0.746-2.063-1.099c-0.179-0.174-0.087-0.481-0.087-0.701c0.967-0.312-0.135-1.672,1.053-1.493
		c0.307-0.399,0.966-0.526,1.447-0.839c0.486-0.087,0.882,0.092,1.363,0.225c0.396,0.521,1.097,0.302,1.496,0.741
		c0.396-0.087,0.877-0.307,1.363-0.087c0-0.747,0.348-1.186,0.88-1.713c0.087-0.307,0.57-0.527,0.964-0.701
		c0.747,0.174,1.626,0.174,2.155-0.353c0.35,0.22,0.659-0.22,1.053-0.22c0.483-0.092,0.877,0.041,1.232,0.261
		c0.041-0.879,1.58-0.128,1.887-1.186c0.353-0.701-0.966-0.966-0.879-1.58c-0.217-0.706,0.307-1.053,0.573-1.534
		c0.307-0.133,0.66-0.312,1.053-0.225c1.01-0.348,0.22-2.418,1.848-1.667c0,0.22-0.092,0.481,0.043,0.527
		c0.57,0,0.657-0.66,1.053-0.88c0.174-0.613-0.223-1.36,0.307-1.846c0.261-0.041,0.483-0.128,0.659-0.353
		c0-0.481-0.263-0.747-0.659-1.053c-0.133,0.22-0.481,0.046-0.703,0.133c0-0.526-0.307-0.879-0.396-1.365
		c-0.261-0.128-0.396-0.348-0.304-0.66c0.394-0.394,0-1.36,0.923-1.14c0.348-0.307,0.964-0.087,1.314-0.614
		c0.923-0.527,2.155-0.527,2.858-1.493c0.307,0.046,0.66-0.266,0.967,0c0.087,0.57,0.922,0.35,0.922,0.882"/>
	<g>
		<path fill="#FFFFFF" d="M53.06,63.24l-3.258-2.29l-3.257,2.29l1.252-3.69l-3.27-2.28l4.03,0.01l1.24-3.7l1.238,3.7l4.04-0.01
			l-3.277,2.27L53.06,63.24z"/>
		<path fill="#FFFFFF" d="M64.05,59.728l-3.263-2.298l-3.257,2.298l1.253-3.698l-3.273-2.274l4.04,0.005l1.237-3.701l1.233,3.701
			l4.04-0.01l-3.271,2.279L64.05,59.728z"/>
		<path fill="#FFFFFF" d="M88.61,57.31l-3.26-2.29l-3.26,2.29l1.25-3.697l-3.27-2.273h4.04l1.24-3.7l1.24,3.7h4.03l-3.27,2.273
			L88.61,57.31z"/>
		<path fill="#FFFFFF" d="M100.47,59.728l-3.26-2.298l-3.26,2.298l1.26-3.698l-3.27-2.274l4.03,0.005l1.24-3.701l1.24,3.701
			l4.03-0.01l-3.27,2.279L100.47,59.728z"/>
		<path fill="#FFFFFF" d="M75.73,57.31l-3.26-2.29l-3.25,2.29l1.25-3.697L67.2,51.34h4.03l1.24-3.7l1.24,3.7h4.04l-3.28,2.273
			L75.73,57.31z"/>
		<path fill="#FFFFFF" d="M112.6,63.24l-3.26-2.29l-3.26,2.29l1.25-3.69l-3.27-2.28l4.04,0.01l1.24-3.7l1.23,3.7l4.04-0.01
			l-3.27,2.27L112.6,63.24z"/>
	</g>
</g>
</svg>
