<?xml version="1.0" encoding="utf-8"?>
<svg version="1.0" id="author" xmlns="http://www.w3.org/2000/svg" xmlns:xlink="http://www.w3.org/1999/xlink" x="0px" y="0px"
	 viewBox="0 0 160 160" enable-background="new 0 0 160 160" xml:space="preserve">
<path fill="#0db8fe" d="M80.478,96.202c25.733,0,46.596-20.866,46.596-46.596
	c0-25.733-20.863-46.594-46.596-46.594S33.884,23.873,33.884,49.606C33.884,75.336,54.745,96.202,80.478,96.202z M104.815,100.315
	c-7.102,4.383-15.383,7.029-24.337,7.029c-8.957,0-17.237-2.646-24.337-7.029c-25.051,7.583-43.28,29.274-43.28,55.152
	c0,0.524,0.15,1.002,0.168,1.521h134.899c0.012-0.519,0.168-0.997,0.168-1.521C148.095,129.588,129.863,107.898,104.815,100.315z"/>
</svg>
