<?xml version="1.0" encoding="utf-8"?>
<svg version="1.0" id="calendar" xmlns="http://www.w3.org/2000/svg" xmlns:xlink="http://www.w3.org/1999/xlink" x="0px" y="0px"
	 viewBox="0 0 160 160" enable-background="new 0 0 160 160" xml:space="preserve">
<path fill="#0db8fe" d="M10.059,149.939c0,3.395,2.751,6.147,6.145,6.147h127.593c3.39,0,6.145-2.752,6.145-6.147V47.099H10.059
	V149.939z M113.357,59.225h24.468v24.27h-24.468V59.225z M113.357,89.865h24.468v24.275h-24.468V89.865z M113.357,120.097h24.468
	v24.27h-24.468V120.097z M82.648,59.225h24.47v24.27h-24.47V59.225z M82.648,89.865h24.47v24.275h-24.47V89.865z M82.648,120.097
	h24.47v24.27h-24.47V120.097z M51.941,59.225h24.468v24.27H51.941V59.225z M51.941,89.865h24.468v24.275H51.941V89.865z
	 M51.941,120.097h24.468v24.27H51.941V120.097z M21.231,59.225h24.473v24.27H21.231V59.225z M21.231,89.865h24.473v24.275H21.231
	V89.865z M21.231,120.097h24.473v24.27H21.231V120.097z M143.797,22.507h-24.211V3.914h-11.928v18.594H52.342V3.914H40.419v18.594
	H16.203c-3.393,0-6.145,2.756-6.145,6.147v10.008h139.883V28.654C149.941,25.263,147.187,22.507,143.797,22.507z"/>
</svg>
