<?xml version="1.0" encoding="utf-8"?>
<!-- Generator: Adobe Illustrator 18.1.1, SVG Export Plug-In . SVG Version: 6.00 Build 0)  -->
<svg version="1.1" xmlns="http://www.w3.org/2000/svg" xmlns:xlink="http://www.w3.org/1999/xlink" x="0px" y="0px"
	 viewBox="0 0 829.6 307.5" enable-background="new 0 0 829.6 307.5" xml:space="preserve">
<g id="Layer_1">
	<g>
		<path fill="#FFFFFF" d="M173.3,48.7c3.5-4.4,5.7-10,5.7-16.2c0-14.3-11.6-25.9-25.9-25.9c-14.3,0-25.9,11.6-25.9,25.9
			c0,9.4,5,17.6,12.5,22.2l0,0c-59.1,22.4-84.1,101.9-30.2,137.1c31.2,13,48.3-2.9,56-13c-6.5,2.9-10.6,2.9-17.7,1.8
			c-89.5-14.7-25-157.6,81.9-81.9c9.4,5.9,15.8,7.4,22.2,1c6.4-6.4,4.7-16.4-1.8-21.7C222.7,57.4,196.5,48.9,173.3,48.7z"/>
		<path fill="#FFFFFF" d="M260.6,176.2c4.4,3.5,10,5.7,16.2,5.7c14.3,0,25.9-11.6,25.9-25.9c0-14.3-11.6-25.9-25.9-25.9
			c-9.4,0-17.6,5-22.2,12.5l0,0c-22.4-59-101.9-84.1-137.1-30.2c-13,31.2,2.9,48.3,13,56c-2.9-6.5-2.9-10.6-1.8-17.7
			c14.7-89.5,157.6-25,81.9,81.9c-5.9,9.4-7.4,15.8-1,22.2c6.4,6.4,16.4,4.7,21.7-1.8C251.9,225.6,260.4,199.4,260.6,176.2z"/>
		<path fill="#FFFFFF" d="M130.9,261.3c-3.7,4.3-5.9,9.9-6.1,16c-0.4,14.3,10.9,26.2,25.2,26.6c14.3,0.4,26.2-10.9,26.6-25.2
			c0.2-9.4-4.6-17.7-11.9-22.5l0,0c59.6-20.9,86.7-99.7,33.8-136.2c-30.9-13.8-48.4,1.7-56.3,11.5c6.6-2.8,10.7-2.7,17.7-1.3
			c89.1,17,20.9,158.2-84,79.7c-9.2-6.2-15.6-7.8-22.2-1.6c-6.6,6.3-5.2,16.3,1.2,21.8C81.8,251.4,107.7,260.6,130.9,261.3z"/>
		<path fill="#FFFFFF" d="M47,134.8c-4.4-3.5-10-5.7-16.2-5.7C16.6,129.2,5,140.8,5,155.1C5,169.4,16.6,181,30.9,181
			c9.4,0,17.6-5,22.2-12.5c0,0,0,0,0,0c22.4,59,101.9,84.1,137.1,30.1c12.9-31.2-3-48.3-13-56c2.9,6.5,2.9,10.6,1.8,17.7
			c-14.6,89.5-157.5,25-81.9-81.8c5.9-9.4,7.4-15.8,1-22.2c-6.4-6.4-16.4-4.7-21.7,1.8C55.6,85.5,47.2,111.6,47,134.8z"/>
	</g>
	<g>
		<path fill="#FFFFFF" d="M321.1,56.7h15.8c15.8,0,28.5,9.8,28.5,26.3c0,17.9-10.9,27.2-28.5,27.2h-15.8V56.7z M328.7,103.4h8
			c13.2,0,20.4-6.4,20.4-20.1c0-12.5-8.5-19.8-19.5-19.8h-9V103.4z"/>
		<polygon fill="#FFFFFF" points="370.2,56.7 400.1,56.7 400.1,63.4 377.8,63.4 377.8,79 398.1,79 398.1,85.8 377.8,85.8 
			377.8,103.4 400.1,103.4 400.1,110.1 370.2,110.1 		"/>
		<polygon fill="#FFFFFF" points="434.5,110.1 424.9,110.1 404.7,56.7 413.3,56.7 429.8,103.4 429.9,103.4 446.9,56.7 454.9,56.7 		
			"/>
		<polygon fill="#FFFFFF" points="459.4,56.7 489.3,56.7 489.3,63.4 467,63.4 467,79 487.3,79 487.3,85.8 467,85.8 467,103.4 
			489.3,103.4 489.3,110.1 459.4,110.1 		"/>
		<polygon fill="#FFFFFF" points="497.9,56.7 505.5,56.7 505.5,103.4 527.9,103.4 527.9,110.1 497.9,110.1 		"/>
		<path fill="#FFFFFF" d="M554.9,55.7c16.2,0,25.7,11.8,25.7,27.6c0,16.2-9.4,27.6-25.7,27.6c-16.3,0-25.7-11.4-25.7-27.6
			C529.2,67.5,538.7,55.7,554.9,55.7z M554.9,104.3c12.3,0,17.6-10.3,17.6-20.9c0-10.9-5.8-21-17.6-20.9
			c-11.8-0.1-17.6,10-17.6,20.9C537.3,94,542.6,104.3,554.9,104.3z"/>
		<path fill="#FFFFFF" d="M587.8,56.7h14c10.9,0,20.1,3.8,20.1,16c0,11.9-9.3,16.1-18.9,16.1h-7.5v21.4h-7.7V56.7z M595.5,82h7.6
			c4.7,0,10.7-2.4,10.7-9.4c0-6.7-7-9.2-11.8-9.2h-6.5V82z"/>
		<polygon fill="#FFFFFF" points="628,56.7 640.7,56.7 657.4,101.1 673.9,56.7 686.5,56.7 686.5,110.1 678.9,110.1 678.9,63.9 
			678.7,63.9 661,110.1 653.5,110.1 635.8,63.9 635.7,63.9 635.7,110.1 628,110.1 		"/>
		<polygon fill="#FFFFFF" points="695.9,56.7 725.8,56.7 725.8,63.4 703.5,63.4 703.5,79 723.8,79 723.8,85.8 703.5,85.8 
			703.5,103.4 725.8,103.4 725.8,110.1 695.9,110.1 		"/>
		<polygon fill="#FFFFFF" points="734.4,56.7 744.8,56.7 768.4,99.7 768.5,99.7 768.5,56.7 776.2,56.7 776.2,110.1 766.4,110.1 
			742.2,66.1 742,66.1 742,110.1 734.4,110.1 		"/>
		<polygon fill="#FFFFFF" points="798.2,63.4 781.6,63.4 781.6,56.7 822.5,56.7 822.5,63.4 805.9,63.4 805.9,110.1 798.2,110.1 		
			"/>
		<path fill="#FFFFFF" d="M384.4,139.5c-5.5-3.6-11.5-5.4-21.6-5.4c-18.1,0-30.1,13.2-30.1,30.7c0,18.4,13.3,30.7,29.6,30.7
			c7.8,0,9.8-0.8,12.6-1.4v-23.8h-16.5v-9.2h27.8v40.8c-4.3,1.5-11.7,3.5-24,3.5c-24.9,0-41.4-16-41.4-40.9
			c0-24.2,17.5-40.3,41.5-40.3c11.5,0,16.5,1.7,23.1,3.9L384.4,139.5z"/>
		<path fill="#FFFFFF" d="M425.9,125.5h11.8l33.2,78.5h-12.3l-8-19.8h-38.5l-8,19.8h-11.8L425.9,125.5z M431.4,136.1L415.8,175h31.3
			L431.4,136.1z"/>
		<polygon fill="#FFFFFF" points="484.6,135.4 460.1,135.4 460.1,125.5 520.2,125.5 520.2,135.4 495.8,135.4 495.8,204.1 
			484.6,204.1 		"/>
		<polygon fill="#FFFFFF" points="532,125.5 576,125.5 576,135.4 543.2,135.4 543.2,158.4 573.1,158.4 573.1,168.3 543.2,168.3 
			543.2,194.2 576,194.2 576,204.1 532,204.1 		"/>
		<polygon fill="#FFFFFF" points="584.2,125.5 596.5,125.5 615.3,192.8 615.5,192.8 632.3,125.5 648.3,125.5 665.3,192.8 
			665.5,192.8 684.3,125.5 696.2,125.5 672,204.1 657.5,204.1 640.4,135.4 640.2,135.4 623,204.1 607.9,204.1 		"/>
		<path fill="#FFFFFF" d="M716.6,125.5h11.8l33.2,78.5h-12.3l-8-19.8h-38.5l-8,19.8h-11.8L716.6,125.5z M722.1,136.1L706.5,175h31.3
			L722.1,136.1z"/>
		<polygon fill="#FFFFFF" points="780.3,171.2 749.6,125.5 762.7,125.5 786.1,160.8 809,125.5 822.1,125.5 791.5,171.2 791.5,204.1 
			780.3,204.1 		"/>
	</g>
	<g>
		<path fill="#FFFFFF" d="M335.2,264c-2.5,0-4.6-0.3-6.3-0.8c-1.7-0.5-3.4-1.1-4.9-1.9v-5.7h0.3c1.5,1.4,3.2,2.5,5.1,3.3
			c1.9,0.8,3.7,1.2,5.5,1.2c2.5,0,4.4-0.5,5.7-1.6c1.3-1.1,1.9-2.4,1.9-4.2c0-1.4-0.3-2.5-1-3.3c-0.7-0.9-1.7-1.5-3.2-1.9
			c-1.1-0.3-2-0.6-2.9-0.8c-0.9-0.2-2-0.5-3.3-0.8c-1.2-0.3-2.2-0.7-3.2-1.2c-0.9-0.5-1.8-1.1-2.5-1.9c-0.7-0.8-1.3-1.6-1.6-2.7
			c-0.4-1-0.6-2.2-0.6-3.5c0-2.8,1.1-5.1,3.2-7c2.2-1.9,4.9-2.8,8.3-2.8c1.9,0,3.7,0.2,5.4,0.6c1.7,0.4,3.3,0.9,4.7,1.6v5.5h-0.3
			c-1.1-1-2.5-1.9-4.2-2.6c-1.7-0.7-3.5-1.1-5.4-1.1c-2.1,0-3.8,0.5-5.1,1.5c-1.3,1-2,2.3-2,3.9c0,1.5,0.4,2.6,1.1,3.5
			c0.8,0.9,1.9,1.5,3.3,1.9c1,0.3,2.1,0.6,3.5,0.9c1.4,0.3,2.6,0.6,3.5,0.9c2.4,0.7,4.1,1.8,5.2,3.3c1.1,1.5,1.6,3.3,1.6,5.4
			c0,1.3-0.3,2.7-0.8,4c-0.5,1.3-1.3,2.4-2.3,3.3c-1.1,1-2.4,1.8-3.7,2.3C339,263.7,337.3,264,335.2,264z"/>
		<path fill="#FFFFFF" d="M372.9,250.5c0,4.3-1,7.7-3.1,10c-2.1,2.4-4.9,3.5-8.3,3.5c-3.6,0-6.4-1.2-8.4-3.6c-2-2.4-3.1-5.7-3.1-9.9
			c0-4.3,1.1-7.6,3.2-10c2.1-2.4,4.9-3.6,8.3-3.6c3.5,0,6.2,1.2,8.3,3.6C371.9,242.9,372.9,246.2,372.9,250.5z M368.4,250.5
			c0-3.3-0.6-5.8-1.8-7.4c-1.2-1.6-2.9-2.4-5.2-2.4c-2.3,0-4,0.8-5.2,2.4c-1.2,1.6-1.8,4.1-1.8,7.4c0,3.2,0.6,5.7,1.8,7.3
			c1.2,1.7,3,2.5,5.2,2.5c2.2,0,3.9-0.8,5.2-2.4C367.8,256.3,368.4,253.8,368.4,250.5z"/>
		<path fill="#FFFFFF" d="M381.9,263.4h-4.3v-35.8h4.3V263.4z"/>
		<path fill="#FFFFFF" d="M408.4,263.4h-4.3v-2.9c-1.3,1.2-2.6,2.1-3.8,2.7c-1.2,0.6-2.5,0.9-4,0.9c-1.1,0-2.2-0.2-3.2-0.6
			c-1-0.4-1.9-1-2.6-1.7c-0.7-0.8-1.3-1.8-1.7-3c-0.4-1.2-0.6-2.7-0.6-4.4v-16.7h4.3v14.6c0,1.4,0,2.5,0.1,3.4
			c0.1,0.9,0.3,1.7,0.7,2.4c0.4,0.7,0.8,1.1,1.4,1.4c0.6,0.3,1.5,0.5,2.6,0.5c1.1,0,2.2-0.3,3.4-0.9c1.2-0.6,2.3-1.3,3.3-2.2v-19.2
			h4.3V263.4z"/>
		<path fill="#FFFFFF" d="M422.6,263.9c-2.4,0-4.2-0.7-5.5-2c-1.3-1.3-2-3.5-2-6.4v-14.2h-2.9v-3.6h2.9v-7.4h4.3v7.4h8v3.6h-8v12.2
			c0,1.3,0,2.3,0.1,3c0,0.7,0.2,1.4,0.5,2c0.3,0.5,0.7,0.9,1.3,1.2c0.6,0.3,1.4,0.4,2.4,0.4c0.7,0,1.4-0.1,2-0.3
			c0.7-0.2,1.1-0.4,1.4-0.5h0.3v3.9c-0.8,0.2-1.6,0.4-2.5,0.5C424.1,263.8,423.3,263.9,422.6,263.9z"/>
		<path fill="#FFFFFF" d="M435.4,233.4h-4.9v-4.5h4.9V233.4z M435.1,263.4h-4.3v-25.7h4.3V263.4z"/>
		<path fill="#FFFFFF" d="M462.7,250.5c0,4.3-1,7.7-3.1,10c-2.1,2.4-4.9,3.5-8.3,3.5c-3.6,0-6.4-1.2-8.4-3.6c-2-2.4-3.1-5.7-3.1-9.9
			c0-4.3,1.1-7.6,3.2-10c2.1-2.4,4.9-3.6,8.3-3.6c3.5,0,6.2,1.2,8.3,3.6C461.7,242.9,462.7,246.2,462.7,250.5z M458.3,250.5
			c0-3.3-0.6-5.8-1.8-7.4c-1.2-1.6-2.9-2.4-5.2-2.4c-2.3,0-4,0.8-5.2,2.4c-1.2,1.6-1.8,4.1-1.8,7.4c0,3.2,0.6,5.7,1.8,7.3
			c1.2,1.7,3,2.5,5.2,2.5c2.2,0,3.9-0.8,5.2-2.4C457.7,256.3,458.3,253.8,458.3,250.5z"/>
		<path fill="#FFFFFF" d="M487.5,263.4h-4.3v-14.6c0-1.2-0.1-2.3-0.2-3.3c-0.1-1-0.3-1.8-0.7-2.5c-0.4-0.6-0.8-1.1-1.5-1.4
			c-0.6-0.3-1.5-0.5-2.6-0.5c-1.1,0-2.2,0.3-3.3,0.9c-1.1,0.6-2.3,1.3-3.3,2.2v19.2h-4.3v-25.7h4.3v2.9c1.3-1.2,2.6-2,3.8-2.6
			c1.3-0.6,2.6-0.9,4-0.9c2.5,0,4.5,0.8,5.9,2.5c1.4,1.7,2.1,4.1,2.1,7.2V263.4z"/>
		<path fill="#FFFFFF" d="M500.7,264c-1.7,0-3.3-0.2-4.8-0.7c-1.5-0.5-2.7-1-3.7-1.5V257h0.2c0.4,0.3,0.8,0.6,1.3,1
			c0.5,0.4,1.2,0.7,2,1.1c0.7,0.3,1.5,0.6,2.4,0.9c0.9,0.3,1.8,0.4,2.7,0.4c0.7,0,1.4-0.1,2.2-0.2c0.8-0.2,1.4-0.4,1.7-0.6
			c0.5-0.4,0.9-0.7,1.2-1.1c0.2-0.4,0.4-1,0.4-1.8c0-1-0.3-1.8-0.8-2.3c-0.6-0.5-1.6-1-3-1.3c-0.6-0.1-1.3-0.3-2.2-0.5
			c-0.9-0.2-1.7-0.4-2.5-0.6c-2-0.6-3.4-1.4-4.3-2.6c-0.9-1.2-1.3-2.6-1.3-4.3c0-2.3,0.9-4.2,2.6-5.7c1.8-1.5,4.1-2.2,7-2.2
			c1.4,0,2.9,0.2,4.3,0.5c1.4,0.4,2.7,0.8,3.6,1.3v4.6h-0.2c-1.1-0.9-2.3-1.6-3.7-2.1c-1.4-0.5-2.7-0.8-4.1-0.8
			c-1.4,0-2.6,0.3-3.6,0.9c-1,0.6-1.5,1.5-1.5,2.7c0,1.1,0.3,1.9,0.9,2.4c0.6,0.5,1.5,1,2.8,1.3c0.6,0.2,1.4,0.3,2.1,0.5
			c0.8,0.2,1.6,0.3,2.5,0.6c1.9,0.5,3.3,1.3,4.3,2.4c1,1.1,1.4,2.6,1.4,4.5c0,1.1-0.2,2.2-0.7,3.1c-0.4,1-1.1,1.8-1.9,2.5
			c-0.9,0.8-2,1.3-3.1,1.7C503.9,263.8,502.4,264,500.7,264z"/>
		<path fill="#FFFFFF" d="M537.5,263.9c-2.4,0-4.2-0.7-5.5-2c-1.3-1.3-2-3.5-2-6.4v-14.2h-2.9v-3.6h2.9v-7.4h4.3v7.4h8v3.6h-8v12.2
			c0,1.3,0,2.3,0.1,3c0,0.7,0.2,1.4,0.5,2c0.3,0.5,0.7,0.9,1.3,1.2c0.6,0.3,1.4,0.4,2.4,0.4c0.7,0,1.4-0.1,2-0.3
			c0.7-0.2,1.1-0.4,1.4-0.5h0.3v3.9c-0.8,0.2-1.6,0.4-2.5,0.5C539,263.8,538.2,263.9,537.5,263.9z"/>
		<path fill="#FFFFFF" d="M565.9,263.4h-4.3v-14.6c0-1.2-0.1-2.3-0.2-3.3c-0.1-1-0.3-1.8-0.7-2.5c-0.4-0.6-0.8-1.1-1.5-1.4
			c-0.6-0.3-1.5-0.5-2.6-0.5c-1.1,0-2.2,0.3-3.3,0.9c-1.1,0.6-2.3,1.3-3.3,2.2v19.2h-4.3v-35.8h4.3v13c1.3-1.2,2.6-2,3.8-2.6
			c1.3-0.6,2.6-0.9,4-0.9c2.5,0,4.5,0.8,5.9,2.5c1.4,1.7,2.1,4.1,2.1,7.2V263.4z"/>
		<path fill="#FFFFFF" d="M586.4,260.6c-0.4,0.3-0.8,0.6-1.4,1.1c-0.6,0.5-1.2,0.8-1.7,1.1c-0.8,0.4-1.5,0.7-2.2,0.9
			c-0.7,0.2-1.7,0.3-3,0.3c-1.1,0-2.1-0.2-3-0.6c-1-0.4-1.8-1-2.5-1.7c-0.7-0.7-1.2-1.6-1.7-2.6c-0.4-1-0.6-2.1-0.6-3.3
			c0-1.8,0.4-3.3,1.1-4.5c0.8-1.3,1.9-2.2,3.6-3c1.4-0.7,3.1-1.1,5.1-1.4c2-0.3,4.1-0.4,6.4-0.6v-0.8c0-1-0.2-1.8-0.5-2.4
			c-0.3-0.6-0.7-1.1-1.3-1.4c-0.6-0.4-1.2-0.6-2-0.7c-0.8-0.1-1.6-0.2-2.5-0.2c-1,0-2.2,0.1-3.5,0.4c-1.3,0.3-2.7,0.7-4,1.3h-0.3
			v-4.4c0.8-0.2,1.9-0.5,3.4-0.8c1.5-0.3,3-0.4,4.4-0.4c1.8,0,3.3,0.1,4.5,0.4c1.2,0.3,2.3,0.8,3.3,1.5c0.9,0.7,1.6,1.6,2.1,2.7
			c0.5,1.1,0.7,2.5,0.7,4.1v17.6h-4.3V260.6z M586.4,257v-7.1c-1,0.1-2.3,0.2-3.9,0.4c-1.6,0.2-2.8,0.4-3.8,0.7
			c-1.1,0.4-2.1,0.9-2.9,1.6c-0.8,0.7-1.1,1.7-1.1,3c0,1.5,0.4,2.6,1.2,3.3c0.8,0.8,2,1.1,3.6,1.1c1.4,0,2.6-0.3,3.7-0.9
			C584.4,258.6,585.5,257.9,586.4,257z"/>
		<path fill="#FFFFFF" d="M604.7,263.9c-2.4,0-4.2-0.7-5.5-2c-1.3-1.3-2-3.5-2-6.4v-14.2h-2.9v-3.6h2.9v-7.4h4.3v7.4h8v3.6h-8v12.2
			c0,1.3,0,2.3,0.1,3c0,0.7,0.2,1.4,0.5,2c0.3,0.5,0.7,0.9,1.3,1.2c0.6,0.3,1.4,0.4,2.4,0.4c0.7,0,1.4-0.1,2-0.3
			c0.7-0.2,1.1-0.4,1.4-0.5h0.3v3.9c-0.8,0.2-1.6,0.4-2.5,0.5C606.2,263.8,605.4,263.9,604.7,263.9z"/>
		<path fill="#FFFFFF" d="M638.9,264c-4.1,0-7.3-1.2-9.5-3.5c-2.3-2.3-3.4-5.6-3.4-9.8c0-4.2,1.1-7.5,3.3-10
			c2.2-2.5,5.1-3.7,8.6-3.7c1.6,0,3,0.2,4.2,0.7c1.2,0.5,2.3,1.2,3.2,2.2c0.9,1,1.6,2.2,2.1,3.6c0.5,1.4,0.7,3.2,0.7,5.2v2.3h-17.8
			c0,3,0.8,5.3,2.3,6.9c1.5,1.6,3.6,2.4,6.2,2.4c1,0,1.9-0.1,2.8-0.3c0.9-0.2,1.7-0.5,2.5-0.8c0.8-0.4,1.4-0.7,2-1
			c0.5-0.3,1-0.6,1.3-0.9h0.3v4.7c-0.5,0.2-1.1,0.4-1.9,0.7c-0.8,0.3-1.4,0.5-2,0.7c-0.8,0.2-1.6,0.4-2.3,0.5
			C640.8,263.9,639.9,264,638.9,264z M643.9,247.6c0-1.2-0.2-2.2-0.4-3c-0.2-0.8-0.6-1.6-1.1-2.1c-0.5-0.6-1.2-1.1-1.9-1.5
			c-0.8-0.3-1.8-0.5-2.9-0.5c-1.2,0-2.1,0.2-2.9,0.5c-0.8,0.3-1.5,0.8-2.2,1.5c-0.6,0.7-1.1,1.4-1.5,2.2c-0.3,0.8-0.6,1.8-0.6,2.9
			H643.9z"/>
		<path fill="#FFFFFF" d="M681.8,263.4v-14.9c0-1.2,0-2.3-0.1-3.3c-0.1-1-0.3-1.8-0.6-2.4c-0.3-0.6-0.7-1.1-1.3-1.4
			c-0.6-0.3-1.3-0.4-2.3-0.4c-0.9,0-1.8,0.3-2.9,0.8c-1,0.5-2.1,1.3-3.2,2.4c0,0.3,0,0.6,0.1,0.9c0,0.4,0,0.8,0,1.3v16.9h-4.3v-14.9
			c0-1.2,0-2.3-0.1-3.3c-0.1-1-0.3-1.8-0.6-2.4c-0.3-0.6-0.7-1.1-1.3-1.4c-0.6-0.3-1.3-0.4-2.3-0.4c-0.9,0-1.9,0.3-2.9,0.9
			c-1,0.6-2,1.3-3,2.2v19.2h-4.3v-25.7h4.3v2.9c1.1-1.1,2.3-2,3.4-2.6c1.1-0.6,2.3-0.9,3.7-0.9c1.5,0,2.9,0.3,4,1
			c1.2,0.7,2.1,1.8,2.7,3.4c1.3-1.5,2.6-2.6,3.8-3.3c1.2-0.8,2.6-1.1,4-1.1c1.1,0,2.1,0.2,3,0.5c0.9,0.3,1.7,0.9,2.4,1.7
			c0.7,0.8,1.2,1.8,1.6,2.9c0.4,1.2,0.6,2.6,0.6,4.4v16.9H681.8z"/>
		<path fill="#FFFFFF" d="M713.9,249.8c0,4.3-1,7.7-3.1,10.2c-2,2.5-4.6,3.8-7.8,3.8c-1.3,0-2.4-0.1-3.4-0.4c-1-0.3-2-0.7-3-1.4
			v10.8h-4.3v-35.2h4.3v2.7c1.1-1,2.3-1.8,3.6-2.4c1.3-0.7,2.7-1,4.3-1c2.9,0,5.2,1.2,6.9,3.5C713.1,242.8,713.9,245.9,713.9,249.8z
			 M709.4,250.3c0-2.9-0.5-5.2-1.4-6.8c-0.9-1.6-2.5-2.4-4.6-2.4c-1.2,0-2.4,0.3-3.6,0.8c-1.1,0.5-2.2,1.2-3.3,2.1v14.6
			c1.1,0.6,2.1,0.9,2.9,1.1c0.8,0.2,1.7,0.3,2.8,0.3c2.2,0,4-0.8,5.2-2.5C708.8,255.9,709.4,253.5,709.4,250.3z"/>
		<path fill="#FFFFFF" d="M739.7,250.5c0,4.3-1,7.7-3.1,10c-2.1,2.4-4.9,3.5-8.3,3.5c-3.6,0-6.4-1.2-8.4-3.6c-2-2.4-3.1-5.7-3.1-9.9
			c0-4.3,1.1-7.6,3.2-10c2.1-2.4,4.9-3.6,8.3-3.6c3.5,0,6.2,1.2,8.3,3.6C738.6,242.9,739.7,246.2,739.7,250.5z M735.2,250.5
			c0-3.3-0.6-5.8-1.8-7.4c-1.2-1.6-2.9-2.4-5.2-2.4c-2.3,0-4,0.8-5.2,2.4c-1.2,1.6-1.8,4.1-1.8,7.4c0,3.2,0.6,5.7,1.8,7.3
			c1.2,1.7,3,2.5,5.2,2.5c2.2,0,3.9-0.8,5.2-2.4C734.6,256.3,735.2,253.8,735.2,250.5z"/>
		<path fill="#FFFFFF" d="M775.4,237.7l-6.5,25.7h-4l-6.3-19.8l-6.2,19.8h-4l-6.6-25.7h4.5l4.5,19.9l6.1-19.9h3.6l6.3,19.9l4.3-19.9
			H775.4z"/>
		<path fill="#FFFFFF" d="M790.5,264c-4.1,0-7.3-1.2-9.5-3.5c-2.3-2.3-3.4-5.6-3.4-9.8c0-4.2,1.1-7.5,3.3-10
			c2.2-2.5,5.1-3.7,8.6-3.7c1.6,0,3,0.2,4.2,0.7c1.2,0.5,2.3,1.2,3.2,2.2c0.9,1,1.6,2.2,2.1,3.6c0.5,1.4,0.7,3.2,0.7,5.2v2.3H782
			c0,3,0.8,5.3,2.3,6.9c1.5,1.6,3.6,2.4,6.2,2.4c1,0,1.9-0.1,2.8-0.3c0.9-0.2,1.7-0.5,2.5-0.8c0.8-0.4,1.4-0.7,2-1
			c0.5-0.3,1-0.6,1.3-0.9h0.3v4.7c-0.5,0.2-1.1,0.4-1.9,0.7c-0.7,0.3-1.4,0.5-2,0.7c-0.8,0.2-1.6,0.4-2.3,0.5
			C792.4,263.9,791.6,264,790.5,264z M795.6,247.6c0-1.2-0.2-2.2-0.4-3c-0.2-0.8-0.6-1.6-1.1-2.1c-0.5-0.6-1.2-1.1-1.9-1.5
			c-0.8-0.3-1.8-0.5-2.9-0.5c-1.1,0-2.1,0.2-2.9,0.5c-0.8,0.3-1.5,0.8-2.2,1.5c-0.6,0.7-1.1,1.4-1.5,2.2c-0.3,0.8-0.6,1.8-0.6,2.9
			H795.6z"/>
		<path fill="#FFFFFF" d="M817.9,242.3h-0.2c-0.3-0.1-0.7-0.1-1-0.2c-0.4,0-0.8,0-1.3,0c-1.2,0-2.3,0.3-3.5,0.8
			c-1.1,0.5-2.2,1.3-3.3,2.3v18.2h-4.3v-25.7h4.3v3.8c1.6-1.4,3-2.4,4.1-3c1.2-0.6,2.3-0.9,3.4-0.9c0.4,0,0.8,0,1,0
			c0.2,0,0.5,0.1,0.7,0.1V242.3z"/>
	</g>
</g>
<g id="Layer_3" display="none">
	<g id="Layer_2" display="inline">
		<rect x="648.1" y="-738.7" fill="#005695" width="22.2" height="22.2"/>
		<rect x="648.1" y="-711.5" fill="#0194D3" width="22.2" height="22.2"/>
		<rect x="648.1" y="-683.8" fill="#FFDD00" width="22.2" height="22.2"/>
		<rect x="648.1" y="-655.3" fill="#00703C" width="22.2" height="22.2"/>
	</g>
	<g display="inline">
		<path d="M677.6-729.6c0.4-0.1,0.9-0.1,1.6-0.1c0.8,0,1.5,0.2,1.8,0.5c0.4,0.3,0.6,0.8,0.6,1.4c0,0.6-0.2,1.1-0.5,1.4
			c-0.4,0.5-1.2,0.7-2,0.7c-0.3,0-0.5,0-0.7-0.1v2.6h-0.8V-729.6z M678.4-726.5c0.2,0,0.4,0.1,0.7,0.1c1,0,1.6-0.5,1.6-1.4
			c0-0.9-0.6-1.3-1.6-1.3c-0.4,0-0.7,0-0.8,0.1V-726.5z"/>
		<path d="M685.8-724.3c0,0.4,0,0.8,0.1,1.1h-0.8l-0.1-0.6h0c-0.3,0.4-0.8,0.7-1.4,0.7c-1,0-1.4-0.7-1.4-1.4c0-1.1,1-1.8,2.8-1.8
			v-0.1c0-0.4-0.1-1.1-1.1-1.1c-0.4,0-0.9,0.1-1.2,0.4l-0.2-0.6c0.4-0.2,1-0.4,1.6-0.4c1.5,0,1.8,1,1.8,1.9V-724.3z M685-725.6
			c-0.9,0-2,0.1-2,1.1c0,0.6,0.4,0.8,0.8,0.8c0.6,0,1-0.4,1.2-0.8c0-0.1,0-0.2,0-0.3V-725.6z"/>
		<path d="M687.2-726.6c0-0.5,0-0.9,0-1.3h0.8l0,0.8h0c0.2-0.4,0.8-0.9,1.6-0.9c0.7,0,1.7,0.4,1.7,2v2.8h-0.9v-2.7
			c0-0.8-0.3-1.4-1.1-1.4c-0.6,0-1,0.4-1.2,0.9c0,0.1-0.1,0.3-0.1,0.4v2.8h-0.9V-726.6z"/>
		<path d="M693.6-729v1.1h1.2v0.7h-1.2v2.5c0,0.6,0.2,0.9,0.6,0.9c0.2,0,0.4,0,0.5-0.1l0,0.7c-0.2,0.1-0.4,0.1-0.8,0.1
			c-0.4,0-0.7-0.1-0.9-0.4c-0.2-0.3-0.3-0.7-0.3-1.2v-2.6H692v-0.7h0.7v-0.9L693.6-729z"/>
		<path d="M697.7-723c-1.3,0-2.3-0.9-2.3-2.4c0-1.6,1-2.5,2.3-2.5c1.4,0,2.3,1,2.3,2.4C700-723.8,698.8-723,697.7-723L697.7-723z
			 M697.7-723.7c0.8,0,1.4-0.8,1.4-1.8c0-0.8-0.4-1.8-1.4-1.8c-1,0-1.4,0.9-1.4,1.8C696.3-724.5,696.9-723.7,697.7-723.7
			L697.7-723.7z"/>
		<path d="M701.1-726.6c0-0.5,0-0.9,0-1.3h0.8l0,0.8h0c0.2-0.4,0.8-0.9,1.6-0.9c0.7,0,1.7,0.4,1.7,2v2.8h-0.9v-2.7
			c0-0.8-0.3-1.4-1.1-1.4c-0.6,0-1,0.4-1.2,0.9c0,0.1-0.1,0.3-0.1,0.4v2.8h-0.9V-726.6z"/>
		<path d="M707-725.4c0,1.2,0.8,1.6,1.6,1.6c0.6,0,1-0.1,1.3-0.2l0.2,0.6c-0.3,0.1-0.8,0.3-1.6,0.3c-1.4,0-2.3-1-2.3-2.4
			c0-1.4,0.8-2.6,2.2-2.6c1.5,0,1.9,1.4,1.9,2.2c0,0.2,0,0.3,0,0.4L707-725.4z M709.5-726c0-0.5-0.2-1.4-1.2-1.4
			c-0.9,0-1.2,0.8-1.3,1.4H709.5z"/>
		<path d="M716.9-728.9c-0.2,0-0.4,0-0.6,0c-1.4,0.2-2.1,1.2-2.2,2.3h0c0.3-0.4,0.8-0.7,1.5-0.7c1.1,0,1.9,0.8,1.9,2
			c0,1.2-0.8,2.2-2.1,2.2c-1.3,0-2.2-1.1-2.2-2.7c0-1.2,0.4-2.2,1.1-2.9c0.5-0.5,1.2-0.8,2-0.9c0.3,0,0.5,0,0.6,0V-728.9z
			 M715.4-723.7c0.7,0,1.2-0.6,1.2-1.5c0-0.9-0.5-1.5-1.3-1.5c-0.5,0-1,0.3-1.2,0.8c0,0.1-0.1,0.2-0.1,0.4
			C714-724.5,714.5-723.7,715.4-723.7L715.4-723.7z"/>
		<path d="M720.9-723.1v-1.7H718v-0.6l2.8-4.1h0.9v4h0.9v0.7h-0.9v1.7H720.9z M720.9-725.5v-2.1c0-0.3,0-0.7,0-1h0
			c-0.2,0.4-0.4,0.6-0.5,0.9l-1.6,2.2v0H720.9z"/>
		<path d="M727.4-729.5v0.6l-2.8,5.8h-0.9l2.7-5.6v0h-3.1v-0.7H727.4z"/>
		<path d="M731.5-729.7v3.9c0,1.5,0.7,2.1,1.5,2.1c1,0,1.6-0.6,1.6-2.1v-3.9h0.9v3.8c0,2-1.1,2.8-2.5,2.8c-1.3,0-2.4-0.8-2.4-2.8
			v-3.9H731.5z"/>
	</g>
	<g display="inline">
		<path d="M677.6-703.6c0.4-0.1,0.9-0.1,1.6-0.1c0.8,0,1.5,0.2,1.8,0.5c0.4,0.3,0.6,0.8,0.6,1.4c0,0.6-0.2,1.1-0.5,1.4
			c-0.4,0.5-1.2,0.7-2,0.7c-0.3,0-0.5,0-0.7-0.1v2.6h-0.8V-703.6z M678.4-700.4c0.2,0,0.4,0.1,0.7,0.1c1,0,1.6-0.5,1.6-1.4
			c0-0.9-0.6-1.3-1.6-1.3c-0.4,0-0.7,0-0.8,0.1V-700.4z"/>
		<path d="M685.8-698.2c0,0.4,0,0.8,0.1,1.1h-0.8l-0.1-0.6h0c-0.3,0.4-0.8,0.7-1.4,0.7c-1,0-1.4-0.7-1.4-1.4c0-1.1,1-1.8,2.8-1.8
			v-0.1c0-0.4-0.1-1.1-1.1-1.1c-0.4,0-0.9,0.1-1.2,0.4l-0.2-0.6c0.4-0.2,1-0.4,1.6-0.4c1.5,0,1.8,1,1.8,1.9V-698.2z M685-699.5
			c-0.9,0-2,0.1-2,1.1c0,0.6,0.4,0.8,0.8,0.8c0.6,0,1-0.4,1.2-0.8c0-0.1,0-0.2,0-0.3V-699.5z"/>
		<path d="M687.2-700.5c0-0.5,0-0.9,0-1.3h0.8l0,0.8h0c0.2-0.4,0.8-0.9,1.6-0.9c0.7,0,1.7,0.4,1.7,2v2.8h-0.9v-2.7
			c0-0.8-0.3-1.4-1.1-1.4c-0.6,0-1,0.4-1.2,0.9c0,0.1-0.1,0.3-0.1,0.4v2.9h-0.9V-700.5z"/>
		<path d="M693.6-703v1.1h1.2v0.7h-1.2v2.5c0,0.6,0.2,0.9,0.6,0.9c0.2,0,0.4,0,0.5-0.1l0,0.7c-0.2,0.1-0.4,0.1-0.8,0.1
			c-0.4,0-0.7-0.1-0.9-0.4c-0.2-0.3-0.3-0.7-0.3-1.2v-2.6H692v-0.7h0.7v-0.9L693.6-703z"/>
		<path d="M697.7-697c-1.3,0-2.3-0.9-2.3-2.4c0-1.6,1-2.5,2.3-2.5c1.4,0,2.3,1,2.3,2.4C700-697.7,698.8-697,697.7-697L697.7-697z
			 M697.7-697.6c0.8,0,1.4-0.8,1.4-1.8c0-0.8-0.4-1.8-1.4-1.8c-1,0-1.4,0.9-1.4,1.8C696.3-698.4,696.9-697.6,697.7-697.6
			L697.7-697.6z"/>
		<path d="M701.1-700.5c0-0.5,0-0.9,0-1.3h0.8l0,0.8h0c0.2-0.4,0.8-0.9,1.6-0.9c0.7,0,1.7,0.4,1.7,2v2.8h-0.9v-2.7
			c0-0.8-0.3-1.4-1.1-1.4c-0.6,0-1,0.4-1.2,0.9c0,0.1-0.1,0.3-0.1,0.4v2.9h-0.9V-700.5z"/>
		<path d="M707-699.3c0,1.2,0.8,1.6,1.6,1.6c0.6,0,1-0.1,1.3-0.2l0.2,0.6c-0.3,0.1-0.8,0.3-1.6,0.3c-1.4,0-2.3-1-2.3-2.4
			c0-1.4,0.8-2.6,2.2-2.6c1.5,0,1.9,1.4,1.9,2.2c0,0.2,0,0.3,0,0.4L707-699.3z M709.5-699.9c0-0.5-0.2-1.4-1.2-1.4
			c-0.9,0-1.2,0.8-1.3,1.4H709.5z"/>
		<path d="M717.4-703.4v0.6l-2.8,5.8h-0.9l2.7-5.6v0h-3.1v-0.7H717.4z"/>
		<path d="M720.9-697.1v-1.7H718v-0.6l2.8-4.1h0.9v4h0.9v0.7h-0.9v1.7H720.9z M720.9-699.5v-2.1c0-0.3,0-0.7,0-1h0
			c-0.2,0.4-0.4,0.6-0.5,0.9l-1.6,2.2v0H720.9z"/>
		<path d="M726.9-702.8c-0.2,0-0.4,0-0.6,0c-1.4,0.2-2.1,1.2-2.2,2.3h0c0.3-0.4,0.8-0.7,1.5-0.7c1.1,0,1.9,0.8,1.9,2
			c0,1.2-0.8,2.2-2.1,2.2c-1.3,0-2.2-1.1-2.2-2.7c0-1.2,0.4-2.2,1.1-2.9c0.5-0.5,1.2-0.8,2-0.9c0.3,0,0.5,0,0.6,0V-702.8z
			 M725.4-697.7c0.7,0,1.2-0.6,1.2-1.5c0-0.9-0.5-1.5-1.3-1.5c-0.5,0-1,0.3-1.2,0.8c0,0.1-0.1,0.2-0.1,0.4
			C724-698.4,724.5-697.7,725.4-697.7L725.4-697.7z"/>
		<path d="M730.1-702.6L730.1-702.6L729-702l-0.2-0.7l1.4-0.7h0.7v6.3h-0.8V-702.6z"/>
		<path d="M736.5-703.7v3.9c0,1.5,0.7,2.1,1.5,2.1c1,0,1.6-0.6,1.6-2.1v-3.9h0.9v3.8c0,2-1.1,2.8-2.5,2.8c-1.3,0-2.4-0.8-2.4-2.8
			v-3.9H736.5z"/>
	</g>
	<g display="inline">
		<path d="M677.6-674.7c0.4-0.1,0.9-0.1,1.6-0.1c0.8,0,1.5,0.2,1.8,0.5c0.4,0.3,0.6,0.8,0.6,1.4c0,0.6-0.2,1.1-0.5,1.4
			c-0.4,0.5-1.2,0.7-2,0.7c-0.3,0-0.5,0-0.7-0.1v2.6h-0.8V-674.7z M678.4-671.5c0.2,0,0.4,0.1,0.7,0.1c1,0,1.6-0.5,1.6-1.4
			c0-0.9-0.6-1.3-1.6-1.3c-0.4,0-0.7,0-0.8,0.1V-671.5z"/>
		<path d="M685.8-669.3c0,0.4,0,0.8,0.1,1.1h-0.8l-0.1-0.6h0c-0.3,0.4-0.8,0.7-1.4,0.7c-1,0-1.4-0.7-1.4-1.4c0-1.1,1-1.8,2.8-1.8
			v-0.1c0-0.4-0.1-1.1-1.1-1.1c-0.4,0-0.9,0.1-1.2,0.4l-0.2-0.6c0.4-0.2,1-0.4,1.6-0.4c1.5,0,1.8,1,1.8,1.9V-669.3z M685-670.6
			c-0.9,0-2,0.1-2,1.1c0,0.6,0.4,0.8,0.8,0.8c0.6,0,1-0.4,1.2-0.8c0-0.1,0-0.2,0-0.3V-670.6z"/>
		<path d="M687.2-671.6c0-0.5,0-0.9,0-1.3h0.8l0,0.8h0c0.2-0.4,0.8-0.9,1.6-0.9c0.7,0,1.7,0.4,1.7,2v2.8h-0.9v-2.7
			c0-0.8-0.3-1.4-1.1-1.4c-0.6,0-1,0.4-1.2,0.9c0,0.1-0.1,0.3-0.1,0.4v2.9h-0.9V-671.6z"/>
		<path d="M693.6-674.1v1.1h1.2v0.7h-1.2v2.5c0,0.6,0.2,0.9,0.6,0.9c0.2,0,0.4,0,0.5-0.1l0,0.7c-0.2,0.1-0.4,0.1-0.8,0.1
			c-0.4,0-0.7-0.1-0.9-0.4c-0.2-0.3-0.3-0.7-0.3-1.2v-2.6H692v-0.7h0.7v-0.9L693.6-674.1z"/>
		<path d="M697.7-668.1c-1.3,0-2.3-0.9-2.3-2.4c0-1.6,1-2.5,2.3-2.5c1.4,0,2.3,1,2.3,2.4C700-668.9,698.8-668.1,697.7-668.1
			L697.7-668.1z M697.7-668.7c0.8,0,1.4-0.8,1.4-1.8c0-0.8-0.4-1.8-1.4-1.8c-1,0-1.4,0.9-1.4,1.8
			C696.3-669.5,696.9-668.7,697.7-668.7L697.7-668.7z"/>
		<path d="M701.1-671.6c0-0.5,0-0.9,0-1.3h0.8l0,0.8h0c0.2-0.4,0.8-0.9,1.6-0.9c0.7,0,1.7,0.4,1.7,2v2.8h-0.9v-2.7
			c0-0.8-0.3-1.4-1.1-1.4c-0.6,0-1,0.4-1.2,0.9c0,0.1-0.1,0.3-0.1,0.4v2.9h-0.9V-671.6z"/>
		<path d="M707-670.4c0,1.2,0.8,1.6,1.6,1.6c0.6,0,1-0.1,1.3-0.2l0.2,0.6c-0.3,0.1-0.8,0.3-1.6,0.3c-1.4,0-2.3-1-2.3-2.4
			c0-1.4,0.8-2.6,2.2-2.6c1.5,0,1.9,1.4,1.9,2.2c0,0.2,0,0.3,0,0.4L707-670.4z M709.5-671c0-0.5-0.2-1.4-1.2-1.4
			c-0.9,0-1.2,0.8-1.3,1.4H709.5z"/>
		<path d="M715.1-673.7L715.1-673.7l-1.1,0.6l-0.2-0.7l1.4-0.7h0.7v6.3h-0.8V-673.7z"/>
		<path d="M720.3-668.1c-1.2,0-2.1-1.2-2.1-3.3c0-2.1,0.9-3.3,2.2-3.3c1.3,0,2.1,1.2,2.1,3.2C722.5-669.3,721.7-668.1,720.3-668.1
			L720.3-668.1z M720.3-668.8c0.9,0,1.3-1,1.3-2.6c0-1.6-0.4-2.6-1.3-2.6c-0.8,0-1.3,1-1.3,2.6C719-669.8,719.5-668.8,720.3-668.8
			L720.3-668.8z"/>
		<path d="M723.8-668.8c0.2,0,0.4,0,0.7,0c0.5-0.1,1-0.3,1.3-0.6c0.4-0.4,0.7-0.9,0.8-1.7h0c-0.4,0.4-0.9,0.7-1.5,0.7
			c-1.1,0-1.9-0.9-1.9-2c0-1.2,0.9-2.2,2.2-2.2c1.3,0,2.1,1,2.1,2.7c0,1.4-0.5,2.4-1.1,3c-0.5,0.5-1.2,0.8-1.8,0.8
			c-0.3,0-0.6,0.1-0.8,0V-668.8z M725.3-674c-0.7,0-1.2,0.6-1.2,1.5c0,0.8,0.5,1.3,1.2,1.3c0.6,0,1-0.3,1.3-0.7
			c0-0.1,0.1-0.2,0.1-0.3C726.6-673.2,726.2-674,725.3-674L725.3-674z"/>
		<path d="M731.5-674.8v3.9c0,1.5,0.7,2.1,1.5,2.1c1,0,1.6-0.6,1.6-2.1v-3.9h0.9v3.8c0,2-1.1,2.8-2.5,2.8c-1.3,0-2.4-0.8-2.4-2.8
			v-3.9H731.5z"/>
	</g>
	<g display="inline">
		<path d="M677.6-647c0.4-0.1,0.9-0.1,1.6-0.1c0.8,0,1.5,0.2,1.8,0.5c0.4,0.3,0.6,0.8,0.6,1.4c0,0.6-0.2,1.1-0.5,1.4
			c-0.4,0.5-1.2,0.7-2,0.7c-0.3,0-0.5,0-0.7-0.1v2.6h-0.8V-647z M678.4-643.9c0.2,0,0.4,0.1,0.7,0.1c1,0,1.6-0.5,1.6-1.4
			c0-0.9-0.6-1.3-1.6-1.3c-0.4,0-0.7,0-0.8,0.1V-643.9z"/>
		<path d="M685.8-641.7c0,0.4,0,0.8,0.1,1.1h-0.8l-0.1-0.6h0c-0.3,0.4-0.8,0.7-1.4,0.7c-1,0-1.4-0.7-1.4-1.4c0-1.1,1-1.8,2.8-1.8
			v-0.1c0-0.4-0.1-1.1-1.1-1.1c-0.4,0-0.9,0.1-1.2,0.4l-0.2-0.6c0.4-0.2,1-0.4,1.6-0.4c1.5,0,1.8,1,1.8,1.9V-641.7z M685-642.9
			c-0.9,0-2,0.1-2,1.1c0,0.6,0.4,0.8,0.8,0.8c0.6,0,1-0.4,1.2-0.8c0-0.1,0-0.2,0-0.3V-642.9z"/>
		<path d="M687.2-644c0-0.5,0-0.9,0-1.3h0.8l0,0.8h0c0.2-0.4,0.8-0.9,1.6-0.9c0.7,0,1.7,0.4,1.7,2v2.8h-0.9v-2.7
			c0-0.8-0.3-1.4-1.1-1.4c-0.6,0-1,0.4-1.2,0.9c0,0.1-0.1,0.3-0.1,0.4v2.9h-0.9V-644z"/>
		<path d="M693.6-646.4v1.1h1.2v0.7h-1.2v2.5c0,0.6,0.2,0.9,0.6,0.9c0.2,0,0.4,0,0.5-0.1l0,0.7c-0.2,0.1-0.4,0.1-0.8,0.1
			c-0.4,0-0.7-0.1-0.9-0.4c-0.2-0.3-0.3-0.7-0.3-1.2v-2.6H692v-0.7h0.7v-0.9L693.6-646.4z"/>
		<path d="M697.7-640.4c-1.3,0-2.3-0.9-2.3-2.4c0-1.6,1-2.5,2.3-2.5c1.4,0,2.3,1,2.3,2.4C700-641.2,698.8-640.4,697.7-640.4
			L697.7-640.4z M697.7-641.1c0.8,0,1.4-0.8,1.4-1.8c0-0.8-0.4-1.8-1.4-1.8c-1,0-1.4,0.9-1.4,1.8
			C696.3-641.8,696.9-641.1,697.7-641.1L697.7-641.1z"/>
		<path d="M701.1-644c0-0.5,0-0.9,0-1.3h0.8l0,0.8h0c0.2-0.4,0.8-0.9,1.6-0.9c0.7,0,1.7,0.4,1.7,2v2.8h-0.9v-2.7
			c0-0.8-0.3-1.4-1.1-1.4c-0.6,0-1,0.4-1.2,0.9c0,0.1-0.1,0.3-0.1,0.4v2.9h-0.9V-644z"/>
		<path d="M707-642.7c0,1.2,0.8,1.6,1.6,1.6c0.6,0,1-0.1,1.3-0.2l0.2,0.6c-0.3,0.1-0.8,0.3-1.6,0.3c-1.4,0-2.3-1-2.3-2.4
			c0-1.4,0.8-2.6,2.2-2.6c1.5,0,1.9,1.4,1.9,2.2c0,0.2,0,0.3,0,0.4L707-642.7z M709.5-643.4c0-0.5-0.2-1.4-1.2-1.4
			c-0.9,0-1.2,0.8-1.3,1.4H709.5z"/>
		<path d="M713.4-641.5c0.2,0.1,0.8,0.4,1.4,0.4c1.1,0,1.4-0.7,1.4-1.2c0-0.9-0.8-1.3-1.6-1.3h-0.5v-0.6h0.5c0.6,0,1.4-0.3,1.4-1.1
			c0-0.5-0.3-1-1.1-1c-0.5,0-1,0.2-1.3,0.4l-0.2-0.6c0.3-0.2,1-0.5,1.7-0.5c1.2,0,1.8,0.7,1.8,1.5c0,0.7-0.4,1.2-1.2,1.5v0
			c0.8,0.1,1.4,0.7,1.4,1.6c0,1-0.8,1.9-2.3,1.9c-0.7,0-1.3-0.2-1.6-0.4L713.4-641.5z"/>
		<path d="M720.9-640.5v-1.7H718v-0.6l2.8-4.1h0.9v4h0.9v0.7h-0.9v1.7H720.9z M720.9-642.9v-2.1c0-0.3,0-0.7,0-1h0
			c-0.2,0.4-0.4,0.6-0.5,0.9l-1.6,2.2v0H720.9z"/>
		<path d="M723.8-641.1c0.2,0,0.4,0,0.7,0c0.5-0.1,1-0.3,1.3-0.6c0.4-0.4,0.7-0.9,0.8-1.7h0c-0.4,0.4-0.9,0.7-1.5,0.7
			c-1.1,0-1.9-0.9-1.9-2c0-1.2,0.9-2.2,2.2-2.2c1.3,0,2.1,1,2.1,2.7c0,1.4-0.5,2.4-1.1,3c-0.5,0.5-1.2,0.8-1.8,0.8
			c-0.3,0-0.6,0.1-0.8,0V-641.1z M725.3-646.3c-0.7,0-1.2,0.6-1.2,1.5c0,0.8,0.5,1.3,1.2,1.3c0.6,0,1-0.3,1.3-0.7
			c0-0.1,0.1-0.2,0.1-0.3C726.6-645.5,726.2-646.3,725.3-646.3L725.3-646.3z"/>
		<path d="M731.5-647.1v3.9c0,1.5,0.7,2.1,1.5,2.1c1,0,1.6-0.6,1.6-2.1v-3.9h0.9v3.8c0,2-1.1,2.8-2.5,2.8c-1.3,0-2.4-0.8-2.4-2.8
			v-3.9H731.5z"/>
	</g>
</g>
</svg>
