<?xml version="1.0" encoding="UTF-8" standalone="no"?>
<svg xmlns:svg="http://www.w3.org/2000/svg" xmlns="http://www.w3.org/2000/svg" version="1.1" viewBox="0 0 160 64">
<g transform="translate(0,-206)" id="Layer_3" style="display:none" >
<g id="g105" style="display:inline">
<path d="m 675.601,-745.607 c 0.41,-0.078 0.948,-0.137 1.632,-0.137 0.839,0 1.453,0.195 1.844,0.547 0.361,0.312 0.587,0.791 0.587,1.376 0,0.596 -0.177,1.064 -0.518,1.406 -0.448,0.479 -1.181,0.723 -2.011,0.723 -0.254,0 -0.488,-0.011 -0.684,-0.06 v 2.636 h -0.85 v -6.491 z m 0.85,3.162 c 0.185,0.05 0.43,0.068 0.703,0.068 1.035,0 1.649,-0.508 1.649,-1.395 0,-0.878 -0.614,-1.299 -1.552,-1.299 -0.371,0 -0.654,0.04 -0.801,0.068 v 2.558 z" id="path107" />
<path d="m 683.844,-740.248 c 0,0.41 0.021,0.811 0.068,1.132 h -0.771 l -0.078,-0.595 h -0.029 c -0.254,0.371 -0.771,0.702 -1.444,0.702 -0.957,0 -1.445,-0.673 -1.445,-1.357 0,-1.143 1.015,-1.768 2.841,-1.758 v -0.097 c 0,-0.392 -0.107,-1.104 -1.074,-1.094 -0.448,0 -0.908,0.127 -1.239,0.352 l -0.195,-0.576 c 0.39,-0.244 0.966,-0.41 1.562,-0.41 1.455,0 1.806,0.986 1.806,1.933 v 1.768 z m -0.839,-1.278 c -0.938,-0.021 -2.002,0.146 -2.002,1.063 0,0.567 0.372,0.82 0.802,0.82 0.624,0 1.024,-0.391 1.161,-0.791 0.029,-0.088 0.039,-0.185 0.039,-0.273 v -0.819 z" id="path109" />
<path d="m 685.224,-742.561 c 0,-0.499 -0.01,-0.889 -0.039,-1.279 h 0.761 l 0.05,0.771 h 0.019 c 0.234,-0.439 0.781,-0.879 1.562,-0.879 0.653,0 1.669,0.391 1.669,2.012 v 2.82 h -0.86 v -2.723 c 0,-0.762 -0.282,-1.406 -1.093,-1.406 -0.557,0 -0.996,0.4 -1.151,0.878 -0.039,0.107 -0.059,0.265 -0.059,0.401 v 2.85 h -0.859 v -3.445 z" id="path111" />
<path d="m 691.642,-744.973 v 1.133 h 1.229 v 0.654 h -1.229 v 2.548 c 0,0.586 0.166,0.918 0.645,0.918 0.233,0 0.37,-0.02 0.497,-0.059 l 0.039,0.654 c -0.166,0.058 -0.43,0.116 -0.762,0.116 -0.399,0 -0.722,-0.137 -0.927,-0.36 -0.234,-0.264 -0.333,-0.684 -0.333,-1.24 v -2.577 h -0.731 v -0.654 h 0.731 v -0.869 l 0.841,-0.264 z" id="path113" />
<path d="m 695.706,-739.008 c -1.269,0 -2.266,-0.937 -2.266,-2.431 0,-1.581 1.045,-2.509 2.343,-2.509 1.358,0 2.275,0.986 2.275,2.422 0,1.757 -1.221,2.518 -2.344,2.518 h -0.008 z m 0.03,-0.644 c 0.819,0 1.435,-0.771 1.435,-1.846 0,-0.801 -0.4,-1.806 -1.415,-1.806 -1.007,0 -1.445,0.937 -1.445,1.835 0,1.035 0.585,1.816 1.415,1.816 h 0.01 z" id="path115" />
<path d="m 699.145,-742.561 c 0,-0.499 -0.01,-0.889 -0.038,-1.279 h 0.762 l 0.048,0.771 h 0.021 c 0.233,-0.439 0.78,-0.879 1.56,-0.879 0.654,0 1.67,0.391 1.67,2.012 v 2.82 h -0.859 v -2.723 c 0,-0.762 -0.282,-1.406 -1.094,-1.406 -0.556,0 -0.995,0.4 -1.151,0.878 -0.039,0.107 -0.058,0.265 -0.058,0.401 v 2.85 h -0.86 v -3.445 z" id="path117" />
<path d="m 705.054,-741.332 c 0.019,1.162 0.752,1.64 1.611,1.64 0.614,0 0.996,-0.107 1.308,-0.233 l 0.156,0.604 c -0.303,0.137 -0.829,0.304 -1.581,0.304 -1.445,0 -2.324,-0.967 -2.324,-2.383 0,-1.434 0.85,-2.558 2.227,-2.558 1.542,0 1.942,1.357 1.942,2.227 0,0.176 -0.01,0.312 -0.029,0.409 l -3.31,-0.01 z m 2.51,-0.615 c 0.009,-0.536 -0.226,-1.396 -1.182,-1.396 -0.878,0 -1.25,0.8 -1.318,1.396 h 2.5 z" id="path119" />
<path d="m 714.879,-744.866 c -0.176,-0.01 -0.401,0.011 -0.645,0.05 -1.357,0.214 -2.06,1.2 -2.206,2.255 h 0.018 c 0.303,-0.41 0.84,-0.742 1.543,-0.742 1.122,0 1.913,0.82 1.913,2.05 0,1.172 -0.791,2.245 -2.118,2.245 -1.347,0 -2.236,-1.054 -2.236,-2.704 0,-1.249 0.44,-2.235 1.075,-2.87 0.526,-0.517 1.23,-0.84 2.03,-0.937 0.254,-0.04 0.469,-0.049 0.625,-0.049 v 0.702 z m -1.473,5.195 c 0.73,0 1.229,-0.615 1.229,-1.523 0,-0.907 -0.518,-1.455 -1.308,-1.455 -0.518,0 -1.007,0.312 -1.24,0.782 -0.049,0.098 -0.088,0.214 -0.088,0.37 0.01,1.045 0.498,1.826 1.396,1.826 h 0.011 z" id="path121" />
<path d="m 718.923,-739.116 v -1.728 h -2.949 v -0.557 l 2.832,-4.061 h 0.928 v 3.954 h 0.888 v 0.664 h -0.888 v 1.728 h -0.811 z m 0,-2.391 v -2.128 c 0,-0.332 0.01,-0.663 0.028,-0.996 h -0.028 c -0.195,0.371 -0.352,0.645 -0.527,0.947 l -1.552,2.158 v 0.018 h 2.079 z" id="path123" />
<path d="m 725.399,-745.462 v 0.567 l -2.764,5.778 h -0.879 l 2.744,-5.613 v -0.018 h -3.104 v -0.714 h 4.003 z" id="path125" />
<path d="m 729.511,-745.696 v 3.905 c 0,1.465 0.654,2.09 1.533,2.09 0.967,0 1.601,-0.645 1.601,-2.09 v -3.905 h 0.86 v 3.847 c 0,2.021 -1.065,2.841 -2.49,2.841 -1.347,0 -2.362,-0.761 -2.362,-2.812 v -3.876 h 0.858 z" id="path127" />
</g>
<g id="g129" style="display:inline">
<path d="m 675.601,-719.56 c 0.41,-0.078 0.948,-0.137 1.632,-0.137 0.839,0 1.453,0.195 1.844,0.547 0.361,0.312 0.587,0.791 0.587,1.376 0,0.597 -0.177,1.065 -0.518,1.406 -0.448,0.478 -1.181,0.723 -2.011,0.723 -0.254,0 -0.488,-0.011 -0.684,-0.059 v 2.636 h -0.85 v -6.492 z m 0.85,3.163 c 0.185,0.049 0.43,0.068 0.703,0.068 1.035,0 1.649,-0.508 1.649,-1.396 0,-0.879 -0.614,-1.299 -1.552,-1.299 -0.371,0 -0.654,0.039 -0.801,0.068 v 2.559 z" id="path131" />
<path d="m 683.844,-714.201 c 0,0.41 0.021,0.81 0.068,1.133 h -0.771 l -0.078,-0.596 h -0.029 c -0.254,0.371 -0.771,0.703 -1.444,0.703 -0.957,0 -1.445,-0.674 -1.445,-1.357 0,-1.142 1.015,-1.767 2.841,-1.757 v -0.098 c 0,-0.391 -0.107,-1.103 -1.074,-1.094 -0.448,0 -0.908,0.128 -1.239,0.352 l -0.195,-0.575 c 0.39,-0.244 0.966,-0.41 1.562,-0.41 1.455,0 1.806,0.985 1.806,1.932 v 1.767 z m -0.839,-1.278 c -0.938,-0.019 -2.002,0.147 -2.002,1.064 0,0.567 0.372,0.82 0.802,0.82 0.624,0 1.024,-0.39 1.161,-0.791 0.029,-0.087 0.039,-0.185 0.039,-0.273 v -0.82 z" id="path133" />
<path d="m 685.224,-716.514 c 0,-0.498 -0.01,-0.889 -0.039,-1.278 h 0.761 l 0.05,0.771 h 0.019 c 0.234,-0.44 0.781,-0.878 1.562,-0.878 0.653,0 1.669,0.39 1.669,2.011 v 2.821 h -0.86 v -2.724 c 0,-0.762 -0.282,-1.406 -1.093,-1.406 -0.557,0 -0.996,0.401 -1.151,0.879 -0.039,0.107 -0.059,0.264 -0.059,0.4 v 2.851 h -0.859 v -3.447 z" id="path135" />
<path d="m 691.642,-718.925 v 1.133 h 1.229 v 0.654 h -1.229 v 2.547 c 0,0.586 0.166,0.918 0.645,0.918 0.233,0 0.37,-0.019 0.497,-0.059 l 0.039,0.654 c -0.166,0.059 -0.43,0.117 -0.762,0.117 -0.399,0 -0.722,-0.137 -0.927,-0.361 -0.234,-0.264 -0.333,-0.684 -0.333,-1.24 v -2.576 h -0.731 v -0.654 h 0.731 v -0.869 l 0.841,-0.264 z" id="path137" />
<path d="m 695.706,-712.961 c -1.269,0 -2.266,-0.938 -2.266,-2.431 0,-1.581 1.045,-2.509 2.343,-2.509 1.358,0 2.275,0.985 2.275,2.421 0,1.757 -1.221,2.519 -2.344,2.519 h -0.008 z m 0.03,-0.644 c 0.819,0 1.435,-0.772 1.435,-1.846 0,-0.8 -0.4,-1.806 -1.415,-1.806 -1.007,0 -1.445,0.938 -1.445,1.835 0,1.035 0.585,1.816 1.415,1.816 h 0.01 z" id="path139" />
<path d="m 699.145,-716.514 c 0,-0.498 -0.01,-0.889 -0.038,-1.278 h 0.762 l 0.048,0.771 h 0.021 c 0.233,-0.44 0.78,-0.878 1.56,-0.878 0.654,0 1.67,0.39 1.67,2.011 v 2.821 h -0.859 v -2.724 c 0,-0.762 -0.282,-1.406 -1.094,-1.406 -0.556,0 -0.995,0.401 -1.151,0.879 -0.039,0.107 -0.058,0.264 -0.058,0.4 v 2.851 h -0.86 v -3.447 z" id="path141" />
<path d="m 705.054,-715.284 c 0.019,1.162 0.752,1.64 1.611,1.64 0.614,0 0.996,-0.107 1.308,-0.234 l 0.156,0.605 c -0.303,0.137 -0.829,0.303 -1.581,0.303 -1.445,0 -2.324,-0.967 -2.324,-2.383 0,-1.435 0.85,-2.558 2.227,-2.558 1.542,0 1.942,1.357 1.942,2.227 0,0.176 -0.01,0.312 -0.029,0.409 l -3.31,-0.009 z m 2.51,-0.616 c 0.009,-0.536 -0.226,-1.395 -1.182,-1.395 -0.878,0 -1.25,0.801 -1.318,1.395 h 2.5 z" id="path143" />
<path d="m 715.376,-719.414 v 0.566 l -2.762,5.779 h -0.879 l 2.742,-5.613 v -0.019 h -3.103 v -0.713 h 4.002 z" id="path145" />
<path d="m 718.923,-713.068 v -1.729 h -2.949 v -0.557 l 2.832,-4.06 h 0.928 v 3.954 h 0.888 v 0.663 h -0.888 v 1.729 h -0.811 z m 0,-2.392 v -2.128 c 0,-0.333 0.01,-0.664 0.028,-0.996 h -0.028 c -0.195,0.371 -0.352,0.644 -0.527,0.946 l -1.552,2.158 v 0.02 h 2.079 z" id="path147" />
<path d="m 724.9,-718.818 c -0.175,-0.01 -0.399,0.01 -0.645,0.049 -1.355,0.215 -2.06,1.2 -2.205,2.255 h 0.019 c 0.302,-0.41 0.839,-0.742 1.542,-0.742 1.122,0 1.913,0.82 1.913,2.05 0,1.172 -0.791,2.246 -2.118,2.246 -1.348,0 -2.235,-1.055 -2.235,-2.704 0,-1.25 0.438,-2.235 1.073,-2.871 0.527,-0.517 1.231,-0.839 2.031,-0.937 0.253,-0.039 0.468,-0.049 0.624,-0.049 v 0.703 z m -1.474,5.193 c 0.732,0 1.23,-0.615 1.23,-1.522 0,-0.908 -0.518,-1.455 -1.309,-1.455 -0.517,0 -1.005,0.312 -1.24,0.781 -0.049,0.098 -0.088,0.215 -0.088,0.37 0.01,1.045 0.498,1.826 1.396,1.826 h 0.011 z" id="path149" />
<path d="m 728.154,-718.613 h -0.019 l -1.104,0.595 -0.166,-0.653 1.385,-0.742 h 0.733 v 6.346 h -0.83 v -5.546 z" id="path151" />
<path d="m 734.523,-719.648 v 3.905 c 0,1.464 0.653,2.089 1.532,2.089 0.967,0 1.601,-0.644 1.601,-2.089 v -3.905 h 0.859 v 3.847 c 0,2.02 -1.064,2.841 -2.489,2.841 -1.348,0 -2.362,-0.762 -2.362,-2.811 v -3.876 h 0.859 z" id="path153" />
</g>
<g id="g155" style="display:inline">
<path d="m 675.601,-690.664 c 0.41,-0.078 0.948,-0.137 1.632,-0.137 0.839,0 1.453,0.195 1.844,0.547 0.361,0.312 0.587,0.791 0.587,1.376 0,0.596 -0.177,1.065 -0.518,1.406 -0.448,0.479 -1.181,0.723 -2.011,0.723 -0.254,0 -0.488,-0.011 -0.684,-0.06 v 2.637 h -0.85 v -6.492 z m 0.85,3.163 c 0.185,0.049 0.43,0.068 0.703,0.068 1.035,0 1.649,-0.508 1.649,-1.396 0,-0.878 -0.614,-1.299 -1.552,-1.299 -0.371,0 -0.654,0.04 -0.801,0.068 v 2.559 z" id="path157" />
<path d="m 683.844,-685.304 c 0,0.41 0.021,0.81 0.068,1.133 h -0.771 l -0.078,-0.596 h -0.029 c -0.254,0.371 -0.771,0.703 -1.444,0.703 -0.957,0 -1.445,-0.674 -1.445,-1.357 0,-1.143 1.015,-1.767 2.841,-1.758 v -0.097 c 0,-0.391 -0.107,-1.104 -1.074,-1.094 -0.448,0 -0.908,0.127 -1.239,0.352 l -0.195,-0.576 c 0.39,-0.243 0.966,-0.41 1.562,-0.41 1.455,0 1.806,0.986 1.806,1.933 v 1.767 z m -0.839,-1.279 c -0.938,-0.021 -2.002,0.146 -2.002,1.063 0,0.566 0.372,0.82 0.802,0.82 0.624,0 1.024,-0.391 1.161,-0.791 0.029,-0.088 0.039,-0.185 0.039,-0.273 v -0.819 z" id="path159" />
<path d="m 685.224,-687.618 c 0,-0.498 -0.01,-0.889 -0.039,-1.279 h 0.761 l 0.05,0.771 h 0.019 c 0.234,-0.44 0.781,-0.879 1.562,-0.879 0.653,0 1.669,0.391 1.669,2.012 v 2.821 h -0.86 v -2.724 c 0,-0.762 -0.282,-1.406 -1.093,-1.406 -0.557,0 -0.996,0.4 -1.151,0.878 -0.039,0.107 -0.059,0.265 -0.059,0.401 v 2.851 h -0.859 v -3.446 z" id="path161" />
<path d="m 691.642,-690.03 v 1.133 h 1.229 v 0.654 h -1.229 v 2.548 c 0,0.586 0.166,0.918 0.645,0.918 0.233,0 0.37,-0.019 0.497,-0.059 l 0.039,0.654 c -0.166,0.058 -0.43,0.117 -0.762,0.117 -0.399,0 -0.722,-0.137 -0.927,-0.361 -0.234,-0.264 -0.333,-0.684 -0.333,-1.24 v -2.577 h -0.731 v -0.654 h 0.731 v -0.868 l 0.841,-0.265 z" id="path163" />
<path d="m 695.706,-684.064 c -1.269,0 -2.266,-0.938 -2.266,-2.432 0,-1.581 1.045,-2.509 2.343,-2.509 1.358,0 2.275,0.986 2.275,2.422 0,1.757 -1.221,2.519 -2.344,2.519 h -0.008 z m 0.03,-0.645 c 0.819,0 1.435,-0.771 1.435,-1.846 0,-0.801 -0.4,-1.806 -1.415,-1.806 -1.007,0 -1.445,0.937 -1.445,1.835 0,1.035 0.585,1.817 1.415,1.817 h 0.01 z" id="path165" />
<path d="m 699.145,-687.618 c 0,-0.498 -0.01,-0.889 -0.038,-1.279 h 0.762 l 0.048,0.771 h 0.021 c 0.233,-0.44 0.78,-0.879 1.56,-0.879 0.654,0 1.67,0.391 1.67,2.012 v 2.821 h -0.859 v -2.724 c 0,-0.762 -0.282,-1.406 -1.094,-1.406 -0.556,0 -0.995,0.4 -1.151,0.878 -0.039,0.107 -0.058,0.265 -0.058,0.401 v 2.851 h -0.86 v -3.446 z" id="path167" />
<path d="m 705.054,-686.388 c 0.019,1.162 0.752,1.64 1.611,1.64 0.614,0 0.996,-0.106 1.308,-0.233 l 0.156,0.605 c -0.303,0.137 -0.829,0.303 -1.581,0.303 -1.445,0 -2.324,-0.967 -2.324,-2.383 0,-1.435 0.85,-2.558 2.227,-2.558 1.542,0 1.942,1.357 1.942,2.227 0,0.176 -0.01,0.312 -0.029,0.409 l -3.31,-0.01 z m 2.51,-0.616 c 0.009,-0.536 -0.226,-1.396 -1.182,-1.396 -0.878,0 -1.25,0.801 -1.318,1.396 h 2.5 z" id="path169" />
<path d="m 713.122,-689.717 h -0.021 l -1.102,0.596 -0.166,-0.653 1.386,-0.742 h 0.733 v 6.346 h -0.83 v -5.547 z" id="path171" />
<path d="m 718.289,-684.064 c -1.24,0 -2.09,-1.162 -2.11,-3.261 0,-2.138 0.929,-3.3 2.217,-3.3 1.327,0 2.099,1.19 2.099,3.212 0,2.157 -0.81,3.349 -2.196,3.349 h -0.01 z m 0.038,-0.664 c 0.869,0 1.289,-1.025 1.289,-2.646 0,-1.562 -0.391,-2.588 -1.289,-2.588 -0.781,0 -1.288,0.996 -1.288,2.588 -0.019,1.649 0.488,2.646 1.278,2.646 h 0.01 z" id="path173" />
<path d="m 721.777,-684.767 c 0.185,0.01 0.399,0 0.692,-0.039 0.499,-0.059 0.967,-0.264 1.328,-0.615 0.42,-0.381 0.723,-0.938 0.84,-1.69 h -0.03 c -0.352,0.431 -0.858,0.684 -1.503,0.684 -1.143,0 -1.874,-0.859 -1.874,-1.952 0,-1.191 0.878,-2.245 2.177,-2.245 1.299,0 2.099,1.044 2.099,2.675 0,1.396 -0.469,2.372 -1.093,2.987 -0.488,0.469 -1.162,0.771 -1.846,0.85 -0.312,0.039 -0.596,0.058 -0.79,0.049 v -0.704 z m 1.551,-5.203 c -0.723,0 -1.24,0.645 -1.24,1.542 0,0.791 0.479,1.347 1.221,1.347 0.576,0 1.024,-0.282 1.26,-0.663 0.038,-0.078 0.068,-0.176 0.068,-0.312 0.01,-1.093 -0.4,-1.913 -1.299,-1.913 h -0.01 z" id="path175" />
<path d="m 729.511,-690.752 v 3.905 c 0,1.464 0.654,2.089 1.533,2.089 0.967,0 1.601,-0.645 1.601,-2.089 v -3.905 h 0.86 v 3.846 c 0,2.021 -1.065,2.842 -2.49,2.842 -1.347,0 -2.362,-0.762 -2.362,-2.812 v -3.875 h 0.858 z" id="path177" />
</g>
<g id="g179" style="display:inline">
<path d="m 675.601,-662.989 c 0.41,-0.077 0.948,-0.137 1.632,-0.137 0.839,0 1.453,0.196 1.844,0.547 0.361,0.312 0.587,0.791 0.587,1.376 0,0.597 -0.177,1.065 -0.518,1.406 -0.448,0.479 -1.181,0.723 -2.011,0.723 -0.254,0 -0.488,-0.01 -0.684,-0.059 v 2.636 h -0.85 v -6.492 z m 0.85,3.163 c 0.185,0.05 0.43,0.068 0.703,0.068 1.035,0 1.649,-0.508 1.649,-1.396 0,-0.879 -0.614,-1.299 -1.552,-1.299 -0.371,0 -0.654,0.039 -0.801,0.068 v 2.559 z" id="path181" />
<path d="m 683.844,-657.629 c 0,0.41 0.021,0.81 0.068,1.133 h -0.771 l -0.078,-0.596 h -0.029 c -0.254,0.372 -0.771,0.703 -1.444,0.703 -0.957,0 -1.445,-0.673 -1.445,-1.357 0,-1.142 1.015,-1.767 2.841,-1.758 v -0.098 c 0,-0.391 -0.107,-1.103 -1.074,-1.094 -0.448,0 -0.908,0.128 -1.239,0.352 l -0.195,-0.575 c 0.39,-0.244 0.966,-0.41 1.562,-0.41 1.455,0 1.806,0.985 1.806,1.933 v 1.767 z m -0.839,-1.279 c -0.938,-0.02 -2.002,0.146 -2.002,1.063 0,0.567 0.372,0.82 0.802,0.82 0.624,0 1.024,-0.39 1.161,-0.79 0.029,-0.088 0.039,-0.186 0.039,-0.274 v -0.819 z" id="path183" />
<path d="m 685.224,-659.943 c 0,-0.498 -0.01,-0.889 -0.039,-1.278 h 0.761 l 0.05,0.771 h 0.019 c 0.234,-0.44 0.781,-0.878 1.562,-0.878 0.653,0 1.669,0.391 1.669,2.011 v 2.821 h -0.86 v -2.724 c 0,-0.761 -0.282,-1.406 -1.093,-1.406 -0.557,0 -0.996,0.401 -1.151,0.879 -0.039,0.107 -0.059,0.264 -0.059,0.4 v 2.851 h -0.859 v -3.447 z" id="path185" />
<path d="m 691.642,-662.354 v 1.133 h 1.229 v 0.654 h -1.229 v 2.547 c 0,0.586 0.166,0.919 0.645,0.919 0.233,0 0.37,-0.021 0.497,-0.06 l 0.039,0.654 c -0.166,0.059 -0.43,0.117 -0.762,0.117 -0.399,0 -0.722,-0.137 -0.927,-0.361 -0.234,-0.264 -0.333,-0.684 -0.333,-1.239 v -2.577 h -0.731 v -0.654 h 0.731 v -0.869 l 0.841,-0.264 z" id="path187" />
<path d="m 695.706,-656.389 c -1.269,0 -2.266,-0.938 -2.266,-2.431 0,-1.581 1.045,-2.509 2.343,-2.509 1.358,0 2.275,0.985 2.275,2.421 0,1.757 -1.221,2.519 -2.344,2.519 h -0.008 z m 0.03,-0.644 c 0.819,0 1.435,-0.772 1.435,-1.846 0,-0.801 -0.4,-1.807 -1.415,-1.807 -1.007,0 -1.445,0.938 -1.445,1.836 0,1.035 0.585,1.816 1.415,1.816 h 0.01 z" id="path189" />
<path d="m 699.145,-659.943 c 0,-0.498 -0.01,-0.889 -0.038,-1.278 h 0.762 l 0.048,0.771 h 0.021 c 0.233,-0.44 0.78,-0.878 1.56,-0.878 0.654,0 1.67,0.391 1.67,2.011 v 2.821 h -0.859 v -2.724 c 0,-0.761 -0.282,-1.406 -1.094,-1.406 -0.556,0 -0.995,0.401 -1.151,0.879 -0.039,0.107 -0.058,0.264 -0.058,0.4 v 2.851 h -0.86 v -3.447 z" id="path191" />
<path d="m 705.054,-658.713 c 0.019,1.162 0.752,1.64 1.611,1.64 0.614,0 0.996,-0.107 1.308,-0.233 l 0.156,0.604 c -0.303,0.137 -0.829,0.303 -1.581,0.303 -1.445,0 -2.324,-0.967 -2.324,-2.382 0,-1.436 0.85,-2.559 2.227,-2.559 1.542,0 1.942,1.358 1.942,2.227 0,0.176 -0.01,0.312 -0.029,0.409 l -3.31,-0.009 z m 2.51,-0.615 c 0.009,-0.537 -0.226,-1.396 -1.182,-1.396 -0.878,0 -1.25,0.801 -1.318,1.396 h 2.5 z" id="path193" />
<path d="m 711.462,-657.472 c 0.243,0.146 0.8,0.39 1.405,0.39 1.094,0 1.445,-0.693 1.435,-1.229 -0.01,-0.889 -0.81,-1.27 -1.641,-1.27 h -0.479 v -0.643 h 0.479 c 0.625,0 1.416,-0.323 1.416,-1.074 0,-0.508 -0.322,-0.957 -1.113,-0.957 -0.508,0 -0.995,0.225 -1.268,0.42 l -0.234,-0.625 c 0.342,-0.244 0.986,-0.488 1.67,-0.488 1.249,0 1.815,0.742 1.815,1.514 0,0.664 -0.401,1.22 -1.172,1.503 v 0.021 c 0.78,0.146 1.416,0.731 1.416,1.619 0,1.017 -0.801,1.904 -2.315,1.904 -0.712,0 -1.337,-0.225 -1.649,-0.43 l 0.235,-0.655 z" id="path195" />
<path d="m 718.923,-656.497 v -1.729 h -2.949 v -0.556 l 2.832,-4.061 h 0.928 v 3.954 h 0.888 v 0.663 h -0.888 v 1.729 h -0.811 z m 0,-2.391 v -2.128 c 0,-0.332 0.01,-0.664 0.028,-0.996 h -0.028 c -0.195,0.371 -0.352,0.645 -0.527,0.946 l -1.552,2.158 v 0.02 h 2.079 z" id="path197" />
<path d="m 721.777,-657.092 c 0.185,0.01 0.399,0 0.692,-0.038 0.499,-0.06 0.967,-0.265 1.328,-0.615 0.42,-0.381 0.723,-0.938 0.84,-1.689 h -0.03 c -0.352,0.43 -0.858,0.684 -1.503,0.684 -1.143,0 -1.874,-0.859 -1.874,-1.952 0,-1.191 0.878,-2.246 2.177,-2.246 1.299,0 2.099,1.045 2.099,2.675 0,1.397 -0.469,2.373 -1.093,2.987 -0.488,0.469 -1.162,0.771 -1.846,0.85 -0.312,0.039 -0.596,0.059 -0.79,0.049 v -0.705 z m 1.551,-5.204 c -0.723,0 -1.24,0.645 -1.24,1.542 0,0.791 0.479,1.348 1.221,1.348 0.576,0 1.024,-0.283 1.26,-0.664 0.038,-0.078 0.068,-0.176 0.068,-0.312 0.01,-1.093 -0.4,-1.913 -1.299,-1.913 h -0.01 z" id="path199" />
<path d="m 729.511,-663.077 v 3.905 c 0,1.464 0.654,2.089 1.533,2.089 0.967,0 1.601,-0.643 1.601,-2.089 v -3.905 h 0.86 v 3.847 c 0,2.021 -1.065,2.841 -2.49,2.841 -1.347,0 -2.362,-0.762 -2.362,-2.811 v -3.876 h 0.858 z" id="path201" />
</g>
</g>
<g transform="matrix(0.22222222,0,0,0.22222222,1.1887787,1.9473836)" id="g5">
<path d="m 150.839,44.908 c 3.002,-3.758 4.809,-8.512 4.809,-13.699 0,-12.135 -9.836,-21.971 -21.97,-21.971 -12.134,0 -21.97,9.836 -21.97,21.971 0,7.975 4.264,14.936 10.618,18.785 l 0,0 c -50.061,19.015 -71.292,86.378 -25.595,116.183 26.464,10.985 40.942,-2.496 47.434,-10.985 -5.49,2.497 -8.987,2.497 -14.977,1.499 -75.876,-12.44 -21.156,-133.569 69.404,-69.407 7.944,5.027 13.388,6.285 18.831,0.837 5.448,-5.443 4.023,-13.901 -1.507,-18.427 -23.227,-17.469 -45.389,-24.65 -65.077,-24.786 z" id="path7" style="fill:#ffdd00" />
<path d="m 224.795,152.957 c 3.757,3.002 8.516,4.809 13.699,4.809 12.134,0 21.97,-9.837 21.97,-21.97 0,-12.133 -9.835,-21.97 -21.97,-21.97 -7.971,0 -14.934,4.259 -18.785,10.619 l 0.003,-0.004 C 200.698,74.383 133.331,53.148 103.53,98.85 c -10.99,26.464 2.496,40.941 10.981,47.433 -2.497,-5.494 -2.497,-8.988 -1.496,-14.98 12.441,-75.872 133.567,-21.157 69.404,69.408 -5.027,7.942 -6.281,13.387 -0.837,18.832 5.444,5.444 13.906,4.023 18.427,-1.509 17.469,-23.227 24.654,-45.389 24.786,-65.077 z" id="path9" style="fill:#00703c" />
<path d="m 114.924,225.122 c -3.104,3.676 -5.035,8.385 -5.168,13.572 -0.315,12.129 9.26,22.214 21.39,22.534 12.131,0.315 22.22,-9.265 22.535,-21.396 0.207,-7.971 -3.871,-15.038 -10.124,-19.052 l 0,0 c 50.541,-17.703 73.52,-84.494 28.613,-115.479 -26.171,-11.671 -40.997,1.433 -47.706,9.746 5.553,-2.351 9.049,-2.262 15.011,-1.105 75.525,14.413 17.675,134.078 -71.188,67.578 -7.811,-5.236 -13.22,-6.632 -18.804,-1.331 -5.584,5.301 -4.381,13.796 1.024,18.462 22.77,18.063 44.736,25.825 64.417,26.471 z" id="path11" style="fill:#005695" />
<path d="m 43.787,117.895 c -3.762,-3.002 -8.517,-4.809 -13.703,-4.809 -12.135,0.004 -21.967,9.844 -21.963,21.978 0.005,12.135 9.845,21.97 21.975,21.962 7.975,0 14.938,-4.264 18.785,-10.622 0,0.004 -0.004,0.004 -0.004,0.004 19.03,50.054 86.405,71.265 116.195,25.557 10.974,-26.464 -2.511,-40.942 -11,-47.431 2.5,5.491 2.5,8.988 1.499,14.978 C 143.153,215.391 22.012,160.709 86.143,70.127 91.171,62.183 92.425,56.74 86.981,51.295 81.533,45.851 73.07,47.277 68.55,52.806 51.089,76.041 43.916,98.207 43.787,117.895 z" id="path13" style="fill:#0194d3" />
</g>
<g transform="matrix(0.22222222,0,0,0.22222222,1.1887787,1.9473836)" id="g15">
<path d="m 276.116,51.631 h 13.369 c 13.434,0 24.147,8.309 24.147,22.261 0,15.188 -9.217,23.042 -24.147,23.042 H 276.116 V 51.631 z m 6.488,39.593 h 6.815 c 11.165,0 17.329,-5.387 17.329,-17.07 0,-10.582 -7.202,-16.813 -16.551,-16.813 h -7.593 v 33.883 z" id="path17" style="fill:#005695" />
<polygon points="317.725,51.631 343.105,51.631 343.105,57.341 324.221,57.341 324.221,70.581 341.419,70.581 341.419,76.294 324.221,76.294 324.221,91.224 343.105,91.224 343.105,96.934 317.725,96.934 " id="polygon19" style="fill:#005695" />
<polygon points="372.214,96.934 364.103,96.934 347.032,51.631 354.302,51.631 368.258,91.224 368.387,91.224 382.73,51.631 389.544,51.631 " id="polygon21" style="fill:#005695" />
<polygon points="393.322,51.631 418.699,51.631 418.699,57.341 399.817,57.341 399.817,70.581 417.018,70.581 417.018,76.294 399.817,76.294 399.817,91.224 418.699,91.224 418.699,96.934 393.322,96.934 " id="polygon23" style="fill:#005695" />
<polygon points="425.958,51.631 432.451,51.631 432.451,91.224 451.402,91.224 451.402,96.934 425.958,96.934 " id="polygon25" style="fill:#005695" />
<path d="m 474.328,50.851 c 13.76,0 21.808,9.994 21.808,23.432 0,13.76 -7.986,23.431 -21.808,23.431 -13.828,0 -21.814,-9.671 -21.814,-23.431 10e-4,-13.438 8.053,-23.432 21.814,-23.432 z m 0,41.15 c 10.448,0 14.927,-8.698 14.927,-17.718 0,-9.217 -4.933,-17.783 -14.927,-17.718 -9.996,-0.065 -14.937,8.5 -14.937,17.718 10e-4,9.019 4.487,17.718 14.937,17.718 z" id="path27" style="fill:#005695" />
<path d="m 502.248,51.631 h 11.875 c 9.28,0 17.01,3.244 17.01,13.563 0,10.062 -7.86,13.631 -16.035,13.631 h -6.363 v 18.109 h -6.486 V 51.631 z m 6.487,21.485 h 6.426 c 4.022,0 9.092,-2.012 9.092,-7.986 0,-5.71 -5.973,-7.789 -10.003,-7.789 h -5.515 v 15.775 z" id="path29" style="fill:#005695" />
<polygon points="564.296,96.934 557.939,96.934 542.944,57.731 542.815,57.731 542.815,96.934 536.321,96.934 536.321,51.631 547.029,51.631 561.25,89.277 575.199,51.631 585.911,51.631 585.911,96.934 579.419,96.934 579.419,57.731 579.291,57.731 " id="polygon31" style="fill:#005695" />
<polygon points="593.837,51.631 619.22,51.631 619.22,57.341 600.332,57.341 600.332,70.581 617.531,70.581 617.531,76.294 600.332,76.294 600.332,91.224 619.22,91.224 619.22,96.934 593.837,96.934 " id="polygon33" style="fill:#005695" />
<polygon points="626.478,51.631 635.307,51.631 655.293,88.107 655.423,88.107 655.423,51.631 661.915,51.631 661.915,96.934 653.605,96.934 633.1,59.678 632.966,59.678 632.966,96.934 626.478,96.934 " id="polygon35" style="fill:#005695" />
<polygon points="680.608,57.341 666.524,57.341 666.524,51.631 701.18,51.631 701.18,57.341 687.092,57.341 687.092,96.934 680.608,96.934 " id="polygon37" style="fill:#005695" />
<path d="m 329.751,121.849 c -4.67,-3.049 -9.725,-4.575 -18.31,-4.575 -15.35,0 -25.551,11.156 -25.551,26.033 0,15.639 11.251,26.031 25.074,26.031 6.58,0 8.296,-0.667 10.683,-1.146 V 147.977 H 307.63 v -7.818 h 23.552 v 34.613 c -3.624,1.239 -9.918,2.955 -20.314,2.955 -21.07,0 -35.087,-13.539 -35.087,-34.708 0,-20.5 14.872,-34.138 35.182,-34.138 9.729,0 14.022,1.432 19.548,3.337 l -0.76,9.631 z" id="path39" style="fill:#005695" />
<path d="m 364.999,110.027 h 10.011 l 28.133,66.561 h -10.395 l -6.772,-16.784 h -32.609 l -6.77,16.784 h -10.015 l 28.417,-66.561 z m 4.67,8.963 -13.254,32.993 h 26.513 L 369.669,118.99 z" id="path41" style="fill:#005695" />
<polygon points="414.692,118.418 393.997,118.418 393.997,110.027 444.922,110.027 444.922,118.418 424.223,118.418 424.223,176.588 414.692,176.588 " id="polygon43" style="fill:#005695" />
<polygon points="454.907,110.027 492.188,110.027 492.188,118.418 464.44,118.418 464.44,137.872 489.709,137.872 489.709,146.261 464.44,146.261 464.44,168.193 492.188,168.193 492.188,176.588 454.907,176.588 " id="polygon45" style="fill:#005695" />
<polygon points="583.995,110.027 594.104,110.027 573.602,176.588 561.294,176.588 546.8,118.418 546.612,118.418 532.024,176.588 519.246,176.588 499.127,110.027 509.614,110.027 525.542,167.049 525.728,167.049 539.937,110.027 553.476,110.027 567.88,167.049 568.068,167.049 " id="polygon47" style="fill:#005695" />
<path d="m 611.432,110.027 h 10.009 l 28.134,66.561 h -10.397 l -6.765,-16.784 h -32.619 l -6.765,16.784 h -10.018 l 28.421,-66.561 z m 4.669,8.963 -13.255,32.993 H 629.36 L 616.101,118.99 z" id="path49" style="fill:#005695" />
<polygon points="674.911,148.74 674.911,176.588 665.37,176.588 665.37,148.74 639.344,110.027 650.498,110.027 670.333,139.875 689.692,110.027 700.847,110.027 " id="polygon51" style="fill:#005695" />
</g>
<g transform="matrix(0.22222222,0,0,0.22222222,1.1887787,1.9473836)" id="g53">
<path d="m 288.057,227.382 c -2.107,0 -3.898,-0.217 -5.373,-0.653 -1.476,-0.436 -2.864,-0.973 -4.163,-1.61 v -4.836 h 0.273 c 1.274,1.197 2.716,2.125 4.329,2.778 1.612,0.658 3.165,0.984 4.66,0.984 2.133,0 3.745,-0.445 4.837,-1.336 1.091,-0.89 1.636,-2.063 1.636,-3.519 0,-1.157 -0.286,-2.099 -0.857,-2.828 -0.573,-0.727 -1.482,-1.268 -2.73,-1.618 -0.897,-0.259 -1.717,-0.474 -2.457,-0.643 -0.742,-0.169 -1.671,-0.395 -2.788,-0.681 -1.003,-0.261 -1.9,-0.594 -2.691,-0.994 -0.794,-0.404 -1.496,-0.931 -2.106,-1.582 -0.599,-0.636 -1.064,-1.386 -1.395,-2.252 -0.333,-0.864 -0.498,-1.863 -0.498,-2.994 0,-2.352 0.917,-4.326 2.75,-5.917 1.833,-1.591 4.173,-2.39 7.019,-2.39 1.624,0 3.161,0.164 4.613,0.488 1.449,0.325 2.79,0.786 4.025,1.384 v 4.62 h -0.293 c -0.922,-0.844 -2.105,-1.582 -3.548,-2.213 -1.444,-0.63 -2.959,-0.945 -4.545,-0.945 -1.794,0 -3.243,0.419 -4.348,1.257 -1.104,0.838 -1.657,1.939 -1.657,3.305 0,1.236 0.323,2.216 0.974,2.945 0.651,0.727 1.593,1.26 2.827,1.598 0.821,0.221 1.821,0.471 3.004,0.751 1.182,0.279 2.164,0.538 2.944,0.771 2.002,0.61 3.465,1.532 4.388,2.769 0.924,1.236 1.384,2.756 1.384,4.563 0,1.131 -0.231,2.25 -0.692,3.352 -0.461,1.106 -1.108,2.043 -1.94,2.809 -0.937,0.845 -1.993,1.494 -3.17,1.95 -1.173,0.46 -2.645,0.687 -4.412,0.687 z" id="path55" style="fill:#0194d3" />
<path d="m 320.04,215.974 c 0,3.666 -0.885,6.498 -2.652,8.495 -1.767,1.995 -4.121,2.991 -7.06,2.991 -3.029,0 -5.411,-1.03 -7.146,-3.09 -1.736,-2.062 -2.605,-4.859 -2.605,-8.395 0,-3.639 0.895,-6.467 2.682,-8.481 1.787,-2.017 4.143,-3.025 7.068,-3.025 2.938,0 5.292,1.004 7.06,3.014 1.768,2.007 2.653,4.837 2.653,8.491 z m -3.784,0 c 0,-2.821 -0.513,-4.917 -1.54,-6.288 -1.026,-1.372 -2.491,-2.057 -4.388,-2.057 -1.91,0 -3.382,0.685 -4.417,2.057 -1.033,1.371 -1.55,3.467 -1.55,6.288 0,2.729 0.517,4.802 1.55,6.211 1.035,1.411 2.507,2.115 4.417,2.115 1.887,0 3.344,-0.69 4.377,-2.076 1.035,-1.383 1.551,-3.468 1.551,-6.25 z" id="path57" style="fill:#0194d3" />
<path d="M 327.666,226.855 H 324 v -30.341 h 3.666 v 30.341 z" id="path59" style="fill:#0194d3" />
<path d="m 350.134,226.855 h -3.667 v -2.418 c -1.13,0.988 -2.203,1.74 -3.216,2.254 -1.015,0.514 -2.146,0.769 -3.393,0.769 -0.951,0 -1.844,-0.156 -2.682,-0.468 -0.84,-0.311 -1.569,-0.806 -2.194,-1.482 -0.623,-0.675 -1.107,-1.526 -1.453,-2.553 -0.343,-1.028 -0.516,-2.275 -0.516,-3.745 v -14.137 h 3.666 v 12.402 c 0,1.156 0.042,2.117 0.126,2.876 0.085,0.76 0.276,1.427 0.577,1.999 0.298,0.561 0.706,0.968 1.218,1.229 0.513,0.261 1.25,0.391 2.213,0.391 0.898,0 1.855,-0.254 2.868,-0.76 1.013,-0.508 1.942,-1.131 2.788,-1.874 v -16.263 h 3.667 v 21.78 z" id="path61" style="fill:#0194d3" />
<path d="m 362.149,227.285 c -2.003,0 -3.561,-0.569 -4.68,-1.706 -1.118,-1.138 -1.677,-2.936 -1.677,-5.393 v -12.069 h -2.478 v -3.042 h 2.478 v -6.26 h 3.666 v 6.26 h 6.746 v 3.042 h -6.746 v 10.354 c 0,1.105 0.019,1.958 0.059,2.554 0.039,0.598 0.188,1.156 0.449,1.677 0.221,0.456 0.577,0.796 1.073,1.022 0.494,0.229 1.163,0.343 2.009,0.343 0.598,0 1.175,-0.087 1.735,-0.264 0.56,-0.176 0.964,-0.32 1.211,-0.439 h 0.212 v 3.296 c -0.689,0.195 -1.386,0.349 -2.096,0.458 -0.709,0.111 -1.362,0.167 -1.961,0.167 z" id="path63" style="fill:#0194d3" />
<path d="m 373.033,201.426 h -4.174 v -3.802 h 4.174 v 3.802 z m -0.254,25.429 h -3.666 v -21.781 h 3.666 v 21.781 z" id="path65" style="fill:#0194d3" />
<path d="m 396.202,215.974 c 0,3.666 -0.884,6.498 -2.652,8.495 -1.766,1.995 -4.121,2.991 -7.06,2.991 -3.028,0 -5.41,-1.03 -7.147,-3.09 -1.735,-2.062 -2.602,-4.859 -2.602,-8.395 0,-3.639 0.894,-6.467 2.679,-8.481 1.789,-2.017 4.145,-3.025 7.07,-3.025 2.938,0 5.293,1.004 7.06,3.014 1.768,2.007 2.652,4.837 2.652,8.491 z m -3.781,0 c 0,-2.821 -0.515,-4.917 -1.543,-6.288 -1.026,-1.372 -2.488,-2.057 -4.387,-2.057 -1.91,0 -3.383,0.685 -4.417,2.057 -1.031,1.371 -1.549,3.467 -1.549,6.288 0,2.729 0.518,4.802 1.549,6.211 1.034,1.411 2.507,2.115 4.417,2.115 1.885,0 3.345,-0.69 4.379,-2.076 1.033,-1.383 1.551,-3.468 1.551,-6.25 z" id="path67" style="fill:#0194d3" />
<path d="m 417.206,226.855 h -3.666 v -12.401 c 0,-1.002 -0.049,-1.932 -0.145,-2.798 -0.097,-0.865 -0.284,-1.557 -0.557,-2.077 -0.299,-0.546 -0.714,-0.952 -1.248,-1.22 -0.532,-0.265 -1.26,-0.399 -2.182,-0.399 -0.909,0 -1.851,0.244 -2.819,0.732 -0.968,0.487 -1.912,1.12 -2.837,1.9 v 16.263 h -3.667 v -21.781 h 3.667 v 2.419 c 1.093,-0.975 2.171,-1.725 3.238,-2.244 1.064,-0.52 2.19,-0.781 3.373,-0.781 2.146,0 3.82,0.705 5.031,2.118 1.209,1.41 1.812,3.453 1.812,6.132 v 14.137 z" id="path69" style="fill:#0194d3" />
<path d="m 428.364,227.382 c -1.455,0 -2.817,-0.195 -4.084,-0.585 -1.268,-0.391 -2.318,-0.807 -3.15,-1.247 v -4.115 h 0.195 c 0.313,0.247 0.68,0.52 1.101,0.819 0.423,0.3 0.984,0.611 1.687,0.936 0.623,0.286 1.309,0.539 2.056,0.762 0.747,0.22 1.524,0.33 2.331,0.33 0.584,0 1.21,-0.069 1.872,-0.205 0.662,-0.136 1.156,-0.309 1.483,-0.515 0.453,-0.301 0.783,-0.618 0.984,-0.958 0.202,-0.337 0.302,-0.846 0.302,-1.521 0,-0.868 -0.236,-1.528 -0.71,-1.97 -0.477,-0.442 -1.318,-0.811 -2.526,-1.109 -0.468,-0.118 -1.079,-0.254 -1.834,-0.41 -0.752,-0.157 -1.449,-0.324 -2.085,-0.509 -1.665,-0.478 -2.875,-1.225 -3.628,-2.231 -0.755,-1.007 -1.131,-2.226 -1.131,-3.657 0,-1.963 0.741,-3.561 2.222,-4.797 1.484,-1.236 3.453,-1.852 5.91,-1.852 1.209,0 2.423,0.149 3.646,0.449 1.221,0.3 2.251,0.676 3.081,1.131 v 3.918 h -0.196 c -0.934,-0.74 -1.979,-1.325 -3.128,-1.755 -1.151,-0.429 -2.31,-0.643 -3.481,-0.643 -1.21,0 -2.23,0.253 -3.062,0.76 -0.831,0.508 -1.245,1.275 -1.245,2.3 0,0.911 0.245,1.591 0.738,2.038 0.495,0.449 1.288,0.818 2.382,1.103 0.543,0.143 1.152,0.283 1.821,0.419 0.67,0.137 1.375,0.295 2.116,0.476 1.612,0.402 2.825,1.072 3.637,2.008 0.813,0.936 1.219,2.21 1.219,3.823 0,0.935 -0.187,1.824 -0.556,2.662 -0.368,0.839 -0.913,1.558 -1.627,2.155 -0.782,0.651 -1.66,1.144 -2.643,1.482 -0.983,0.341 -2.215,0.508 -3.697,0.508 z" id="path71" style="fill:#0194d3" />
<path d="m 459.609,227.285 c -2.003,0 -3.564,-0.569 -4.681,-1.706 -1.118,-1.138 -1.677,-2.936 -1.677,-5.393 v -12.069 h -2.477 v -3.042 h 2.477 v -6.26 h 3.666 v 6.26 h 6.747 v 3.042 h -6.747 v 10.354 c 0,1.105 0.02,1.958 0.059,2.554 0.038,0.598 0.191,1.156 0.449,1.677 0.222,0.456 0.577,0.796 1.073,1.022 0.493,0.229 1.164,0.343 2.009,0.343 0.597,0 1.176,-0.087 1.736,-0.264 0.559,-0.176 0.963,-0.32 1.21,-0.439 h 0.213 v 3.296 c -0.688,0.195 -1.386,0.349 -2.096,0.458 -0.71,0.111 -1.365,0.167 -1.961,0.167 z" id="path73" style="fill:#0194d3" />
<path d="m 483.615,226.855 h -3.664 v -12.401 c 0,-1.002 -0.05,-1.932 -0.146,-2.798 -0.099,-0.865 -0.284,-1.557 -0.557,-2.077 -0.3,-0.546 -0.714,-0.952 -1.249,-1.22 -0.533,-0.265 -1.26,-0.399 -2.182,-0.399 -0.911,0 -1.851,0.244 -2.819,0.732 -0.966,0.487 -1.913,1.12 -2.837,1.9 v 16.263 h -3.667 v -30.341 h 3.667 v 10.979 c 1.092,-0.975 2.171,-1.725 3.238,-2.244 1.066,-0.52 2.19,-0.781 3.372,-0.781 2.146,0 3.824,0.705 5.033,2.118 1.209,1.41 1.811,3.453 1.811,6.132 v 14.137 z" id="path75" style="fill:#0194d3" />
<path d="m 501.053,224.535 c -0.301,0.222 -0.7,0.529 -1.2,0.927 -0.5,0.396 -0.984,0.71 -1.454,0.945 -0.65,0.339 -1.277,0.598 -1.881,0.781 -0.605,0.183 -1.454,0.272 -2.546,0.272 -0.896,0 -1.747,-0.167 -2.552,-0.506 -0.808,-0.339 -1.515,-0.813 -2.128,-1.424 -0.585,-0.597 -1.052,-1.336 -1.402,-2.213 -0.352,-0.876 -0.528,-1.805 -0.528,-2.779 0,-1.508 0.318,-2.79 0.957,-3.851 0.636,-1.06 1.643,-1.9 3.022,-2.526 1.223,-0.557 2.664,-0.945 4.329,-1.158 1.664,-0.216 3.458,-0.374 5.383,-0.478 v -0.703 c 0,-0.857 -0.13,-1.55 -0.391,-2.076 -0.26,-0.527 -0.624,-0.934 -1.092,-1.219 -0.467,-0.3 -1.04,-0.498 -1.716,-0.596 -0.676,-0.097 -1.371,-0.145 -2.086,-0.145 -0.845,0 -1.841,0.127 -2.984,0.379 -1.144,0.255 -2.287,0.621 -3.431,1.103 h -0.216 v -3.725 c 0.676,-0.195 1.645,-0.409 2.907,-0.643 1.26,-0.235 2.509,-0.35 3.742,-0.35 1.497,0 2.758,0.115 3.784,0.35 1.027,0.234 1.95,0.656 2.771,1.268 0.791,0.596 1.383,1.371 1.773,2.319 0.39,0.95 0.585,2.107 0.585,3.471 v 14.898 h -3.645 v -2.321 z m 0,-3.04 v -6.046 c -0.87,0.076 -1.974,0.187 -3.305,0.322 -1.335,0.136 -2.408,0.328 -3.229,0.576 -0.974,0.299 -1.78,0.758 -2.417,1.374 -0.636,0.616 -0.955,1.48 -0.955,2.584 0,1.247 0.35,2.19 1.053,2.827 0.702,0.637 1.728,0.957 3.081,0.957 1.157,0 2.203,-0.252 3.14,-0.75 0.936,-0.502 1.812,-1.117 2.632,-1.844 z" id="path77" style="fill:#0194d3" />
<path d="m 516.559,227.285 c -2.003,0 -3.563,-0.569 -4.682,-1.706 -1.118,-1.138 -1.677,-2.936 -1.677,-5.393 v -12.069 h -2.476 v -3.042 h 2.476 v -6.26 h 3.668 v 6.26 h 6.746 v 3.042 h -6.746 v 10.354 c 0,1.105 0.019,1.958 0.057,2.554 0.038,0.598 0.188,1.156 0.449,1.677 0.222,0.456 0.578,0.796 1.073,1.022 0.493,0.229 1.163,0.343 2.008,0.343 0.598,0 1.176,-0.087 1.736,-0.264 0.559,-0.176 0.963,-0.32 1.21,-0.439 h 0.213 v 3.296 c -0.689,0.195 -1.386,0.349 -2.096,0.458 -0.708,0.111 -1.362,0.167 -1.959,0.167 z" id="path79" style="fill:#0194d3" />
<path d="m 545.502,227.363 c -3.472,0 -6.165,-0.978 -8.084,-2.935 -1.916,-1.956 -2.877,-4.736 -2.877,-8.337 0,-3.55 0.93,-6.373 2.788,-8.472 1.86,-2.101 4.29,-3.151 7.294,-3.151 1.352,0 2.548,0.194 3.588,0.585 1.04,0.391 1.95,1.004 2.729,1.834 0.781,0.833 1.378,1.85 1.794,3.051 0.417,1.201 0.623,2.675 0.623,4.417 v 1.99 h -15.092 c 0,2.535 0.637,4.472 1.911,5.811 1.274,1.338 3.036,2.008 5.285,2.008 0.807,0 1.596,-0.089 2.369,-0.272 0.773,-0.183 1.472,-0.417 2.097,-0.703 0.663,-0.3 1.222,-0.588 1.675,-0.868 0.456,-0.279 0.834,-0.542 1.131,-0.789 h 0.214 v 3.997 c -0.429,0.17 -0.961,0.38 -1.598,0.635 -0.636,0.252 -1.21,0.449 -1.717,0.594 -0.715,0.194 -1.362,0.343 -1.94,0.449 -0.574,0.105 -1.305,0.156 -2.19,0.156 z m 4.29,-13.826 c -0.027,-0.988 -0.144,-1.84 -0.35,-2.554 -0.207,-0.714 -0.509,-1.32 -0.899,-1.814 -0.429,-0.547 -0.977,-0.963 -1.647,-1.248 -0.67,-0.284 -1.498,-0.427 -2.485,-0.427 -0.977,0 -1.805,0.145 -2.487,0.437 -0.683,0.293 -1.305,0.719 -1.864,1.276 -0.544,0.575 -0.961,1.208 -1.246,1.902 -0.286,0.696 -0.469,1.505 -0.547,2.428 h 11.525 z" id="path81" style="fill:#0194d3" />
<path d="m 581.913,226.855 v -12.598 c 0,-1 -0.04,-1.927 -0.118,-2.778 -0.077,-0.851 -0.241,-1.518 -0.487,-2 -0.26,-0.518 -0.631,-0.903 -1.112,-1.148 -0.479,-0.247 -1.131,-0.372 -1.948,-0.372 -0.754,0 -1.564,0.231 -2.429,0.692 -0.863,0.461 -1.758,1.129 -2.68,2 0.013,0.223 0.028,0.484 0.047,0.791 0.021,0.304 0.03,0.665 0.03,1.082 v 14.332 h -3.666 v -12.598 c 0,-1 -0.039,-1.927 -0.115,-2.778 -0.079,-0.851 -0.241,-1.518 -0.488,-2 -0.261,-0.518 -0.633,-0.903 -1.112,-1.148 -0.48,-0.247 -1.13,-0.372 -1.95,-0.372 -0.792,0 -1.625,0.246 -2.496,0.741 -0.872,0.493 -1.716,1.124 -2.534,1.891 v 16.263 h -3.667 v -21.781 h 3.667 v 2.419 c 0.962,-0.964 1.913,-1.707 2.855,-2.234 0.945,-0.528 1.98,-0.791 3.111,-0.791 1.288,0 2.428,0.293 3.424,0.877 0.993,0.587 1.75,1.548 2.272,2.887 1.103,-1.235 2.184,-2.17 3.237,-2.807 1.051,-0.637 2.195,-0.957 3.432,-0.957 0.937,0 1.787,0.148 2.554,0.44 0.768,0.292 1.437,0.764 2.009,1.412 0.586,0.665 1.036,1.491 1.356,2.478 0.32,0.988 0.476,2.229 0.476,3.725 v 14.332 h -3.668 z" id="path83" style="fill:#0194d3" />
<path d="m 609.116,215.389 c 0,3.628 -0.866,6.518 -2.603,8.669 -1.735,2.151 -3.929,3.227 -6.581,3.227 -1.079,0 -2.035,-0.124 -2.866,-0.37 -0.832,-0.247 -1.684,-0.632 -2.554,-1.152 v 9.128 h -3.666 v -29.816 h 3.666 v 2.28 c 0.908,-0.818 1.92,-1.502 3.031,-2.055 1.113,-0.555 2.324,-0.831 3.639,-0.831 2.496,0 4.442,0.988 5.839,2.965 1.397,1.977 2.095,4.628 2.095,7.955 z m -3.783,0.41 c 0,-2.482 -0.396,-4.408 -1.189,-5.78 -0.792,-1.373 -2.079,-2.058 -3.861,-2.058 -1.041,0 -2.044,0.231 -3.012,0.692 -0.97,0.461 -1.889,1.057 -2.76,1.784 v 12.344 c 0.962,0.469 1.783,0.787 2.466,0.956 0.683,0.169 1.466,0.255 2.35,0.255 1.9,0 3.373,-0.697 4.426,-2.089 1.054,-1.39 1.58,-3.426 1.58,-6.104 z" id="path85" style="fill:#0194d3" />
<path d="m 630.96,215.974 c 0,3.666 -0.884,6.498 -2.652,8.495 -1.768,1.995 -4.121,2.991 -7.06,2.991 -3.029,0 -5.411,-1.03 -7.148,-3.09 -1.734,-2.062 -2.601,-4.859 -2.601,-8.395 0,-3.639 0.892,-6.467 2.68,-8.481 1.786,-2.017 4.145,-3.025 7.068,-3.025 2.938,0 5.291,1.004 7.06,3.014 1.769,2.007 2.653,4.837 2.653,8.491 z m -3.783,0 c 0,-2.821 -0.513,-4.917 -1.541,-6.288 -1.027,-1.372 -2.489,-2.057 -4.387,-2.057 -1.911,0 -3.382,0.685 -4.416,2.057 -1.035,1.371 -1.551,3.467 -1.551,6.288 0,2.729 0.516,4.802 1.551,6.211 1.034,1.411 2.505,2.115 4.416,2.115 1.887,0 3.345,-0.69 4.378,-2.076 1.034,-1.383 1.55,-3.468 1.55,-6.25 z" id="path87" style="fill:#0194d3" />
<path d="m 661.246,205.074 -5.516,21.781 h -3.393 l -5.325,-16.789 -5.284,16.789 h -3.374 l -5.578,-21.781 h 3.823 l 3.841,16.866 5.168,-16.866 h 3.022 l 5.305,16.866 3.627,-16.866 h 3.684 z" id="path89" style="fill:#0194d3" />
<path d="m 674.062,227.363 c -3.471,0 -6.164,-0.978 -8.083,-2.935 -1.919,-1.956 -2.877,-4.736 -2.877,-8.337 0,-3.55 0.928,-6.373 2.788,-8.472 1.86,-2.101 4.29,-3.151 7.292,-3.151 1.353,0 2.548,0.194 3.589,0.585 1.041,0.391 1.949,1.004 2.73,1.834 0.779,0.833 1.378,1.85 1.794,3.051 0.417,1.201 0.624,2.675 0.624,4.417 v 1.99 h -15.094 c 0,2.535 0.637,4.472 1.911,5.811 1.274,1.338 3.035,2.008 5.284,2.008 0.808,0 1.597,-0.089 2.371,-0.272 0.772,-0.183 1.47,-0.417 2.093,-0.703 0.664,-0.3 1.224,-0.588 1.679,-0.868 0.455,-0.279 0.831,-0.542 1.131,-0.789 h 0.214 v 3.997 c -0.429,0.17 -0.964,0.38 -1.602,0.635 -0.634,0.252 -1.208,0.449 -1.713,0.594 -0.715,0.194 -1.363,0.343 -1.94,0.449 -0.574,0.105 -1.308,0.156 -2.191,0.156 z m 4.289,-13.826 c -0.026,-0.988 -0.143,-1.84 -0.35,-2.554 -0.208,-0.714 -0.507,-1.32 -0.897,-1.814 -0.429,-0.547 -0.979,-0.963 -1.648,-1.248 -0.67,-0.284 -1.498,-0.427 -2.487,-0.427 -0.974,0 -1.802,0.145 -2.485,0.437 -0.683,0.293 -1.304,0.719 -1.863,1.276 -0.547,0.575 -0.963,1.208 -1.248,1.902 -0.287,0.696 -0.467,1.505 -0.546,2.428 h 11.524 z" id="path91" style="fill:#0194d3" />
<path d="m 697.289,209.012 h -0.197 c -0.271,-0.076 -0.562,-0.124 -0.866,-0.145 -0.304,-0.018 -0.673,-0.029 -1.102,-0.029 -0.988,0 -1.969,0.213 -2.945,0.642 -0.974,0.429 -1.898,1.067 -2.769,1.912 v 15.463 h -3.665 v -21.781 h 3.665 v 3.236 c 1.34,-1.182 2.505,-2.016 3.501,-2.505 0.995,-0.486 1.959,-0.731 2.894,-0.731 0.379,0 0.661,0.01 0.85,0.029 0.188,0.019 0.399,0.049 0.633,0.088 v 3.821 z" id="path93" style="fill:#0194d3" />
</g>
</svg>
