<?xml version="1.0" encoding="utf-8"?>
<svg version="1.0" id="Layer_1" xmlns="http://www.w3.org/2000/svg" xmlns:xlink="http://www.w3.org/1999/xlink" x="0px" y="0px"
	 viewBox="0 240 712 320" enable-background="new 0 0 612 792" xml:space="preserve">
<g id="white_logo">
	<path fill="#FFFFFF" d="M186.7,339.5c4.8,3.9,6,11.2,1.3,15.9c-4.7,4.7-9.4,3.6-16.3-0.7c-78.3-55.5-125.6,49.3-60,60
		c5.2,0.9,8.2,0.9,12.9-1.3c-5.6,7.3-18.1,19-41,9.5c-39.5-25.8-21.2-84,22.1-100.5l0,0c-5.5-3.3-9.2-9.3-9.2-16.2
		c0-10.5,8.5-19,19-19s19,8.5,19,19c0,4.5-1.6,8.6-4.2,11.8C147.4,318.2,166.6,324.4,186.7,339.5z M194.4,411.5
		c3.2,2.6,7.4,4.2,11.8,4.2c10.5,0,19-8.5,19-19s-8.5-19-19-19c-6.9,0-12.9,3.7-16.2,9.2l0,0c-16.4-43.3-74.7-61.6-100.5-22.1
		c-9.5,22.9,2.2,35.4,9.5,41c-2.2-4.8-2.2-7.8-1.3-13c10.8-65.6,115.5-18.3,60,60c-4.3,6.9-5.4,11.6-0.7,16.3
		c4.7,4.7,12,3.5,15.9-1.3C188,447.7,194.2,428.6,194.4,411.5z M99.4,473.9c-2.7,3.2-4.4,7.2-4.5,11.7c-0.3,10.5,8,19.2,18.5,19.5
		c10.5,0.3,19.2-8,19.5-18.5c0.2-6.9-3.3-13-8.8-16.5l0,0c43.7-15.3,63.6-73.1,24.7-99.8c-22.6-10.1-35.4,1.2-41.2,8.4
		c4.8-2,7.8-2,13-1c65.3,12.5,15.3,115.9-61.6,58.4c-6.8-4.5-11.4-5.7-16.3-1.2c-4.8,4.6-3.8,11.9,0.9,16
		C63.4,466.7,82.3,473.4,99.4,473.9z M37.9,381.2c-3.3-2.6-7.4-4.2-11.8-4.2c-10.5,0-19,8.5-19,19c0,10.5,8.5,19,19,19
		c6.9,0,12.9-3.7,16.2-9.2c0,0,0,0,0,0c16.5,43.3,74.7,61.6,100.5,22.1c9.5-22.9-2.2-35.4-9.5-41c2.2,4.7,2.2,7.8,1.3,13
		c-10.7,65.6-115.5,18.3-60-60c4.3-6.9,5.4-11.6,0.7-16.3c-4.7-4.7-12-3.5-15.9,1.3C44.2,345,38,364.2,37.9,381.2z M238.7,363.1
		h11.6c12.9,0,20.9-6.8,20.9-19.9c0-12.1-9.3-19.2-20.9-19.2h-11.6V363.1z M244.3,328.9h6.6c8.1,0,14.3,5.4,14.3,14.5
		c0,10.1-5.3,14.8-15,14.8h-5.9L244.3,328.9L244.3,328.9z M274.7,363.1h21.9v-4.9h-16.3v-12.9h14.9v-4.9h-14.9v-11.4h16.3v-4.9
		h-21.9V363.1z M336.8,323.9h-5.9l-12.4,34.2h-0.1l-12.1-34.2h-6.3l14.8,39.2h7L336.8,323.9z M340.1,363.1H362v-4.9h-16.3v-12.9
		h14.9v-4.9h-14.9v-11.4H362v-4.9h-21.9V363.1z M368.3,363.1h22v-4.9h-16.4v-34.2h-5.6L368.3,363.1L368.3,363.1z M391.3,343.5
		c0,11.9,6.9,20.3,18.9,20.3c11.9,0,18.9-8.4,18.9-20.3c0-11.6-7-20.3-18.9-20.3C398.2,323.2,391.3,331.9,391.3,343.5z M397.2,343.5
		c0-8,4.3-15.4,12.9-15.3c8.6-0.1,12.9,7.3,12.9,15.3c0,7.8-3.9,15.3-12.9,15.3C401.1,358.8,397.2,351.3,397.2,343.5z M434.3,363.1
		h5.6v-15.7h5.5c7.1,0,13.9-3.1,13.9-11.8c0-8.9-6.7-11.7-14.7-11.7h-10.3L434.3,363.1L434.3,363.1z M439.9,328.9h4.8
		c3.5,0,8.6,1.8,8.6,6.7c0,5.2-4.4,6.9-7.9,6.9h-5.6L439.9,328.9L439.9,328.9z M463.7,363.1h5.6v-33.9h0.1l13,33.9h5.5l13-33.9h0.1
		v33.9h5.6v-39.2h-9.3l-12.1,32.5L473,323.9h-9.3L463.7,363.1L463.7,363.1z M513.4,363.1h21.9v-4.9h-16.3v-12.9h14.9v-4.9h-14.9
		v-11.4h16.3v-4.9h-21.9V363.1z M541.7,363.1h5.6v-32.2h0.1l17.7,32.2h7.2v-39.2h-5.6v31.5h-0.1l-17.3-31.5h-7.6V363.1L541.7,363.1z
		 M588.5,363.1h5.6v-34.2h12.2v-4.9h-30v4.9h12.2V363.1z M285.8,376.3c-4.8-1.6-8.5-2.9-16.9-2.9c-17.6,0-30.4,11.8-30.4,29.5
		c0,18.3,12.1,30,30.3,30c9,0,14.4-1.5,17.6-2.6v-29.9H266v6.8h12.1v17.5c-2.1,0.4-3.5,1-9.2,1c-12,0-21.7-9-21.7-22.5
		c0-12.9,8.8-22.5,22.1-22.5c7.4,0,11.8,1.3,15.8,4L285.8,376.3z M291,432h8.7l5.9-14.5h28.2l5.9,14.5h9l-24.3-57.6h-8.7L291,432z
		 M331.1,410.7h-22.9l11.5-28.5L331.1,410.7z M358.6,432h8.2v-50.3h17.9v-7.3h-44v7.3h17.9L358.6,432L358.6,432z M393.3,432h32.2
		v-7.3h-24v-19h21.8v-7.3h-21.8v-16.8h24v-7.3h-32.2L393.3,432L393.3,432z M449,432h11l12.6-50.3h0.2l12.5,50.3h10.6l17.7-57.6h-8.7
		l-13.8,49.3H491l-12.5-49.3h-11.7l-12.3,49.3h-0.2l-13.8-49.3h-9.1L449,432z M504.1,432h8.7l5.8-14.5h28.2l5.8,14.5h9l-24.3-57.6
		h-8.7L504.1,432z M544.2,410.7h-22.9l11.5-28.5L544.2,410.7z M575.3,432h8.2v-24.1l22.4-33.5h-9.6l-16.7,25.8l-17.1-25.8h-9.6
		l22.5,33.5V432z M252.9,475.3c1-0.4,1.9-1,2.7-1.7c0.7-0.7,1.3-1.5,1.7-2.4c0.4-1,0.6-1.9,0.6-2.9c0-1.6-0.4-2.9-1.2-3.9
		c-0.8-1.1-2.1-1.9-3.8-2.4c-0.7-0.2-1.5-0.4-2.5-0.7c-1-0.2-1.9-0.5-2.6-0.6c-1.1-0.3-1.9-0.8-2.4-1.4c-0.6-0.6-0.8-1.5-0.8-2.5
		c0-1.2,0.5-2.1,1.4-2.9c1-0.7,2.2-1.1,3.8-1.1c1.4,0,2.7,0.3,3.9,0.8c1.2,0.5,2.3,1.2,3.1,1.9h0.3v-4c-1.1-0.5-2.2-0.9-3.5-1.2
		c-1.3-0.3-2.6-0.4-4-0.4c-2.5,0-4.5,0.7-6.1,2.1c-1.6,1.4-2.4,3.1-2.4,5.1c0,1,0.1,1.8,0.4,2.6c0.3,0.7,0.7,1.4,1.2,1.9
		c0.5,0.6,1.1,1,1.8,1.4c0.7,0.3,1.5,0.6,2.3,0.9c1,0.2,1.8,0.4,2.4,0.6c0.6,0.1,1.3,0.3,2.1,0.6c1.1,0.3,1.9,0.8,2.4,1.4
		c0.5,0.6,0.7,1.4,0.7,2.4c0,1.3-0.5,2.3-1.4,3c-0.9,0.8-2.3,1.2-4.2,1.2c-1.3,0-2.6-0.3-4-0.9c-1.4-0.6-2.6-1.4-3.7-2.4h-0.2v4.2
		c1.1,0.5,2.3,1,3.6,1.4c1.3,0.4,2.8,0.6,4.6,0.6C250.6,475.9,251.9,475.7,252.9,475.3z M274.4,458.7c-1.5-1.7-3.6-2.6-6.1-2.6
		c-2.5,0-4.6,0.9-6.1,2.6c-1.5,1.7-2.3,4.2-2.3,7.3c0,3.1,0.8,5.5,2.3,7.3c1.5,1.8,3.6,2.7,6.2,2.7c2.5,0,4.6-0.9,6.1-2.6
		c1.5-1.7,2.3-4.2,2.3-7.3C276.7,462.9,275.9,460.4,274.4,458.7z M272.1,471.4c-0.9,1.2-2.2,1.8-3.8,1.8c-1.7,0-2.9-0.6-3.8-1.8
		c-0.9-1.2-1.3-3-1.3-5.4c0-2.4,0.4-4.3,1.3-5.4c0.9-1.2,2.2-1.8,3.8-1.8c1.6,0,2.9,0.6,3.8,1.8c0.9,1.2,1.3,3,1.3,5.4
		C273.4,468.4,273,470.2,272.1,471.4z M283.3,449.2h-3.2v26.2h3.2V449.2z M302.7,456.6h-3.2v14.1c-0.7,0.6-1.5,1.2-2.4,1.6
		c-0.9,0.4-1.7,0.7-2.5,0.7c-0.8,0-1.5-0.1-1.9-0.3c-0.4-0.2-0.8-0.6-1.1-1.1c-0.3-0.5-0.4-1.1-0.5-1.7c-0.1-0.7-0.1-1.5-0.1-2.5
		v-10.7h-3.2v12.2c0,1.3,0.1,2.3,0.4,3.2c0.3,0.9,0.7,1.6,1.3,2.2c0.5,0.6,1.2,1,1.9,1.3c0.7,0.3,1.5,0.4,2.3,0.4
		c1.1,0,2.1-0.2,2.9-0.7c0.9-0.4,1.8-1.1,2.8-1.9v2.1h3.2L302.7,456.6L302.7,456.6z M314.8,475.7c0.6-0.1,1.2-0.2,1.8-0.4v-2.8h-0.2
		c-0.2,0.1-0.6,0.2-1,0.4c-0.5,0.2-1,0.2-1.5,0.2c-0.7,0-1.3-0.1-1.7-0.3c-0.4-0.2-0.7-0.5-0.9-0.9c-0.2-0.5-0.4-0.9-0.4-1.4
		c0-0.5-0.1-1.3-0.1-2.2v-9h5.8v-2.6h-5.8v-5.4h-3.2v5.4h-2.1v2.6h2.1v10.4c0,2.1,0.5,3.7,1.4,4.7c1,1,2.3,1.5,4,1.5
		C313.6,475.8,314.2,475.7,314.8,475.7z M322.5,450.2h-3.6v3.3h3.6V450.2z M322.3,456.6h-3.2v18.8h3.2V456.6z M340.3,458.7
		c-1.5-1.7-3.6-2.6-6.1-2.6c-2.5,0-4.6,0.9-6.1,2.6c-1.5,1.7-2.3,4.2-2.3,7.3c0,3.1,0.7,5.5,2.2,7.3c1.5,1.8,3.6,2.7,6.2,2.7
		c2.5,0,4.6-0.9,6.1-2.6c1.5-1.7,2.3-4.2,2.3-7.3C342.6,462.9,341.8,460.4,340.3,458.7z M338,471.4c-0.9,1.2-2.2,1.8-3.8,1.8
		c-1.7,0-2.9-0.6-3.8-1.8c-0.9-1.2-1.3-3-1.3-5.4c0-2.4,0.4-4.3,1.3-5.4c0.9-1.2,2.2-1.8,3.8-1.8c1.6,0,2.9,0.6,3.8,1.8
		c0.9,1.2,1.3,3,1.3,5.4C339.3,468.4,338.8,470.2,338,471.4z M360.7,463.2c0-2.3-0.5-4.1-1.6-5.3c-1-1.2-2.5-1.8-4.3-1.8
		c-1,0-2,0.2-2.9,0.7c-0.9,0.4-1.9,1.1-2.8,1.9v-2.1h-3.2v18.8h3.2v-14.1c0.8-0.7,1.6-1.2,2.5-1.6c0.8-0.4,1.7-0.6,2.4-0.6
		c0.8,0,1.4,0.1,1.9,0.3c0.5,0.2,0.8,0.6,1.1,1.1c0.2,0.4,0.4,1,0.5,1.8c0.1,0.7,0.1,1.6,0.1,2.4v10.7h3.2L360.7,463.2L360.7,463.2z
		 M373.6,475.4c0.8-0.3,1.6-0.7,2.3-1.3c0.6-0.5,1.1-1.1,1.4-1.9c0.3-0.7,0.5-1.5,0.5-2.3c0-1.4-0.4-2.5-1.1-3.3
		c-0.7-0.8-1.8-1.4-3.1-1.7c-0.6-0.2-1.3-0.3-1.8-0.4c-0.6-0.1-1.1-0.2-1.6-0.4c-0.9-0.2-1.6-0.6-2.1-1c-0.4-0.4-0.6-1-0.6-1.8
		c0-0.9,0.4-1.5,1.1-2c0.7-0.4,1.6-0.7,2.6-0.7c1,0,2,0.2,3,0.6c1,0.4,1.9,0.9,2.7,1.5h0.2v-3.4c-0.7-0.4-1.6-0.7-2.7-1
		c-1.1-0.3-2.1-0.4-3.2-0.4c-2.1,0-3.8,0.5-5.1,1.6c-1.3,1.1-1.9,2.5-1.9,4.1c0,1.2,0.3,2.3,1,3.2c0.7,0.9,1.7,1.5,3.1,1.9
		c0.5,0.2,1.2,0.3,1.8,0.4c0.7,0.1,1.2,0.3,1.6,0.4c1,0.3,1.8,0.6,2.2,1c0.4,0.4,0.6,1,0.6,1.7c0,0.6-0.1,1-0.3,1.3
		c-0.2,0.3-0.5,0.6-0.9,0.8c-0.3,0.2-0.7,0.3-1.3,0.4c-0.6,0.1-1.1,0.2-1.6,0.2c-0.7,0-1.4-0.1-2-0.3c-0.6-0.2-1.2-0.4-1.8-0.7
		c-0.6-0.3-1.1-0.5-1.5-0.8c-0.4-0.3-0.7-0.5-1-0.7h-0.2v3.6c0.7,0.4,1.6,0.7,2.7,1.1c1.1,0.3,2.3,0.5,3.5,0.5
		C371.7,475.9,372.7,475.7,373.6,475.4z M399.1,475.7c0.6-0.1,1.2-0.2,1.8-0.4v-2.8h-0.2c-0.2,0.1-0.6,0.2-1,0.4
		c-0.5,0.2-1,0.2-1.5,0.2c-0.7,0-1.3-0.1-1.7-0.3c-0.4-0.2-0.7-0.5-0.9-0.9c-0.2-0.5-0.4-0.9-0.4-1.4c0-0.5-0.1-1.3-0.1-2.2v-9h5.8
		v-2.6h-5.8v-5.4h-3.2v5.4h-2.1v2.6h2.1v10.4c0,2.1,0.5,3.7,1.4,4.7c1,1,2.3,1.5,4,1.5C397.9,475.8,398.5,475.7,399.1,475.7z
		 M418.1,463.2c0-2.3-0.5-4.1-1.6-5.3c-1-1.2-2.5-1.8-4.4-1.8c-1,0-2,0.2-2.9,0.7c-0.9,0.4-1.9,1.1-2.8,1.9v-9.5h-3.2v26.2h3.2
		v-14.1c0.8-0.7,1.6-1.2,2.5-1.6c0.8-0.4,1.6-0.6,2.4-0.6c0.8,0,1.4,0.1,1.9,0.3c0.5,0.2,0.8,0.6,1.1,1.1c0.2,0.4,0.4,1,0.5,1.8
		c0.1,0.7,0.1,1.6,0.1,2.4v10.7h3.2V463.2z M433.2,475.4h3.2v-12.9c0-1.2-0.2-2.2-0.5-3c-0.3-0.8-0.8-1.5-1.5-2
		c-0.7-0.5-1.5-0.9-2.4-1.1c-0.9-0.2-2-0.3-3.3-0.3c-1.1,0-2.1,0.1-3.2,0.3c-1.1,0.2-1.9,0.4-2.5,0.6v3.2h0.2c1-0.4,2-0.7,3-1
		c1-0.2,1.8-0.3,2.6-0.3c0.6,0,1.2,0,1.8,0.1c0.6,0.1,1.1,0.3,1.5,0.5c0.4,0.2,0.7,0.6,0.9,1.1c0.2,0.5,0.3,1.1,0.3,1.8v0.6
		c-1.7,0.1-3.2,0.2-4.7,0.4c-1.4,0.2-2.7,0.5-3.7,1c-1.2,0.5-2.1,1.3-2.6,2.2c-0.6,0.9-0.8,2-0.8,3.3c0,0.8,0.2,1.6,0.5,2.4
		c0.3,0.8,0.7,1.4,1.2,1.9c0.5,0.5,1.1,0.9,1.8,1.2c0.7,0.3,1.4,0.4,2.2,0.4c0.9,0,1.7-0.1,2.2-0.2c0.5-0.2,1.1-0.4,1.6-0.7
		c0.4-0.2,0.8-0.5,1.3-0.8c0.4-0.3,0.8-0.6,1-0.8L433.2,475.4L433.2,475.4z M430.9,472.4c-0.8,0.4-1.7,0.6-2.7,0.6
		c-1.2,0-2.1-0.3-2.7-0.8c-0.6-0.6-0.9-1.4-0.9-2.4c0-1,0.3-1.7,0.8-2.2c0.6-0.5,1.2-0.9,2.1-1.2c0.7-0.2,1.6-0.4,2.8-0.5
		c1.2-0.1,2.1-0.2,2.9-0.3v5.2C432.5,471.4,431.8,472,430.9,472.4z M448.3,475.7c0.6-0.1,1.2-0.2,1.8-0.4v-2.8h-0.2
		c-0.2,0.1-0.6,0.2-1,0.4c-0.5,0.2-1,0.2-1.5,0.2c-0.7,0-1.3-0.1-1.7-0.3c-0.4-0.2-0.7-0.5-0.9-0.9c-0.2-0.5-0.4-0.9-0.4-1.4
		c0-0.5,0-1.3,0-2.2v-9h5.8v-2.6h-5.8v-5.4h-3.2v5.4H439v2.6h2.1v10.4c0,2.1,0.5,3.7,1.4,4.7c1,1,2.3,1.5,4,1.5
		C447.1,475.8,447.7,475.7,448.3,475.7z M473.5,475.7c0.5-0.1,1.1-0.2,1.7-0.4c0.4-0.1,0.9-0.3,1.5-0.5c0.6-0.2,1-0.4,1.4-0.5v-3.5
		h-0.2c-0.3,0.2-0.6,0.4-1,0.7c-0.4,0.2-0.9,0.5-1.4,0.8c-0.5,0.2-1.1,0.4-1.8,0.6s-1.4,0.2-2,0.2c-1.9,0-3.5-0.6-4.6-1.7
		c-1.1-1.2-1.7-2.8-1.7-5h13v-1.7c0-1.5-0.2-2.8-0.5-3.8c-0.4-1-0.9-1.9-1.6-2.6c-0.7-0.7-1.5-1.2-2.4-1.6c-0.9-0.3-1.9-0.5-3.1-0.5
		c-2.6,0-4.7,0.9-6.3,2.7c-1.6,1.8-2.4,4.3-2.4,7.3c0,3.1,0.8,5.5,2.5,7.2c1.7,1.7,4,2.5,7,2.5C472.4,475.9,473.1,475.8,473.5,475.7
		z M465.4,463.9c0.1-0.8,0.2-1.5,0.5-2.1c0.2-0.6,0.6-1.1,1.1-1.6c0.5-0.5,1-0.8,1.6-1.1c0.6-0.3,1.3-0.4,2.2-0.4
		c0.9,0,1.6,0.1,2.1,0.4c0.6,0.2,1.1,0.6,1.4,1.1c0.3,0.4,0.6,1,0.8,1.6c0.2,0.6,0.3,1.4,0.3,2.2H465.4L465.4,463.9z M506.3,475.4
		V463c0-1.3-0.1-2.4-0.4-3.2c-0.3-0.9-0.7-1.6-1.2-2.1c-0.5-0.6-1.1-1-1.7-1.2c-0.7-0.3-1.4-0.4-2.2-0.4c-1.1,0-2.1,0.3-3,0.8
		c-0.9,0.6-1.8,1.4-2.8,2.4c-0.5-1.2-1.1-2-2-2.5c-0.9-0.5-1.8-0.8-3-0.8c-1,0-1.9,0.2-2.7,0.7c-0.8,0.5-1.6,1.1-2.5,1.9v-2.1h-3.2
		v18.8h3.2v-14.1c0.7-0.7,1.4-1.2,2.2-1.6c0.8-0.4,1.5-0.6,2.2-0.6c0.7,0,1.3,0.1,1.7,0.3c0.4,0.2,0.7,0.5,1,1
		c0.2,0.4,0.4,1,0.4,1.7c0.1,0.7,0.1,1.5,0.1,2.4v10.9h3.2V463c0-0.4,0-0.7,0-0.9c0-0.3,0-0.5,0-0.7c0.8-0.8,1.6-1.3,2.3-1.7
		c0.7-0.4,1.4-0.6,2.1-0.6c0.7,0,1.3,0.1,1.7,0.3c0.4,0.2,0.7,0.5,1,1c0.2,0.4,0.4,1,0.4,1.7c0.1,0.7,0.1,1.5,0.1,2.4v10.9
		L506.3,475.4L506.3,475.4z M524.8,458.6c-1.2-1.7-2.9-2.6-5-2.6c-1.1,0-2.2,0.2-3.1,0.7c-1,0.5-1.8,1.1-2.6,1.8v-2h-3.2v25.8h3.2
		v-7.9c0.8,0.4,1.5,0.8,2.2,1c0.7,0.2,1.5,0.3,2.5,0.3c2.3,0,4.2-0.9,5.7-2.8c1.5-1.9,2.3-4.4,2.3-7.5
		C526.7,462.6,526.1,460.3,524.8,458.6z M522,471.1c-0.9,1.2-2.2,1.8-3.8,1.8c-0.8,0-1.4-0.1-2-0.2c-0.6-0.1-1.3-0.4-2.1-0.8v-10.7
		c0.8-0.6,1.5-1.1,2.4-1.5c0.8-0.4,1.7-0.6,2.6-0.6c1.5,0,2.7,0.6,3.3,1.8c0.7,1.2,1,2.9,1,5C523.4,468.2,522.9,469.9,522,471.1z
		 M543.2,458.7c-1.5-1.7-3.6-2.6-6.1-2.6c-2.5,0-4.6,0.9-6.1,2.6c-1.5,1.7-2.3,4.2-2.3,7.3c0,3.1,0.7,5.5,2.2,7.3
		c1.5,1.8,3.6,2.7,6.2,2.7c2.5,0,4.6-0.9,6.1-2.6c1.5-1.7,2.3-4.2,2.3-7.3C545.5,462.9,544.8,460.4,543.2,458.7z M540.9,471.4
		c-0.9,1.2-2.2,1.8-3.8,1.8c-1.7,0-2.9-0.6-3.8-1.8c-0.9-1.2-1.3-3-1.3-5.4c0-2.4,0.4-4.3,1.3-5.4c0.9-1.2,2.2-1.8,3.8-1.8
		c1.6,0,2.9,0.6,3.8,1.8c0.9,1.2,1.3,3,1.3,5.4C542.3,468.4,541.8,470.2,540.9,471.4z M568.5,456.6l-3.1,14.6l-4.6-14.6h-2.6
		l-4.5,14.6l-3.3-14.6h-3.3l4.8,18.8h2.9l4.6-14.5l4.6,14.5h2.9l4.8-18.8H568.5z M584.7,475.7c0.5-0.1,1.1-0.2,1.7-0.4
		c0.4-0.1,0.9-0.3,1.5-0.5c0.6-0.2,1-0.4,1.4-0.5v-3.5h-0.2c-0.3,0.2-0.6,0.4-1,0.7c-0.4,0.2-0.9,0.5-1.5,0.8
		c-0.5,0.2-1.1,0.4-1.8,0.6c-0.7,0.2-1.4,0.2-2,0.2c-1.9,0-3.5-0.6-4.6-1.7c-1.1-1.2-1.7-2.8-1.7-5h13.1v-1.7c0-1.5-0.2-2.8-0.5-3.8
		c-0.4-1-0.9-1.9-1.6-2.6c-0.7-0.7-1.5-1.2-2.4-1.6c-0.9-0.3-1.9-0.5-3.1-0.5c-2.6,0-4.7,0.9-6.3,2.7c-1.6,1.8-2.4,4.3-2.4,7.3
		c0,3.1,0.8,5.5,2.5,7.2c1.7,1.7,4,2.5,7,2.5C583.6,475.9,584.2,475.8,584.7,475.7z M576.6,463.9c0.1-0.8,0.2-1.5,0.5-2.1
		c0.2-0.6,0.6-1.1,1.1-1.6c0.5-0.5,1-0.8,1.6-1.1c0.6-0.3,1.3-0.4,2.1-0.4c0.9,0,1.6,0.1,2.2,0.4c0.6,0.2,1.1,0.6,1.4,1.1
		c0.3,0.4,0.6,1,0.8,1.6c0.2,0.6,0.3,1.4,0.3,2.2H576.6L576.6,463.9z M602.9,456.7c-0.2,0-0.4-0.1-0.5-0.1c-0.2,0-0.4,0-0.7,0
		c-0.8,0-1.6,0.2-2.5,0.6c-0.9,0.4-1.9,1.1-3,2.2v-2.8h-3.2v18.8h3.2v-13.4c0.8-0.7,1.6-1.3,2.4-1.7c0.8-0.4,1.7-0.6,2.5-0.6
		c0.4,0,0.7,0,1,0c0.3,0,0.5,0.1,0.7,0.1h0.2L602.9,456.7L602.9,456.7z"/>
</g>
<g id="Layer_3" display="none">
	<g id="Layer_2" display="inline">
		<rect x="558.7" y="-373.3" fill="#005695" width="19.2" height="19.2"/>
		<rect x="558.7" y="-349.7" fill="#0194D3" width="19.2" height="19.2"/>
		<rect x="558.7" y="-325.8" fill="#FFDD00" width="19.2" height="19.2"/>
		<rect x="558.7" y="-301.1" fill="#00703C" width="19.2" height="19.2"/>
	</g>
	<g display="inline">
		<path d="M584.1-365.4c0.4-0.1,0.8-0.1,1.4-0.1c0.7,0,1.3,0.2,1.6,0.5c0.3,0.3,0.5,0.7,0.5,1.2c0,0.5-0.2,0.9-0.4,1.2
			c-0.4,0.4-1,0.6-1.7,0.6c-0.2,0-0.4,0-0.6-0.1v2.3h-0.7V-365.4z M584.9-362.7c0.2,0,0.4,0.1,0.6,0.1c0.9,0,1.4-0.4,1.4-1.2
			c0-0.8-0.5-1.1-1.3-1.1c-0.3,0-0.6,0-0.7,0.1L584.9-362.7L584.9-362.7z"/>
		<path d="M591.3-360.8c0,0.4,0,0.7,0.1,1h-0.7l-0.1-0.5h0c-0.2,0.3-0.7,0.6-1.2,0.6c-0.8,0-1.2-0.6-1.2-1.2c0-1,0.9-1.5,2.5-1.5
			v-0.1c0-0.3-0.1-1-0.9-0.9c-0.4,0-0.8,0.1-1.1,0.3l-0.2-0.5c0.3-0.2,0.8-0.4,1.4-0.4c1.3,0,1.6,0.9,1.6,1.7L591.3-360.8
			L591.3-360.8z M590.5-361.9c-0.8,0-1.7,0.1-1.7,0.9c0,0.5,0.3,0.7,0.7,0.7c0.5,0,0.9-0.3,1-0.7c0-0.1,0-0.2,0-0.2V-361.9z"/>
		<path d="M592.5-362.8c0-0.4,0-0.8,0-1.1h0.7l0,0.7h0c0.2-0.4,0.7-0.8,1.4-0.8c0.6,0,1.4,0.3,1.4,1.7v2.4h-0.7v-2.4
			c0-0.7-0.2-1.2-0.9-1.2c-0.5,0-0.9,0.3-1,0.8c0,0.1-0.1,0.2-0.1,0.3v2.5h-0.7L592.5-362.8L592.5-362.8z"/>
		<path d="M598-364.8v1h1.1v0.6H598v2.2c0,0.5,0.1,0.8,0.6,0.8c0.2,0,0.3,0,0.4-0.1l0,0.6c-0.1,0.1-0.4,0.1-0.7,0.1
			c-0.3,0-0.6-0.1-0.8-0.3c-0.2-0.2-0.3-0.6-0.3-1.1v-2.2h-0.6v-0.6h0.6v-0.8L598-364.8z"/>
		<path d="M601.5-359.7c-1.1,0-2-0.8-2-2.1c0-1.4,0.9-2.2,2-2.2c1.2,0,2,0.9,2,2.1C603.6-360.3,602.5-359.7,601.5-359.7L601.5-359.7
			z M601.5-360.2c0.7,0,1.2-0.7,1.2-1.6c0-0.7-0.3-1.6-1.2-1.6c-0.9,0-1.2,0.8-1.2,1.6C600.3-360.9,600.8-360.2,601.5-360.2
			L601.5-360.2L601.5-360.2z"/>
		<path d="M604.5-362.8c0-0.4,0-0.8,0-1.1h0.7l0,0.7h0c0.2-0.4,0.7-0.8,1.3-0.8c0.6,0,1.4,0.3,1.4,1.7v2.4h-0.7v-2.4
			c0-0.7-0.2-1.2-0.9-1.2c-0.5,0-0.9,0.3-1,0.8c0,0.1-0.1,0.2-0.1,0.3v2.5h-0.7L604.5-362.8L604.5-362.8z"/>
		<path d="M609.6-361.7c0,1,0.7,1.4,1.4,1.4c0.5,0,0.9-0.1,1.1-0.2l0.1,0.5c-0.3,0.1-0.7,0.3-1.4,0.3c-1.2,0-2-0.8-2-2.1
			c0-1.2,0.7-2.2,1.9-2.2c1.3,0,1.7,1.2,1.7,1.9c0,0.2,0,0.3,0,0.4L609.6-361.7z M611.8-362.2c0-0.5-0.2-1.2-1-1.2
			c-0.8,0-1.1,0.7-1.1,1.2H611.8z"/>
		<path d="M618.1-364.7c-0.2,0-0.3,0-0.6,0c-1.2,0.2-1.8,1-1.9,1.9h0c0.3-0.4,0.7-0.6,1.3-0.6c1,0,1.7,0.7,1.7,1.8
			c0,1-0.7,1.9-1.8,1.9c-1.2,0-1.9-0.9-1.9-2.3c0-1.1,0.4-1.9,0.9-2.5c0.5-0.4,1.1-0.7,1.8-0.8c0.2,0,0.4,0,0.5,0L618.1-364.7
			L618.1-364.7z M616.8-360.3c0.6,0,1.1-0.5,1.1-1.3c0-0.8-0.4-1.3-1.1-1.3c-0.4,0-0.9,0.3-1.1,0.7c0,0.1-0.1,0.2-0.1,0.3
			C615.6-360.9,616-360.3,616.8-360.3L616.8-360.3L616.8-360.3z"/>
		<path d="M621.6-359.8v-1.5H619v-0.5l2.4-3.5h0.8v3.4h0.8v0.6h-0.8v1.5H621.6z M621.6-361.8v-1.8c0-0.3,0-0.6,0-0.9h0
			c-0.2,0.3-0.3,0.6-0.5,0.8l-1.3,1.9v0L621.6-361.8L621.6-361.8z"/>
		<path d="M627.2-365.3v0.5l-2.4,5H624l2.4-4.9v0h-2.7v-0.6L627.2-365.3L627.2-365.3z"/>
		<path d="M630.8-365.5v3.4c0,1.3,0.6,1.8,1.3,1.8c0.8,0,1.4-0.6,1.4-1.8v-3.4h0.7v3.3c0,1.7-0.9,2.5-2.2,2.5c-1.2,0-2-0.7-2-2.4
			v-3.4H630.8z"/>
	</g>
	<g display="inline">
		<path d="M584.1-342.9c0.4-0.1,0.8-0.1,1.4-0.1c0.7,0,1.3,0.2,1.6,0.5c0.3,0.3,0.5,0.7,0.5,1.2c0,0.5-0.2,0.9-0.4,1.2
			c-0.4,0.4-1,0.6-1.7,0.6c-0.2,0-0.4,0-0.6-0.1v2.3h-0.7V-342.9z M584.9-340.1c0.2,0,0.4,0.1,0.6,0.1c0.9,0,1.4-0.4,1.4-1.2
			c0-0.8-0.5-1.1-1.3-1.1c-0.3,0-0.6,0-0.7,0.1L584.9-340.1L584.9-340.1z"/>
		<path d="M591.3-338.2c0,0.4,0,0.7,0.1,1h-0.7l-0.1-0.5h0c-0.2,0.3-0.7,0.6-1.2,0.6c-0.8,0-1.2-0.6-1.2-1.2c0-1,0.9-1.5,2.5-1.5
			v-0.1c0-0.3-0.1-1-0.9-0.9c-0.4,0-0.8,0.1-1.1,0.3l-0.2-0.5c0.3-0.2,0.8-0.4,1.4-0.4c1.3,0,1.6,0.9,1.6,1.7L591.3-338.2
			L591.3-338.2z M590.5-339.3c-0.8,0-1.7,0.1-1.7,0.9c0,0.5,0.3,0.7,0.7,0.7c0.5,0,0.9-0.3,1-0.7c0-0.1,0-0.2,0-0.2V-339.3z"/>
		<path d="M592.5-340.2c0-0.4,0-0.8,0-1.1h0.7l0,0.7h0c0.2-0.4,0.7-0.8,1.4-0.8c0.6,0,1.4,0.3,1.4,1.7v2.4h-0.7v-2.4
			c0-0.7-0.2-1.2-0.9-1.2c-0.5,0-0.9,0.3-1,0.8c0,0.1-0.1,0.2-0.1,0.3v2.5h-0.7L592.5-340.2L592.5-340.2z"/>
		<path d="M598-342.3v1h1.1v0.6H598v2.2c0,0.5,0.1,0.8,0.6,0.8c0.2,0,0.3,0,0.4-0.1l0,0.6c-0.1,0.1-0.4,0.1-0.7,0.1
			c-0.3,0-0.6-0.1-0.8-0.3c-0.2-0.2-0.3-0.6-0.3-1.1v-2.2h-0.6v-0.6h0.6v-0.8L598-342.3z"/>
		<path d="M601.5-337.2c-1.1,0-2-0.8-2-2.1c0-1.4,0.9-2.2,2-2.2c1.2,0,2,0.9,2,2.1C603.6-337.8,602.5-337.2,601.5-337.2L601.5-337.2
			z M601.5-337.7c0.7,0,1.2-0.7,1.2-1.6c0-0.7-0.3-1.6-1.2-1.6c-0.9,0-1.2,0.8-1.2,1.6C600.3-338.4,600.8-337.7,601.5-337.7
			L601.5-337.7L601.5-337.7z"/>
		<path d="M604.5-340.2c0-0.4,0-0.8,0-1.1h0.7l0,0.7h0c0.2-0.4,0.7-0.8,1.3-0.8c0.6,0,1.4,0.3,1.4,1.7v2.4h-0.7v-2.4
			c0-0.7-0.2-1.2-0.9-1.2c-0.5,0-0.9,0.3-1,0.8c0,0.1-0.1,0.2-0.1,0.3v2.5h-0.7L604.5-340.2L604.5-340.2z"/>
		<path d="M609.6-339.2c0,1,0.7,1.4,1.4,1.4c0.5,0,0.9-0.1,1.1-0.2l0.1,0.5c-0.3,0.1-0.7,0.3-1.4,0.3c-1.2,0-2-0.8-2-2.1
			c0-1.2,0.7-2.2,1.9-2.2c1.3,0,1.7,1.2,1.7,1.9c0,0.2,0,0.3,0,0.4L609.6-339.2z M611.8-339.7c0-0.5-0.2-1.2-1-1.2
			c-0.8,0-1.1,0.7-1.1,1.2H611.8z"/>
		<path d="M618.5-342.7v0.5l-2.4,5h-0.8l2.4-4.9v0h-2.7v-0.6H618.5z"/>
		<path d="M621.6-337.3v-1.5H619v-0.5l2.4-3.5h0.8v3.4h0.8v0.6h-0.8v1.5H621.6z M621.6-339.3v-1.8c0-0.3,0-0.6,0-0.9h0
			c-0.2,0.3-0.3,0.6-0.5,0.8l-1.3,1.9v0L621.6-339.3L621.6-339.3z"/>
		<path d="M626.8-342.2c-0.2,0-0.3,0-0.6,0c-1.2,0.2-1.8,1-1.9,1.9h0c0.3-0.4,0.7-0.6,1.3-0.6c1,0,1.7,0.7,1.7,1.8
			c0,1-0.7,1.9-1.8,1.9c-1.2,0-1.9-0.9-1.9-2.3c0-1.1,0.4-1.9,0.9-2.5c0.5-0.4,1.1-0.7,1.8-0.8c0.2,0,0.4,0,0.5,0L626.8-342.2
			L626.8-342.2z M625.5-337.7c0.6,0,1.1-0.5,1.1-1.3c0-0.8-0.4-1.3-1.1-1.3c-0.4,0-0.9,0.3-1.1,0.7c0,0.1-0.1,0.2-0.1,0.3
			C624.3-338.4,624.7-337.7,625.5-337.7L625.5-337.7z"/>
		<path d="M629.6-342L629.6-342l-1,0.5l-0.1-0.6l1.2-0.6h0.6v5.5h-0.7L629.6-342L629.6-342z"/>
		<path d="M635.1-342.9v3.4c0,1.3,0.6,1.8,1.3,1.8c0.8,0,1.4-0.6,1.4-1.8v-3.4h0.7v3.3c0,1.7-0.9,2.5-2.2,2.5c-1.2,0-2-0.7-2-2.4
			v-3.4L635.1-342.9L635.1-342.9z"/>
	</g>
	<g display="inline">
		<path d="M584.1-317.9c0.4-0.1,0.8-0.1,1.4-0.1c0.7,0,1.3,0.2,1.6,0.5c0.3,0.3,0.5,0.7,0.5,1.2c0,0.5-0.2,0.9-0.4,1.2
			c-0.4,0.4-1,0.6-1.7,0.6c-0.2,0-0.4,0-0.6-0.1v2.3h-0.7V-317.9z M584.9-315.1c0.2,0,0.4,0.1,0.6,0.1c0.9,0,1.4-0.4,1.4-1.2
			c0-0.8-0.5-1.1-1.3-1.1c-0.3,0-0.6,0-0.7,0.1L584.9-315.1L584.9-315.1z"/>
		<path d="M591.3-313.2c0,0.4,0,0.7,0.1,1h-0.7l-0.1-0.5h0c-0.2,0.3-0.7,0.6-1.2,0.6c-0.8,0-1.2-0.6-1.2-1.2c0-1,0.9-1.5,2.5-1.5
			v-0.1c0-0.3-0.1-1-0.9-0.9c-0.4,0-0.8,0.1-1.1,0.3l-0.2-0.5c0.3-0.2,0.8-0.4,1.4-0.4c1.3,0,1.6,0.9,1.6,1.7L591.3-313.2
			L591.3-313.2z M590.5-314.4c-0.8,0-1.7,0.1-1.7,0.9c0,0.5,0.3,0.7,0.7,0.7c0.5,0,0.9-0.3,1-0.7c0-0.1,0-0.2,0-0.2V-314.4z"/>
		<path d="M592.5-315.2c0-0.4,0-0.8,0-1.1h0.7l0,0.7h0c0.2-0.4,0.7-0.8,1.4-0.8c0.6,0,1.4,0.3,1.4,1.7v2.4h-0.7v-2.4
			c0-0.7-0.2-1.2-0.9-1.2c-0.5,0-0.9,0.3-1,0.8c0,0.1-0.1,0.2-0.1,0.3v2.5h-0.7L592.5-315.2L592.5-315.2z"/>
		<path d="M598-317.3v1h1.1v0.6H598v2.2c0,0.5,0.1,0.8,0.6,0.8c0.2,0,0.3,0,0.4-0.1l0,0.6c-0.1,0.1-0.4,0.1-0.7,0.1
			c-0.3,0-0.6-0.1-0.8-0.3c-0.2-0.2-0.3-0.6-0.3-1.1v-2.2h-0.6v-0.6h0.6v-0.8L598-317.3z"/>
		<path d="M601.5-312.2c-1.1,0-2-0.8-2-2.1c0-1.4,0.9-2.2,2-2.2c1.2,0,2,0.9,2,2.1C603.6-312.8,602.5-312.2,601.5-312.2L601.5-312.2
			z M601.5-312.7c0.7,0,1.2-0.7,1.2-1.6c0-0.7-0.3-1.6-1.2-1.6c-0.9,0-1.2,0.8-1.2,1.6C600.3-313.4,600.8-312.7,601.5-312.7
			L601.5-312.7z"/>
		<path d="M604.5-315.2c0-0.4,0-0.8,0-1.1h0.7l0,0.7h0c0.2-0.4,0.7-0.8,1.3-0.8c0.6,0,1.4,0.3,1.4,1.7v2.4h-0.7v-2.4
			c0-0.7-0.2-1.2-0.9-1.2c-0.5,0-0.9,0.3-1,0.8c0,0.1-0.1,0.2-0.1,0.3v2.5h-0.7L604.5-315.2L604.5-315.2z"/>
		<path d="M609.6-314.2c0,1,0.7,1.4,1.4,1.4c0.5,0,0.9-0.1,1.1-0.2l0.1,0.5c-0.3,0.1-0.7,0.3-1.4,0.3c-1.2,0-2-0.8-2-2.1
			c0-1.2,0.7-2.2,1.9-2.2c1.3,0,1.7,1.2,1.7,1.9c0,0.2,0,0.3,0,0.4L609.6-314.2z M611.8-314.7c0-0.5-0.2-1.2-1-1.2
			c-0.8,0-1.1,0.7-1.1,1.2H611.8z"/>
		<path d="M616.6-317.1L616.6-317.1l-1,0.5l-0.1-0.6l1.2-0.6h0.6v5.5h-0.7L616.6-317.1L616.6-317.1z"/>
		<path d="M621-312.2c-1.1,0-1.8-1-1.8-2.8c0-1.8,0.8-2.9,1.9-2.9c1.1,0,1.8,1,1.8,2.8C623-313.2,622.3-312.2,621-312.2L621-312.2z
			 M621.1-312.7c0.8,0,1.1-0.9,1.1-2.3c0-1.4-0.3-2.2-1.1-2.2c-0.7,0-1.1,0.9-1.1,2.2C620-313.6,620.4-312.7,621.1-312.7
			L621.1-312.7z"/>
		<path d="M624.1-312.8c0.2,0,0.3,0,0.6,0c0.4-0.1,0.8-0.2,1.1-0.5c0.4-0.3,0.6-0.8,0.7-1.5h0c-0.3,0.4-0.7,0.6-1.3,0.6
			c-1,0-1.6-0.7-1.6-1.7c0-1,0.8-1.9,1.9-1.9c1.1,0,1.8,0.9,1.8,2.3c0,1.2-0.4,2.1-0.9,2.6c-0.4,0.4-1,0.7-1.6,0.7
			c-0.3,0-0.5,0.1-0.7,0V-312.8z M625.4-317.3c-0.6,0-1.1,0.6-1.1,1.3c0,0.7,0.4,1.2,1.1,1.2c0.5,0,0.9-0.2,1.1-0.6
			c0-0.1,0.1-0.2,0.1-0.3C626.5-316.6,626.2-317.3,625.4-317.3L625.4-317.3L625.4-317.3z"/>
		<path d="M630.8-318v3.4c0,1.3,0.6,1.8,1.3,1.8c0.8,0,1.4-0.6,1.4-1.8v-3.4h0.7v3.3c0,1.7-0.9,2.5-2.2,2.5c-1.2,0-2-0.7-2-2.4v-3.4
			L630.8-318L630.8-318z"/>
	</g>
	<g display="inline">
		<path d="M584.1-294c0.4-0.1,0.8-0.1,1.4-0.1c0.7,0,1.3,0.2,1.6,0.5c0.3,0.3,0.5,0.7,0.5,1.2c0,0.5-0.2,0.9-0.4,1.2
			c-0.4,0.4-1,0.6-1.7,0.6c-0.2,0-0.4,0-0.6-0.1v2.3h-0.7V-294z M584.9-291.2c0.2,0,0.4,0.1,0.6,0.1c0.9,0,1.4-0.4,1.4-1.2
			c0-0.8-0.5-1.1-1.3-1.1c-0.3,0-0.6,0-0.7,0.1L584.9-291.2L584.9-291.2z"/>
		<path d="M591.3-289.3c0,0.4,0,0.7,0.1,1h-0.7l-0.1-0.5h0c-0.2,0.3-0.7,0.6-1.2,0.6c-0.8,0-1.2-0.6-1.2-1.2c0-1,0.9-1.5,2.5-1.5
			v-0.1c0-0.3-0.1-1-0.9-0.9c-0.4,0-0.8,0.1-1.1,0.3l-0.2-0.5c0.3-0.2,0.8-0.4,1.4-0.4c1.3,0,1.6,0.9,1.6,1.7L591.3-289.3
			L591.3-289.3z M590.5-290.4c-0.8,0-1.7,0.1-1.7,0.9c0,0.5,0.3,0.7,0.7,0.7c0.5,0,0.9-0.3,1-0.7c0-0.1,0-0.2,0-0.2V-290.4z"/>
		<path d="M592.5-291.3c0-0.4,0-0.8,0-1.1h0.7l0,0.7h0c0.2-0.4,0.7-0.8,1.4-0.8c0.6,0,1.4,0.3,1.4,1.7v2.4h-0.7v-2.4
			c0-0.7-0.2-1.2-0.9-1.2c-0.5,0-0.9,0.3-1,0.8c0,0.1-0.1,0.2-0.1,0.3v2.5h-0.7L592.5-291.3L592.5-291.3z"/>
		<path d="M598-293.4v1h1.1v0.6H598v2.2c0,0.5,0.1,0.8,0.6,0.8c0.2,0,0.3,0,0.4-0.1l0,0.6c-0.1,0.1-0.4,0.1-0.7,0.1
			c-0.3,0-0.6-0.1-0.8-0.3c-0.2-0.2-0.3-0.6-0.3-1.1v-2.2h-0.6v-0.6h0.6v-0.8L598-293.4z"/>
		<path d="M601.5-288.2c-1.1,0-2-0.8-2-2.1c0-1.4,0.9-2.2,2-2.2c1.2,0,2,0.9,2,2.1C603.6-288.9,602.5-288.2,601.5-288.2L601.5-288.2
			z M601.5-288.8c0.7,0,1.2-0.7,1.2-1.6c0-0.7-0.3-1.6-1.2-1.6c-0.9,0-1.2,0.8-1.2,1.6C600.3-289.5,600.8-288.8,601.5-288.8
			L601.5-288.8L601.5-288.8z"/>
		<path d="M604.5-291.3c0-0.4,0-0.8,0-1.1h0.7l0,0.7h0c0.2-0.4,0.7-0.8,1.3-0.8c0.6,0,1.4,0.3,1.4,1.7v2.4h-0.7v-2.4
			c0-0.7-0.2-1.2-0.9-1.2c-0.5,0-0.9,0.3-1,0.8c0,0.1-0.1,0.2-0.1,0.3v2.5h-0.7L604.5-291.3L604.5-291.3z"/>
		<path d="M609.6-290.3c0,1,0.7,1.4,1.4,1.4c0.5,0,0.9-0.1,1.1-0.2l0.1,0.5c-0.3,0.1-0.7,0.3-1.4,0.3c-1.2,0-2-0.8-2-2.1
			c0-1.2,0.7-2.2,1.9-2.2c1.3,0,1.7,1.2,1.7,1.9c0,0.2,0,0.3,0,0.4L609.6-290.3z M611.8-290.8c0-0.5-0.2-1.2-1-1.2
			c-0.8,0-1.1,0.7-1.1,1.2H611.8z"/>
		<path d="M615.1-289.2c0.2,0.1,0.7,0.3,1.2,0.3c0.9,0,1.2-0.6,1.2-1.1c0-0.8-0.7-1.1-1.4-1.1h-0.4v-0.6h0.4c0.5,0,1.2-0.3,1.2-0.9
			c0-0.4-0.3-0.8-1-0.8c-0.4,0-0.9,0.2-1.1,0.4l-0.2-0.5c0.3-0.2,0.9-0.4,1.4-0.4c1.1,0,1.6,0.6,1.6,1.3c0,0.6-0.3,1.1-1,1.3v0
			c0.7,0.1,1.2,0.6,1.2,1.4c0,0.9-0.7,1.6-2,1.6c-0.6,0-1.2-0.2-1.4-0.4L615.1-289.2z"/>
		<path d="M621.6-288.3v-1.5H619v-0.5l2.4-3.5h0.8v3.4h0.8v0.6h-0.8v1.5H621.6z M621.6-290.4v-1.8c0-0.3,0-0.6,0-0.9h0
			c-0.2,0.3-0.3,0.6-0.5,0.8l-1.3,1.9v0L621.6-290.4L621.6-290.4z"/>
		<path d="M624.1-288.9c0.2,0,0.3,0,0.6,0c0.4-0.1,0.8-0.2,1.1-0.5c0.4-0.3,0.6-0.8,0.7-1.5h0c-0.3,0.4-0.7,0.6-1.3,0.6
			c-1,0-1.6-0.7-1.6-1.7c0-1,0.8-1.9,1.9-1.9c1.1,0,1.8,0.9,1.8,2.3c0,1.2-0.4,2.1-0.9,2.6c-0.4,0.4-1,0.7-1.6,0.7
			c-0.3,0-0.5,0.1-0.7,0V-288.9z M625.4-293.4c-0.6,0-1.1,0.6-1.1,1.3c0,0.7,0.4,1.2,1.1,1.2c0.5,0,0.9-0.2,1.1-0.6
			c0-0.1,0.1-0.2,0.1-0.3C626.5-292.6,626.2-293.4,625.4-293.4L625.4-293.4L625.4-293.4z"/>
		<path d="M630.8-294v3.4c0,1.3,0.6,1.8,1.3,1.8c0.8,0,1.4-0.6,1.4-1.8v-3.4h0.7v3.3c0,1.7-0.9,2.5-2.2,2.5c-1.2,0-2-0.7-2-2.4v-3.4
			L630.8-294L630.8-294z"/>
	</g>
</g>
</svg>
