<svg width="64" height="64" xmlns="http://www.w3.org/2000/svg"><g><path fill="#e7e7e7" d="m34.56,39.83c-0.00,-3.04 0.42,-6 1.26,-8.85c0.84,-2.85 2.20,-5.50 4.07,-7.94c1.92,-2.43 4.38,-4.61 7.38,-6.53c2.99,-1.96 6.63,-3.58 10.89,-4.85l0,6.04c-4.68,1.50 -8.13,3.32 -10.33,5.48c-2.20,2.15 -3.30,4.64 -3.30,7.45c-0.00,0.93 0.25,1.73 0.77,2.39c0.51,0.60 1.14,1.17 1.89,1.68c0.79,0.46 1.64,0.93 2.53,1.40c0.93,0.46 1.78,1.03 2.53,1.68c0.79,0.65 1.45,1.47 1.96,2.46c0.51,0.93 0.77,2.13 0.77,3.58c-0.00,2.76 -0.89,4.87 -2.67,6.32c-1.78,1.45 -4.00,2.17 -6.67,2.17c-1.45,0 -2.85,-0.25 -4.21,-0.77c-1.35,-0.56 -2.55,-1.35 -3.58,-2.39c-0.98,-1.07 -1.78,-2.39 -2.39,-3.93c-0.60,-1.59 -0.91,-3.39 -0.91,-5.41m-28.75,0c0,-3.04 0.42,-6 1.26,-8.85c0.84,-2.85 2.20,-5.50 4.07,-7.94c1.92,-2.43 4.38,-4.61 7.38,-6.53c2.99,-1.96 6.63,-3.58 10.89,-4.85l0,6.04c-4.73,1.50 -8.20,3.32 -10.40,5.48c-2.20,2.15 -3.30,4.64 -3.30,7.45c-0.00,0.93 0.25,1.73 0.77,2.39c0.51,0.60 1.17,1.17 1.96,1.68c0.79,0.46 1.64,0.93 2.53,1.40c0.89,0.46 1.73,1.03 2.53,1.68c0.79,0.65 1.45,1.47 1.96,2.46c0.51,0.93 0.77,2.13 0.77,3.58c-0.00,2.76 -0.91,4.87 -2.74,6.32c-1.78,1.45 -4.00,2.17 -6.67,2.17c-1.45,0 -2.85,-0.25 -4.21,-0.77c-1.31,-0.56 -2.48,-1.35 -3.51,-2.39c-1.03,-1.07 -1.85,-2.39 -2.46,-3.93c-0.56,-1.59 -0.84,-3.39 -0.84,-5.41"/></g></svg>
