<?xml version="1.0" encoding="UTF-8" standalone="no"?>
<svg
   xmlns:dc="http://purl.org/dc/elements/1.1/"
   xmlns:cc="http://creativecommons.org/ns#"
   xmlns:rdf="http://www.w3.org/1999/02/22-rdf-syntax-ns#"
   xmlns:svg="http://www.w3.org/2000/svg"
   xmlns="http://www.w3.org/2000/svg"
   version="1.1"
   width="600"
   height="400">
  <g style="fill:#0099cc">
    <path d="m 108.04918,237.39655 c 0.5,-0.5 0.8,-2.3 -1.4,-2.2 0,0.1 0,0.2 0,0.4 0,0.8 -1.3,2.6 -2.1,4.1 l 1.3,0.6 c 0.8,-1.1 1.8,-2.5 2.2,-2.9 z"/>
    <path d="m 108.04918,237.39655 c -0.4,0.4 -1.5,1.7 -2.2,2.9 l 0.1,0.1 0.2,1 2.6,1.3 c 0,0 1.9,-1.3 2.7,-1.4 0.8,-0.1 9.5,-4.8 9.5,-4.8 0,0 0.8,-1.2 0.7,-1.7 -0.1,-0.4 -0.2,-1.7 0.2,-2.2 0.4,-0.6 -0.6,-1.4 -0.2,-2.3 0.3,-0.9 1.8,-1.3 1.8,-1.3 l 1.7,-1.2 -1.1,-0.3 c 0,0 -1.4,0.6 -3,0.4 -1.7,-0.1 -2,1.1 -3.7,1.1 -1.8,0 -2.7,0.4 -3.1,-0.1 -0.4,-0.6 -0.6,-0.2 -1.8,0.3 -1.2,0.6 -2,0.4 -2.6,0 -0.6,-0.4 -1,0.1 -1.1,0.7 -0.1,0.5 0.1,1.7 -1.7,2 -0.1,0.5 -0.3,1 0,1.4 0.4,0.6 -0.1,1.2 -0.2,2.1 2,-0.2 1.7,1.7 1.2,2 z"/>
    <path d="m 357.54918,225.29655 c -0.3,0.3 -1,0.7 -1.7,1.2 0.3,0.5 0.3,1.4 0.9,1.5 0.9,0.1 0.8,1.4 -0.2,1.2 -1,-0.2 -1,1.3 -0.1,2.6 0.8,1.3 -1.6,2.7 -0.9,3.3 0.7,0.7 0.1,1.5 0.4,1.9 0.3,0.4 3.7,-0.2 5.3,-1.8 1.5,-1.6 2,-1.4 2.7,-1.2 0.8,0.2 1.6,-0.6 1.2,-1.2 -0.4,-0.6 -0.9,-2.2 -0.8,-4 0.1,-1.1 -1.4,-3 -2.8,-4.6 -0.5,0.4 -0.9,0.6 -1.5,0.6 -0.9,-0.1 -2,0 -2.5,0.5 z"/>
    <path d="m 263.24918,274.79655 c -0.5,-2.7 -0.8,-5.3 -1.1,-5.3 -0.5,0 -1.2,2.4 -2,2.2 -0.8,-0.2 -0.8,-2.9 0.2,-2.9 1,0 2.2,-2.2 2.2,-2.8 0,-0.6 -1,-0.7 -2,-0.7 -1,0 -3.1,0.2 -3.1,0.2 0,0 -1.4,-0.5 -1.4,-1.4 0,-0.8 -0.5,-1.5 -1.9,-1.5 -1.3,0 -1.3,-1.3 -2.4,0 -1,1.4 2.2,1.4 1.9,2.4 -0.3,1 -1.4,0.3 -1.5,1.2 -0.2,0.8 0.2,2.9 0.7,4.1 0.4,0.9 1,3.1 1,5.1 0.8,-0.2 1.2,-0.5 1.9,-0.5 0.9,0 2.2,-0.1 2.2,-1.1 0.1,-1 1.1,-1.7 1.7,-1.4 0.6,0.3 1.5,2.6 1.5,3.7 0,0.4 0.2,0.9 0.4,1.4 0.5,-0.5 1,-0.8 1,-0.8 0,0 0.2,-1.4 0.7,-1.9 z"/>
    <path d="m 252.74918,270.09655 c -0.5,-1.2 -0.8,-3.3 -0.7,-4.1 0.2,-0.8 1.2,-0.2 1.5,-1.2 0.3,-1 -2.8,-1 -1.9,-2.4 1,-1.3 1,0 2.4,0 1.4,0 1.9,0.7 1.9,1.5 0,0.8 1.4,1.4 1.4,1.4 0,0 2.2,-0.2 3.1,-0.2 1,0 2,0 2,0.7 0,0.7 -1.2,2.8 -2.2,2.8 -1,0 -1,2.8 -0.2,2.9 0.8,0.2 1.5,-2.2 2,-2.2 0.4,0 0.6,2.7 1.1,5.3 0.1,-0.2 0.3,-0.3 0.4,-0.3 0.7,0 0.3,-2.3 0.8,-2.9 0.4,-0.7 0.2,-2.7 0.6,-2.7 0.4,0 2.3,0.7 2.2,0.1 -0.1,-0.6 1.2,-2.4 1,-3.3 -0.2,-1 0.8,-2.2 0.8,-3.3 0,-1.1 1.1,-1.6 1.9,-2.2 0.8,-0.7 2.1,-1.6 2.3,-1 0.2,0.6 1.9,1 1.2,0 -0.7,-1 -0.7,-1.7 -0.2,-1.9 0.4,-0.2 0.7,-1.3 0.7,-1.3 0,0 -1.4,-0.2 -1.7,-0.9 -0.2,-0.7 -1.1,-1.3 -1.1,-1.9 0,-0.6 -0.8,-0.3 -1.4,0.2 -0.7,0.6 -1.9,-0.7 -3.2,0.1 -1.4,0.8 -1.8,1.7 -2.4,1.6 -0.7,-0.1 -0.6,0.6 -1.1,1.1 -0.6,0.6 -1,1.2 -1.3,1.2 -0.3,0 -1.4,0.6 -1.4,0.6 0,0 0.8,1.7 0.3,2.4 -0.4,0.8 -1.6,0 -2.7,0.3 -1.2,0.3 -1.8,-0.4 -2.7,-0.2 -0.9,0.2 -1.4,-0.6 -1.9,-0.4 -0.4,0.1 -1.1,-1 -0.9,-1.9 0.2,-0.9 -0.4,-2.1 -0.9,-1.4 -0.4,0.7 -1.1,0.3 -1.1,1.3 0,1 0.6,2.2 -0.1,2.8 -0.7,0.7 -4.1,1 -4.8,0.4 -0.7,-0.6 -3.5,-0.9 -3.6,-1.4 -0.1,-0.6 -1,-1.6 -1.6,-1.6 -0.6,0 -2.2,0.8 -2.7,0.4 -0.4,-0.3 -1.6,-1.2 -2.3,-1.3 -0.8,-0.1 -2,-0.7 -2.1,-1.1 -0.1,-0.4 -1.9,-0.7 -2.2,-1.1 -0.3,-0.4 -1.4,-0.6 -1.4,-1.1 0,-0.6 0.4,-1.4 0.4,-2.1 0,-0.7 1.3,-1.3 1.3,-1.8 0,-0.4 -1.2,-1.2 -1.2,-1.2 0,0 -0.8,-1.4 -1.7,-1.4 -0.9,0 -1.6,-1.6 -2.3,-1.7 -0.8,-0.1 -0.6,-1.7 -1,-2.2 -0.4,-0.5 -0.1,-1.9 0.7,-1.2 0.8,0.7 2.2,0 1.7,-1 -0.6,-1 -1.6,-1.9 -1.6,-2.4 0,-0.6 0.7,-2.2 -0.1,-2.7 -0.8,-0.4 -1.4,-1.1 -1.7,-1.9 -0.2,-0.8 -1.1,-1.3 -1.1,-1.3 l -1.1,0.1 c 0,0 -0.7,1.8 -1.1,2 -0.4,0.2 -2,0.6 -2.7,1.1 -0.8,0.6 -2.9,-0.8 -4.1,-0.8 -1.2,0 -2,1.2 -1.4,1.6 0.6,0.3 0.4,2.7 0.4,2.7 0,0 0.7,2.8 1.7,2.7 1,-0.2 2.2,1 1.3,1.2 -0.9,0.2 -1.3,1.2 -1.4,2.1 -0.1,0.9 0.1,2 -0.6,2.1 -0.7,0.1 -1.3,0.3 -1.3,1.6 0,1.2 -1.4,0.9 -1.7,1.3 -0.2,0.4 -0.8,2.7 -1.1,2.9 -0.3,0.3 -2.2,0.4 -2.3,1.4 -0.1,1 -1,2.2 -1.6,2.1 -0.6,-0.1 -1.6,-0.6 -1.9,0.1 -0.3,0.7 -1.8,-0.6 -2.1,-0.2 -0.3,0.4 -2.1,1.8 -2.1,2.7 0,0.9 1.9,0.9 1.8,2 -0.1,1.1 0.7,2.3 1.2,2.8 0.6,0.6 1.4,1.9 1,2.6 -0.4,0.7 -1.1,0.8 -2.1,0.6 -1,-0.2 -0.9,0.4 -2.7,0.1 -1.8,-0.3 -1.9,1 -2.6,1.8 0,0 -0.1,0.1 -0.2,0.2 0.8,0.7 1.2,1.8 2.6,2.4 1.6,0.6 3,-1 3,0.2 0,1.2 -3.7,1 -3.8,1.3 -0.1,0.4 3.9,5.1 5.9,4.8 2,-0.4 3.4,-2.6 2.9,-2.8 -0.6,-0.3 0.3,-1.7 0.9,-1.5 0.6,0.2 0.1,2.4 0.7,2.8 0.6,0.4 0.4,1.4 0,2.6 -0.4,1.2 0.4,3.4 0.5,4.7 0.1,1.3 1,3.1 1.3,5 0.3,1.9 1.5,5.3 2.6,7.4 1.1,2.1 2,6.2 2.7,7.2 0.7,1 2.7,3.9 2.7,5.8 0,1.9 2,4.4 2.7,4.9 0.7,0.5 2.2,-0.6 2.6,-1.8 0.4,-1.2 2.5,-1.6 2.6,-2.6 0.1,-1 0.3,-1.8 1.1,-1.9 0.8,-0.1 0.8,-0.9 0.8,-2 0,-1.1 0.1,-2.6 0.8,-3.5 0.8,-1 0.9,-3.4 0.4,-4.5 -0.5,-1 -0.2,-2.5 0.2,-3.4 0.4,-0.9 0.2,-2.2 1,-2.3 0.8,-0.1 2,-0.8 2.7,-1.9 0.7,-1.1 3.3,-2.7 4.2,-3.3 0.9,-0.7 3.6,-3.1 4.4,-4.5 0.8,-1.4 3.1,-1.8 4.2,-2.9 1.1,-1.1 0.7,-1.7 0.9,-2.8 0.2,-1.1 3.6,-1.7 4.9,-1.7 0.3,0 0.5,0 0.7,-0.1 0.3,-2.1 -0.3,-4.4 -0.7,-5.3 z"/>
    <path d="m 334.24918,192.39655 c -0.9,-1.1 -2.4,-0.5 -2.7,0.4 -0.4,0.9 -1.1,-0.4 -2.7,-0.4 -1.6,0 -1.8,0.9 -2.8,-0.2 -1.1,-1.1 0.4,-1.5 0.4,-1.5 l 0.2,-1.5 2.3,-4.4 c -0.6,-0.3 -1.6,-0.4 -2,-0.2 -0.7,0.2 -2.2,0.1 -2.4,-0.5 -0.2,-0.6 -2.7,-0.7 -3.4,-0.2 -0.7,0.5 -2.2,0.9 -2.2,1.5 -0.1,0.6 -1.7,0.4 -2.2,0.8 -0.6,0.4 -3.5,0.6 -3.6,0.9 -0.1,0.3 -3.1,0.4 -3.7,0 -0.5,-0.4 -3.1,0 -3.5,-0.7 -0.3,-0.7 -1.5,-1 -1.5,-1.6 0,-0.6 -2.1,-0.6 -2.3,-1.1 -0.2,-0.5 -1.9,-0.8 -2.2,-0.6 -0.2,0.2 -2.1,-0.5 -2.6,-0.6 -0.5,-0.1 -2.1,0.3 -2.6,0.3 -0.5,0 -1.4,0.9 -2,1 -0.6,0.1 -2.2,-1 -2.5,-0.8 -0.3,0.2 -1.3,-0.8 -1.8,-1.3 -0.4,-0.5 0,-1.9 -0.3,-2.4 -0.3,-0.5 -2.2,-0.5 -2.7,-0.8 -0.6,-0.3 -1.5,-0.8 -2.1,-0.8 -0.6,0 -1.5,-0.2 -1.8,-0.4 -0.3,-0.2 -1.5,-0.7 -2.1,-0.8 -0.6,-0.2 -0.7,0.6 -1,0.9 -0.3,0.3 -1.3,0.4 -1.5,1 -0.2,0.6 -1.3,0.8 -1.2,1.4 0.2,0.7 0.6,2 1,2.3 0.4,0.3 0.2,1.3 -0.1,1.7 -0.2,0.3 -2,0.6 -2.3,1.2 -0.3,0.6 -1.2,-0.1 -2,-0.6 -0.8,-0.5 -1.8,-0.2 -2.2,0.2 -0.4,0.3 -1.9,-0.8 -2.3,-0.9 -0.4,-0.1 -0.5,-1.7 -0.9,-1.6 -0.4,0.1 -3.2,-0.5 -3.8,-0.7 -0.6,-0.2 -1.8,-0.1 -2,0.3 -0.2,0.4 -1.7,0.3 -1.9,0.8 -0.2,0.5 -1.4,0.8 -1.8,1.2 -0.4,0.5 -1.8,0.5 -2.2,1.2 -0.3,0.8 -2.1,1.1 -2.6,1.2 -0.5,0.1 -1.8,0.3 -1.9,0.8 0,0.2 -0.2,0.2 -0.5,0.2 0,0.1 0.1,0.2 0.1,0.3 0.3,1.9 1.2,1.8 2,2.6 0.9,0.8 1.6,1.3 2.5,1.4 0.9,0.1 2.3,1.2 2.4,2 0.1,0.8 1,1.7 1.5,2.1 0.5,0.4 -0.2,1.8 -0.2,2.7 0,1 -1.3,1.3 -0.6,2.3 0.6,1 5,1.6 6.2,1.6 1.3,0 1.7,1.2 2.1,1.3 0.8,0.1 0.9,1.1 1.8,1.3 0.9,0.2 1.8,0.7 2.2,2.4 0.4,1.6 1.5,2.2 1.6,2.8 0.2,0.7 2.2,0.2 3.5,0.4 1.5,0.2 5.5,0 6.6,0.2 1.1,0.2 3.5,0 5,1.1 1.5,1.1 2.2,0.2 3,0.7 0.8,0.5 1.6,0.9 2.8,0.7 1.3,-0.2 1.3,0.9 2.2,1.1 0.9,0.2 2.5,-1.5 4.8,-2.5 2.4,-1.1 5,-0.4 6.3,-0.2 1.3,0.2 3.5,-0.5 5,-2.2 1.5,-1.6 3.2,-1.3 3.3,-2.7 0.2,-1.5 -1.5,-2 -0.7,-3.2 0.7,-1.3 2,-1.1 2.7,-0.7 0.7,0.4 2.7,0.9 4.4,-0.4 1.7,-1.3 2.5,-1.1 4.1,-1.3 1.6,-0.2 1.5,-1.3 2.5,-2.4 1.1,-1.1 2.4,-1.5 3.3,-1.5 1.1,0 2.5,-1.1 3.5,-0.7 1.1,0.4 2.7,0.5 2.8,-0.4 1.1,-0.7 -1.8,-2.4 -2.7,-3.5 z"/>
    <path d="m 104.94918,242.29655 c -0.4,0.2 -0.6,1.8 -0.6,2 0,0.2 0.3,1 1,1.8 0.2,-1.2 0.2,-2.8 0.3,-3.2 0,-0.1 0.1,-0.3 0.1,-0.5 -0.3,-0.1 -0.6,-0.1 -0.8,-0.1 z"/>
    <path d="m 103.84918,251.19655 c 0.1,0.1 0.2,0.1 0.3,0.2 0.2,-1.7 0.6,-3.6 0.9,-4 0.2,-0.2 0.3,-0.7 0.4,-1.4 -0.8,-0.8 -1,-1.6 -1,-1.8 0,-0.3 0.2,-1.9 0.6,-2 0.1,0 0.4,0 0.9,0 0.1,-0.5 0.2,-1.2 0.2,-1.9 l -1.4,-0.6 c -0.2,0.5 -0.4,0.9 -0.4,1.3 -0.2,1.5 -1.6,3.9 -2.2,4.9 l 2,4.9 -0.3,0.4 z"/>
    <path d="m 114.94918,239.59655 c -1.8,0.9 -3.2,1.7 -3.5,1.7 -0.8,0.1 -2.7,1.4 -2.7,1.4 l -2.6,-1.3 -0.2,-1 h -0.1 c -0.1,1 -0.2,2.1 -0.3,2.4 -0.2,0.7 -0.2,3.9 -0.7,4.6 -0.3,0.4 -0.7,2.4 -0.9,4 0.9,0.5 2,1 2.5,1.1 1,0.1 2.2,-1 2.2,-1.7 0,-0.7 0.9,-0.8 1.8,-0.8 0.9,0 1,-1 1.7,-1.3 0.7,-0.3 -1.4,-2.2 -2.1,-2.4 -0.7,-0.2 0.6,-1.7 2.7,-1.8 2.2,-0.1 1.7,-0.9 2.8,-0.9 0.1,0 0.1,0 0.2,0 -0.2,-1 -0.5,-2.2 -0.7,-2.7 0.1,-0.2 0,-0.7 -0.1,-1.3 z"/>
    <path d="m 228.74918,210.49655 c -1.1,-1.2 -1.4,-0.4 -2.7,-0.8 -1.2,-0.3 -6.1,-0.8 -7.1,-0.4 -1,0.4 -3,-0.8 -3.7,-1.1 -0.7,-0.3 -2.7,0 -2.8,1.2 -0.1,1.2 -1,1.2 -2.5,0.4 -1.5,-0.8 -3.7,-0.8 -3.7,0.1 -0.1,0.8 -1.2,1.7 -1.8,1.9 -0.2,0.1 -0.5,0.8 -0.9,1.6 0.5,0.2 0.7,0.6 1,0.9 0.6,0.7 2,0.6 2.2,-0.1 0.2,-0.7 2.6,0.7 3.8,1.8 1.3,1.1 -0.7,0.3 -1.2,1.4 -0.6,1.1 -2.2,0 -2.7,0.4 -0.4,0.4 -3.2,0.7 -4,0.6 -0.8,-0.1 -2.1,1.1 -2,1.7 0.1,0.6 2.9,-0.3 3.9,0.3 1,0.7 2,-0.7 2.6,0.1 0.6,0.8 1.8,0.2 2.3,0.4 0.6,0.2 3.5,-0.2 3.6,-0.2 0.3,-0.4 0.5,-0.9 0.5,-1.4 0,-0.8 0.6,-0.6 1.2,-0.8 0.6,-0.2 1.1,-1 1.6,-1 0.5,0 1.2,-0.8 1.7,-0.6 0.5,0.2 1.1,1.1 1.8,0.6 0.7,-0.5 0.8,-0.1 1.7,-1.1 0.9,-1 1.4,-0.9 2.6,-0.8 1.3,0.1 1.9,-0.5 2.2,-1.2 0.3,-0.7 1.5,-0.8 2.2,-1.2 0.7,-0.4 2.1,-1.1 2.5,-1.2 0.2,-0.1 0.3,-0.3 0.3,-0.6 -1.2,-0.8 -1.7,0.2 -2.6,-0.9 z"/>
    <path d="m 125.54918,213.19655 c 0.9,-0.4 1.2,0.6 2,1.6 0.1,0.1 0.1,0.1 0.1,0.2 1,-0.2 1.8,-0.5 2.8,-0.6 0.8,-0.1 1.7,0.1 2.5,0.3 -0.1,-0.2 -0.2,-0.5 -0.1,-0.6 0.2,-0.5 1.5,0.2 1.9,0.6 0.4,0.4 1.7,0.6 2.2,0.2 0.4,-0.4 -0.7,-0.8 -0.9,-1.2 -0.1,-0.2 0.2,-0.6 0.6,-1 -0.7,-0.4 -1.5,-1 -1.7,-0.9 -0.4,0.1 -0.4,-1.8 -0.9,-1.8 -0.5,0 -0.5,-0.4 -1,-0.4 -0.5,0 -2.4,0 -2.8,0.4 -0.5,0.4 -1.1,-0.9 -1.8,-0.9 -0.7,0 -1.4,-0.6 -1.8,-1.1 -0.4,-0.5 -3.4,0.2 -4.3,-0.4 -0.9,-0.6 -2.5,-1.1 -3.3,-1 -0.2,0 -0.6,0.2 -1.1,0.5 1.6,1 3.9,0.7 4.2,2.4 0.4,2 1.5,1.2 1.1,2.8 -0.1,0.3 -0.3,0.7 -0.7,1 1.3,0.1 2.5,0.1 3,-0.1 z"/>
    <path d="m 130.24918,225.69655 c -0.4,-0.1 0.2,-2.6 0,-2.9 -0.2,-0.4 -0.8,-2.3 -0.1,-2.3 0.6,0 -0.1,-1.4 0.7,-1.4 -0.2,-0.5 -0.4,-0.9 -0.5,-1 -0.4,-0.3 -1.7,0.3 -2.2,-0.9 -0.5,-1.2 0,-1.4 -0.8,-2.4 -0.8,-1 -1.1,-2 -2,-1.6 -0.4,0.2 -1.6,0.2 -2.8,0.1 -1.4,1.2 -4.2,2.1 -5.1,1.7 -1.1,-0.4 -3.2,0.1 -4.8,0.1 -1.6,0 -2.1,-1.2 -3.2,-1.1 -1.2,0.1 -1.2,-1.1 -2.5,-1.1 -1.3,0 -0.3,-0.6 -4.1,-1.1 -3.800001,-0.5 -7.200001,1.5 -8.300001,2.6 -1.1,1.1 -5.7,0 -6.1,0.3 -0.4,0.3 0.1,1.6 -1.4,2.2 -1.5,0.6 -4.7,0 -5.8,0.5 -1.1,0.5 -1.5,2.2 -0.6,2.1 1,-0.1 1.5,0.4 1.2,0.8 -0.3,0.4 0.8,1.6 0.2,2.1 -0.5,0.5 -0.6,1.5 0.1,2 0.7,0.5 0.8,1.4 0,1.5 -0.8,0.1 1.4,1 1.4,1.5 0,0.4 1.8,0.6 1.8,1.1 0,0.5 0.5,0.7 1.4,0.4 0.9,-0.3 1.2,1 1.8,1.8 0.5,0.8 3.5,0.2 3.5,-0.7 0,-0.9 0.9,-1.2 2.3,-1 1.4,0.2 3.1,2 3.7,2.2 0.7,0.2 2.000001,-0.5 2.800001,-0.5 0.9,0 2.1,-1.4 2.6,-1.7 0.5,-0.3 1.4,1 2.2,0.5 0.8,-0.4 1.7,-0.9 2.2,-0.6 0.5,0.3 -1.2,1.6 -0.8,2.2 0.2,0.3 0.1,0.6 0.1,1 1.7,-0.2 1.6,-1.4 1.7,-2 0.1,-0.6 0.6,-1.1 1.1,-0.7 0.6,0.4 1.3,0.6 2.6,0 1.2,-0.6 1.3,-0.9 1.8,-0.3 0.4,0.6 1.4,0.1 3.1,0.1 1.8,0 2.1,-1.2 3.7,-1.1 1.6,0.1 3,-0.4 3,-0.4 l 1.1,0.3 c 0.4,-0.4 0.4,-0.8 1.3,-1 1.3,-0.2 1.8,0.8 2.5,0.5 0.7,-0.3 2.7,1.9 2.9,0.5 -0.3,-0.5 -1.3,-2.2 -1.7,-2.3 z m -46.100001,-10.5 c 1,-0.4 3.1,0.1 3.7,-0.4 0.5,-0.5 -1.4,-1.1 -2.1,-1.7 -0.4,-0.3 -0.6,-1 -0.7,-1.5 -0.3,0.2 -0.8,0.4 -1.1,0.2 -0.8,-0.4 -2.6,-0.1 -2.8,0 -0.3,0.1 0.2,1.2 0.2,1.9 0,0.7 -0.8,0.9 -0.8,1.3 0,0.3 -0.3,0.6 -0.7,1 0.5,0.4 1.1,0.8 1.6,0.8 1.3,-0.1 1.7,-1.2 2.7,-1.6 z"/>
    <path d="m 227.94918,232.09655 c -1,-0.1 -2.8,0.9 -3.1,1.8 0.2,0.2 0.4,0.5 0.5,0.8 0.2,0.8 0.9,1.4 1.7,1.9 0.5,0.3 0.4,1 0.3,1.7 0.4,0 0.9,-0.1 1.2,-0.1 0.8,-0.2 2.6,-2.7 2.7,-3.3 0.1,-0.8 -2.2,-2.7 -3.3,-2.8 z"/>
    <path d="m 367.94918,210.09655 c -1.1,0.4 -1.5,-0.9 -2.4,-0.9 -0.9,0 -0.7,2.2 -1.6,2.2 -0.9,0 -0.7,1.3 -2,1.5 -1.3,0.2 -1.6,0.2 -1.1,1.1 0.5,0.9 -0.7,0.5 -1.8,0.5 -1.1,0 -1.1,-0.7 -1.8,-0.7 -0.7,0 -1.3,1.3 -1.8,2 -0.5,0.7 -4.1,2.4 -5.2,2.8 -0.3,0.2 -0.6,0.6 -0.8,1.2 1.3,0.1 2.6,0.9 3.1,1.6 0.8,1 -0.9,2.1 -1.7,2.9 -0.8,0.9 0.5,1 0.5,1.7 0,0.8 1,1.4 1.4,0.7 0.4,-0.7 1,-0.4 2.2,-0.4 0.3,0 0.5,0.2 0.7,0.4 0.6,-0.5 1.4,-1 1.7,-1.2 0.4,-0.4 1.6,-0.6 2.6,-0.6 0.6,0 1,-0.2 1.5,-0.6 -1.1,-1.2 -2.1,-2.1 -2.5,-2.3 -1,-0.6 -0.4,-2.2 0.8,-2.5 1.2,-0.3 3.9,-2.5 4.8,-2.9 0.9,-0.4 0.3,-2.1 1,-3.3 0.4,-0.7 1.8,-2 3,-2.9 -0.1,-0.4 -0.3,-0.4 -0.6,-0.3 z"/>
    <path d="m 251.44918,257.29655 c -0.2,0 -0.4,0 -0.6,0 -1.6,0.1 -2.6,-0.8 -3.6,-0.7 -1.1,0.1 -4,-1.1 -5.3,-2.2 -1.3,-1.1 -4.8,-3.2 -5.7,-4.1 -0.9,-0.9 -2.1,-0.9 -2.2,-0.4 -0.1,0.4 -0.8,0.4 -1.7,0.5 -0.2,0.4 -1.3,1 -1.3,1.6 0,0.7 -0.4,1.6 -0.4,2.1 0,0.6 1.1,0.7 1.4,1.1 0.3,0.4 2.1,0.7 2.2,1.1 0.1,0.4 1.3,1 2.1,1.1 0.8,0.1 1.9,1 2.3,1.3 0.4,0.3 2.1,-0.4 2.7,-0.4 0.6,0 1.4,1 1.6,1.6 0.1,0.6 2.9,0.9 3.6,1.4 0.7,0.6 4.1,0.2 4.8,-0.4 0.7,-0.7 0.1,-1.9 0.1,-2.8 -0.1,-0.5 -0.1,-0.7 0,-0.8 z"/>
    <path d="m 280.54918,302.59655 c 0,-1.1 -0.9,-1.2 -0.9,-2.1 0,-0.9 0,-2.4 -1.1,-3.3 -1.1,-0.9 -1.7,-2.4 -1,-2.9 0.7,-0.6 0.1,-2.1 0.4,-2 0.3,0.1 0.8,-1 0.1,-1.3 -0.7,-0.3 0,-1.7 -0.6,-1.9 -0.6,-0.2 -2.1,-2 -2.1,-2.6 0,-0.6 0.4,-3.6 0.6,-4.4 0.1,-0.8 1.2,-0.9 1.6,-0.9 0.4,0 1.7,0.1 2.1,-0.7 0.4,-0.8 2.3,-0.9 2.6,-1.4 0.2,-0.6 1.4,-0.6 1.4,-1.2 0,-0.7 1.4,-2.3 1.4,-2.3 0,0 0,0 0.1,0 -0.2,-0.3 -0.5,0 -1.3,0.3 -1.2,0.5 -1.9,-0.2 -1.8,-0.9 0.1,-0.7 -0.9,-0.8 -1.6,-0.8 -0.7,0 -0.2,-1.1 0,-1.9 0.2,-0.8 -0.2,-1.2 -1.1,-1.2 -0.9,0 -1.2,-1.8 -0.9,-2.3 0.3,-0.5 -1.7,-0.9 -2.6,-0.5 -0.9,0.4 -0.2,-0.8 -0.5,-1.4 -0.3,-0.6 1.1,-2.7 2.3,-3.8 1.2,-1.1 0.7,-2.7 0.7,-4 0,-1.3 -0.6,-1.4 -1.1,-1.4 -0.5,0 -0.6,-0.8 -0.6,-1.6 0,-0.8 -1.2,-1.3 -1.9,-0.8 -0.1,0.1 -0.3,0.2 -0.5,0.3 h 0.1 c 0,0 -0.2,1.1 -0.7,1.3 -0.4,0.2 -0.4,0.9 0.2,1.9 0.7,1 -1,0.6 -1.2,0 -0.2,-0.6 -1.6,0.3 -2.3,1 -0.8,0.7 -1.9,1 -1.9,2.2 0,1.2 -1,2.4 -0.8,3.3 0.2,0.9 -1.1,2.8 -1,3.3 0.1,0.6 -1.9,-0.1 -2.2,-0.1 -0.3,0 -0.1,2.1 -0.6,2.7 -0.4,0.7 -0.1,2.9 -0.8,2.9 -0.7,0 -1.2,2.1 -1.2,2.1 0,0 -0.5,0.4 -1,0.8 0.5,1.1 1.5,2.3 2.6,2.7 1.6,0.7 2.7,3.9 3.1,5.6 0.5,1.7 0.2,3.4 -0.4,4.4 -0.6,1 0.2,1 1.2,1.5 1,0.5 2,0.7 2.7,-0.3 0.7,-1 2.2,-1.7 2.4,-2.7 0.2,-1 0.9,0.5 1.5,1.1 0.6,0.6 1,1.7 1.1,3 0.1,1.4 0.2,4.9 1.5,6 1.2,1.1 1.4,3.5 1.1,4.4 -0.3,0.9 0.6,2.4 0.4,3.2 -0.1,0.2 -0.1,0.5 -0.2,0.8 1.4,0.7 2.7,-4.1 2.7,-4.1 z"/>
    <path d="m 261.44918,257.59655 c -1.7,-1.5 -2.1,-0.3 -3.2,-0.9 -1.1,-0.6 -1.8,-0.8 -2.3,-0.4 -0.5,0.4 -1.4,0.4 -2,1.8 -0.2,0.5 -0.4,0.9 -0.6,1.2 0.2,0.4 0.5,0.7 0.7,0.7 0.4,-0.1 1,0.7 1.9,0.4 0.9,-0.2 1.4,0.6 2.7,0.2 1.2,-0.3 2.3,0.4 2.7,-0.3 0.4,-0.8 -0.3,-2.4 -0.3,-2.4 0,0 0.2,-0.2 0.4,-0.3 z"/>
    <path d="m 303.14918,275.69655 c -0.8,-0.1 -2.7,-1.6 -2.7,-2.1 0,-0.6 1,-1.4 -0.8,-1.7 -1.8,-0.2 -2,-0.9 -2.3,-1.2 -0.3,-0.3 -1.8,0.7 -2.2,1.4 -0.4,0.8 -0.9,-0.2 -1.9,0.3 -1,0.6 -2,-0.8 -2.4,0 -0.4,0.8 -1.6,-0.4 -2.1,0.2 -0.2,0.3 -0.5,0.5 -0.8,0.6 0.5,0.5 1,1.1 1,1.5 0,0.7 1.4,1.2 1.4,2.1 0,0.9 1.8,1.6 2.3,1.2 0.5,-0.4 1.8,-0.7 2,0.5 0.2,1.2 0.9,1.2 0.9,2.1 0,0.9 -1.8,0.4 -2.1,1.2 -0.4,0.9 2.9,2 2.9,2.7 0,0.7 1.1,1.6 1.4,2.5 0.4,0.9 2,2 2.3,2.9 0.4,1.1 1.8,1.6 2.3,2.1 0.5,0.5 0.7,1.8 0.5,2.8 -0.2,1.1 -0.2,2.9 0.9,4.5 1.1,1.6 -1.2,2.3 -2,3.1 -0.7,0.9 -0.4,2.1 -2.5,1.6 -2.1,-0.5 0.4,1.8 0,2.5 -0.4,0.7 -3.1,-0.7 -3.1,0 0,0.4 -1,1 -1.7,1.4 0.3,0.4 0.7,0.6 1.2,0.9 0.7,0.4 -0.8,1.1 -0.8,2.5 0,1.3 1,1.7 1.4,1.1 0.4,-0.5 1.9,-1.8 2.5,-2 0.6,-0.2 0,-1.1 0.7,-1.1 0.7,0 0.5,-1 0.8,-1.5 0.3,-0.5 0.8,-0.3 1.8,-0.3 1,0 2.4,-0.9 3.7,-1.8 1.4,-0.9 1.7,-1.1 2.2,-3.7 0.5,-2.6 -0.6,-5.7 -0.7,-6.4 0,-0.8 -2,-4.4 -2.7,-4.3 -0.7,0 -3.9,-3.2 -4.4,-3.7 -0.6,-0.5 -0.4,-1.5 -1.2,-2.2 -0.8,-0.7 -0.9,-2.5 -0.7,-3.7 0.2,-1.3 2,-1.6 2,-2.5 0,-0.9 0.2,-1.6 1.1,-1.7 0.9,0 1.8,-0.8 2.2,-1.5 0.1,-0.1 0.1,-0.2 0.2,-0.2 -0.2,0.1 -0.4,-0.1 -0.6,-0.1 z"/>
    <path d="m 296.24918,306.79655 c 0,-0.7 2.8,0.7 3.1,0 0.4,-0.7 -2.1,-2.9 0,-2.5 2.1,0.4 1.8,-0.7 2.5,-1.6 0.7,-0.9 2.9,-1.6 2,-3.1 -0.8,-1.1 -1,-2.5 -1,-3.4 -0.7,0.5 -1.5,0.6 -2,0.4 -0.6,-0.2 -1.9,-0.4 -1.9,0.6 0,1 -1,1.2 -0.8,0.7 0.1,-0.5 -1,-0.4 -1.6,-1.1 -0.6,-0.7 -2.7,0.2 -3.7,-0.1 -1.1,-0.4 -2.7,0.6 -3.7,1.9 -1.1,1.3 0.1,1.3 0.1,2.5 0,1.2 0.7,1.2 0.4,2.2 v 0.1 c 1.1,0.5 0.6,1.8 0.8,2.5 0.1,0.8 1.2,0.3 1.8,0.3 0.6,0 -0.4,0.9 0.1,1.5 0.5,0.6 2,-0.5 2.2,0.2 0.1,0.2 0.2,0.3 0.3,0.4 0.5,-0.6 1.4,-1.1 1.4,-1.5 z"/>
    <path d="m 296.44918,284.69655 c 0,-0.7 -3.3,-1.8 -2.9,-2.7 0.4,-0.9 2.1,-0.4 2.1,-1.2 0,-0.9 -0.7,-0.9 -0.9,-2.1 -0.2,-1.3 -1.4,-0.9 -2,-0.5 -0.5,0.4 -2.3,-0.4 -2.3,-1.2 0,-0.9 -1.4,-1.4 -1.4,-2.1 0,-0.4 -0.5,-0.9 -1,-1.5 -0.5,0.2 -0.9,0.3 -1.1,0.1 -0.3,-0.3 -0.8,1.1 -0.4,1.4 0.3,0.3 0.8,2.4 -0.1,2.2 -0.9,-0.2 -0.9,-1.4 -1.4,-1.3 0,0 -1.4,1.7 -1.4,2.3 0,0.4 -0.6,0.6 -1,0.8 0.3,0.2 0.5,0.4 0.6,0.5 0.2,0.4 -0.1,1.3 0.2,2.2 0.4,0.8 1.6,-0.5 1.9,0.7 0.4,1.2 -0.2,1.8 -0.2,2.9 0,1.2 -1,1.1 -0.7,2.2 0.2,1.1 1.6,-0.2 2.5,-1 1,-0.7 1.7,-0.6 2,-0.1 0.4,0.5 1.6,0.1 1.8,-0.5 0.2,-0.6 2,-0.8 2.6,-0.1 0.6,0.7 1.2,1.6 2,2 0.8,0.5 -0.6,3 0.2,3.3 0.8,0.2 2,1.6 1.9,2.9 -0.1,1.2 0.6,2.1 -0.4,3.1 0.6,0.4 1.3,0.4 1.2,0.8 -0.1,0.5 0.8,0.2 0.8,-0.7 0,-1 1.3,-0.8 1.9,-0.6 0.5,0.2 1.3,0.1 2,-0.4 0,-0.4 0,-0.8 0.1,-1.1 0.2,-1.1 0,-2.3 -0.5,-2.8 -0.5,-0.5 -2,-1.1 -2.3,-2.1 -0.4,-1.1 -2,-2.1 -2.3,-2.9 -0.4,-1 -1.5,-1.8 -1.5,-2.5 z"/>
    <path d="m 289.24918,300.99655 c 0,-1.2 -1.2,-1.2 -0.1,-2.5 1.1,-1.3 2.7,-2.3 3.7,-1.9 1.1,0.4 3.1,-0.6 3.7,0.1 0.1,0.1 0.2,0.2 0.4,0.3 1,-1.1 0.3,-2 0.4,-3.1 0.1,-1.4 -1.1,-2.7 -1.9,-2.9 -0.8,-0.2 0.6,-2.8 -0.2,-3.3 -0.8,-0.5 -1.4,-1.3 -2,-2 -0.6,-0.7 -2.4,-0.5 -2.6,0.1 -0.2,0.6 -1.4,1 -1.8,0.5 -0.4,-0.5 -1.1,-0.6 -2,0.1 -1,0.7 -2.3,2 -2.5,1 -0.2,-1.1 0.7,-1 0.7,-2.2 0,-1.2 0.6,-1.8 0.2,-2.9 -0.4,-1.2 -1.6,0.1 -1.9,-0.7 -0.4,-0.8 0,-1.8 -0.2,-2.2 -0.1,-0.1 -0.3,-0.3 -0.6,-0.5 -0.2,0.1 -0.4,0.2 -0.5,0.4 -0.2,0.6 -2.1,0.7 -2.6,1.4 -0.4,0.8 -1.8,0.7 -2.1,0.7 -0.3,0 -1.4,0.1 -1.6,0.9 -0.1,0.8 -0.6,3.8 -0.6,4.4 0,0.6 1.6,2.3 2.1,2.6 0.6,0.2 -0.1,1.6 0.6,1.9 0.7,0.3 0.2,1.4 -0.1,1.3 -0.3,-0.1 0.2,1.4 -0.4,2 -0.7,0.6 -0.1,2 1,2.9 1.1,1 1.1,2.6 1.1,3.3 0,0.9 0.9,1 0.9,2.1 0,0 -1.3,4.8 -2.4,4.5 -0.2,1.2 -0.5,3 -0.8,4.1 -0.3,1.3 -0.6,2.4 0.2,2.5 0.8,0.1 2.2,1.8 3.6,3.5 0.4,0.4 0.6,0.9 0.8,1.4 0.5,0 1.1,0 1.6,0.1 1.1,0.2 1.4,1.1 1.4,1.7 0,0.6 1.9,0.3 2.2,0.3 0.3,-0.1 -0.1,-0.8 0.9,-1.1 -0.6,-0.8 -2,-1.8 -3.1,-1.9 -1.4,-0.1 -2.1,-2.2 -2,-3.1 0.1,-1 -1,-1.8 -1,-2.6 0,-0.8 -0.8,-0.9 -1.8,-1.3 -1,-0.5 0.2,-3.2 0.3,-4.4 0.1,-1.2 2.1,-4.6 1.5,-5.7 -0.6,-1.1 2,-1.9 2.4,-0.7 0.3,1.2 0.5,1.8 2.1,1.7 1.7,-0.1 1.7,1.2 2.9,1.6 0.1,0 0.1,0.1 0.2,0.1 v -0.1 c 0.6,-1.3 -0.1,-1.3 -0.1,-2.4 z"/>
    <path d="m 138.34918,253.49655 c 0,0 -4.2,-0.6 -4.9,-0.6 -0.7,0 -2.3,-0.2 -3.2,-1.1 -1,-0.9 -5.8,-4.5 -6.7,-4.9 -0.9,-0.4 -4.5,-3 -5.5,-3.1 -1,-0.1 -1.1,0 -2.3,0 -1.2,0 -0.7,0.8 -2.8,0.9 -2.1,0.1 -3.3,1.6 -2.7,1.8 0.7,0.2 2.7,2.1 2.1,2.4 -0.7,0.3 -0.8,1.3 -1.7,1.3 -0.9,0 -1.8,0.1 -1.8,0.8 0,0.7 -1.2,1.8 -2.2,1.7 -0.6,-0.1 -1.8,-0.7 -2.7,-1.2 l -0.3,0.8 -0.1,0.8 c 0.2,0.6 -0.1,2.9 0.5,3.1 0.6,0.2 1,1.3 2.3,2.7 1.3,1.5 3.9,5.3 4,6.2 0,1 0.5,2 2.2,3 1.7,1 1.7,2.5 2.5,3.1 0.9,0.7 0.7,1.5 0.7,3 0,1.7 0.8,3.7 2.3,4.7 1.5,0.9 2.5,1.9 3.1,3.6 0.7,1.8 1.6,3.2 2.6,4.2 1,1 0.4,1.5 1,2.2 0.3,0.4 0.7,1 0.9,1.6 0.7,-0.4 1.3,-0.6 1.3,-0.7 0.2,-0.3 -0.3,-1.2 -0.1,-1.5 0.2,-0.3 0.7,-0.9 1.2,-1 0.5,-0.2 1,0.5 2.1,0.3 1,-0.2 3.1,0.1 3.4,0.3 0.2,0.2 3.1,0.1 3.8,0.6 0.7,0.6 1.4,0.4 1.9,-0.7 0.5,-1.1 3.8,-3.4 4.2,-3.7 0.5,-0.2 4,0 5.5,-0.3 1.4,-0.3 10.8,-3.3 11.2,-3.6 0.4,-0.3 1.9,-5.2 1.9,-5.8 0,-0.6 -0.7,-2.1 -1.4,-2 -0.7,0.1 -6.6,-0.6 -7,-0.8 -0.3,-0.2 -1.9,-1.4 -2.1,-2.9 -0.5,-0.4 -1,-1.1 -1.2,-1.8 -0.7,0.1 -1.8,-0.1 -2.4,-1.6 -0.6,-0.4 -2,-2.5 -1.5,-2.9 0.6,-0.7 -0.3,-2.2 -1.2,-2.9 -0.9,-0.8 -2.7,-2.4 -2.8,-3.2 0,-0.3 -0.2,-0.7 -0.4,-1.2 l -2.2,-0.1 -1.5,-1.5 z"/>
    <path d="m 162.44918,265.59655 v 2.1 l -1.8,2.3 -0.9,2.4 c 0.3,0 0.5,0 0.6,0 0.7,-0.1 1.4,1.4 1.4,2 0,0.6 -1.5,5.5 -1.9,5.8 -0.3,0.2 -5.2,1.9 -8.4,2.8 0.7,1.5 2.2,4.4 3.4,7 0.2,-0.1 0.5,-0.2 0.7,-0.3 1.6,-0.9 3.3,-0.5 4.5,-0.8 1.2,-0.3 0,-1.3 1.1,-2.2 1,-0.9 2.5,-0.2 3,-0.5 0.5,-0.3 0.9,-2.2 1.8,-2.6 0.9,-0.4 1.9,-0.1 1.8,-0.9 -0.1,-0.8 0.1,-3.5 1,-3.7 0.9,-0.2 2.2,-1.1 2.3,-1.6 0,-0.5 1.8,-2.4 2.3,-3.2 0.5,-0.9 0.6,-1.4 -0.2,-1.5 -0.8,-0.1 -2,-2.3 -2.4,-2.9 -0.3,-0.6 -2.7,-0.2 -4.6,-1.8 -0.8,-0.6 -1.2,-1.8 -1.5,-2.9 l -1,0.6 -1.2,-0.1 0,0 z"/>
    <path d="m 150.14918,266.79655 c -0.1,-0.3 -0.1,-0.6 0.1,-0.8 0.5,-0.9 0.9,-3.2 -0.3,-3.5 -1.2,-0.3 -1.9,2.1 -1.9,2.7 0,0.1 -0.1,0.1 -0.2,0 0.6,1.5 1.6,1.7 2.3,1.6 z"/>
    <path d="m 153.34918,271.49655 c 0.3,0.2 4.7,0.7 6.4,0.8 l 0.9,-2.4 1.8,-2.3 v -2.1 h 1.1 l 1,-0.6 c -0.4,-1.7 -0.5,-3.4 -0.8,-3.4 -0.5,0 -2.5,2.2 -3.3,3.7 -0.8,1.6 -3.1,2.8 -5.2,2.5 -2.1,-0.4 -2.7,0.5 -3.2,0.9 -0.1,0.1 -0.4,0 -0.6,-0.2 0,1.7 1.6,2.9 1.9,3.1 z"/>
    <path d="m 291.64918,324.09655 c 0,-1.9 -1.8,-1.7 -2.2,-2.9 -0.4,-1.3 -1.1,-0.5 -1.4,-1.4 0,-0.1 -0.1,-0.3 -0.2,-0.4 -0.9,0.3 -0.6,1.1 -0.9,1.1 -0.3,0.1 -2.2,0.3 -2.2,-0.3 0,-0.6 -0.3,-1.5 -1.4,-1.7 -0.6,-0.1 -1.1,-0.1 -1.6,-0.1 0.7,1.5 0.8,3 0.8,4.2 0,1.7 2.5,4.2 2.8,5.3 0.4,1.1 1.1,1.4 2.7,2.6 1.6,1.2 4.7,2.9 5.3,2.7 0.6,-0.3 -1,-2.9 -1.9,-3.9 -0.6,-0.7 0.2,-3.3 0.2,-5.2 z m 42,-3.1 c -0.8,0.2 -2.5,0.1 -2.5,-0.7 0,-0.8 -1.6,-2.2 -2.6,-2.2 -1,0 -2.2,2 -2.2,2.7 -0.1,0.8 -1.7,0.8 -1.5,1.9 0.1,0.5 -0.2,0.7 -0.6,0.8 0.3,1 0.4,1.7 0,1.6 -0.7,-0.2 -0.8,0.7 -1.8,0.7 -0.3,0 -0.9,-0.9 -1.5,-2 0,0 0,0 -0.1,0 -0.7,0 -2.2,2.3 -2.5,3.8 -0.3,1.6 -1.8,1.1 -4,1.2 -2.2,0.2 -1.3,2.5 -1.8,3.5 -0.5,1 -2.8,-0.8 -4.1,-1.1 0.2,0.9 0.5,1.8 0.8,1.8 0.7,0 1.7,1.7 2.3,1.2 0.7,-0.5 2.7,0 3.6,-0.3 1,-0.3 1.2,-1.2 2.7,-1.2 1.7,0 1,1.3 2.7,0.5 1.7,-0.8 2.7,-0.2 2.5,-1.7 -0.2,-1.5 1,-1.5 0.8,-2.7 -0.2,-1.2 1.8,-0.3 1.7,-2.5 -0.2,-2.2 2.9,-1.8 4.2,-1.8 0.3,0 0.8,0.2 1.3,0.5 1,-0.5 2.4,-1.1 1.8,-1.7 -0.8,-0.7 2.2,-0.1 2.6,-1.1 0.3,-0.5 -1.2,-1.3 -1.8,-1.2 z"/>
    <path d="m 322.54918,325.89655 c 1,0 1.2,-0.8 1.8,-0.7 0.4,0.1 0.2,-0.6 0,-1.6 -0.6,0.2 -1.4,0.2 -1.4,0.6 0,0.7 -1.3,-0.3 -1.9,-0.3 0.6,1.2 1.2,2 1.5,2 z"/>
    <path d="m 137.74918,250.79655 c 0.4,-0.4 0.4,-0.9 1.3,-1 0.7,-0.1 1.1,0.3 1.9,1 0.3,-0.3 0.8,-0.5 1.2,-0.7 -0.8,-0.8 -1.7,-1.7 -1.6,-2.2 0.1,-0.9 -0.9,-1.3 -1,-1.9 -0.1,-0.6 0.7,-1.4 0.2,-1.9 -0.4,-0.4 -0.6,-1.6 -1.3,-1.7 -0.8,-0.1 -3.1,-1.3 -3,-2.1 0.1,-0.8 -0.9,-1.3 -1.3,-1.6 -0.4,-0.2 -0.9,-2.2 -0.3,-2.6 0.6,-0.3 0.4,-2.2 1.1,-2.2 0.7,0 0.1,-1 0.3,-1.7 0.2,-0.7 -0.6,-1 -1.1,-1 -0.5,0 -1.6,-0.9 -1.6,-1.7 0,-0.8 -1.1,-1.9 -1,-2.2 -0.2,1.5 -2.3,-0.8 -2.9,-0.5 -0.7,0.3 -1.2,-0.7 -2.5,-0.5 -0.9,0.1 -0.8,0.6 -1.3,1 h 0.1 l -1.7,1.2 c 0,0 -1.4,0.4 -1.8,1.3 -0.3,0.9 0.7,1.8 0.2,2.3 -0.4,0.6 -0.3,1.8 -0.2,2.2 0.1,0.4 -0.7,1.7 -0.7,1.7 0,0 -3.2,1.8 -6,3.1 0,0.5 0.1,1 0.2,1.4 0.2,0.6 0.4,1.8 0.7,2.7 1.1,0 1.2,-0.1 2.2,0 1,0.1 4.6,2.7 5.5,3.1 0.9,0.4 5.7,4 6.7,4.9 1,0.9 2.7,1.1 3.2,1.1 0.4,0 2,0.2 3.2,0.3 0.5,-0.3 1.1,-1.6 1.3,-1.8 z"/>
    <path d="m 138.34918,253.49655 1.4,1.2 2.2,0.1 c -0.5,-1.3 -1.4,-3 -1.4,-3.5 0,-0.2 0.1,-0.3 0.2,-0.5 -0.8,-0.7 -1.2,-1.1 -1.9,-1 -0.9,0.1 -0.9,0.7 -1.3,1 -0.2,0.2 -0.8,1.5 -1.2,2.5 1.2,0.1 2,0.2 2,0.2 z"/>
    <path d="m 210.74918,215.89655 c -1.3,-1.1 -3.6,-2.4 -3.8,-1.8 -0.2,0.7 -1.7,0.8 -2.2,0.1 -0.6,-0.7 -1,-1.4 -2.7,-0.8 -1.7,0.7 -2.7,1.6 -2.8,2.2 -0.1,0.7 -1.2,1.3 -1.3,0.4 -0.1,-0.9 -1.4,-1.2 -2.3,-1.4 -0.9,-0.2 -2.3,0.2 -2.4,-0.7 -0.1,-0.9 -1.4,-1.9 -1.6,-2.8 -0.1,-1 0.2,-2.4 -0.7,-2.7 -0.9,-0.2 -1.4,-1.7 -2.2,-1.7 -0.8,0 -5,0 -5.6,-0.2 -0.6,-0.2 -3.3,0.9 -3.6,0.2 -0.2,-0.5 -2.2,-2.7 -3.2,-3.5 -0.1,0.5 -0.4,0.9 -0.8,1.2 -2.1,1.5 -4,1.2 -3.3,-0.6 0.7,-1.8 0.8,-3.9 -0.3,-3.9 -1.1,0 -0.3,3.7 -1.2,4 -0.7,0.2 -1,-2.7 -0.4,-4.3 l -7,1.9 -0.3,12.3 0,0 c 0.7,0.3 1.4,0.4 2,0.5 1.1,0.1 1,-0.8 1,-1.3 0,-0.6 1.2,-1.6 2,-1.5 0.8,0.1 0.8,-1.1 1,-1.1 0.2,0 0.9,-0.2 1.2,-0.6 0.2,-0.4 1.6,0.1 2,0.5 0.4,0.4 1.4,0.6 2.2,0.8 0.8,0.2 1,2.5 1,2.9 0,0.4 3.5,0.4 4.1,0.5 0.6,0.1 0.6,1.1 1.2,1.8 0.6,0.8 1,1.8 1.2,2.3 0.2,0.6 2.3,1.3 2.7,2.1 0.5,0.8 2.1,1.5 3.1,1.9 1.2,0.4 2.2,2 2.8,1.9 0.7,-0.1 2.5,0.8 2.5,0.8 l 0.2,1.9 c 0.1,0 0.2,0 0.2,-0.1 1,-0.3 1.6,0.8 2.3,0.8 0.3,0 0.7,0.3 1.1,0.5 -0.1,-1.6 0.5,-2.4 1.2,-2.8 0.8,-0.6 -0.5,-1.6 -0.3,-2.5 0.2,-0.9 -1.9,-1.4 -1.8,-2.2 0.2,-0.8 1.9,-0.7 2.7,-1 0.8,-0.3 0.2,-1.6 0.9,-1.6 0.8,0 1.1,-0.8 1.3,-1.5 0.2,-0.7 1.5,0 2.2,-0.5 0.7,-0.5 1.7,-0.8 1.9,-0.4 0.2,0.3 -0.6,1.7 -1,2.3 1.2,0 2.8,-0.2 3.1,-0.6 0.4,-0.4 2.1,0.7 2.7,-0.4 0.3,-0.9 2.3,-0.2 1,-1.3 z"/>
    <path d="m 532.74918,130.59655 c -0.6,0.4 -4.2,0.2 -3.4,1.1 0.7,0.8 3.7,0.3 5.1,1.2 1.4,0.8 3.3,0.2 3.3,-0.5 0.1,-0.7 -4.4,-2.2 -5,-1.8 z"/>
    <path d="m 409.24918,205.29655 c -0.6,-0.8 -1.6,0.4 -2.7,0.7 -1.2,0.3 -5.1,-2.9 -6.1,-4.4 -1,-1.5 -2.7,-0.2 -1.8,0.8 0.8,1.1 -0.2,1.4 -0.2,2.8 0,1.4 -1,1.5 -0.8,2.5 0.2,1 -1.3,0.8 -2.3,1 -1,0.2 0.1,1.2 -1.1,1.7 -1.2,0.5 -1.1,1.3 -0.5,1.7 0.6,0.3 0.2,1.4 0,2.2 -0.2,0.8 0.8,0.2 1.4,-0.6 0.7,-0.8 1.4,0.4 1.5,-0.3 0.2,-0.8 -1.8,-1.2 -1.7,-2.1 0.1,-0.8 1.3,0.2 2.3,-0.2 1,-0.4 2.9,-0.1 4.1,1 1.2,1.1 1.6,0.7 1.8,-0.7 0.2,-1.3 2.2,-1.9 4,-1.9 1.9,0 2.1,-0.9 1.5,-1.3 -0.6,-0.4 3.1,-2.7 3,-3.4 0.1,-0.8 -1.8,1.2 -2.4,0.5 z m -15,11.2 c -0.8,0.4 -1.4,2.9 -0.5,3.7 0.9,0.8 -1.5,2.2 -1.4,3.7 0.1,1.5 -1.5,1.6 -1.8,2.7 -0.2,1.2 -1.2,0.9 -2.6,2 -1.4,1.1 -2.2,-0.2 -1.8,-0.9 0.3,-0.8 -2.2,0.4 -2.1,2.2 0.1,1.8 -2.3,2 -1.8,2.7 0.6,0.8 -1.8,1.3 -1.8,0.6 0.1,-0.8 -1.5,-0.3 -3.3,0.4 -1.9,0.8 -3,-0.8 -4.1,0.2 -1.1,1.1 -2.8,2.9 -4.2,3.1 -1.4,0.2 -0.6,2 0,1.7 1,-0.5 2.6,0 3,-0.8 0.5,-0.8 4.5,-1.7 7,-1.8 2.5,-0.1 1,1.2 1.2,2.5 0.2,1.3 2.2,1.1 3.2,-0.2 1.1,-1.2 1.9,-1.2 1,-1.9 -0.9,-0.8 0.2,-1.4 0.8,-0.4 0.7,1 2.7,1.1 3.5,-0.2 0.8,-1.3 1.1,0.2 2.1,0.2 1,-0.1 1.6,-2.6 1.7,-1.7 0.1,0.9 1.7,0.7 2.7,-0.4 1,-1.1 0.1,-2.9 0.8,-3.9 0.7,-1 1.3,-3 0.7,-4.2 -0.7,-1.2 1.5,-2.1 2.6,-3 1.1,-0.9 -1.2,-5.9 -1.3,-7.4 -0.1,-1.3 -2.8,0.7 -3.6,1.1 z m -17.9,21.3 c -0.3,0.9 -1.3,0.5 -2.7,0.8 -1.3,0.2 -1.4,3.3 -0.4,3.7 0.8,0.2 1.3,0.2 1.6,-0.8 0.3,-1 1.6,-1.3 2.4,-0.9 0.8,0.4 1.9,-1.2 1.9,-2.5 -0.1,-1.1 -2.5,-1.1 -2.8,-0.3 z m -5.7,3.2 c 0,-0.8 -1.8,-0.7 -1.9,-1.4 -0.1,-0.8 -1.3,-0.3 -2.6,0.6 -1.2,0.9 -1.7,1.1 -1.2,2 0.5,0.9 1.2,0.1 1.6,-0.8 0.3,-0.9 1.2,1.3 0.4,2.7 -0.8,1.5 0.1,3.5 1.1,3.3 0.8,-0.2 1.9,-3.1 3.1,-4.7 1.3,-1.4 -0.5,-0.8 -0.5,-1.7 z"/>
    <path d="m 378.54918,191.89655 c 0.1,-1.5 -1.7,-1 -2.2,-0.6 -0.6,0.4 -2.2,0 -2.7,1 -0.6,1 -1.3,0.4 -2.5,0.6 -1.2,0.2 -2.7,-0.3 -2.7,-1.1 0.1,-0.8 -0.7,-1.5 -0.6,-2.4 0.1,-0.9 -1.2,-0.5 -2,-1.3 -0.8,-0.8 -2.5,-1.4 -2.7,-1.2 -0.2,0.2 -1.3,-0.9 -2.7,-1 -1.4,-0.1 -1.2,-1 -1.1,-1.6 0.2,-0.6 -1.2,-2.4 -1.4,-3.3 -0.2,-1 -1.2,-1.2 -1.7,-3.2 -0.4,-2.2 -1.6,-1.6 -1.3,-2.6 0.3,-1 -1.4,-1.5 -1.8,-2.1 -0.4,-0.6 -2.2,-0.3 -3.3,-1 -1.2,-0.7 -2,-0.2 -3.1,-0.5 -1.2,-0.3 -3.7,0.3 -4.1,0.3 -0.3,0 -2.4,-0.4 -3.5,1.2 -1.2,1.6 -0.2,1.5 0.2,1.5 0.4,0 0.8,1.5 0.8,2 0.1,0.5 -0.8,1.2 -1.2,1.4 -0.4,0.2 -1.6,2 -1.8,2.7 -0.2,0.7 -1.5,2.3 -1.3,2.8 0.2,0.6 -0.7,1.2 -1.2,1.2 -0.6,0.1 -2.2,1.2 -2.7,1.4 -0.5,0.2 -2.5,-0.2 -2.7,-0.8 -0.1,-0.2 -0.3,-0.3 -0.6,-0.5 l -2.3,4.4 -0.2,1.5 c 0,0 -1.5,0.4 -0.4,1.5 1.1,1.1 1.3,0.2 2.8,0.2 1.5,0 2.4,1.3 2.7,0.4 0.4,-0.9 1.8,-1.5 2.7,-0.4 0.9,1.1 3.7,2.8 3.5,3.7 -0.2,0.9 -1.8,0.7 -2.8,0.4 -1.1,-0.4 -2.5,0.7 -3.5,0.7 -1.1,0 -2.4,0.4 -3.3,1.5 -1.1,1.1 -0.9,2.2 -2.5,2.4 -1.6,0.2 -2.4,0 -4.1,1.3 -1.8,1.3 -3.7,0.7 -4.4,0.4 -0.7,-0.4 -2,-0.5 -2.7,0.7 -0.7,1.3 0.9,1.8 0.7,3.2 -0.2,1.4 -2,1.1 -3.3,2.7 -1.5,1.6 -3.7,2.4 -5,2.2 -1.3,-0.2 -3.9,-0.9 -6.3,0.2 -2.4,1.1 -3.9,2.7 -4.8,2.5 -0.9,-0.2 -0.9,-1.3 -2.2,-1.1 -1.3,0.2 -2,-0.2 -2.8,-0.7 -0.8,-0.5 -1.6,0.4 -3,-0.7 -1.5,-1.1 -3.9,-0.9 -5,-1.1 -1.1,-0.2 -5.2,0 -6.6,-0.2 -1.5,-0.2 -3.3,0.4 -3.5,-0.4 -0.2,-0.7 -1.3,-1.3 -1.6,-2.8 -0.4,-1.6 -1.3,-2.2 -2.2,-2.4 -0.9,-0.2 -1,-1.1 -1.8,-1.3 -0.4,-0.1 -0.8,-1.3 -2.1,-1.3 -1.3,0 -5.6,-0.5 -6.2,-1.6 -0.6,-1 0.6,-1.3 0.6,-2.3 0,-1 0.7,-2.4 0.2,-2.7 -0.5,-0.4 -1.4,-1.3 -1.5,-2.1 -0.1,-0.8 -1.5,-1.9 -2.4,-2 -0.9,-0.1 -1.7,-0.6 -2.5,-1.4 -0.9,-0.8 -1.7,-0.7 -2,-2.6 0,-0.1 -0.1,-0.2 -0.1,-0.3 -0.3,0 -0.8,-0.2 -1.1,-0.2 -0.2,0 -0.5,-0.2 -0.7,-0.4 -0.2,0.8 -1,1.2 -1,1.8 0,0.7 -0.3,1.6 -1.2,1.6 -0.9,0 -1.8,0.7 -1.8,2.1 -0.1,1.4 0.8,1.6 0.4,2.2 -0.4,0.6 -2.1,1.3 -2.7,1 -0.6,-0.3 -1.7,-0.1 -2.6,-0.2 -0.9,-0.1 -1.6,-1.3 -1.9,0 -0.3,1.3 -2.2,4.9 -1.7,5.3 0.5,0.4 0.8,1.3 0,1.3 -0.8,0 -1.6,-0.1 -2,-0.5 -0.4,-0.4 -1.7,0.6 -2.7,0.5 -0.4,0 -2.2,0.8 -1.6,1.1 0.6,0.3 0.6,1.8 0.6,2.4 0,0.6 1.4,2.5 1.1,3 -0.3,0.5 -1.5,1.3 -1.5,2.1 0,0.8 0.2,1.6 -0.2,1.8 -0.4,0.2 -1.8,0.8 -2.5,1.2 -0.7,0.4 -1.8,0.5 -2.2,1.2 -0.4,0.7 -0.9,1.4 -2.2,1.2 -1.1,-0.1 -1.7,-0.3 -2.6,0.8 -0.9,1.1 -1.1,0.6 -1.7,1.1 -0.6,0.5 -1.2,-0.4 -1.8,-0.6 -0.6,-0.2 -1.2,0.6 -1.7,0.6 -0.5,0 -0.9,0.8 -1.6,1 -0.7,0.2 -1.2,0 -1.2,0.8 0,0.5 -0.1,1 -0.5,1.4 l 0,0 0.4,2.4 c 0,0 2.7,0.9 2.7,1.8 0.1,0.9 0.6,3.7 0.6,3.7 0,0 0,0 -0.1,0 1.1,0.8 2.6,1.8 2.6,2.1 0,0.4 0.1,1.5 1.4,2.1 0.8,0.4 1.7,0.8 2.2,1.2 0.1,-0.2 0.1,-0.3 0.1,-0.3 l 1.1,-0.1 c 0,0 0.3,0.2 0.6,0.5 0.3,-0.9 2.2,-1.9 3.1,-1.8 1.1,0.1 3.4,2 3.1,2.7 -0.3,0.7 -2,3.1 -2.7,3.3 -0.3,0.1 -0.8,0.1 -1.2,0.1 -0.1,0.4 -0.2,0.8 -0.2,1 0,0.6 1,1.4 1.6,2.4 0.6,1 -0.9,1.7 -1.7,1 -0.8,-0.7 -1.1,0.7 -0.7,1.2 0.4,0.5 0.2,2.1 1,2.2 0.8,0.1 1.4,1.7 2.3,1.7 0.9,0 1.7,1.4 1.7,1.4 0,0 1.2,0.8 1.2,1.2 0,0.1 0,0.1 -0.1,0.2 1,-0.1 1.6,-0.1 1.7,-0.5 0.1,-0.4 1.4,-0.4 2.2,0.4 0.8,0.8 4.3,3 5.7,4.1 1.4,1.1 4.3,2.2 5.3,2.2 1,0 2.1,0.8 3.6,0.7 0.2,0 0.5,0 0.6,0 0.2,-0.2 0.6,-0.3 0.9,-0.7 0.4,-0.7 1.1,0.6 0.9,1.4 -0.1,0.4 0,0.9 0.2,1.2 0.2,-0.3 0.5,-0.7 0.6,-1.2 0.6,-1.4 1.4,-1.3 2,-1.8 0.6,-0.5 1.1,-0.2 2.3,0.4 1.1,0.6 1.6,-0.7 3.2,0.9 0.3,-0.2 0.8,-0.3 1,-0.3 0.3,0 0.8,-0.7 1.3,-1.2 0.6,-0.6 0.4,-1.2 1.1,-1.1 0.7,0.1 1,-0.8 2.4,-1.6 1.4,-0.8 2.7,0.4 3.2,-0.1 0.7,-0.6 1.4,-0.8 1.4,-0.2 0,0.6 0.9,1.2 1.1,1.9 0.2,0.6 1.4,0.8 1.6,0.9 0.2,-0.1 0.4,-0.2 0.5,-0.3 0.7,-0.5 1.9,0.1 1.9,0.8 0,0.7 0.1,1.6 0.6,1.6 0.5,0 1.1,0 1.1,1.4 0,1.4 0.5,2.8 -0.7,4 -1.2,1.2 -2.6,3.2 -2.3,3.8 0.3,0.6 -0.4,1.8 0.5,1.4 0.9,-0.4 2.8,0 2.6,0.5 -0.3,0.5 0.1,2.2 0.9,2.3 0.8,0.1 1.3,0.5 1.1,1.2 -0.2,0.7 -0.7,1.9 0,1.9 0.7,0 1.7,0 1.6,0.8 -0.1,0.8 0.5,1.4 1.8,0.9 0.7,-0.3 1.1,-0.6 1.3,-0.3 0.5,0 0.5,1.1 1.4,1.3 0.9,0.2 0.4,-1.9 0.1,-2.2 -0.3,-0.3 0.1,-1.8 0.4,-1.4 0.3,0.3 1.3,0 1.9,-0.7 0.6,-0.7 1.7,0.6 2.1,-0.2 0.4,-0.8 1.4,0.6 2.4,0 1,-0.6 1.4,0.4 1.9,-0.3 0.4,-0.8 1.9,-1.8 2.2,-1.4 0.3,0.3 0.6,1 2.3,1.2 1.8,0.2 0.8,1.1 0.8,1.7 0,0.6 2,2 2.7,2.1 0.1,0 0.3,0.2 0.6,0.5 0.5,-0.3 1.5,0.2 1.7,-0.5 0.2,-0.8 1.2,-0.5 1.5,0.1 0.3,0.6 0.8,0.8 1.6,0 0.8,-0.8 1.2,0.8 0.8,1.2 -0.5,0.4 -0.2,1.7 0.6,2.5 0.8,0.8 0.9,-0.5 0.8,-1.2 -0.2,-0.8 1.3,-1.5 3.9,-2.4 2.7,-0.9 5.4,-2.7 5.4,-3.1 0,-0.4 1.9,0.8 2.7,0.1 0.9,-0.7 3.9,-0.8 4.8,-0.8 0.8,0 0.8,-0.8 1.7,-1.5 0.9,-0.7 0.7,-1 1.7,-1.3 1,-0.3 1.6,-1.2 1.6,-1.7 0,-0.5 1.9,-0.7 1.9,-1.2 0,-0.5 1.4,-0.7 1.4,-1.4 0,-0.7 0.8,-0.5 1.2,-1 0.4,-0.5 -0.3,-2 0.4,-2.2 0.7,-0.2 -0.2,-1 -0.4,-1.4 -0.2,-0.4 1.2,-0.5 2,-0.9 0.7,-0.5 1.2,-1.2 1.3,-2 0.1,-0.8 1.3,-1.5 1.8,-1.7 0.5,-0.2 0.8,-1.3 0.6,-2.3 -0.2,-1 1,-0.7 0.5,-1.1 -0.5,-0.4 0.2,-1.4 1.2,-1.7 1,-0.3 -0.6,-0.8 -1.2,-0.3 -0.5,0.4 -1.1,-1.2 -1.6,-0.6 -0.5,0.6 -1.9,-0.4 -1,-0.6 0.9,-0.2 2.3,-1.2 2.9,-1.5 0.6,-0.2 -0.9,-1.6 -1.7,-1.5 -0.8,0 -1.7,-1.8 -2.5,-1.8 -0.8,0 0.6,-0.6 1.6,-0.1 1,0.5 2.1,0.9 2.5,0.5 0.4,-0.4 -1.6,-2.1 -2.4,-2.7 -0.8,-0.6 0,-1.4 -0.5,-1.7 -0.5,-0.3 -1.5,-2.5 -1.8,-3.3 -0.3,-1 -2.1,-1.1 -2.5,-1.8 -0.4,-0.6 0,-2.1 1.3,-2.6 1.3,-0.5 0.8,-1.6 1.3,-1.5 0.6,0.1 1.1,-0.1 1.5,-1.1 0.5,-1 1.2,-0.4 1.7,-0.9 0.5,-0.5 2.5,-0.5 3.1,-1 0.7,-0.5 -0.7,-2 -1.6,-1.8 -1,0.2 -2.1,-0.1 -2.7,-1.1 -0.7,-1 -2.4,1.8 -3.7,2.5 -1.3,0.6 -2.2,-1.1 -1.8,-2.2 0.5,-1.1 -1,-1.1 -2.8,-1 -1.9,0.1 -1.2,-3.2 0,-3.4 1.1,-0.2 2.7,1 3.4,-1 0.7,-2.1 1.7,-0.5 3.2,-2.3 1.6,-1.8 3.3,-2.9 4.7,-1.9 1.4,1.1 -1.5,2.7 -1.9,3.7 -0.5,1 0.4,1.4 -0.4,2.2 -0.8,0.8 0.3,1 2,0 1.6,-1 3.5,-2.3 5.1,-2.8 0.4,-0.2 0.9,-0.2 1.4,-0.2 0.2,-0.6 0.5,-1.1 0.8,-1.2 1.1,-0.5 4.6,-2.2 5.2,-2.8 0.5,-0.7 1.1,-2 1.8,-2 0.7,0 0.7,0.7 1.8,0.7 1.1,0 2.4,0.4 1.8,-0.5 -0.5,-0.9 -0.2,-0.9 1.1,-1.1 1.3,-0.2 1.1,-1.5 2,-1.5 0.9,0 0.7,-2.2 1.6,-2.2 0.9,0 1.3,1.3 2.4,0.9 0.2,-0.1 0.5,0 0.8,0.1 0.2,-0.2 0.5,-0.4 0.7,-0.5 -0.1,-1.1 0,-2.2 -0.2,-2.7 -0.4,-1 0,-1.8 -0.2,-2.3 -0.2,-0.6 -0.2,-2 0.4,-2 0.7,0 1.5,-1.7 2.3,-1.1 0.8,0.6 2.5,0.8 2.5,0 0,-0.8 1.2,-0.8 1.3,-1.8 0.2,-1 1.4,-1.2 1.7,-2.2 0.2,-0.9 0.7,-3 1.5,-3.5 0.7,-0.1 -0.3,-0.5 -0.2,-2 z m -40,77.5 c -0.9,3.2 1.2,4.9 1.5,4.7 0.8,-0.6 4.1,-7.7 3.4,-8.6 -0.7,-1.1 -4.1,0.6 -4.9,3.9 z m -29.3,11.1 c -1.1,0 -3.7,1.6 -2.7,3.7 1.1,2.2 4.6,0.8 4.7,-0.2 0.1,-1 1.7,-2.6 1.5,-3.2 -0.2,-0.6 -2.4,-0.3 -3.5,-0.3 z"/>
    <path d="m 344.24918,298.79655 c 1.6,-0.2 3.7,1.8 3.3,2.5 -0.3,0.8 0.1,3.1 0.8,2.5 0.8,-0.7 1.9,0.2 1.2,1.2 -0.8,1.1 1.2,2.2 1.4,3.4 0.2,1.2 1.1,0.2 0.9,-0.8 -0.2,-1 0.2,-0.9 1.2,-1.7 1.1,-0.8 -0.1,-2 -0.8,-3.3 -0.7,-1.4 -3.1,-0.9 -3.1,-2.2 0,-1.3 -1.8,-1.8 -1.9,-2.5 -0.1,-0.8 -2.5,-1.5 -3.8,-0.7 -1.4,0.8 -0.4,-1.5 -1.4,-2.6 -1,-1.1 0.8,-2.7 1.9,-3.9 1.2,-1.3 -0.3,-3.5 -0.2,-4.5 0.2,-1 0.1,-1.3 -0.5,-1 -0.6,0.3 -2.9,-1 -4,-0.3 -1.1,0.7 -0.1,6.1 -0.6,6.5 -0.5,0.4 -1.1,-0.9 -1.3,-0.3 -0.2,0.8 0.1,3.7 0.8,3.7 0.7,0 1.2,0.8 0.8,2.2 -0.4,1.3 1.2,1.5 2.7,0.9 1.6,-0.5 1,1.2 2.6,0.9 z m -5.2,0.8 c 0.2,1.2 0.8,3.5 2.7,2.9 1.7,-0.5 -2.9,-3.8 -2.7,-2.9 z m 4.5,7.9 c 0.4,-0.1 1.4,0 1.5,-0.8 0.1,-0.8 1,1.5 0.2,2.2 -0.8,0.7 -0.8,2.7 0.4,3 1.2,0.2 3.2,-3.7 2.9,-4.4 -0.3,-0.8 -1.3,0.5 -1.1,-0.5 0.2,-1 -2.9,-3.5 -4.1,-3.2 -1.2,0.3 -0.7,3.9 0.2,3.7 z m -9.7,1.6 c -1.2,1.5 -3.9,3.9 -3.5,4.6 0.5,0.9 3.5,-3.6 5,-4.7 1.5,-1.1 1.2,-2 0.8,-2.9 -0.4,-1 -1.1,1.5 -2.3,3 z m 14.6,1.6 c 0.3,0.8 2.7,-0.5 2.1,-1.3 -0.6,-0.8 -2.3,0.7 -2.1,1.3 z m 7.3,6.4 c 1,-1.2 -0.7,-4.1 -0.7,-6.1 0,-2 -2.7,-1.4 -2,-0.2 0.8,1.2 -1.4,0.2 -1.6,1.5 -0.2,1.2 -1.8,0.2 -1.7,1.2 0.1,1 -1.7,0 -2.5,-0.6 -0.8,-0.6 -2,1.6 -3.1,1.9 -1.2,0.3 -1.9,2.9 -1.1,2.8 1,-0.1 1.5,-1.4 2.5,-1.3 1,0.1 0.7,-1 2.1,-0.8 1.4,0.2 0.4,4.4 2.3,4.7 1.9,0.3 2,1.5 2.8,1.5 0.9,0 -0.2,-2.7 -0.1,-3.5 0.3,-0.7 2.2,0 3.1,-1.1 z"/>
    <path d="m 230.44918,309.99655 c -0.8,0.1 -0.6,1.6 -1,2.7 -0.4,1.1 -0.3,2.2 -0.2,3.7 0.2,1.6 0,3.1 1.4,4.1 1.6,1.1 4.1,-1.7 4.2,-3.9 0.2,-2.5 -3.8,-6.7 -4.4,-6.6 z"/>
    <path d="m 148.74918,283.69655 c -1.4,0.3 -5,0.1 -5.5,0.3 -0.5,0.2 -3.8,2.7 -4.2,3.7 -0.5,1.1 -1.2,1.3 -1.9,0.7 -0.7,-0.6 -3.6,-0.4 -3.8,-0.6 -0.2,-0.2 -2.4,-0.5 -3.4,-0.3 -1,0.2 -1.6,-0.5 -2.1,-0.3 -0.5,0.2 -1,0.7 -1.2,1 -0.2,0.3 0.2,1.2 0.1,1.5 0,0.1 -0.6,0.4 -1.3,0.7 0.3,0.6 0.4,1.3 0.2,1.7 -0.3,1 0,3.1 0.8,4.4 0.9,1.3 0.5,3.6 1,4 0.4,0.5 3.6,0.4 5,-0.6 1.5,-1 2.5,-1.1 3.5,-1.1 1.2,0 2.7,-1 3,-1.5 0.4,-0.5 2.1,-0.5 2.7,-0.5 0.7,0.1 1.4,-0.7 2.2,-1.5 0.8,-0.8 3.2,-1.1 5.9,-2 2.7,-0.8 2.1,-2.1 2.7,-2.7 0.5,-0.6 1.3,-0.4 2.4,-0.9 -1.3,-2.7 -2.7,-5.5 -3.4,-7 -1.3,0.6 -2.3,0.9 -2.7,1 z m 6.7,18.3 c 0.9,1 2.7,-0.2 2.8,-0.5 0.1,-0.4 -3.8,-0.5 -2.8,0.5 z"/>
    <path d="m 192.94918,225.49655 c 0,0 -1.8,-0.9 -2.5,-0.8 -0.7,0.1 -1.8,-1.5 -2.8,-1.9 -1.2,-0.4 -2.7,-1.2 -3.1,-1.9 -0.4,-0.7 -2.6,-1.5 -2.7,-2.1 -0.1,-0.6 -0.7,-1.6 -1.2,-2.3 -0.6,-0.8 -0.6,-1.8 -1.2,-1.8 -0.6,-0.1 -4.1,0 -4.1,-0.5 0,-0.5 -0.2,-2.7 -1,-2.9 -0.8,-0.2 -1.8,-0.3 -2.2,-0.8 -0.4,-0.4 -1.8,-0.9 -2,-0.5 -0.2,0.4 -0.9,0.6 -1.2,0.6 -0.3,0 -0.2,1.2 -1,1.1 -0.8,-0.1 -2,0.9 -2,1.5 0,0.6 0.1,1.4 -1,1.3 -0.5,0 -1.3,-0.1 -2,-0.5 -0.2,0.1 -1.1,0.7 -2,-0.5 -1,-1.3 -2.6,-2.7 -3.3,-2.7 -0.7,0 -3.5,0 -2.8,1.5 0.2,-0.3 0.6,-0.6 1.3,-0.5 2,0.2 1.1,2.5 2.2,2.6 1.1,0.1 2.3,1.8 1.3,1.7 -1,-0.1 -1.8,0.9 -2.7,0.6 -1,-0.3 -2.2,-1.2 -2.6,0 -0.3,1.2 -0.8,2.4 0.6,2.3 1.3,-0.1 1.1,0.8 0.2,1.8 -0.9,0.9 1.4,-0.2 1.6,0.7 0.2,0.8 0.9,0.9 0.6,2.2 -0.2,0.8 -0.1,2.5 0,3.7 0.9,0 2.1,-0.1 2.3,-0.4 0.4,-0.6 1.8,-1.8 2.5,-1.8 0.7,0 1.6,0.3 2,-0.2 0.4,-0.6 2.7,-0.4 3.1,0.1 0.4,0.5 1.8,0.9 2.1,0.9 0.3,0 0.5,0.8 1.3,0.7 0.8,-0.1 2.4,0.2 2.4,0.8 0,0.6 0.6,1 1.2,1 0.7,0 1.2,1.7 1.9,1.6 0.7,-0.1 2,-0.1 2,0.3 0,0.3 0.1,2.3 0.5,3.3 0.2,-0.1 0.5,-0.1 0.6,-0.1 0.3,0.2 1.8,-0.2 2,0.6 0.2,0.8 2.6,0.3 2.4,-0.9 -0.1,-1.2 3.6,-1.2 3.9,-2.3 0.3,-1.1 0.8,-3 1.7,-2.7 0.9,0.3 1.4,-1.4 2.2,-1.3 0.7,0.1 1.2,0.7 2.1,0.5 l -0.6,-2 z"/>
    <path d="m 182.64918,258.69655 c -0.7,-0.2 0,-2.6 -1.3,-3 -1.3,-0.6 -2.5,-1.5 -2.8,-2.4 -0.3,-0.9 -2,-1.8 -1.9,-2.4 0.1,-0.7 3.2,-2.7 2.8,-3.9 -0.4,-1.2 -2.6,-1 -2.7,-1.4 -0.2,-0.4 0.1,-2 -0.4,-3.1 -0.6,-1.2 0.4,-2.3 0,-2.9 -0.4,-0.7 0.2,-2 0.3,-2.4 0.1,-0.4 1.2,-1.1 1.1,-2.2 -0.1,-0.7 0.3,-1.1 0.6,-1.3 -0.4,-1.1 -0.5,-3 -0.5,-3.3 0,-0.4 -1.3,-0.4 -2,-0.3 -0.7,0.1 -1.2,-1.6 -1.9,-1.6 -0.7,0 -1.2,-0.5 -1.2,-1 0,-0.5 -1.6,-0.8 -2.4,-0.8 -0.8,0.1 -1,-0.7 -1.3,-0.7 -0.3,0 -1.7,-0.4 -2.1,-0.9 -0.4,-0.5 -2.7,-0.7 -3.1,-0.1 -0.4,0.6 -1.2,0.2 -2,0.2 -0.8,0 -2.1,1.2 -2.5,1.8 -0.3,0.4 -1.4,0.4 -2.3,0.4 0,0.7 0,1.3 -0.1,1.5 -0.4,0.7 -3.6,1.2 -6,1.3 -2.4,0.1 -2.6,-3 -5.1,-3 -1.9,0 -3.2,-1.7 -3.3,-3.2 -1.1,-0.4 -2.2,-1.2 -2,-1.5 0.2,-0.4 0.8,-3.1 -0.6,-2.6 -1.3,0.7 -3.1,2.7 -5.6,2.4 -2.4,-0.3 -0.7,-0.6 -1.9,-1.1 -1.2,-0.6 -0.4,-1.9 -1.7,-2.1 -1.2,-0.2 -0.3,1.4 -1,1.4 -0.7,0 -0.1,1.9 0.1,2.3 0.2,0.4 -0.4,2.8 0,2.9 0.4,0.1 1.4,1.9 1.3,2.2 -0.1,0.3 1,1.4 1,2.2 0,0.8 1,1.7 1.6,1.7 0.6,0 1.3,0.3 1.1,1 -0.2,0.7 0.3,1.7 -0.3,1.7 -0.7,0 -0.6,1.9 -1.1,2.2 -0.6,0.3 -0.1,2.3 0.3,2.6 0.4,0.2 1.4,0.8 1.3,1.6 -0.1,0.8 2.3,2 3,2.1 0.7,0.1 0.9,1.2 1.3,1.7 0.4,0.4 -0.3,1.3 -0.2,1.9 0.1,0.6 1.1,1 1,1.9 -0.1,0.5 0.8,1.4 1.6,2.2 0.2,-0.1 0.5,-0.1 0.7,-0.1 0.8,0 0.7,-0.8 1.3,-0.3 0.6,0.5 1.4,0 2,-0.1 0.6,0 2.2,2.9 2.8,4.3 0.7,1.5 0.7,2 1.6,2.6 1,0.6 2,0.3 3.3,1.7 1.4,1.4 4.8,2.4 6.3,2.5 1.5,0.1 2.6,-1.6 4.4,-1.2 1.9,0.4 1.5,2.7 2.2,3.6 0.7,0.9 8.3,1.5 9.6,1.8 0.5,0.1 1.7,0.2 2.9,0.3 0,-0.3 -0.1,-0.5 -0.1,-0.7 -0.1,-1.3 0.9,-2.4 1.8,-2.8 0.9,-0.4 1.7,-0.7 2.6,-0.8 1,-0.9 0.1,-2.6 -0.5,-2.8 z"/>
    <path d="m 248.64918,185.69655 c -0.1,-0.6 -0.6,-0.3 -1,-0.1 -0.4,0.2 -1.8,0.4 -2.2,0.4 -0.4,0 -1.4,-0.7 -1.4,-1.2 0,-0.5 -0.1,-1.1 -0.6,-1.1 -0.5,0 -1.2,-0.2 -1.8,-1.4 -0.6,-1.2 -1.2,-1.2 -1.8,-1.5 -0.6,-0.3 -2.1,0.6 -2.7,0.8 -0.7,0.2 -1.9,-0.2 -2.7,-0.4 -0.9,-0.2 -1.4,-1.8 -2.2,-1.6 -0.8,0.2 -1,1.8 -1.6,1.8 -0.6,0 -1.8,-3.1 -2.8,-5 -1.1,-1.9 -3.2,-5.3 -5.1,-6 -1.9,-0.7 -1.3,-1.6 -0.8,-2.1 0.5,-0.5 -1.1,-0.6 -1.9,-0.2 -0.8,0.4 -1.7,1.2 -2.6,1.4 -0.9,0.2 -2.1,1.6 -3,1.2 -1,-0.4 -1.4,1.2 -2.1,0.5 -0.7,-0.7 1,-1.2 1,-1.8 0,-0.6 -1.2,0.2 -1.5,-0.2 -0.3,-0.4 -1.3,-0.8 -1.3,-0.2 0,0.6 -0.8,0.2 -0.8,-0.2 0,-0.4 -0.6,-1.2 -1.1,-0.7 -0.5,0.5 -2.2,0.9 -2.6,0.4 -0.4,-0.5 0.2,-0.6 0.3,-1.2 0.1,-0.6 -0.6,-1.3 -0.5,-2 0.1,-0.7 -1.2,-1.4 -1.8,-1.1 -0.6,0.3 -1.5,0 -2.2,-0.3 -0.7,-0.3 -3.3,0.2 -3.4,0.8 -0.1,0.6 -3.4,1.1 -4,1.4 -0.6,0.3 -3,0.6 -3.9,0.8 -0.9,0.2 -1.8,0.9 -2.8,0.9 -1,0 -3.1,0.1 -4.1,0.9 -1,0.8 -2.6,0.1 -3.3,0.4 -0.8,0.3 -2,-0.1 -2.4,0.1 -0.4,0.2 -0.2,1.8 0.1,2.4 0.3,0.6 2.4,0.9 2.5,1.2 0.1,0.3 -2,0.4 -2.9,0.5 -1,0.1 -0.8,1.4 -0.5,2 0.3,0.6 -1,1.2 -1.8,1.5 -0.8,0.3 0,1.5 0.8,1.5 0.8,0 1.4,0.6 2,0.6 0.6,0 0.8,1.2 0.8,2 0,0.8 -0.8,1 -1.8,1 -1,0 -1.5,-0.8 -2.1,-0.9 -0.6,-0.1 -0.5,1.1 -1,1.4 -0.5,0.3 -0.6,-0.9 -1.4,-0.9 -0.8,0 -1.6,-0.1 -1.9,-0.9 -0.3,-0.8 -2,-0.9 -2.7,-0.1 -0.7,0.8 -1,0.4 -1.6,-0.1 -0.6,-0.5 -2.5,0.2 -2.7,0.9 -0.3,0.7 -1.6,0.9 -2.6,0.2 -1,-0.7 -1.6,-0.9 -1.6,0 0,0.9 -0.8,0.1 -0.8,-0.4 0,-0.5 -1.6,-1.5 -2.4,-2 -0.8,-0.5 -3,-0.5 -3.1,-1 -0.1,-0.5 -1.6,-0.9 -2,0 -0.4,0.9 -1,0.2 -1.5,0 -0.5,-0.2 -1.6,0.4 -2.1,0.6 -0.5,0.2 -2.1,1.4 -2.9,1.4 -0.8,0 -0.4,1.1 -1.5,1.4 -1.1,0.3 -0.9,1 -0.8,1.5 0.1,0.5 0.8,1.4 -0.2,1.8 -1,0.4 -1.4,-1.2 -2.2,-1.9 -0.8,-0.7 -1.6,0.1 -1.6,1 0,0.9 -1,0.9 -1.5,1.8 -0.5,0.9 0.9,1 0.9,1.4 0,0.4 -0.8,0.8 -1,0.9 -0.2,0.1 -0.9,1.4 -0.6,1.8 0.3,0.4 1.8,0.2 1.6,1.1 -0.2,0.9 -0.2,1.8 0.5,1.5 0.7,-0.3 1.5,-0.1 2,-0.1 0.5,0 0.9,1 1.8,2 0.9,1 1.2,1.5 0.4,1.8 -0.8,0.3 -0.5,0.8 0.6,1.2 0.3,0.1 0.6,0.3 0.9,0.5 0.2,-0.1 0.4,-0.2 0.5,-0.4 1.4,-1.2 3.9,-2.4 5.8,-1.9 1.9,0.5 3.4,-0.3 4.2,0.8 0.8,1.2 0,3.2 0.3,4.1 0.3,0.8 -1.5,0.9 -2.7,0.8 -1.2,-0.2 -3.7,0.5 -3.4,1.2 0.3,0.7 1.2,2.5 -0.4,1.6 -1.7,-0.9 -2.3,0.9 -1.4,0.9 0.9,0 2.2,1.1 2.2,1.8 0,0.7 0.1,2.4 0.9,2.2 0.8,-0.2 0.8,1.2 2,1.2 1.2,-0.1 2.2,0.3 1.3,1.4 -0.9,1.1 0.6,4 0.9,3.3 0.2,-0.4 0,-1.3 0.4,-1.9 -0.7,-1.5 2.1,-1.5 2.8,-1.5 0.9,0 2.4,1.3 3.3,2.7 1,1.3 2,0.4 2,0.4 l 0.3,-12.3 7,-1.9 c 0.1,-0.2 0.1,-0.3 0.2,-0.5 0.9,-1.3 2.2,-0.2 2.6,0.1 0.4,0.3 0.2,-1.4 1.2,-1.3 1,0.1 -0.1,1.7 0.7,1.7 0.6,0 1.9,2.1 1.5,3.6 1.1,0.9 3,3 3.2,3.5 0.2,0.7 3,-0.4 3.6,-0.2 0.6,0.2 4.8,0.2 5.6,0.2 0.8,0 1.3,1.4 2.2,1.7 0.9,0.2 0.6,1.7 0.7,2.7 0.1,1 1.4,2 1.6,2.8 0.1,0.9 1.6,0.4 2.4,0.7 0.9,0.2 2.2,0.6 2.3,1.4 0.1,0.9 1.2,0.2 1.3,-0.4 0.1,-0.7 1.2,-1.6 2.8,-2.2 0.8,-0.3 1.2,-0.3 1.6,-0.2 0.3,-0.8 0.6,-1.5 0.9,-1.6 0.6,-0.2 1.7,-1.1 1.8,-1.9 0.1,-0.8 2.3,-0.8 3.7,-0.1 1.5,0.7 2.4,0.8 2.5,-0.4 0.1,-1.2 2.2,-1.5 2.8,-1.2 0.7,0.3 2.7,1.5 3.7,1.1 1,-0.4 5.9,0.1 7.1,0.4 1.2,0.3 1.6,-0.5 2.7,0.8 0.9,1.1 1.4,0.1 2.4,0.9 0,-0.3 -0.1,-0.7 -0.1,-1.1 0,-0.8 1.2,-1.5 1.5,-2.1 0.3,-0.6 -1.1,-2.5 -1.1,-3 0,-0.5 0,-2.1 -0.6,-2.4 -0.6,-0.3 1.2,-1.1 1.6,-1.1 0.9,0 2.2,-0.9 2.7,-0.5 0.4,0.4 1.2,0.5 2,0.5 0.8,0 0.5,-0.9 0,-1.3 -0.5,-0.4 1.4,-4.1 1.7,-5.3 0.3,-1.3 1,-0.1 1.9,0 0.9,0.1 2,-0.1 2.6,0.2 0.6,0.3 2.2,-0.3 2.7,-1 0.4,-0.6 -0.5,-0.8 -0.4,-2.2 0.1,-1.4 0.9,-2.1 1.8,-2.1 0.9,0 1.2,-0.9 1.2,-1.6 0,-0.6 0.8,-1 1,-1.8 -0.7,-0.7 -1,-1.1 -1,-1.4 z m -70,12 c -0.3,0.5 -3.5,-0.4 -3.8,-1.1 -0.3,-0.7 4.5,0.1 3.8,1.1 z m 46.5,-0.3 c -2.3,0 -7.4,-1.2 -9.4,1.1 -2,2.3 -0.6,3.3 -1.5,3.5 -1,0.2 -1.5,-3.3 -0.3,-4.5 1.2,-1.2 4.8,-1.7 7.1,-1.1 2.3,0.6 6.4,-0.5 7,-0.3 0.5,0.1 -0.7,1.3 -2.9,1.3 z"/>
    <g transform="translate(-20.750821,-72.00345)">
      <path d="m 90.3,236.7 c -0.4,0.2 -1.4,-0.2 -1.7,-0.6 -0.2,-0.4 -1,-0.2 -1.7,-0.2 0.2,0.1 0.3,0.2 0.4,0.4 0.4,0.7 -1.5,0.8 -0.9,1.5 0.6,0.8 -1.3,0.8 -1.3,0 0,-0.8 -2,-0.4 -1.9,0.1 0,0.2 0,0.4 -0.2,0.7 0.5,0.2 1.2,0.4 1.4,0.5 0.4,0.2 5.3,0.7 7.2,0.3 -0.1,-0.4 0.1,-1.5 0.1,-1.9 0.2,-0.4 -1,-1 -1.4,-0.8 z M 208.8,110.6 c 3.1,-0.3 3,-2.1 1.4,-2.4 -1.6,-0.3 -1.9,1 -2.7,0.9 -0.8,-0.1 -3.9,0.5 -3.2,1.2 0.6,0.9 2.9,0.5 4.5,0.3 z m 15.8,45.6 c 1.1,0.2 3.9,-0.4 4.2,-1 0.3,-0.6 -1.2,-1.2 -3,-1.2 -1.9,-0.1 -2.1,2 -1.2,2.2 z M 285,114.4 c 1.6,0.7 1,1.1 -0.7,1.1 -1.7,0 -3,0.6 -2,1 0.8,0.3 0.8,1.2 2.5,1.7 1.8,0.4 3.4,-1 3.2,-2 -0.2,-1 6,-1.9 7.7,-2.3 1.7,-0.4 -1.1,-2.2 0.8,-2.3 1.8,-0.2 1.1,-1 -1.2,-1.3 -2.2,-0.3 -1.3,-2.2 -2.1,-2.8 -0.8,-0.7 -1.2,0.8 -4,1.4 -2.8,0.6 -4.2,1.3 -3.1,1.9 1.2,0.6 0,2 -1.2,1.9 -1.1,-0.3 -1.4,1 0.1,1.7 z m 4.4,2.2 c 0,0.9 -2.7,1.8 -1.9,2.5 0.7,0.6 1.2,0.4 2.1,0.6 0.8,0.2 1.2,2.2 2.7,1.9 1.5,-0.3 5.5,1.7 7.9,1.7 2.4,0 2.7,-2 1.9,-2.1 -0.8,-0.1 -0.1,-1.2 1.2,-3.1 1.3,-1.9 -4.1,-3.2 -4.1,-1.8 0,1.4 -1.6,-0.3 -2.1,-1.2 -0.6,-1 -7.7,0.6 -7.7,1.5 z m -41,40.8 c 1.3,0.7 2.3,0.4 2.2,-0.9 -0.2,-1.3 -3.2,0.4 -2.2,0.9 z m 34.5,-48.8 c 0.3,-1.2 -5.1,-0.7 -3.7,0.5 0.5,0.4 3.4,0.6 3.7,-0.5 z m 240.8,59.3 c 1.7,0.8 2.7,-1 3.9,-0.1 1.3,0.9 4.5,-0.4 5.8,-0.7 1.3,-0.2 0.7,-1.9 -3,-2.4 -3.7,-0.5 -8.5,2.3 -6.7,3.2 z M 302,128.2 c 1.2,0.7 4.8,-0.8 7.3,-0.8 2.5,0.1 9.3,-1.9 9.6,-3.1 0.2,-1.3 -2.6,-1.2 -3.6,-2.4 -1.1,-1.2 -3.4,-0.2 -4,0.8 -0.6,1 -1.2,0.1 0.3,-1.5 1.6,-1.6 -1.6,-2.7 -1.7,-1.8 -0.1,1 -2.9,0.2 -2.9,1.1 0,0.9 -1.1,1.3 -1,2.2 0.1,0.9 -2,-0.5 -2.1,1.6 0,2 -3.1,3.2 -1.9,3.9 z M 407.6,145 c 1.2,0.6 1.6,1.2 2.2,1.8 0.7,0.7 3.1,-0.3 4.1,-0.7 1,-0.3 1.1,1.5 2.7,0.5 1.6,-1 3.1,-0.5 4.9,-0.5 1.8,0 -0.3,-2.2 -0.2,-3.1 0.1,-1 2.2,-0.3 1.5,0.5 -0.7,0.8 1,2.7 3.6,2.6 2.7,-0.2 0.7,-1.8 2,-2.4 1.3,-0.6 1.2,-1.2 -0.8,-2.4 -1.9,-1.2 -4.3,-0.4 -6,-1.2 -1.8,-0.8 -3.8,-0.8 -3.9,1 -0.1,1.8 -3.5,-2 -5.3,-2.6 -2,-0.5 -7.5,5.2 -4.8,6.5 z m 17,10.5 c 1.5,-0.3 -1.1,-3 -3.6,-3.4 -2.6,-0.4 -4.9,1.7 -4.6,2.2 0.9,1 6.8,1.5 8.2,1.2 z m -6.4,-5.4 c 0,-1.2 -4.4,0.5 -2.7,1.1 1,0.3 2.7,0.2 2.7,-1.1 z m 14.2,-5.1 c 2,0.2 2.9,2.1 6.7,2.3 3.7,0.2 6.6,-0.5 6.7,-1.3 0.1,-0.8 -3.4,-2.1 -4.5,-1.4 -1.1,0.7 -1.9,-1.1 -3.1,-0.7 -1.3,0.4 -3.1,0.3 -3.7,-0.8 -0.9,-1.1 -3.1,1.8 -2.1,1.9 z M 159.1,111.7 c 1.9,-1.8 4.3,-0.1 4.7,-0.9 0.3,-0.8 -3.5,-1.1 -4.9,-0.3 -1.4,0.8 -4.6,0.1 -4.2,1.1 0.1,0.5 2.4,1.9 4.4,0.1 z m 265,138.3 c -0.9,-2.4 1.3,-4.7 -0.3,-5.9 -1.7,-1.2 -1,-3.7 -1.8,-3.2 -0.8,0.5 0,2.7 -1.3,2.8 -1.3,0.2 -0.1,1.4 -0.6,3 -0.5,1.7 0.2,4 0.9,5.5 0.7,1.5 -0.9,9.3 -0.2,10.6 0.7,1.3 -1.1,7.1 -0.5,7.8 1,1.2 0.3,-1.6 1.8,-1.8 1.5,-0.2 1.5,1.7 2.4,2.1 0.9,0.4 0.3,-2.7 -0.5,-2.5 -0.8,0.2 -1.5,-2 -1.9,-3.2 -0.4,-1.3 0.8,-2.8 0.8,-4.5 0,-1.7 2.1,-1.6 3.2,-0.3 1.2,1.3 1.4,0.4 0.9,-0.5 -0.5,-1 -2.1,-7.5 -2.9,-9.9 z M 166.7,111 c 1.2,0.8 -3.1,0.6 -3.7,1.4 -0.6,0.8 -3.1,0.5 -2.7,1.5 0.5,1 4.6,1.1 4.6,0.2 0,-0.8 2.2,-0.1 2.2,-0.8 0.1,-0.8 1,-1.6 3.2,-1.8 2.3,-0.2 2.3,-1 0.2,-2 -2.1,-0.8 -4.9,0.6 -3.8,1.5 z m -3.5,66.1 c 2.2,2.1 4.1,-0.9 5.1,-1.1 1.1,-0.2 -0.7,-1.3 -2.5,-1.8 -1.7,-0.4 -4.3,1.3 -2.6,2.9 z M 555.1,191 c -0.8,-0.3 -3.4,-2 -4.1,-2.9 -0.7,-1 -3.8,-1.4 -3.8,-0.9 0,0.5 -1,-0.1 -1.3,-0.7 -0.2,-0.5 -3.5,-0.6 -3.6,0 0,0.6 0.8,0.6 1.3,1.3 0.5,0.7 -0.7,1 -0.4,1.8 0.3,0.8 -1.2,-0.4 -1.8,-0.8 -0.5,-0.4 -0.3,-2 -0.1,-2.8 0.2,-0.8 -1,-0.7 -1.1,-1.5 -0.1,-0.8 -3.8,-2.5 -5.4,-3.1 -1.6,-0.7 -3.5,-1.2 -4.1,-2.1 -0.5,-0.8 -3.3,-0.9 -4.4,-2 -1.1,-1.1 -5.7,-3 -7.8,-3.1 -2,-0.1 -1.6,-1.2 -2.6,-1.1 -1,0.2 -5.2,0 -6.5,-0.2 -1.3,-0.2 -1.6,0.8 -2.6,0.4 -1,-0.4 -5.8,-2.2 -6.4,-1.5 -0.6,0.7 -0.3,1.6 -0.9,1.8 -0.6,0.2 0,1 1.4,2.2 1.4,1.2 0.5,2.2 -0.7,2.7 -1.2,0.5 -3.1,-0.5 -3.8,-1.5 -0.6,-1 -2.3,-0.5 -2.7,-1.8 -0.4,-1.2 0.5,-1.5 1.3,-0.8 0.8,0.7 2,0.1 2.1,-0.8 0.1,-0.9 -2.2,-1.5 -3.4,-1.5 -1.3,0.1 -2,1.9 -3.2,2.6 -1.3,0.8 -6.4,-0.3 -6.9,-0.8 -0.5,-0.5 -7.7,0 -8.3,0.5 -0.7,0.5 -0.2,2.5 -0.6,2.6 -0.4,0.2 -0.8,-2.2 -0.8,-2.7 0,-0.5 -0.9,-0.8 -2.2,-0.8 -1.3,0 -2,0 -1.5,-0.6 0.5,-0.5 -0.5,-1.1 0.5,-1.8 1,-0.7 -1.8,-2.8 -4.5,-3.9 -2.7,-1.1 -8.8,-0.5 -10.5,0 -1.7,0.5 -4.9,0.3 -6.5,0.4 -1.6,0 -0.3,-0.6 -0.8,-1.4 -0.5,-0.8 -3.1,-1.7 -3.4,-1 -0.3,0.7 -1.1,0 -1.1,-0.5 0,-0.5 -2.5,-1.4 -3.4,-1.2 -1,0.2 -1.5,-0.9 -0.3,-0.9 1.2,0 3.1,0.2 2.3,-1.1 -0.9,-1.3 -8.2,-1.8 -8.9,-1.5 -0.7,0.2 0,1.2 -1.7,2.7 -1.6,1.5 -3.1,0.5 -2.9,-0.2 0.2,-0.8 2.2,-0.6 2.2,-1.4 0,-0.8 -2.7,-0.3 -3.1,-1 -0.4,-0.6 0.6,-1 1.6,-0.8 1,0.3 2.7,0.5 2.7,0 0.1,-0.5 -1,-0.5 -2.7,-0.8 -1.7,-0.3 -5.6,-1.2 -7.7,-1 -2.1,0.2 -3,-0.8 -4.1,-0.9 -1.2,-0.1 -1.2,0.6 -0.6,1.3 0.5,0.7 -1.1,1.1 -2.5,0.9 -1.4,-0.2 -3.3,0.8 -2.6,1.8 0.8,1 1.6,-0.3 2.2,0 0.7,0.3 -1.8,1 -0.8,1.5 1,0.5 0.8,1.4 0.9,1.9 0,0.5 -1.7,0.8 -2.3,0 -0.6,-0.8 -1.5,-0.1 -2.7,-0.2 -1.2,-0.1 -2,0.5 -0.8,0.6 1.2,0.2 1.7,1 0,1.1 -1.7,0.2 -1.2,-1.5 -2.2,-1.3 -1,0.2 -3.1,-0.8 -4.2,-0.8 -1.2,0 -1.7,1 -3.1,1.1 -1.5,0.1 -3.5,-0.8 -4.1,-1.6 -0.6,-0.8 -0.8,-1.1 -1.6,-0.1 -0.8,1 -0.8,2.7 -1.5,2.8 -0.7,0.1 -1,1.8 -1.8,2.2 -0.8,0.4 -0.8,-0.6 -1.8,-0.5 -1,0.1 -3.9,-2.8 -4.1,-3.7 -0.2,-0.9 -2.1,-2.5 -2.6,-2.8 -0.5,-0.3 0.5,-0.5 1.1,0 0.6,0.5 1.4,0.5 2,0.2 0.6,-0.3 0.5,-1.9 -0.5,-1.9 -1.1,0 -0.7,-1 -0.1,-1.1 0.5,-0.2 -1.2,-1.8 -0.6,-2 0.7,-0.2 0.4,-0.9 -0.5,-1 -0.9,-0.1 -1.9,-0.9 -1.9,-1.3 0,-0.5 -3.8,-0.6 -3.7,0 0.2,0.7 -1.2,0.5 -1,-0.1 0.2,-0.5 -1.4,-0.4 -3.1,-0.9 -1.8,-0.5 -1.9,-1.8 -2.5,-1.9 -0.6,-0.1 -0.4,1.8 -1.3,1.4 -0.9,-0.4 -1.9,0.4 -1.4,1.5 0.5,1.1 0,1.2 0,2.1 -0.1,0.9 -0.6,0.5 -1.7,0.1 -1.1,-0.4 -1.1,0.9 -3.3,0.3 -2.3,-0.6 -3.3,0 -3.7,-0.7 -0.4,-0.8 -1.1,-0.8 -1.2,-0.2 -0.1,0.6 -3.6,0.4 -3.9,-0.5 -0.3,-0.9 0.6,-1.1 1.2,-1.3 0.5,-0.2 -0.6,-0.6 -2.5,-0.5 -2,0.1 -3.1,-1 -5.1,-0.8 -2,0.2 -6.4,0.6 -7,0.9 -0.6,0.3 0.6,1.4 -0.4,1.5 -1,0.1 -0.3,-1.8 -0.5,-2.7 -0.2,-0.9 -1.6,-1 -1.4,-0.3 0.2,0.7 -2.3,1 -2.8,0.4 -0.6,-0.5 -1.6,-1.2 -3.1,-1.7 -1.6,-0.4 -3.5,1.3 -3.1,1.8 0.5,0.5 1.7,0.1 1.7,0.5 0.1,0.7 -3.4,0.4 -3.4,1 0,0.6 -3.2,1.4 -4.2,1.5 -2.7,0.3 -3.2,0.3 -4.5,1.4 -1.3,1.1 -0.3,-1 0.7,-2 1,-1 2,-0.6 2.6,-1.4 0.6,-0.8 1.5,-0.7 3,-1 1.6,-0.2 1.5,-1.2 2.2,-1.5 0.8,-0.3 2.6,-1 2.8,-1.8 0.3,-0.8 4,-2 4.7,-2 0.8,0 0.9,-1.5 1.3,-1.5 0.4,0 2.6,-1 3.3,-1.3 0.8,-0.4 1.2,-1.2 1.3,-1.7 0,-0.5 -1.1,-0.5 -1.2,-1 -0.1,-0.5 0.5,-0.2 1.4,-0.5 0.9,-0.3 0,-1.5 -0.7,-1.3 -0.7,0.2 0.4,-0.6 -0.2,-1.4 -0.6,-0.8 -1.9,0.5 -1.8,-0.3 0,-0.8 -0.1,-1.8 -0.6,-2.3 -0.5,-0.5 -1.4,0.9 -2.5,0.1 -1,-0.8 -4,-1.3 -4,-1 0,0.3 -1.5,-0.5 -1.8,-0.2 -0.3,0.3 -2.7,0.3 -3.4,0.1 -0.8,-0.2 -1.8,0.3 -1.8,1 0,0.8 -2.9,0.5 -3.4,0.3 -0.5,-0.1 2,-2.2 2,-2.6 0,-0.4 -4.3,0.1 -4.5,-0.3 -0.2,-0.4 -2.4,-0.5 -3.2,-0.5 -1,0 0,-0.2 0.8,-0.3 0.9,-0.1 1.7,-0.8 2.6,-1 1,-0.2 0.8,-0.5 0.3,-1.1 -0.4,-0.6 -1.4,-0.3 -2.4,-0.6 -1,-0.3 -2.1,-0.7 -2.9,-0.8 -0.8,0 -1.8,0.4 -3.6,0.8 -2,0.4 -2.1,1.9 -3,2.3 -1,0.5 -2.7,2.3 -1.9,2.5 0.8,0.2 0.4,0.7 0.5,1.2 0.1,0.5 -0.6,0.7 -1.6,0.5 -1,-0.2 -4.2,-0.1 -4.2,0.6 0,0.7 2,1 1.8,1.4 -0.2,0.4 -1.5,0 -2.1,-0.4 -0.7,-0.4 -2.2,-0.2 -2.5,0.5 -0.3,0.7 -1.5,0.5 -1.8,0.4 -0.4,-0.2 -1.2,0.3 -1.8,0.1 -0.6,-0.2 1.2,-1.1 0.8,-1.6 -0.5,-0.5 -2.5,0 -2.7,0.7 -0.2,0.8 -1.4,-0.5 -1.9,-0.3 -0.5,0.2 -1,0.5 -1.8,0.9 -0.8,0.4 -2.4,-0.4 -2.7,0.2 -0.3,0.7 1.7,0.9 1.7,1.2 0,0.3 -4.4,0.2 -4.6,0.7 -0.1,0.5 -1.7,0.5 -3.4,0.5 -1.9,0 -1.1,1 -2.6,1.2 -1.5,0.3 -2.2,0.3 -2.7,1.1 -0.5,0.8 -1.7,0.9 -2.2,0.3 -0.5,-0.6 -1.9,0.3 -1.1,0.4 0.8,0.1 0,0.8 -0.4,0.7 -0.5,-0.2 -1.8,0.8 -1,0.7 0.8,-0.1 1.1,0.5 0.8,1 -0.4,0.5 -2,-0.5 -2.4,-0.1 -0.4,0.4 0.8,1 1.5,0.9 0.8,-0.1 1.2,0.4 1.2,1 0.1,0.5 -1.8,-0.3 -2.1,0.1 -0.4,0.5 0.3,0.7 1.1,0.8 0.8,0.1 0.2,0.4 0.9,1 0.1,0 0.1,0.1 0.1,0.1 0.4,0.5 -0.4,0.7 -0.3,1.2 0.1,0.5 -0.8,0.8 -0.8,0.2 0,-0.6 -2.2,-0.7 -2.7,-0.1 -0.5,0.5 -0.8,1 -1.3,0.5 -0.5,-0.5 -2.1,0.1 -4.1,0.2 -2,0.1 -6.1,0.2 -7.2,0.6 -1,0.4 -1.9,1.8 -1,2.7 1,1 0,1.4 0,2 0,0.6 2.5,1.9 3.7,2 1.3,0.1 2.4,1.8 1.6,2.7 -0.8,1 -3.1,-0.3 -4.7,-1.5 -1.6,-1.2 -5.1,-1.8 -6.4,-1.7 -1.2,0.1 -0.5,-1.1 -2,-1 -1.5,0 -2.7,1.4 -1.8,1.4 1,0 1.7,-0.1 1.2,0.4 -0.5,0.5 0.3,0.4 1.5,0.9 1.2,0.5 -1,1.3 -2.3,0.4 -1.3,-0.9 -2.7,0 -2.9,0.6 -0.4,0.7 1.5,2.6 3.7,2.8 2.2,0.3 1.5,1 2.5,1.4 1,0.4 0.3,0.8 -0.4,0.8 -0.7,0 -2.1,-1.1 -3.1,-1.7 -1.1,-0.6 -4.1,0.2 -4.7,-0.4 -0.6,-0.7 0.4,-1.3 -0.2,-1.8 -0.6,-0.5 -0.1,-1.6 0.7,-2.7 0.8,-1.2 -0.1,-3.1 -1.2,-3.4 -1.1,-0.3 -1,0.8 -0.8,1.1 0.2,0.3 0.1,1.9 -0.7,2.9 -0.8,1 -3.3,1 -3.3,1.8 0,0.7 -1.7,1.2 -1.1,1.8 0.6,0.5 2.8,3 3.1,3.8 0.3,0.8 -2,3.2 -1.7,4.7 0.4,1.5 -0.3,2.1 0.1,2.7 0.5,0.7 1.5,0.1 2.2,0.4 0.7,0.3 1.8,-0.4 3.2,-0.7 1.5,-0.3 4.3,1.3 5.3,1.8 1,0.5 0.5,1.3 1,2.2 0.5,0.8 -1.2,0.8 -1.3,2.1 0,1.2 3,1.8 3.1,2.2 0.1,0.4 -2.2,0.1 -3.1,-0.2 -0.9,-0.3 -1,-1.5 -1.3,-1.8 -0.3,-0.2 0.6,-1.2 0.7,-2 0.1,-0.8 -1,-1.2 -1.4,-1.8 -0.4,-0.5 -1,-1.3 -1.8,-1.2 -0.8,0.2 -3.4,0.4 -4.2,1.2 -0.8,0.8 0.1,2.8 0.6,3.8 0.5,1 -2.4,2.5 -2.3,3.2 0.1,0.8 -0.9,1.2 -2.1,1.9 -1.2,0.7 -2.6,1.2 -2.6,2.2 0,1.1 -1.7,0.5 -2.5,0 -0.8,-0.5 -2,0.3 -3.1,0.2 -1.2,0 -1.2,-1.1 -2.2,-0.7 -1,0.4 -1.7,-0.5 -1.4,-1.2 0.3,-0.7 1.4,-0.2 1.5,0.4 0.1,0.5 0.8,0.3 1.6,-0.2 0.8,-0.5 0.4,0.6 1.6,0.7 1.2,0.1 0.5,-0.6 1.5,-0.5 0.9,0.1 1,-0.2 0.7,-0.7 -0.3,-0.5 0.7,-0.8 1.2,-1 0.7,-0.3 0.3,-1.2 0.9,-1.5 0.5,-0.3 0.2,-0.9 0.8,-0.9 0.6,0 0.8,-0.9 1.4,-0.9 0.6,0 0.8,-0.9 0.5,-1.3 -0.3,-0.5 0.2,-1.7 0.8,-1.9 0.5,-0.2 0.6,-0.7 0.1,-1 -0.5,-0.3 -2.3,-1.6 -2.2,-2.4 0.1,-0.8 -0.3,-2.2 -0.1,-2.8 0.2,-0.7 0,-1.9 0,-2.7 0,-0.8 0.5,-1.6 0.7,-2.9 0.2,-1.4 -1.5,-2.7 -2.3,-3.1 -0.8,-0.4 -0.3,-1.1 0.9,-2.1 1.2,-1 1.3,-4 1.2,-4.7 -0.1,-0.7 -2.5,-1.2 -3.4,-1.2 -1,0.1 -4.4,-0.1 -5.3,-0.2 -0.9,-0.2 -1.2,0.8 -1.6,1.6 -0.4,0.8 -1.3,2.1 -1.9,3.9 -0.5,1.9 -2.7,2.5 -3.7,2.8 -1,0.4 -1.6,1.8 -1.2,2.5 0.5,0.7 1.1,0.1 1.6,0.4 0.5,0.3 0,2 -0.3,2.2 -0.3,0.2 0.5,0.9 -0.2,1.3 -0.7,0.5 -1.4,1.4 -1,1.9 0.4,0.5 2.5,0.8 3.2,1.2 0.7,0.4 0.5,1.4 1.2,2.3 0.7,0.9 1.4,0.3 1.7,0.9 0.3,0.5 -1.2,2.7 -1.8,2.7 -0.5,0.1 -2.7,-2.2 -3.3,-2.7 -0.6,-0.5 -3.1,-1.3 -4.4,-2 -1.3,-0.7 -2.3,-0.6 -3.7,-1.5 -1.4,-1 -2.6,-1.4 -5.1,-1.4 -2.6,0 -4.1,-0.6 -5,-0.5 -0.9,0.1 -0.5,-0.9 -2.1,-1.5 -1.5,-0.7 -2.5,-1.6 -3.3,-1.1 -0.9,0.5 -0.5,2.1 0.8,2.3 1.3,0.2 0.7,0.9 2.1,0.8 1.4,-0.1 1.8,0.4 1.8,1.3 0,0.9 0.7,1.8 1.3,2.3 0.6,0.6 0.2,1.5 -0.9,1.5 -1.1,0 -2.4,0.2 -1.9,1 0.5,0.8 -0.3,1 -1.5,0.6 -1.1,-0.4 -0.5,-1.2 0,-1.7 0.5,-0.5 -1,-1 -1.7,-1.3 -0.7,-0.3 -3.4,1.8 -4.2,2.2 -0.8,0.3 -2.7,-0.5 -4.7,0 -2,0.5 -1.9,2.1 -2.6,1.9 -0.8,-0.2 -2.9,0.2 -3.7,-0.3 -0.8,-0.5 -0.2,-0.8 0.7,-0.8 0.9,0 1.2,-0.2 0.7,-0.8 0.1,-0.1 1.3,-1 1.3,-1.4 0,-0.4 -3.2,0.7 -3.7,1.1 -0.5,0.5 0,1.3 -0.5,1.6 -0.6,0.3 -0.6,-0.5 -1.2,-0.8 -0.7,-0.2 -5.4,0.9 -6.4,1.9 -0.9,1 -2.7,1.1 -2.7,1.7 0,0.6 -2.2,0.5 -3,1 -0.9,0.4 -0.3,2.1 -0.6,2.9 -0.3,0.8 -3.7,0.6 -4.7,0.6 -1,0 -1.4,-2 -2.2,-2.1 -0.8,-0.1 -0.3,-1.3 -0.1,-1.8 0.2,-0.5 0.9,-0.1 2,-0.8 1,-0.7 2.1,0.3 2.5,-0.1 0.4,-0.5 -1.6,-1.7 -1.7,-2.7 -0.1,-1 -2.3,-1.3 -3.5,-1 -1.2,0.3 -2.6,0 -3.4,-0.4 -0.9,-0.4 -0.8,0.8 0.5,1.1 1.3,0.3 0.6,1.3 0.8,2 0.2,0.7 -0.3,2 -1.1,3 -0.8,1 -0.2,1 0.9,1 1.1,0 1,1.4 1,2.5 0,1.1 -0.9,1.4 -0.9,2.2 0,0.8 -0.9,-0.4 -1.2,0 -0.3,0.3 -0.7,-0.2 -0.8,-0.8 -0.2,-0.7 -1.9,-0.3 -2.7,-0.5 -0.9,-0.2 -1.3,0.2 -1.8,0.9 -0.5,0.7 -1.8,1 -2.5,1.1 -0.8,0.1 -2,1.5 -2.7,2 -0.7,0.5 -0.9,1.5 0.2,2.5 1,1 1.2,1.7 1.2,2.2 -0.1,0.5 -2.8,0.4 -3.3,-0.2 -0.5,-0.6 -2.3,-0.8 -2.8,-0.7 -0.6,0.1 -2.5,-2.2 -3.3,-2.2 -0.9,0 -1.4,1 -1.7,1.6 -0.3,0.5 0.4,0.7 0.8,1.6 0.4,0.9 2,1 2.7,1 0.8,0 0.5,1.2 0.2,1.7 -0.3,0.5 -1.7,0.9 -2.1,0.3 -0.4,-0.5 -2.2,0 -2.2,-0.7 0,-0.7 -1.3,-1.7 -2.6,-1.5 -1.3,0.2 -1.5,-0.6 -1.5,-1.6 0.1,-1 -0.7,-1.6 -0.7,-2 0,-0.5 -0.6,-1.4 0.1,-1.8 0.7,-0.5 0.2,-1.2 0.2,-1.8 0,-0.6 -1.1,-1.6 -2.2,-1.6 -1,0 -0.8,-1 -1.7,-1.2 -0.9,-0.2 -2.6,-1.7 -2.7,-2.3 -0.2,-0.6 -1.5,-0.7 -1,-0.9 0.5,-0.2 1.5,0.1 2.2,0.8 0.7,0.7 2,1.4 3.8,1.7 1.9,0.3 2.7,1.2 4.8,1.5 2.2,0.4 3.4,0.6 6.5,1.1 3,0.5 7.2,-2.7 8.1,-3.5 0.9,-0.9 -0.2,-2.7 -0.2,-3.2 0,-0.7 -1.4,-0.8 -1.6,-1.2 -0.2,-0.5 -1.1,-1.4 -2.3,-1.4 -1.2,0 -1.4,-1.4 -2.3,-1.3 -1,0.1 -1.6,-0.4 -4,-2.1 -2.4,-1.7 -5.9,-2.8 -6.5,-2.6 -0.6,0.2 -1,0.5 -1.5,-0.2 -0.4,-0.6 -1.4,-0.5 -2,0 -0.7,0.5 -1.3,-0.5 -2.6,-0.2 -1.2,0.3 -1.9,-0.5 -1.6,-0.9 0.3,-0.4 2.2,0 2.1,-0.7 -0.1,-0.6 -0.8,0 -1.9,-0.8 -1.1,-0.8 -1.8,-0.2 -2,0.4 -0.2,0.6 -1.1,0.5 -1.7,-0.1 -0.1,-0.1 -0.1,-0.1 -0.2,-0.1 -0.2,1 -0.8,1.1 -1.4,1 -0.8,-0.2 -1.5,1.1 -2.3,1.1 -0.8,0 -1.8,0.9 -1.9,1.7 -0.2,0.8 -1.1,0.3 -1.1,0.8 0,0.5 0,1 -0.4,1.5 -0.4,0.5 0,0.8 0.4,1.6 0.4,0.8 1.3,0.8 1.8,1 0.4,0.2 2,1.6 2,2.1 0,0.5 -1.2,1.8 -1.8,2.1 -0.5,0.3 -1.2,1.2 -0.8,1.7 0.3,0.5 1.7,2.6 2.7,4.1 0.9,1.7 -0.3,0.9 -0.9,1.7 -0.6,0.8 0.2,1.7 0.4,2.2 0.2,0.5 -0.8,0.4 -0.7,0.8 0.1,0.4 1.3,0.6 1.4,0.9 0.1,0.3 -0.8,0.8 -0.4,1.4 0.4,0.7 1.4,0.7 1.5,1.5 0.1,0.8 -1.8,0.9 -1.8,1.6 0.1,0.7 2.5,1.5 3.5,2.7 1.1,1.2 1,1.6 0.8,2.2 -0.5,1.3 -3.4,2.5 -4.1,3.9 -0.7,1.5 -3.1,2.3 -4.2,3.4 -0.5,0.5 -0.9,1.1 -1.3,1.7 0.5,-0.1 0.9,-0.3 1.2,-0.4 0.7,-0.3 1.1,1.3 1.8,1.8 0.7,0.5 2,0 2.5,0.5 0.5,0.5 -0.4,0.5 -1.3,0.4 -1,-0.2 -1.2,0.4 -2.7,0.9 -1.1,0.4 -1,0.8 -1.4,1.1 0.7,1 -0.2,1.1 -0.6,1.9 -0.4,0.8 -0.9,0.9 -0.9,1.4 0,0.5 0.1,0.9 0.2,1.6 0.1,0.7 0.2,0.9 0.6,1.5 0.4,0.6 -0.4,0.6 -0.8,0.9 -0.4,0.3 -0.1,1 0.4,1.5 0.5,0.5 0.5,1.1 0.3,1.6 -0.2,0.5 0.4,1.2 0.9,1.6 0.5,0.4 0.4,1.6 0.8,1.9 0.4,0.3 0.8,0.6 1.5,0.4 0.7,-0.2 1.1,0.1 1.4,0.7 0.3,0.6 0.8,0.3 1.5,0 0.7,-0.3 2.2,0.6 2.6,0.8 0.4,0.2 0.2,1.2 0.2,1.9 0,0.7 -0.4,1.6 0.3,2 0.7,0.4 0.5,1.4 1.3,1.8 0.8,0.4 1.1,1.4 1.6,1.6 0.5,0.2 1.4,0.9 1.6,1.4 0.2,0.5 -0.9,1.1 -1.4,1.3 -0.5,0.2 -1.6,-0.8 -2,-0.3 -0.4,0.5 0.1,1.2 0.4,2.6 0.3,1.4 0.6,1.5 1.2,1.5 0.6,0 0.9,-0.4 1.3,-0.7 0.4,-0.3 1.4,0.1 1.9,-0.1 0.5,-0.2 2,-0.2 2.3,0.2 0.3,0.4 0.6,1.7 0.4,2.1 -0.2,0.4 0.3,0.9 0.6,1.6 0.3,0.7 1.6,0.3 2.1,0.5 0.4,0.2 1.4,1.6 1.2,2.2 -0.2,0.6 0.6,0.8 1.1,0.6 0.5,-0.2 0.9,0.3 1.4,0.6 0.5,0.3 0.9,0.2 1.4,-0.1 0.5,-0.3 1.3,-0.6 1.6,-0.1 0.3,0.5 1.2,1.2 1.2,1.5 0,0.3 1.6,0 2.3,0.4 0.7,0.4 1.6,0.2 2.4,0.6 0.8,0.4 1.6,0.5 1.6,1 0,0.5 -0.8,0.9 -0.8,1.2 0,0.3 0.7,0.4 0.7,0.8 0,0.4 -0.9,0.4 -1,0.7 -0.1,0.3 0.5,0.8 0.6,1.1 0.1,0.3 -0.5,1.4 -0.5,1.7 0,0.3 -1.9,-0.1 -2.3,-0.1 -0.4,0 -1.8,1.4 -2.2,1.5 -0.4,0.1 -0.2,0.7 -0.1,1.3 1.3,-0.3 2.7,-0.4 2.8,-0.1 0.2,0.5 -2.8,1.8 -3.4,2 -0.6,0.2 1.1,1.1 1.1,1.6 0,0.5 -1.8,0.6 -1.7,1.6 0.2,1 -0.6,1.2 -1.5,1.2 -0.9,0 -1.2,0.6 -0.8,0.7 0.5,0.1 0.4,1.3 2.2,1.8 1.8,0.5 3.6,2.1 5.1,3.7 0.2,0.2 0.5,0.4 0.7,0.6 0.4,-0.3 0.8,-0.5 1.1,-0.5 0.9,-0.1 2.5,0.4 3.3,1 0.9,0.6 3.9,-0.1 4.3,0.4 0.4,0.5 1.1,1.1 1.8,1.1 0.7,0 1.2,1.2 1.8,0.9 0.6,-0.3 2.4,-0.4 2.8,-0.4 0.5,0 0.5,0.4 1,0.4 0.5,0 0.5,1.9 0.9,1.8 0.4,-0.1 1.7,1.1 2.6,1.2 0.9,0.1 1.8,1.6 2.1,1.5 0.3,-0.1 1,0.6 1.2,0 0.2,-0.6 1.5,-0.3 1.8,-1.3 -1.6,-1.9 -3.2,-4 -3.1,-4.8 0.1,-1.4 0.7,-2.3 -1.1,-3.7 -1.8,-1.5 0.2,-2.5 1.4,-4 1.1,-1.4 3.4,-2 4.9,-2.9 -0.3,-0.2 -0.6,-0.4 -0.9,-0.5 -1.1,-0.5 -1.5,-1 -0.6,-1.2 0.9,-0.2 0.5,-0.8 -0.4,-1.8 -0.9,-1 -1.2,-2 -1.8,-2 -0.6,0 -1.2,-0.1 -2,0.1 -0.8,0.2 -0.6,-0.6 -0.5,-1.5 0.1,-0.9 -1.4,-0.8 -1.6,-1.1 -0.2,-0.3 0.4,-1.6 0.6,-1.8 0.2,-0.2 1,-0.5 1,-0.9 0,-0.4 -1.4,-0.5 -0.9,-1.4 0.5,-0.9 1.5,-0.9 1.5,-1.8 0,-0.9 0.8,-1.6 1.6,-1 0.8,0.6 1.2,2.2 2.2,1.9 1,-0.3 0.4,-1.2 0.2,-1.8 -0.2,-0.6 -0.4,-1.2 0.8,-1.5 1.2,-0.3 0.6,-1.4 1.5,-1.4 0.9,0 2.5,-1.1 2.9,-1.4 0.5,-0.3 1.6,-0.9 2.1,-0.6 0.5,0.3 1.1,0.9 1.5,0 0.4,-0.9 1.9,-0.5 2,0 0.1,0.5 2.5,0.5 3.1,1 0.6,0.5 2.4,1.5 2.4,2 0,0.5 0.8,1.2 0.8,0.4 0,-0.8 0.6,-0.6 1.6,0 1,0.6 2.4,0.4 2.6,-0.2 0.2,-0.6 2.1,-1.4 2.7,-0.9 0.6,0.5 0.9,0.9 1.6,0.1 0.7,-0.8 2.5,-0.6 2.7,0.1 0.3,0.7 1.1,0.9 1.9,0.9 0.8,0 0.9,1.1 1.4,0.9 0.5,-0.2 0.4,-1.5 1,-1.4 0.6,0.1 1.1,0.9 2.1,0.9 1,0 1.8,-0.2 1.8,-1 0,-0.8 -0.1,-2 -0.8,-2 -0.7,0 -1.2,-0.6 -2,-0.6 -0.8,0 -1.5,-1.2 -0.8,-1.5 0.7,-0.3 2,-0.9 1.8,-1.5 -0.2,-0.6 -0.5,-1.9 0.5,-2 1,-0.1 3,-0.1 2.9,-0.5 -0.1,-0.4 -2.1,-0.6 -2.5,-1.2 -0.4,-0.6 -0.5,-2.1 -0.1,-2.4 0.4,-0.3 1.6,0.1 2.4,-0.1 0.8,-0.2 2.4,0.4 3.3,-0.4 0.9,-0.8 3,-0.9 4.1,-0.9 1.1,0 2,-0.8 2.8,-0.9 0.9,-0.1 3.3,-0.5 3.9,-0.8 0.6,-0.3 3.9,-0.8 4,-1.4 0.1,-0.6 2.7,-1.1 3.4,-0.8 0.7,0.3 1.6,0.6 2.2,0.3 0.6,-0.3 1.9,0.4 1.8,1.1 -0.1,0.7 0.6,1.4 0.5,2 -0.1,0.6 -0.7,0.8 -0.3,1.2 0.4,0.4 2.1,0.1 2.6,-0.4 0.5,-0.5 1.1,0.2 1.1,0.7 0,0.5 0.8,0.8 0.8,0.2 0,-0.6 1,-0.2 1.3,0.2 0.3,0.4 1.5,-0.4 1.5,0.2 0,0.6 -1.8,1.1 -1,1.8 0.8,0.7 1.2,-0.8 2.1,-0.5 0.9,0.3 2.2,-1.1 3,-1.2 0.9,-0.1 1.8,-1 2.6,-1.4 0.8,-0.4 2.4,-0.3 1.9,0.2 -0.5,0.5 -1.1,1.4 0.8,2.1 1.9,0.7 3.9,4.2 5.1,6 1.2,1.8 2.3,5 2.8,5 0.6,0 0.8,-1.6 1.6,-1.8 0.8,-0.2 1.3,1.4 2.2,1.6 0.9,0.2 2.1,0.7 2.7,0.4 0.7,-0.3 2.2,-1.1 2.7,-0.8 0.6,0.3 1.3,0.3 1.8,1.5 0.5,1.2 1.2,1.4 1.8,1.4 0.6,0 0.6,0.6 0.6,1.1 0,0.5 0.9,1.2 1.4,1.2 0.5,0 1.8,-0.2 2.2,-0.4 0.4,-0.2 0.9,-0.5 1,0.1 0.1,0.6 0.8,1.5 1.3,1.5 0.5,0 1.5,0.4 1.6,0 0.1,-0.4 1.4,-0.7 1.9,-0.8 0.5,-0.1 2.2,-0.4 2.6,-1.2 0.3,-0.8 1.8,-0.8 2.2,-1.2 0.4,-0.5 1.6,-0.8 1.8,-1.2 0.2,-0.4 1.8,-0.4 1.9,-0.8 0.2,-0.4 1.4,-0.5 2,-0.3 0.6,0.2 3.4,0.8 3.8,0.7 0.4,-0.1 0.5,1.5 0.9,1.6 0.4,0.1 1.9,1.2 2.3,0.9 0.4,-0.3 1.4,-0.7 2.2,-0.2 0.8,0.5 1.7,1.2 2,0.6 0.3,-0.6 2.1,-0.8 2.3,-1.2 0.2,-0.3 0.5,-1.3 0.1,-1.7 -0.4,-0.3 -0.8,-1.7 -1,-2.3 -0.2,-0.7 1,-0.8 1.2,-1.4 0.2,-0.6 1.2,-0.7 1.5,-1 0.3,-0.3 0.4,-1.1 1,-0.9 0.6,0.2 1.8,0.6 2.1,0.8 0.3,0.2 1.2,0.4 1.8,0.4 0.6,0 1.5,0.5 2.1,0.8 0.6,0.3 2.4,0.3 2.7,0.8 0.3,0.5 -0.1,1.9 0.3,2.4 0.4,0.5 1.4,1.6 1.8,1.3 0.3,-0.2 1.9,0.8 2.5,0.8 0.6,-0.1 1.5,-1 2,-1 0.5,0 2.1,-0.4 2.6,-0.3 0.5,0.1 2.3,0.8 2.6,0.6 0.2,-0.2 1.9,0.1 2.2,0.6 0.3,0.5 2.3,0.5 2.3,1.1 0,0.6 1.2,0.9 1.5,1.6 0.3,0.7 3,0.3 3.5,0.7 0.5,0.4 3.6,0.3 3.7,0 0.1,-0.3 3,-0.5 3.6,-0.9 0.6,-0.4 2.2,-0.2 2.2,-0.8 0.1,-0.6 1.6,-1 2.2,-1.5 0.7,-0.5 3.2,-0.4 3.4,0.2 0.2,0.6 1.8,0.8 2.4,0.5 0.7,-0.2 2.4,0.1 2.7,0.7 0.2,0.6 2.2,0.9 2.7,0.8 0.5,-0.2 2.1,-1.3 2.7,-1.4 0.6,-0.1 1.4,-0.7 1.2,-1.2 -0.2,-0.6 1.2,-2.2 1.3,-2.8 0.2,-0.7 1.3,-2.5 1.8,-2.7 0.4,-0.2 1.3,-0.9 1.2,-1.4 -0.1,-0.5 -0.3,-2 -0.8,-2 -0.5,0 -1.4,0.1 -0.2,-1.5 1.2,-1.6 3.1,-1.2 3.5,-1.2 0.3,0 2.9,-0.7 4.1,-0.3 1.2,0.3 1.9,-0.2 3.1,0.5 1.2,0.7 2.9,0.4 3.3,1 0.4,0.6 2.1,1.1 1.8,2.1 -0.3,1 0.9,0.4 1.3,2.6 0.4,2.2 1.4,2.3 1.7,3.2 0.3,1 1.6,2.7 1.4,3.3 -0.2,0.6 -0.3,1.5 1.1,1.6 1.4,0.1 2.4,1.2 2.7,1 0.3,-0.2 2,0.4 2.7,1.2 0.8,0.8 2.1,0.4 2,1.3 -0.1,0.9 0.7,1.7 0.6,2.4 -0.1,0.8 1.6,1.2 2.7,1.1 1.2,-0.2 2,0.4 2.5,-0.6 0.5,-1 2.2,-0.6 2.7,-1 0.6,-0.4 2.3,-0.9 2.2,0.6 -0.1,1.5 0.9,1.8 0.1,2.3 -0.8,0.5 -1.2,2.7 -1.5,3.5 -0.2,0.9 -1.5,1.2 -1.7,2.2 -0.2,1 -1.3,1.1 -1.3,1.8 0,0.7 -1.7,0.6 -2.5,0 -0.8,-0.6 -1.7,1.1 -2.3,1.1 -0.7,0 -0.6,1.4 -0.4,2 0.2,0.6 -0.2,1.3 0.2,2.3 0.2,0.5 0.1,1.6 0.2,2.7 1,-0.7 1.9,-1.3 2.3,-1.3 1,0 2.1,1.8 3.1,1.8 1.2,0 6.4,-3.4 6.4,-4 0,-0.6 3,-3.4 4.5,-5 1.5,-1.5 3.3,-3.7 4,-5.4 0.5,-1.1 2.5,-3.1 2.9,-3.9 0.5,-0.8 0.8,-0.9 1.8,-2.8 0.9,-2 0.9,-7 1.2,-7.3 0.3,-0.3 0.1,-1.2 0.5,-1.8 0.4,-0.5 0.2,-1.3 1,-2 0.8,-0.7 0.7,-1.3 0.5,-1.9 -0.2,-0.5 0,-1.8 -0.2,-2.1 -0.2,-0.4 -0.2,-0.5 0.3,-0.8 0.5,-0.3 -0.3,-1 -1,-1.4 -0.7,-0.3 -1.6,-0.6 -1.7,-1.4 -0.1,-0.8 -1.3,-1.8 -2.2,-1.7 -0.9,0.1 -2.6,-0.5 -2.4,0.1 0.2,0.6 -0.1,1.1 -0.5,1 -0.5,-0.1 -0.7,0.2 -1.2,1.1 -0.5,0.8 -2.5,0.9 -1.6,0.1 0.9,-0.8 -0.3,-0.8 -0.1,-1.7 0.2,-0.8 0.9,-1.7 -0.1,-1.1 -1,0.5 -1,1.8 -1.8,2 -0.8,0.2 -0.5,-2.2 -0.3,-2.8 0.2,-0.6 -1.5,0 -3.1,-0.1 -1.7,-0.1 -1.3,-1.3 0.1,-2.1 1.4,-0.8 1.2,-1.5 1.9,-1.8 0.7,-0.3 2.5,-1.5 3.5,-2.1 1.1,-0.6 1.3,-1.3 1.5,-2 0.2,-0.7 2.2,-1.6 3.9,-2.9 1.8,-1.5 2.7,-2.3 3,-3.1 0.4,-0.9 3,-2 3,-2.6 0,-0.7 3.1,-2.3 5.2,-2.7 2.1,-0.4 5.4,0.1 6,0.8 0.6,0.7 1.1,0.4 1.5,0 0.4,-0.4 1.2,-0.2 2.6,0 1.4,0.2 1.8,-0.7 2.7,-0.4 1,0.3 1.8,0.5 2.3,-0.7 0.6,-1.1 3.2,-0.9 3.9,-0.5 0.6,0.5 1.1,1.1 2.1,0.4 1,-0.7 1,0.9 2,1 1,0.1 0.3,1 -0.5,0.9 -0.8,-0.1 -1.9,0.4 -0.9,1 1,0.5 2.1,-0.5 2.7,-0.4 0.8,0.1 1.9,0.2 2.9,-0.5 1,-0.7 1.3,0.5 2,0 0.7,-0.6 2.2,-0.8 2.8,-0.7 0.8,0 0.1,-0.9 -1.1,-0.9 -1.2,0 -1.2,-0.7 -0.2,-2.4 1,-1.7 2.8,-2.6 4,-3.6 1.2,-1 2.1,-0.5 2.1,-1.2 0,-0.7 0.6,-2.5 1.5,-2.6 0.9,0 3.1,0.4 4.5,-0.4 1.4,-0.8 1.3,0.6 1.9,0.8 0.6,0.2 1.4,-1.2 2,-0.8 0.7,0.4 -1,1.4 -1.4,2.6 -0.4,1.2 0.9,0.8 1.6,1.1 0.7,0.3 -0.9,0.8 -0.8,1.2 0.2,0.3 1.6,0.3 3.3,-1.5 1.8,-1.8 3.4,-2.3 4.6,-2.2 1.2,0.1 0.5,-1 0.6,-2.7 0.1,-1.7 3.6,-2.2 4.7,-1.7 1.2,0.5 1.1,1 0,0.7 -1.1,-0.3 -2.2,0.7 -2.1,2.1 0,1.4 -1,1.9 -0.5,2.4 0.5,0.5 -0.8,0.7 -0.8,1.2 0,0.6 0,1 -0.8,1.3 -0.8,0.2 -3.5,0.5 -3.6,1.6 -0.1,1.1 -1.6,1.2 -2.3,2.5 -0.7,1.3 -3.3,2.1 -5.1,4.7 -1.8,2.6 -4.5,2.7 -4.5,3.1 0,0.5 -2,0.5 -2.6,0.5 -0.7,0.1 0.6,1.7 -1,3.3 -1.6,1.7 -2.6,4 -2.6,6.4 0,2.4 0.8,9 1.5,10.2 0.7,1.2 0.3,4.1 0.9,4.7 0.6,0.6 0.4,1.7 0.8,2 0.4,0.3 1.9,-1.7 2.9,-2.5 1,-0.9 0.7,-1.2 1.4,-1.6 0.7,-0.5 0.4,-2.4 0.6,-2.8 0.2,-0.4 1.5,-0.8 1.9,-1.3 0.4,-0.5 1.5,-0.2 2.1,-0.4 0.6,-0.2 0,-1.6 -0.2,-2.4 -0.2,-0.8 1.7,-1.9 2.7,-2.6 1,-0.7 2.2,0.5 3.3,-0.6 1.1,-1 -0.1,-2.2 -0.5,-2.7 -0.4,-0.5 1.1,-3.1 2,-3.3 0.9,-0.2 1.3,0.6 2.2,-0.1 0.8,-0.8 -0.8,-2 -1.3,-1.9 -0.6,0.1 -0.8,-2.1 0.6,-3.1 1.4,-1 0.8,-1.2 -0.1,-1.5 -0.9,-0.2 -1.1,0.1 -1.8,0.1 -0.7,0 -1.4,-1.5 -0.3,-2.8 1.1,-1.5 2.1,-1.3 2.4,-2.5 0.2,-1.2 1.8,-2.8 2.1,-3.4 0.3,-0.6 1.9,0 2.5,-0.1 0.6,-0.1 0.4,1.1 1.1,0.5 0.7,-0.6 1.9,-2.7 2.7,-2.7 1,0 0.3,1.5 0.6,2.5 0.2,0.9 0.8,-0.2 2.6,-1.5 1.8,-1.2 5.7,-1.1 6.9,-0.5 1.2,0.6 1.4,2 2.1,1.8 1,-0.3 0.2,-1.4 1.2,-1.7 1,-0.3 2.7,-1.3 4,-2.3 1.3,-1 1,-0.2 1.7,-1.1 0.7,-0.9 1.4,-0.5 1.6,-1.1 0.2,-0.6 2.1,-1.5 4.7,-2.1 2.6,-0.6 5.9,-2.3 5.8,-2.8 -0.2,-0.5 1,-0.8 1.1,-0.2 0.1,0.5 1.1,0.3 2.5,0.6 1.4,0.3 2,0.8 3,-0.2 1.1,-1.1 -0.1,-1.5 -0.1,-2.3 0,-0.8 -1.9,-1.7 -1.6,-2.6 0.3,-0.9 -1.4,-3.1 -1.9,-2.7 -0.5,0.5 -1.7,-0.4 -1.7,-1 0,-0.7 -0.1,-1.5 -0.9,-1 -0.8,0.5 -2.1,0.2 -2.4,-0.5 -0.3,-0.7 1.5,-1.3 2.7,-0.8 1.3,0.5 0.9,1 1.5,1.4 0.6,0.4 2.3,0.2 3.1,-0.2 0.9,-0.4 3.2,-1.2 3.7,-1.9 0.4,-0.7 0,-1 0.8,-1.5 0.8,-0.4 0.2,-1.3 -0.5,-1.7 -0.7,-0.4 -0.5,-1.4 0.2,-1.4 0.7,0 0.5,-0.9 1,-0.9 0.5,0 0.6,0.4 1.5,-0.1 0.9,-0.5 0,0.7 -0.4,1.5 -0.4,0.8 0.9,1.5 1,1.9 0.1,0.5 1.9,0.6 2.8,0.1 1,-0.5 4.1,0.7 4.3,1.5 0.2,0.8 0.7,1.8 2,2.4 1.3,0.7 2.5,0.4 2.7,1 0.3,0.6 0.8,1 1.5,0.8 0.8,-0.2 1.2,0.7 1.7,0.2 0.5,-0.5 0.8,0.3 1.5,-0.3 0.7,-0.6 -1.5,-1 -1.2,-1.5 0.3,-0.5 0.8,0.4 1.4,0.3 0.6,0 -0.2,-1.2 0.3,-1.4 0.5,-0.1 0.1,-2.6 -0.4,-2.7 -0.5,-0.2 -0.1,-1 0.9,-0.3 1,0.7 2.5,0.7 3.1,0.7 0.7,0 0,-0.7 -0.7,-0.8 -0.7,-0.1 0.1,-0.7 0.6,-0.2 0.5,0.5 1.5,0.7 1.5,0.2 0.1,-0.5 0.6,-1.6 1.5,-1.5 -0.7,-1.2 -0.5,-1.7 -1.3,-2 z M 327,244.7 c -2.4,2.1 -7,2.6 -7,4.3 0,1.8 -5.7,2.6 -6.1,1.9 -0.4,-0.7 4.1,-0.9 5.3,-3.3 1.2,-2.4 5.3,-3.7 7.4,-7 1.5,-2.4 2.7,-5.9 3.5,-5.7 0.8,0.2 -0.8,7.8 -3.1,9.8 z m 10.4,-96.1 c -0.3,0.7 -2.1,0.7 -1.7,1.3 0.8,1.1 4.9,0.5 5,-0.8 0.1,-1.3 -2.9,-1.2 -3.3,-0.5 z m -149,-40.4 c 2,0 1.4,-1.2 2.7,-1.1 1.3,0.2 3,0.1 2.4,-0.8 -0.7,-0.8 -5.4,-0.5 -4.9,0.2 0.5,0.7 -3.8,0.4 -3.7,0.7 0.1,0.5 1.6,1 3.5,1 z m -10.2,5.5 c 0,-1.3 -4.2,0.1 -3.4,0.4 0.8,0.3 3.4,0.9 3.4,-0.4 z m 10.6,-1.1 c 0.2,0.7 -0.4,0.8 -2.1,0.8 -1.7,0 -2.5,0.9 -1.7,1.7 1,0.8 5.3,0.5 6.1,-0.5 0.8,-1 2.7,-0.2 2.9,-1.2 0.2,-1 -5.5,-1.4 -5.2,-0.8 z m 14,-1.5 c 0.6,-0.8 -1.1,-0.8 -1.2,-1.5 -0.1,-0.7 -4.7,-0.9 -4.5,-0.1 0.2,0.8 -3.1,1.7 -2.2,2.6 2,1.5 7.4,-0.3 7.9,-1 z m -13,-1.4 c 0.2,-1.8 -2.7,-0.3 -4.7,-1.2 -2.2,-0.9 -3.3,-0.8 -2,0.4 0.7,0.6 -3.6,1 -2.9,1.8 1.5,1.5 9.3,0.8 9.6,-1 z m -12.2,45.5 c 0.1,0.8 -0.4,1.4 -2,1.4 -1.6,0 0.8,1 0.9,1.9 0.2,0.9 -1.6,0.2 -1.7,1.7 -0.1,1.4 -3,0 -3.4,1.8 -0.4,1.8 1.5,1.6 2.7,1.7 1.3,0.1 -0.5,1.3 0.5,2.1 1,0.8 1.8,0.5 1.1,-0.9 -0.7,-1.4 3.4,0.5 2.2,1.6 -1.2,1.1 2,1.9 3.5,2 1.6,0.1 7.1,1.3 7.2,0 0.1,-0.8 -2.1,-1.6 -3.7,-3.3 -1.8,-1.8 -2.9,-4.7 -1,-6 2,-1.3 0.2,-1.8 2.2,-3.1 2,-1.4 0.8,-2.7 2.5,-2.8 1.7,-0.2 -0.2,-1.7 1.5,-1.9 1.7,-0.2 2,-2.1 1.8,-2.7 -0.2,-0.7 1.8,0.1 2.7,-0.9 0.9,-1 3,-0.3 3.7,-1.8 0.7,-1.4 10,-4.6 15.4,-5.8 5.3,-1.2 9,-3.4 7.2,-4.9 -1.9,-1.5 -7.2,0.6 -8.5,1.7 -1.3,1.1 -3.1,0.3 -4.5,1.1 -1.3,0.8 -4.1,1.4 -5.5,0.5 -1.4,-0.9 -3,1.1 -4.1,1 -1.1,-0.1 -2.3,1.1 -3.4,1 -1.1,-0.1 -3.4,0.9 -3.6,1.6 -0.2,0.7 -2.2,0.5 -2.2,1.3 0,0.8 -1.6,1.6 -2.4,0.8 -0.8,-0.8 -1.8,0.8 -0.7,1.9 1.2,1.1 -2.2,1.2 -1.6,1.8 0.6,0.7 -1.2,1.1 -0.8,1.8 0.4,0.8 -1.2,1 -2.4,1.2 -1.2,0.2 -1.9,1.9 -0.3,2 1.6,0.1 -0.9,0.3 -0.8,1.6 0.1,0.6 -2.6,-0.3 -2.5,0.6 z"/>
    </g>
    <path d="m 69.549179,164.69655 c -0.4,0.2 -1.4,-0.2 -1.7,-0.6 -0.2,-0.4 -1,-0.2 -1.7,-0.2 0.2,0.1 0.3,0.2 0.4,0.4 0.4,0.7 -1.5,0.8 -0.9,1.5 0.6,0.8 -1.3,0.8 -1.3,0 0,-0.8 -2,-0.4 -1.9,0.1 0,0.2 0,0.4 -0.2,0.7 0.5,0.2 1.2,0.4 1.4,0.5 0.4,0.2 5.3,0.7 7.2,0.3 -0.1,-0.4 0.1,-1.5 0.1,-1.9 0.2,-0.4 -1,-1 -1.4,-0.8 z m 118.500001,-126.1 c 3.1,-0.3 3,-2.1 1.4,-2.4 -1.6,-0.3 -1.9,1 -2.7,0.9 -0.8,-0.1 -3.9,0.5 -3.2,1.2 0.6,0.9 2.9,0.5 4.5,0.3 z m 15.8,45.6 c 1.1,0.2 3.9,-0.4 4.2,-1 0.3,-0.6 -1.2,-1.2 -3,-1.2 -1.9,-0.1 -2.1,2 -1.2,2.2 z m 60.4,-41.8 c 1.6,0.7 1,1.1 -0.7,1.1 -1.7,0 -3,0.6 -2,1 0.8,0.3 0.8,1.2 2.5,1.7 1.8,0.4 3.4,-1 3.2,-2 -0.2,-1 6,-1.9 7.7,-2.3 1.7,-0.4 -1.1,-2.2 0.8,-2.3 1.8,-0.2 1.1,-1 -1.2,-1.3 -2.2,-0.3 -1.3,-2.2 -2.1,-2.8 -0.8,-0.7 -1.2,0.8 -4,1.4 -2.8,0.6 -4.2,1.3 -3.1,1.9 1.2,0.6 0,2 -1.2,1.9 -1.1,-0.3 -1.4,1 0.1,1.7 z m 4.4,2.2 c 0,0.9 -2.7,1.8 -1.9,2.5 0.7,0.6 1.2,0.4 2.1,0.6 0.8,0.2 1.2,2.2 2.7,1.9 1.5,-0.3 5.5,1.7 7.9,1.7 2.4,0 2.7,-2 1.9,-2.1 -0.8,-0.1 -0.1,-1.2 1.2,-3.1 1.3,-1.9 -4.1,-3.2 -4.1,-1.8 0,1.4 -1.6,-0.3 -2.1,-1.2 -0.6,-1 -7.7,0.6 -7.7,1.5 z m -41,40.8 c 1.3,0.7 2.3,0.4 2.2,-0.9 -0.2,-1.3 -3.2,0.4 -2.2,0.9 z m 34.5,-48.8 c 0.3,-1.2 -5.1,-0.7 -3.7,0.5 0.5,0.4 3.4,0.6 3.7,-0.5 z m 240.8,59.3 c 1.7,0.8 2.7,-1 3.9,-0.1 1.3,0.9 4.5,-0.4 5.8,-0.7 1.3,-0.2 0.7,-1.9 -3,-2.4 -3.7,-0.5 -8.5,2.3 -6.7,3.2 z m -221.7,-39.7 c 1.2,0.7 4.8,-0.8 7.3,-0.8 2.5,0.1 9.3,-1.9 9.6,-3.1 0.2,-1.3 -2.6,-1.2 -3.6,-2.4 -1.1,-1.2 -3.4,-0.2 -4,0.8 -0.6,1 -1.2,0.1 0.3,-1.5 1.6,-1.6 -1.6,-2.7 -1.7,-1.8 -0.1,1 -2.9,0.2 -2.9,1.1 0,0.9 -1.1,1.3 -1,2.2 0.1,0.9 -2,-0.5 -2.1,1.6 0,2 -3.1,3.2 -1.9,3.9 z m 105.6,16.8 c 1.2,0.6 1.6,1.2 2.2,1.8 0.7,0.7 3.1,-0.3 4.1,-0.7 1,-0.3 1.1,1.5 2.7,0.5 1.6,-1 3.1,-0.5 4.9,-0.5 1.8,0 -0.3,-2.2 -0.2,-3.1 0.1,-1 2.2,-0.3 1.5,0.5 -0.7,0.8 1,2.7 3.6,2.6 2.7,-0.2 0.7,-1.8 2,-2.4 1.3,-0.6 1.2,-1.2 -0.8,-2.4 -1.9,-1.2 -4.3,-0.4 -6,-1.2 -1.8,-0.8 -3.8,-0.8 -3.9,1 -0.1,1.8 -3.5,-2 -5.3,-2.6 -2,-0.5 -7.5,5.2 -4.8,6.5 z m 17,10.5 c 1.5,-0.3 -1.1,-3 -3.6,-3.4 -2.6,-0.4 -4.9,1.7 -4.6,2.2 0.9,1 6.8,1.5 8.2,1.2 z m -6.4,-5.4 c 0,-1.2 -4.4,0.5 -2.7,1.1 1,0.3 2.7,0.2 2.7,-1.1 z m 14.2,-5.1 c 2,0.2 2.9,2.1 6.7,2.3 3.7,0.2 6.6,-0.5 6.7,-1.3 0.1,-0.8 -3.4,-2.1 -4.5,-1.4 -1.1,0.7 -1.9,-1.1 -3.1,-0.7 -1.3,0.4 -3.1,0.3 -3.7,-0.8 -0.9,-1.1 -3.1,1.8 -2.1,1.9 z m -273.3,-33.3 c 1.9,-1.8 4.3,-0.1 4.7,-0.9 0.3,-0.8 -3.5,-1.1 -4.9,-0.3 -1.4,0.8 -4.6,0.1 -4.2,1.1 0.1,0.5 2.4,1.9 4.4,0.1 z m 265,138.3 c -0.9,-2.4 1.3,-4.7 -0.3,-5.9 -1.7,-1.2 -1,-3.7 -1.8,-3.2 -0.8,0.5 0,2.7 -1.3,2.8 -1.3,0.2 -0.1,1.4 -0.6,3 -0.5,1.7 0.2,4 0.9,5.5 0.7,1.5 -0.9,9.3 -0.2,10.6 0.7,1.3 -1.1,7.1 -0.5,7.8 1,1.2 0.3,-1.6 1.8,-1.8 1.5,-0.2 1.5,1.7 2.4,2.1 0.9,0.4 0.3,-2.7 -0.5,-2.5 -0.8,0.2 -1.5,-2 -1.9,-3.2 -0.4,-1.3 0.8,-2.8 0.8,-4.5 0,-1.7 2.1,-1.6 3.2,-0.3 1.2,1.3 1.4,0.4 0.9,-0.5 -0.5,-1 -2.1,-7.5 -2.9,-9.9 z m -257.4,-139 c 1.2,0.8 -3.1,0.6 -3.7,1.4 -0.6,0.8 -3.1,0.5 -2.7,1.5 0.5,1 4.6,1.1 4.6,0.2 0,-0.8 2.2,-0.1 2.2,-0.8 0.1,-0.8 1,-1.6 3.2,-1.8 2.3,-0.2 2.3,-1 0.2,-2 -2.1,-0.8 -4.9,0.6 -3.8,1.5 z m -3.5,66.1 c 2.2,2.1 4.1,-0.9 5.1,-1.1 1.1,-0.2 -0.7,-1.3 -2.5,-1.8 -1.7,-0.4 -4.3,1.3 -2.6,2.9 z m 391.9,13.9 c -0.8,-0.3 -3.4,-2 -4.1,-2.9 -0.7,-1 -3.8,-1.4 -3.8,-0.9 0,0.5 -1,-0.1 -1.3,-0.7 -0.2,-0.5 -3.5,-0.6 -3.6,0 0,0.6 0.8,0.6 1.3,1.3 0.5,0.7 -0.7,1 -0.4,1.8 0.3,0.8 -1.2,-0.4 -1.8,-0.8 -0.5,-0.4 -0.3,-2 -0.1,-2.8 0.2,-0.8 -1,-0.7 -1.1,-1.5 -0.1,-0.8 -3.8,-2.5 -5.4,-3.1 -1.6,-0.7 -3.5,-1.2 -4.1,-2.1 -0.5,-0.8 -3.3,-0.9 -4.4,-2 -1.1,-1.1 -5.7,-3 -7.8,-3.1 -2,-0.1 -1.6,-1.2 -2.6,-1.1 -1,0.2 -5.2,0 -6.5,-0.2 -1.3,-0.2 -1.6,0.8 -2.6,0.4 -1,-0.4 -5.8,-2.2 -6.4,-1.5 -0.6,0.7 -0.3,1.6 -0.9,1.8 -0.6,0.2 0,1 1.4,2.2 1.4,1.2 0.5,2.2 -0.7,2.7 -1.2,0.5 -3.1,-0.5 -3.8,-1.5 -0.6,-1 -2.3,-0.5 -2.7,-1.8 -0.4,-1.2 0.5,-1.5 1.3,-0.8 0.8,0.7 2,0.1 2.1,-0.8 0.1,-0.9 -2.2,-1.5 -3.4,-1.5 -1.3,0.1 -2,1.9 -3.2,2.6 -1.3,0.8 -6.4,-0.3 -6.9,-0.8 -0.5,-0.5 -7.7,0 -8.3,0.5 -0.7,0.5 -0.2,2.5 -0.6,2.6 -0.4,0.2 -0.8,-2.2 -0.8,-2.7 0,-0.5 -0.9,-0.8 -2.2,-0.8 -1.3,0 -2,0 -1.5,-0.6 0.5,-0.5 -0.5,-1.1 0.5,-1.8 1,-0.7 -1.8,-2.8 -4.5,-3.9 -2.7,-1.1 -8.8,-0.5 -10.5,0 -1.7,0.5 -4.9,0.3 -6.5,0.4 -1.6,0 -0.3,-0.6 -0.8,-1.4 -0.5,-0.8 -3.1,-1.7 -3.4,-1 -0.3,0.7 -1.1,0 -1.1,-0.5 0,-0.5 -2.5,-1.4 -3.4,-1.2 -1,0.2 -1.5,-0.9 -0.3,-0.9 1.2,0 3.1,0.2 2.3,-1.1 -0.9,-1.3 -8.2,-1.8 -8.9,-1.5 -0.7,0.2 0,1.2 -1.7,2.7 -1.6,1.5 -3.1,0.5 -2.9,-0.2 0.2,-0.8 2.2,-0.6 2.2,-1.4 0,-0.8 -2.7,-0.3 -3.1,-1 -0.4,-0.6 0.6,-1 1.6,-0.8 1,0.3 2.7,0.5 2.7,0 0.1,-0.5 -1,-0.5 -2.7,-0.8 -1.7,-0.3 -5.6,-1.2 -7.7,-1 -2.1,0.2 -3,-0.8 -4.1,-0.9 -1.2,-0.1 -1.2,0.6 -0.6,1.3 0.5,0.7 -1.1,1.1 -2.5,0.9 -1.4,-0.2 -3.3,0.8 -2.6,1.8 0.8,1 1.6,-0.3 2.2,0 0.7,0.3 -1.8,1 -0.8,1.5 1,0.5 0.8,1.4 0.9,1.9 0,0.5 -1.7,0.8 -2.3,0 -0.6,-0.8 -1.5,-0.1 -2.7,-0.2 -1.2,-0.1 -2,0.5 -0.8,0.6 1.2,0.2 1.7,1 0,1.1 -1.7,0.2 -1.2,-1.5 -2.2,-1.3 -1,0.2 -3.1,-0.8 -4.2,-0.8 -1.2,0 -1.7,1 -3.1,1.1 -1.5,0.1 -3.5,-0.8 -4.1,-1.6 -0.6,-0.8 -0.8,-1.1 -1.6,-0.1 -0.8,1 -0.8,2.7 -1.5,2.8 -0.7,0.1 -1,1.8 -1.8,2.2 -0.8,0.4 -0.8,-0.6 -1.8,-0.5 -1,0.1 -3.9,-2.8 -4.1,-3.7 -0.2,-0.9 -2.1,-2.5 -2.6,-2.8 -0.5,-0.3 0.5,-0.5 1.1,0 0.6,0.5 1.4,0.5 2,0.2 0.6,-0.3 0.5,-1.9 -0.5,-1.9 -1.1,0 -0.7,-1 -0.1,-1.1 0.5,-0.2 -1.2,-1.8 -0.6,-2 0.7,-0.2 0.4,-0.9 -0.5,-1 -0.9,-0.1 -1.9,-0.9 -1.9,-1.3 0,-0.5 -3.8,-0.6 -3.7,0 0.2,0.7 -1.2,0.5 -1,-0.1 0.2,-0.5 -1.4,-0.4 -3.1,-0.9 -1.8,-0.5 -1.9,-1.8 -2.5,-1.9 -0.6,-0.1 -0.4,1.8 -1.3,1.4 -0.9,-0.4 -1.9,0.4 -1.4,1.5 0.5,1.1 0,1.2 0,2.1 -0.1,0.9 -0.6,0.5 -1.7,0.1 -1.1,-0.4 -1.1,0.9 -3.3,0.3 -2.3,-0.6 -3.3,0 -3.7,-0.7 -0.4,-0.8 -1.1,-0.8 -1.2,-0.2 -0.1,0.6 -3.6,0.4 -3.9,-0.5 -0.3,-0.9 0.6,-1.1 1.2,-1.3 0.5,-0.2 -0.6,-0.6 -2.5,-0.5 -2,0.1 -3.1,-1 -5.1,-0.8 -2,0.2 -6.4,0.6 -7,0.9 -0.6,0.3 0.6,1.4 -0.4,1.5 -1,0.1 -0.3,-1.8 -0.5,-2.7 -0.2,-0.9 -1.6,-1 -1.4,-0.3 0.2,0.7 -2.3,1 -2.8,0.4 -0.6,-0.5 -1.6,-1.2 -3.1,-1.7 -1.6,-0.4 -3.5,1.3 -3.1,1.8 0.5,0.5 1.7,0.1 1.7,0.5 0.1,0.7 -3.4,0.4 -3.4,1 0,0.6 -3.2,1.4 -4.2,1.5 -2.7,0.3 -3.2,0.3 -4.5,1.4 -1.3,1.1 -0.3,-1 0.7,-2 1,-1 2,-0.6 2.6,-1.4 0.6,-0.8 1.5,-0.7 3,-1 1.6,-0.2 1.5,-1.2 2.2,-1.5 0.8,-0.3 2.6,-1 2.8,-1.8 0.3,-0.8 4,-2 4.7,-2 0.8,0 0.9,-1.5 1.3,-1.5 0.4,0 2.6,-1 3.3,-1.3 0.8,-0.4 1.2,-1.2 1.3,-1.7 0,-0.5 -1.1,-0.5 -1.2,-1 -0.1,-0.5 0.5,-0.2 1.4,-0.5 0.9,-0.3 0,-1.5 -0.7,-1.3 -0.7,0.2 0.4,-0.6 -0.2,-1.4 -0.6,-0.8 -1.9,0.5 -1.8,-0.3 0,-0.8 -0.1,-1.8 -0.6,-2.3 -0.5,-0.5 -1.4,0.9 -2.5,0.1 -1,-0.8 -4,-1.3 -4,-1 0,0.3 -1.5,-0.5 -1.8,-0.2 -0.3,0.3 -2.7,0.3 -3.4,0.1 -0.8,-0.2 -1.8,0.3 -1.8,1 0,0.8 -2.9,0.5 -3.4,0.3 -0.5,-0.1 2,-2.2 2,-2.6 0,-0.4 -4.3,0.1 -4.5,-0.3 -0.2,-0.4 -2.4,-0.5 -3.2,-0.5 -1,0 0,-0.2 0.8,-0.3 0.9,-0.1 1.7,-0.8 2.6,-1 1,-0.2 0.8,-0.5 0.3,-1.1 -0.4,-0.6 -1.4,-0.3 -2.4,-0.6 -1,-0.3 -2.1,-0.7 -2.9,-0.8 -0.8,0 -1.8,0.4 -3.6,0.8 -2,0.4 -2.1,1.9 -3,2.3 -1,0.5 -2.7,2.3 -1.9,2.5 0.8,0.2 0.4,0.7 0.5,1.2 0.1,0.5 -0.6,0.7 -1.6,0.5 -1,-0.2 -4.2,-0.1 -4.2,0.6 0,0.7 2,1 1.8,1.4 -0.2,0.4 -1.5,0 -2.1,-0.4 -0.7,-0.4 -2.2,-0.2 -2.5,0.5 -0.3,0.7 -1.5,0.5 -1.8,0.4 -0.4,-0.2 -1.2,0.3 -1.8,0.1 -0.6,-0.2 1.2,-1.1 0.8,-1.6 -0.5,-0.5 -2.5,0 -2.7,0.7 -0.2,0.8 -1.4,-0.5 -1.9,-0.3 -0.5,0.2 -1,0.5 -1.8,0.9 -0.8,0.4 -2.4,-0.4 -2.7,0.2 -0.3,0.7 1.7,0.9 1.7,1.2 0,0.3 -4.4,0.2 -4.6,0.7 -0.1,0.5 -1.7,0.5 -3.4,0.5 -1.9,0 -1.1,1 -2.6,1.2 -1.5,0.3 -2.2,0.3 -2.7,1.1 -0.5,0.8 -1.7,0.9 -2.2,0.3 -0.5,-0.6 -1.9,0.3 -1.1,0.4 0.8,0.1 0,0.8 -0.4,0.7 -0.5,-0.2 -1.8,0.8 -1,0.7 0.8,-0.1 1.1,0.5 0.8,1 -0.4,0.5 -2,-0.5 -2.4,-0.1 -0.4,0.4 0.8,1 1.5,0.9 0.8,-0.1 1.2,0.4 1.2,1 0.1,0.5 -1.8,-0.3 -2.1,0.1 -0.4,0.5 0.3,0.7 1.1,0.8 0.8,0.1 0.2,0.4 0.9,1 0.1,0 0.1,0.1 0.1,0.1 0.4,0.5 -0.4,0.7 -0.3,1.2 0.1,0.5 -0.8,0.8 -0.8,0.2 0,-0.6 -2.2,-0.7 -2.7,-0.1 -0.5,0.5 -0.8,1 -1.3,0.5 -0.5,-0.5 -2.1,0.1 -4.1,0.2 -2,0.1 -6.1,0.2 -7.2,0.6 -1,0.4 -1.9,1.8 -1,2.7 1,1 0,1.4 0,2 0,0.6 2.5,1.9 3.7,2 1.3,0.1 2.4,1.8 1.6,2.7 -0.8,1 -3.1,-0.3 -4.7,-1.5 -1.6,-1.2 -5.1,-1.8 -6.4,-1.7 -1.2,0.1 -0.5,-1.1 -2,-1 -1.5,0 -2.7,1.4 -1.8,1.4 1,0 1.7,-0.1 1.2,0.4 -0.5,0.5 0.3,0.4 1.5,0.9 1.2,0.5 -1,1.3 -2.3,0.4 -1.3,-0.9 -2.7,0 -2.9,0.6 -0.4,0.7 1.5,2.6 3.7,2.8 2.2,0.3 1.5,1 2.5,1.4 1,0.4 0.3,0.8 -0.4,0.8 -0.7,0 -2.1,-1.1 -3.1,-1.7 -1.1,-0.6 -4.1,0.2 -4.7,-0.4 -0.6,-0.7 0.4,-1.3 -0.2,-1.8 -0.6,-0.5 -0.1,-1.6 0.7,-2.7 0.8,-1.2 -0.1,-3.1 -1.2,-3.4 -1.1,-0.3 -1,0.8 -0.8,1.1 0.2,0.3 0.1,1.9 -0.7,2.9 -0.8,1 -3.3,1 -3.3,1.8 0,0.7 -1.7,1.2 -1.1,1.8 0.6,0.5 2.8,3 3.1,3.8 0.3,0.8 -2,3.2 -1.7,4.7 0.4,1.5 -0.3,2.1 0.1,2.7 0.5,0.7 1.5,0.1 2.2,0.4 0.7,0.3 1.8,-0.4 3.2,-0.7 1.5,-0.3 4.3,1.3 5.3,1.8 1,0.5 0.5,1.3 1,2.2 0.5,0.8 -1.2,0.8 -1.3,2.1 0,1.2 3,1.8 3.1,2.2 0.1,0.4 -2.2,0.1 -3.1,-0.2 -0.9,-0.3 -1,-1.5 -1.3,-1.8 -0.3,-0.2 0.6,-1.2 0.7,-2 0.1,-0.8 -1,-1.2 -1.4,-1.8 -0.4,-0.5 -1,-1.3 -1.8,-1.2 -0.8,0.2 -3.4,0.4 -4.2,1.2 -0.8,0.8 0.1,2.8 0.6,3.8 0.5,1 -2.4,2.5 -2.3,3.2 0.1,0.8 -0.9,1.2 -2.1,1.9 -1.2,0.7 -2.6,1.2 -2.6,2.2 0,1.1 -1.7,0.5 -2.5,0 -0.8,-0.5 -2,0.3 -3.1,0.2 -1.2,0 -1.2,-1.1 -2.2,-0.7 -1,0.4 -1.7,-0.5 -1.4,-1.2 0.3,-0.7 1.4,-0.2 1.5,0.4 0.1,0.5 0.8,0.3 1.6,-0.2 0.8,-0.5 0.4,0.6 1.6,0.7 1.2,0.1 0.5,-0.6 1.5,-0.5 0.9,0.1 1,-0.2 0.7,-0.7 -0.3,-0.5 0.7,-0.8 1.2,-1 0.7,-0.3 0.3,-1.2 0.9,-1.5 0.5,-0.3 0.2,-0.9 0.8,-0.9 0.6,0 0.8,-0.9 1.4,-0.9 0.6,0 0.8,-0.9 0.5,-1.3 -0.3,-0.5 0.2,-1.7 0.8,-1.9 0.5,-0.2 0.6,-0.7 0.1,-1 -0.5,-0.3 -2.3,-1.6 -2.2,-2.4 0.1,-0.8 -0.3,-2.2 -0.1,-2.8 0.2,-0.7 0,-1.9 0,-2.7 0,-0.8 0.5,-1.6 0.7,-2.9 0.2,-1.4 -1.5,-2.7 -2.3,-3.1 -0.8,-0.4 -0.3,-1.1 0.9,-2.1 1.2,-1 1.3,-4 1.2,-4.7 -0.1,-0.7 -2.5,-1.2 -3.4,-1.2 -1,0.1 -4.4,-0.1 -5.3,-0.2 -0.9,-0.2 -1.2,0.8 -1.6,1.6 -0.4,0.8 -1.3,2.1 -1.9,3.9 -0.5,1.9 -2.7,2.5 -3.7,2.8 -1,0.4 -1.6,1.8 -1.2,2.5 0.5,0.7 1.1,0.1 1.6,0.4 0.5,0.3 0,2 -0.3,2.2 -0.3,0.2 0.5,0.9 -0.2,1.3 -0.7,0.5 -1.4,1.4 -1,1.9 0.4,0.5 2.5,0.8 3.2,1.2 0.7,0.4 0.5,1.4 1.2,2.3 0.7,0.9 1.4,0.3 1.7,0.9 0.3,0.5 -1.2,2.7 -1.8,2.7 -0.5,0.1 -2.7,-2.2 -3.3,-2.7 -0.6,-0.5 -3.1,-1.3 -4.4,-2 -1.3,-0.7 -2.3,-0.6 -3.7,-1.5 -1.4,-1 -2.6,-1.4 -5.1,-1.4 -2.6,0 -4.1,-0.6 -5,-0.5 -0.9,0.1 -0.5,-0.9 -2.1,-1.5 -1.5,-0.7 -2.5,-1.6 -3.3,-1.1 -0.9,0.5 -0.5,2.1 0.8,2.3 1.3,0.2 0.7,0.9 2.1,0.8 1.4,-0.1 1.8,0.4 1.8,1.3 0,0.9 0.7,1.8 1.3,2.3 0.6,0.6 0.2,1.5 -0.9,1.5 -1.1,0 -2.4,0.2 -1.9,1 0.5,0.8 -0.3,1 -1.5,0.6 -1.1,-0.4 -0.5,-1.2 0,-1.7 0.5,-0.5 -1,-1 -1.7,-1.3 -0.7,-0.3 -3.4,1.8 -4.2,2.2 -0.8,0.3 -2.7,-0.5 -4.7,0 -2,0.5 -1.9,2.1 -2.6,1.9 -0.8,-0.2 -2.9,0.2 -3.7,-0.3 -0.8,-0.5 -0.2,-0.8 0.7,-0.8 0.9,0 1.2,-0.2 0.7,-0.8 0.1,-0.1 1.3,-1 1.3,-1.4 0,-0.4 -3.2,0.7 -3.7,1.1 -0.5,0.5 0,1.3 -0.5,1.6 -0.6,0.3 -0.6,-0.5 -1.2,-0.8 -0.7,-0.2 -5.4,0.9 -6.4,1.9 -0.9,1 -2.7,1.1 -2.7,1.7 0,0.6 -2.2,0.5 -3,1 -0.9,0.4 -0.3,2.1 -0.6,2.9 -0.3,0.8 -3.7,0.6 -4.7,0.6 -1,0 -1.4,-2 -2.2,-2.1 -0.8,-0.1 -0.3,-1.3 -0.1,-1.8 0.2,-0.5 0.9,-0.1 2,-0.8 1,-0.7 2.1,0.3 2.5,-0.1 0.4,-0.5 -1.6,-1.7 -1.7,-2.7 -0.1,-1 -2.3,-1.3 -3.5,-1 -1.2,0.3 -2.6,0 -3.4,-0.4 -0.9,-0.4 -0.8,0.8 0.5,1.1 1.3,0.3 0.6,1.3 0.8,2 0.2,0.7 -0.3,2 -1.1,3 -0.8,1 -0.2,1 0.9,1 1.1,0 1,1.4 1,2.5 0,1.1 -0.9,1.4 -0.9,2.2 0,0.8 -0.9,-0.4 -1.2,0 -0.3,0.3 -0.7,-0.2 -0.8,-0.8 -0.2,-0.7 -1.9,-0.3 -2.7,-0.5 -0.9,-0.2 -1.3,0.2 -1.8,0.9 -0.5,0.7 -1.8,1 -2.5,1.1 -0.8,0.1 -2,1.5 -2.7,2 -0.7,0.5 -0.9,1.5 0.2,2.5 1,1 1.2,1.7 1.2,2.2 -0.1,0.5 -2.8,0.4 -3.3,-0.2 -0.5,-0.6 -2.3,-0.8 -2.8,-0.7 -0.6,0.1 -2.5,-2.2 -3.3,-2.2 -0.9,0 -1.4,1 -1.7,1.6 -0.3,0.5 0.4,0.7 0.8,1.6 0.4,0.9 2,1 2.7,1 0.8,0 0.5,1.2 0.2,1.7 -0.3,0.5 -1.7,0.9 -2.1,0.3 -0.4,-0.5 -2.2,0 -2.2,-0.7 0,-0.7 -1.3,-1.7 -2.6,-1.5 -1.3,0.2 -1.5,-0.6 -1.5,-1.6 0.1,-1 -0.7,-1.6 -0.7,-2 0,-0.5 -0.6,-1.4 0.1,-1.8 0.7,-0.5 0.2,-1.2 0.2,-1.8 0,-0.6 -1.1,-1.6 -2.2,-1.6 -1,0 -0.8,-1 -1.700001,-1.2 -0.9,-0.2 -2.6,-1.7 -2.7,-2.3 -0.2,-0.6 -1.5,-0.7 -1,-0.9 0.5,-0.2 1.5,0.1 2.2,0.8 0.7,0.7 2.000001,1.4 3.800001,1.7 1.9,0.3 2.7,1.2 4.8,1.5 2.2,0.4 3.4,0.6 6.5,1.1 3,0.5 7.2,-2.7 8.1,-3.5 0.9,-0.9 -0.2,-2.7 -0.2,-3.2 0,-0.7 -1.4,-0.8 -1.6,-1.2 -0.2,-0.5 -1.1,-1.4 -2.3,-1.4 -1.2,0 -1.4,-1.4 -2.3,-1.3 -1,0.1 -1.6,-0.4 -4,-2.1 -2.4,-1.7 -5.9,-2.8 -6.5,-2.6 -0.6,0.2 -1,0.5 -1.5,-0.2 -0.4,-0.6 -1.4,-0.5 -2,0 -0.7,0.5 -1.300001,-0.5 -2.600001,-0.2 -1.2,0.3 -1.9,-0.5 -1.6,-0.9 0.3,-0.4 2.2,0 2.1,-0.7 -0.1,-0.6 -0.8,0 -1.9,-0.8 -1.1,-0.8 -1.8,-0.2 -2,0.4 -0.2,0.6 -1.1,0.5 -1.7,-0.1 -0.1,-0.1 -0.1,-0.1 -0.2,-0.1 -0.2,1 -0.8,1.1 -1.4,1 -0.8,-0.2 -1.5,1.1 -2.3,1.1 -0.8,0 -1.8,0.9 -1.9,1.7 -0.2,0.8 -1.1,0.3 -1.1,0.8 0,0.5 0,1 -0.4,1.5 -0.4,0.5 0,0.8 0.4,1.6 0.4,0.8 1.3,0.8 1.8,1 0.4,0.2 2,1.6 2,2.1 0,0.5 -1.2,1.8 -1.8,2.1 -0.5,0.3 -1.2,1.2 -0.8,1.7 0.3,0.5 1.7,2.6 2.7,4.1 0.9,1.7 -0.3,0.9 -0.9,1.7 -0.6,0.8 0.2,1.7 0.4,2.2 0.2,0.5 -0.8,0.4 -0.7,0.8 0.1,0.4 1.3,0.6 1.4,0.9 0.1,0.3 -0.8,0.8 -0.4,1.4 0.4,0.7 1.4,0.7 1.5,1.5 0.1,0.8 -1.8,0.9 -1.8,1.6 0.1,0.7 2.5,1.5 3.5,2.7 1.1,1.2 1,1.6 0.8,2.2 -0.5,1.3 -3.4,2.5 -4.1,3.9 -0.7,1.5 -3.1,2.3 -4.2,3.4 -0.5,0.5 -0.9,1.1 -1.3,1.7 0.5,-0.1 0.9,-0.3 1.2,-0.4 0.7,-0.3 1.1,1.3 1.8,1.8 0.7,0.5 2,0 2.5,0.5 0.5,0.5 -0.4,0.5 -1.3,0.4 -1,-0.2 -1.2,0.4 -2.7,0.9 -1.1,0.4 -1,0.8 -1.4,1.1 0.7,1 -0.2,1.1 -0.6,1.9 -0.4,0.8 -0.9,0.9 -0.9,1.4 0,0.5 0.1,0.9 0.2,1.6 0.1,0.7 0.2,0.9 0.6,1.5 0.4,0.6 -0.4,0.6 -0.8,0.9 -0.4,0.3 -0.1,1 0.4,1.5 0.5,0.5 0.5,1.1 0.3,1.6 -0.2,0.5 0.4,1.2 0.9,1.6 0.5,0.4 0.4,1.6 0.8,1.9 0.4,0.3 0.8,0.6 1.5,0.4 0.7,-0.2 1.1,0.1 1.4,0.7 0.3,0.6 0.8,0.3 1.5,0 0.7,-0.3 2.2,0.6 2.6,0.8 0.4,0.2 0.2,1.2 0.2,1.9 0,0.7 -0.4,1.6 0.3,2 0.7,0.4 0.5,1.4 1.3,1.8 0.8,0.4 1.1,1.4 1.6,1.6 0.5,0.2 1.4,0.9 1.6,1.4 0.2,0.5 -0.9,1.1 -1.4,1.3 -0.5,0.2 -1.6,-0.8 -2,-0.3 -0.4,0.5 0.1,1.2 0.4,2.6 0.3,1.4 0.6,1.5 1.2,1.5 0.6,0 0.9,-0.4 1.3,-0.7 0.4,-0.3 1.4,0.1 1.9,-0.1 0.5,-0.2 2.000001,-0.2 2.300001,0.2 0.3,0.4 0.6,1.7 0.4,2.1 -0.2,0.4 0.3,0.9 0.6,1.6 0.3,0.7 1.6,0.3 2.1,0.5 0.4,0.2 1.4,1.6 1.2,2.2 -0.2,0.6 0.6,0.8 1.1,0.6 0.5,-0.2 0.9,0.3 1.4,0.6 0.5,0.3 0.9,0.2 1.4,-0.1 0.5,-0.3 1.3,-0.6 1.6,-0.1 0.3,0.5 1.2,1.2 1.2,1.5 0,0.3 1.6,0 2.3,0.4 0.7,0.4 1.6,0.2 2.4,0.6 0.8,0.4 1.6,0.5 1.6,1 0,0.5 -0.8,0.9 -0.8,1.2 0,0.3 0.7,0.4 0.7,0.8 0,0.4 -0.9,0.4 -1,0.7 -0.1,0.3 0.5,0.8 0.6,1.1 0.1,0.3 -0.5,1.4 -0.5,1.7 0,0.3 -1.9,-0.1 -2.3,-0.1 -0.4,0 -1.8,1.4 -2.2,1.5 -0.4,0.1 -0.2,0.7 -0.1,1.3 1.3,-0.3 2.7,-0.4 2.8,-0.1 0.2,0.5 -2.8,1.8 -3.4,2 -0.6,0.2 1.1,1.1 1.1,1.6 0,0.5 -1.8,0.6 -1.7,1.6 0.2,1 -0.6,1.2 -1.5,1.2 -0.9,0 -1.2,0.6 -0.8,0.7 0.5,0.1 0.4,1.3 2.2,1.8 1.8,0.5 3.6,2.1 5.1,3.7 0.2,0.2 0.5,0.4 0.7,0.6 0.4,-0.3 0.8,-0.5 1.1,-0.5 0.9,-0.1 2.5,0.4 3.3,1 0.9,0.6 3.9,-0.1 4.3,0.4 0.4,0.5 1.1,1.1 1.8,1.1 0.7,0 1.2,1.2 1.8,0.9 0.6,-0.3 2.4,-0.4 2.8,-0.4 0.5,0 0.5,0.4 1,0.4 0.5,0 0.5,1.9 0.9,1.8 0.4,-0.1 1.7,1.1 2.6,1.2 0.9,0.1 1.8,1.6 2.1,1.5 0.3,-0.1 1,0.6 1.2,0 0.2,-0.6 1.5,-0.3 1.8,-1.3 -1.6,-1.9 -3.2,-4 -3.1,-4.8 0.1,-1.4 0.7,-2.3 -1.1,-3.7 -1.8,-1.5 0.2,-2.5 1.4,-4 1.1,-1.4 3.4,-2 4.9,-2.9 -0.3,-0.2 -0.6,-0.4 -0.9,-0.5 -1.1,-0.5 -1.5,-1 -0.6,-1.2 0.9,-0.2 0.5,-0.8 -0.4,-1.8 -0.9,-1 -1.2,-2 -1.8,-2 -0.6,0 -1.2,-0.1 -2,0.1 -0.8,0.2 -0.6,-0.6 -0.5,-1.5 0.1,-0.9 -1.4,-0.8 -1.6,-1.1 -0.2,-0.3 0.4,-1.6 0.6,-1.8 0.2,-0.2 1,-0.5 1,-0.9 0,-0.4 -1.4,-0.5 -0.9,-1.4 0.5,-0.9 1.5,-0.9 1.5,-1.8 0,-0.9 0.8,-1.6 1.6,-1 0.8,0.6 1.2,2.2 2.2,1.9 1,-0.3 0.4,-1.2 0.2,-1.8 -0.2,-0.6 -0.4,-1.2 0.8,-1.5 1.2,-0.3 0.6,-1.4 1.5,-1.4 0.9,0 2.5,-1.1 2.9,-1.4 0.5,-0.3 1.6,-0.9 2.1,-0.6 0.5,0.3 1.1,0.9 1.5,0 0.4,-0.9 1.9,-0.5 2,0 0.1,0.5 2.5,0.5 3.1,1 0.6,0.5 2.4,1.5 2.4,2 0,0.5 0.8,1.2 0.8,0.4 0,-0.8 0.6,-0.6 1.6,0 1,0.6 2.4,0.4 2.6,-0.2 0.2,-0.6 2.1,-1.4 2.7,-0.9 0.6,0.5 0.9,0.9 1.6,0.1 0.7,-0.8 2.5,-0.6 2.7,0.1 0.3,0.7 1.1,0.9 1.9,0.9 0.8,0 0.9,1.1 1.4,0.9 0.5,-0.2 0.4,-1.5 1,-1.4 0.6,0.1 1.1,0.9 2.1,0.9 1,0 1.8,-0.2 1.8,-1 0,-0.8 -0.1,-2 -0.8,-2 -0.7,0 -1.2,-0.6 -2,-0.6 -0.8,0 -1.5,-1.2 -0.8,-1.5 0.7,-0.3 2,-0.9 1.8,-1.5 -0.2,-0.6 -0.5,-1.9 0.5,-2 1,-0.1 3,-0.1 2.9,-0.5 -0.1,-0.4 -2.1,-0.6 -2.5,-1.2 -0.4,-0.6 -0.5,-2.1 -0.1,-2.4 0.4,-0.3 1.6,0.1 2.4,-0.1 0.8,-0.2 2.4,0.4 3.3,-0.4 0.9,-0.8 3,-0.9 4.1,-0.9 1.1,0 2,-0.8 2.8,-0.9 0.9,-0.1 3.3,-0.5 3.9,-0.8 0.6,-0.3 3.9,-0.8 4,-1.4 0.1,-0.6 2.7,-1.1 3.4,-0.8 0.7,0.3 1.6,0.6 2.2,0.3 0.6,-0.3 1.9,0.4 1.8,1.1 -0.1,0.7 0.6,1.4 0.5,2 -0.1,0.6 -0.7,0.8 -0.3,1.2 0.4,0.4 2.1,0.1 2.6,-0.4 0.5,-0.5 1.1,0.2 1.1,0.7 0,0.5 0.8,0.8 0.8,0.2 0,-0.6 1,-0.2 1.3,0.2 0.3,0.4 1.5,-0.4 1.5,0.2 0,0.6 -1.8,1.1 -1,1.8 0.8,0.7 1.2,-0.8 2.1,-0.5 0.9,0.3 2.2,-1.1 3,-1.2 0.9,-0.1 1.8,-1 2.6,-1.4 0.8,-0.4 2.4,-0.3 1.9,0.2 -0.5,0.5 -1.1,1.4 0.8,2.1 1.9,0.7 3.9,4.2 5.1,6 1.2,1.8 2.3,5 2.8,5 0.6,0 0.8,-1.6 1.6,-1.8 0.8,-0.2 1.3,1.4 2.2,1.6 0.9,0.2 2.1,0.7 2.7,0.4 0.7,-0.3 2.2,-1.1 2.7,-0.8 0.6,0.3 1.3,0.3 1.8,1.5 0.5,1.2 1.2,1.4 1.8,1.4 0.6,0 0.6,0.6 0.6,1.1 0,0.5 0.9,1.2 1.4,1.2 0.5,0 1.8,-0.2 2.2,-0.4 0.4,-0.2 0.9,-0.5 1,0.1 0.1,0.6 0.8,1.5 1.3,1.5 0.5,0 1.5,0.4 1.6,0 0.1,-0.4 1.4,-0.7 1.9,-0.8 0.5,-0.1 2.2,-0.4 2.6,-1.2 0.3,-0.8 1.8,-0.8 2.2,-1.2 0.4,-0.5 1.6,-0.8 1.8,-1.2 0.2,-0.4 1.8,-0.4 1.9,-0.8 0.2,-0.4 1.4,-0.5 2,-0.3 0.6,0.2 3.4,0.8 3.8,0.7 0.4,-0.1 0.5,1.5 0.9,1.6 0.4,0.1 1.9,1.2 2.3,0.9 0.4,-0.3 1.4,-0.7 2.2,-0.2 0.8,0.5 1.7,1.2 2,0.6 0.3,-0.6 2.1,-0.8 2.3,-1.2 0.2,-0.3 0.5,-1.3 0.1,-1.7 -0.4,-0.3 -0.8,-1.7 -1,-2.3 -0.2,-0.7 1,-0.8 1.2,-1.4 0.2,-0.6 1.2,-0.7 1.5,-1 0.3,-0.3 0.4,-1.1 1,-0.9 0.6,0.2 1.8,0.6 2.1,0.8 0.3,0.2 1.2,0.4 1.8,0.4 0.6,0 1.5,0.5 2.1,0.8 0.6,0.3 2.4,0.3 2.7,0.8 0.3,0.5 -0.1,1.9 0.3,2.4 0.4,0.5 1.4,1.6 1.8,1.3 0.3,-0.2 1.9,0.8 2.5,0.8 0.6,-0.1 1.5,-1 2,-1 0.5,0 2.1,-0.4 2.6,-0.3 0.5,0.1 2.3,0.8 2.6,0.6 0.2,-0.2 1.9,0.1 2.2,0.6 0.3,0.5 2.3,0.5 2.3,1.1 0,0.6 1.2,0.9 1.5,1.6 0.3,0.7 3,0.3 3.5,0.7 0.5,0.4 3.6,0.3 3.7,0 0.1,-0.3 3,-0.5 3.6,-0.9 0.6,-0.4 2.2,-0.2 2.2,-0.8 0.1,-0.6 1.6,-1 2.2,-1.5 0.7,-0.5 3.2,-0.4 3.4,0.2 0.2,0.6 1.8,0.8 2.4,0.5 0.7,-0.2 2.4,0.1 2.7,0.7 0.2,0.6 2.2,0.9 2.7,0.8 0.5,-0.2 2.1,-1.3 2.7,-1.4 0.6,-0.1 1.4,-0.7 1.2,-1.2 -0.2,-0.6 1.2,-2.2 1.3,-2.8 0.2,-0.7 1.3,-2.5 1.8,-2.7 0.4,-0.2 1.3,-0.9 1.2,-1.4 -0.1,-0.5 -0.3,-2 -0.8,-2 -0.5,0 -1.4,0.1 -0.2,-1.5 1.2,-1.6 3.1,-1.2 3.5,-1.2 0.3,0 2.9,-0.7 4.1,-0.3 1.2,0.3 1.9,-0.2 3.1,0.5 1.2,0.7 2.9,0.4 3.3,1 0.4,0.6 2.1,1.1 1.8,2.1 -0.3,1 0.9,0.4 1.3,2.6 0.4,2.2 1.4,2.3 1.7,3.2 0.3,1 1.6,2.7 1.4,3.3 -0.2,0.6 -0.3,1.5 1.1,1.6 1.4,0.1 2.4,1.2 2.7,1 0.3,-0.2 2,0.4 2.7,1.2 0.8,0.8 2.1,0.4 2,1.3 -0.1,0.9 0.7,1.7 0.6,2.4 -0.1,0.8 1.6,1.2 2.7,1.1 1.2,-0.2 2,0.4 2.5,-0.6 0.5,-1 2.2,-0.6 2.7,-1 0.6,-0.4 2.3,-0.9 2.2,0.6 -0.1,1.5 0.9,1.8 0.1,2.3 -0.8,0.5 -1.2,2.7 -1.5,3.5 -0.2,0.9 -1.5,1.2 -1.7,2.2 -0.2,1 -1.3,1.1 -1.3,1.8 0,0.7 -1.7,0.6 -2.5,0 -0.8,-0.6 -1.7,1.1 -2.3,1.1 -0.7,0 -0.6,1.4 -0.4,2 0.2,0.6 -0.2,1.3 0.2,2.3 0.2,0.5 0.1,1.6 0.2,2.7 1,-0.7 1.9,-1.3 2.3,-1.3 1,0 2.1,1.8 3.1,1.8 1.2,0 6.4,-3.4 6.4,-4 0,-0.6 3,-3.4 4.5,-5 1.5,-1.5 3.3,-3.7 4,-5.4 0.5,-1.1 2.5,-3.1 2.9,-3.9 0.5,-0.8 0.8,-0.9 1.8,-2.8 0.9,-2 0.9,-7 1.2,-7.3 0.3,-0.3 0.1,-1.2 0.5,-1.8 0.4,-0.5 0.2,-1.3 1,-2 0.8,-0.7 0.7,-1.3 0.5,-1.9 -0.2,-0.5 0,-1.8 -0.2,-2.1 -0.2,-0.4 -0.2,-0.5 0.3,-0.8 0.5,-0.3 -0.3,-1 -1,-1.4 -0.7,-0.3 -1.6,-0.6 -1.7,-1.4 -0.1,-0.8 -1.3,-1.8 -2.2,-1.7 -0.9,0.1 -2.6,-0.5 -2.4,0.1 0.2,0.6 -0.1,1.1 -0.5,1 -0.5,-0.1 -0.7,0.2 -1.2,1.1 -0.5,0.8 -2.5,0.9 -1.6,0.1 0.9,-0.8 -0.3,-0.8 -0.1,-1.7 0.2,-0.8 0.9,-1.7 -0.1,-1.1 -1,0.5 -1,1.8 -1.8,2 -0.8,0.2 -0.5,-2.2 -0.3,-2.8 0.2,-0.6 -1.5,0 -3.1,-0.1 -1.7,-0.1 -1.3,-1.3 0.1,-2.1 1.4,-0.8 1.2,-1.5 1.9,-1.8 0.7,-0.3 2.5,-1.5 3.5,-2.1 1.1,-0.6 1.3,-1.3 1.5,-2 0.2,-0.7 2.2,-1.6 3.9,-2.9 1.8,-1.5 2.7,-2.3 3,-3.1 0.4,-0.9 3,-2 3,-2.6 0,-0.7 3.1,-2.3 5.2,-2.7 2.1,-0.4 5.4,0.1 6,0.8 0.6,0.7 1.1,0.4 1.5,0 0.4,-0.4 1.2,-0.2 2.6,0 1.4,0.2 1.8,-0.7 2.7,-0.4 1,0.3 1.8,0.5 2.3,-0.7 0.6,-1.1 3.2,-0.9 3.9,-0.5 0.6,0.5 1.1,1.1 2.1,0.4 1,-0.7 1,0.9 2,1 1,0.1 0.3,1 -0.5,0.9 -0.8,-0.1 -1.9,0.4 -0.9,1 1,0.5 2.1,-0.5 2.7,-0.4 0.8,0.1 1.9,0.2 2.9,-0.5 1,-0.7 1.3,0.5 2,0 0.7,-0.6 2.2,-0.8 2.8,-0.7 0.8,0 0.1,-0.9 -1.1,-0.9 -1.2,0 -1.2,-0.7 -0.2,-2.4 1,-1.7 2.8,-2.6 4,-3.6 1.2,-1 2.1,-0.5 2.1,-1.2 0,-0.7 0.6,-2.5 1.5,-2.6 0.9,0 3.1,0.4 4.5,-0.4 1.4,-0.8 1.3,0.6 1.9,0.8 0.6,0.2 1.4,-1.2 2,-0.8 0.7,0.4 -1,1.4 -1.4,2.6 -0.4,1.2 0.9,0.8 1.6,1.1 0.7,0.3 -0.9,0.8 -0.8,1.2 0.2,0.3 1.6,0.3 3.3,-1.5 1.8,-1.8 3.4,-2.3 4.6,-2.2 1.2,0.1 0.5,-1 0.6,-2.7 0.1,-1.7 3.6,-2.2 4.7,-1.7 1.2,0.5 1.1,1 0,0.7 -1.1,-0.3 -2.2,0.7 -2.1,2.1 0,1.4 -1,1.9 -0.5,2.4 0.5,0.5 -0.8,0.7 -0.8,1.2 0,0.6 0,1 -0.8,1.3 -0.8,0.2 -3.5,0.5 -3.6,1.6 -0.1,1.1 -1.6,1.2 -2.3,2.5 -0.7,1.3 -3.3,2.1 -5.1,4.7 -1.8,2.6 -4.5,2.7 -4.5,3.1 0,0.5 -2,0.5 -2.6,0.5 -0.7,0.1 0.6,1.7 -1,3.3 -1.6,1.7 -2.6,4 -2.6,6.4 0,2.4 0.8,9 1.5,10.2 0.7,1.2 0.3,4.1 0.9,4.7 0.6,0.6 0.4,1.7 0.8,2 0.4,0.3 1.9,-1.7 2.9,-2.5 1,-0.9 0.7,-1.2 1.4,-1.6 0.7,-0.5 0.4,-2.4 0.6,-2.8 0.2,-0.4 1.5,-0.8 1.9,-1.3 0.4,-0.5 1.5,-0.2 2.1,-0.4 0.6,-0.2 0,-1.6 -0.2,-2.4 -0.2,-0.8 1.7,-1.9 2.7,-2.6 1,-0.7 2.2,0.5 3.3,-0.6 1.1,-1 -0.1,-2.2 -0.5,-2.7 -0.4,-0.5 1.1,-3.1 2,-3.3 0.9,-0.2 1.3,0.6 2.2,-0.1 0.8,-0.8 -0.8,-2 -1.3,-1.9 -0.6,0.1 -0.8,-2.1 0.6,-3.1 1.4,-1 0.8,-1.2 -0.1,-1.5 -0.9,-0.2 -1.1,0.1 -1.8,0.1 -0.7,0 -1.4,-1.5 -0.3,-2.8 1.1,-1.5 2.1,-1.3 2.4,-2.5 0.2,-1.2 1.8,-2.8 2.1,-3.4 0.3,-0.6 1.9,0 2.5,-0.1 0.6,-0.1 0.4,1.1 1.1,0.5 0.7,-0.6 1.9,-2.7 2.7,-2.7 1,0 0.3,1.5 0.6,2.5 0.2,0.9 0.8,-0.2 2.6,-1.5 1.8,-1.2 5.7,-1.1 6.9,-0.5 1.2,0.6 1.4,2 2.1,1.8 1,-0.3 0.2,-1.4 1.2,-1.7 1,-0.3 2.7,-1.3 4,-2.3 1.3,-1 1,-0.2 1.7,-1.1 0.7,-0.9 1.4,-0.5 1.6,-1.1 0.2,-0.6 2.1,-1.5 4.7,-2.1 2.6,-0.6 5.9,-2.3 5.8,-2.8 -0.2,-0.5 1,-0.8 1.1,-0.2 0.1,0.5 1.1,0.3 2.5,0.6 1.4,0.3 2,0.8 3,-0.2 1.1,-1.1 -0.1,-1.5 -0.1,-2.3 0,-0.8 -1.9,-1.7 -1.6,-2.6 0.3,-0.9 -1.4,-3.1 -1.9,-2.7 -0.5,0.5 -1.7,-0.4 -1.7,-1 0,-0.7 -0.1,-1.5 -0.9,-1 -0.8,0.5 -2.1,0.2 -2.4,-0.5 -0.3,-0.7 1.5,-1.3 2.7,-0.8 1.3,0.5 0.9,1 1.5,1.4 0.6,0.4 2.3,0.2 3.1,-0.2 0.9,-0.4 3.2,-1.2 3.7,-1.9 0.4,-0.7 0,-1 0.8,-1.5 0.8,-0.4 0.2,-1.3 -0.5,-1.7 -0.7,-0.4 -0.5,-1.4 0.2,-1.4 0.7,0 0.5,-0.9 1,-0.9 0.5,0 0.6,0.4 1.5,-0.1 0.9,-0.5 0,0.7 -0.4,1.5 -0.4,0.8 0.9,1.5 1,1.9 0.1,0.5 1.9,0.6 2.8,0.1 1,-0.5 4.1,0.7 4.3,1.5 0.2,0.8 0.7,1.8 2,2.4 1.3,0.7 2.5,0.4 2.7,1 0.3,0.6 0.8,1 1.5,0.8 0.8,-0.2 1.2,0.7 1.7,0.2 0.5,-0.5 0.8,0.3 1.5,-0.3 0.7,-0.6 -1.5,-1 -1.2,-1.5 0.3,-0.5 0.8,0.4 1.4,0.3 0.6,0 -0.2,-1.2 0.3,-1.4 0.5,-0.1 0.1,-2.6 -0.4,-2.7 -0.5,-0.2 -0.1,-1 0.9,-0.3 1,0.7 2.5,0.7 3.1,0.7 0.7,0 0,-0.7 -0.7,-0.8 -0.7,-0.1 0.1,-0.7 0.6,-0.2 0.5,0.5 1.5,0.7 1.5,0.2 0.1,-0.5 0.6,-1.6 1.5,-1.5 -0.7,-1.2 -0.5,-1.7 -1.3,-2 z m -228.1,53.7 c -2.4,2.1 -7,2.6 -7,4.3 0,1.8 -5.7,2.6 -6.1,1.9 -0.4,-0.7 4.1,-0.9 5.3,-3.3 1.2,-2.4 5.3,-3.7 7.4,-7 1.5,-2.4 2.7,-5.9 3.5,-5.7 0.8,0.2 -0.8,7.8 -3.1,9.8 z m 10.4,-96.1 c -0.3,0.7 -2.1,0.7 -1.7,1.3 0.8,1.1 4.9,0.5 5,-0.8 0.1,-1.3 -2.9,-1.2 -3.3,-0.5 z m -149,-40.4 c 2,0 1.4,-1.2 2.7,-1.1 1.3,0.2 3,0.1 2.4,-0.8 -0.7,-0.8 -5.4,-0.5 -4.9,0.2 0.5,0.7 -3.8,0.4 -3.7,0.7 0.1,0.5 1.6,1 3.5,1 z m -10.2,5.5 c 0,-1.3 -4.2,0.1 -3.4,0.4 0.8,0.3 3.4,0.9 3.4,-0.4 z m 10.6,-1.1 c 0.2,0.7 -0.4,0.8 -2.1,0.8 -1.7,0 -2.5,0.9 -1.7,1.7 1,0.8 5.3,0.5 6.1,-0.5 0.8,-1 2.7,-0.2 2.9,-1.2 0.2,-1 -5.5,-1.4 -5.2,-0.8 z m 14,-1.5 c 0.6,-0.8 -1.1,-0.8 -1.2,-1.5 -0.1,-0.7 -4.7,-0.9 -4.5,-0.1 0.2,0.8 -3.1,1.7 -2.2,2.6 2,1.5 7.4,-0.3 7.9,-1 z m -13,-1.4 c 0.2,-1.8 -2.7,-0.3 -4.7,-1.2 -2.2,-0.9 -3.3,-0.8 -2,0.4 0.7,0.6 -3.6,1 -2.9,1.8 1.5,1.5 9.3,0.8 9.6,-1 z m -12.2,45.5 c 0.1,0.8 -0.4,1.4 -2,1.4 -1.6,0 0.8,1 0.9,1.9 0.2,0.9 -1.6,0.2 -1.7,1.7 -0.1,1.4 -3,0 -3.4,1.8 -0.4,1.8 1.5,1.6 2.7,1.7 1.3,0.1 -0.5,1.3 0.5,2.1 1,0.8 1.8,0.5 1.1,-0.9 -0.7,-1.4 3.4,0.5 2.2,1.6 -1.2,1.1 2,1.9 3.5,2 1.6,0.1 7.1,1.3 7.2,0 0.1,-0.8 -2.1,-1.6 -3.7,-3.3 -1.8,-1.8 -2.9,-4.7 -1,-6 2,-1.3 0.2,-1.8 2.2,-3.1 2,-1.4 0.8,-2.7 2.5,-2.8 1.7,-0.2 -0.2,-1.7 1.5,-1.9 1.7,-0.2 2,-2.1 1.8,-2.7 -0.2,-0.7 1.8,0.1 2.7,-0.9 0.9,-1 3,-0.3 3.7,-1.8 0.7,-1.4 10,-4.6 15.4,-5.8 5.3,-1.2 9,-3.4 7.2,-4.9 -1.9,-1.5 -7.2,0.6 -8.5,1.7 -1.3,1.1 -3.1,0.3 -4.5,1.1 -1.3,0.8 -4.1,1.4 -5.5,0.5 -1.4,-0.9 -3,1.1 -4.1,1 -1.1,-0.1 -2.3,1.1 -3.4,1 -1.1,-0.1 -3.4,0.9 -3.6,1.6 -0.2,0.7 -2.2,0.5 -2.2,1.3 0,0.8 -1.6,1.6 -2.4,0.8 -0.8,-0.8 -1.8,0.8 -0.7,1.9 1.2,1.1 -2.2,1.2 -1.6,1.8 0.6,0.7 -1.2,1.1 -0.8,1.8 0.4,0.8 -1.2,1 -2.4,1.2 -1.2,0.2 -1.9,1.9 -0.3,2 1.6,0.1 -0.9,0.3 -0.8,1.6 0.1,0.6 -2.6,-0.3 -2.5,0.6 z"/>
    <path d="m 213.04918,227.29655 c 0.6,0.4 0.5,0.9 1.1,0.8 0.5,-0.1 1.5,0.1 2,0.6 0.5,-0.1 0.9,-0.2 0.9,-0.2 0,0 -0.4,-2.8 -0.6,-3.7 -0.1,-0.9 -2.7,-1.8 -2.7,-1.8 l -0.4,-2.4 c 0,0 -3,0.4 -3.6,0.2 -0.6,-0.2 -1.8,0.3 -2.3,-0.4 -0.6,-0.8 -1.6,0.6 -2.6,-0.1 -1,-0.7 -3.8,0.2 -3.9,-0.3 -0.1,-0.6 1.2,-1.8 2,-1.7 0.2,0 0.5,0 0.9,0 0.4,-0.6 1.2,-2 1,-2.3 -0.2,-0.4 -1.2,-0.1 -1.9,0.4 -0.7,0.5 -1.9,-0.2 -2.2,0.5 -0.3,0.7 -0.6,1.5 -1.3,1.5 -0.8,0 -0.2,1.3 -0.9,1.6 -0.8,0.3 -2.5,0.2 -2.7,1 -0.2,0.8 1.9,1.2 1.8,2.2 -0.2,0.9 1.1,1.9 0.3,2.5 -0.6,0.5 -1.2,1.3 -1.2,2.8 0.5,0.3 1.1,0.7 1.3,0.1 0.4,-0.9 2.8,0 2.8,-0.8 0,-0.8 2.7,-0.6 2.7,-1.3 0,-0.8 1.6,-2.6 2.6,-2.4 1,0.1 -0.1,1.8 1.1,2.3 1.2,0.6 -0.6,2.6 0.1,3.2 0.2,0.3 0.7,0.2 1.3,0.1 0.5,-0.1 1,-0.3 1.5,-0.5 0.9,-0.9 2.4,-2.2 2.9,-1.9 z"/>
    <path d="m 136.34918,220.49655 c 0,-0.7 -1.7,-1.2 -1.7,-2.1 0,-0.8 -1.2,-1.6 -1,-2.2 0.1,-0.5 -0.5,-1.1 -0.8,-1.6 -0.8,-0.2 -1.7,-0.3 -2.5,-0.3 -1,0.1 -1.8,0.4 -2.8,0.6 0.6,0.8 0.2,1.1 0.6,2.2 0.5,1.2 1.8,0.6 2.2,0.9 0.2,0.1 0.3,0.6 0.5,1 0.1,0 0.2,0 0.3,0 0.5,0.1 0.6,0.3 0.7,0.6 0.6,0.1 1.1,0.5 1.4,0.6 0.4,0.2 0.6,-0.3 1.3,0.5 0.6,0.7 0.7,0.9 0.6,1.5 0.6,0 1.3,-0.1 1.8,-0.4 -0.4,-0.5 -0.6,-1 -0.6,-1.3 z"/>
    <path d="m 144.84918,216.19655 c -0.3,-0.6 -1.4,-1.9 -2.5,-3.1 -0.3,1 -1.6,0.7 -1.8,1.3 -0.2,0.6 -0.9,-0.1 -1.2,0 -0.3,0.1 -1.2,-1.4 -2.1,-1.5 -0.3,0 -0.6,-0.2 -0.9,-0.4 -0.4,0.4 -0.7,0.8 -0.6,1 0.2,0.4 1.3,0.8 0.9,1.2 -0.4,0.4 -1.7,0.2 -2.2,-0.2 -0.4,-0.4 -1.7,-1.1 -1.9,-0.6 -0.2,0.5 1.1,1.6 0.9,2.2 -0.2,0.7 1,1.4 1,2.2 0,0.8 1.7,1.4 1.7,2.1 0,0.3 0.3,0.9 0.6,1.4 1.4,-0.6 2.5,-1.6 3.3,-2.1 1.3,-0.7 0.8,2.1 0.6,2.6 -0.2,0.3 0.9,1 2,1.5 0,-0.6 0.1,-1.2 0.5,-1.7 1.5,-1.7 2.5,-4.4 1.7,-5.9 z m -11.6,4.1 c -0.3,-0.1 -0.8,-0.5 -1.4,-0.6 0.2,0.5 0.2,1.1 0.9,1.5 1.2,0.6 -0.6,0.8 1.9,1.1 0.2,0 0.3,0 0.5,0 0.1,-0.6 0,-0.8 -0.6,-1.5 -0.7,-0.8 -1,-0.3 -1.3,-0.5 z"/>
    <path d="m 214.14918,228.09655 c -0.6,0.1 -0.5,-0.4 -1.1,-0.8 -0.5,-0.3 -2,1.1 -3,2 -0.5,0.2 -1,0.4 -1.5,0.5 -0.6,0.2 -1.1,0.2 -1.4,-0.1 -0.7,-0.8 1.1,-2.7 -0.1,-3.2 -1.2,-0.6 -0.1,-2.2 -1.1,-2.3 -1,-0.1 -2.6,1.7 -2.6,2.4 0,0.8 -2.7,0.6 -2.7,1.3 0,0.8 -2.4,-0.1 -2.8,0.8 -0.4,0.9 -1.7,-0.7 -2.4,-0.7 -0.8,0 -1.3,-1.1 -2.3,-0.8 -1,0.3 -1.6,-0.3 -2.3,-0.4 -0.8,-0.1 -1.3,1.7 -2.2,1.3 -0.9,-0.3 -1.3,1.7 -1.7,2.7 -0.3,1.1 -4,1.1 -3.9,2.3 0.1,1.2 -2.2,1.7 -2.4,0.9 -0.2,-0.8 -1.7,-0.3 -2,-0.6 -0.3,-0.2 -1.3,0.2 -1.2,1.3 0.1,1.1 -1,1.8 -1.1,2.2 -0.1,0.4 -0.8,1.8 -0.3,2.4 0.4,0.7 -0.6,1.8 0,2.9 0.6,1.1 0.2,2.7 0.4,3.1 0.2,0.4 2.3,0.2 2.7,1.4 0.4,1.2 -2.7,3.2 -2.8,3.9 0,0.3 0.2,0.6 0.6,0.9 1.3,0.1 2.8,0.2 4.2,0.5 1.8,0.3 11,-1.1 11.1,-1.4 0.2,-0.3 -0.3,-2.4 -0.2,-2.7 0.1,-0.4 1.2,-1.4 2.2,-1.3 1,0.1 1.9,0.2 1.9,-0.5 0,-0.7 2.7,-1.7 2.9,-1 0.2,0.7 1.2,0.4 1.3,-1.2 0.1,-1.7 -0.1,-2.8 0.9,-2.9 1,-0.1 2,-0.7 1.9,-1.2 -0.1,-0.5 -1.2,-1.5 -0.9,-1.8 0.3,-0.3 2.7,0.8 3.1,0.1 0.3,-0.8 -0.2,-1.6 0.2,-2.2 0.4,-0.7 1.4,-1.3 1.3,-2 -0.1,-0.7 0.1,-1.1 -0.5,-1.7 -0.6,-0.6 -0.3,-1.3 0.4,-1.4 0.1,0 0.3,-0.1 0.4,-0.2 0.6,-0.1 1.1,-0.2 1.5,-0.5 1,-0.8 2.9,-1.4 3.7,-1.1 0.6,0.2 2,0 2.8,-0.9 -0.1,0 -0.6,-0.1 -1,0 z"/>
    <path d="m 220.74918,232.59655 c -1.3,-0.6 -1.4,-1.8 -1.4,-2.1 0,-0.3 -1.5,-1.2 -2.6,-2.1 -0.1,0 -0.5,0.1 -0.9,0.2 -0.1,-0.1 -0.3,-0.2 -0.5,-0.3 -0.8,0.9 -2.2,1.1 -2.8,0.9 -0.8,-0.3 -2.7,0.4 -3.7,1.1 -0.4,0.3 -0.9,0.4 -1.5,0.5 -0.1,0.1 -0.3,0.2 -0.4,0.2 -0.8,0.1 -1,0.8 -0.4,1.4 0.6,0.6 0.4,1 0.5,1.7 0.1,0.7 -0.9,1.3 -1.3,2 -0.4,0.7 0.1,1.5 -0.2,2.2 -0.3,0.8 -2.7,-0.4 -3.1,-0.1 -0.3,0.3 0.8,1.3 0.9,1.8 0.1,0.5 -0.9,1.1 -1.9,1.2 -1,0.1 -0.8,1.3 -0.9,2.9 -0.1,1.7 -1.1,1.9 -1.3,1.2 -0.2,-0.7 -2.9,0.2 -2.9,1 0,0.8 -0.9,0.6 -1.9,0.5 -1,-0.1 -2.2,0.9 -2.2,1.3 -0.1,0.4 0.4,2.5 0.2,2.7 -0.2,0.3 -9.3,1.8 -11.1,1.4 -1.5,-0.3 -3,-0.4 -4.2,-0.5 0.5,0.5 1.1,1 1.3,1.5 0.4,1 1.6,1.9 2.8,2.4 1.3,0.6 0.7,2.8 1.3,3 0.7,0.2 1.6,2 0.7,2.1 -0.9,0.1 -1.7,0.3 -2.6,0.8 -0.9,0.4 -1.9,1.6 -1.8,2.8 0,0.2 0,0.4 0.1,0.7 2.3,0.1 4.9,-0.1 5.2,-0.4 0.5,-0.5 1.5,-0.8 2.2,-0.3 0.6,0.4 3.3,0.6 4.4,0 1.4,-0.8 2.2,0 2.2,0.7 0,0.7 0.7,1 1.3,1.5 0.6,0.6 0.2,1.2 0.6,1.9 0.4,0.7 1.2,0.5 2.5,1.1 0.2,0.1 0.3,0.2 0.4,0.3 0.1,-0.1 0.1,-0.2 0.2,-0.2 0.7,-0.8 0.8,-2.1 2.6,-1.8 1.8,0.3 1.7,-0.3 2.7,-0.1 1,0.2 1.7,0.1 2.1,-0.6 0.4,-0.7 -0.4,-2 -1,-2.6 -0.6,-0.6 -1.3,-1.8 -1.2,-2.8 0.1,-1.1 -1.8,-1.1 -1.8,-2 0,-0.9 1.8,-2.3 2.1,-2.7 0.3,-0.4 1.8,0.9 2.1,0.2 0.3,-0.7 1.3,-0.2 1.9,-0.1 0.6,0.1 1.4,-1.1 1.6,-2.1 0.1,-1 2,-1.1 2.3,-1.4 0.3,-0.3 0.9,-2.6 1.1,-2.9 0.2,-0.4 1.7,-0.1 1.7,-1.3 0,-1.2 0.7,-1.4 1.3,-1.6 0.7,-0.1 0.4,-1.2 0.6,-2.1 0.1,-0.9 0.6,-1.9 1.4,-2.1 0.9,-0.2 -0.3,-1.4 -1.3,-1.2 -1,0.2 -1.7,-2.7 -1.7,-2.7 0,0 0.1,-2.3 -0.4,-2.7 -0.6,-0.3 0.2,-1.6 1.4,-1.6 1.2,0 3.3,1.3 4.1,0.8 0.8,-0.6 2.3,-0.9 2.7,-1.1 0.3,-0.2 0.8,-1.2 1,-1.7 -0.8,0.1 -1.6,-0.4 -2.5,-0.8 z"/>
    <path d="m 278.24918,340.09655 c -0.2,0.4 0.8,2.1 1.3,1.6 0.5,-0.5 -0.8,-2.8 -1.3,-1.6 z m 26.7,5.1 c 0,-0.8 -2.2,-0.4 -1.5,0.7 0.7,1 1.5,0 1.5,-0.7 z m -30.7,-12 c -0.2,0.8 0.8,3.1 1.8,2.2 0.9,-1 -1.7,-3.1 -1.8,-2.2 z m 61.7,13.9 c 1.2,0.1 1.1,1.9 0.8,2.9 -0.2,1.1 -0.8,3.6 0.3,3.1 1.3,-0.5 2.2,-2.2 1.4,-2.7 -0.8,-0.6 -0.7,-4.1 -0.3,-5.1 0.3,-0.9 2.6,-0.2 1.8,1.2 -0.8,1.4 1.4,1.2 1.4,2.7 0,1.6 1.2,0.8 2.6,0.3 1.3,-0.4 1.1,-1.2 0.2,-2.2 -0.9,-1 0.7,-2.4 -0.6,-3.1 -1.2,-0.8 -2.1,-2.1 -0.9,-2.3 1.2,-0.2 4.6,-2.2 4.1,-3 -0.4,-0.8 -5.2,0.2 -5.7,1.7 -0.4,1.5 -3.8,-0.2 -3.4,-2.7 0.4,-2.6 7.2,-2.9 9.1,-2.1 2,0.9 4.1,-1.5 4.8,-2.8 0.8,-1.4 -1.6,0.2 -2.9,1.2 -1.4,0.9 -5.1,-0.1 -7,-0.8 -1.9,-0.7 -1.8,1.2 -3.3,1.4 -1.5,0.2 -1.2,3.7 -2,4.1 -0.8,0.4 -0.8,2.9 -2.2,5.3 -1.4,2.5 0.5,2.8 1.8,2.9 z m -37.4,2.2 c -0.1,-1.2 0.4,-2.3 0.4,-2.8 0,-0.5 0.4,-0.8 1.2,-0.7 0.8,0.2 0.7,-1.6 0.1,-1.8 -0.6,-0.2 -0.9,-2.2 -2.3,-2.2 -1.4,0 -1.2,1.2 -0.3,1.2 0.8,0.1 1.3,0.8 1.1,1.3 -0.2,0.6 -0.6,-0.6 -1.8,-0.5 -1.2,0.1 -0.4,-1.4 -1.8,-1.5 -1.3,-0.1 -1.1,-2.5 -2.5,-2.5 -1.4,0 -1.5,-1.2 -0.6,-2 0.9,-0.8 -1.4,-1.6 -1.4,-2.6 0,-1 -1.5,-0.4 -1.5,-1.2 0,-0.8 -0.7,-0.4 -1.4,-1.4 -0.7,-1 -1.1,-0.1 -1.8,-0.8 -0.7,-0.8 -1.6,-1.2 -2.2,-0.9 -0.6,0.2 -1.9,-1.1 -2.4,-2.4 -0.4,-1.1 -4.1,-2.7 -4.7,-4.1 -0.5,-1.4 -1.8,-2 -4,-1.9 -2.2,0.1 -3,-2.2 -3.6,-1.1 -0.7,1.4 2.4,4.5 3.7,5.3 1.4,0.8 2.2,3.7 3.7,3.9 1.7,0.2 1.8,5.3 3,5.6 1.3,0.3 3.8,4.2 4.2,6.4 0.4,2.2 3.1,3.1 4,4.7 0.9,1.6 4.5,3.7 5,4.3 0.5,0.7 1,2.2 1.4,1.4 0.4,-0.8 2.2,0 2.9,0.1 1.4,0.3 1.7,-2.7 1.6,-3.8 z m 62.5,-13.2 c 1.8,0.2 1,-0.9 1,-2.1 0,-1.2 -1.7,-0.2 -1.7,-0.8 0,-0.6 -0.6,-2.8 -1.9,-1.1 -1.3,1.7 0.4,6.3 1.5,6.1 0.9,0 -0.7,-2.2 1.1,-2.1 z m -6.7,10.3 c 0.3,1.3 2.7,2.1 3.3,0.9 0.7,-1.2 -3.6,-2.4 -3.3,-0.9 z m -6.4,13.8 c -2.2,-0.3 -3.7,1.3 -5.9,0.5 -2.2,-0.8 -5.5,0 -5.1,0.8 0.3,0.7 2.3,0.8 4.5,0.8 2.2,0.1 4.1,-1.2 5.7,-1.2 1.3,-0.1 2.9,-0.5 0.8,-0.9 z m 17.5,-15 c -2.2,-0.7 -5.8,-0.1 -5.4,1 0.3,1 2.1,0.6 3.7,0.6 1.7,0 2.7,1.2 3.5,1.2 0.8,0 0.3,-2.1 -1.8,-2.8 z m -43.1,14.1 c -0.1,-1 -3.2,-0.1 -4.8,-0.8 -1.6,-0.7 1.8,-1.2 2.7,-1.9 1.1,-0.7 -0.7,-0.9 -3.2,-0.1 -2.7,0.8 -5.7,-1.8 -5.7,-0.7 -0.1,1.2 -4.7,-0.5 -5.9,-1.3 -1.2,-0.8 -5.6,-1.9 -6.5,-0.3 -0.9,1.6 -1.7,0.2 -1.3,1.7 0.2,1 1.3,0.4 2.1,0.4 0.8,0 0.4,1.4 1.5,1.6 1.1,0.2 4.6,1.2 4.9,0.4 0.3,-0.8 3.6,0 5.2,1.3 1.7,1.3 5.4,1.4 6.9,1.2 1.5,-0.2 3.1,1 3.7,0.2 0.6,-0.8 1.7,1.3 3.2,0.1 1.6,-1.3 -2.7,-0.8 -2.8,-1.8 z m 64.4,-17.8 c -1.2,0.1 -1.4,2.2 -2.5,2.2 -1.1,0 -2.6,2.2 -4.5,2.8 -2,0.7 -2.1,-5.7 -2.9,-6.9 -0.9,-1.2 -5.8,-2.2 -6.3,-0.8 -0.5,1.4 -2.2,0.7 -2.4,1.8 -0.2,1.1 0.4,0.8 1.5,0.8 1.1,0 1.1,0.8 1.6,1.9 0.5,1.1 3.4,0.3 4.4,0.2 1,-0.1 1.2,1.3 -0.2,0.8 -1.4,-0.5 -1.4,0.7 -2.4,0.4 -1,-0.3 -2.3,-0.2 -1.7,0.4 0.7,0.6 1.8,1.2 1.8,2.5 0,1.3 1.9,1.1 1.9,0 0,-1.1 1,0.3 2.8,0.8 1.8,0.5 0.6,1.2 2.5,1.3 1.9,0.1 6.1,1.5 7.8,2.7 1.7,1.2 0.5,2.1 1.6,3.1 1.1,1.2 1.4,2.5 -0.1,2.5 -1.5,0 -3,1.5 -2.7,2.2 0.4,0.8 5.2,-0.3 6.4,-0.3 0.8,0 1.5,1.4 2.9,2.3 v -17.5 c -3.6,-1.1 -8.6,-3.3 -9.5,-3.2 z m -35.5,20.7 c -0.3,0.2 -0.6,0.3 -0.9,0.4 -0.1,0.3 -0.2,0.7 -0.4,0.8 -0.2,0.2 -0.6,-0.2 -0.9,-0.5 -1.6,0.7 -2.5,2.6 -1.3,3.1 1.1,0.6 2.6,-0.9 3.4,-2 0.1,-0.2 0.3,-0.3 0.4,-0.5 0.1,-0.1 0.2,-0.2 0.3,-0.3 0.1,-0.1 0.2,-0.1 0.3,-0.2 -0.3,-0.3 -0.6,-0.6 -0.9,-0.8 z m -22.8,-21.1 c 1.5,-0.9 1.8,-2.7 1.7,-4.2 -0.2,-1.7 3.6,-1.8 4.1,-2.4 0.6,-0.7 -0.8,-1.8 -1.9,-2.2 -1.1,-0.5 -0.2,-1.6 -0.9,-2.2 -0.8,-0.7 -2,-2.4 -0.9,-2.5 1.1,-0.1 -0.8,-1.6 0.2,-2.1 0.1,-0.1 0.3,-0.1 0.4,-0.2 -0.5,-0.3 -1,-0.5 -1.3,-0.5 -1.3,0 -4.4,-0.3 -4.2,1.8 0.2,2.2 -1.8,1.3 -1.7,2.5 0.2,1.2 -1,1.2 -0.8,2.7 0.2,1.5 -0.8,0.8 -2.5,1.7 -1.7,0.8 -1,-0.5 -2.7,-0.5 -1.7,0 -1.8,0.8 -2.7,1.2 -1,0.3 -2.9,-0.2 -3.6,0.3 -0.7,0.5 -1.7,-1.2 -2.3,-1.2 -0.3,0 -0.6,-0.9 -0.8,-1.8 -0.1,0 -0.2,0 -0.3,0 -1.1,0.1 -2.8,2.8 -1.8,3.8 1.2,1.2 0.9,2.9 1.5,3.8 0.6,0.9 2.4,1.1 2.4,2.7 0,1.7 1.6,4.4 2.7,3.7 1.1,-0.8 1.9,0.3 2.2,1.1 0.3,0.8 2.8,-0.6 3.7,-0.4 0.8,0.2 3.3,0.7 3.5,1.7 0.2,1 2.5,-0.1 4,-0.7 1.5,-0.5 0.6,-5.2 2,-6.1 z m 6.2,23 c 0.5,0.8 1.9,0.8 2.5,1.2 0.6,0.5 2.7,1.6 2.7,0.2 -0.2,-1.4 -5.8,-2.3 -5.2,-1.4 z m -4.1,-4 c -0.3,0.8 -1.8,0.9 -2.6,0.3 -0.8,-0.6 -1.9,0.8 -1.3,1.5 0.2,0.3 2,1.7 4,0.7 2,-1 3.4,-0.1 3.9,-1.2 0.6,-1.1 -3.7,-2.1 -4,-1.3 z"/>
    <path d="m 349.94918,362.59652 c -0.3,0 -0.6,0.1 -0.9,0.2 0.3,0.3 0.7,0.7 0.9,0.5 0.2,-0.1 0.3,-0.5 0.4,-0.8 -0.2,0.1 -0.3,0.1 -0.4,0.1 0,0 0,0 0,0 z m 3.9,-2 c -1.1,-0.1 -1.6,0.9 -2.4,1.5 -0.1,0.1 -0.2,0.1 -0.2,0.2 0.3,0.2 0.6,0.6 0.9,0.9 1.6,-1 5.6,-2.2 5.8,-2.7 0.3,-0.7 -2.5,0.2 -4.1,0.1 z"/>
  </g>
</svg>
