<svg width="64" height="64" xmlns="http://www.w3.org/2000/svg" xmlns:svg="http://www.w3.org/2000/svg"><path fill="#ffdd00" d="m35.6773,11.9288c0.6671,-0.8351 1.0686,-1.8915 1.0686,-3.0442c0,-2.6966 -2.1857,-4.8824 -4.8822,-4.8824c-2.6964,0 -4.8822,2.1857 -4.8822,4.8824c0,1.7722 0.9475,3.3191 2.3595,4.1744l0,0c-11.1246,4.2255 -15.8426,19.1951 -5.6877,25.8184c5.8808,2.4411 9.0982,-0.5546 10.5408,-2.4411c-1.2200,0.5548 -1.9971,0.5548 -3.3282,0.3331c-16.8613,-2.7644 -4.7013,-29.682 15.4231,-15.4237c1.7653,1.1171 2.9751,1.3966 4.1846,0.186c1.2106,-1.2095 0.894,-3.0891 -0.3348,-4.0948c-5.1615,-3.882 -10.0864,-5.4777 -14.4615,-5.508l0,0l0,0z"/><path fill="#00703c" d="m52.1119,35.9397c0.8348,0.6671 1.8924,1.0686 3.0442,1.0686c2.6964,0 4.8822,-2.186 4.8822,-4.8822c0,-2.6962 -2.1855,-4.8822 -4.8822,-4.8822c-1.7713,0 -3.3186,0.9464 -4.1744,2.3597l0.0006,-0.0008c-4.2253,-11.124 -19.1957,-15.8428 -25.8182,-5.6868c-2.4422,5.8808 0.5546,9.098 2.4402,10.5406c-0.5548,-1.2208 -0.5548,-1.9973 -0.3324,-3.3288c2.7646,-16.8604 29.6815,-4.7015 15.4231,15.424c-1.1171,1.7648 -1.3957,2.9749 -0.186,4.1849c1.2097,1.2097 3.0902,0.8939 4.0948,-0.3353c3.882,-5.1615 5.4786,-10.0864 5.508,-14.4615l0,0l0,0l0,0z"/><path fill="#005695" d="m27.6962,51.9764c-0.6897,0.8168 -1.1188,1.8633 -1.1484,3.016c-0.07,2.6953 2.0577,4.9364 4.7533,5.0075c2.6957,0.07 4.9377,-2.0588 5.0077,-4.7546c0.046,-1.7713 -0.8602,-3.3417 -2.2497,-4.2337l0,0c11.2313,-3.934 16.3377,-18.7764 6.3584,-25.6619c-5.8157,-2.5935 -9.1104,0.3184 -10.6013,2.1657c1.234,-0.5224 2.0108,-0.5026 3.3357,-0.2455c16.7833,3.2028 3.9277,29.7951 -15.8195,15.0173c-1.7357,-1.1635 -2.9377,-1.4737 -4.1786,-0.2957c-1.2408,1.178 -0.9735,3.0657 0.2275,4.1026c5.06,4.014 9.9413,5.7388 14.3148,5.8824l0,0l0,0z"/><path fill="#0194d3" d="m11.8879,28.1482c-0.836,-0.6671 -1.8926,-1.0686 -3.0451,-1.0686c-2.6966,0.0008 -4.8815,2.1875 -4.8806,4.884c0.0011,2.6966 2.1877,4.8822 4.8833,4.8804c1.7722,0 3.3195,-0.9475 4.1744,-2.3604c0,0.0008 -0.0008,0.0008 -0.0008,0.0008c4.2288,11.1231 19.2011,15.8366 25.8211,5.6793c2.4386,-5.8808 -0.558,-9.0982 -2.4444,-10.5402c0.5555,1.2202 0.5555,1.9973 0.3331,3.3284c-2.7595,16.862 -29.6797,4.7104 -15.4284,-15.4188c1.1173,-1.7653 1.396,-2.9748 0.1862,-4.1848c-1.2106,-1.2097 -3.0913,-0.8928 -4.0957,0.3357c-3.8802,5.1633 -5.4742,10.0891 -5.5028,14.4642l0,0l0,0z"/></svg>
