<svg version="1.1"
	 id="liberia" xmlns:cc="http://creativecommons.org/ns#" xmlns:dc="http://purl.org/dc/elements/1.1/" xmlns:rdf="http://www.w3.org/1999/02/22-rdf-syntax-ns#"
	 xmlns:svg="http://www.w3.org/2000/svg"
	 xmlns="http://www.w3.org/2000/svg"
	 xmlns:xlink="http://www.w3.org/1999/xlink"
	 viewBox="0 0 154.6 90.2"
>
<style type="text/css">
	.st0{clip-path:url(#SVGID_2_);fill:#AE0037;}
	.st1{clip-path:url(#SVGID_4_);fill:#FFFFFF;}
	.st2{clip-path:url(#SVGID_6_);fill:#192967;}
	.st3{clip-path:url(#SVGID_8_);fill:#FFFFFF;}
	.st4{clip-path:url(#SVGID_10_);fill:#FFFFFF;}
	.st5{clip-path:url(#SVGID_12_);fill:#FFFFFF;}
	.st6{clip-path:url(#SVGID_14_);fill:#FFFFFF;}
	.st7{clip-path:url(#SVGID_16_);fill:#FFFFFF;}
	.st8{clip-path:url(#SVGID_18_);fill:#FFFFFF;}
	.st9{clip-path:url(#SVGID_20_);fill:#FFFFFF;}
	.st10{clip-path:url(#SVGID_22_);fill:#FFFFFF;}
	.st11{clip-path:url(#SVGID_24_);fill:#FFFFFF;}
	.st12{clip-path:url(#SVGID_26_);fill:#FFFFFF;}
</style>
<g>
	<g>
		<defs>
			<rect id="SVGID_1_" x="-1" y="-0.6" width="155.3" height="90.6"/>
		</defs>
		<clipPath id="SVGID_2_">
			<use xlink:href="#SVGID_1_"  style="overflow:visible;"/>
		</clipPath>
		<path class="st0" d="M40.2-0.6L-1,48.8V57l4.1,4.1L-1,65.2v8.2l4.1,4.1L-1,81.7v8.2h155.3v-8.2l-4.1-4.1l4.1-4.1v-8.2l-4.1-4.1
			l4.1-4.1v-8.2l-4.1-4.1l4.1-4.1v-8.2l-4.1-4.1l4.1-4.1v-8.2l-4.1-4.1l4.1-4.1v-8.2H40.2z"/>
	</g>
</g>
<g>
	<g>
		<defs>
			<rect id="SVGID_3_" x="-1" y="-0.6" width="155.3" height="90.6"/>
		</defs>
		<clipPath id="SVGID_4_">
			<use xlink:href="#SVGID_3_"  style="overflow:visible;"/>
		</clipPath>
		<path class="st1" d="M-1,81.7h155.3v-8.2H-1V81.7 M-1,65.2h155.3V57H-1V65.2 M40.2,7.6L-1,40.5v8.2h155.3v-8.2H40.2L32,32.3h122.3
			v-8.2H32v-8.2h122.3V7.6H40.2"/>
	</g>
</g>
<g>
	<g>
		<defs>
			<rect id="SVGID_5_" x="-1" y="-0.6" width="155.3" height="90.6"/>
		</defs>
		<clipPath id="SVGID_6_">
			<use xlink:href="#SVGID_5_"  style="overflow:visible;"/>
		</clipPath>
		<path class="st2" d="M-1-0.6h41.2v41.2H-1V-0.6z"/>
	</g>
</g>
<g>
	<g>
		<g>
			<defs>
				<rect id="SVGID_7_" x="-1" y="-0.6" width="155.3" height="90.6"/>
			</defs>
			<clipPath id="SVGID_8_">
				<use xlink:href="#SVGID_7_"  style="overflow:visible;"/>
			</clipPath>
			<path class="st3" d="M19.6,7.6l-3.8,11.7l7,2.3L19.6,7.6z"/>
		</g>
	</g>
	<g>
		<g>
			<defs>
				<rect id="SVGID_9_" x="-1" y="-0.6" width="155.3" height="90.6"/>
			</defs>
			<clipPath id="SVGID_10_">
				<use xlink:href="#SVGID_9_"  style="overflow:visible;"/>
			</clipPath>
			<path class="st4" d="M19.6,7.6l3.8,11.7l-7,2.3L19.6,7.6z"/>
		</g>
	</g>
	<g>
		<g>
			<defs>
				<rect id="SVGID_11_" x="-1" y="-0.6" width="155.3" height="90.6"/>
			</defs>
			<clipPath id="SVGID_12_">
				<use xlink:href="#SVGID_11_"  style="overflow:visible;"/>
			</clipPath>
			<path class="st5" d="M31.4,16.1H19v7.4L31.4,16.1z"/>
		</g>
	</g>
	<g>
		<g>
			<defs>
				<rect id="SVGID_13_" x="-1" y="-0.6" width="155.3" height="90.6"/>
			</defs>
			<clipPath id="SVGID_14_">
				<use xlink:href="#SVGID_13_"  style="overflow:visible;"/>
			</clipPath>
			<path class="st6" d="M31.4,16.1l-10,7.3l-4.4-6L31.4,16.1z"/>
		</g>
	</g>
	<g>
		<g>
			<defs>
				<rect id="SVGID_15_" x="-1" y="-0.6" width="155.3" height="90.6"/>
			</defs>
			<clipPath id="SVGID_16_">
				<use xlink:href="#SVGID_15_"  style="overflow:visible;"/>
			</clipPath>
			<path class="st7" d="M26.9,29.9l-3.8-11.7l-7,2.3L26.9,29.9z"/>
		</g>
	</g>
	<g>
		<g>
			<defs>
				<rect id="SVGID_17_" x="-1" y="-0.6" width="155.3" height="90.6"/>
			</defs>
			<clipPath id="SVGID_18_">
				<use xlink:href="#SVGID_17_"  style="overflow:visible;"/>
			</clipPath>
			<path class="st8" d="M26.9,29.9l-10-7.3l4.4-6L26.9,29.9z"/>
		</g>
	</g>
	<g>
		<g>
			<defs>
				<rect id="SVGID_19_" x="-1" y="-0.6" width="155.3" height="90.6"/>
			</defs>
			<clipPath id="SVGID_20_">
				<use xlink:href="#SVGID_19_"  style="overflow:visible;"/>
			</clipPath>
			<path class="st9" d="M12.4,29.9l10-7.3l-4.4-6L12.4,29.9z"/>
		</g>
	</g>
	<g>
		<g>
			<defs>
				<rect id="SVGID_21_" x="-1" y="-0.6" width="155.3" height="90.6"/>
			</defs>
			<clipPath id="SVGID_22_">
				<use xlink:href="#SVGID_21_"  style="overflow:visible;"/>
			</clipPath>
			<path class="st10" d="M12.4,29.9l3.8-11.7l7,2.3L12.4,29.9z"/>
		</g>
	</g>
	<g>
		<g>
			<defs>
				<rect id="SVGID_23_" x="-1" y="-0.6" width="155.3" height="90.6"/>
			</defs>
			<clipPath id="SVGID_24_">
				<use xlink:href="#SVGID_23_"  style="overflow:visible;"/>
			</clipPath>
			<path class="st11" d="M7.9,16.1l10,7.3l4.4-6L7.9,16.1z"/>
		</g>
	</g>
	<g>
		<g>
			<defs>
				<rect id="SVGID_25_" x="-1" y="-0.6" width="155.3" height="90.6"/>
			</defs>
			<clipPath id="SVGID_26_">
				<use xlink:href="#SVGID_25_"  style="overflow:visible;"/>
			</clipPath>
			<path class="st12" d="M7.9,16.1h12.4v7.4L7.9,16.1z"/>
		</g>
	</g>
</g>
</svg>
