<svg version="1.0" id="togo" xmlns="http://www.w3.org/2000/svg" xmlns:xlink="http://www.w3.org/1999/xlink" x="0px" y="0px"
	 viewBox="5 35 150 90" enable-background="new 0 0 160 160" xml:space="preserve">
<g>
	<defs>
		<rect id="SVGID_1_" x="2.934" y="35.32" width="154.23" height="89.97"/>
	</defs>
	<clipPath id="SVGID_2_">
		<use xlink:href="#SVGID_1_"  overflow="visible"/>
	</clipPath>
	<path clip-path="url(#SVGID_2_)" fill="#2D6B4F" d="M2.934,35.32h154.23v89.97H2.934L2.934,35.32z"/>
</g>
<g>
	<g>
		<defs>
			<rect id="SVGID_3_" x="2.934" y="35.32" width="154.23" height="89.97"/>
		</defs>
		<clipPath id="SVGID_4_">
			<use xlink:href="#SVGID_3_"  overflow="visible"/>
		</clipPath>
		<path clip-path="url(#SVGID_4_)" fill="#F5CD28" d="M2.934,53.32h154.23v17.991H2.934L2.934,53.32z"/>
	</g>
	<g>
		<defs>
			<rect id="SVGID_5_" x="2.934" y="35.32" width="154.23" height="89.97"/>
		</defs>
		<clipPath id="SVGID_6_">
			<use xlink:href="#SVGID_5_"  overflow="visible"/>
		</clipPath>
		<path clip-path="url(#SVGID_6_)" fill="#F5CD28" d="M2.934,89.31h154.23v17.996H2.934L2.934,89.31z"/>
	</g>
</g>
<g>
	<defs>
		<rect id="SVGID_7_" x="2.934" y="35.32" width="154.23" height="89.97"/>
	</defs>
	<clipPath id="SVGID_8_">
		<use xlink:href="#SVGID_7_"  overflow="visible"/>
	</clipPath>
	<path clip-path="url(#SVGID_8_)" fill="#C0003B" d="M2.934,35.32h53.981v53.982H2.934L2.934,35.32z"/>
</g>
<g>
	<g>
		<defs>
			<rect id="SVGID_9_" x="2.934" y="35.32" width="154.23" height="89.97"/>
		</defs>
		<clipPath id="SVGID_10_">
			<use xlink:href="#SVGID_9_"  overflow="visible"/>
		</clipPath>
		<path clip-path="url(#SVGID_10_)" fill="#FFFFFF" d="M29.925,45.22l-5.284,16.26l8.129,2.64L29.925,45.22z"/>
	</g>
	<g>
		<defs>
			<rect id="SVGID_11_" x="2.934" y="35.32" width="154.23" height="89.97"/>
		</defs>
		<clipPath id="SVGID_12_">
			<use xlink:href="#SVGID_11_"  overflow="visible"/>
		</clipPath>
		<path clip-path="url(#SVGID_12_)" fill="#FFFFFF" d="M29.925,45.22l5.285,16.26l-8.13,2.64L29.925,45.22z"/>
	</g>
	<g>
		<defs>
			<rect id="SVGID_13_" x="2.934" y="35.32" width="154.23" height="89.97"/>
		</defs>
		<clipPath id="SVGID_14_">
			<use xlink:href="#SVGID_13_"  overflow="visible"/>
		</clipPath>
		<path clip-path="url(#SVGID_14_)" fill="#FFFFFF" d="M46.18,57.03H29.09v8.55L46.18,57.03z"/>
	</g>
	<g>
		<defs>
			<rect id="SVGID_15_" x="2.934" y="35.32" width="154.23" height="89.97"/>
		</defs>
		<clipPath id="SVGID_16_">
			<use xlink:href="#SVGID_15_"  overflow="visible"/>
		</clipPath>
		<path clip-path="url(#SVGID_16_)" fill="#FFFFFF" d="M46.18,57.03L32.35,67.08l-5.02-6.92L46.18,57.03z"/>
	</g>
	<g>
		<defs>
			<rect id="SVGID_17_" x="2.934" y="35.32" width="154.23" height="89.97"/>
		</defs>
		<clipPath id="SVGID_18_">
			<use xlink:href="#SVGID_17_"  overflow="visible"/>
		</clipPath>
		<path clip-path="url(#SVGID_18_)" fill="#FFFFFF" d="M13.665,57.03l13.829,10.05l5.03-6.92L13.665,57.03z"/>
	</g>
	<g>
		<defs>
			<rect id="SVGID_19_" x="2.934" y="35.32" width="154.23" height="89.97"/>
		</defs>
		<clipPath id="SVGID_20_">
			<use xlink:href="#SVGID_19_"  overflow="visible"/>
		</clipPath>
		<path clip-path="url(#SVGID_20_)" fill="#FFFFFF" d="M13.665,57.03h17.1v8.55L13.665,57.03z"/>
	</g>
	<g>
		<defs>
			<rect id="SVGID_21_" x="2.934" y="35.32" width="154.23" height="89.97"/>
		</defs>
		<clipPath id="SVGID_22_">
			<use xlink:href="#SVGID_21_"  overflow="visible"/>
		</clipPath>
		<path clip-path="url(#SVGID_22_)" fill="#FFFFFF" d="M39.971,76.15L34.69,59.889l-8.129,2.641L39.971,76.15z"/>
	</g>
	<g>
		<defs>
			<rect id="SVGID_23_" x="2.934" y="35.32" width="154.23" height="89.97"/>
		</defs>
		<clipPath id="SVGID_24_">
			<use xlink:href="#SVGID_23_"  overflow="visible"/>
		</clipPath>
		<path clip-path="url(#SVGID_24_)" fill="#FFFFFF" d="M39.971,76.15L26.14,66.09l5.03-6.91L39.971,76.15z"/>
	</g>
	<g>
		<defs>
			<rect id="SVGID_25_" x="2.934" y="35.32" width="154.23" height="89.97"/>
		</defs>
		<clipPath id="SVGID_26_">
			<use xlink:href="#SVGID_25_"  overflow="visible"/>
		</clipPath>
		<path clip-path="url(#SVGID_26_)" fill="#FFFFFF" d="M19.874,76.15l13.831-10.06l-5.02-6.91L19.874,76.15z"/>
	</g>
	<g>
		<defs>
			<rect id="SVGID_27_" x="2.934" y="35.32" width="154.23" height="89.97"/>
		</defs>
		<clipPath id="SVGID_28_">
			<use xlink:href="#SVGID_27_"  overflow="visible"/>
		</clipPath>
		<path clip-path="url(#SVGID_28_)" fill="#FFFFFF" d="M19.874,76.15l5.286-16.261l8.13,2.641L19.874,76.15z"/>
	</g>
</g>
</svg>
