<?xml version="1.0" encoding="utf-8"?>
<!-- Generator: Adobe Illustrator 19.1.0, SVG Export Plug-In . SVG Version: 6.00 Build 0)  -->
<svg version="1.1" id="vietnam" xmlns="http://www.w3.org/2000/svg" xmlns:xlink="http://www.w3.org/1999/xlink" x="0px" y="0px"
	 viewBox="69 172 750 450" style="enable-background:new 69 172 750 450;" xml:space="preserve">
<style type="text/css">
	.st0{fill:#E8112D;}
	.st1{fill:#FFEF00;}
	.st2{clip-path:url(#SVGID_2_);}
	.st3{clip-path:url(#SVGID_4_);}
	.st4{fill:#FE0000;}
	.st5{fill:#FEFE00;}
</style>
<rect x="69" y="172" class="st0" width="750" height="450"/>
<g>
	<g>
		<g id="r4">
			<path id="r1" class="st1" d="M1250.8,1612c25.2,66-28.8,168,25.2,216c-18-72,42-150,25.2-216
				C1284.4,1546,1225.6,1546,1250.8,1612z"/>
			<g transform="rotate(90)">
				<path id="r1_1_" class="st1" d="M952,1262.8c-66,25.2-168-28.8-216,25.2c72-18,150,42,216,25.2
					C1018,1296.4,1018,1237.6,952,1262.8z"/>
			</g>
			<g transform="rotate(180)">
				<path id="r1_2_" class="st1" d="M1301.2,964c-25.2-66,28.8-168-25.2-216c18,72-42,150-25.2,216
					C1267.6,1030,1326.4,1030,1301.2,964z"/>
			</g>
			<g transform="rotate(270)">
				<path id="r1_3_" class="st1" d="M1600,1313.2c66-25.2,168,28.8,216-25.2c-72,18-150-42-216-25.2
					C1534,1279.6,1534,1338.4,1600,1313.2z"/>
			</g>
		</g>
		<g>
			<g id="r4_1_">
				<path id="r1_4_" class="st1" d="M1151.9,1588.4c3.6,70.6-79.3,150.9-42.8,213.2c5.1-74,86.3-129.7,90.7-197.6
					S1148.3,1517.8,1151.9,1588.4z"/>
				<g transform="rotate(90)">
					<path id="r1_5_" class="st1" d="M975.6,1163.9c-70.6,3.6-150.9-79.3-213.2-42.8c74,5.1,129.7,86.3,197.6,90.7
						S1046.2,1160.3,975.6,1163.9z"/>
				</g>
				<g transform="rotate(180)">
					<path id="r1_6_" class="st1" d="M1400.1,987.6c-3.6-70.6,79.3-150.9,42.8-213.2c-5.1,74-86.3,129.7-90.7,197.6
						S1403.7,1058.2,1400.1,987.6z"/>
				</g>
				<g transform="rotate(18)">
					<path id="r1_7_" class="st1" d="M1576.4,1412.1c70.6-3.6,150.9,79.3,213.2,42.8c-74-5.1-129.7-86.3-197.6-90.7
						S1505.8,1415.7,1576.4,1412.1z"/>
				</g>
			</g>
			<g>
				<g id="r4_2_">
					<path id="r1_8_" class="st1" d="M1065.2,1535.3c-18.4,68.2-122,119-106.6,189.6c27.8-68.8,122.1-96.7,147.3-159.9
						C1131.1,1501.7,1083.6,1467.1,1065.2,1535.3z"/>
					<g transform="rotate(90)">
						<path id="r1_9_" class="st1" d="M1028.7,1077.2c-68.2-18.4-119-122-189.6-106.6c68.8,27.8,96.7,122.1,159.9,147.3
							C1062.3,1143.1,1096.9,1095.6,1028.7,1077.2z"/>
					</g>
					<g transform="rotate(180)">
						<path id="r1_10_" class="st1" d="M1486.8,1040.7c18.4-68.2,122-119,106.6-189.6c-27.8,68.8-122.1,96.7-147.3,159.9
							C1420.9,1074.3,1468.4,1108.9,1486.8,1040.7z"/>
					</g>
					<g transform="rotate(36)">
						<path id="r1_11_" class="st1" d="M1523.3,1498.8c68.2,18.4,119,122,189.6,106.6c-68.8-27.8-96.7-122.1-159.9-147.3
							C1489.7,1432.9,1455.1,1480.4,1523.3,1498.8z"/>
					</g>
				</g>
				<g>
					<g id="r4_3_">
						<path id="r1_12_" class="st1" d="M999.1,1458.1c-38.6,59.2-152.8,75.4-159.9,147.3c47.7-56.9,146-54.2,189.6-106.6
							C1072.2,1446.4,1037.6,1398.9,999.1,1458.1z"/>
						<g transform="rotate(90)">
							<path id="r1_13_" class="st1" d="M1105.9,1011.1c-59.2-38.6-75.4-152.8-147.3-159.9c56.9,47.7,54.2,146,106.6,189.6
								C1117.6,1084.2,1165.1,1049.6,1105.9,1011.1z"/>
						</g>
						<g transform="rotate(180)">
							<path id="r1_14_" class="st1" d="M1552.9,1117.9c38.6-59.2,152.8-75.4,159.9-147.3c-47.7,56.9-146,54.2-189.6,106.6
								C1479.8,1129.6,1514.4,1177.1,1552.9,1117.9z"/>
						</g>
						<g transform="rotate(54)">
							<path id="r1_15_" class="st1" d="M1446.1,1564.9c59.2,38.6,75.4,152.8,147.3,159.9c-56.9-47.7-54.2-146-106.6-189.6
								C1434.4,1491.8,1386.9,1526.4,1446.1,1564.9z"/>
						</g>
					</g>
					<g id="r20" transform="scale(0.25)">
						<g id="r4_4_">
							<path id="r1_16_" class="st1" d="M960.1,1364.2c-55,44.4-168.7,24.5-197.6,90.7c62.9-39.4,155.6-6.4,213.2-42.8
								S1015.1,1319.8,960.1,1364.2z"/>
							<g transform="rotate(90)">
								<path id="r1_17_" class="st1" d="M1199.8,972.1c-44.4-55-24.5-168.7-90.7-197.6c39.4,62.9,6.4,155.6,42.8,213.2
									S1244.2,1027.1,1199.8,972.1z"/>
							</g>
							<g transform="rotate(180)">
								<path id="r1_18_" class="st1" d="M1591.9,1211.8c55-44.4,168.7-24.5,197.6-90.7c-62.9,39.4-155.6,6.4-213.2,42.8
									S1536.9,1256.2,1591.9,1211.8z"/>
							</g>
							<g transform="rotate(72)">
								<path id="r1_19_" class="st1" d="M1352.2,1603.9c44.4,55,24.5,168.7,90.7,197.6c-39.4-62.9-6.4-155.6-42.8-213.2
									S1307.8,1548.9,1352.2,1603.9z"/>
							</g>
						</g>
					</g>
					<g>
						<g>
							<g id="r4_5_">
								<path id="r1_20_" class="st1" d="M4801.7,6416.3c58.3,276.5-218.9,645.7-35.6,869.1c-26.1-295.7,259.8-566.3,234.7-837.6
									C4975.7,6176.6,4743.4,6139.8,4801.7,6416.3z"/>
								<g transform="rotate(90)">
									<path id="r1_21_" class="st1" d="M3839.7,4849.7c-276.5,58.3-645.7-218.9-869.1-35.6c295.7-26.1,566.3,259.8,837.6,234.7
										C4079.4,5023.7,4116.2,4791.4,3839.7,4849.7z"/>
								</g>
								<g transform="rotate(180)">
									<path id="r1_22_" class="st1" d="M5406.3,3887.7c-58.3-276.5,218.9-645.7,35.6-869.1c26.1,295.7-259.8,566.3-234.7,837.6
										C5232.3,4127.4,5464.6,4164.2,5406.3,3887.7z"/>
								</g>
								<g transform="rotate(270)">
									<path id="r1_23_" class="st1" d="M6368.3,5454.3c276.5-58.3,645.7,218.9,869.1,35.6c-295.7,26.1-566.3-259.8-837.6-234.7
										C6128.6,5280.3,6091.8,5512.6,6368.3,5454.3z"/>
								</g>
							</g>
							<g>
								<g id="r4_6_">
									<path id="r1_24_" class="st1" d="M4425.8,6261c-30,281-407.7,546.5-302.4,815.6c66.6-289.3,422.1-458.3,482.1-724.1
										C4665.4,6086.8,4455.9,5980,4425.8,6261z"/>
									<g transform="rotate(90)">
										<path id="r1_25_" class="st1" d="M3995,4473.8c-281-30-546.5-407.7-815.6-302.4c289.3,66.6,458.3,422.1,724.1,482.1
											C4169.2,4713.4,4276,4503.9,3995,4473.8z"/>
									</g>
									<g transform="rotate(180)">
										<path id="r1_26_" class="st1" d="M5782.2,4043c30-281,407.7-546.5,302.4-815.6c-66.6,289.3-422.1,458.3-482.1,724.1
											C5542.6,4217.2,5752.1,4324,5782.2,4043z"/>
									</g>
									<g transform="rotate(18)">
										<path id="r1_27_" class="st1" d="M6213,5830.2c281,30,546.5,407.7,815.6,302.4c-289.3-66.6-458.3-422.1-724.1-482.1
											C6038.8,5590.6,5932,5800.1,6213,5830.2z"/>
									</g>
								</g>
								<g>
									<g id="r4_7_">
										<path id="r1_28_" class="st1" d="M4116.3,5997.1c-115.4,258-556.6,393.7-539.7,682.2c152.7-254.6,543.1-305.5,682.2-539.7
											C4398,5905.5,4231.7,5739.2,4116.3,5997.1z"/>
										<g transform="rotate(90)">
											<path id="r1_29_" class="st1" d="M4258.9,4164.3c-258-115.4-393.7-556.6-682.2-539.7
												c254.6,152.7,305.5,543.1,539.7,682.2C4350.5,4446,4516.8,4279.7,4258.9,4164.3z"/>
										</g>
										<g transform="rotate(180)">
											<path id="r1_30_" class="st1" d="M6091.7,4306.9c115.4-258,556.6-393.7,539.7-682.2
												c-152.7,254.6-543.1,305.5-682.2,539.7C5810,4398.5,5976.3,4564.8,6091.7,4306.9z"/>
										</g>
										<g transform="rotate(36)">
											<path id="r1_31_" class="st1" d="M5949.1,6139.7c258,115.4,393.7,556.6,682.2,539.7
												c-254.6-152.7-305.5-543.1-539.7-682.2C5857.5,5858,5691.2,6024.3,5949.1,6139.7z"/>
										</g>
									</g>
									<g transform="translate(125,75)">
										<g id="r4_8_">
											<path id="r1_32_" class="st1" d="M3903.5,5650.6c-189.5,209.7-651.1,202.4-724.1,482.1
												c223.9-194.9,610.9-122.7,815.6-302.4S4093,5440.9,3903.5,5650.6z"/>
											<g transform="rotate(90)">
												<path id="r1_33_" class="st1" d="M4605.4,3951.5c-209.7-189.5-202.4-651.1-482.1-724.1
													c194.9,223.9,122.7,610.9,302.4,815.6S4815.1,4141,4605.4,3951.5z"/>
											</g>
											<g transform="rotate(180)">
												<path id="r1_34_" class="st1" d="M6304.5,4653.4c189.5-209.7,651.1-202.4,724.1-482.1
													c-223.9,194.9-610.9,122.7-815.6,302.4C6008.3,4653.5,6115,4863.1,6304.5,4653.4z"/>
											</g>
											<g transform="rotate(54)">
												<path id="r1_35_" class="st1" d="M5602.6,6352.5c209.7,189.5,202.4,651.1,482.1,724.1
													c-194.9-223.9-122.7-610.9-302.4-815.6C5602.5,6056.3,5392.9,6163,5602.6,6352.5z"/>
											</g>
										</g>
										<g id="r20_1_" transform="scale(0.25)">
											<g id="r4_9_">
												<path id="r1_36_" class="st1" d="M3808.2,5255.2c-245,140.9-681.7-8.7-837.6,234.7c273.2-116.2,618.9,72.1,869.1-35.6
													S4053.2,5114.3,3808.2,5255.2z"/>
												<g transform="rotate(90)">
													<path id="r1_37_" class="st1" d="M5000.8,3856.2c-140.9-245,8.7-681.7-234.7-837.6c116.2,273.2-72.1,618.9,35.6,869.1
														S5141.7,4101.2,5000.8,3856.2z"/>
												</g>
												<g transform="rotate(180)">
													<path id="r1_38_" class="st1" d="M6399.8,5048.8c245-140.9,681.7,8.7,837.6-234.7c-273.2,116.2-618.9-72.1-869.1,35.6
														S6154.8,5189.7,6399.8,5048.8z"/>
												</g>
												<g transform="rotate(9)">
													<path id="r1_39_" class="st1" d="M5207.2,6447.8c140.9,245-8.7,681.7,234.7,837.6c-116.2-273.2,72.1-618.9-35.6-869.1
														S5066.3,6202.8,5207.2,6447.8z"/>
												</g>
											</g>
										</g>
										<circle class="st0" cx="5104" cy="5152" r="1296"/>
										<circle class="st1" cx="5104" cy="5080" r="1080"/>
										<g>
											<defs>
												<circle id="SVGID_1_" cx="5104" cy="5152" r="75"/>
											</defs>
											<clipPath id="SVGID_2_">
												<use xlink:href="#SVGID_1_"  style="overflow:visible;"/>
											</clipPath>
											<g id="x" class="st2">
												<path class="st0" d="M3997.3,6016c-0.2-1000.9,811.1-1812.4,1811.9-1812.6c1000.9-0.2,1812.4,811.1,1812.6,1811.9
													c0,0.2,0,0.4,0,0.6h14.6c0-961.3-779.2-1740.5-1740.5-1740.5S4155.5,5054.7,4155.5,6016H3997.3z"/>
												<path class="st0" d="M4259.1,6016c0-935.8,758.6-1694.5,1694.5-1694.5S7648.1,5080.2,7648.1,6016h20.3
													c0-899.3-729.1-1628.4-1628.4-1628.4S4411.6,5116.7,4411.6,6016H4259.1z"/>
												<path class="st0" d="M6097.6,4429.5c-876.2,0-1586.5,710.3-1586.5,1586.5s710.3,1586.5,1586.5,1586.5l86.4-59.2
													c-843.5,0-1527.4-683.8-1527.4-1527.3s683.8-1527.4,1527.3-1527.4c0,0,0,0,0.1,0L6097.6,4429.5z"/>
											</g>
										</g>
										<g transform="scale(-1,1)">
											<g>
												<defs>
													<circle id="SVGID_3_" cx="5104" cy="5152" r="75"/>
												</defs>
												<clipPath id="SVGID_4_">
													<use xlink:href="#SVGID_3_"  style="overflow:visible;"/>
												</clipPath>
												<g id="x_1_" class="st3">
													<path class="st0" d="M6210.7,6016c0.2-1000.9-811.1-1812.4-1811.9-1812.6c-1000.9-0.2-1812.4,811.1-1812.6,1811.9
														c0,0.2,0,0.4,0,0.6h-14.6c0-961.3,779.2-1740.5,1740.5-1740.5S6052.5,5054.7,6052.5,6016H6210.7z"/>
													<path class="st0" d="M5948.9,6016c0-935.8-758.6-1694.5-1694.5-1694.5S2559.9,5080.2,2559.9,6016h-20.3
														c0-899.3,729.1-1628.4,1628.4-1628.4S5796.4,5116.7,5796.4,6016H5948.9z"/>
													<path class="st0" d="M4110.4,4429.5c876.2,0,1586.5,710.3,1586.5,1586.5s-710.3,1586.5-1586.5,1586.5l-86.4-59.2
														c843.5,0,1527.4-683.8,1527.4-1527.3s-683.8-1527.4-1527.3-1527.4c0,0,0,0-0.1,0L4110.4,4429.5z"/>
												</g>
											</g>
										</g>
									</g>
								</g>
							</g>
						</g>
					</g>
				</g>
			</g>
		</g>
	</g>
</g>
<rect x="68" y="172" class="st4" width="750" height="450"/>
<polygon class="st5" points="443,286.1 479,359.1 559.7,370.8 501.3,427.7 515.1,507.9 443,470 370.9,507.9 384.7,427.7
	326.3,370.8 407,359.1 "/>
</svg>
