<svg xmlns:svg="http://www.w3.org/2000/svg" xmlns="http://www.w3.org/2000/svg" viewBox="0 0 160 160">
<style type="text/css">
	.st0{fill:#6D6D6D;}
</style>
<path class="st0" d="M140.2,48.1c0.8,0.7,1.6,1.6,2.4,2.8h-39.9V14.4c1.2,0.7,2.3,1.4,3,2.2L140.2,48.1z M100,60.8h46v81.6
	c0,2.1-0.8,3.8-2.4,5.3s-3.5,2.2-5.8,2.2H24.1c-2.3,0-4.2-0.7-5.8-2.2c-1.6-1.4-2.4-3.2-2.4-5.3V18.7c0-2.1,0.8-3.8,2.4-5.3
	c1.6-1.4,3.5-2.2,5.8-2.2h67.7v42c0,2.1,0.8,3.8,2.4,5.3S97.7,60.8,100,60.8z M113.5,117.6v-4.9c0-0.7-0.3-1.3-0.8-1.8
	c-0.5-0.5-1.2-0.7-1.9-0.7H51.2c-0.8,0-1.4,0.2-1.9,0.7c-0.5,0.5-0.8,1.1-0.8,1.8v4.9c0,0.7,0.3,1.3,0.8,1.8
	c0.5,0.5,1.2,0.7,1.9,0.7h59.6c0.8,0,1.4-0.2,1.9-0.7C113.2,119,113.5,118.4,113.5,117.6z M113.5,97.9v-4.9c0-0.7-0.3-1.3-0.8-1.8
	c-0.5-0.5-1.2-0.7-1.9-0.7H51.2c-0.8,0-1.4,0.2-1.9,0.7c-0.5,0.5-0.8,1.1-0.8,1.8v4.9c0,0.7,0.3,1.3,0.8,1.8
	c0.5,0.5,1.2,0.7,1.9,0.7h59.6c0.8,0,1.4-0.2,1.9-0.7C113.2,99.2,113.5,98.6,113.5,97.9z M113.5,78.1v-4.9c0-0.7-0.3-1.3-0.8-1.8
	c-0.5-0.5-1.2-0.7-1.9-0.7H51.2c-0.8,0-1.4,0.2-1.9,0.7c-0.5,0.5-0.8,1.1-0.8,1.8v4.9c0,0.7,0.3,1.3,0.8,1.8
	c0.5,0.5,1.2,0.7,1.9,0.7h59.6c0.8,0,1.4-0.2,1.9-0.7C113.2,79.4,113.5,78.8,113.5,78.1z"/>
</svg>
