<svg xmlns:svg="http://www.w3.org/2000/svg" xmlns="http://www.w3.org/2000/svg" viewBox="0 0 160 160">
<style type="text/css">
	.st0{fill:#6D6D6D;}
</style>
<path class="st0" d="M131.2,48.1c0.7,0.7,1.3,1.6,2,2.8H99.7V14.4c1,0.7,1.9,1.4,2.6,2.2L131.2,48.1z M97.4,60.8H136v81.6
	c0,2.1-0.7,3.8-2,5.3c-1.3,1.4-2.9,2.2-4.8,2.2H33.8c-1.9,0-3.5-0.7-4.8-2.2s-2-3.2-2-5.3V18.7c0-2.1,0.7-3.8,2-5.3s2.9-2.2,4.8-2.2
	h56.8v42c0,2.1,0.7,3.8,2,5.3C93.9,60,95.5,60.8,97.4,60.8z M108.8,117.6v-4.9c0-0.7-0.2-1.3-0.6-1.8c-0.4-0.5-1-0.7-1.6-0.7h-50
	c-0.7,0-1.2,0.2-1.6,0.7c-0.4,0.5-0.6,1.1-0.6,1.8v4.9c0,0.7,0.2,1.3,0.6,1.8c0.4,0.5,1,0.7,1.6,0.7h50c0.7,0,1.2-0.2,1.6-0.7
	C108.5,119,108.8,118.4,108.8,117.6z M108.8,97.9v-4.9c0-0.7-0.2-1.3-0.6-1.8c-0.4-0.5-1-0.7-1.6-0.7h-50c-0.7,0-1.2,0.2-1.6,0.7
	c-0.4,0.5-0.6,1.1-0.6,1.8v4.9c0,0.7,0.2,1.3,0.6,1.8c0.4,0.5,1,0.7,1.6,0.7h50c0.7,0,1.2-0.2,1.6-0.7
	C108.5,99.2,108.8,98.6,108.8,97.9z M108.8,78.1v-4.9c0-0.7-0.2-1.3-0.6-1.8c-0.4-0.5-1-0.7-1.6-0.7h-50c-0.7,0-1.2,0.2-1.6,0.7
	c-0.4,0.5-0.6,1.1-0.6,1.8v4.9c0,0.7,0.2,1.3,0.6,1.8c0.4,0.5,1,0.7,1.6,0.7h50c0.7,0,1.2-0.2,1.6-0.7
	C108.5,79.4,108.8,78.8,108.8,78.1z"/>
</svg>
