<svg xmlns:svg="http://www.w3.org/2000/svg" xmlns="http://www.w3.org/2000/svg" version="1.1" viewBox="0 0 160 160"><path d="m 23.4285,141.7143 23.1428,0 0,-23.1429 -23.1428,0 0,23.1429 m 28.2857,0 25.7142,0 0,-23.1429 -25.7142,0 0,23.1429 m -28.2857,-28.2858 23.1428,0 0,-25.7142 -23.1428,0 0,25.7142 m 28.2857,0 25.7142,0 0,-25.7142 -25.7142,0 0,25.7142 M 23.4285,82.5714 l 23.1428,0 0,-23.1428 -23.1428,0 0,23.1428 m 59.1428,59.1428 25.7142,0 0,-23.1429 -25.7142,0 0,23.1429 m -30.8571,-59.1428 25.7142,0 0,-23.1428 -25.7142,0 0,23.1428 m 61.7142,59.1428 23.1428,0 0,-23.1429 -23.1428,0 0,23.1429 m -30.8571,-28.2858 25.7142,0 0,-25.7142 -25.7142,0 0,25.7142 m -28.2857,-69.4285 0,-23.1428 c -4.1e-5,-0.6963 -0.2678,-1.2856 -0.8035,-1.7678 -0.4821,-0.5356 -1.0714,-0.8034 -1.7678,-0.8035 l -5.1428,0 c -0.6964,1.2e-4 -1.3125,0.2679 -1.8482,0.8035 C 44.2410,19.5715 43.9999,20.1608 44,20.8571 l 0,23.1428 c -3.1e-5,0.6965 0.2410,1.3125 0.7232,1.8482 0.5356,0.4822 1.1517,0.7233 1.8482,0.7232 l 5.1428,0 c 0.6963,8e-5 1.2856,-0.2409 1.7678,-0.7232 0.5356,-0.5356 0.8035,-1.1517 0.8035,-1.8482 m 59.1428,69.4285 23.1428,0 0,-25.7142 -23.1428,0 0,25.7142 m -30.8571,-30.8570 25.7142,0 0,-23.1428 -25.7142,0 0,23.1428 m 30.8571,0 23.1428,0 0,-23.1428 -23.1428,0 0,23.1428 M 116,43.9999 116,20.8571 c -1.1e-4,-0.6963 -0.2679,-1.2856 -0.8035,-1.7678 -0.4822,-0.5356 -1.0715,-0.8034 -1.7678,-0.8035 l -5.1428,0 c -0.6965,1.2e-4 -1.3125,0.2679 -1.8482,0.8035 -0.4822,0.4822 -0.7233,1.0715 -0.7232,1.7678 l 0,23.1428 c -9e-5,0.6965 0.2409,1.3125 0.7232,1.8482 0.5356,0.4822 1.1516,0.7233 1.8482,0.7232 l 5.1428,0 c 0.6963,8e-5 1.2856,-0.2409 1.7678,-0.7232 0.5356,-0.5356 0.8034,-1.1517 0.8035,-1.8482 m 30.8571,-5.1428 0,102.8571 c -1.3e-4,2.7857 -1.0179,5.1964 -3.0535,7.2321 -2.0358,2.0357 -4.4465,3.0536 -7.2321,3.0536 l -113.1428,0 c -2.7857,0 -5.1964,-1.0179 -7.2321,-3.0536 -2.0357,-2.0357 -3.0535,-4.4464 -3.0535,-7.2321 l 0,-102.8571 c 0,-2.7856 1.0178,-5.1963 3.0535,-7.2321 2.0357,-2.0356 4.4464,-3.0534 7.2321,-3.0535 l 10.2857,0 0,-7.7142 c -2.1e-5,-3.5356 1.2589,-6.5623 3.7767,-9.0803 2.5178,-2.5177 5.5446,-3.7766 9.0803,-3.7767 l 5.1428,0 c 3.5356,1.2e-4 6.5624,1.2590 9.0803,3.7767 2.5178,2.5179 3.7767,5.5447 3.7767,9.0803 l 0,7.7142 30.8571,0 0,-7.7142 c -8.2e-5,-3.5356 1.2588,-6.5623 3.7767,-9.0803 2.5177,-2.5177 5.5445,-3.7766 9.0803,-3.7767 l 5.1428,0 c 3.5356,1.2e-4 6.5623,1.2590 9.0803,3.7767 2.5177,2.5179 3.7766,5.5447 3.7767,9.0803 l 0,7.7142 10.2857,0 c 2.7855,10e-5 5.1963,1.0179 7.2321,3.0535 2.0355,2.0358 3.0534,4.4465 3.0535,7.2321" /></svg>
