<svg xmlns:svg="http://www.w3.org/2000/svg" xmlns="http://www.w3.org/2000/svg" version="1.1" viewBox="0 0 160 160"><path d="M 110.6160,34.1965 C 101.1338,30.4466 90.9284,28.5716 80,28.5715 c -10.9286,9e-5 -21.1607,1.8750 -30.6964,5.625 -9.4821,3.6965 -17.0357,8.7054 -22.6607,15.0267 -5.5714,6.3215 -8.3571,13.1518 -8.3571,20.4910 -10e-6,6.0000 1.9017,11.7321 5.7053,17.1964 3.8571,5.4107 9.2678,10.0982 16.2321,14.0625 l 6.9910,4.0178 -2.1696,7.7142 c -1.2857,4.875 -3.1607,9.4822 -5.625,13.8215 8.1428,-3.375 15.5088,-7.9554 22.0982,-13.7411 l 3.4553,-3.0536 4.5803,0.4822 c 3.6963,0.4285 7.1785,0.6428 10.4464,0.6428 10.9284,0 21.1338,-1.8482 30.6160,-5.5446 9.5356,-3.7499 17.0891,-8.7856 22.6607,-15.1071 5.6248,-6.3213 8.4373,-13.1517 8.4375,-20.4910 -1.4e-4,-7.3392 -2.8126,-14.1695 -8.4375,-20.4910 -5.5715,-6.3213 -13.1251,-11.3302 -22.6607,-15.0267 m 31.7410,9.7232 c 6.4284,7.8750 9.6427,16.4732 9.6428,25.7946 -1.4e-4,9.3214 -3.2144,17.9464 -9.6428,25.875 -6.4287,7.8750 -15.1608,14.1160 -26.1964,18.7232 -11.0358,4.5535 -23.0893,6.8303 -36.1607,6.8303 -3.7500,0 -7.6339,-0.2143 -11.6517,-0.6428 -10.6071,9.375 -22.9286,15.8571 -36.9642,19.4464 -2.6250,0.75 -5.6785,1.3393 -9.1607,1.7679 l -0.4017,0 c -0.8035,-1e-4 -1.5267,-0.2947 -2.1696,-0.884 -0.6428,-0.5357 -1.0714,-1.2589 -1.2857,-2.1696 l 0,-0.08 c -0.1607,-0.2143 -0.1875,-0.5357 -0.0803,-0.9643 0.1607,-0.4285 0.2142,-0.6964 0.1607,-0.8035 -1.1e-5,-0.1072 0.1339,-0.375 0.4017,-0.8036 0.2678,-0.375 0.4285,-0.6161 0.4821,-0.7232 0.0535,-0.054 0.2410,-0.2679 0.5625,-0.6429 0.3214,-0.375 0.5357,-0.6161 0.6428,-0.7232 0.3749,-0.4286 1.2053,-1.3661 2.4910,-2.8125 1.2856,-1.3929 2.1964,-2.4107 2.7321,-3.0536 0.5892,-0.5893 1.4196,-1.6339 2.4910,-3.1339 1.1249,-1.5 2.0089,-2.8661 2.6517,-4.0982 0.6428,-1.2321 1.3660,-2.8125 2.1696,-4.7411 0.8035,-1.9285 1.4999,-3.9642 2.0892,-6.1071 C 26.7499,105.2054 20.1071,99.3126 15.2321,92.2947 10.4107,85.2769 8,77.7501 8,69.7143 8,60.3930 11.2142,51.7948 17.6428,43.9197 24.0714,35.9912 32.8035,29.7501 43.8392,25.1965 54.8749,20.5894 66.9285,18.2859 80,18.2858 c 13.0713,1.1e-4 25.1249,2.3036 36.1607,6.9107 11.0356,4.5536 19.7677,10.7947 26.1964,18.7232" /></svg>
