<svg version="1.1" xmlns:svg="http://www.w3.org/2000/svg"
	 xmlns="http://www.w3.org/2000/svg" viewBox="0 0 160 160">
<path d="M111.2,34.1c-9.3-3.7-19.4-5.5-30.1-5.5c-10.8,0-20.8,1.8-30.2,5.5c-9.3,3.6-16.8,8.6-22.3,14.8c-5.5,6.2-8.2,13-8.2,20.2
	c0,5.9,1.9,11.6,5.6,16.9c3.8,5.3,9.1,9.9,16,13.8l6.9,4l-2.1,7.6c-1.3,4.8-3.1,9.3-5.5,13.6c8-3.3,15.3-7.8,21.8-13.5l3.4-3
	l4.5,0.5c3.6,0.4,7.1,0.6,10.3,0.6c10.8,0,20.8-1.8,30.1-5.5c9.4-3.7,16.8-8.7,22.3-14.9c5.5-6.2,8.3-13,8.3-20.2
	c0-7.2-2.8-14-8.3-20.2C128,42.7,120.6,37.8,111.2,34.1 M144.6,43.5c6.6,8.1,9.9,16.9,9.9,26.4c0,9.5-3.3,18.4-9.9,26.5
	c-6.6,8.1-15.5,14.5-26.8,19.2c-11.3,4.7-23.7,7-37,7c-3.8,0-7.8-0.2-11.9-0.7c-10.9,9.6-23.5,16.2-37.9,19.9
	c-2.7,0.8-5.8,1.4-9.4,1.8h-0.4c-0.8,0-1.6-0.3-2.2-0.9c-0.7-0.5-1.1-1.3-1.3-2.2v-0.1c-0.2-0.2-0.2-0.5-0.1-1
	c0.2-0.4,0.2-0.7,0.2-0.8c0-0.1,0.1-0.4,0.4-0.8c0.3-0.4,0.4-0.6,0.5-0.7c0.1-0.1,0.2-0.3,0.6-0.7c0.3-0.4,0.5-0.6,0.7-0.7
	c0.4-0.4,1.2-1.4,2.6-2.9c1.3-1.4,2.2-2.5,2.8-3.1c0.6-0.6,1.5-1.7,2.6-3.2c1.2-1.5,2.1-2.9,2.7-4.2s1.4-2.9,2.2-4.9
	c0.8-2,1.5-4.1,2.1-6.3c-8.6-4.9-15.4-10.9-20.4-18.1C9.5,85.9,7,78.2,7,70c0-9.5,3.3-18.4,9.9-26.4c6.6-8.1,15.5-14.5,26.8-19.2
	c11.3-4.7,23.7-7.1,37-7.1c13.4,0,25.7,2.4,37,7.1C129.1,29,138,35.4,144.6,43.5"/>
</svg>
