<svg xmlns:svg="http://www.w3.org/2000/svg" xmlns="http://www.w3.org/2000/svg" version="1.1" viewBox="0 0 160 160"><path d="M 95.1071,95.1874 C 102.1784,88.1161 105.7141,79.6250 105.7142,69.7142 105.7141,59.8036 102.1784,51.3393 95.1071,44.3214 88.0892,37.2500 79.6249,33.7143 69.7142,33.7142 c -9.9107,9e-5 -18.4018,3.5358 -25.4732,10.6071 -7.0178,7.0179 -10.5268,15.4822 -10.5267,25.3928 -2e-5,9.9107 3.5089,18.4018 10.5267,25.4732 7.0713,7.0178 15.5624,10.5268 25.4732,10.5267 9.9106,2e-5 18.3749,-3.5089 25.3928,-10.5267 m 51.7499,41.3839 c -1.3e-4,2.7857 -1.0179,5.1964 -3.0535,7.2321 -2.0358,2.0357 -4.4465,3.0536 -7.2321,3.0536 -2.8929,0 -5.3036,-1.0179 -7.2321,-3.0536 l -27.5625,-27.4821 c -9.5893,6.6429 -20.2768,9.9643 -32.0625,9.9643 -7.6607,0 -15.0000,-1.4732 -22.0178,-4.4197 -6.9643,-2.9999 -12.9910,-7.0178 -18.0803,-12.0535 C 24.5803,104.7232 20.5624,98.6964 17.5625,91.7321 14.6160,84.7143 13.1428,77.3750 13.1428,69.7142 c 0,-7.6606 1.4732,-14.9731 4.4196,-21.9375 2.9999,-7.0177 7.0178,-13.0445 12.0535,-18.0803 5.0892,-5.0891 11.1160,-9.1070 18.0803,-12.0535 7.0178,-2.9998 14.3570,-4.4998 22.0178,-4.5 7.6606,1.1e-4 14.9731,1.5001 21.9375,4.5 7.0177,2.9465 13.0445,6.9643 18.0803,12.0535 5.0891,5.0358 9.1070,11.0625 12.0535,18.0803 2.9998,6.9643 4.4998,14.2768 4.5,21.9375 -1.1e-4,11.7857 -3.3215,22.4732 -9.9642,32.0625 l 27.5625,27.5625 c 1.9820,1.9821 2.9730,4.3928 2.9732,7.2321" /></svg>
