<svg xmlns:svg="http://www.w3.org/2000/svg" xmlns="http://www.w3.org/2000/svg" version="1.1" viewBox="0 0 160 160"><path d="m 143.3214,40.7857 c -3.5894,5.2500 -7.9286,9.7233 -13.0178,13.4196 0.0535,0.7500 0.0802,1.8750 0.0804,3.375 -1.2e-4,6.9643 -1.0179,13.9286 -3.0535,20.8928 -2.0358,6.9107 -5.1429,13.5536 -9.3214,19.9285 -4.1251,6.3750 -9.0536,12.0268 -14.7857,16.9553 -5.7322,4.8751 -12.6429,8.7858 -20.7321,11.7322 -8.0893,2.8928 -16.7411,4.3393 -25.9553,4.3393 -14.5178,0 -27.8035,-3.884 -39.8571,-11.6518 1.8749,0.2143 3.9642,0.3214 6.2678,0.3214 12.0535,0 22.7946,-3.6964 32.2232,-11.0893 -5.6250,-0.1071 -10.6607,-1.8213 -15.1071,-5.1428 -4.4464,-3.3749 -7.5000,-7.6606 -9.1607,-12.8571 1.7678,0.2679 3.4017,0.4018 4.9017,0.4017 2.3035,4e-5 4.5803,-0.2946 6.8303,-0.8839 C 36.6339,89.2947 31.6518,86.3214 27.6875,81.6071 23.7768,76.8393 21.8214,71.3215 21.8214,65.0535 l 0,-0.3214 c 3.6428,2.0357 7.5535,3.134 11.7321,3.2946 -3.5357,-2.3570 -6.3482,-5.4374 -8.4375,-9.2410 -2.0892,-3.8034 -3.1339,-7.9284 -3.1339,-12.375 -9e-6,-4.7141 1.1785,-9.0802 3.5357,-13.0982 6.4821,7.9822 14.3571,14.3840 23.625,19.2053 9.3213,4.7679 19.2856,7.4197 29.8928,7.9553 -0.4286,-2.0356 -0.6429,-4.0177 -0.6428,-5.9464 -6.6e-5,-7.1784 2.5177,-13.2856 7.5535,-18.3214 5.0892,-5.0891 11.2231,-7.6338 18.4017,-7.6339 7.4999,10e-5 13.8213,2.7322 18.9642,8.1964 5.8391,-1.1249 11.3302,-3.2141 16.4732,-6.2678 -1.9822,6.1608 -5.7858,10.9286 -11.4107,14.3035 4.9820,-0.5356 9.9641,-1.8749 14.9464,-4.0178" /></svg>
